<svg width="16" height="16" viewBox="0 0 16 16" fill="none" xmlns="http://www.w3.org/2000/svg">
<g id="RocketLiftOff">
<g id="icons8-rocket-take-off">
<path id="Oval" d="M8.65599 14.3947C11.7095 13.5766 13.5019 10.3641 12.6594 7.21958C11.8168 4.07502 8.65843 2.1891 5.60487 3.00726C2.55132 3.82542 0.758943 7.03784 1.60149 10.1824C2.44403 13.327 5.60244 15.2129 8.65599 14.3947Z" fill="white"></path>
<g id="Group">
<path id="Shape" d="M12.6759 7.25614C11.8483 4.11228 8.7035 2.23158 5.64143 3.07369C5.35177 3.1579 5.06212 3.25614 4.80005 3.38246C7.1035 3.14386 9.32419 4.35088 10.4414 6.42807C10.4276 6.42807 10.4138 6.42807 10.4 6.44211C9.95867 6.56842 9.6966 7.01755 9.82074 7.46667C9.94488 7.91579 10.3863 8.18246 10.8276 8.05614C10.8966 8.04211 10.9656 8.01404 11.0207 7.97193C11.6276 10.7368 10.2345 13.5018 7.77936 14.6246C8.06901 14.5965 8.37246 14.5404 8.66212 14.4561C11.6966 13.6281 13.5035 10.4 12.6759 7.25614Z" fill="#C7D7E2"></path>
<path id="Oval_2" d="M6.34485 11.1439C6.91618 11.1439 7.37933 10.6726 7.37933 10.0912C7.37933 9.50988 6.91618 9.0386 6.34485 9.0386C5.77352 9.0386 5.31036 9.50988 5.31036 10.0912C5.31036 10.6726 5.77352 11.1439 6.34485 11.1439Z" fill="#C7D7E2"></path>
<path id="Oval_3" d="M5.88968 6.17544C6.19438 6.17544 6.4414 5.92409 6.4414 5.61404C6.4414 5.30398 6.19438 5.05264 5.88968 5.05264C5.58497 5.05264 5.33795 5.30398 5.33795 5.61404C5.33795 5.92409 5.58497 6.17544 5.88968 6.17544Z" fill="#C7D7E2"></path>
</g>
<path id="Shape_2" d="M7.22764 15.0316C7.17247 15.0316 7.11729 15.0316 7.06212 15.0316C6.82764 15.0316 6.64833 14.8351 6.66212 14.5965C6.66212 14.3719 6.85523 14.1895 7.07592 14.1895H7.08971C9.04833 14.2456 10.869 13.207 11.8345 11.4947C12.5242 10.2877 12.7173 8.88421 12.3863 7.52281C12.3311 7.29825 12.469 7.07368 12.6897 7.01754C12.9104 6.9614 13.1311 7.10175 13.1863 7.32632C13.5587 8.89825 13.338 10.5263 12.5518 11.9158C11.4621 13.8526 9.43454 15.0316 7.22764 15.0316Z" fill="#454B54"></path>
<path id="Shape_3" d="M3.80695 13.8947C3.72419 13.8947 3.64143 13.8667 3.55867 13.8105C0.979359 11.9158 0.220739 8.39299 1.80695 5.6C2.63453 4.15439 3.95867 3.11579 5.55867 2.69474C7.15867 2.27369 8.82764 2.49825 10.2621 3.34036C10.7587 3.63509 11.2276 4 11.6276 4.42106C11.7932 4.58948 11.7794 4.85615 11.6138 5.01053C11.4483 5.17895 11.1863 5.16492 11.0345 4.9965C10.6897 4.63158 10.2897 4.32281 9.84832 4.05615C8.60695 3.32632 7.15867 3.12983 5.77936 3.49474C4.40005 3.85965 3.24143 4.7579 2.53798 6.00702C1.17246 8.42106 1.83453 11.4807 4.06901 13.1228C4.24832 13.2632 4.2897 13.5158 4.16557 13.7123C4.06901 13.8386 3.94488 13.8947 3.80695 13.8947Z" fill="#454B54"></path>
<path id="Shape_4" d="M3.60004 15.1018C3.0897 15.1018 2.64832 14.9614 2.30349 14.6667C1.64142 14.1053 1.44832 13.1228 1.72418 11.8035C1.76556 11.579 1.98625 11.4246 2.22073 11.4807C2.44142 11.5228 2.59315 11.7474 2.53798 11.986C2.33108 12.9544 2.44142 13.6842 2.84142 14.0351C3.79315 14.8491 6.57935 13.614 9.20004 10.4842C11.5863 7.60702 12.2759 4.07018 12.2897 4.02808C12.3311 3.80351 12.5518 3.64913 12.7725 3.69123C12.9931 3.73334 13.1449 3.9579 13.1035 4.18246C13.0759 4.33685 12.3587 7.97194 9.82073 11.0035C7.66901 13.586 5.26901 15.1018 3.60004 15.1018Z" fill="#454B54"></path>
<path id="Shape_5" d="M9.94486 0.884214C9.83452 0.884214 9.72417 0.842109 9.6552 0.757898C9.57245 0.673688 9.53107 0.575442 9.53107 0.463161C9.53107 0.350881 9.57245 0.2386 9.6552 0.168425C9.80693 0.0140387 10.0828 0.0140387 10.2345 0.168425C10.3173 0.252635 10.3587 0.350881 10.3587 0.463161C10.3587 0.575442 10.3173 0.687723 10.2345 0.757898C10.1518 0.828074 10.0552 0.884214 9.94486 0.884214Z" fill="#454B54"></path>
<path id="Shape_6" d="M15.531 5.51579C15.4207 5.51579 15.3104 5.47369 15.2414 5.38947C15.1586 5.30526 15.1172 5.20702 15.1172 5.09474C15.1172 4.98246 15.1586 4.87018 15.2414 4.8C15.3931 4.64562 15.669 4.64562 15.8207 4.8C15.9035 4.88421 15.9448 4.98246 15.9448 5.09474C15.9448 5.20702 15.9035 5.3193 15.8207 5.38947C15.7517 5.47369 15.6414 5.51579 15.531 5.51579Z" fill="#454B54"></path>
<path id="Shape_7" d="M14.0552 2.75088L13.669 2.49825C13.5725 2.42808 13.5173 2.31579 13.5449 2.18948L13.7242 1.12281C13.7656 0.87018 13.7242 0.617549 13.6 0.392987C13.5173 0.252636 13.338 0.224566 13.2138 0.322812C13.0207 0.491233 12.8966 0.715794 12.8414 0.968426L12.6621 2.03509C12.6345 2.16141 12.5518 2.24562 12.4276 2.27369L12 2.3579C11.8759 2.38597 11.7931 2.48422 11.7656 2.5965L11.7104 2.90527L12.4828 3.04562L12.6897 3.08772L13.1587 3.17193L13.3656 3.21404L14.138 3.35439L14.1931 3.07369C14.2069 2.93334 14.1656 2.82106 14.0552 2.75088Z" fill="#454B54"></path>
</g>
</g>
</svg>