<svg width="16" height="16" viewBox="0 0 16 16" fill="none" xmlns="http://www.w3.org/2000/svg">
<path fill-rule="evenodd" clip-rule="evenodd" d="M5.66474 13.4563L1.53933 9.30858C0.820066 8.58521 0.820247 7.41258 1.53973 6.68944C2.25922 5.96629 3.42555 5.96647 4.14481 6.68984L6.7697 9.3281L11.6846 2.74059C12.0795 2.21135 12.7253 1.93413 13.3786 2.01335C14.0319 2.09258 14.5936 2.51622 14.852 3.12469C15.1104 3.73316 15.0264 4.43402 14.6314 4.96327L8.44171 13.2586C8.1214 13.6886 7.63111 13.9574 7.09814 13.9954C6.56517 14.0333 6.04209 13.8366 5.66474 13.4563Z" fill="#7BCAC5"></path>
<path d="M12 6L9 10" stroke="white" stroke-linecap="round" stroke-linejoin="round"></path>
<circle cx="7.5" cy="11.5" r="0.5" fill="white"></circle>
<path fill-rule="evenodd" clip-rule="evenodd" d="M5.66474 13.4563L1.53933 9.30858C0.820066 8.58521 0.820247 7.41258 1.53973 6.68943C2.25922 5.96629 3.42555 5.96647 4.14481 6.68984L6.76971 9.3281L11.6846 2.74059C12.0795 2.21135 12.7253 1.93413 13.3786 2.01335C14.0319 2.09258 14.5936 2.51622 14.852 3.12469C15.1104 3.73316 15.0264 4.43402 14.6314 4.96327L8.44171 13.2586C8.1214 13.6886 7.63111 13.9574 7.09814 13.9954C6.56517 14.0333 6.04209 13.8366 5.66474 13.4563Z" stroke="#444B54" stroke-linejoin="round"></path>
</svg>