<svg width="16" height="16" viewBox="0 0 16 16" fill="none" xmlns="http://www.w3.org/2000/svg">
<g id="ABC">
<g id="icons8-abc (1)">
<path id="Shape" d="M14.9841 8.5H9.26984V14.6321H14.9841C15.3397 14.6321 15.619 14.3623 15.619 14.0189V9.11321C15.619 8.76981 15.3397 8.5 14.9841 8.5Z" fill="#F69202"/>
<path id="Shape_2" d="M11.8095 2.36792H6.73014C6.37458 2.36792 6.09521 2.63773 6.09521 2.98113V8.5H12.4444V2.98113C12.4444 2.63773 12.1651 2.36792 11.8095 2.36792Z" fill="#F69202"/>
<path id="Shape_3" d="M6.73019 8.5H1.0159C0.660347 8.5 0.380981 8.76981 0.380981 9.11321V14.0189C0.380981 14.3623 0.660347 14.6321 1.0159 14.6321H6.73019V8.5Z" fill="white"/>
<path id="Shape_4" fill-rule="evenodd" clip-rule="evenodd" d="M3.80955 13.5283H2.5397C2.32383 13.5283 2.15875 13.3689 2.15875 13.1604V10.0943C2.15875 9.88584 2.32383 9.72641 2.5397 9.72641H3.75875C4.34288 9.72641 4.82542 10.1924 4.82542 10.7566C4.82542 10.9651 4.74923 11.1736 4.60955 11.3575C4.88891 11.5783 5.07939 11.9217 5.07939 12.3019C5.07939 12.9764 4.50796 13.5283 3.80955 13.5283ZM2.92066 12.7924H3.80955C4.08891 12.7924 4.31748 12.5717 4.31748 12.3019C4.31748 12.0321 4.08891 11.8113 3.80955 11.8113H2.92066V12.7924ZM3.77145 11.0755H2.92066V10.4623H3.75875C3.92383 10.4623 4.06351 10.5972 4.06351 10.7566C4.06351 10.8915 3.92383 11.0387 3.77145 11.0755Z" fill="#42B4AD"/>
<path id="Shape_5" d="M12.4444 8.5H6.73016V14.6321H12.4444C12.8 14.6321 13.0794 14.3623 13.0794 14.0189V9.11321C13.0794 8.76981 12.8 8.5 12.4444 8.5Z" fill="white"/>
<path id="Shape_6" d="M9.26983 2.36792H4.19046C3.83491 2.36792 3.55554 2.63773 3.55554 2.98113V8.5H9.90475V2.98113C9.90475 2.63773 9.62538 2.36792 9.26983 2.36792Z" fill="white"/>
<path id="Shape_7" d="M9.90478 7.76415C9.68891 7.76415 9.52383 7.60472 9.52383 7.39623V2.98113C9.52383 2.84623 9.40954 2.73585 9.26986 2.73585H4.19049C4.05081 2.73585 3.93653 2.84623 3.93653 2.98113V7.0283C3.93653 7.23679 3.77145 7.39623 3.55557 7.39623C3.3397 7.39623 3.17462 7.23679 3.17462 7.0283V2.98113C3.17462 2.44151 3.63176 2 4.19049 2H9.26986C9.82859 2 10.2857 2.44151 10.2857 2.98113V7.39623C10.2857 7.60472 10.1207 7.76415 9.90478 7.76415Z" fill="#444B54"/>
<path id="Shape_8" d="M8.00003 7.0283C7.84765 7.0283 7.70796 6.94245 7.64447 6.79528L6.73019 4.58773L5.8159 6.79528C5.73971 6.97924 5.51114 7.07735 5.32066 7.00377C5.13019 6.93018 5.0286 6.70943 5.10479 6.52547L6.37463 3.45943C6.43812 3.32452 6.5778 3.22641 6.73019 3.22641C6.88257 3.22641 7.02225 3.31226 7.08574 3.45943L8.35558 6.52547C8.43177 6.70943 8.34288 6.93018 8.13971 7.00377C8.08892 7.01603 8.05082 7.0283 8.00003 7.0283Z" fill="#F69202"/>
<path id="Shape_9" d="M7.44125 6.16981H5.96823C5.75236 6.16981 5.58728 6.01038 5.58728 5.80188C5.58728 5.59339 5.75236 5.43396 5.96823 5.43396H7.44125C7.65712 5.43396 7.8222 5.59339 7.8222 5.80188C7.8222 6.01038 7.65712 6.16981 7.44125 6.16981Z" fill="#F69202"/>
<path id="Shape_10" d="M9.96825 13.4057C9.44762 13.4057 8.95238 13.2094 8.57143 12.8538C8.20317 12.4981 8 12.0198 8 11.5047C8 10.9896 8.20317 10.5236 8.57143 10.1557C8.93968 9.8 9.43492 9.60378 9.96825 9.60378C10.5016 9.60378 10.9841 9.8 11.3651 10.1557C11.5175 10.3028 11.5175 10.5359 11.3651 10.6708C11.2127 10.8179 10.9714 10.8179 10.8317 10.6708C10.3619 10.217 9.6 10.217 9.13016 10.6708C8.66032 11.1245 8.66032 11.8604 9.13016 12.3142C9.6 12.7679 10.3619 12.7679 10.8317 12.3142C10.9841 12.167 11.2254 12.167 11.3651 12.3142C11.5175 12.4613 11.5175 12.6943 11.3651 12.8292C10.9841 13.2094 10.4889 13.4057 9.96825 13.4057Z" fill="#D21D3E"/>
<path id="Shape_11" fill-rule="evenodd" clip-rule="evenodd" d="M13.4222 14.2642H15.619C15.8349 14.2642 16 14.4236 16 14.6321C16 14.8406 15.8349 15 15.619 15H12.4444H11.0857H6.09524H5.46032H1.01587C0.457143 15 0 14.5585 0 14.0189V9.11321C0 8.57359 0.457143 8.13208 1.01587 8.13208H6.09524C6.65397 8.13208 7.11111 8.57359 7.11111 9.11321V14.0189C7.11111 14.1047 7.09841 14.1906 7.07302 14.2642H11.0857H12.4444C12.5841 14.2642 12.6984 14.1538 12.6984 14.0189V9.11321C12.6984 8.97831 12.5841 8.86793 12.4444 8.86793H7.87302C7.65714 8.86793 7.49206 8.7085 7.49206 8.5C7.49206 8.29151 7.65714 8.13208 7.87302 8.13208H12.4444C13.0032 8.13208 13.4603 8.57359 13.4603 9.11321V14.0189C13.4603 14.1047 13.4476 14.1906 13.4222 14.2642ZM1.01587 14.2642H5.46032H6.09524C6.23492 14.2642 6.34921 14.1538 6.34921 14.0189V9.11321C6.34921 8.97831 6.23492 8.86793 6.09524 8.86793H1.01587C0.87619 8.86793 0.761905 8.97831 0.761905 9.11321V14.0189C0.761905 14.1538 0.87619 14.2642 1.01587 14.2642Z" fill="#444B54"/>
</g>
</g>
</svg>
