<svg width="16" height="16" viewBox="0 0 16 16" fill="none" xmlns="http://www.w3.org/2000/svg">
<path d="M3.15001 14.125C2.35001 14.125 1.72501 13.425 1.81251 12.6375L1.92501 11.5875C1.98751 10.8875 2.56251 10.375 3.25001 10.375H3.53751L3.15001 14.125ZM12.4625 10.375H12.75C13.4375 10.375 14.025 10.9 14.0875 11.5875L14.2 12.6375C14.2875 13.4375 13.6625 14.125 12.8625 14.125" fill="#EF7292" fill-opacity="0.86"/>
<path d="M11.6125 15.5H4.38751C3.65001 15.5 3.06251 14.8625 3.15001 14.125L3.86251 7.3625C4.07501 5.2375 5.86251 3.625 8.00001 3.625C10.1375 3.625 11.925 5.2375 12.1375 7.35L12.85 14.1125C12.9375 14.8625 12.35 15.5 11.6125 15.5Z" fill="#FCDEB1"/>
<path d="M12.85 14.125L12.2 7.98749C12.1625 7.67499 11.925 7.39999 11.6125 7.36249C11.1625 7.29999 10.7875 7.67499 10.8375 8.11249C11.1875 11.3875 8.61251 14.25 5.31251 14.25H4.41251C4.08751 14.25 3.80001 14.4875 3.76251 14.8125C3.72501 15.1875 4.02501 15.5 4.38751 15.5H11.6125C11.8625 15.5 12.0875 15.375 12.2375 15.1875C12.3875 15 12.45 14.7625 12.4125 14.525C12.4 14.4375 12.4 14.35 12.3875 14.2625C12.3875 14.2125 12.3625 14.1625 12.35 14.125L12.85 14.125Z" fill="#F7A226"/>
<path d="M4.91248 14.25L5.08748 12.55C5.24998 11.05 6.49998 9.875 7.99998 9.875C9.49998 9.875 10.7375 11 10.9 12.4875L11.0875 14.25H4.91248Z" fill="white"/>
<path d="M9.875 7.75H7.375C7.1625 7.75 7 7.5875 7 7.375C7 7.1625 7.1625 7 7.375 7H9.875C10.0875 7 10.25 7.1625 10.25 7.375C10.25 7.5875 10.0875 7.75 9.875 7.75Z" fill="#F7A226"/>
<path d="M6.125 7C5.92554 7 5.75 7.17554 5.75 7.375C5.75 7.57446 5.92554 7.75 6.125 7.75C6.32446 7.75 6.5 7.57446 6.5 7.375C6.5 7.17554 6.32446 7 6.125 7Z" fill="#F7A226"/>
<path d="M14.575 12.5875L14.4625 11.5375C14.375 10.675 13.6625 10.025 12.8 10L12.5125 7.3125C12.325 5.5625 11.175 4.1375 9.625 3.55V2.625C9.625 1.725 8.9 1 8 1C7.1 1 6.375 1.725 6.375 2.625V3.55C4.825 4.1375 3.6625 5.5625 3.4875 7.3125L3.2 10C2.3375 10.025 1.625 10.675 1.5375 11.5375L1.425 12.5875C1.375 13.075 1.5375 13.5625 1.8625 13.925C2.1 14.2 2.425 14.375 2.775 14.45C2.8125 14.775 2.95 15.0875 3.175 15.3375C3.4875 15.675 3.925 15.875 4.3875 15.875H11.6125C12.075 15.875 12.5125 15.675 12.825 15.3375C13.05 15.0875 13.1875 14.775 13.225 14.45C13.575 14.375 13.9 14.1875 14.1375 13.925C14.4625 13.5625 14.625 13.075 14.575 12.5875Z" fill="#444B54"/>
</svg>
