<svg width="16" height="16" viewBox="0 0 16 16" fill="none" xmlns="http://www.w3.org/2000/svg">
<path fill-rule="evenodd" clip-rule="evenodd" d="M0.782599 4.55652C-0.0347921 3.73913 -0.0347921 2.43478 0.782599 1.61739C1.59999 0.800001 2.90434 0.800001 3.72173 1.61739" fill="#F8E390"/>
<path fill-rule="evenodd" clip-rule="evenodd" d="M12.2783 1.61739C13.0957 0.800001 14.4 0.800001 15.2174 1.61739C16.0348 2.43478 16.0348 3.73913 15.2174 4.55652" fill="#F8E390"/>
<path fill-rule="evenodd" clip-rule="evenodd" d="M14.6435 16C14.5043 16 14.3826 15.9478 14.2782 15.8435L12.3304 13.8957C12.1217 13.687 12.1217 13.3565 12.3304 13.1652C12.5391 12.9565 12.8695 12.9565 13.0608 13.1652L15.0087 15.113C15.2174 15.3217 15.2174 15.6522 15.0087 15.8435C14.9043 15.9478 14.7652 16 14.6435 16Z" fill="#454B54"/>
<path fill-rule="evenodd" clip-rule="evenodd" d="M1.35652 16C1.21739 16 1.09565 15.9478 0.9913 15.8435C0.782604 15.6348 0.782604 15.3044 0.9913 15.113L7.63478 8.46957C7.84347 8.26088 8.17391 8.26088 8.36521 8.46957C8.57391 8.67827 8.57391 9.0087 8.36521 9.20001L1.73913 15.8435C1.63478 15.9478 1.49565 16 1.35652 16Z" fill="#454B54"/>
<path fill-rule="evenodd" clip-rule="evenodd" d="M8.00001 9.35653C7.70436 9.35653 7.47827 9.13044 7.47827 8.83479V1.11305C7.47827 0.817396 7.70436 0.591309 8.00001 0.591309C8.29566 0.591309 8.52175 0.817396 8.52175 1.11305V8.83479C8.52175 9.13044 8.29566 9.35653 8.00001 9.35653Z" fill="#454B54"/>
<path fill-rule="evenodd" clip-rule="evenodd" d="M7.99998 15.4783C11.6691 15.4783 14.6435 12.5039 14.6435 8.83479C14.6435 5.1657 11.6691 2.19131 7.99998 2.19131C4.33089 2.19131 1.35651 5.1657 1.35651 8.83479C1.35651 12.5039 4.33089 15.4783 7.99998 15.4783Z" fill="white"/>
<path fill-rule="evenodd" clip-rule="evenodd" d="M10.0348 8.34783H9.11303C8.99129 8.06957 8.78259 7.86087 8.50433 7.73913L8.48694 5.35652C8.48694 5.07826 8.26085 4.86957 7.98259 4.86957C7.70433 4.86957 7.47824 5.09565 7.47824 5.37392L7.49564 7.73913C7.07824 7.91305 6.78259 8.34783 6.78259 8.83479C6.78259 9.51305 7.32172 10.0522 7.99998 10.0522C8.48694 10.0522 8.90433 9.75652 9.09564 9.33913L10.0348 9.32174C10.313 9.32174 10.5391 9.09565 10.5217 8.81739C10.5391 8.55652 10.313 8.34783 10.0348 8.34783Z" fill="#454B54"/>
<path fill-rule="evenodd" clip-rule="evenodd" d="M0.834778 8.83479C0.834778 12.7826 4.05217 16 8 16C11.9478 16 15.1652 12.8 15.1652 8.85218C15.1652 4.90436 11.9478 1.68697 8 1.68697C4.05217 1.68697 0.834778 4.88697 0.834778 8.83479ZM1.87826 8.85218C1.87826 5.47827 4.62608 2.73044 8 2.73044C11.3739 2.73044 14.1217 5.47827 14.1217 8.85218C14.1217 12.2261 11.3739 14.9739 8 14.9739C4.62608 14.9739 1.87826 12.2261 1.87826 8.85218Z" fill="#454B54"/>
<path fill-rule="evenodd" clip-rule="evenodd" d="M14.8869 4.74783C14.713 4.74783 14.5565 4.66087 14.4521 4.52174C13.8782 3.66957 13.1652 2.95652 12.313 2.4C12.0695 2.24348 12.0174 1.91304 12.1739 1.66957C12.3304 1.42609 12.6608 1.37391 12.9043 1.53043C13.8608 2.17391 14.6782 2.9913 15.3217 3.94783C15.4782 4.1913 15.4261 4.50435 15.1826 4.67826C15.0956 4.71304 14.9913 4.74783 14.8869 4.74783Z" fill="#454B54"/>
<path fill-rule="evenodd" clip-rule="evenodd" d="M1.13045 4.73043C1.02611 4.73043 0.921759 4.69565 0.834803 4.64348C0.591324 4.48696 0.539151 4.15652 0.695672 3.91304C1.33915 2.97391 2.13915 2.17391 3.07828 1.53043C3.32176 1.37391 3.6348 1.42609 3.80872 1.66957C3.96524 1.91304 3.91306 2.22609 3.66959 2.4C2.8348 2.95652 2.12176 3.66957 1.56524 4.50435C1.46089 4.64348 1.28698 4.73043 1.13045 4.73043Z" fill="#454B54"/>
<path fill-rule="evenodd" clip-rule="evenodd" d="M9.58263 1.2174C9.54785 1.2174 9.51306 1.2174 9.47828 1.2C8.48698 1.0087 7.49567 1.0087 6.50437 1.2C6.22611 1.25218 5.94785 1.06087 5.89567 0.782612C5.8435 0.504352 6.0348 0.226091 6.31306 0.173917C7.42611 -0.0347789 8.55654 -0.0347789 9.66959 0.173917C9.94785 0.226091 10.1392 0.504352 10.087 0.782612C10.0522 1.04348 9.82611 1.2174 9.58263 1.2174Z" fill="#454B54"/>
</svg>
