<svg width="24" height="24" viewBox="0 0 24 24" fill="none" xmlns="http://www.w3.org/2000/svg">
<g id="ArrowCurved + Right">
<g id="Group">
<path id="Path" d="M3.95798 13.8602C3.69103 14.451 2.99567 14.7135 2.40484 14.4466C1.81402 14.1796 1.55146 13.4843 1.81841 12.8935C2.89394 10.513 5.0302 8.59785 7.68124 7.58022C12.9859 5.54394 18.37 7.88784 20.8882 13.3237C21.1607 13.912 20.9047 14.6098 20.3164 14.8823C19.7281 15.1549 19.0303 14.8989 18.7578 14.3106C16.7483 9.97276 12.649 8.18814 8.52262 9.7721C6.42993 10.5754 4.76955 12.064 3.95798 13.8602Z" fill="#444B54"/>
<path id="Path_2" d="M19.5189 9.24986C19.6431 8.61354 20.2597 8.19844 20.896 8.32271C21.5323 8.44697 21.9474 9.06354 21.8232 9.69986L20.9752 14.0422C20.8542 14.6617 20.265 15.0746 19.6414 14.977L15.1819 14.2787C14.5414 14.1784 14.1035 13.5779 14.2038 12.9373C14.304 12.2968 14.9046 11.8588 15.5451 11.9591L18.8876 12.4825L19.5189 9.24986Z" fill="#444B54"/>
</g>
</g>
</svg>
