<svg width="24" height="24" viewBox="0 0 24 24" fill="none" xmlns="http://www.w3.org/2000/svg">
<g id="Arrow + Right">
<g id="Group">
<path id="Path" fill-rule="evenodd" clip-rule="evenodd" d="M21.7143 13.7308H7.42855C6.45712 13.7308 5.71426 12.9808 5.71426 12C5.71426 11.0192 6.45712 10.2692 7.42855 10.2692H21.7143C22.6857 10.2692 23.4285 11.0192 23.4285 12C23.4285 12.9808 22.6857 13.7308 21.7143 13.7308Z" fill="#444B54"/>
<path id="Path_2" fill-rule="evenodd" clip-rule="evenodd" d="M1.71429 13.7308C1.6 13.7308 1.48571 13.7308 1.37143 13.6731C1.25714 13.6731 1.14286 13.6154 1.02857 13.5577C0.914286 13.5 0.857143 13.4423 0.742857 13.3846C0.628571 13.3269 0.571429 13.2692 0.457143 13.1538C0.171429 12.9231 0 12.4615 0 12C0 11.5385 0.171429 11.0769 0.514286 10.7885C0.571429 10.7308 0.685714 10.6154 0.742857 10.5577C0.857143 10.5 0.914286 10.4423 1.02857 10.3846C1.14286 10.3269 1.25714 10.3269 1.37143 10.2692C1.94286 10.1538 2.51429 10.3269 2.91429 10.7308C3.25714 11.0769 3.42857 11.4808 3.42857 11.9423C3.42857 12.4038 3.25714 12.8654 2.91429 13.1538C2.85714 13.2115 2.74286 13.3269 2.62857 13.3846C2.51429 13.4423 2.45714 13.5 2.34286 13.5577C2.22857 13.6154 2.11429 13.6154 2 13.6731C1.94286 13.7308 1.82857 13.7308 1.71429 13.7308Z" fill="#444B54"/>
<path id="Path_3" fill-rule="evenodd" clip-rule="evenodd" d="M16 19.5C15.5428 19.5 15.1428 19.3269 14.8 18.9808C14.1143 18.2885 14.1143 17.1923 14.8 16.5577L19.3143 12L14.8 7.44231C14.1143 6.75 14.1143 5.65385 14.8 5.01923C15.4857 4.32692 16.5714 4.32692 17.2 5.01923L22.9143 10.7885C23.6 11.4808 23.6 12.5769 22.9143 13.2115L17.2 18.9808C16.8571 19.3269 16.4571 19.5 16 19.5Z" fill="#444B54"/>
</g>
</g>
</svg>
