<svg width="24" height="24" viewBox="0 0 24 24" fill="none" xmlns="http://www.w3.org/2000/svg">
<g id="Arrow + Left">
<g id="Group">
<path id="Path" fill-rule="evenodd" clip-rule="evenodd" d="M2.28574 10.2692L16.5715 10.2692C17.5429 10.2692 18.2857 11.0192 18.2857 12C18.2857 12.9808 17.5429 13.7308 16.5715 13.7308L2.28574 13.7308C1.31431 13.7308 0.571451 12.9808 0.571451 12C0.571451 11.0192 1.31431 10.2692 2.28574 10.2692Z" fill="#444B54"/>
<path id="Path_2" fill-rule="evenodd" clip-rule="evenodd" d="M22.2857 10.2692C22.4 10.2692 22.5143 10.2692 22.6286 10.3269C22.7429 10.3269 22.8571 10.3846 22.9714 10.4423C23.0857 10.5 23.1429 10.5577 23.2571 10.6154C23.3714 10.6731 23.4286 10.7308 23.5429 10.8462C23.8286 11.0769 24 11.5385 24 12C24 12.4615 23.8286 12.9231 23.4857 13.2115C23.4286 13.2692 23.3143 13.3846 23.2571 13.4423C23.1429 13.5 23.0857 13.5577 22.9714 13.6154C22.8571 13.6731 22.7429 13.6731 22.6286 13.7308C22.0571 13.8462 21.4857 13.6731 21.0857 13.2692C20.7429 12.9231 20.5714 12.5192 20.5714 12.0577C20.5714 11.5962 20.7429 11.1346 21.0857 10.8462C21.1429 10.7885 21.2571 10.6731 21.3714 10.6154C21.4857 10.5577 21.5429 10.5 21.6571 10.4423C21.7714 10.3846 21.8857 10.3846 22 10.3269C22.0571 10.2692 22.1714 10.2692 22.2857 10.2692Z" fill="#444B54"/>
<path id="Path_3" fill-rule="evenodd" clip-rule="evenodd" d="M8.00001 4.5C8.45715 4.5 8.85715 4.67308 9.20001 5.01923C9.88572 5.71154 9.88572 6.80769 9.20001 7.44231L4.68572 12L9.20001 16.5577C9.88572 17.25 9.88572 18.3462 9.20001 18.9808C8.51429 19.6731 7.42858 19.6731 6.80001 18.9808L1.08572 13.2115C0.400009 12.5192 0.400009 11.4231 1.08572 10.7885L6.80001 5.01923C7.14287 4.67308 7.54287 4.5 8.00001 4.5Z" fill="#444B54"/>
</g>
</g>
</svg>
