<svg width="24" height="24" viewBox="0 0 24 24" fill="none" xmlns="http://www.w3.org/2000/svg">
<g id="Arrow + Top">
<g id="Group">
<path id="Path" fill-rule="evenodd" clip-rule="evenodd" d="M13.7307 2.28574V16.5715C13.7307 17.5429 12.9807 18.2857 12 18.2857C11.0192 18.2857 10.2692 17.5429 10.2692 16.5715L10.2692 2.28574C10.2692 1.31431 11.0192 0.571451 12 0.571451C12.9807 0.571451 13.7307 1.31431 13.7307 2.28574Z" fill="#444B54"/>
<path id="Path_2" fill-rule="evenodd" clip-rule="evenodd" d="M13.7308 22.2857C13.7308 22.4 13.7308 22.5143 13.6731 22.6286C13.6731 22.7429 13.6154 22.8571 13.5577 22.9714C13.5 23.0857 13.4423 23.1429 13.3846 23.2571C13.3269 23.3714 13.2692 23.4286 13.1538 23.5429C12.9231 23.8286 12.4615 24 12 24C11.5385 24 11.0769 23.8286 10.7885 23.4857C10.7308 23.4286 10.6154 23.3143 10.5577 23.2571C10.5 23.1429 10.4423 23.0857 10.3846 22.9714C10.3269 22.8571 10.3269 22.7429 10.2692 22.6286C10.1538 22.0571 10.3269 21.4857 10.7308 21.0857C11.0769 20.7429 11.4808 20.5714 11.9423 20.5714C12.4038 20.5714 12.8654 20.7429 13.1538 21.0857C13.2115 21.1429 13.3269 21.2571 13.3846 21.3714C13.4423 21.4857 13.5 21.5429 13.5577 21.6571C13.6154 21.7714 13.6154 21.8857 13.6731 22C13.7308 22.0571 13.7308 22.1714 13.7308 22.2857Z" fill="#444B54"/>
<path id="Path_3" fill-rule="evenodd" clip-rule="evenodd" d="M19.5 8.00001C19.5 8.45715 19.3269 8.85715 18.9808 9.20001C18.2885 9.88572 17.1923 9.88572 16.5577 9.20001L12 4.68572L7.44231 9.20001C6.75 9.88572 5.65385 9.88572 5.01923 9.20001C4.32692 8.51429 4.32692 7.42858 5.01923 6.80001L10.7885 1.08572C11.4808 0.400009 12.5769 0.400009 13.2115 1.08572L18.9808 6.80001C19.3269 7.14287 19.5 7.54287 19.5 8.00001Z" fill="#444B54"/>
</g>
</g>
</svg>
