<svg width="24" height="24" viewBox="0 0 24 24" fill="none" xmlns="http://www.w3.org/2000/svg">
<g id="Arrow + Bottom">
<g id="Group">
<path id="Path" fill-rule="evenodd" clip-rule="evenodd" d="M10.2693 21.7143V7.42855C10.2693 6.45712 11.0193 5.71426 12 5.71426C12.9808 5.71426 13.7308 6.45712 13.7308 7.42855L13.7308 21.7143C13.7308 22.6857 12.9808 23.4285 12 23.4285C11.0193 23.4285 10.2693 22.6857 10.2693 21.7143Z" fill="#444B54"/>
<path id="Path_2" fill-rule="evenodd" clip-rule="evenodd" d="M10.2692 1.71429C10.2692 1.6 10.2692 1.48571 10.3269 1.37143C10.3269 1.25714 10.3846 1.14286 10.4423 1.02857C10.5 0.914286 10.5577 0.857143 10.6154 0.742857C10.6731 0.628571 10.7308 0.571429 10.8462 0.457143C11.0769 0.171429 11.5385 0 12 0C12.4615 0 12.9231 0.171429 13.2115 0.514286C13.2692 0.571429 13.3846 0.685714 13.4423 0.742857C13.5 0.857143 13.5577 0.914286 13.6154 1.02857C13.6731 1.14286 13.6731 1.25714 13.7308 1.37143C13.8462 1.94286 13.6731 2.51429 13.2692 2.91429C12.9231 3.25714 12.5192 3.42857 12.0577 3.42857C11.5962 3.42857 11.1346 3.25714 10.8462 2.91429C10.7885 2.85714 10.6731 2.74286 10.6154 2.62857C10.5577 2.51429 10.5 2.45714 10.4423 2.34286C10.3846 2.22857 10.3846 2.11429 10.3269 2C10.2692 1.94286 10.2692 1.82857 10.2692 1.71429Z" fill="#444B54"/>
<path id="Path_3" fill-rule="evenodd" clip-rule="evenodd" d="M4.5 16C4.5 15.5428 4.67308 15.1428 5.01923 14.8C5.71154 14.1143 6.80769 14.1143 7.44231 14.8L12 19.3143L16.5577 14.8C17.25 14.1143 18.3462 14.1143 18.9808 14.8C19.6731 15.4857 19.6731 16.5714 18.9808 17.2L13.2115 22.9143C12.5192 23.6 11.4231 23.6 10.7885 22.9143L5.01923 17.2C4.67308 16.8571 4.5 16.4571 4.5 16Z" fill="#444B54"/>
</g>
</g>
</svg>
