<svg width="24" height="24" viewBox="0 0 24 24" fill="none" xmlns="http://www.w3.org/2000/svg">
<g id="ArrowCurved + Left">
<g id="Group">
<path id="Path" d="M20.042 13.8602C20.309 14.451 21.0043 14.7135 21.5952 14.4466C22.186 14.1796 22.4485 13.4843 22.1816 12.8935C21.1061 10.513 18.9698 8.59785 16.3188 7.58022C11.0141 5.54394 5.62996 7.88784 3.11184 13.3237C2.83933 13.912 3.0953 14.6098 3.68359 14.8823C4.27187 15.1549 4.96968 14.8989 5.24219 14.3106C7.25165 9.97276 11.351 8.18814 15.4774 9.7721C17.5701 10.5754 19.2305 12.064 20.042 13.8602Z" fill="#444B54"/>
<path id="Path_2" d="M4.48113 9.24986C4.35687 8.61354 3.7403 8.19844 3.10398 8.32271C2.46767 8.44697 2.05257 9.06354 2.17684 9.69986L3.02484 14.0422C3.14582 14.6617 3.735 15.0746 4.35859 14.977L8.81805 14.2787C9.45858 14.1784 9.89653 13.5779 9.79624 12.9373C9.69595 12.2968 9.0954 11.8588 8.45487 11.9591L5.11243 12.4825L4.48113 9.24986Z" fill="#444B54"/>
</g>
</g>
</svg>
