<svg width="24" height="24" viewBox="0 0 24 24" fill="none" xmlns="http://www.w3.org/2000/svg">
<g id="Awake">
<g id="icons8-wink copy">
<g id="Group">
<path id="Oval" d="M12.0774 22.6205C18.1294 22.6205 23.0354 17.6966 23.0354 11.6227C23.0354 5.54871 18.1294 0.624802 12.0774 0.624802C6.02549 0.624802 1.11942 5.54871 1.11942 11.6227C1.11942 17.6966 6.02549 22.6205 12.0774 22.6205Z" fill="#FDFCEE"/>
<path id="Shape" d="M12.078 0.25145C18.325 0.25175 23.4068 5.35184 23.4071 11.6216C23.4071 17.8916 18.3252 22.9928 12.078 22.9931C5.83067 22.9931 0.747635 17.893 0.747437 11.623C0.747437 5.35286 5.83055 0.25145 12.078 0.25145ZM12.078 0.99852C6.241 0.99852 1.49188 5.76394 1.49158 11.6216C1.49158 17.48 6.24134 22.2461 12.078 22.2461C17.9144 22.2458 22.663 17.4798 22.663 11.6216C22.6627 5.76413 17.9148 0.99882 12.078 0.99852Z" fill="#515151"/>
</g>
<g id="Group_2">
<g id="Group_3">
<path id="Oval_2" d="M12.0775 20.7175C17.0822 20.7175 21.1393 16.6456 21.1393 11.6227C21.1393 6.59971 17.0822 2.52782 12.0775 2.52782C7.07271 2.52782 3.01556 6.59971 3.01556 11.6227C3.01556 16.6456 7.07271 20.7175 12.0775 20.7175Z" fill="#FFDDA7"/>
<path id="Shape_2" d="M12.0769 2.31395C17.1906 2.31395 21.352 6.48931 21.3523 11.6216C21.3523 16.7541 17.1908 20.9306 12.0769 20.9306C6.96323 20.9304 2.80298 16.7539 2.80298 11.6216C2.80328 6.48949 6.96342 2.31424 12.0769 2.31395ZM12.0769 2.74168C7.19778 2.74197 3.22809 6.72523 3.22778 11.6216C3.22778 16.5192 7.19759 20.5026 12.0769 20.5029C16.9565 20.5029 20.926 16.5189 20.926 11.6216C20.9263 6.72506 16.9563 2.74168 12.0769 2.74168Z" fill="#472B29"/>
</g>
<path id="Shape_3" opacity="0.79" d="M12.0891 3.93377C16.1344 3.93377 19.5695 6.58136 20.8688 10.2791C20.1445 5.96373 16.4941 2.67824 12.0891 2.67824C7.68415 2.67824 4.03378 5.96373 3.30945 10.2791C4.60879 6.58189 8.04393 3.93377 12.0891 3.93377Z" fill="#FBBF5C"/>
</g>
<g id="Group_4">
<path id="Oval_3" d="M17.6683 10.3623C18.2553 10.3623 18.7312 9.88468 18.7312 9.29555C18.7312 8.70641 18.2553 8.22883 17.6683 8.22883C17.0813 8.22883 16.6055 8.70641 16.6055 9.29555C16.6055 9.88468 17.0813 10.3623 17.6683 10.3623Z" fill="#684933"/>
<path id="Shape_4" d="M17.6679 8.09548C18.3273 8.09548 18.8645 8.63398 18.8647 9.29519C18.8647 9.95655 18.3269 10.4949 17.6679 10.4949C17.0086 10.4947 16.4726 9.95642 16.4726 9.29519C16.4728 8.63412 17.0087 8.0957 17.6679 8.09548ZM17.6679 8.36208C17.1554 8.3623 16.738 8.78079 16.7378 9.29519C16.7378 9.80975 17.1553 10.2281 17.6679 10.2283C18.1808 10.2283 18.5981 9.80988 18.5981 9.29519C18.5979 8.78066 18.1801 8.36208 17.6679 8.36208Z" fill="#472B29"/>
</g>
<g id="Group Copy">
<path id="Oval_4" d="M7.02834 10.3623C7.61534 10.3623 8.09119 9.88468 8.09119 9.29555C8.09119 8.70641 7.61534 8.22883 7.02834 8.22883C6.44134 8.22883 5.96548 8.70641 5.96548 9.29555C5.96548 9.88468 6.44134 10.3623 7.02834 10.3623Z" fill="#684933"/>
<path id="Shape_5" d="M7.02795 8.09548C7.68734 8.09548 8.22454 8.63398 8.22473 9.29519C8.22473 9.95655 7.68692 10.4949 7.02795 10.4949C6.36864 10.4947 5.83264 9.95642 5.83264 9.29519C5.83283 8.63412 6.36875 8.0957 7.02795 8.09548ZM7.02795 8.36208C6.51543 8.3623 6.09797 8.78079 6.09778 9.29519C6.09778 9.80975 6.51531 10.2281 7.02795 10.2283C7.54078 10.2283 7.95813 9.80988 7.95813 9.29519C7.95794 8.78066 7.54013 8.36208 7.02795 8.36208Z" fill="#472B29"/>
</g>
</g>
<path id="Path 2" d="M11 11C11 11 11.3879 12 12.5 12C13.612 12 14 11 14 11" stroke="#684933" stroke-linecap="round"/>
</g>
</svg>
