<svg width="64" height="64" viewBox="0 0 64 64" fill="none" xmlns="http://www.w3.org/2000/svg">
<g id="BabySignIn">
<g id="Group 4">
<g id="icons8-baby">
<path id="Shape" d="M28.0908 63.5388C17.2772 63.5388 8.47266 54.8901 8.47266 44.2235V26.4649C8.47266 24.8505 9.06357 23.2361 10.1863 22.0253C10.8363 21.2757 11.959 21.2181 12.6681 21.8523C13.4363 22.4865 13.4954 23.582 12.8454 24.2739C12.3136 24.8505 12.0181 25.6577 12.0181 26.4649V44.1658C12.0181 52.9298 19.2272 60.0217 28.0908 60.0217C36.9545 60.0217 44.1636 52.9298 44.1636 44.1658V26.4649C44.1636 25.6577 43.8681 24.9082 43.3363 24.2739C42.6863 23.5244 42.7454 22.4865 43.5136 21.8523C44.2817 21.2181 45.3454 21.2757 45.9954 22.0253C47.1181 23.2361 47.709 24.8505 47.709 26.4649V44.1658C47.709 54.8325 38.9045 63.5388 28.0908 63.5388Z" fill="#454B54"/>
<path id="Shape_2" d="M28.0907 6.80359C35.8316 6.80359 42.1544 12.973 42.1544 20.6414C42.1544 28.3099 35.8316 34.4793 28.0907 34.4793C20.3498 34.4793 14.0271 28.3099 14.0271 20.6414C14.0271 12.973 20.3498 6.80359 28.0907 6.80359Z" fill="#F0D6BF"/>
<path id="Shape_3" d="M22.1817 18.5061C21.3222 18.5061 20.606 19.2071 20.606 20.0483C20.606 20.8895 21.3222 21.5904 22.1817 21.5904C23.0412 21.5904 23.7575 20.8895 23.7575 20.0483C23.7575 19.2071 23.0412 18.5061 22.1817 18.5061Z" fill="#CEBAAA"/>
<path id="Shape_4" d="M34.7879 18.5061C33.9284 18.5061 33.2122 19.2071 33.2122 20.0483C33.2122 20.8895 33.9284 21.5904 34.7879 21.5904C35.6474 21.5904 36.3637 20.8895 36.3637 20.0483C36.3637 19.2071 35.6474 18.5061 34.7879 18.5061Z" fill="#CEBAAA"/>
<path id="Shape_5" d="M28.0903 5.07397C36.8354 5.07397 43.9256 12.0499 43.9263 20.6404C43.9263 29.2314 36.8358 36.2107 28.0903 36.2107C19.3451 36.2105 12.2544 29.2312 12.2544 20.6404C12.255 12.0501 19.3455 5.0742 28.0903 5.07397ZM28.0903 8.5896C21.3542 8.58983 15.8014 14.0109 15.8013 20.699C15.8013 27.3871 21.2951 32.8081 28.0903 32.8083C34.8858 32.8083 40.3833 27.3873 40.3833 20.699C40.3832 14.0108 34.8266 8.5896 28.0903 8.5896Z" fill="#454B54"/>
<path id="Shape_6" d="M28.0908 61.8091C18.2226 61.8091 10.2454 53.91 10.2454 44.2235V26.465C10.2454 25.2541 10.7181 24.0433 11.4863 23.1785L45.9363 41.5713V44.2235C45.9363 53.91 37.959 61.8091 28.0908 61.8091Z" fill="#C7D7E2"/>
<path id="Shape_7" d="M28.0908 61.8091C37.959 61.8091 45.9363 53.91 45.9363 44.2235V26.465C45.9363 25.2541 45.4635 24.0433 44.6954 23.1785L10.2454 41.5713V44.2235C10.2454 53.91 18.2226 61.8091 28.0908 61.8091Z" fill="white"/>
<path id="Shape_8" d="M28.0908 63.5388C17.2772 63.5388 8.47266 54.8902 8.47266 44.2235V26.465C8.47266 24.8505 9.06357 23.2361 10.1863 22.0253C10.7181 21.3911 11.6636 21.2758 12.3727 21.6217L23.5999 27.6181C24.4863 28.0794 24.7817 29.1172 24.309 29.9821C23.8363 30.8469 22.7727 31.1352 21.8863 30.674L12.1954 25.4848C12.0772 25.7731 12.0181 26.119 12.0181 26.465V44.1659C12.0181 52.9298 19.2272 60.0217 28.0908 60.0217C36.9545 60.0217 44.1636 52.9298 44.1636 44.1659V41.5136C44.1636 40.5334 44.9317 39.7839 45.9363 39.7839C46.9408 39.7839 47.709 40.5334 47.709 41.5136V44.1659C47.709 54.8325 38.9045 63.5388 28.0908 63.5388Z" fill="#454B54"/>
<path id="Shape_9" d="M28.0908 63.5387C17.2772 63.5387 8.47266 54.8901 8.47266 44.2234C8.47266 43.2432 9.24084 42.4937 10.2454 42.4937C11.2499 42.4937 12.0181 43.2432 12.0181 44.2234C12.0181 52.9874 19.2272 60.0793 28.0908 60.0793C36.9545 60.0793 44.1636 52.9874 44.1636 44.2234V26.4649C44.1636 26.1189 44.1045 25.773 43.9863 25.4847L15.9772 40.4757C15.0908 40.9369 14.0272 40.6486 13.5545 39.7838C13.0817 38.9189 13.3772 37.8811 14.2636 37.4198L43.809 21.6793C44.5181 21.2757 45.4636 21.4486 45.9954 22.0829C47.1181 23.2937 47.709 24.9081 47.709 26.5225V44.2234C47.709 54.8324 38.9045 63.5387 28.0908 63.5387Z" fill="#454B54"/>
<path id="Shape_10" d="M28.0908 8.59103C27.0863 8.59103 26.3181 7.84148 26.3181 6.8613C26.3181 3.11355 29.3908 0.115356 33.1727 0.115356C34.1772 0.115356 34.9454 0.864906 34.9454 1.84509C34.9454 2.82527 34.1772 3.57482 33.1727 3.57482C31.3408 3.57482 29.8636 5.07392 29.8636 6.8613C29.8636 7.78382 29.0954 8.59103 28.0908 8.59103Z" fill="#454B54"/>
<path id="Shape_11" d="M26.1211 21.5905C26.5637 22.4941 27.6291 23.1326 28.8787 23.1326C30.1282 23.1326 31.1936 22.4941 31.6362 21.5905" stroke="#CEBAAA" stroke-width="0.5" stroke-linecap="round"/>
</g>
<g id="Attendance/SignIn Copy">
<path id="icons8-login-filled" fill-rule="evenodd" clip-rule="evenodd" d="M49.8069 39.5104C54.0328 39.5104 57.6627 42.0507 59.1826 45.6572C59.3878 46.1023 59.176 46.6235 58.7158 46.8092C58.2556 46.9962 57.7284 46.7721 57.5524 46.3165C56.2958 43.3379 53.3127 41.2376 49.8069 41.2376C45.1658 41.2376 41.4238 44.8998 41.4238 49.4419C41.4238 53.9828 45.1658 57.6463 49.8069 57.6463C53.311 57.6463 56.2958 55.5447 57.5524 52.5661C57.7368 52.1222 58.2539 51.9097 58.707 52.0919C59.1606 52.2759 59.3741 52.7837 59.1826 53.2254C57.6627 56.8336 54.0328 59.3735 49.8069 59.3735C44.2127 59.3735 39.659 54.9155 39.659 49.4419C39.659 43.9671 44.2127 39.5104 49.8069 39.5104ZM48.947 45.5475C49.738 45.5475 50.1294 46.4888 49.5642 47.0286L47.9803 48.5783H59.0864C59.5859 48.5615 59.9998 48.9531 59.9998 49.4402C59.9998 49.9295 59.5859 50.3211 59.0864 50.3056H47.9803L49.5642 51.8523C50.3963 52.6671 49.1486 53.8883 48.316 53.0739L45.2275 50.0512C44.8829 49.7135 44.8829 49.169 45.2275 48.8296L48.316 45.807C48.4815 45.6403 48.7109 45.5475 48.947 45.5475Z" fill="#FCFCFC"/>
<g id="icons8-sign-out">
<path id="Oval" d="M48.1816 60.1446C42.0897 60.1446 37.1513 55.3114 37.1513 49.3494C37.1513 43.3874 42.0897 38.5542 48.1816 38.5542C54.2735 38.5542 59.2119 43.3874 59.2119 49.3494C59.2119 55.3114 54.2735 60.1446 48.1816 60.1446Z" fill="white"/>
<path id="Oval_2" d="M48.1815 57.0602C43.8302 57.0602 40.3027 53.608 40.3027 49.3494C40.3027 45.0908 43.8302 41.6385 48.1815 41.6385C52.5328 41.6385 56.0603 45.0908 56.0603 49.3494C56.0603 53.608 52.5328 57.0602 48.1815 57.0602Z" fill="#79C8A6"/>
<path id="Shape_12" d="M37.7784 52.9464C39.2923 57.1399 43.3784 60.1446 48.1816 60.1446C54.2736 60.1446 59.2119 55.3115 59.2119 49.3494C59.2119 43.3873 54.2736 38.5542 48.1816 38.5542C43.3788 38.5542 39.2933 41.5582 37.7789 45.751" stroke="#444B54" stroke-width="0.578313" stroke-linecap="round"/>
<g id="Group">
<path id="Shape_13" d="M44.2751 52.4979L47.9519 49.3493L44.2751 46.2007" stroke="#444B54" stroke-width="0.578313" stroke-linecap="round" stroke-linejoin="round"/>
<path id="Shape_14" d="M47.7221 49.3494H37.1514" stroke="#444B54" stroke-width="0.578313" stroke-linecap="round" stroke-linejoin="round"/>
</g>
</g>
</g>
</g>
</g>
</svg>
