<svg width="24" height="24" viewBox="0 0 24 24" fill="none" xmlns="http://www.w3.org/2000/svg">
<g id="Bandaid-red">
<g id="Group">
<path id="Path" fill-rule="evenodd" clip-rule="evenodd" d="M13.9143 1.8857L1.62857 14.1714C-0.542857 16.3428 -0.542857 19.9143 1.62857 22.0857C3.8 24.2571 7.37143 24.2571 9.54286 22.0857C9.54286 22.0857 13.8947 17.7338 16.0707 15.5579C17.99 13.6386 21.8286 9.79998 21.8286 9.79998C24 7.62855 24 4.05713 21.8286 1.8857C19.6571 -0.285731 16.0857 -0.285731 13.9143 1.8857Z" fill="#E64766"/>
<path id="Path_2" fill-rule="evenodd" clip-rule="evenodd" d="M21.2 14.8L8.91427 2.51429C7.05713 0.657144 4.05713 0.657144 2.19999 2.51429C0.342843 4.37143 0.342843 7.37143 2.19999 9.22857L14.4857 21.5143C16.3428 23.3714 19.3428 23.3714 21.2 21.5143C23.0571 19.6571 23.0571 16.6571 21.2 14.8Z" fill="white"/>
<path id="Path_3" fill-rule="evenodd" clip-rule="evenodd" d="M11.1143 4.68571L19.0286 12.6L12.3143 19.3143L4.40002 11.4L11.1143 4.68571Z" fill="#E97087"/>
<path id="Path_4" fill-rule="evenodd" clip-rule="evenodd" d="M11.6286 14.1143C11.4 14.1143 11.2 14.2 11.0286 14.3714C10.6857 14.7143 10.7143 15.2571 11.0572 15.6C11.2286 15.7714 11.4572 15.8571 11.6857 15.8571C11.9143 15.8571 12.1143 15.7714 12.2857 15.6C12.6286 15.2571 12.6 14.7143 12.2572 14.3714C12.0857 14.2 11.8572 14.1143 11.6286 14.1143Z" fill="#E3EBF1"/>
<path id="Path_5" fill-rule="evenodd" clip-rule="evenodd" d="M8.68571 11.1714C8.45714 11.1714 8.25714 11.2571 8.08571 11.4285C7.74285 11.7714 7.77142 12.3143 8.11428 12.6571C8.28571 12.8285 8.51428 12.9143 8.74285 12.9143C8.97142 12.9143 9.17142 12.8285 9.34285 12.6571C9.68571 12.3143 9.65714 11.7714 9.31428 11.4285C9.14285 11.2571 8.91428 11.1714 8.68571 11.1714Z" fill="#E3EBF1"/>
<path id="Path_6" fill-rule="evenodd" clip-rule="evenodd" d="M14.6857 11.0857C14.4571 11.0857 14.2571 11.1714 14.0857 11.3429C13.7429 11.6857 13.7714 12.2286 14.1143 12.5714C14.2857 12.7429 14.5143 12.8286 14.7429 12.8286C14.9714 12.8286 15.1714 12.7429 15.3429 12.5714C15.6857 12.2286 15.6571 11.6857 15.3143 11.3429C15.1429 11.1714 14.9143 11.0857 14.6857 11.0857Z" fill="#E3EBF1"/>
<path id="Path_7" fill-rule="evenodd" clip-rule="evenodd" d="M11.7428 8.14284C11.5143 8.14284 11.3143 8.22855 11.1428 8.39998C10.8 8.74284 10.8286 9.28569 11.1714 9.62855C11.3428 9.79998 11.5714 9.88569 11.8 9.88569C12.0286 9.88569 12.2286 9.79998 12.4 9.62855C12.7428 9.28569 12.7143 8.74284 12.3714 8.39998C12.2 8.22855 11.9714 8.14284 11.7428 8.14284Z" fill="#E3EBF1"/>
<path id="Shape" fill-rule="evenodd" clip-rule="evenodd" d="M13.9143 22.1143C14.9714 23.1714 16.3714 23.7428 17.8571 23.7428C19.3429 23.7428 20.7714 23.1714 21.8 22.1143C23.9714 19.9428 23.9714 16.3714 21.8 14.2L9.51429 1.91426C8.45714 0.857119 7.05714 0.28569 5.57143 0.28569C4.08571 0.28569 2.68571 0.857119 1.62857 1.91426C-0.542857 4.08569 -0.542857 7.65712 1.62857 9.82855L13.9143 22.1143ZM2.82857 3.11426C3.57143 2.3714 4.54286 1.9714 5.57143 1.9714C6.6 1.9714 7.57143 2.3714 8.31429 3.11426L20.6 15.4C21.3429 16.1428 21.7429 17.1143 21.7429 18.1428C21.7429 19.1714 21.3429 20.1428 20.6 20.8857C19.8571 21.6285 18.8857 22.0285 17.8571 22.0285C16.8286 22.0285 15.8571 21.6285 15.1143 20.8857L2.82857 8.59998C2.08571 7.85712 1.68571 6.88569 1.68571 5.85712C1.68571 4.82855 2.08571 3.85712 2.82857 3.11426Z" fill="#454B54"/>
<path id="Oval" fill-rule="evenodd" clip-rule="evenodd" d="M5.60262 5.88834C5.93735 5.55361 5.92831 5.00186 5.58242 4.65597C5.23653 4.31008 4.68478 4.30103 4.35004 4.63577C4.01531 4.9705 4.02436 5.52225 4.37025 5.86814C4.71614 6.21403 5.26789 6.22308 5.60262 5.88834Z" fill="#C7D7E2"/>
<path id="Oval_2" fill-rule="evenodd" clip-rule="evenodd" d="M19.2795 19.5652C19.6142 19.2305 19.6052 18.6787 19.2593 18.3328C18.9134 17.987 18.3617 17.9779 18.0269 18.3126C17.6922 18.6474 17.7012 19.1991 18.0471 19.545C18.393 19.8909 18.9448 19.9 19.2795 19.5652Z" fill="#C7D7E2"/>
</g>
</g>
</svg>
