<svg width="24" height="24" viewBox="0 0 24 24" fill="none" xmlns="http://www.w3.org/2000/svg">
<g id="bandaid-yellow">
<g id="icons8-bandage (2)">
<path id="Shape" d="M14.4952 1.86352L2.57955 14.0047C0.473525 16.1506 0.473525 19.68 2.57955 21.8259C4.68557 23.9718 8.14943 23.9718 10.2555 21.8259L22.1711 9.68469C24.2771 7.53881 24.2771 4.0094 22.1711 1.86352C20.0651 -0.282366 16.6012 -0.282366 14.4952 1.86352Z" fill="#FFDDA7"/>
<g id="Group">
<path id="Shape_2" d="M21.5615 14.6259L9.64585 2.48472C7.84464 0.649422 4.93501 0.649422 3.1338 2.48472C1.3326 4.32001 1.3326 7.28472 3.1338 9.12001L15.0495 21.2612C16.8507 23.0965 19.7603 23.0965 21.5615 21.2612C23.3627 19.4259 23.3627 16.4612 21.5615 14.6259Z" fill="white"/>
<path id="Rectangle-path" d="M11.8352 4.70384L19.5162 12.3848L12.8877 19.0133L5.20677 11.3323L11.8352 4.70384Z" fill="#FBBF5C"/>
<path id="Shape_3" fill-rule="evenodd" clip-rule="evenodd" d="M6.40396 0.282349C7.8448 0.282399 9.20196 0.847617 10.2272 1.89221L22.1437 14.0328C24.2496 16.1786 24.2494 19.7077 22.1437 21.8536C21.1461 22.8983 19.76 23.4635 18.319 23.4635C16.8782 23.4634 15.521 22.8982 14.4958 21.8536L2.57925 9.71301C0.473536 7.56726 0.473712 4.03808 2.57925 1.89221C3.60455 0.847506 4.96299 0.282349 6.40396 0.282349ZM6.40396 1.94788C5.40652 1.94788 4.46424 2.34336 3.7438 3.07727C3.02332 3.81139 2.63491 4.77223 2.63491 5.7887C2.63503 6.80499 3.02343 7.76465 3.7438 8.49866L15.6588 20.6393C16.3792 21.3733 17.3216 21.7686 18.319 21.7687C19.3166 21.7687 20.2587 21.3734 20.9792 20.6393C21.6996 19.9052 22.088 18.9457 22.088 17.9293C22.088 16.9129 21.6996 15.9535 20.9792 15.2194L9.06411 3.07727C8.34369 2.34329 7.40141 1.94793 6.40396 1.94788Z" fill="#454B54"/>
<path id="Oval" d="M5.23099 5.79058C5.56646 6.12605 6.10657 6.12984 6.43737 5.79905C6.76816 5.46826 6.76437 4.92814 6.4289 4.59267C6.09343 4.2572 5.55331 4.25341 5.22252 4.5842C4.89172 4.91499 4.89551 5.45511 5.23099 5.79058Z" fill="#C7D7E2"/>
<path id="Oval_2" d="M18.4899 19.3212C18.8254 19.6567 19.3655 19.6605 19.6963 19.3297C20.0271 18.9989 20.0233 18.4588 19.6878 18.1233C19.3524 17.7879 18.8123 17.7841 18.4815 18.1149C18.1507 18.4457 18.1545 18.9858 18.4899 19.3212Z" fill="#C7D7E2"/>
<g id="Group_2">
<g id="Group_3" opacity="0.5">
<path id="Oval_3" d="M11.7061 15.4161C12.0415 15.7516 12.5816 15.7554 12.9124 15.4246C13.2432 15.0938 13.2394 14.5537 12.904 14.2182C12.5685 13.8827 12.0284 13.8789 11.6976 14.2097C11.3668 14.5405 11.3706 15.0806 11.7061 15.4161Z" fill="white"/>
</g>
<g id="Group_4" opacity="0.5">
<path id="Oval_4" d="M8.84942 12.5089C9.1849 12.8444 9.72501 12.8482 10.0558 12.5174C10.3866 12.1866 10.3828 11.6465 10.0473 11.311C9.71186 10.9755 9.17175 10.9717 8.84096 11.3025C8.51016 11.6333 8.51395 12.1734 8.84942 12.5089Z" fill="white"/>
</g>
<g id="Group_5" opacity="0.5">
<path id="Oval_5" d="M14.6757 12.4062C15.0111 12.7417 15.5512 12.7454 15.882 12.4146C16.2128 12.0839 16.209 11.5437 15.8736 11.2083C15.5381 10.8728 14.998 10.869 14.6672 11.1998C14.3364 11.5306 14.3402 12.0707 14.6757 12.4062Z" fill="white"/>
</g>
<g id="Group_6" opacity="0.5">
<path id="Oval_6" d="M11.819 9.49897C12.1545 9.83444 12.6946 9.83823 13.0254 9.50744C13.3562 9.17664 13.3524 8.63653 13.0169 8.30106C12.6815 7.96559 12.1414 7.9618 11.8106 8.29259C11.4798 8.62338 11.4836 9.1635 11.819 9.49897Z" fill="white"/>
</g>
</g>
</g>
</g>
</g>
</svg>
