<svg width="24" height="24" viewBox="0 0 24 24" fill="none" xmlns="http://www.w3.org/2000/svg">
<g id="biscuit">
<g id="icons8-&#209;&#129;racker">
<g id="Group">
<path id="Shape" d="M15.7647 21.3023C15.247 21.3023 14.7529 21.093 14.4 20.7209L13.8823 20.1861L13.3647 20.7209C13.0118 21.093 12.5176 21.3023 12 21.3023C11.4823 21.3023 10.9882 21.093 10.6353 20.7209L10.1176 20.1861L9.59999 20.7209C9.24705 21.093 8.75293 21.3023 8.23528 21.3023C7.71764 21.3023 7.22352 21.093 6.87058 20.7209L6.35293 20.1861L5.83528 20.7209C5.48234 21.093 4.98822 21.3023 4.47058 21.3023C3.59999 21.3023 2.84705 20.7209 2.63528 19.8837L2.54117 19.4884L2.14117 19.3954C1.29411 19.1861 0.705872 18.4419 0.705872 17.5814C0.705872 17.0698 0.917636 16.5814 1.29411 16.2326L1.83528 15.7209L1.29411 15.2093C0.917636 14.8605 0.705872 14.3721 0.705872 13.8605C0.705872 13.3489 0.917636 12.8605 1.29411 12.5116L1.83528 12L1.29411 11.4884C0.917636 11.1396 0.705872 10.6512 0.705872 10.1396C0.705872 9.62793 0.917636 9.13955 1.29411 8.79072L1.83528 8.27909L1.29411 7.76746C0.917636 7.41862 0.705872 6.93025 0.705872 6.41862C0.705872 5.55816 1.29411 4.81397 2.14117 4.60467L2.54117 4.51165L2.63528 4.1163C2.84705 3.27909 3.59999 2.69769 4.47058 2.69769C4.98822 2.69769 5.48234 2.907 5.83528 3.27909L6.35293 3.81397L6.87058 3.27909C7.22352 2.907 7.71764 2.69769 8.23528 2.69769C8.75293 2.69769 9.24705 2.907 9.59999 3.27909L10.1176 3.81397L10.6353 3.27909C10.9882 2.907 11.4823 2.69769 12 2.69769C12.5176 2.69769 13.0118 2.907 13.3647 3.27909L13.8823 3.81397L14.4 3.27909C14.7529 2.907 15.247 2.69769 15.7647 2.69769C16.6353 2.69769 17.3882 3.27909 17.6 4.1163L17.6941 4.51165L18.0941 4.60467C18.9412 4.81397 19.5294 5.55816 19.5294 6.41862C19.5294 6.93025 19.3176 7.41862 18.9412 7.76746L18.3765 8.27909L18.9176 8.79072C19.2941 9.13955 19.5059 9.62793 19.5059 10.1396C19.5059 10.6512 19.2941 11.1396 18.9176 11.4884L18.3765 12L18.9176 12.5116C19.2941 12.8605 19.5059 13.3489 19.5059 13.8605C19.5059 14.3721 19.2941 14.8605 18.9176 15.2093L18.3765 15.7209L18.9176 16.2326C19.2941 16.5814 19.5059 17.0698 19.5059 17.5814C19.5059 18.4419 18.9176 19.1861 18.0706 19.3954L17.6706 19.4884L17.5765 19.8837C17.3882 20.7209 16.6353 21.3023 15.7647 21.3023Z" fill="#FFE4CF"/>
<g id="Group_2" opacity="0.3">
<path id="Shape_2" d="M19.5294 10.1395C19.5294 9.6279 19.3176 9.13953 18.9411 8.79069L18.3764 8.27906L18.9176 7.76744C19.2941 7.4186 19.5058 6.93023 19.5058 6.4186C19.5058 5.55813 18.9176 4.81395 18.0705 4.60464C16.6353 4.60464 15.4823 5.74418 15.4823 7.16278V11.3721C15.4823 12.6744 15.0588 13.8837 14.3294 14.8837C14.1882 14.6977 13.9294 14.5581 13.647 14.5581C13.1294 14.5581 12.7058 14.9767 12.7058 15.4884C12.7058 15.7674 12.847 16.0232 13.0588 16.2093C12.0705 16.9302 10.847 17.3488 9.50584 17.3488H5.24702C3.81172 17.3488 2.65878 18.4884 2.65878 19.907C2.87055 20.7442 3.62349 21.3256 4.49408 21.3256C5.01172 21.3256 5.50584 21.1163 5.85878 20.7442L6.37643 20.2093L6.89408 20.7442C7.24702 21.1163 7.74114 21.3256 8.25878 21.3256C8.77643 21.3256 9.27055 21.1163 9.62349 20.7442L10.1411 20.2093L10.6588 20.7442C11.0117 21.1163 11.5058 21.3256 12.0235 21.3256C12.5411 21.3256 13.0353 21.1163 13.3882 20.7442L13.9058 20.2093L14.4235 20.7442C14.7764 21.1163 15.2705 21.3256 15.7882 21.3256C16.6588 21.3256 17.4117 20.7442 17.6235 19.907L17.7176 19.5116L18.1176 19.4186C18.9647 19.2093 19.5529 18.4651 19.5529 17.6046C19.5529 17.093 19.3411 16.6046 18.9647 16.2558L18.4235 15.7442L18.9647 15.2326C19.3411 14.8837 19.5529 14.3953 19.5529 13.8837C19.5529 13.3721 19.3411 12.8837 18.9647 12.5349L18.3764 12L18.9176 11.4884C19.3176 11.1395 19.5294 10.6512 19.5294 10.1395Z" fill="#BA7879"/>
</g>
<g id="Group_3">
<path id="Shape_3" d="M2.58824 8.97676C1.15294 8.97676 0 7.83723 0 6.41862C0 6.02327 0.305882 5.72095 0.705882 5.72095C1.10588 5.72095 1.41176 6.02327 1.41176 6.41862C1.41176 7.06978 1.92941 7.58141 2.58824 7.58141C2.98824 7.58141 3.29412 7.88374 3.29412 8.27909C3.29412 8.67444 2.98824 8.97676 2.58824 8.97676Z" fill="#3F4A54"/>
<path id="Shape_4" d="M17.6471 8.97674C17.2471 8.97674 16.9412 8.67441 16.9412 8.27906C16.9412 7.88371 17.2471 7.58139 17.6471 7.58139C18.3059 7.58139 18.8235 7.06976 18.8235 6.4186C18.8235 5.76744 18.3059 5.25581 17.6471 5.25581C17.2471 5.25581 16.9412 4.95348 16.9412 4.55813C16.9412 4.16278 17.2471 3.86046 17.6471 3.86046C19.0824 3.86046 20.2353 4.99999 20.2353 6.4186C20.2353 7.8372 19.0824 8.97674 17.6471 8.97674Z" fill="#3F4A54"/>
<path id="Shape_5" d="M2.58824 12.6977C1.15294 12.6977 0 11.5581 0 10.1395C0 8.72093 1.15294 7.58139 2.58824 7.58139C2.98824 7.58139 3.29412 7.88372 3.29412 8.27906C3.29412 8.67441 2.98824 8.97674 2.58824 8.97674C1.92941 8.97674 1.41176 9.48837 1.41176 10.1395C1.41176 10.7907 1.92941 11.3023 2.58824 11.3023C2.98824 11.3023 3.29412 11.6046 3.29412 12C3.29412 12.3953 2.98824 12.6977 2.58824 12.6977Z" fill="#3F4A54"/>
<path id="Shape_6" d="M17.6471 12.6977C17.2471 12.6977 16.9412 12.3953 16.9412 12C16.9412 11.6046 17.2471 11.3023 17.6471 11.3023C18.3059 11.3023 18.8235 10.7907 18.8235 10.1395C18.8235 9.48837 18.3059 8.97674 17.6471 8.97674C17.2471 8.97674 16.9412 8.67441 16.9412 8.27906C16.9412 7.88372 17.2471 7.58139 17.6471 7.58139C19.0824 7.58139 20.2353 8.72093 20.2353 10.1395C20.2353 11.5581 19.0824 12.6977 17.6471 12.6977Z" fill="#3F4A54"/>
<path id="Shape_7" d="M2.58824 16.4186C1.15294 16.4186 0 15.2791 0 13.8605C0 12.4419 1.15294 11.3023 2.58824 11.3023C2.98824 11.3023 3.29412 11.6046 3.29412 12C3.29412 12.3953 2.98824 12.6977 2.58824 12.6977C1.92941 12.6977 1.41176 13.2093 1.41176 13.8605C1.41176 14.5116 1.92941 15.0233 2.58824 15.0233C2.98824 15.0233 3.29412 15.3256 3.29412 15.7209C3.29412 16.1163 2.98824 16.4186 2.58824 16.4186Z" fill="#3F4A54"/>
<path id="Shape_8" d="M17.6471 16.4186C17.2471 16.4186 16.9412 16.1163 16.9412 15.7209C16.9412 15.3256 17.2471 15.0233 17.6471 15.0233C18.3059 15.0233 18.8235 14.5116 18.8235 13.8605C18.8235 13.2093 18.3059 12.6977 17.6471 12.6977C17.2471 12.6977 16.9412 12.3953 16.9412 12C16.9412 11.6046 17.2471 11.3023 17.6471 11.3023C19.0824 11.3023 20.2353 12.4419 20.2353 13.8605C20.2353 15.2791 19.0824 16.4186 17.6471 16.4186Z" fill="#3F4A54"/>
<path id="Shape_9" d="M2.58824 20.1395C1.15294 20.1395 0 19 0 17.5814C0 16.1628 1.15294 15.0233 2.58824 15.0233C2.98824 15.0233 3.29412 15.3256 3.29412 15.7209C3.29412 16.1163 2.98824 16.4186 2.58824 16.4186C1.92941 16.4186 1.41176 16.9302 1.41176 17.5814C1.41176 18.2326 1.92941 18.7442 2.58824 18.7442C2.98824 18.7442 3.29412 19.0465 3.29412 19.4419C3.29412 19.8372 2.98824 20.1395 2.58824 20.1395Z" fill="#3F4A54"/>
<path id="Shape_10" d="M4.47056 22C3.03527 22 1.88232 20.8605 1.88232 19.4419C1.88232 19.0465 2.18821 18.7442 2.58821 18.7442C2.98821 18.7442 3.29409 19.0465 3.29409 19.4419C3.29409 20.093 3.81174 20.6047 4.47056 20.6047C5.12938 20.6047 5.64703 20.093 5.64703 19.4419C5.64703 19.0465 5.95291 18.7442 6.35291 18.7442C6.75291 18.7442 7.05879 19.0465 7.05879 19.4419C7.05879 20.8605 5.90585 22 4.47056 22Z" fill="#3F4A54"/>
<path id="Shape_11" d="M8.2353 22C6.80001 22 5.64706 20.8605 5.64706 19.4419C5.64706 19.0465 5.95295 18.7442 6.35295 18.7442C6.75295 18.7442 7.05883 19.0465 7.05883 19.4419C7.05883 20.093 7.57648 20.6047 8.2353 20.6047C8.89412 20.6047 9.41177 20.093 9.41177 19.4419C9.41177 19.0465 9.71765 18.7442 10.1177 18.7442C10.5177 18.7442 10.8235 19.0465 10.8235 19.4419C10.8235 20.8605 9.67059 22 8.2353 22Z" fill="#3F4A54"/>
<path id="Shape_12" d="M12 22C10.5647 22 9.4118 20.8605 9.4118 19.4419C9.4118 19.0465 9.71769 18.7442 10.1177 18.7442C10.5177 18.7442 10.8236 19.0465 10.8236 19.4419C10.8236 20.093 11.3412 20.6047 12 20.6047C12.6589 20.6047 13.1765 20.093 13.1765 19.4419C13.1765 19.0465 13.4824 18.7442 13.8824 18.7442C14.2824 18.7442 14.5883 19.0465 14.5883 19.4419C14.5883 20.8605 13.4353 22 12 22Z" fill="#3F4A54"/>
<path id="Shape_13" d="M17.6471 20.1395C17.2471 20.1395 16.9412 19.8372 16.9412 19.4419C16.9412 19.0465 17.2471 18.7442 17.6471 18.7442C18.3059 18.7442 18.8235 18.2326 18.8235 17.5814C18.8235 16.9302 18.3059 16.4186 17.6471 16.4186C17.2471 16.4186 16.9412 16.1163 16.9412 15.7209C16.9412 15.3256 17.2471 15.0233 17.6471 15.0233C19.0824 15.0233 20.2353 16.1628 20.2353 17.5814C20.2353 19 19.0824 20.1395 17.6471 20.1395Z" fill="#3F4A54"/>
<path id="Shape_14" d="M15.7647 22C14.3294 22 13.1765 20.8605 13.1765 19.4419C13.1765 19.0465 13.4823 18.7442 13.8823 18.7442C14.2823 18.7442 14.5882 19.0465 14.5882 19.4419C14.5882 20.093 15.1059 20.6047 15.7647 20.6047C16.4235 20.6047 16.9412 20.093 16.9412 19.4419C16.9412 19.0465 17.247 18.7442 17.647 18.7442C18.047 18.7442 18.3529 19.0465 18.3529 19.4419C18.3529 20.8605 17.2 22 15.7647 22Z" fill="#3F4A54"/>
<path id="Shape_15" d="M6.35291 5.25583C5.95291 5.25583 5.64703 4.9535 5.64703 4.55815C5.64703 3.90699 5.12938 3.39536 4.47056 3.39536C3.81174 3.39536 3.29409 3.90699 3.29409 4.55815C3.29409 4.9535 2.98821 5.25583 2.58821 5.25583C2.18821 5.25583 1.88232 4.9535 1.88232 4.55815C1.88232 3.13955 3.03527 2.00002 4.47056 2.00002C5.90585 2.00002 7.05879 3.13955 7.05879 4.55815C7.05879 4.9535 6.75291 5.25583 6.35291 5.25583Z" fill="#3F4A54"/>
<path id="Shape_16" d="M10.1176 5.25583C9.71762 5.25583 9.41174 4.9535 9.41174 4.55815C9.41174 3.90699 8.89409 3.39536 8.23527 3.39536C7.83527 3.39536 7.52939 3.09304 7.52939 2.69769C7.52939 2.30234 7.83527 2.00002 8.23527 2.00002C9.67056 2.00002 10.8235 3.13955 10.8235 4.55815C10.8235 4.9535 10.5176 5.25583 10.1176 5.25583Z" fill="#3F4A54"/>
<path id="Shape_17" d="M13.8824 5.25583C13.4824 5.25583 13.1765 4.9535 13.1765 4.55815C13.1765 3.90699 12.6589 3.39536 12 3.39536C11.3412 3.39536 10.8236 3.90699 10.8236 4.55815C10.8236 4.9535 10.5177 5.25583 10.1177 5.25583C9.71769 5.25583 9.4118 4.9535 9.4118 4.55815C9.4118 3.13955 10.5647 2.00002 12 2.00002C13.4353 2.00002 14.5883 3.13955 14.5883 4.55815C14.5883 4.9535 14.2824 5.25583 13.8824 5.25583Z" fill="#3F4A54"/>
<path id="Shape_18" d="M17.647 5.25583C17.247 5.25583 16.9412 4.9535 16.9412 4.55815C16.9412 3.90699 16.4235 3.39536 15.7647 3.39536C15.1059 3.39536 14.5882 3.90699 14.5882 4.55815C14.5882 4.9535 14.2823 5.25583 13.8823 5.25583C13.4823 5.25583 13.1765 4.9535 13.1765 4.55815C13.1765 3.13955 14.3294 2.00002 15.7647 2.00002C17.2 2.00002 18.3529 3.13955 18.3529 4.55815C18.3529 4.9535 18.047 5.25583 17.647 5.25583Z" fill="#3F4A54"/>
</g>
<g id="Group_4" opacity="0.3">
<path id="Oval" d="M10.1177 12.9302C10.6375 12.9302 11.0589 12.5138 11.0589 12C11.0589 11.4863 10.6375 11.0698 10.1177 11.0698C9.59789 11.0698 9.17651 11.4863 9.17651 12C9.17651 12.5138 9.59789 12.9302 10.1177 12.9302Z" fill="#BA7879"/>
</g>
<g id="Group_5" opacity="0.3">
<path id="Oval_2" d="M6.58824 9.44186C7.10804 9.44186 7.52942 9.02538 7.52942 8.51162C7.52942 7.99787 7.10804 7.58139 6.58824 7.58139C6.06844 7.58139 5.64706 7.99787 5.64706 8.51162C5.64706 9.02538 6.06844 9.44186 6.58824 9.44186Z" fill="#BA7879"/>
</g>
<g id="Group_6" opacity="0.3">
<path id="Oval_3" d="M13.647 9.44186C14.1668 9.44186 14.5882 9.02538 14.5882 8.51162C14.5882 7.99787 14.1668 7.58139 13.647 7.58139C13.1273 7.58139 12.7059 7.99787 12.7059 8.51162C12.7059 9.02538 13.1273 9.44186 13.647 9.44186Z" fill="#BA7879"/>
</g>
<g id="Group_7" opacity="0.3">
<path id="Oval_4" d="M6.58824 16.4186C7.10804 16.4186 7.52942 16.0022 7.52942 15.4884C7.52942 14.9746 7.10804 14.5582 6.58824 14.5582C6.06844 14.5582 5.64706 14.9746 5.64706 15.4884C5.64706 16.0022 6.06844 16.4186 6.58824 16.4186Z" fill="#BA7879"/>
</g>
</g>
<path id="Shape_19" d="M19.5294 22H0.705882C0.305882 22 0 21.6977 0 21.3023C0 20.907 0.305882 20.6047 0.705882 20.6047H19.5294C19.9294 20.6047 20.2353 20.907 20.2353 21.3023C20.2353 21.6977 19.9294 22 19.5294 22Z" fill="#3F4A54"/>
<path id="Shape_20" d="M23.0588 22C23.0118 22 22.9647 22 22.9177 21.9768C22.8706 21.9768 22.8236 21.9535 22.7765 21.9303C22.7294 21.907 22.7059 21.8837 22.6588 21.8605C22.6118 21.8372 22.5883 21.814 22.5412 21.7675C22.5177 21.7442 22.4706 21.6977 22.4471 21.6512C22.4236 21.6047 22.4 21.5814 22.3765 21.5349C22.353 21.4884 22.353 21.4419 22.3294 21.3954C22.3294 21.3489 22.3059 21.3024 22.3059 21.2558C22.3059 21.2093 22.3059 21.1628 22.3294 21.1163C22.3294 21.0698 22.353 21.0233 22.3765 20.9768C22.4 20.9303 22.4236 20.907 22.4471 20.8605C22.4706 20.814 22.4941 20.7907 22.5412 20.7675C22.5883 20.7442 22.6118 20.6977 22.6588 20.6744C22.7059 20.6512 22.7294 20.6279 22.7765 20.6047C22.8236 20.5814 22.8706 20.5814 22.9177 20.5582C23.0118 20.5349 23.1059 20.5349 23.2 20.5582C23.2471 20.5582 23.2941 20.5814 23.3412 20.6047C23.3883 20.6279 23.4353 20.6512 23.4588 20.6744C23.5059 20.6977 23.5294 20.721 23.553 20.7675C23.5765 20.7907 23.6236 20.8372 23.6471 20.8605C23.6706 20.907 23.6941 20.9303 23.7177 20.9768C23.7412 21.0233 23.7412 21.0698 23.7647 21.1163C23.7647 21.1628 23.7883 21.2093 23.7883 21.2558C23.7883 21.3024 23.7883 21.3489 23.7647 21.3954C23.7647 21.4419 23.7412 21.4884 23.7177 21.5349C23.6941 21.5814 23.6706 21.6279 23.6471 21.6512C23.6236 21.6977 23.6 21.721 23.553 21.7675C23.5294 21.7907 23.4824 21.8372 23.4588 21.8605C23.4118 21.8837 23.3883 21.907 23.3412 21.9303C23.2941 21.9535 23.2471 21.9535 23.2 21.9768C23.153 22 23.1059 22 23.0588 22Z" fill="#3F4A54"/>
</g>
</g>
</svg>
