<svg width="24" height="24" viewBox="0 0 24 24" fill="none" xmlns="http://www.w3.org/2000/svg">
<g id="Book">
<g id="icons8-read">
<path id="Shape" d="M20.3483 0.62069H4.60349C3.30004 0.62069 2.22418 1.67586 2.22418 3V20.5448C2.22418 18.9724 3.50694 17.6897 5.05866 17.6897H22.0242C22.5828 17.6897 23.0378 17.1931 22.9759 16.6345L21.3 1.46897C21.238 0.993104 20.8242 0.62069 20.3483 0.62069Z" fill="#D3B3D5"/>
<path id="Shape_2" d="M6.03108 0.62069H4.60349C3.30004 0.62069 2.22418 1.67586 2.22418 3V19.5317C2.63446 18.4568 3.67722 17.6897 4.89315 17.6897H6.03108V0.62069Z" fill="#BFA3C1"/>
<path id="Shape_3" d="M21.1966 17.6897H5.07936C3.50694 17.6897 2.24487 18.9724 2.24487 20.5241C2.24487 22.0965 3.52763 23.3586 5.07936 23.3586H21.1966V17.6897Z" fill="#F7F7FB"/>
<path id="Shape_4" d="M20.3476 0C21.1543 0 21.8174 0.599745 21.9003 1.38574L23.5761 16.5513C23.6175 16.9858 23.4924 17.4419 23.1821 17.7729C22.8924 18.1036 22.4577 18.29 22.0029 18.29H21.8168V22.7593H23.1C23.4516 22.7593 23.7209 23.0274 23.7211 23.3789C23.7211 23.7306 23.4311 24 23.1 24H5.07953C3.17608 24 1.60345 22.4481 1.60345 20.5239V3C1.60345 1.34483 2.94828 0 4.60345 0H20.3476ZM5.07953 18.3105C3.85897 18.3105 2.84439 19.3032 2.84418 20.5444C2.84418 21.7858 3.85884 22.7593 5.07953 22.7593H20.5761V21.0615H4.60345C4.2519 21.0615 3.98262 20.7934 3.98236 20.4419C3.98236 20.0902 4.25173 19.8208 4.60345 19.8208H20.5761V18.3105H5.07953ZM4.60345 1.2832C3.63104 1.2832 2.84418 2.02759 2.84418 3C2.84418 3 2.84418 17.7916 2.84418 17.896C3.44418 17.3994 4.23125 17.0903 5.07953 17.0903H22.0453C22.169 17.0902 22.2515 17.0276 22.2929 16.9863C22.3343 16.9449 22.3971 16.8614 22.3764 16.7373L20.7006 1.57178C20.6797 1.40673 20.5347 1.2835 20.3696 1.2832H6.65131V14.855C6.65131 15.1858 6.36245 15.4757 6.03168 15.4761C5.67995 15.4761 5.41058 15.2067 5.41058 14.855V1.2832H4.60345Z" fill="#464C55"/>
</g>
</g>
</svg>
