<svg width="64" height="64" viewBox="0 0 64 64" fill="none" xmlns="http://www.w3.org/2000/svg">
<g id="Bookmark">
<g id="icons8-bookmark (4)">
<path id="Oval" d="M32 62.1886C48.6727 62.1886 62.1886 48.6727 62.1886 32C62.1886 15.3272 48.6727 1.81128 32 1.81128C15.3272 1.81128 1.81128 15.3272 1.81128 32C1.81128 48.6727 15.3272 62.1886 32 62.1886Z" fill="white"/>
<path id="Shape" d="M56.151 13.8867C51.8039 8.09051 45.4039 3.92447 38.0378 2.41504V41.0565L47.0944 35.0188L56.151 41.0565V13.8867Z" fill="#659EC9"/>
<path id="Shape_2" d="M50.1132 6.063V32L41.0566 25.9623L32 32V0.0252686" fill="white"/>
<path id="Shape_3" d="M32 64C14.3698 64 0 49.6302 0 32C0 14.3698 14.3698 0 32 0C33.0264 0 33.8113 0.784906 33.8113 1.81132C33.8113 2.83774 33.0264 3.62264 32 3.62264C16.3623 3.62264 3.62264 16.3623 3.62264 32C3.62264 47.6377 16.3623 60.3774 32 60.3774C47.6377 60.3774 60.3774 47.6377 60.3774 32C60.3774 23.0038 56.2113 14.7321 49.0264 9.29811C48.2415 8.69434 48.0604 7.54717 48.6642 6.76226C49.2679 5.97736 50.4151 5.79623 51.2 6.4C59.3509 12.4981 64 21.8566 64 32C64 49.6302 49.6302 64 32 64Z" fill="#444B54"/>
<path id="Shape_4" d="M32 33.8113C31.6982 33.8113 31.3963 33.7509 31.1548 33.5698C30.551 33.2679 30.1887 32.6642 30.1887 32V1.81132C30.1887 0.784906 30.9736 0 32 0C33.0265 0 33.8114 0.784906 33.8114 1.81132V28.6189L40.0302 24.4528C40.634 24.0302 41.4189 24.0302 42.0227 24.4528L51.0189 30.7925C51.8642 31.3358 52.1057 32.483 51.5019 33.3283C50.9585 34.1736 49.8114 34.4151 48.9661 33.8113L41.0566 28.1358L33.0265 33.5094C32.7246 33.6906 32.3623 33.8113 32 33.8113Z" fill="#444B54"/>
<path id="Shape_5" d="M50.1132 33.8114C49.9925 33.8114 49.8717 33.8114 49.751 33.751C49.6302 33.751 49.5095 33.6906 49.3887 33.6302C49.2679 33.5699 49.2076 33.5095 49.0868 33.4491C48.9661 33.3887 48.9057 33.3284 48.7849 33.2076C48.7245 33.1472 48.6038 33.0265 48.5434 32.9057C48.483 32.785 48.4227 32.7246 48.3623 32.6038C48.3019 32.4831 48.3019 32.3623 48.2415 32.2416C48.2415 32.1208 48.1812 32 48.1812 31.8793C48.1812 31.7585 48.1812 31.6378 48.2415 31.517C48.2415 31.3963 48.3019 31.2755 48.3623 31.1548C48.4227 31.034 48.483 30.9736 48.5434 30.8529C48.6038 30.7321 48.6642 30.6717 48.7849 30.551C49.2076 30.1284 49.8113 29.9472 50.4151 30.068C50.5359 30.068 50.6566 30.1284 50.7774 30.1887C50.8981 30.2491 51.0189 30.3095 51.0793 30.3699C51.2 30.4302 51.2604 30.4906 51.3812 30.6114C51.4415 30.6717 51.5623 30.7925 51.6227 30.9133C51.683 31.034 51.7434 31.0944 51.8038 31.2151C51.8642 31.3359 51.8642 31.4567 51.9245 31.5774C51.9245 31.6982 51.9849 31.8189 51.9849 31.9397C51.9849 32.0604 51.9849 32.1812 51.9245 32.3019C51.9245 32.4227 51.8642 32.5434 51.8038 32.6642C51.7434 32.785 51.683 32.9057 51.6227 32.9661C51.5623 33.0868 51.5019 33.1472 51.3812 33.268C51.0793 33.6302 50.5962 33.8114 50.1132 33.8114Z" fill="#444B54"/>
<path id="Shape_6" d="M50.1133 33.2075C49.0869 33.2075 48.302 32.1984 48.302 30.8787V8.36656C48.302 7.04688 49.0869 6.03772 50.1133 6.03772C51.1397 6.03772 51.9246 7.04688 51.9246 8.36656V30.8787C51.9246 32.1984 51.1397 33.2075 50.1133 33.2075Z" fill="#444B54"/>
</g>
</g>
</svg>
