<svg width="16" height="16" viewBox="0 0 16 16" fill="none" xmlns="http://www.w3.org/2000/svg">
<g id="BookIn">
<g id="icons8-ticket">
<path id="Shape" d="M10.069 4.64914V4.12283C9.83451 4.12283 9.6552 3.95177 9.6552 3.72809H1.79313C1.03451 3.72809 0.413818 4.32019 0.413818 5.04388V6.88598C1.40692 6.88598 2.20692 7.64914 2.20692 8.59651C2.20692 9.54388 1.40692 10.307 0.413818 10.307V11.6228C0.413818 12.3465 1.03451 12.9386 1.79313 12.9386H9.6552C9.6552 12.7149 9.83451 12.5439 10.069 12.5439V12.0176C9.83451 12.0176 9.6552 11.8465 9.6552 11.6228C9.6552 11.3991 9.83451 11.2281 10.069 11.2281V10.7018C9.83451 10.7018 9.6552 10.5307 9.6552 10.307C9.6552 10.0834 9.83451 9.9123 10.069 9.9123V9.38598C9.83451 9.38598 9.6552 9.21493 9.6552 8.99125C9.6552 8.76756 9.83451 8.59651 10.069 8.59651V8.07019C9.83451 8.07019 9.6552 7.89914 9.6552 7.67546C9.6552 7.45177 9.83451 7.28072 10.069 7.28072V6.7544C9.83451 6.7544 9.6552 6.58335 9.6552 6.35967C9.6552 6.13598 9.83451 5.96493 10.069 5.96493V5.43861C9.83451 5.43861 9.6552 5.26756 9.6552 5.04388C9.6552 4.82019 9.83451 4.64914 10.069 4.64914Z" fill="white"/>
<g id="Group">
<path id="Shape_2" d="M8.00003 6.75441H3.8621C3.62761 6.75441 3.4483 6.58336 3.4483 6.35967C3.4483 6.13599 3.62761 5.96494 3.8621 5.96494H8.00003C8.23451 5.96494 8.41382 6.13599 8.41382 6.35967C8.41382 6.58336 8.23451 6.75441 8.00003 6.75441Z" fill="#E6E6EF"/>
<path id="Shape_3" d="M8.00003 9.386H3.8621C3.62761 9.386 3.4483 9.21495 3.4483 8.99126C3.4483 8.76758 3.62761 8.59653 3.8621 8.59653H8.00003C8.23451 8.59653 8.41382 8.76758 8.41382 8.99126C8.41382 9.21495 8.23451 9.386 8.00003 9.386Z" fill="#E6E6EF"/>
<path id="Shape_4" d="M6.62072 10.7018H3.8621C3.62761 10.7018 3.4483 10.5307 3.4483 10.307C3.4483 10.0833 3.62761 9.91229 3.8621 9.91229H6.62072C6.8552 9.91229 7.03451 10.0833 7.03451 10.307C7.03451 10.5307 6.8552 10.7018 6.62072 10.7018Z" fill="#E6E6EF"/>
<path id="Shape_5" d="M8.00004 10.7018C7.97245 10.7018 7.94486 10.7018 7.91728 10.6886C7.88969 10.6886 7.8621 10.6755 7.83452 10.6623C7.80693 10.6492 7.79314 10.636 7.76555 10.6228C7.73797 10.6097 7.72417 10.5965 7.69659 10.5702C7.62762 10.5176 7.58624 10.4123 7.58624 10.307C7.58624 10.2018 7.62762 10.0965 7.71038 10.0307C7.8621 9.886 8.13797 9.886 8.28969 10.0307C8.37245 10.1097 8.41383 10.2018 8.41383 10.307C8.41383 10.4123 8.37245 10.5176 8.28969 10.5834C8.22073 10.6623 8.11038 10.7018 8.00004 10.7018Z" fill="#E6E6EF"/>
<path id="Shape_6" d="M5.24141 8.0702H3.8621C3.62761 8.0702 3.4483 7.89915 3.4483 7.67547C3.4483 7.45178 3.62761 7.28073 3.8621 7.28073H5.24141C5.47589 7.28073 5.6552 7.45178 5.6552 7.67547C5.6552 7.89915 5.47589 8.0702 5.24141 8.0702Z" fill="#E6E6EF"/>
<path id="Shape_7" d="M8.00001 8.0702H6.6207C6.38622 8.0702 6.20691 7.89915 6.20691 7.67547C6.20691 7.45178 6.38622 7.28073 6.6207 7.28073H8.00001C8.2345 7.28073 8.41381 7.45178 8.41381 7.67547C8.41381 7.89915 8.2345 8.0702 8.00001 8.0702Z" fill="#E6E6EF"/>
</g>
<path id="Shape_8" d="M15.5862 5.04388C15.5862 4.32019 14.9655 3.72809 14.2069 3.72809H10.4828C10.4828 3.95177 10.3035 4.12283 10.069 4.12283V4.64914C10.3035 4.64914 10.4828 4.82019 10.4828 5.04388C10.4828 5.26756 10.3035 5.43861 10.069 5.43861V5.96493C10.3035 5.96493 10.4828 6.13598 10.4828 6.35967C10.4828 6.58335 10.3035 6.7544 10.069 6.7544V7.28072C10.3035 7.28072 10.4828 7.45177 10.4828 7.67546C10.4828 7.89914 10.3035 8.07019 10.069 8.07019V8.59651C10.3035 8.59651 10.4828 8.76756 10.4828 8.99125C10.4828 9.21493 10.3035 9.38598 10.069 9.38598V9.9123C10.3035 9.9123 10.4828 10.0834 10.4828 10.307C10.4828 10.5307 10.3035 10.7018 10.069 10.7018V11.2281C10.3035 11.2281 10.4828 11.3991 10.4828 11.6228C10.4828 11.8465 10.3035 12.0176 10.069 12.0176V12.5439C10.3035 12.5439 10.4828 12.7149 10.4828 12.9386H14.2069C14.9655 12.9386 15.5862 12.3465 15.5862 11.6228V5.04388Z" fill="#79C8A6"/>
<g id="Group_2">
<path id="Shape_9" d="M14.2069 13.3333H11.4483C11.2138 13.3333 11.0345 13.1623 11.0345 12.9386C11.0345 12.7149 11.2138 12.5439 11.4483 12.5439H14.2069C14.7448 12.5439 15.1724 12.136 15.1724 11.6228V5.04387C15.1724 4.53071 14.7448 4.12282 14.2069 4.12282H11.4483C11.2138 4.12282 11.0345 3.95176 11.0345 3.72808C11.0345 3.5044 11.2138 3.33334 11.4483 3.33334H14.2069C15.2 3.33334 16 4.0965 16 5.04387V11.6228C16 12.5702 15.2 13.3333 14.2069 13.3333Z" fill="#444B54"/>
<path id="Shape_10" d="M8.68966 12.5439H1.7931C1.25517 12.5439 0.827586 12.136 0.827586 11.6228V10.6623C1.84828 10.4781 2.62069 9.62282 2.62069 8.5965C2.62069 7.57019 1.84828 6.71492 0.827586 6.53071V5.04387C0.827586 4.53071 1.25517 4.12282 1.7931 4.12282H8.68966C8.92414 4.12282 9.10345 3.95176 9.10345 3.72808C9.10345 3.5044 8.92414 3.33334 8.68966 3.33334H1.7931C0.8 3.33334 0 4.0965 0 5.04387V6.88598C0 7.10966 0.17931 7.28071 0.413793 7.28071C1.17241 7.28071 1.7931 7.87282 1.7931 8.5965C1.7931 9.32019 1.17241 9.91229 0.413793 9.91229C0.17931 9.91229 0 10.0833 0 10.307V11.6228C0 12.5702 0.8 13.3333 1.7931 13.3333H8.68966C8.92414 13.3333 9.10345 13.1623 9.10345 12.9386C9.10345 12.7149 8.92414 12.5439 8.68966 12.5439Z" fill="#444B54"/>
</g>
</g>
</g>
</svg>
