<svg width="16" height="17" viewBox="0 0 16 17" fill="none" xmlns="http://www.w3.org/2000/svg">
<path d="M11.8292 15.9328C11.6879 16.0741 11.5008 16.1524 11.3017 16.1544L5.27517 16.1956C4.86531 16.1985 4.53344 15.8666 4.53624 15.4567L4.58914 7.72288C4.59401 7.20206 4.79968 6.71119 5.17029 6.34058C5.54089 5.96997 6.03176 5.7643 6.55193 5.76009L10.1676 5.73536C11.2425 5.72866 12.1104 6.59658 12.103 7.67083L12.0502 15.4047C12.0494 15.6037 11.9712 15.7909 11.8292 15.9328Z" fill="#C2E8FF"/>
<path fill-rule="evenodd" clip-rule="evenodd" d="M4.84621 6.01646C5.28573 5.57701 5.88979 5.30371 6.55528 5.30038L10.1709 5.27552C11.5023 5.26641 12.5741 6.33821 12.565 7.6696L12.5118 15.4029C12.5095 15.7357 12.3728 16.0376 12.1534 16.2571C11.934 16.4765 11.632 16.6131 11.2992 16.6155L5.27227 16.6569C4.60676 16.6613 4.07113 16.1257 4.07557 15.4602L4.12805 7.72623C4.13261 7.06053 4.40726 6.45541 4.84621 6.01646ZM5.49462 6.66487C5.21206 6.94743 5.05474 7.32255 5.05268 7.72001L4.99951 15.4533C4.99844 15.6086 5.12453 15.7347 5.27986 15.7337L11.3048 15.6929C11.4013 15.6922 11.4669 15.6468 11.505 15.6087C11.5431 15.5706 11.5885 15.5047 11.5893 15.4084L11.6424 7.67374C11.6479 6.85434 10.9848 6.19133 10.1654 6.19669L6.54975 6.22155C6.15236 6.22492 5.77716 6.38241 5.49462 6.66487Z" fill="#454B54"/>
<path fill-rule="evenodd" clip-rule="evenodd" d="M5.01868 12.0468H11.7346V15.7298H5.01868V12.0468Z" fill="#FCFCFC"/>
<path d="M5.5361 5.71942L5.53975 5.18556C5.54431 4.51855 5.81032 3.88826 6.28936 3.40923C6.45101 3.24758 6.63339 3.10798 6.83126 2.99307L7.06321 2.85835L7.07052 1.78932C7.07293 1.43689 7.21225 1.10572 7.46261 0.855357C7.71296 0.604998 8.0448 0.465027 8.39657 0.463273C9.12296 0.458958 9.70956 1.04556 9.70525 1.77195L9.69793 2.84098L9.92806 2.97254C10.7237 3.42785 11.1966 4.24103 11.1897 5.14756L11.186 5.68143L5.5361 5.71942Z" fill="#FFC49C"/>
<path d="M7.13879 0.529697C7.46272 0.205893 7.90843 0.0034224 8.4004 5.75314e-05C9.38316 -0.00666219 10.174 0.784413 10.1675 1.76713L10.1613 2.57022C11.0551 3.08163 11.659 4.03504 11.6514 5.14454L11.6445 6.1389L5.07133 6.18379L5.07755 5.18873C5.08316 4.3677 5.42342 3.62751 5.96488 3.08605C6.15473 2.89621 6.3698 2.73045 6.60363 2.59508L6.60915 1.7913C6.61265 1.29941 6.81495 0.853539 7.13879 0.529697ZM7.7872 1.17811C7.62424 1.34107 7.53262 1.5567 7.5317 1.78578L7.52618 2.58818L7.52273 3.12196L7.05869 3.39127C6.89621 3.48635 6.74602 3.60174 6.61329 3.73447C6.22231 4.12545 6.0052 4.6402 6.00148 5.18321L6.00079 5.25433L10.7268 5.22257L10.7282 5.15075C10.7332 4.41077 10.3463 3.74744 9.69446 3.37401L9.23387 3.11091L9.23801 2.57644L9.24354 1.77404C9.24576 1.54502 9.15768 1.33056 8.99702 1.16982C8.83694 1.00974 8.62257 0.921765 8.39418 0.923301C8.16523 0.924215 7.95013 1.01531 7.7872 1.17811Z" fill="#454B54"/>
<path d="M9.53125 10.8014L12.5445 10.7814" stroke="#454B54" stroke-width="1.38"/>
<path d="M9.51477 13.1124L12.5287 13.0918" stroke="#454B54" stroke-width="1.38"/>
<path d="M6.99683 14.2834L7.04147 7.75699" stroke="white" stroke-width="1.38" stroke-linecap="round"/>
</svg>
