<svg width="16" height="16" viewBox="0 0 16 16" fill="none" xmlns="http://www.w3.org/2000/svg">
<g id="Bottle-medical">
<g id="icons8-pill-bottle">
<g id="Group">
<path id="Shape" d="M5.70975 15.4455H11.9999C13.0352 15.4455 13.8823 14.5901 13.8823 13.5287V4.65741C13.8823 4.30889 13.5999 4.02374 13.2548 4.02374H4.45484C4.10975 4.02374 3.82739 4.30889 3.82739 4.65741V13.5287C3.82739 14.5901 4.67445 15.4455 5.70975 15.4455Z" fill="white"/>
<path id="Shape_2" d="M10.1176 6.47919H13.898V12.8792H10.1176C9.42738 12.8792 8.86267 12.3089 8.86267 11.596V7.76236C8.86267 7.04948 9.42738 6.47919 10.1176 6.47919Z" fill="#F7A311"/>
<path id="Shape_3" d="M4.45484 2.47128H13.2548C13.5999 2.47128 13.8823 2.18613 13.8823 1.83761V1.18811C13.8823 0.839592 13.5999 0.554443 13.2548 0.554443H4.45484C4.10975 0.554443 3.82739 0.839592 3.82739 1.18811V1.83761C3.82739 2.18613 4.10975 2.47128 4.45484 2.47128Z" fill="#F7A311"/>
<path id="Shape_4" d="M13.2552 0.0791931C13.8668 0.0794133 14.3529 0.586719 14.3529 1.18857V1.83798C14.3527 2.45549 13.8667 2.94617 13.2552 2.94638H4.45447C3.84301 2.94617 3.35701 2.43967 3.35681 1.83798V1.18857C3.35681 0.570879 3.85856 0.0794034 4.45447 0.0791931H13.2552ZM4.45447 1.02939C4.36056 1.0296 4.29822 1.10947 4.29822 1.18857V1.83798C4.29842 1.93267 4.37627 1.99598 4.45447 1.99619H13.2552C13.349 1.99596 13.4113 1.91695 13.4115 1.83798V1.18857C13.4115 1.09368 13.3335 1.0296 13.2552 1.02939H4.45447Z" fill="#454B54"/>
</g>
<path id="Shape_5" d="M3.82703 1.06137C4.09369 1.06137 4.29773 1.26765 4.29773 1.53696C4.29756 1.8061 4.09358 2.01157 3.82703 2.01157H3.16882C2.76098 2.01157 2.41589 2.34459 2.41589 2.77231C2.41591 2.9782 2.4945 3.16784 2.63562 3.31039C2.7768 3.45297 2.9649 3.53305 3.16882 3.53305H13.2548C13.5527 3.53305 13.835 3.65929 14.0389 3.86508C14.2428 4.07095 14.3533 4.34039 14.3534 4.65707V13.5291C14.3532 14.8438 13.3017 15.9207 11.9999 15.9207H5.70984C4.40803 15.9207 3.35754 14.8438 3.3573 13.5291V4.65707C3.3573 4.60959 3.35728 4.54628 3.37292 4.49887H3.18445C2.72955 4.49887 2.30585 4.32471 1.97644 3.99203C1.64705 3.65938 1.4745 3.23169 1.47449 2.77231C1.47449 1.83765 2.22765 1.06137 3.16882 1.06137H3.82703ZM4.45496 4.49887C4.4079 4.49887 4.36029 4.53088 4.3446 4.54672C4.32884 4.56265 4.29784 4.59438 4.29773 4.65707V13.5291C4.29797 14.321 4.92567 14.9706 5.70984 14.9706H11.9999C12.784 14.9706 13.4118 14.321 13.412 13.5291V4.65707C13.4118 4.57798 13.3487 4.49887 13.2548 4.49887H4.45496Z" fill="#454B54"/>
</g>
</g>
</svg>
