<svg width="16" height="16" viewBox="0 0 16 16" fill="none" xmlns="http://www.w3.org/2000/svg">
<path fill-rule="evenodd" clip-rule="evenodd" d="M7.35726 2.6745C7.35726 1.98823 6.81025 1.43921 6.12649 1.43921C5.44273 1.43921 4.89572 1.98823 4.89572 2.6745C4.66324 2.49607 4.38974 2.39999 4.07521 2.39999C3.32307 2.39999 2.70769 3.01764 2.70769 3.77254C2.70769 3.92352 2.73504 4.06078 2.77606 4.18431C2.74871 4.18431 2.73504 4.18431 2.70769 4.18431C1.8735 4.18431 1.20341 4.85686 1.20341 5.69411C1.20341 6.02352 1.29914 6.31176 1.47692 6.55882C0.902559 6.92941 0.519653 7.56078 0.519653 8.30195C0.519653 9.02941 0.902559 9.6745 1.46324 10.0314C1.29914 10.3333 1.20341 10.6765 1.20341 11.0471C1.20341 12.1863 2.11965 13.1059 3.2547 13.1059C3.29572 13.1059 3.33675 13.1059 3.37777 13.1059C3.65128 13.902 4.41709 14.4784 5.30598 14.4784C6.44102 14.4784 7.35726 13.5588 7.35726 12.4196V2.6745Z" fill="white"/>
<path fill-rule="evenodd" clip-rule="evenodd" d="M8.72473 2.6745C8.72473 1.98823 9.27174 1.43921 9.9555 1.43921C10.6393 1.43921 11.1863 1.98823 11.1863 2.6745C11.4187 2.49607 11.6923 2.39999 12.0068 2.39999C12.7589 2.39999 13.3743 3.01764 13.3743 3.77254C13.3743 3.92352 13.347 4.06078 13.3059 4.18431C13.3333 4.18431 13.347 4.18431 13.3743 4.18431C14.2085 4.18431 14.8786 4.85686 14.8786 5.69411C14.8786 6.02352 14.7829 6.31176 14.6051 6.55882C15.1794 6.92941 15.5623 7.56078 15.5623 8.30195C15.5623 9.02941 15.1794 9.6745 14.6187 10.0314C14.7829 10.3333 14.8786 10.6765 14.8786 11.0471C14.8786 12.1863 13.9623 13.1059 12.8273 13.1059C12.7863 13.1059 12.7452 13.1059 12.7042 13.1059C12.4307 13.902 11.6649 14.4784 10.776 14.4784C9.64097 14.4784 8.72473 13.5588 8.72473 12.4196V2.6745Z" fill="#E8EDF3"/>
<path fill-rule="evenodd" clip-rule="evenodd" d="M2.57091 10.7725C1.21707 10.7725 0.109375 9.66078 0.109375 8.30196C0.109375 8.06862 0.287153 7.89019 0.519631 7.89019C0.75211 7.89019 0.929888 8.06862 0.929888 8.30196C0.929888 9.20784 1.66835 9.94902 2.57091 9.94902C3.47348 9.94902 4.21194 9.20784 4.21194 8.30196V7.61568C4.21194 7.38235 4.38972 7.20392 4.6222 7.20392C4.85467 7.20392 5.03245 7.38235 5.03245 7.61568V8.30196C5.03245 9.67451 3.92476 10.7725 2.57091 10.7725Z" fill="#454B54"/>
<path fill-rule="evenodd" clip-rule="evenodd" d="M4.0752 5.55686C3.09059 5.55686 2.29742 4.76078 2.29742 3.77254C2.29742 3.53921 2.4752 3.36078 2.70768 3.36078C2.94016 3.36078 3.11794 3.53921 3.11794 3.77254C3.11794 4.30784 3.54187 4.73333 4.0752 4.73333C4.30768 4.73333 4.48546 4.91176 4.48546 5.14509C4.48546 5.37843 4.30768 5.55686 4.0752 5.55686Z" fill="#454B54"/>
<path fill-rule="evenodd" clip-rule="evenodd" d="M13.2923 10.7726C11.9384 10.7726 10.8307 9.66079 10.8307 8.30196C10.8307 8.06863 11.0085 7.8902 11.241 7.8902C11.4735 7.8902 11.6513 8.06863 11.6513 8.30196C11.6513 9.20784 12.3897 9.94902 13.2923 9.94902C13.5248 9.94902 13.7025 10.1275 13.7025 10.3608C13.7025 10.5941 13.5248 10.7726 13.2923 10.7726Z" fill="#454B54"/>
<path fill-rule="evenodd" clip-rule="evenodd" d="M10.694 4.18431C10.4615 4.18431 10.2838 4.00588 10.2838 3.77255C10.2838 2.78431 11.0769 1.98824 12.0615 1.98824C12.294 1.98824 12.4718 2.16667 12.4718 2.4C12.4718 2.63333 12.294 2.81176 12.0615 2.81176C11.5282 2.81176 11.1043 3.23726 11.1043 3.77255C11.1043 4.00588 10.9265 4.18431 10.694 4.18431Z" fill="#454B54"/>
<path fill-rule="evenodd" clip-rule="evenodd" d="M8.31451 12.4196C8.31451 13.7784 9.42221 14.8902 10.7761 14.8902C11.7196 14.8902 12.5675 14.3549 12.9778 13.5176C14.2632 13.4353 15.2889 12.351 15.2889 11.0471C15.2889 10.7451 15.2342 10.4431 15.1248 10.1686C15.6581 9.70196 15.9726 9.02941 15.9726 8.30196C15.9726 7.58823 15.6718 6.91569 15.1384 6.44902C15.2342 6.21569 15.2889 5.9549 15.2889 5.69412C15.2889 4.77451 14.6461 4.00588 13.7846 3.81372V3.77255C13.7846 2.78431 12.9914 1.98823 12.0068 1.98823C11.829 1.98823 11.6513 2.01569 11.4872 2.07059C11.241 1.45294 10.653 1.02745 9.95554 1.02745C9.05298 1.02745 8.31451 1.76863 8.31451 2.67451V12.4196Z" fill="#454B54"/>
<path fill-rule="evenodd" clip-rule="evenodd" d="M5.30597 14.8902C4.36238 14.8902 3.51452 14.3412 3.10426 13.5176C1.81879 13.4353 0.793152 12.3647 0.793152 11.0471C0.793152 10.8137 0.97093 10.6353 1.20341 10.6353C1.43589 10.6353 1.61366 10.8137 1.61366 11.0471C1.61366 11.9529 2.35213 12.6941 3.25469 12.6941C3.26837 12.6941 3.29572 12.6941 3.30939 12.6941H3.35042C3.54187 12.6804 3.70597 12.7902 3.76067 12.9686C3.99315 13.6275 4.60854 14.0667 5.30597 14.0667C6.20854 14.0667 6.947 13.3255 6.947 12.4196V2.67451C6.947 2.22157 6.57777 1.85098 6.12649 1.85098C5.6752 1.85098 5.30597 2.22157 5.30597 2.67451V12.4196C5.30597 13.7922 6.65982 14.8902 5.30597 14.8902Z" fill="#454B54"/>
<path fill-rule="evenodd" clip-rule="evenodd" d="M1.46322 10.4569C1.38117 10.4569 1.31279 10.4294 1.24442 10.3882C0.533307 9.93529 0.109375 9.15294 0.109375 8.30196C0.109375 7.58823 0.41023 6.91568 0.943563 6.44902C0.847837 6.21568 0.793136 5.9549 0.793136 5.69411C0.793136 5.46078 0.970914 5.28235 1.20339 5.28235C1.43587 5.28235 1.61365 5.46078 1.61365 5.69411C1.61365 5.91372 1.68202 6.13333 1.81878 6.32549C1.88715 6.42156 1.9145 6.53137 1.88715 6.64117C1.8598 6.75098 1.8051 6.84705 1.70938 6.90196C1.23074 7.20392 0.943563 7.72549 0.943563 8.28823C0.943563 8.85098 1.23074 9.37254 1.70938 9.67451C1.90083 9.79804 1.95553 10.0451 1.83245 10.2373C1.73673 10.3882 1.59997 10.4569 1.46322 10.4569Z" fill="#454B54"/>
<path fill-rule="evenodd" clip-rule="evenodd" d="M14.6051 6.98431H13.9214C13.6889 6.98431 13.5111 6.80588 13.5111 6.57255C13.5111 6.33921 13.6889 6.16078 13.9214 6.16078H14.6051C14.8376 6.16078 15.0154 6.33921 15.0154 6.57255C15.0154 6.80588 14.8239 6.98431 14.6051 6.98431Z" fill="#454B54"/>
<path fill-rule="evenodd" clip-rule="evenodd" d="M2.16067 6.98431H1.47691C1.24443 6.98431 1.06665 6.80588 1.06665 6.57255C1.06665 6.33921 1.24443 6.16078 1.47691 6.16078H2.16067C2.39315 6.16078 2.57092 6.33921 2.57092 6.57255C2.57092 6.80588 2.39315 6.98431 2.16067 6.98431Z" fill="#454B54"/>
</svg>
