<svg width="16" height="16" viewBox="0 0 16 16" fill="none" xmlns="http://www.w3.org/2000/svg">
<path d="M13.1959 0.82605H3.26902C2.48905 0.82605 1.85089 1.46421 1.85089 2.24418V12.8801H14.614V2.24418C14.614 1.46421 13.9759 0.82605 13.1959 0.82605Z" fill="white"/>
<path d="M13.1959 0.82605H9.65055V2.10236L8.23242 2.5278V8.90936H14.614V2.24418C14.614 1.46421 13.9758 0.82605 13.1959 0.82605Z" fill="#FCCA3D"/>
<path d="M3.26898 3.37868V6.64037C3.26898 6.88145 3.45334 7.06581 3.69442 7.06581H12.7704C13.0115 7.06581 13.1959 6.88145 13.1959 6.64037V3.37868C13.1959 3.1376 13.0115 2.95325 12.7704 2.95325H3.69442C3.45334 2.95325 3.26898 3.1376 3.26898 3.37868Z" fill="white"/>
<path d="M8.23242 8.34211H13.1959V3.80411H8.65786C8.41678 3.80411 8.23242 3.98846 8.23242 4.22955V8.34211Z" fill="#E9EEF4"/>
<path d="M13.1959 7.49124H3.26902C2.48905 7.49124 1.85089 8.1294 1.85089 8.90937V12.8801H14.614V8.90937C14.614 8.1294 13.9759 7.49124 13.1959 7.49124Z" fill="#FFF0B3"/>
<path d="M8.23242 7.49124H14.614V12.8801H8.23242V7.49124Z" fill="#FCCA3D"/>
<path d="M12.345 12.8801H4.11987L4.65876 9.13626C4.75803 8.44138 5.35364 7.91667 6.0627 7.91667H10.4163C11.1254 7.91667 11.721 8.44138 11.8203 9.13626L12.345 12.8801Z" fill="white"/>
<path d="M11.8061 9.13626C11.7636 8.8101 11.6076 8.52647 11.3807 8.31375L7.23977 8.34211C6.99869 8.34211 6.81433 8.52647 6.81433 8.76755C6.81433 9.00863 6.99869 9.19299 7.23977 9.19299H9.22514C9.46623 9.19299 9.65058 9.37735 9.65058 9.61843C9.65058 9.85951 9.46623 10.0439 9.22514 10.0439H7.23977C6.99869 10.0439 6.81433 10.2282 6.81433 10.4693C6.81433 10.7104 6.99869 10.8947 7.23977 10.8947H9.22514C9.46623 10.8947 9.65058 11.0791 9.65058 11.3202C9.65058 11.5613 9.46623 11.7456 9.22514 11.7456H7.16886C6.97032 11.7456 6.81433 11.9016 6.81433 12.1001C6.81433 12.2987 6.97032 12.4547 7.16886 12.4547H9.22514C9.46623 12.4547 9.65058 12.639 9.65058 12.8801H12.345L11.8061 9.13626ZM13.1959 0.82605H9.65058V1.67693C9.65058 1.91801 9.46623 2.10236 9.22514 2.10236H7.23977C6.99869 2.10236 6.81433 2.28672 6.81433 2.5278C6.81433 2.76888 6.99869 2.95324 7.23977 2.95324H8.23246H14.614V2.24418C14.614 1.46421 13.9759 0.82605 13.1959 0.82605Z" fill="#FCCA3D"/>
<path d="M14.614 2.81143C14.3729 2.81143 14.1886 2.62708 14.1886 2.386C14.1886 1.91801 13.8624 1.52094 13.4086 1.42167C10.0193 0.670064 6.4456 0.670064 3.05628 1.42167C2.60248 1.52094 2.27631 1.91801 2.27631 2.386C2.27631 2.62708 2.09196 2.81143 1.85088 2.81143C1.60979 2.81143 1.42544 2.62708 1.42544 2.386C1.42544 1.52094 2.02105 0.769333 2.87193 0.584977C6.3747 -0.194992 10.0902 -0.194992 13.593 0.584977C14.4438 0.769333 15.0394 1.52094 15.0394 2.386C15.0394 2.62708 14.8551 2.81143 14.614 2.81143ZM14.614 6.78219C14.3729 6.78219 14.1886 6.59783 14.1886 6.35675V4.08775C14.1886 3.84667 14.3729 3.66231 14.614 3.66231C14.8551 3.66231 15.0394 3.84667 15.0394 4.08775V6.35675C15.0394 6.59783 14.8551 6.78219 14.614 6.78219ZM1.85088 6.78219C1.60979 6.78219 1.42544 6.59783 1.42544 6.35675V4.08775C1.42544 3.84667 1.60979 3.66231 1.85088 3.66231C2.09196 3.66231 2.27631 3.84667 2.27631 4.08775V6.35675C2.27631 6.59783 2.09196 6.78219 1.85088 6.78219ZM15.0394 12.4547V8.90937C15.0394 7.88832 14.2169 7.06581 13.1959 7.06581H3.269C2.24795 7.06581 1.42544 7.88832 1.42544 8.90937V11.462C1.42544 11.7031 1.60979 11.8874 1.85088 11.8874C2.09196 11.8874 2.27631 11.7031 2.27631 11.462V8.90937C2.27631 8.3563 2.71593 7.91669 3.269 7.91669H4.88566C4.54531 8.20031 4.30423 8.61157 4.23333 9.07955L3.75116 12.4547H1.42544C1.18436 12.4547 1 12.639 1 12.8801V13.731C1 13.9721 1.18436 14.1564 1.42544 14.1564H2.27631V15.5746C2.27631 15.8156 2.46067 16 2.70175 16H3.97806C4.21914 16 4.4035 15.8156 4.4035 15.5746V14.1564H12.0614V15.5746C12.0614 15.8156 12.2457 16 12.4868 16H13.7631C14.0042 16 14.1886 15.8156 14.1886 15.5746V14.1564H15.0394C15.2805 14.1564 15.4649 13.9721 15.4649 13.731V12.8801C15.4649 12.639 15.2805 12.4547 15.0394 12.4547ZM13.1959 7.91669C13.7489 7.91669 14.1886 8.3563 14.1886 8.90937V12.4547H12.7137L12.2316 9.07955C12.1606 8.61157 11.9196 8.20031 11.5792 7.91669H13.1959ZM5.07002 9.193C5.14093 8.71084 5.56636 8.34212 6.04853 8.34212H10.4022C10.8985 8.34212 11.3098 8.71084 11.3807 9.193L11.8487 12.4547H4.61622L5.07002 9.193Z" fill="#444B54"/>
<path d="M13.3377 9.61843C13.1873 9.61843 13.043 9.67819 12.9366 9.78457C12.8302 9.89095 12.7704 10.0352 12.7704 10.1857C12.7704 10.3361 12.8302 10.4804 12.9366 10.5868C13.043 10.6932 13.1873 10.7529 13.3377 10.7529C13.4881 10.7529 13.6324 10.6932 13.7388 10.5868C13.8452 10.4804 13.9049 10.3361 13.9049 10.1857C13.9049 10.0352 13.8452 9.89095 13.7388 9.78457C13.6324 9.67819 13.4881 9.61843 13.3377 9.61843ZM13.3377 1.67693C13.2249 1.67693 13.1167 1.72175 13.0369 1.80153C12.9571 1.88132 12.9123 1.98953 12.9123 2.10236C12.9123 2.2152 12.9571 2.32341 13.0369 2.40319C13.1167 2.48298 13.2249 2.5278 13.3377 2.5278C13.4505 2.5278 13.5587 2.48298 13.6385 2.40319C13.7183 2.32341 13.7631 2.2152 13.7631 2.10236C13.7631 1.98953 13.7183 1.88132 13.6385 1.80153C13.5587 1.72175 13.4505 1.67693 13.3377 1.67693Z" fill="white"/>
<path d="M3.12716 1.67693C3.01433 1.67693 2.90611 1.72175 2.82633 1.80153C2.74654 1.88132 2.70172 1.98953 2.70172 2.10236C2.70172 2.2152 2.74654 2.32341 2.82633 2.40319C2.90611 2.48298 3.01433 2.5278 3.12716 2.5278C3.23999 2.5278 3.3482 2.48298 3.42799 2.40319C3.50777 2.32341 3.5526 2.2152 3.5526 2.10236C3.5526 1.98953 3.50777 1.88132 3.42799 1.80153C3.3482 1.72175 3.23999 1.67693 3.12716 1.67693Z" fill="#FCCA3D"/>
<path d="M3.12719 9.61842C2.97674 9.61842 2.83246 9.67819 2.72608 9.78457C2.6197 9.89095 2.55994 10.0352 2.55994 10.1857C2.55994 10.3361 2.6197 10.4804 2.72608 10.5868C2.83246 10.6932 2.97674 10.7529 3.12719 10.7529C3.27763 10.7529 3.42191 10.6932 3.52829 10.5868C3.63467 10.4804 3.69444 10.3361 3.69444 10.1857C3.69444 10.0352 3.63467 9.89095 3.52829 9.78457C3.42191 9.67819 3.27763 9.61842 3.12719 9.61842Z" fill="white"/>
</svg>
