<svg width="64" height="64" viewBox="0 0 64 64" fill="none" xmlns="http://www.w3.org/2000/svg">
<g id="Cake">
<g id="icons8-birthday">
<g id="Group">
<path id="Path" fill-rule="evenodd" clip-rule="evenodd" d="M31.945 49.3242V37.1311V25.4345H2.09668V46.5655C2.09668 48.1104 3.31047 49.3242 4.8553 49.3242H31.945Z" fill="#FF697D"/>
<path id="Path_2" fill-rule="evenodd" clip-rule="evenodd" d="M31.4484 41.7104H2.09668V46.5656C2.09668 48.1104 3.31047 49.3242 4.8553 49.3242H31.4484V41.7104Z" fill="#C95065"/>
<path id="Path_3" fill-rule="evenodd" clip-rule="evenodd" d="M31.9449 37.3518C30.9518 37.3518 30.0139 37.3518 29.0208 37.2966C27.3656 37.2414 25.9312 38.5655 25.9312 40.2759L25.9312 58.4276C25.9312 59.9173 27.0898 61.1311 28.5243 61.1862C29.6277 61.2414 30.7863 61.2414 31.9449 61.2414C48.4415 61.2414 61.7932 55.8897 61.7932 49.3242V25.4345C61.7932 32 48.4415 37.3518 31.9449 37.3518Z" fill="#96666C"/>
<g id="Group_2">
<path id="Path_4" fill-rule="evenodd" clip-rule="evenodd" d="M31.945 13.4621C15.4484 13.4621 2.09668 18.8138 2.09668 25.3793H31.945L28.0829 32.9931C27.0898 34.9793 28.4691 37.2966 30.7312 37.3518C31.1174 37.3518 31.5587 37.3518 32.0001 37.3518C32.3863 37.3518 32.8277 37.3518 33.2139 37.3518C34.8691 37.3518 36.1932 38.6759 36.1932 40.3311V50.869C36.1932 52.5242 37.5174 53.7931 39.1174 53.8483C40.7174 53.8483 42.0415 52.5242 42.0415 50.9242V39.1724C42.0415 37.738 43.0898 36.5242 44.4691 36.2483H44.5794C46.4001 35.9173 48.1105 37.2966 48.1105 39.1724V44.9104C48.1105 46.5655 49.4346 47.8345 51.0346 47.8897C52.6346 47.8897 53.9587 46.5655 53.9587 44.9655L54.0139 35.3655C54.0139 34.2621 54.6208 33.269 55.6139 32.7724C58.5932 31.2276 60.6346 29.4069 61.4622 27.4207C61.7381 26.7586 61.8484 26.0966 61.8484 25.4897C61.7932 18.8138 48.4415 13.4621 31.945 13.4621Z" fill="white"/>
<path id="Path_5" fill-rule="evenodd" clip-rule="evenodd" d="M50.9795 49.5449C49.7657 49.5449 48.607 49.0483 47.7243 48.1656C46.8415 47.2828 46.4001 46.1242 46.4001 44.9104C46.4001 43.9725 47.1174 43.2552 48.0553 43.2552C48.9932 43.2552 49.7105 44.0276 49.7105 44.9104C49.7105 45.2414 49.8208 45.5725 50.0967 45.8483C50.3726 46.1242 50.6484 46.2345 51.0346 46.2345C51.7519 46.2345 52.3036 45.6828 52.3036 44.9656L52.3588 35.3656C52.3588 33.6552 53.2967 32.0552 54.8415 31.2828C55.3381 31.0621 55.7795 30.7863 56.1657 30.5104C56.9381 30.0138 57.9864 30.2897 58.4277 31.0621C58.9243 31.8345 58.6484 32.8828 57.876 33.3242C57.3795 33.6 56.8829 33.9311 56.3312 34.2069C55.945 34.4276 55.6691 34.869 55.6691 35.3656L55.6139 44.9656C55.5588 47.4483 53.5174 49.5449 50.9795 49.5449Z" fill="#3F4A54"/>
<path id="Path_6" fill-rule="evenodd" clip-rule="evenodd" d="M39.0622 55.4483C37.8484 55.4483 36.6898 54.9518 35.807 54.069C34.9243 53.1862 34.4829 52.0276 34.4829 50.8138V46.2345C34.4829 45.2966 35.2553 44.5793 36.1381 44.5793C37.076 44.5793 37.7933 45.3518 37.7933 46.2345V50.8138C37.7933 51.1449 37.9036 51.4759 38.1795 51.7518C38.4002 51.9725 38.7312 52.138 39.1174 52.138C39.8346 52.138 40.3864 51.5862 40.3864 50.869V39.1725C40.3864 36.9656 41.9864 35.0345 44.1933 34.6483H44.2484C45.6277 34.3725 47.007 34.7587 48.0553 35.6414C49.1036 36.5242 49.7105 37.8483 49.7105 39.2276C49.7105 40.1104 48.9381 40.8828 48.0553 40.8828C47.1174 40.8828 46.4002 40.1104 46.4002 39.2276C46.4002 38.6759 46.1243 38.3449 45.9036 38.2345C45.7381 38.069 45.3519 37.8483 44.8002 37.9587H44.745C44.1381 38.069 43.6415 38.6207 43.6415 39.2828L43.5864 50.9793C43.6415 53.4069 41.6002 55.4483 39.0622 55.4483Z" fill="#3F4A54"/>
<path id="Path_7" fill-rule="evenodd" clip-rule="evenodd" d="M36.1381 41.9311C35.2002 41.9311 34.4829 41.1587 34.4829 40.2759C34.4829 39.9449 34.3726 39.6138 34.0967 39.338C33.876 39.1173 33.545 38.9518 33.2139 38.9518C32.3312 38.9518 31.5036 38.9518 30.6208 38.9518C29.0208 38.8966 27.5864 38.069 26.7588 36.6897C25.9312 35.3104 25.876 33.6552 26.5933 32.2207L30.5105 24.5518C30.9519 23.7242 31.945 23.3931 32.7174 23.8345C33.545 24.2759 33.876 25.269 33.4346 26.0414L29.5174 33.7104C29.2415 34.2621 29.4622 34.7587 29.5726 34.9242C29.6829 35.0897 30.0139 35.5311 30.676 35.5311C31.5036 35.5311 32.3312 35.5311 33.1588 35.5311C34.3726 35.5311 35.5864 35.9724 36.4139 36.8552C37.2967 37.738 37.7933 38.8966 37.7933 40.1655C37.7933 41.2138 37.0208 41.9311 36.1381 41.9311Z" fill="#3F4A54"/>
</g>
<path id="Path_8" fill-rule="evenodd" clip-rule="evenodd" d="M31.9448 62.8966C30.8414 62.8966 29.7931 62.8966 28.6897 62.8414C26.2069 62.7311 24.2759 60.6897 24.2759 58.2069L24.3311 43.0897C24.3311 42.1518 25.0483 41.4345 25.9862 41.4345C26.9242 41.4345 27.6414 42.2069 27.6414 43.0897L27.5862 58.2069C27.5862 58.9242 28.1379 59.5311 28.8552 59.5311C29.9035 59.5862 30.9517 59.5862 31.9448 59.5862C48.5517 59.5862 60.1379 54.1793 60.1379 49.3242C60.1379 48.3862 60.8552 47.669 61.7931 47.669C62.7311 47.669 63.4483 48.3862 63.4483 49.3242C63.4483 57.0483 49.8759 62.8966 31.9448 62.8966Z" fill="#3F4A54"/>
<path id="Path_9" fill-rule="evenodd" clip-rule="evenodd" d="M25.9311 50.9794H5.07589C2.53796 50.9794 0.441406 48.8828 0.441406 46.3449V31.3931C0.441406 30.4552 1.15865 29.738 2.09658 29.738C3.03451 29.738 3.75175 30.4552 3.75175 31.3931V46.3449C3.75175 47.0621 4.35865 47.669 5.07589 47.669H25.9311C26.869 47.669 27.5862 48.3863 27.5862 49.3242C27.5862 50.2621 26.869 50.9794 25.9311 50.9794Z" fill="#3F4A54"/>
</g>
<path id="Path_10" fill-rule="evenodd" clip-rule="evenodd" d="M61.7931 38.1242C60.8552 38.1242 60.1379 37.4069 60.1379 36.469V25.4345C60.1379 24.4966 60.8552 23.7794 61.7931 23.7794C62.731 23.7794 63.4483 24.4966 63.4483 25.4345V36.469C63.4483 37.3518 62.731 38.1242 61.7931 38.1242Z" fill="#3F4A54"/>
<path id="Path_11" fill-rule="evenodd" clip-rule="evenodd" d="M61.7931 44.7448C61.3517 44.7448 60.9104 44.5793 60.6345 44.2483C60.3035 43.9173 60.1379 43.531 60.1379 43.0897C60.1379 42.9793 60.1379 42.869 60.1931 42.7586C60.1931 42.6483 60.2483 42.5379 60.3035 42.4276C60.3586 42.3173 60.4138 42.2069 60.469 42.1517C60.5241 42.0414 60.5793 41.9862 60.6897 41.8759C60.7448 41.8207 60.8552 41.7104 60.9104 41.6552C61.0207 41.6 61.0759 41.5448 61.1862 41.4897C61.2966 41.4345 61.4069 41.4345 61.5172 41.3793C62.069 41.269 62.6207 41.4345 63.0069 41.8207C63.3379 42.1517 63.5035 42.5379 63.5035 42.9793C63.5035 43.4207 63.3379 43.8621 63.0069 44.1379C62.6759 44.5793 62.2345 44.7448 61.7931 44.7448Z" fill="#3F4A54"/>
<path id="Path_12" fill-rule="evenodd" clip-rule="evenodd" d="M31.9449 27.0897H2.86904C1.93111 27.0897 1.21387 26.3725 1.21387 25.4345C1.21387 24.4966 1.93111 23.7794 2.86904 23.7794H31.8897C32.8277 23.7794 33.5449 24.4966 33.5449 25.4345C33.5449 26.3725 32.8828 27.0897 31.9449 27.0897Z" fill="#3F4A54"/>
<path id="Path_13" fill-rule="evenodd" clip-rule="evenodd" d="M2.86907 27.0897C1.93114 27.0897 1.10356 26.6483 0.551832 25.8759C0.000107884 25.1587 -0.110237 24.1656 0.165625 23.338C1.60011 19.0345 7.6139 15.4483 16.6622 13.4069C17.5449 13.1862 18.4277 13.7931 18.6484 14.6759C18.8691 15.5587 18.2622 16.4414 17.3794 16.6621C10.1518 18.2621 4.96563 21.0207 3.53114 23.8897C4.13804 24.1656 4.52425 24.7173 4.52425 25.4345C4.52425 26.3173 3.807 27.0897 2.86907 27.0897Z" fill="#3F4A54"/>
<path id="Path_14" fill-rule="evenodd" clip-rule="evenodd" d="M61.7932 27.0897C60.8553 27.0897 60.138 26.3724 60.138 25.4345C60.138 23.669 58.6484 22.1793 57.4346 21.2414C56.7173 20.6897 56.5518 19.6414 57.1036 18.9242C57.6553 18.2069 58.7036 18.0414 59.4208 18.5931C62.7311 21.131 63.4484 23.7242 63.4484 25.4345C63.4484 26.3173 62.7311 27.0897 61.7932 27.0897Z" fill="#3F4A54"/>
<path id="Path_15" fill-rule="evenodd" clip-rule="evenodd" d="M38.069 24.331C37.1311 24.331 36.4138 23.6138 36.4138 22.6759V11.6414C36.4138 10.7034 37.1311 9.98621 38.069 9.98621C39.0069 9.98621 39.7242 10.7034 39.7242 11.6414V22.6759C39.7242 23.5586 39.0069 24.331 38.069 24.331Z" fill="#3F4A54"/>
<path id="Path_16" fill-rule="evenodd" clip-rule="evenodd" d="M38.069 7.77933C37.6276 7.77933 37.1862 7.61381 36.9104 7.28278C36.6345 6.95174 36.4138 6.56554 36.4138 6.12416C36.4138 5.68278 36.5793 5.2414 36.9104 4.96554C36.9655 4.91036 37.0759 4.80002 37.1311 4.74485C37.2414 4.68967 37.2966 4.6345 37.4069 4.57933C37.5173 4.52416 37.6276 4.52416 37.738 4.46898C38.2897 4.35864 38.8414 4.52416 39.2276 4.91036C39.5586 5.2414 39.7242 5.6276 39.7242 6.06898C39.7242 6.17933 39.7242 6.28967 39.669 6.40002C39.669 6.51036 39.6138 6.62071 39.5586 6.73105C39.5035 6.8414 39.4483 6.95174 39.3931 7.00691C39.338 7.11726 39.2828 7.17243 39.1724 7.28278C39.1173 7.33795 39.0069 7.44829 38.9517 7.50347C38.8414 7.55864 38.7862 7.61381 38.6759 7.66898C38.6207 7.66898 38.5104 7.72416 38.4 7.72416C38.2897 7.72416 38.1793 7.77933 38.069 7.77933Z" fill="#3F4A54"/>
<path id="Path_17" fill-rule="evenodd" clip-rule="evenodd" d="M50.7587 20.469C49.8208 20.469 49.1035 19.7517 49.1035 18.8138V7.77932C49.1035 6.84139 49.8208 6.12415 50.7587 6.12415C51.6966 6.12415 52.4139 6.84139 52.4139 7.77932V18.8138C52.4139 19.6966 51.6966 20.469 50.7587 20.469Z" fill="#3F4A54"/>
<path id="Path_18" fill-rule="evenodd" clip-rule="evenodd" d="M50.7587 3.91726C50.3173 3.91726 49.8759 3.75175 49.6001 3.42071C49.5449 3.36554 49.4345 3.2552 49.3794 3.14485C49.3242 3.03451 49.269 2.97933 49.2139 2.86899C49.1587 2.75864 49.1587 2.6483 49.1035 2.53795C49.1035 2.42761 49.0483 2.31726 49.0483 2.20692C49.0483 2.09657 49.0483 1.98623 49.1035 1.87589C49.1035 1.76554 49.1587 1.6552 49.2139 1.54485C49.269 1.43451 49.3242 1.32416 49.3794 1.26899C49.4345 1.15864 49.4897 1.10347 49.6001 0.993126C49.9863 0.60692 50.538 0.441402 51.0897 0.551747C51.2001 0.551747 51.3104 0.60692 51.4208 0.662092C51.5311 0.717264 51.6414 0.772437 51.6966 0.827609C51.807 0.882782 51.8621 0.937954 51.9173 1.0483C51.9725 1.10347 52.0828 1.21382 52.138 1.32416C52.1932 1.43451 52.2483 1.48968 52.3035 1.60002C52.3587 1.71037 52.3587 1.82071 52.4139 1.93106C52.4139 2.0414 52.469 2.15175 52.469 2.26209C52.469 2.37244 52.469 2.48278 52.4139 2.59313C52.4139 2.70347 52.3587 2.81382 52.3035 2.92416C52.2483 3.03451 52.1932 3.14485 52.138 3.20002C52.0828 3.31037 52.0277 3.36554 51.9173 3.47588C51.6414 3.75175 51.2001 3.91726 50.7587 3.91726Z" fill="#3F4A54"/>
<path id="Path_19" fill-rule="evenodd" clip-rule="evenodd" d="M24.276 20.469C23.3381 20.469 22.6208 19.7517 22.6208 18.8138V7.77932C22.6208 6.84139 23.3381 6.12415 24.276 6.12415C25.214 6.12415 25.9312 6.84139 25.9312 7.77932V18.8138C25.9312 19.6966 25.214 20.469 24.276 20.469Z" fill="#3F4A54"/>
<path id="Path_20" fill-rule="evenodd" clip-rule="evenodd" d="M24.276 3.91727C23.8346 3.91727 23.3933 3.75176 23.1174 3.42072C23.0622 3.36555 22.9519 3.25521 22.8967 3.14486C22.8415 3.03452 22.7864 2.97934 22.7312 2.869C22.676 2.75865 22.676 2.64831 22.6208 2.53796C22.6208 2.42762 22.5657 2.31727 22.5657 2.20693C22.5657 2.09658 22.5657 1.98624 22.6208 1.87589C22.6208 1.76555 22.676 1.65521 22.7312 1.54486C22.7864 1.43452 22.8415 1.32417 22.8967 1.269C22.9519 1.15865 23.0071 1.10348 23.1174 0.993136C23.7243 0.38624 24.8277 0.38624 25.4346 0.993136C25.7657 1.32417 25.9312 1.71038 25.9312 2.15176C25.9312 2.59314 25.7657 3.03452 25.4346 3.31038C25.1588 3.75176 24.7174 3.91727 24.276 3.91727Z" fill="#3F4A54"/>
</g>
</g>
</svg>
