<svg width="16" height="16" viewBox="0 0 16 16" fill="none" xmlns="http://www.w3.org/2000/svg">
<path fill-rule="evenodd" clip-rule="evenodd" d="M13.92 15.5213H2.07998C1.19998 15.5213 0.47998 14.7521 0.47998 13.8119V2.1881C0.47998 1.24794 1.19998 0.478722 2.07998 0.478722H13.92C14.8 0.478722 15.52 1.24794 15.52 2.1881V13.8119C15.52 14.7521 14.8 15.5213 13.92 15.5213Z" fill="white"/>
<path fill-rule="evenodd" clip-rule="evenodd" d="M15.52 5.46808H0.48C0.208 5.46808 0 5.26064 0 4.98936C0 4.71808 0.208 4.51064 0.48 4.51064H15.52C15.792 4.51064 16 4.71808 16 4.98936C16 5.26064 15.792 5.46808 15.52 5.46808Z" fill="#616161"/>
<path fill-rule="evenodd" clip-rule="evenodd" d="M3.68001 3.71277C3.55201 3.71277 3.42401 3.66489 3.34401 3.56915C3.24801 3.48936 3.20001 3.3617 3.20001 3.23404C3.20001 3.10638 3.24801 2.97872 3.34401 2.89894C3.52001 2.72341 3.84001 2.72341 4.01601 2.89894C4.11201 2.99468 4.16001 3.10638 4.16001 3.23404C4.16001 3.3617 4.11201 3.48936 4.01601 3.56915C3.93601 3.66489 3.80801 3.71277 3.68001 3.71277Z" fill="#616161"/>
<path fill-rule="evenodd" clip-rule="evenodd" d="M12.8 3.71277C12.672 3.71277 12.544 3.66489 12.464 3.56915C12.368 3.48936 12.32 3.3617 12.32 3.23404C12.32 3.10638 12.368 2.97872 12.464 2.89894C12.64 2.72341 12.96 2.72341 13.136 2.89894C13.232 2.99468 13.28 3.10638 13.28 3.23404C13.28 3.3617 13.232 3.48936 13.136 3.56915C13.056 3.66489 12.928 3.71277 12.8 3.71277Z" fill="#616161"/>
<path fill-rule="evenodd" clip-rule="evenodd" d="M2.08 16H13.92C15.072 16 16 15.0128 16 13.7872V2.21277C16 0.987234 15.072 0 13.92 0H2.08C0.928 0 0 0.987234 0 2.21277V13.7872C0 15.0128 0.928 16 2.08 16ZM1 2.19512C1 1.52927 1.49318 1 2.11364 1H13.8864C14.5068 1 15 1.52927 15 2.19512V13.8049C15 14.4707 14.5068 15 13.8864 15H2.11364C1.49318 15 1 14.4707 1 13.8049V2.19512Z" fill="#616161"/>
<rect x="6.40002" y="6.58511" width="3.2" height="3.19149" fill="#FEF2E0"/>
<rect x="2.08002" y="6.58511" width="3.2" height="3.19149" fill="#FEF2E0"/>
<rect x="10.72" y="6.58511" width="3.2" height="3.19149" fill="#FEF2E0"/>
<rect x="6.40002" y="10.8936" width="3.2" height="3.19149" fill="#FAC87F"/>
<rect x="2.08002" y="10.8936" width="3.2" height="3.19149" fill="#FCDEB1"/>
<rect x="10.72" y="10.8936" width="3.2" height="3.19149" fill="#F28602"/>
<path d="M7 3C7.16051 3.29297 7.54688 3.5 8 3.5C8.45313 3.5 8.83949 3.29297 9 3" stroke="#616161" stroke-width="0.5" stroke-linecap="round"/>
</svg>
