<svg width="48" height="48" viewBox="0 0 48 48" fill="none" xmlns="http://www.w3.org/2000/svg">
<g id="Calendar">
<g id="icons8-calendar (1)">
<path id="Path" fill-rule="evenodd" clip-rule="evenodd" d="M41.7599 46.5638H6.23994C3.59994 46.5638 1.43994 44.4096 1.43994 41.7766V9.2234C1.43994 6.59042 3.59994 4.43616 6.23994 4.43616H41.7599C44.3999 4.43616 46.5599 6.59042 46.5599 9.2234V41.7766C46.5599 44.4096 44.3999 46.5638 41.7599 46.5638Z" fill="white"/>
<path id="Path_2" fill-rule="evenodd" clip-rule="evenodd" d="M46.56 16.4042H1.44C0.624 16.4042 0 15.7819 0 14.9681C0 14.1542 0.624 13.5319 1.44 13.5319H46.56C47.376 13.5319 48 14.1542 48 14.9681C48 15.7819 47.376 16.4042 46.56 16.4042Z" fill="#454B54"/>
<path id="Path_3" fill-rule="evenodd" clip-rule="evenodd" d="M11.04 11.1383C10.656 11.1383 10.272 10.9947 10.032 10.7074C9.74404 10.4681 9.60004 10.0851 9.60004 9.70213C9.60004 9.31915 9.74404 8.93617 10.032 8.69681C10.56 8.17022 11.52 8.17022 12.048 8.69681C12.336 8.98405 12.48 9.31915 12.48 9.70213C12.48 10.0851 12.336 10.4681 12.048 10.7074C11.808 10.9947 11.424 11.1383 11.04 11.1383Z" fill="#454B54"/>
<path id="Path_4" fill-rule="evenodd" clip-rule="evenodd" d="M24.0001 11.1383C23.6161 11.1383 23.2321 10.9947 22.9921 10.7074C22.7041 10.4681 22.5601 10.0851 22.5601 9.70213C22.5601 9.31915 22.7041 8.93617 22.9921 8.69681C23.5201 8.17022 24.4801 8.17022 25.0081 8.69681C25.2961 8.98405 25.4401 9.31915 25.4401 9.70213C25.4401 10.0851 25.2961 10.4681 25.0081 10.7074C24.7681 10.9947 24.3841 11.1383 24.0001 11.1383Z" fill="#454B54"/>
<path id="Path_5" fill-rule="evenodd" clip-rule="evenodd" d="M38.4 11.1383C38.016 11.1383 37.632 10.9947 37.392 10.7074C37.104 10.4681 36.96 10.0851 36.96 9.70213C36.96 9.31915 37.104 8.93617 37.392 8.69681C37.92 8.17022 38.88 8.17022 39.408 8.69681C39.696 8.98405 39.84 9.31915 39.84 9.70213C39.84 10.0851 39.696 10.4681 39.408 10.7074C39.168 10.9947 38.784 11.1383 38.4 11.1383Z" fill="#454B54"/>
<path id="Shape" fill-rule="evenodd" clip-rule="evenodd" d="M6.24 48H41.76C45.216 48 48 45.0383 48 41.3617V6.6383C48 2.9617 45.216 0 41.76 0H6.24C2.784 0 0 2.9617 0 6.6383V41.3617C0 45.0383 2.784 48 6.24 48ZM3 6.58537C3 4.5878 4.47955 3 6.34091 3H41.6591C43.5205 3 45 4.5878 45 6.58537V41.4146C45 43.4122 43.5205 45 41.6591 45H6.34091C4.47955 45 3 43.4122 3 41.4146V6.58537Z" fill="#454B54"/>
<g id="Group">
<rect id="Rectangle" x="19.2001" y="19.7553" width="9.6" height="9.57447" fill="#DFF2F1"/>
<rect id="Rectangle_2" x="6.24005" y="19.7553" width="9.6" height="9.57447" fill="#DFF2F1"/>
<rect id="Rectangle_3" x="32.1601" y="19.7553" width="9.6" height="9.57447" fill="#DFF2F1"/>
<rect id="Rectangle_4" x="19.2001" y="32.6808" width="9.6" height="9.57447" fill="#AFDEDC"/>
<rect id="Rectangle_5" x="6.24005" y="32.6808" width="9.6" height="9.57447" fill="#DFF2F1"/>
<rect id="Rectangle_6" x="32.1601" y="32.6808" width="9.6" height="9.57447" fill="#42B4AD"/>
</g>
</g>
</g>
</svg>
