<svg width="16" height="16" viewBox="0 0 16 16" fill="none" xmlns="http://www.w3.org/2000/svg">
<path fill-rule="evenodd" clip-rule="evenodd" d="M14.3637 14.4583H1.63639C1.12729 14.4583 0.727295 14.0611 0.727295 13.5556V4.52778C0.727295 4.02222 1.12729 3.625 1.63639 3.625H14.3637C14.8727 3.625 15.2727 4.02222 15.2727 4.52778V13.5556C15.2727 14.0611 14.8727 14.4583 14.3637 14.4583Z" fill="white"/>
<path fill-rule="evenodd" clip-rule="evenodd" d="M0.727295 12.1111V2.74054C0.727295 2.11584 1.12729 1.625 1.63639 1.625H14.3637C14.8727 1.625 15.2727 2.11584 15.2727 2.74054V12.1111H0.727295Z" fill="#444B54"/>
<path fill-rule="evenodd" clip-rule="evenodd" d="M8.00001 12.6528C10.0083 12.6528 11.6364 11.036 11.6364 9.04167C11.6364 7.04731 10.0083 5.43056 8.00001 5.43056C5.9917 5.43056 4.36365 7.04731 4.36365 9.04167C4.36365 11.036 5.9917 12.6528 8.00001 12.6528Z" fill="white"/>
<path fill-rule="evenodd" clip-rule="evenodd" d="M7.99999 11.2083C9.20498 11.2083 10.1818 10.2383 10.1818 9.04167C10.1818 7.84505 9.20498 6.875 7.99999 6.875C6.79501 6.875 5.81818 7.84505 5.81818 9.04167C5.81818 10.2383 6.79501 11.2083 7.99999 11.2083Z" fill="#7BCAC5"/>
<path fill-rule="evenodd" clip-rule="evenodd" d="M5.76744 1.33333H14.5116C15.3302 1.33333 16 2.13333 16 3.11111V14.2222C16 15.2 15.3302 16 14.5116 16H1.48837C0.669767 16 0 15.2 0 14.2222V3.11111C0 2.13333 0.669767 1.33333 1.48837 1.33333H2.7907V0.666667C2.7907 0.288889 3.03256 0 3.34884 0H5.2093C5.52558 0 5.76744 0.288889 5.76744 0.666667V1.33333ZM14.6486 15C14.8419 15 15 14.7833 15 14.5185V2.48148C15 2.21667 14.8419 2 14.6486 2H2.35135C2.15811 2 2 2.21667 2 2.48148V14.5185C2 14.7833 2.15811 15 2.35135 15H14.6486Z" fill="#444B54"/>
<path fill-rule="evenodd" clip-rule="evenodd" d="M3.81818 9.04166C3.81818 11.3347 5.6909 13.1944 7.99999 13.1944C10.3091 13.1944 12.1818 11.3347 12.1818 9.04166C12.1818 6.74861 10.3091 4.88889 7.99999 4.88889C5.6909 4.88889 3.81818 6.74861 3.81818 9.04166ZM4.90909 9.04166C4.90909 7.34444 6.2909 5.97222 7.99999 5.97222C9.70909 5.97222 11.0909 7.34444 11.0909 9.04166C11.0909 10.7389 9.70909 12.1111 7.99999 12.1111C6.2909 12.1111 4.90909 10.7389 4.90909 9.04166Z" fill="#444B54"/>
<path fill-rule="evenodd" clip-rule="evenodd" d="M13.0909 7.23611C13.593 7.23611 14 6.83193 14 6.33334C14 5.83474 13.593 5.43056 13.0909 5.43056C12.5888 5.43056 12.1818 5.83474 12.1818 6.33334C12.1818 6.83193 12.5888 7.23611 13.0909 7.23611Z" fill="white"/>
<path fill-rule="evenodd" clip-rule="evenodd" d="M3.63634 11.3889C3.93758 11.3889 4.18179 11.1464 4.18179 10.8472C4.18179 10.5481 3.93758 10.3056 3.63634 10.3056C3.33509 10.3056 3.09088 10.5481 3.09088 10.8472C3.09088 11.1464 3.33509 11.3889 3.63634 11.3889Z" fill="white"/>
<path fill-rule="evenodd" clip-rule="evenodd" d="M6.36362 8.68056C6.8657 8.68056 7.27271 8.27637 7.27271 7.77778C7.27271 7.27919 6.8657 6.875 6.36362 6.875C5.86154 6.875 5.45453 7.27919 5.45453 7.77778C5.45453 8.27637 5.86154 8.68056 6.36362 8.68056Z" fill="white"/>
</svg>
