<svg width="24" height="24" viewBox="0 0 24 24" fill="none" xmlns="http://www.w3.org/2000/svg">
<g id="Camera + 1">
<g id="icons8-compact-camera (1)">
<path id="Path" fill-rule="evenodd" clip-rule="evenodd" d="M21.5455 21.6875H2.45458C1.69094 21.6875 1.09094 21.0917 1.09094 20.3333V6.79167C1.09094 6.03333 1.69094 5.4375 2.45458 5.4375H21.5455C22.3091 5.4375 22.9091 6.03333 22.9091 6.79167V20.3333C22.9091 21.0917 22.3091 21.6875 21.5455 21.6875Z" fill="white"/>
<path id="Path_2" fill-rule="evenodd" clip-rule="evenodd" d="M1.09094 14.4375V3.7141C1.09094 2.9992 1.69094 2.4375 2.45458 2.4375H21.5455C22.3091 2.4375 22.9091 2.9992 22.9091 3.7141V14.4375H1.09094Z" fill="#444B54"/>
<path id="Oval" fill-rule="evenodd" clip-rule="evenodd" d="M12 18.9792C15.0125 18.9792 17.4546 16.554 17.4546 13.5625C17.4546 10.571 15.0125 8.14584 12 8.14584C8.98755 8.14584 6.54547 10.571 6.54547 13.5625C6.54547 16.554 8.98755 18.9792 12 18.9792Z" fill="white"/>
<path id="Oval_2" fill-rule="evenodd" clip-rule="evenodd" d="M12 16.8125C13.8075 16.8125 15.2727 15.3574 15.2727 13.5625C15.2727 11.7676 13.8075 10.3125 12 10.3125C10.1925 10.3125 8.72726 11.7676 8.72726 13.5625C8.72726 15.3574 10.1925 16.8125 12 16.8125Z" fill="#D54263"/>
<path id="Shape" fill-rule="evenodd" clip-rule="evenodd" d="M8.65116 2H21.7674C22.9953 2 24 3.2 24 4.66667V21.3333C24 22.8 22.9953 24 21.7674 24H2.23256C1.00465 24 0 22.8 0 21.3333V4.66667C0 3.2 1.00465 2 2.23256 2H4.18605V1C4.18605 0.433333 4.54884 0 5.02326 0H7.81395C8.28837 0 8.65116 0.433333 8.65116 1V2ZM21.973 22.5C22.2628 22.5 22.5 22.175 22.5 21.7778V3.72222C22.5 3.325 22.2628 3 21.973 3H3.52703C3.23716 3 3 3.325 3 3.72222V21.7778C3 22.175 3.23716 22.5 3.52703 22.5H21.973Z" fill="#444B54"/>
<path id="Shape_2" fill-rule="evenodd" clip-rule="evenodd" d="M5.72726 13.5625C5.72726 17.0021 8.53636 19.7917 12 19.7917C15.4636 19.7917 18.2727 17.0021 18.2727 13.5625C18.2727 10.1229 15.4636 7.33333 12 7.33333C8.53636 7.33333 5.72726 10.1229 5.72726 13.5625ZM7.36363 13.5625C7.36363 11.0167 9.43636 8.95833 12 8.95833C14.5636 8.95833 16.6364 11.0167 16.6364 13.5625C16.6364 16.1083 14.5636 18.1667 12 18.1667C9.43636 18.1667 7.36363 16.1083 7.36363 13.5625Z" fill="#444B54"/>
<path id="Oval_3" fill-rule="evenodd" clip-rule="evenodd" d="M19.6364 10.8542C20.3895 10.8542 21 10.2479 21 9.5C21 8.75212 20.3895 8.14584 19.6364 8.14584C18.8833 8.14584 18.2727 8.75212 18.2727 9.5C18.2727 10.2479 18.8833 10.8542 19.6364 10.8542Z" fill="white"/>
<path id="Oval_4" fill-rule="evenodd" clip-rule="evenodd" d="M5.35041 13.625C5.80228 13.625 6.16859 13.2612 6.16859 12.8125C6.16859 12.3638 5.80228 12 5.35041 12C4.89854 12 4.53223 12.3638 4.53223 12.8125C4.53223 13.2612 4.89854 13.625 5.35041 13.625Z" fill="white"/>
<path id="Oval_5" fill-rule="evenodd" clip-rule="evenodd" d="M9.54543 13.0208C10.2985 13.0208 10.9091 12.4146 10.9091 11.6667C10.9091 10.9188 10.2985 10.3125 9.54543 10.3125C8.79231 10.3125 8.18179 10.9188 8.18179 11.6667C8.18179 12.4146 8.79231 13.0208 9.54543 13.0208Z" fill="white"/>
</g>
</g>
</svg>
