<svg width="68" height="64" viewBox="0 0 68 64" fill="none" xmlns="http://www.w3.org/2000/svg">
<g id="Card">
<g id="icons8-bank-cards">
<path id="Shape" d="M58.3365 54.3448H16.4249C13.3099 54.3448 10.7612 51.8621 10.7612 48.8276V22.3448C10.7612 19.3103 13.3099 16.8276 16.4249 16.8276H58.3365C61.4515 16.8276 64.0002 19.3103 64.0002 22.3448V48.8276C64.0002 51.8621 61.4515 54.3448 58.3365 54.3448Z" fill="white"/>
<path id="Shape_2" d="M58.3354 15.1724C60.3744 15.1724 62.2437 16.0011 63.5464 17.2701C64.8488 18.5941 65.6986 20.3584 65.6987 22.3443V48.8287C65.6984 50.8145 64.8488 52.6341 63.5464 53.9029C62.1871 55.1718 60.3744 56.0005 58.3354 56.0005H16.4253C14.3864 56.0005 12.517 55.1718 11.2144 53.9029C9.91206 52.579 9.06232 50.8143 9.06201 48.8287V22.3443C9.06217 20.3585 9.91209 18.594 11.2144 17.2701C12.5736 16.0011 14.3864 15.1724 16.4253 15.1724H58.3354ZM16.4253 18.481C15.3492 18.5362 14.3842 18.9239 13.6479 19.6412C12.9123 20.3031 12.4606 21.2966 12.4604 22.3443V48.8287C12.5173 49.8763 12.9122 50.8149 13.6479 51.5318C14.3276 52.249 15.3492 52.688 16.4253 52.688H58.3354C59.4116 52.6329 60.3765 52.249 61.1128 51.5318C61.8486 50.8699 62.3 49.8764 62.3003 48.8287V22.3443C62.2436 21.2965 61.8486 20.3582 61.1128 19.6412C60.4331 18.9239 59.4116 18.481 58.3354 18.481H16.4253Z" fill="#454B54"/>
<path id="Shape_3" d="M58.3363 18.4828H16.4248C16.3115 18.4828 16.2549 18.4828 16.1416 18.4828C14.216 18.6483 12.6301 20.1379 12.4602 22.069C12.4602 22.1793 12.4602 22.2345 12.4602 22.3448V48.8276C12.4602 48.8828 12.4602 48.8828 12.4602 48.9379C12.4602 49.4897 12.6301 50.0414 12.8567 50.4828H49.2744C55.2213 50.4828 60.0354 45.7931 60.0354 40V18.869C59.5257 18.6483 59.016 18.4828 58.4496 18.4828C58.3929 18.4828 58.3929 18.4828 58.3363 18.4828Z" fill="#CCCCCC"/>
<path id="Shape_4" d="M49.2744 45.5172H7.36294C4.24789 45.5172 1.69922 43.0345 1.69922 40V13.5172C1.69922 10.4828 4.24789 8 7.36294 8H49.2744C52.3895 8 54.9382 10.4828 54.9382 13.5172V40C54.9382 43.0345 52.3895 45.5172 49.2744 45.5172Z" fill="#ADDFF8" stroke="#454B54" stroke-width="0.849558"/>
<path id="Shape_5" d="M23.2213 39.4483H10.7611C9.79829 39.4483 9.06201 38.731 9.06201 37.7931C9.06201 36.8552 9.79829 36.1379 10.7611 36.1379H23.2213C24.1841 36.1379 24.9204 36.8552 24.9204 37.7931C24.9204 38.731 24.1841 39.4483 23.2213 39.4483Z" fill="#454B54"/>
<path id="Shape_6" d="M45.8762 21.2414H27.7523C26.7895 21.2414 26.0532 20.5241 26.0532 19.5862C26.0532 18.6483 26.7895 17.931 27.7523 17.931H45.8762C46.8391 17.931 47.5753 18.6483 47.5753 19.5862C47.5753 20.5241 46.8391 21.2414 45.8762 21.2414Z" fill="white"/>
<path id="Shape_7" d="M45.8763 32.8276H41.3454C40.3825 32.8276 39.6462 32.1103 39.6462 31.1724C39.6462 30.2345 40.3825 29.5172 41.3454 29.5172H45.8763C46.8392 29.5172 47.5754 30.2345 47.5754 31.1724C47.5754 32.1103 46.8392 32.8276 45.8763 32.8276Z" fill="#454B54"/>
<path id="Shape_8" d="M18.124 24.5517H11.8939C10.308 24.5517 9.06201 23.3379 9.06201 21.7931V17.931C9.06201 16.3862 10.308 15.1724 11.8939 15.1724H18.124C19.7098 15.1724 20.9558 16.3862 20.9558 17.931V21.7931C20.9558 23.3379 19.7098 24.5517 18.124 24.5517Z" fill="#F7F3B1"/>
<path id="Shape_9" d="M15.2921 32.8276H10.7611C9.79829 32.8276 9.06201 32.1103 9.06201 31.1724C9.06201 30.2345 9.79829 29.5172 10.7611 29.5172H15.2921C16.2549 29.5172 16.9912 30.2345 16.9912 31.1724C16.9912 32.1103 16.2549 32.8276 15.2921 32.8276Z" fill="#454B54"/>
<path id="Shape_10" d="M35.6815 32.8276H31.1505C30.1877 32.8276 29.4514 32.1103 29.4514 31.1724C29.4514 30.2345 30.1877 29.5172 31.1505 29.5172H35.6815C36.6443 29.5172 37.3806 30.2345 37.3806 31.1724C37.3806 32.1103 36.6443 32.8276 35.6815 32.8276Z" fill="#454B54"/>
<path id="Shape_11" d="M25.4869 32.8276H20.956C19.9931 32.8276 19.2568 32.1103 19.2568 31.1724C19.2568 30.2345 19.9931 29.5172 20.956 29.5172H25.4869C26.4498 29.5172 27.186 30.2345 27.186 31.1724C27.186 32.1103 26.4498 32.8276 25.4869 32.8276Z" fill="#454B54"/>
</g>
</g>
</svg>
