<svg width="16" height="16" viewBox="0 0 16 16" fill="none" xmlns="http://www.w3.org/2000/svg">
<path fill-rule="evenodd" clip-rule="evenodd" d="M4.19999 15.3822C2.2923 15.3822 0.707683 13.8931 0.538452 11.9604V11.9445V3.97622C0.538452 3.62771 0.815375 3.34256 1.15384 3.34256H6.32307C6.66153 3.34256 6.93845 3.62771 6.93845 3.97622V8.64949C6.93845 9.21979 7.32307 9.72672 7.87691 9.86929L12.5538 11.0416C12.8308 11.1049 13.0154 11.3584 13.0154 11.6435V14.7327C13.0154 15.0812 12.7385 15.3663 12.4 15.3663H6.87691H5.64614H4.19999V15.3822Z" fill="white"/>
<path fill-rule="evenodd" clip-rule="evenodd" d="M14.6153 12.3564L5.64612 10.9465L6.2615 0.459412H1.15381L1.76919 12.0871C1.87689 13.3861 2.93842 14.3683 4.21535 14.3683H5.6615H14.4923C15.0461 14.3683 15.4769 13.9089 15.4769 13.3545C15.4615 12.8634 15.1077 12.4356 14.6153 12.3564Z" fill="#F0D6BF"/>
<path fill-rule="evenodd" clip-rule="evenodd" d="M15.4308 13.2753C15.3385 12.8951 15.0154 12.5941 14.6154 12.5307L13.2615 12.3248L13.3077 12.4673C13.4923 12.9584 13.9385 13.2911 14.4615 13.2911H15.4308V13.2753Z" fill="white"/>
<path fill-rule="evenodd" clip-rule="evenodd" d="M4.19996 14.8436H5.64611H12.4C13 14.8436 13.4769 14.3367 13.4769 13.7347V11.6456C13.4769 11.1228 13.1384 10.6951 12.6615 10.5684L4.10766 9.22189L4.69228 0.491089C4.70766 0.364356 4.66151 0.237624 4.5692 0.142574C4.47689 0.0475247 4.35381 0 4.23074 0H1.15381H1.13842C1.01534 0 0.892265 0.0475247 0.799957 0.142574C0.723034 0.237624 0.67688 0.364356 0.67688 0.491089L1.29226 12.1188V12.1347C1.43073 13.6713 2.67688 14.8436 4.19996 14.8436ZM4.19996 13.8931C3.16919 13.8931 2.30765 13.101 2.21534 12.0554L1.63073 0.934653H3.86151L3.27689 10.9149C3.26151 11.1525 3.43074 11.3743 3.66151 11.4059L12.6308 12.8158C12.8923 12.8634 13.0769 13.0851 13.0769 13.3545C13.0769 13.6554 12.8461 13.8931 12.5538 13.8931H5.64611H5.61534H4.19996Z" fill="#454B54"/>
<path fill-rule="evenodd" clip-rule="evenodd" d="M4.19998 15.8574H5.64613H12.4C13 15.8574 13.4769 15.3505 13.4769 14.7485V11.6594C13.4769 11.1366 13.1384 10.7089 12.6615 10.5822L7.9846 9.40991C7.64614 9.31487 7.39998 9.01388 7.39998 8.64952V3.97625C7.39998 3.35843 6.92306 2.86734 6.32306 2.86734H1.15383C0.553827 2.86734 0.0769043 3.37427 0.0769043 3.97625V11.9446V11.9921V12.0079C0.276904 14.1941 2.04613 15.8574 4.19998 15.8574ZM4.19998 14.9069C2.52306 14.9069 1.15383 13.6238 0.999981 11.9129V3.97625C0.999981 3.8812 1.0769 3.81784 1.15383 3.81784H6.30767C6.39998 3.81784 6.46152 3.89704 6.46152 3.97625V8.66536C6.46152 9.45744 6.99998 10.1545 7.75383 10.3446L12.4307 11.5168C12.4923 11.5327 12.5384 11.5961 12.5384 11.6594V14.7485C12.5384 14.8436 12.4615 14.9069 12.3846 14.9069H4.19998Z" fill="#454B54"/>
<path fill-rule="evenodd" clip-rule="evenodd" d="M8.01535 5.95644C7.90766 5.95644 7.78458 5.90891 7.70766 5.8297C7.52305 5.65545 7.50766 5.35446 7.67689 5.16436L8.59997 4.13465C8.7692 3.94455 9.06151 3.92871 9.24612 4.10297C9.43074 4.27723 9.44612 4.57822 9.27689 4.76832L8.35382 5.79802C8.26151 5.90891 8.13843 5.95644 8.01535 5.95644Z" fill="#454B54"/>
<path fill-rule="evenodd" clip-rule="evenodd" d="M8.93843 6.82771C8.83074 6.82771 8.70766 6.78019 8.63074 6.70098L7.70766 5.82969C7.52305 5.65544 7.50766 5.35445 7.67689 5.16435C7.84612 4.97425 8.13843 4.95841 8.32305 5.13266L9.24612 6.00395C9.43074 6.17821 9.44612 6.4792 9.27689 6.6693C9.18458 6.78019 9.06151 6.82771 8.93843 6.82771Z" fill="#454B54"/>
</svg>
