<svg width="48" height="48" viewBox="0 0 48 48" fill="none" xmlns="http://www.w3.org/2000/svg">
<g id="Child">
<g id="icons8-baby">
<path id="Shape" d="M24.0681 47.654C15.9579 47.654 9.35449 41.1676 9.35449 33.1676V19.8486C9.35449 18.6378 9.79767 17.427 10.6397 16.5189C11.1272 15.9567 11.9693 15.9135 12.5011 16.3892C13.0772 16.8649 13.1215 17.6865 12.634 18.2054C12.2352 18.6378 12.0136 19.2432 12.0136 19.8486V33.1243C12.0136 39.6973 17.4204 45.0162 24.0681 45.0162C30.7159 45.0162 36.1227 39.6973 36.1227 33.1243V19.8486C36.1227 19.2432 35.9011 18.6811 35.5022 18.2054C35.0147 17.6432 35.059 16.8649 35.6352 16.3892C36.2113 15.9135 37.009 15.9567 37.4965 16.5189C38.3386 17.427 38.7818 18.6378 38.7818 19.8486V33.1243C38.7818 41.1243 32.1784 47.654 24.0681 47.654Z" fill="#454B54"/>
<path id="Shape_2" d="M24.0681 5.10269C29.8737 5.10269 34.6158 9.72972 34.6158 15.4811C34.6158 21.2324 29.8737 25.8594 24.0681 25.8594C18.2624 25.8594 13.5203 21.2324 13.5203 15.4811C13.5203 9.72972 18.2624 5.10269 24.0681 5.10269Z" fill="#F0D6BF"/>
<path id="Shape_3" d="M19.6363 13.8795C18.9917 13.8795 18.4545 14.4052 18.4545 15.0361C18.4545 15.667 18.9917 16.1927 19.6363 16.1927C20.2809 16.1927 20.8181 15.667 20.8181 15.0361C20.8181 14.4052 20.2809 13.8795 19.6363 13.8795Z" fill="#CEBAAA"/>
<path id="Shape_4" d="M29.0909 13.8795C28.4463 13.8795 27.9091 14.4052 27.9091 15.0361C27.9091 15.667 28.4463 16.1927 29.0909 16.1927C29.7356 16.1927 30.2728 15.667 30.2728 15.0361C30.2728 14.4052 29.7356 13.8795 29.0909 13.8795Z" fill="#CEBAAA"/>
<path id="Shape_5" d="M24.0677 3.80539C30.6265 3.80539 35.9442 9.03735 35.9447 15.4802C35.9447 21.9234 30.6268 27.1579 24.0677 27.1579C17.5088 27.1578 12.1908 21.9233 12.1908 15.4802C12.1913 9.03746 17.5091 3.80556 24.0677 3.80539ZM24.0677 6.44211C19.0157 6.44228 14.851 10.5081 14.851 15.5241C14.851 20.5403 18.9713 24.606 24.0677 24.6062C29.1643 24.6062 33.2875 20.5404 33.2875 15.5241C33.2874 10.508 29.12 6.44211 24.0677 6.44211Z" fill="#454B54"/>
<path id="Shape_6" d="M24.0681 46.3567C16.667 46.3567 10.684 40.4324 10.684 33.1675V19.8486C10.684 18.9405 11.0386 18.0324 11.6147 17.3838L37.4522 31.1784V33.1675C37.4522 40.4324 31.4692 46.3567 24.0681 46.3567Z" fill="#C7D7E2"/>
<path id="Shape_7" d="M24.0681 46.3567C31.4692 46.3567 37.4522 40.4324 37.4522 33.1675V19.8486C37.4522 18.9405 37.0977 18.0324 36.5215 17.3838L10.684 31.1784V33.1675C10.684 40.4324 16.667 46.3567 24.0681 46.3567Z" fill="white"/>
<path id="Shape_8" d="M24.0681 47.654C15.9579 47.654 9.35449 41.1675 9.35449 33.1675V19.8486C9.35449 18.6378 9.79767 17.427 10.6397 16.5189C11.0386 16.0432 11.7477 15.9567 12.2795 16.2162L20.6999 20.7135C21.3647 21.0594 21.5863 21.8378 21.2318 22.4865C20.8772 23.1351 20.0795 23.3513 19.4147 23.0054L12.1465 19.1135C12.0579 19.3297 12.0136 19.5892 12.0136 19.8486V33.1243C12.0136 39.6973 17.4204 45.0162 24.0681 45.0162C30.7159 45.0162 36.1227 39.6973 36.1227 33.1243V31.1351C36.1227 30.4 36.6988 29.8378 37.4522 29.8378C38.2056 29.8378 38.7818 30.4 38.7818 31.1351V33.1243C38.7818 41.1243 32.1784 47.654 24.0681 47.654Z" fill="#454B54"/>
<path id="Shape_9" d="M24.0681 47.6541C15.9579 47.6541 9.35449 41.1676 9.35449 33.1676C9.35449 32.4324 9.93063 31.8703 10.684 31.8703C11.4374 31.8703 12.0136 32.4324 12.0136 33.1676C12.0136 39.7405 17.4204 45.0595 24.0681 45.0595C30.7159 45.0595 36.1227 39.7405 36.1227 33.1676V19.8486C36.1227 19.5892 36.0784 19.3297 35.9897 19.1135L14.9829 30.3568C14.3181 30.7027 13.5204 30.4865 13.1659 29.8378C12.8113 29.1892 13.0329 28.4108 13.6977 28.0649L35.8568 16.2595C36.3886 15.9568 37.0977 16.0865 37.4965 16.5622C38.3386 17.4703 38.7818 18.6811 38.7818 19.8919V33.1676C38.7818 41.1243 32.1784 47.6541 24.0681 47.6541Z" fill="#454B54"/>
<path id="Shape_10" d="M24.0681 6.44323C23.3147 6.44323 22.7386 5.88107 22.7386 5.14593C22.7386 2.33512 25.0431 0.0864716 27.8795 0.0864716C28.6329 0.0864716 29.209 0.648634 29.209 1.38377C29.209 2.1189 28.6329 2.68107 27.8795 2.68107C26.5056 2.68107 25.3977 3.80539 25.3977 5.14593C25.3977 5.83782 24.8215 6.44323 24.0681 6.44323Z" fill="#454B54"/>
<path id="Shape_11" d="M22.5908 16.1927C22.9228 17.0717 23.7219 17.6927 24.659 17.6927C25.5961 17.6927 26.3952 17.0717 26.7272 16.1927" stroke="#CEBAAA" stroke-width="0.5" stroke-linecap="round"/>
</g>
</g>
</svg>
