<svg width="16" height="16" viewBox="0 0 16 16" fill="none" xmlns="http://www.w3.org/2000/svg">
<path d="M8.80001 13.3602H4.32001C2.6489 13.3602 1.29779 11.971 1.29779 10.2527V3.30646H11.84V10.2527C11.8222 11.971 10.4711 13.3602 8.80001 13.3602Z" fill="white"/>
<rect x="1.29779" y="4.93332" width="10.5244" height="1.46237" fill="#EE7778"/>
<rect x="1.29779" y="7.2731" width="10.5244" height="1.46237" fill="#EE7778"/>
<path opacity="0.2" d="M9.56444 3.30646V10.2344C9.56444 11.971 8.21333 13.3602 6.56 13.3602H8.81778C10.4711 13.3602 11.8222 11.9527 11.8222 10.2344V3.30646H9.56444Z" fill="#0C0F13"/>
<path d="M11.8221 2.75806C12.1243 2.75806 12.3553 2.99613 12.3553 3.30688V10.2522C12.3553 12.2629 10.7552 13.9084 8.79962 13.9084H4.32013C2.36457 13.9084 0.764465 12.2629 0.764465 10.2522V3.30688C0.764465 2.99618 0.99551 2.75812 1.29767 2.75806H11.8221ZM1.83087 10.2522C1.83087 11.6597 2.95124 12.8118 4.32013 12.8118H8.79962C10.1685 12.8118 11.2889 11.6597 11.2889 10.2522V3.85474H1.83087V10.2522Z" fill="#454B54"/>
<path d="M12.5867 3.85483H0.533333C0.231111 3.85483 0 3.6172 0 3.30644C0 2.99569 0.231111 2.75806 0.533333 2.75806H12.5689C12.8711 2.75806 13.1022 2.99569 13.1022 3.30644C13.1022 3.6172 12.8711 3.85483 12.5867 3.85483Z" fill="#454B54"/>
<path d="M11.8222 10.8011C11.6267 10.8011 11.4311 10.6914 11.3422 10.5086C11.2178 10.2344 11.3067 9.90537 11.5733 9.77741L14.2222 8.40644C14.5956 8.20537 14.8444 7.8215 14.8444 7.38279C14.8444 6.743 14.3467 6.23117 13.7244 6.23117H11.8222C11.52 6.23117 11.2889 5.99354 11.2889 5.68279C11.2889 5.37203 11.52 5.1344 11.8222 5.1344H13.7244C14.9333 5.1344 15.9111 6.13978 15.9111 7.38279C15.9111 8.24193 15.4489 9.00967 14.72 9.39354L12.0711 10.7645C11.9822 10.7828 11.9111 10.8011 11.8222 10.8011Z" fill="#454B54"/>
</svg>
