<svg width="17" height="17" viewBox="0 0 17 17" fill="none" xmlns="http://www.w3.org/2000/svg">
<path d="M12.0369 0.93258L10.4762 0.524565C10.269 0.466278 10.0619 0.437134 9.84089 0.437134H6.19467C5.97368 0.437134 5.76651 0.466278 5.55934 0.524565L3.99865 0.93258C3.36332 1.09287 2.81086 1.50089 2.45176 2.08376L0.518159 5.14387C0.310987 5.46446 0.393856 5.88704 0.697708 6.10562L1.80262 6.87793C2.07885 7.08194 2.46557 7.00908 2.67275 6.73221L3.40475 5.78504V14.8779C3.40475 15.2568 3.69479 15.5628 4.05389 15.5628H11.954C12.3131 15.5628 12.6032 15.2567 12.6032 14.8779V5.77047L13.3352 6.73221C13.5424 7.00908 13.9291 7.06737 14.2053 6.87793L15.3102 6.10562C15.6141 5.88704 15.6969 5.46446 15.4898 5.14387L13.5562 2.08376C13.2109 1.51546 12.6584 1.10744 12.0369 0.93258Z" fill="#FCDEB1"/>
<path d="M6.63635 10.6234C7.39914 10.6234 8.01819 11.2756 8.01819 12.0804C8.01819 12.0899 8.01641 12.0993 8.01624 12.1087C8.64746 12.2431 9.12268 12.8318 9.12268 13.5374C9.12263 14.3421 8.50446 14.9943 7.74182 14.9944C7.59 14.9944 7.44389 14.968 7.30725 14.9202C6.90478 15.4946 6.26083 15.8684 5.53186 15.8685C4.31142 15.8685 3.32192 14.8251 3.3219 13.5374C3.3219 12.2498 4.3114 11.2054 5.53186 11.2054H5.53381C5.78579 10.8523 6.18518 10.6235 6.63635 10.6234ZM9.95178 8.87433C10.4092 8.87455 10.7798 9.26575 10.7799 9.74835C10.7799 10.2311 10.4093 10.6231 9.95178 10.6234C9.49411 10.6234 9.12268 10.2312 9.12268 9.74835C9.12283 9.26561 9.4942 8.87433 9.95178 8.87433Z" fill="#BEAF98"/>
<path d="M12.9319 6.20223L12.9824 6.26868C12.9797 6.25134 12.9732 6.23575 12.9623 6.2222L12.9319 6.20223ZM12.2717 5.77047L11.3187 14.8634C11.3187 15.2424 11.0285 15.5482 10.6696 15.5482H11.9816C12.081 15.5482 12.1749 15.5249 12.259 15.483C12.4639 15.368 12.6032 15.1404 12.6032 14.8779V6.97731C12.5807 6.96915 12.584 6.94424 12.6032 6.90781V5.9873L12.2717 5.77047ZM9.84087 0.437134H8.7796C8.90501 0.451269 9.02766 0.475458 9.1503 0.509994L10.711 0.918008C11.3463 1.0783 11.8988 1.48631 12.2579 2.06919L14.1915 5.1293C14.3987 5.44988 14.3156 5.87247 14.0119 6.09105L13.2661 6.61564L13.349 6.71764C13.4751 6.8861 13.6678 6.97367 13.8615 6.97367C13.9861 6.97367 14.1111 6.93753 14.2192 6.86336L15.3242 6.09105C15.3417 6.07925 15.3584 6.06671 15.3746 6.05345C15.625 5.82453 15.6816 5.44056 15.4899 5.14387L13.5563 2.08376C13.211 1.51546 12.6585 1.10744 12.037 0.93258L10.4763 0.524565C10.269 0.466278 10.0619 0.437134 9.84087 0.437134Z" fill="#DBCF9C"/>
<path d="M10.1448 0.612C10.0343 1.74861 9.12271 2.69579 8.01779 2.69579C6.88525 2.69579 5.97369 1.77776 5.87701 0.612H10.1448Z" fill="#F7F7FB"/>
<path d="M8.01776 3.13297C6.69186 3.13297 5.57313 2.04007 5.47645 0.641162C5.46264 0.393439 5.62838 0.189431 5.86317 0.17486C6.09797 0.160288 6.29133 0.335151 6.30514 0.582874C6.37419 1.53005 7.13382 2.25865 8.03157 2.25865C8.90169 2.25865 9.66132 1.51548 9.74419 0.568302C9.77181 0.335151 9.96517 0.160288 10.2 0.17486C10.4211 0.204003 10.6005 0.408011 10.5729 0.655734C10.4348 2.05464 9.31604 3.13297 8.01776 3.13297Z" fill="#3E3E49"/>
<path d="M11.9678 16H4.06769C3.4738 16 3.00421 15.49 3.00421 14.878V7.00911C2.79704 7.2714 2.49319 7.41712 2.17553 7.41712C1.96835 7.41712 1.76118 7.35883 1.58163 7.22769L0.476716 6.45537C0.241921 6.29508 0.076184 6.03279 0.0209382 5.74135C-0.0343076 5.44991 0.0209382 5.1439 0.172864 4.89617L2.10647 1.83607C2.52081 1.16576 3.15614 0.699454 3.88814 0.510018L5.44884 0.102004C5.68363 0.0437158 5.93224 0 6.18085 0H9.81326C10.0619 0 10.3105 0.0291439 10.5453 0.102004L12.106 0.510018C12.8381 0.699454 13.4733 1.18033 13.8876 1.83607L15.8212 4.89617C15.9732 5.1439 16.0422 5.44991 15.9732 5.74135C15.9181 6.03279 15.7522 6.29508 15.5174 6.45537L14.4125 7.22769C14.2329 7.35883 14.0258 7.41712 13.8186 7.41712C13.5009 7.41712 13.1971 7.2714 12.9899 7.00911V14.8634C13.0313 15.49 12.5617 16 11.9678 16Z" fill="#3E3E49"/>
</svg>
