<svg width="16" height="16" viewBox="0 0 16 16" fill="none" xmlns="http://www.w3.org/2000/svg">
<g id="Column">
<g id="icons8-greek-pillar-capital">
<path id="Path" fill-rule="evenodd" clip-rule="evenodd" d="M11.1724 15.5862H5.93103C4.7862 15.5862 3.86206 14.6621 3.86206 13.5172V0.413794H12.1379V14.6207C12.1379 15.1586 11.7103 15.5862 11.1724 15.5862Z" fill="white"/>
<path id="Path_2" fill-rule="evenodd" clip-rule="evenodd" d="M10.069 14.5517V0.413794H12.1379V14.5517C12.1379 15.1172 11.669 15.5862 11.1035 15.5862C10.5379 15.5862 10.069 15.1172 10.069 14.5517Z" fill="#D3D8DD"/>
<g id="Group" opacity="0.5">
<g id="Group_2">
<path id="Path_3" fill-rule="evenodd" clip-rule="evenodd" d="M9.03448 14.2069C8.46897 14.2069 8 13.7379 8 13.1724V0.413794H10.069V13.1724C10.069 13.7379 9.6 14.2069 9.03448 14.2069Z" fill="#D3D8DD"/>
</g>
</g>
<path id="Oval" fill-rule="evenodd" clip-rule="evenodd" d="M7.99997 11.8621C8.22851 11.8621 8.41377 11.6768 8.41377 11.4483C8.41377 11.2197 8.22851 11.0345 7.99997 11.0345C7.77144 11.0345 7.58618 11.2197 7.58618 11.4483C7.58618 11.6768 7.77144 11.8621 7.99997 11.8621Z" fill="#3F4A54"/>
<path id="Path_4" fill-rule="evenodd" clip-rule="evenodd" d="M12.138 16C11.9035 16 11.7242 15.8207 11.7242 15.5862V0.827586H4.27589V13.5172C4.27589 13.7517 4.09658 13.931 3.8621 13.931C3.62761 13.931 3.4483 13.7517 3.4483 13.5172V0.413793C3.4483 0.17931 3.62761 0 3.8621 0H12.138C12.3724 0 12.5518 0.17931 12.5518 0.413793V15.5862C12.5518 15.8207 12.3724 16 12.138 16Z" fill="#444B54"/>
<path id="Path_5" fill-rule="evenodd" clip-rule="evenodd" d="M12.8276 5.93104C11.6828 5.93104 10.7586 5.0069 10.7586 3.86207H5.2414C5.2414 5.0069 4.31727 5.93104 3.17244 5.93104C1.6552 5.93104 0.413818 4.68966 0.413818 3.17241C0.413818 1.65517 1.6552 0.413794 3.17244 0.413794H12.8276C14.3449 0.413794 15.5862 1.65517 15.5862 3.17241C15.5862 4.68966 14.3449 5.93104 12.8276 5.93104Z" fill="white"/>
<path id="Path_6" fill-rule="evenodd" clip-rule="evenodd" d="M10.7586 3.86207H5.24139C5.20001 3.17241 4.6207 2.62069 3.93104 2.62069H3.17242H12.8276H12C11.3104 2.62069 10.7586 3.17241 10.7586 3.86207Z" fill="#D3D8DD"/>
<path id="Path_7" fill-rule="evenodd" clip-rule="evenodd" d="M12.8276 0H3.17241C1.42069 0 0 1.42069 0 3.17241C0 4.92414 1.42069 6.34483 3.17241 6.34483C4.53793 6.34483 5.65517 5.22759 5.65517 3.86207C5.65517 2.95172 4.91035 2.2069 4 2.2069H3.17241C2.93793 2.2069 2.75862 2.38621 2.75862 2.62069C2.75862 2.85517 2.93793 3.03448 3.17241 3.03448H4C4.45517 3.03448 4.82759 3.4069 4.82759 3.86207C4.82759 4.77241 4.08276 5.51724 3.17241 5.51724C1.87586 5.51724 0.827586 4.46897 0.827586 3.17241C0.827586 1.87586 1.87586 0.827586 3.17241 0.827586H12.8276C14.1241 0.827586 15.1724 1.87586 15.1724 3.17241C15.1724 4.46897 14.1241 5.51724 12.8276 5.51724C11.9172 5.51724 11.1724 4.77241 11.1724 3.86207C11.1724 3.4069 11.5448 3.03448 12 3.03448H12.8276C13.0621 3.03448 13.2414 2.85517 13.2414 2.62069C13.2414 2.38621 13.0621 2.2069 12.8276 2.2069H12H6.27586C6.04138 2.2069 5.86207 2.38621 5.86207 2.62069C5.86207 2.85517 6.04138 3.03448 6.27586 3.03448H10.5655C10.4966 3.15862 10.4276 3.29655 10.4 3.44828H7.31034C7.07586 3.44828 6.89655 3.62759 6.89655 3.86207C6.89655 4.09655 7.07586 4.27586 7.31034 4.27586H7.58621V8.68966C7.58621 8.92414 7.76552 9.10345 8 9.10345C8.23448 9.10345 8.41379 8.92414 8.41379 8.68966V4.27586H9.65517V12.8276C9.65517 13.0621 9.83448 13.2414 10.069 13.2414C10.3034 13.2414 10.4828 13.0621 10.4828 12.8276V4.67586C10.8138 5.64138 11.7379 6.34483 12.8276 6.34483C14.5793 6.34483 16 4.92414 16 3.17241C16 1.42069 14.5793 0 12.8276 0Z" fill="#444B54"/>
</g>
</g>
</svg>
