<svg width="26" height="24" viewBox="0 0 26 24" fill="none" xmlns="http://www.w3.org/2000/svg">
<g id="Confident">
<g id="icons8-wink">
<g id="Group">
<path id="Oval" d="M11.8021 23.5631C18.1063 23.5631 23.2167 18.434 23.2167 12.107C23.2167 5.77992 18.1063 0.650848 11.8021 0.650848C5.49803 0.650848 0.387543 5.77992 0.387543 12.107C0.387543 18.434 5.49803 23.5631 11.8021 23.5631Z" fill="#FDFCEE"/>
<path id="Shape" d="M11.8022 0.261932C18.3099 0.262013 23.6045 5.57528 23.6045 12.1067C23.6043 18.6379 18.3099 23.9513 11.8022 23.9514C5.29448 23.9514 0 18.6381 0 12.1067C0.000156152 5.57536 5.29458 0.261932 11.8022 0.261932ZM11.8022 1.03976C5.72184 1.03976 0.774902 6.0047 0.774902 12.1067C0.775046 18.2091 5.72248 23.1736 11.8022 23.1736C17.8819 23.1735 22.8294 18.209 22.8296 12.1067C22.8296 6.00475 17.8826 1.03984 11.8022 1.03976Z" fill="#515151"/>
</g>
<g id="Group_2">
<g id="Group_3">
<path id="Oval_2" d="M11.8022 21.5808C17.0154 21.5808 21.2416 17.3392 21.2416 12.107C21.2416 6.87473 17.0154 2.63317 11.8022 2.63317C6.58889 2.63317 2.3627 6.87473 2.3627 12.107C2.3627 17.3392 6.58889 21.5808 11.8022 21.5808Z" fill="#FFDDA7"/>
<path id="Shape_2" d="M11.8019 2.41038C17.1288 2.41038 21.4624 6.75991 21.4625 12.1062C21.4625 17.4525 17.1289 21.8034 11.8019 21.8034C6.475 21.8033 2.14124 17.4525 2.14124 12.1062C2.14136 6.75999 6.47507 2.41051 11.8019 2.41038ZM11.8019 2.85569C6.71919 2.85583 2.58374 7.00556 2.58362 12.1062C2.58362 17.208 6.71912 21.358 11.8019 21.3581C16.8848 21.3581 21.0201 17.2075 21.0201 12.1062C21.0206 7.00548 16.8847 2.85569 11.8019 2.85569Z" fill="#472B29"/>
</g>
<path id="Shape_3" opacity="0.79" d="M11.8143 4.09768C16.0281 4.09768 19.6063 6.85559 20.9598 10.7074C20.2053 6.21223 16.4028 2.78984 11.8143 2.78984C7.22575 2.78984 3.42328 6.21223 2.66876 10.7074C4.02224 6.85615 7.60051 4.09768 11.8143 4.09768Z" fill="#FBBF5C"/>
</g>
<g id="Group_4">
<path id="Shape_4" d="M11.8143 18.44C15.1773 18.44 17.9036 15.7038 17.9036 12.3286H5.72507C5.72507 15.7038 8.4514 18.44 11.8143 18.44Z" fill="#961B30"/>
<path id="Shape_5" d="M18.1247 12.329C18.1245 15.8212 15.2937 18.6616 11.8141 18.6616C8.33462 18.6615 5.50383 15.8212 5.5036 12.329V12.1064H18.1247V12.329ZM5.95038 12.5502C6.06718 15.6948 8.65278 18.2176 11.8141 18.2177C14.9756 18.2177 17.5611 15.6948 17.6779 12.5502H5.95038Z" fill="#472B29"/>
</g>
<g id="Group_5">
<path id="Shape_6" d="M8.5643 15.6482C8.5178 15.9216 8.49289 16.2049 8.49289 16.4955C8.49289 18.7967 9.97978 20.6624 11.8143 20.6624C13.6488 20.6624 15.1357 18.7967 15.1357 16.4955C15.1357 16.2049 15.1108 15.9216 15.0643 15.6482C15.0134 15.346 14.6945 15.1065 14.389 15.1065H9.2391C8.93408 15.1065 8.61523 15.346 8.5643 15.6482Z" fill="#EE3E54"/>
<path id="Shape_7" d="M14.3886 14.8838C14.8141 14.8838 15.2148 15.2095 15.2822 15.6103C15.3314 15.9002 15.3568 16.1991 15.3569 16.4951C15.3574 18.9149 13.7676 20.8848 11.8149 20.8852C9.86133 20.8852 8.27142 18.9152 8.27142 16.4951C8.27145 16.2002 8.29633 15.9024 8.34613 15.6103C8.41373 15.2098 8.81514 14.8838 9.23969 14.8838H14.3886ZM9.23969 15.3291C9.0321 15.3291 8.81365 15.4989 8.78265 15.685L8.73138 16.0893C8.71998 16.2246 8.71382 16.3602 8.71381 16.4951C8.71381 18.6702 10.1055 20.4399 11.8149 20.4399C13.524 20.4395 14.9145 18.6699 14.9145 16.4951C14.9145 16.2241 14.891 15.951 14.8456 15.685C14.8138 15.4985 14.596 15.3291 14.3886 15.3291H9.23969Z" fill="#472B29"/>
</g>
<g id="Group_6">
<path id="Shape_8" d="M6.30185 8.22844C6.34614 8.07788 6.51221 8.00065 6.65614 8.0451L9.3487 8.8618C9.49816 8.90625 9.60002 9.06181 9.60002 9.20626V9.3396C9.60002 9.48406 9.49816 9.63962 9.3487 9.68406L6.65448 10.5008C6.50501 10.5452 6.34282 10.4674 6.29798 10.3174C6.25369 10.173 6.33285 10.0174 6.48232 9.97297L8.73866 9.27293L6.47955 8.5729C6.33562 8.52845 6.25701 8.37289 6.30185 8.22844Z" fill="#684933"/>
<path id="Shape_9" fill-rule="evenodd" clip-rule="evenodd" d="M6.69683 7.9122L9.38922 8.72811C9.58767 8.78721 9.73783 8.99363 9.73785 9.20565V9.33895C9.73785 9.55174 9.58704 9.7576 9.38775 9.81649L6.6939 10.6324C6.65197 10.6451 6.61078 10.6514 6.56939 10.6515C6.38616 10.6515 6.21824 10.5365 6.16509 10.357C6.13244 10.252 6.14383 10.1384 6.19586 10.0406C6.24845 9.94283 6.33658 9.87104 6.44341 9.83993L8.27007 9.27304L6.43902 8.70614C6.33496 8.67392 6.25027 8.60156 6.19879 8.50546C6.14737 8.4067 6.13699 8.29504 6.16949 8.18905C6.20048 8.08463 6.26986 7.99721 6.36724 7.94442C6.46799 7.88998 6.58889 7.87942 6.69683 7.9122ZM6.49908 8.18905C6.47651 8.20121 6.44747 8.22492 6.43463 8.26669L6.43316 8.26962C6.42219 8.30502 6.42641 8.34243 6.44341 8.37509C6.45997 8.4061 6.48652 8.43003 6.51959 8.43954L9.20758 9.27304L6.52252 10.1051C6.48551 10.1162 6.45619 10.1394 6.43902 10.171C6.42186 10.2032 6.4177 10.2415 6.42877 10.2765C6.45162 10.3498 6.53296 10.389 6.61334 10.3673L9.30718 9.54989C9.40166 9.52161 9.46077 9.41889 9.46099 9.33895V9.20565C9.46099 9.12573 9.40259 9.02171 9.30865 8.99325L6.6148 8.17733C6.60167 8.17405 6.58708 8.17151 6.57232 8.17147C6.54753 8.17147 6.52169 8.17749 6.49908 8.18905Z" fill="#472B29"/>
</g>
<g id="Group_7">
<path id="Oval_3" d="M16.2429 10.6619C16.8544 10.6619 17.3501 10.1644 17.3501 9.5507C17.3501 8.93702 16.8544 8.43954 16.2429 8.43954C15.6315 8.43954 15.1358 8.93702 15.1358 9.5507C15.1358 10.1644 15.6315 10.6619 16.2429 10.6619Z" fill="#684933"/>
<path id="Shape_10" d="M16.2425 8.30065C16.9293 8.30065 17.4887 8.86149 17.489 9.55016C17.489 10.2391 16.9289 10.8011 16.2425 10.8011C15.5557 10.8009 14.9973 10.2389 14.9973 9.55016C14.9976 8.86163 15.5559 8.30088 16.2425 8.30065ZM16.2425 8.57897C15.7086 8.5792 15.2745 9.01442 15.2742 9.55016C15.2742 10.0862 15.7085 10.5226 16.2425 10.5228C16.7767 10.5228 17.2122 10.0863 17.2122 9.55016C17.2119 9.01428 16.7759 8.57897 16.2425 8.57897Z" fill="#472B29"/>
</g>
</g>
</g>
</svg>
