<svg width="26" height="24" viewBox="0 0 26 24" fill="none" xmlns="http://www.w3.org/2000/svg">
<g id="ContactCard">
<g id="icons8-contact-details">
<path id="Shape" d="M22.4445 3H2.88891C1.66158 3 0.666687 3.97092 0.666687 5.16867V18.8313C0.666687 20.0291 1.66158 21 2.88891 21H6.00002V20.283C5.5978 19.9319 5.3418 19.4255 5.33358 18.8593C5.31824 17.8101 6.19802 16.911 7.27291 16.8802C8.40513 16.8479 9.33335 17.7338 9.33335 18.8313C9.33335 19.4088 9.07535 19.9263 8.66669 20.283V21H16.6667V20.283C16.2645 19.9319 16.0085 19.4255 16.0002 18.8593C15.9849 17.8101 16.8647 16.911 17.9396 16.8802C19.0718 16.8479 20 17.7338 20 18.8313C20 19.4088 19.742 19.9263 19.3334 20.283V21H22.4445C23.6718 21 24.6667 20.0291 24.6667 18.8313V5.16867C24.6667 3.97092 23.6718 3 22.4445 3Z" fill="#E8EDF3" stroke="#444B54" stroke-width="0.888889" stroke-linejoin="round"/>
<path id="Shape_2" d="M24 5.36625V5.16868C24 4.33157 23.302 3.65061 22.4445 3.65061H2.88893C2.03137 3.65061 1.33337 4.33157 1.33337 5.16868V18.8313C1.33337 18.9641 1.35271 19.092 1.3856 19.2148C2.67093 12.2134 9.34693 5.36625 16.5556 5.36625H24Z" fill="#F6F6FA"/>
<path id="Shape_3" d="M14.8889 8.20482H21.1112" stroke="#B5C7E1" stroke-width="0.888889" stroke-linecap="round"/>
<path id="Shape_4" d="M14.8889 10.8072H21.1112" stroke="#B5C7E1" stroke-width="0.888889" stroke-linecap="round"/>
<path id="Shape_5" d="M14.8889 13.4096H18.4445" stroke="#B5C7E1" stroke-width="0.888889" stroke-linecap="round"/>
<g id="Group">
<path id="Shape_6" d="M10.6667 8.4039C10.6667 10.5821 9.57225 11.6747 8.22225 11.6747C6.87225 11.6747 5.7778 10.5821 5.7778 8.4039C5.7778 7.09619 6.87225 6.03614 8.22225 6.03614C9.57225 6.03614 10.6667 7.09619 10.6667 8.4039Z" fill="#EFD5BE"/>
<path id="Shape_7" d="M8.22223 11.6747C5.11112 11.6747 4.22223 14.2771 4.22223 14.2771V14.9277H12.2222V14.2771C12.2222 14.2771 11.1111 11.6747 8.22223 11.6747Z" fill="#B5C7E1"/>
<path id="Shape_8" d="M4.22223 14.2771C4.22223 14.2771 5.11112 11.6747 8.22223 11.6747C11.1111 11.6747 12.2222 14.2771 12.2222 14.2771" stroke="#444B54" stroke-width="0.888889" stroke-linecap="round" stroke-linejoin="round"/>
<path id="Shape_9" fill-rule="evenodd" clip-rule="evenodd" d="M10.6667 8.4039C10.6667 10.5821 9.57225 11.6747 8.22225 11.6747C6.87225 11.6747 5.7778 10.5821 5.7778 8.4039C5.7778 7.09619 6.87225 6.03614 8.22225 6.03614C9.57225 6.03614 10.6667 7.09619 10.6667 8.4039Z" stroke="#444B54" stroke-width="0.888889" stroke-linecap="round" stroke-linejoin="round"/>
</g>
<path id="Oval" d="M21.1111 14.0602C21.4793 14.0602 21.7778 13.769 21.7778 13.4096C21.7778 13.0503 21.4793 12.759 21.1111 12.759C20.7429 12.759 20.4445 13.0503 20.4445 13.4096C20.4445 13.769 20.7429 14.0602 21.1111 14.0602Z" fill="#B5C7E1"/>
</g>
</g>
</svg>
