<svg width="16" height="16" viewBox="0 0 16 16" fill="none" xmlns="http://www.w3.org/2000/svg">
<path d="M9.86251 10.8875H6.13751C5.82501 10.8875 5.57501 10.6625 5.53751 10.35L4.38751 2.6875V1.7375C4.38751 1.6 4.50001 1.5 4.62501 1.5H11.375C11.5125 1.5 11.6125 1.6125 11.6125 1.7375V2.6875L10.4625 10.35C10.4375 10.6625 10.175 10.8875 9.86251 10.8875Z" fill="white"/>
<path d="M11.375 1.5H4.62501C4.56089 1.50025 4.50076 1.52612 4.45701 1.5695C4.41364 1.61325 4.38776 1.67338 4.38751 1.73675V2.6875H9.07501C9.82501 2.6875 10.4001 3.3375 10.3125 4.0875L9.58751 10.35C9.55226 10.6099 9.70464 10.8449 9.94101 10.8826C10.2179 10.8485 10.4396 10.6359 10.4625 10.35L11.6125 2.6875V1.7375C11.6125 1.6125 11.5125 1.5 11.375 1.5Z" fill="#E6E7E7"/>
<path d="M9.86252 11.2625H6.13752C5.63752 11.2625 5.22502 10.9 5.16252 10.4L4.02502 2.75001V1.75001C4.02502 1.41251 4.30002 1.13751 4.63752 1.13751H11.375C11.7125 1.13751 11.9875 1.41251 11.9875 1.75001V2.75001L10.85 10.4125C10.775 10.9 10.3625 11.2625 9.86252 11.2625ZM4.76252 2.66251L5.90002 10.3V10.3125C5.91252 10.425 6.01252 10.5125 6.12502 10.5125H9.86252C9.97502 10.5125 10.075 10.425 10.0875 10.3125V10.3L11.225 2.66251V1.87501H4.76252V2.66251Z" fill="#454B54"/>
<path d="M9.21252 14.5H6.78752C6.12502 14.5 5.58752 13.9625 5.58752 13.3V10.8875H10.4V13.3C10.4125 13.9625 9.87502 14.5 9.21252 14.5Z" fill="#7BCAC5"/>
<path d="M10.4 10.8875H9.5375V11.925C9.5375 12.4875 9.15 12.9625 8.625 13.0875C8.6 12.7624 8.3375 12.5124 8 12.5124C7.6625 12.5124 7.3875 12.7874 7.375 13.1249H5.6875C5.675 14.1624 6.3 14.4999 6.8 14.4999H9.2125C9.87863 14.4963 10.4124 13.9601 10.4 13.3V10.8875Z" fill="#008480"/>
<path d="M9.21252 14.875H6.78752C5.92502 14.875 5.21252 14.175 5.21252 13.3V10.8875C5.21252 10.675 5.37502 10.5125 5.58752 10.5125H10.4C10.6125 10.5125 10.775 10.675 10.775 10.8875V13.3C10.7875 14.175 10.075 14.875 9.21252 14.875ZM5.96252 11.2625V13.3C5.96252 13.75 6.33752 14.125 6.78752 14.125H9.20002C9.65002 14.125 10.025 13.75 10.025 13.3V11.2625H5.96252Z" fill="#454B54"/>
<path d="M9.25 6.02502H6.75C6.4 6.02502 6.125 5.75002 6.125 5.40002V4.77502C6.125 4.42502 6.4 4.15002 6.75 4.15002H9.25C9.6 4.15002 9.875 4.42502 9.875 4.77502V5.40002C9.875 5.73752 9.6 6.02502 9.25 6.02502Z" fill="#7BCAC5"/>
</svg>
