<svg width="17" height="16" viewBox="0 0 17 16" fill="none" xmlns="http://www.w3.org/2000/svg">
<path d="M9.4667 13.3602H4.9867C3.31559 13.3602 1.96448 11.971 1.96448 10.2527V3.30646H12.5067V10.2527C12.4889 11.971 11.1378 13.3602 9.4667 13.3602Z" fill="white"/>
<rect x="1.96448" y="4.93332" width="10.5244" height="1.46237" fill="#79C8A6"/>
<rect x="1.96448" y="7.2731" width="10.5244" height="1.46237" fill="#79C8A6"/>
<g opacity="0.2">
<path d="M10.2311 3.30646V10.2344C10.2311 11.971 8.88002 13.3602 7.22668 13.3602H9.48446C11.1378 13.3602 12.4889 11.9527 12.4889 10.2344V3.30646H10.2311Z" fill="#0C0F13"/>
</g>
<path d="M12.4888 2.75806C12.791 2.75806 13.022 2.99613 13.022 3.30688V10.2522C13.022 12.2629 11.4219 13.9084 9.46631 13.9084H4.98682C3.03126 13.9084 1.43115 12.2629 1.43115 10.2522V3.30688C1.43115 2.99618 1.6622 2.75812 1.96436 2.75806H12.4888ZM2.49756 10.2522C2.49756 11.6597 3.61793 12.8118 4.98682 12.8118H9.46631C10.8352 12.8118 11.9556 11.6597 11.9556 10.2522V3.85474H2.49756V10.2522Z" fill="#454B54"/>
<path d="M13.2534 3.85483H1.20002C0.897798 3.85483 0.666687 3.6172 0.666687 3.30644C0.666687 2.99569 0.897798 2.75806 1.20002 2.75806H13.2356C13.5378 2.75806 13.7689 2.99569 13.7689 3.30644C13.7689 3.6172 13.5378 3.85483 13.2534 3.85483Z" fill="#454B54"/>
<path d="M12.4889 10.8011C12.2934 10.8011 12.0978 10.6914 12.0089 10.5086C11.8845 10.2344 11.9734 9.90537 12.24 9.77741L14.8889 8.40644C15.2622 8.20537 15.5111 7.8215 15.5111 7.38279C15.5111 6.743 15.0134 6.23117 14.3911 6.23117H12.4889C12.1867 6.23117 11.9556 5.99354 11.9556 5.68279C11.9556 5.37203 12.1867 5.1344 12.4889 5.1344H14.3911C15.6 5.1344 16.5778 6.13978 16.5778 7.38279C16.5778 8.24193 16.1156 9.00967 15.3867 9.39354L12.7378 10.7645C12.6489 10.7828 12.5778 10.8011 12.4889 10.8011Z" fill="#454B54"/>
</svg>
