<svg width="16" height="16" viewBox="0 0 16 16" fill="none" xmlns="http://www.w3.org/2000/svg">
<path d="M1.43671 12.1839C1.43671 8.65977 4.37548 5.81149 7.99997 5.81149C11.6245 5.81149 14.5632 8.65977 14.5632 12.1839" fill="#CFCECE"/>
<path opacity="0.1" d="M8 5.81149C11.6245 5.81149 14.5633 8.65977 14.5633 12.1839H11.9347C11.9347 9.09425 10.9878 6.53563 8 5.94023C8.42449 5.85977 7.54286 5.81149 8 5.81149Z" fill="black"/>
<path d="M14.5633 12.6667C14.2857 12.6667 14.0735 12.4575 14.0735 12.1839C14.0735 8.93333 11.347 6.29425 8.00002 6.29425C4.65308 6.29425 1.92655 8.93333 1.92655 12.1839C1.92655 12.4575 1.71431 12.6667 1.43676 12.6667C1.15921 12.6667 0.94696 12.4575 0.94696 12.1839C0.94696 8.4023 4.11431 5.32874 8.00002 5.32874C11.8857 5.32874 15.0531 8.4023 15.0531 12.1839C15.0531 12.4575 14.8245 12.6667 14.5633 12.6667Z" fill="#454B54"/>
<path d="M3.23262 11.2506C3.00405 11.1862 2.87344 10.9448 2.93875 10.7356C3.37956 9.30343 4.48977 8.11263 5.28977 7.72642C5.50201 7.62987 5.76324 7.71033 5.8612 7.91952C5.95916 8.12872 5.87752 8.3701 5.66528 8.48274C5.02854 8.78849 4.09793 9.83447 3.73875 10.9931C3.70609 11.1862 3.4612 11.3149 3.23262 11.2506Z" fill="white"/>
<path d="M15.4776 12.6667H0.52245C0.244899 12.6667 0.0326538 12.4575 0.0326538 12.1839C0.0326538 11.9103 0.244899 11.7011 0.52245 11.7011H15.4776C15.7551 11.7011 15.9673 11.9103 15.9673 12.1839C15.9673 12.4575 15.7551 12.6667 15.4776 12.6667Z" fill="#454B54"/>
<path d="M8.97962 6.29424C8.70207 6.29424 8.48982 6.08504 8.48982 5.81148V4.86205C8.48982 4.60458 8.26125 4.39539 8.00003 4.39539C7.72248 4.39539 7.51023 4.60458 7.51023 4.86205V5.81148C7.51023 6.08504 7.29799 6.29424 7.02044 6.29424C6.74288 6.29424 6.53064 6.08504 6.53064 5.81148V4.86205C6.53064 4.07355 7.1837 3.42987 8.00003 3.42987C8.81635 3.42987 9.46942 4.07355 9.46942 4.86205V5.81148C9.46942 6.08504 9.25717 6.29424 8.97962 6.29424Z" fill="#454B54"/>
</svg>
