<svg width="16" height="16" viewBox="0 0 16 16" fill="none" xmlns="http://www.w3.org/2000/svg">
<g id="Doctor">
<path id="Path" fill-rule="evenodd" clip-rule="evenodd" d="M10.15 12.9274C9.94378 13.6779 9.09128 14.1027 8.47253 14.1876V14.2018C8.37628 14.2018 8.21128 14.1876 8.19753 14.1876C7.60628 14.0743 7.05628 13.6637 6.86378 12.9416L3.81128 14.2159C3.81128 14.3292 3.82503 14.4283 3.85253 14.5274C5.15878 15.4478 6.76753 16 8.50003 16C10.2738 16 11.91 15.4195 13.2575 14.4425C13.2438 14.3575 13.23 14.2726 13.2025 14.2018L10.15 12.9274Z" fill="white"/>
<g id="Group">
<path id="Path_2" fill-rule="evenodd" clip-rule="evenodd" d="M10.025 13.5077C9.99498 13.5077 9.99498 13.5077 9.97998 13.5077C9.96498 13.5077 9.94998 13.5077 9.93498 13.5077H9.91998C9.91998 13.5077 9.90498 13.5077 9.90498 13.5231H9.88998L7.99998 14.3231L6.12498 13.5385C6.07998 13.5231 6.03498 13.5077 5.97498 13.5077V13.4154C6.61998 13.0154 7.33998 12.2923 7.99998 11C8.07498 11.1385 8.13498 11.2769 8.20998 11.4C8.80998 12.4462 9.43998 13.0615 10.025 13.4154V13.5077Z" fill="#E4EBF1"/>
<g id="Group_2">
<path id="Path_3" fill-rule="evenodd" clip-rule="evenodd" d="M9.79997 13.1538V14.1538C9.27497 16 6.72497 16 6.21497 14.1538V13.1538" fill="#F7EBDE"/>
<path id="Path_4" fill-rule="evenodd" clip-rule="evenodd" d="M12.845 6.67691C12.845 2.61538 10.88 0.538452 7.99999 0.538452C5.11999 0.538452 3.15499 2.61538 3.15499 6.67691C2.22499 6.75384 2.43499 8.92307 3.48499 8.79999C3.78499 9.67691 4.11499 10.4 4.45999 11.0154C5.66 13.0769 7.00999 13.6769 7.99999 13.6769C9.27499 13.6769 11.165 12.6615 12.5 8.78461C13.565 8.90768 13.775 6.73845 12.845 6.67691Z" fill="#F7EBDE"/>
<path id="Path_5" fill-rule="evenodd" clip-rule="evenodd" d="M8 14.1384C7.16 14.1384 5.54 13.7538 4.085 11.2308C3.71 10.5692 3.365 9.79999 3.06499 8.93845C2.97499 8.6923 3.11 8.43076 3.335 8.35383C3.57499 8.26153 3.83 8.39999 3.905 8.63076C4.19 9.43076 4.50499 10.1538 4.85 10.7692C6.08 12.9077 7.33999 13.2308 7.98499 13.2308C8.73499 13.2308 10.625 12.7846 12.065 8.64614C12.155 8.39999 12.41 8.27691 12.635 8.36922C12.875 8.46153 12.995 8.72307 12.905 8.95383C11.3 13.6308 8.945 14.1384 8 14.1384Z" fill="#454B54"/>
<path id="Path_6" fill-rule="evenodd" clip-rule="evenodd" d="M12.845 7.13844C12.59 7.13844 12.395 6.93844 12.395 6.6769C12.395 3.0769 10.79 0.999981 7.99997 0.999981C6.01997 0.999981 4.63997 2.03075 3.99497 3.96921C3.75497 4.69229 3.63497 5.52306 3.60497 6.46152C3.60497 6.70767 3.39497 6.90767 3.15497 6.90767C3.15497 6.90767 3.15497 6.90767 3.13997 6.90767C2.88497 6.90767 2.68997 6.69229 2.70497 6.43075C2.71997 5.39998 2.86997 4.4769 3.13997 3.66152C3.90497 1.35383 5.62997 0.0769043 7.99997 0.0769043C11.315 0.0769043 13.295 2.53844 13.295 6.6769C13.295 6.92306 13.085 7.13844 12.845 7.13844Z" fill="#454B54"/>
<path id="Path_7" fill-rule="evenodd" clip-rule="evenodd" d="M2.90002 16C2.72002 16 2.55502 15.8923 2.48002 15.7077C2.39002 15.4769 2.49502 15.2 2.72002 15.1077L6.03502 13.7231C6.26002 13.6308 6.53002 13.7384 6.62002 13.9692C6.71002 14.2 6.60502 14.4769 6.38002 14.5692L3.06502 15.9538C3.00502 16 2.94502 16 2.90002 16Z" fill="#454B54"/>
<path id="Path_8" fill-rule="evenodd" clip-rule="evenodd" d="M13.115 16C13.055 16 12.995 15.9846 12.95 15.9692L9.635 14.5846C9.41 14.4923 9.29 14.2154 9.395 13.9846C9.485 13.7538 9.755 13.6307 9.98 13.7384L13.295 15.123C13.52 15.2154 13.64 15.4923 13.535 15.723C13.46 15.8923 13.28 16 13.115 16Z" fill="#454B54"/>
<path id="Path_9" fill-rule="evenodd" clip-rule="evenodd" d="M7.99999 16C6.93499 16 6.06499 15.3231 5.77999 14.2769C5.70499 14.0307 5.85499 13.7692 6.09499 13.7077C6.33499 13.6307 6.58999 13.7846 6.64999 14.0307C6.87499 14.8154 7.48999 15.0923 8.01499 15.0923C8.53999 15.0923 9.15499 14.8154 9.37999 14.0307L10.25 14.2923C9.93499 15.3231 9.06499 16 7.99999 16Z" fill="#454B54"/>
<g id="Group_3">
<path id="Path_10" fill-rule="evenodd" clip-rule="evenodd" d="M3.40999 9.26153C3.03499 9.26153 2.68999 9.07691 2.44999 8.72306C2.08999 8.19999 2.01499 7.39999 2.26999 6.84614C2.43499 6.47691 2.74999 6.23076 3.13999 6.21537C3.39499 6.19999 3.60499 6.3846 3.61999 6.64614C3.63499 6.90768 3.45499 7.12306 3.19999 7.13845C3.16999 7.13845 3.13999 7.13845 3.07999 7.24614C2.95999 7.4923 3.01999 7.95383 3.18499 8.19999C3.28999 8.33845 3.37999 8.35383 3.45499 8.33845C3.69499 8.30768 3.91999 8.4923 3.94999 8.73845C3.97999 8.9846 3.79999 9.21537 3.55999 9.24614C3.49999 9.24614 3.45499 9.26153 3.40999 9.26153Z" fill="#454B54"/>
<path id="Path_11" fill-rule="evenodd" clip-rule="evenodd" d="M12.59 9.26152C12.545 9.26152 12.5 9.26152 12.455 9.26152C12.215 9.23075 12.035 8.99998 12.065 8.75383C12.095 8.50768 12.32 8.32306 12.56 8.35383C12.635 8.36921 12.725 8.35383 12.83 8.21537C12.995 7.96921 13.055 7.52306 12.935 7.26152C12.89 7.15383 12.845 7.15383 12.815 7.15383C12.56 7.13845 12.38 6.90768 12.395 6.66152C12.41 6.39998 12.635 6.21537 12.875 6.23075C13.25 6.26152 13.565 6.49229 13.745 6.86152C14 7.41537 13.925 8.23075 13.565 8.73845C13.31 9.06152 12.965 9.26152 12.59 9.26152Z" fill="#454B54"/>
</g>
</g>
<path id="Path_12" fill-rule="evenodd" clip-rule="evenodd" d="M12.845 6.67692H3.15497L3.34997 2.70769C3.40997 1.47692 4.39997 0.50769 5.59997 0.50769H10.4C11.6 0.50769 12.59 1.47692 12.65 2.70769L12.845 6.67692Z" fill="white"/>
<path id="Shape" fill-rule="evenodd" clip-rule="evenodd" d="M3.15499 7.13845H12.845C13.1 7.13845 13.295 6.92306 13.295 6.67691V6.59999L13.1 2.69229C13.025 1.21537 11.84 0.0615234 10.4 0.0615234H5.59999C4.15999 0.0615234 2.97499 1.21537 2.89999 2.69229L2.70499 6.66152C2.68999 6.7846 2.73499 6.90768 2.82499 6.99998C2.91499 7.09229 3.03499 7.13845 3.15499 7.13845ZM12.38 6.21537H3.63499L3.79999 2.73845C3.84499 1.75383 4.63999 0.9846 5.59999 0.9846H10.4C11.36 0.9846 12.155 1.75383 12.2 2.73845L12.38 6.21537Z" fill="#454B54"/>
<path id="Path_13" fill-rule="evenodd" clip-rule="evenodd" d="M9.84502 4.83076H6.15502C5.90002 4.83076 5.70502 4.63076 5.70502 4.36922C5.70502 4.10768 5.90002 3.90768 6.15502 3.90768H9.84502C10.1 3.90768 10.295 4.10768 10.295 4.36922C10.295 4.63076 10.085 4.83076 9.84502 4.83076Z" fill="#454B54"/>
<path id="Oval" fill-rule="evenodd" clip-rule="evenodd" d="M8.00001 5.46152C8.57991 5.46152 9.05001 4.97937 9.05001 4.3846C9.05001 3.78983 8.57991 3.30768 8.00001 3.30768C7.42011 3.30768 6.95001 3.78983 6.95001 4.3846C6.95001 4.97937 7.42011 5.46152 8.00001 5.46152Z" fill="white"/>
<path id="Shape_2" fill-rule="evenodd" clip-rule="evenodd" d="M6.5 4.38459C6.5 5.23075 7.175 5.92305 8 5.92305C8.825 5.92305 9.5 5.23075 9.5 4.38459C9.5 3.53844 8.825 2.84613 8 2.84613C7.175 2.84613 6.5 3.53844 6.5 4.38459ZM7.4 4.38459C7.4 4.04613 7.67 3.76921 8 3.76921C8.33 3.76921 8.6 4.04613 8.6 4.38459C8.6 4.72305 8.33 4.99998 8 4.99998C7.67 4.99998 7.4 4.72305 7.4 4.38459Z" fill="#454B54"/>
<g id="Group_4">
<path id="Path_14" fill-rule="evenodd" clip-rule="evenodd" d="M9.79997 13.1538V14.1538C9.27497 16 6.72497 16 6.21497 14.1538V13.1538" fill="#CE938E"/>
<path id="Path_15" fill-rule="evenodd" clip-rule="evenodd" d="M12.845 6.67691C12.845 2.61538 10.88 0.538452 7.99999 0.538452C5.11999 0.538452 3.15499 2.61538 3.15499 6.67691C2.22499 6.75384 2.43499 8.92307 3.48499 8.79999C3.78499 9.67691 4.11499 10.4 4.45999 11.0154C5.66 13.0769 7.00999 13.6769 7.99999 13.6769C9.27499 13.6769 11.165 12.6615 12.5 8.78461C13.565 8.90768 13.775 6.73845 12.845 6.67691Z" fill="#CE938E"/>
<path id="Path_16" fill-rule="evenodd" clip-rule="evenodd" d="M6.95001 9.52306C6.23001 10.2307 5.58501 11.1692 5.01501 11.8154C6.05001 13.2307 7.16001 13.6769 8.00001 13.6769C8.84001 13.6769 9.95001 13.2307 10.985 11.8154C10.415 11.1692 9.77001 10.2307 9.05001 9.52306C8.46501 8.93844 7.53501 8.93844 6.95001 9.52306Z" fill="white"/>
<path id="Path_17" fill-rule="evenodd" clip-rule="evenodd" d="M8 14.1384C7.16 14.1384 5.54 13.7538 4.085 11.2308C3.71 10.5692 3.365 9.79999 3.06499 8.93845C2.97499 8.6923 3.11 8.43076 3.335 8.35383C3.57499 8.26153 3.83 8.39999 3.905 8.63076C4.19 9.43076 4.50499 10.1538 4.85 10.7692C6.08 12.9077 7.33999 13.2308 7.98499 13.2308C8.73499 13.2308 10.625 12.7846 12.065 8.64614C12.155 8.39999 12.41 8.27691 12.635 8.36922C12.875 8.46153 12.995 8.72307 12.905 8.95383C11.3 13.6308 8.945 14.1384 8 14.1384Z" fill="#454B54"/>
<path id="Path_18" fill-rule="evenodd" clip-rule="evenodd" d="M12.845 7.13844C12.59 7.13844 12.395 6.93844 12.395 6.6769C12.395 3.0769 10.79 0.999981 7.99997 0.999981C6.01997 0.999981 4.63997 2.03075 3.99497 3.96921C3.75497 4.69229 3.63497 5.52306 3.60497 6.46152C3.60497 6.70767 3.39497 6.90767 3.15497 6.90767C3.15497 6.90767 3.15497 6.90767 3.13997 6.90767C2.88497 6.90767 2.68997 6.69229 2.70497 6.43075C2.71997 5.39998 2.86997 4.4769 3.13997 3.66152C3.90497 1.35383 5.62997 0.0769043 7.99997 0.0769043C11.315 0.0769043 13.295 2.53844 13.295 6.6769C13.295 6.92306 13.085 7.13844 12.845 7.13844Z" fill="#454B54"/>
<path id="Path_19" fill-rule="evenodd" clip-rule="evenodd" d="M2.90002 16C2.72002 16 2.55502 15.8923 2.48002 15.7077C2.39002 15.4769 2.49502 15.2 2.72002 15.1077L6.03502 13.7231C6.26002 13.6308 6.53002 13.7384 6.62002 13.9692C6.71002 14.2 6.60502 14.4769 6.38002 14.5692L3.06502 15.9538C3.00502 16 2.94502 16 2.90002 16Z" fill="#454B54"/>
<path id="Path_20" fill-rule="evenodd" clip-rule="evenodd" d="M13.115 16C13.055 16 12.995 15.9846 12.95 15.9692L9.635 14.5846C9.41 14.4923 9.29 14.2154 9.395 13.9846C9.485 13.7538 9.755 13.6307 9.98 13.7384L13.295 15.123C13.52 15.2154 13.64 15.4923 13.535 15.723C13.46 15.8923 13.28 16 13.115 16Z" fill="#454B54"/>
<path id="Path_21" fill-rule="evenodd" clip-rule="evenodd" d="M7.99999 16C6.93499 16 6.06499 15.3231 5.77999 14.2769C5.70499 14.0307 5.85499 13.7692 6.09499 13.7077C6.33499 13.6307 6.58999 13.7846 6.64999 14.0307C6.87499 14.8154 7.48999 15.0923 8.01499 15.0923C8.53999 15.0923 9.15499 14.8154 9.37999 14.0307L10.25 14.2923C9.93499 15.3231 9.06499 16 7.99999 16Z" fill="#454B54"/>
<g id="Group_5">
<path id="Path_22" fill-rule="evenodd" clip-rule="evenodd" d="M3.40999 9.26153C3.03499 9.26153 2.68999 9.07691 2.44999 8.72306C2.08999 8.19999 2.01499 7.39999 2.26999 6.84614C2.43499 6.47691 2.74999 6.23076 3.13999 6.21537C3.39499 6.19999 3.60499 6.3846 3.61999 6.64614C3.63499 6.90768 3.45499 7.12306 3.19999 7.13845C3.16999 7.13845 3.13999 7.13845 3.07999 7.24614C2.95999 7.4923 3.01999 7.95383 3.18499 8.19999C3.28999 8.33845 3.37999 8.35383 3.45499 8.33845C3.69499 8.30768 3.91999 8.4923 3.94999 8.73845C3.97999 8.9846 3.79999 9.21537 3.55999 9.24614C3.49999 9.24614 3.45499 9.26153 3.40999 9.26153Z" fill="#454B54"/>
<path id="Path_23" fill-rule="evenodd" clip-rule="evenodd" d="M12.59 9.26152C12.545 9.26152 12.5 9.26152 12.455 9.26152C12.215 9.23075 12.035 8.99998 12.065 8.75383C12.095 8.50768 12.32 8.32306 12.56 8.35383C12.635 8.36921 12.725 8.35383 12.83 8.21537C12.995 7.96921 13.055 7.52306 12.935 7.26152C12.89 7.15383 12.845 7.15383 12.815 7.15383C12.56 7.13845 12.38 6.90768 12.395 6.66152C12.41 6.39998 12.635 6.21537 12.875 6.23075C13.25 6.26152 13.565 6.49229 13.745 6.86152C14 7.41537 13.925 8.23075 13.565 8.73845C13.31 9.06152 12.965 9.26152 12.59 9.26152Z" fill="#454B54"/>
</g>
</g>
<path id="Path_24" fill-rule="evenodd" clip-rule="evenodd" d="M12.845 6.67692H3.15497L3.34997 2.70769C3.40997 1.47692 4.39997 0.50769 5.59997 0.50769H10.4C11.6 0.50769 12.59 1.47692 12.65 2.70769L12.845 6.67692Z" fill="white"/>
<rect id="Rectangle" x="7.54999" y="2.50769" width="0.9" height="2.30769" fill="#ED97A0"/>
<rect id="Rectangle_2" x="6.875" y="3.19998" width="2.25" height="0.923077" fill="#ED97A0"/>
<path id="Path_25" fill-rule="evenodd" clip-rule="evenodd" d="M12.845 7.13845C12.605 7.13845 12.41 6.95383 12.395 6.69229L12.2 2.73845C12.155 1.75383 11.36 0.9846 10.4 0.9846H5.59999C4.63999 0.9846 3.84499 1.75383 3.79999 2.73845L3.60499 6.69229C3.58999 6.95383 3.37999 7.13845 3.13999 7.12306C2.88499 7.10768 2.70499 6.89229 2.71999 6.64614L2.89999 2.69229C2.97499 1.21537 4.15999 0.0615234 5.59999 0.0615234H10.4C11.84 0.0615234 13.025 1.21537 13.1 2.69229L13.295 6.64614C13.31 6.90768 13.115 7.12306 12.875 7.12306C12.86 7.13845 12.845 7.13845 12.845 7.13845Z" fill="#454B54"/>
</g>
</g>
</svg>
