<svg width="16" height="16" viewBox="0 0 16 16" fill="none" xmlns="http://www.w3.org/2000/svg">
<g id="Dropper">
<g id="icons8-dose">
<path id="Shape" d="M8 0.459259C7.49275 0.459259 7.07246 0.859259 7.02898 1.36296L6.71014 5.67407H9.27536L8.95652 1.36296C8.92754 0.859259 8.50725 0.459259 8 0.459259Z" fill="#F1C0C3"/>
<path id="Shape_2" fill-rule="evenodd" clip-rule="evenodd" d="M7.99976 0.014801C8.72435 0.014801 9.34781 0.592487 9.39136 1.33316L9.70972 5.64468C9.72413 5.76315 9.68041 5.89667 9.59351 5.9855C9.50665 6.07412 9.40538 6.11831 9.27515 6.11832H6.72437C6.60844 6.11831 6.49296 6.07357 6.40601 5.96988C6.31917 5.8663 6.27544 5.76315 6.2898 5.63004L6.60816 1.33316C6.66619 0.592485 7.27517 0.0148014 7.99976 0.014801ZM7.99976 0.903473C7.72441 0.903473 7.49263 1.12591 7.46363 1.40738L7.18824 5.22964H8.81129L8.53589 1.40738C8.52139 1.12591 8.27512 0.903473 7.99976 0.903473Z" fill="#454B54"/>
<path id="Shape_3" d="M9.91309 5.22961C10.5073 5.22964 10.9854 5.7189 10.9854 6.32629C10.9852 6.93346 10.5217 7.42189 9.92773 7.422H6.07227C5.47828 7.42189 5.0002 6.93346 5 6.32629C5 5.71895 5.47815 5.22972 6.07227 5.22961H9.91309ZM6.07227 6.11829C5.95642 6.11839 5.86914 6.20784 5.86914 6.32629C5.86933 6.44455 5.95655 6.53322 6.07227 6.53333H9.91309C10.0289 6.5333 10.116 6.44461 10.1162 6.32629C10.1162 6.20779 10.029 6.11831 9.91309 6.11829H6.07227Z" fill="#454B54"/>
<path id="Shape_4" d="M9.42029 15.5407H6.57971C5.78261 15.5407 5.13043 14.8741 5.13043 14.0593V9.61481C5.13043 8.8 5.78261 8.13333 6.57971 8.13333H9.43478C10.2319 8.13333 10.8841 8.8 10.8841 9.61481V14.0593C10.8696 14.8741 10.2319 15.5407 9.42029 15.5407Z" fill="white"/>
<path id="Shape_5" d="M6.72464 13.8963H5.13043V9.74814H6.72464C7.08695 9.74814 7.36232 10.0444 7.36232 10.4V13.2296C7.36232 13.6 7.07246 13.8963 6.72464 13.8963Z" fill="#C7D7E2"/>
<path id="Shape_6" d="M9.43494 7.68887C10.4783 7.68894 11.3186 8.5481 11.3187 9.61465V14.059C11.3042 15.1257 10.4638 15.9848 9.42029 15.9848H6.57947C5.53611 15.9846 4.69568 15.1256 4.69568 14.059V9.61465C4.69575 8.54815 5.53616 7.68902 6.57947 7.68887H9.43494ZM6.57947 8.57755C6.01442 8.57769 5.56489 9.03704 5.56482 9.61465V14.059C5.56482 14.6367 6.01438 15.096 6.57947 15.0961H9.43494C10.0001 15.096 10.4496 14.6367 10.4496 14.059V9.61465C10.4495 9.03699 10 8.57761 9.43494 8.57755H6.57947Z" fill="#454B54"/>
</g>
</g>
</svg>
