<svg width="16" height="16" viewBox="0 0 16 16" fill="none" xmlns="http://www.w3.org/2000/svg">
<path d="M1.18812 6.82668C1.04554 6.27089 1.01386 5.68422 1.12475 5.06668C1.47327 3.01335 3.24752 1.42317 5.40198 1.28422C6.28911 1.22247 7.12871 1.40773 7.85743 1.77826C8.14257 1.91721 8.47525 1.94808 8.77624 1.87089C9.37822 1.70107 10.0277 1.62387 10.6931 1.68563C13.3545 1.90177 15.4614 4.04773 15.5564 6.64142C15.6515 9.2351 13.7822 11.4119 11.295 11.906C10.9624 11.9677 10.6614 12.1684 10.4713 12.4618C9.48911 13.9439 7.76238 14.9165 5.79802 14.8548C3.05742 14.7158 0.823762 12.5853 0.681187 9.94528C0.633663 9.09615 0.792078 8.27791 1.12475 7.56773C1.2198 7.33615 1.25148 7.0737 1.18812 6.82668Z" fill="white"/>
<path d="M5.71884 10.5628C7.25868 10.5628 8.50696 9.34628 8.50696 7.84561C8.50696 6.34495 7.25868 5.12842 5.71884 5.12842C4.17901 5.12842 2.93073 6.34495 2.93073 7.84561C2.93073 9.34628 4.17901 10.5628 5.71884 10.5628Z" fill="#FFD039"/>
<path opacity="0.1" d="M7.27131 7.84561C7.27131 6.54877 6.33666 5.48351 5.10101 5.20561C5.30695 5.1593 5.51289 5.14386 5.71883 5.14386C7.25547 5.14386 8.50695 6.36351 8.50695 7.86105C8.50695 9.3586 7.25547 10.5782 5.71883 10.5782C5.51289 10.5782 5.29111 10.5474 5.10101 10.5165C6.33666 10.2077 7.27131 9.14246 7.27131 7.84561Z" fill="black"/>
<path d="M3.77032 7.78386C3.77032 8 3.94458 8.18527 4.18221 8.18527C4.40399 8.18527 4.59409 8.01544 4.59409 7.78386C4.59409 7.16632 5.10102 6.67228 5.73468 6.67228C5.95646 6.67228 6.14656 6.50246 6.14656 6.27088C6.14656 6.05474 5.9723 5.86948 5.73468 5.86948C4.64161 5.86948 3.77032 6.7186 3.77032 7.78386Z" fill="white"/>
<path fill-rule="evenodd" clip-rule="evenodd" d="M5.29103 0.805842C6.22567 0.744089 7.17626 0.929055 8.00002 1.34588C8.17423 1.43849 8.38027 1.45446 8.57033 1.39276C9.25143 1.20752 9.9642 1.12987 10.6611 1.19158C13.5759 1.43859 15.8569 3.75419 15.9522 6.57928C16.0631 9.35823 14.0989 11.7674 11.2949 12.3078C11.0892 12.3541 10.899 12.477 10.7881 12.6467C9.72676 14.2985 7.90513 15.2872 5.90919 15.2873H5.70314C2.74091 15.1792 0.285599 12.8479 0.126969 9.96111C0.0794468 9.0503 0.238034 8.18556 0.61818 7.36737C0.681546 7.22842 0.696738 7.0737 0.665055 6.93475C0.506654 6.30179 0.475066 5.63783 0.585953 4.98944C0.966148 2.72 2.94652 0.960271 5.29103 0.805842ZM5.65529 1.71697C5.5603 1.71697 5.46512 1.71619 5.37013 1.73162C3.45351 1.8552 1.83827 3.29115 1.53712 5.12811C1.44208 5.65302 1.47289 6.19383 1.59962 6.7033C1.67882 7.04293 1.64746 7.41329 1.5049 7.73748C1.18812 8.41667 1.06116 9.15768 1.09279 9.89861C1.23536 12.307 3.27971 14.2531 5.75099 14.3303C7.47754 14.3918 9.07717 13.5727 10.0117 12.1525C10.2652 11.7667 10.6774 11.4893 11.1367 11.3967C13.4813 10.9489 15.1126 8.9263 15.0176 6.61053C14.9225 4.24843 13.0214 2.30342 10.5977 2.10272C10.0116 2.05645 9.40983 2.10285 8.85548 2.27264C8.42778 2.39612 7.96808 2.3493 7.58791 2.14862C6.97016 1.87079 6.32054 1.71697 5.65529 1.71697Z" fill="#454B54"/>
</svg>
