<svg width="16" height="16" viewBox="0 0 16 16" fill="none" xmlns="http://www.w3.org/2000/svg">
<path fill-rule="evenodd" clip-rule="evenodd" d="M5.77612 9.57093L11.4179 0.494568L9.92538 7.7673H12.9105L7.10448 15.5055L8.61194 9.57093" fill="#FFDD77"/>
<path fill-rule="evenodd" clip-rule="evenodd" d="M3.53735 9.57093L9.17914 0.494568L7.68661 7.7673H10.6717L4.86571 15.5055L6.37317 9.57093" fill="white"/>
<path fill-rule="evenodd" clip-rule="evenodd" d="M4.86567 15.9418C4.80597 15.9418 4.73135 15.9273 4.67164 15.8982C4.47761 15.8109 4.37314 15.5927 4.43284 15.4037L5.92538 9.58547C5.98508 9.35274 6.22388 9.20729 6.46269 9.26547C6.70149 9.32365 6.85075 9.55638 6.79105 9.78911L5.85075 13.44L9.77612 8.18911H7.68657C7.55224 8.18911 7.41791 8.13092 7.34329 8.02911C7.25373 7.92729 7.22388 7.79638 7.25373 7.66547L8.74627 0.392742C8.79105 0.160015 9.02985 1.50837e-05 9.26866 0.0436514C9.50746 0.0872878 9.67164 0.320015 9.62687 0.552742L8.22388 7.33092H10.6567C10.8209 7.33092 10.9851 7.4182 11.0597 7.56365C11.1343 7.70911 11.1194 7.88365 11.0149 8.01456L5.20896 15.7527C5.14926 15.8837 5.01493 15.9418 4.86567 15.9418Z" fill="#3F4A54"/>
<path fill-rule="evenodd" clip-rule="evenodd" d="M3.53733 10.0073C3.46271 10.0073 3.37315 9.99274 3.29853 9.9491C3.08957 9.8182 3.01494 9.55638 3.14927 9.35274L8.79106 0.276377C8.92539 0.0727409 9.19405 1.35824e-05 9.403 0.130923C9.61196 0.261832 9.68659 0.52365 9.55226 0.727286L3.92539 9.7891C3.83584 9.92001 3.68659 10.0073 3.53733 10.0073Z" fill="#3F4A54"/>
</svg>
