<svg width="16" height="16" viewBox="0 0 16 16" fill="none" xmlns="http://www.w3.org/2000/svg">
<path d="M14.9517 13.8759H1.0483C0.703474 13.8759 0.413818 13.5861 0.413818 13.2412V3.13104C0.413818 2.78621 0.703474 2.49656 1.0483 2.49656H14.9517C15.2966 2.49656 15.5862 2.78621 15.5862 3.13104V13.2414C15.5862 13.6 15.2966 13.8759 14.9517 13.8759Z" fill="#FCDEB1"/>
<path d="M15.5862 3.13104L8.40003 9.11724C8.28278 9.21379 8.13796 9.26207 7.99313 9.26207C7.8483 9.26207 7.70347 9.21379 7.58623 9.11724L0.413818 3.13104V4.77242L6.78623 10.0828C7.13106 10.3724 7.55865 10.5241 8.00003 10.5241C8.4414 10.5241 8.86899 10.3723 9.21382 10.0828L15.5862 4.77242V3.13104Z" fill="black" fill-opacity="0.12"/>
<path d="M14.9517 2.49656H1.0483C0.703474 2.49656 0.413818 2.78621 0.413818 3.13104L7.60003 9.11725C7.83451 9.31021 8.17934 9.31021 8.41382 9.11725L15.5862 3.13104C15.5862 2.78621 15.2966 2.49656 14.9517 2.49656Z" fill="white" fill-opacity="0.12"/>
<path d="M14.9517 2H1.04828C0.468966 2 0 2.46897 0 3.04828V13.1586C0 13.4759 0.137931 13.7517 0.344828 13.9448L0.358621 13.9586C0.537931 14.1241 0.786207 14.2207 1.04828 14.2207H14.9517C15.5309 14.2207 16 13.7517 16 13.1723V3.04828C16 2.46897 15.531 2 14.9517 2ZM1.04828 2.82759H14.9517C15.0757 2.82759 15.1724 2.92414 15.1724 3.04828V12.9103L11.7241 10.3448C11.5448 10.2069 11.2828 10.2484 11.1448 10.4277C11.0069 10.607 11.0483 10.8691 11.2277 11.007L14.4139 13.3793H1.64138L4.81379 11.007C4.9931 10.8691 5.03448 10.607 4.89655 10.4277C4.75862 10.2484 4.49655 10.2069 4.31724 10.3448L0.827586 12.9517V3.93103L7.32414 9.33793C7.53103 9.50345 7.76552 9.58621 8 9.58621C8.23448 9.58621 8.46897 9.50345 8.67586 9.35186L14.5379 4.45531C14.7172 4.31738 14.7448 4.05531 14.593 3.876C14.455 3.69669 14.1931 3.6691 14.0137 3.82083L8.13793 8.71724C8.05517 8.78621 7.94483 8.78621 7.86207 8.71724L0.882759 2.89655C0.924138 2.85517 0.97931 2.82759 1.04828 2.82759Z" fill="#464C55"/>
</svg>
