<svg width="16" height="16" viewBox="0 0 16 16" fill="none" xmlns="http://www.w3.org/2000/svg">
<g clip-path="url(#clip0_3862_165328)">
<path fill-rule="evenodd" clip-rule="evenodd" d="M12.2333 13.9133H3.76001C3.50038 13.9143 3.24376 13.8576 3.00871 13.7473C2.77365 13.6371 2.56602 13.476 2.40081 13.2757C2.2356 13.0754 2.11694 12.8409 2.05339 12.5892C1.98984 12.3374 1.983 12.0747 2.03335 11.82L3.05335 6.48666C3.13215 6.08483 3.3481 5.72285 3.66427 5.46262C3.98044 5.20239 4.37719 5.06007 4.78668 5.06H10.7867C11.1782 5.06051 11.5583 5.19207 11.8664 5.43371C12.1745 5.67536 12.3929 6.01318 12.4867 6.39333L13.92 11.7267C13.9831 11.9843 13.9874 12.2529 13.9325 12.5125C13.8776 12.772 13.765 13.0159 13.6029 13.2259C13.4409 13.436 13.2336 13.6068 12.9965 13.7259C12.7595 13.8449 12.4986 13.9089 12.2333 13.9133Z" fill="#FFB0B0"/>
<path fill-rule="evenodd" clip-rule="evenodd" d="M8.00001 13.9133H3.76001C3.50038 13.9143 3.24376 13.8576 3.00871 13.7473C2.77365 13.6371 2.56602 13.476 2.40081 13.2757C2.2356 13.0754 2.11694 12.8409 2.05339 12.5892C1.98984 12.3374 1.983 12.0747 2.03335 11.82L3.05335 6.48666C3.13215 6.08483 3.3481 5.72285 3.66427 5.46262C3.98044 5.20239 4.37719 5.06007 4.78668 5.06H7.87335" fill="#FF8080"/>
<path d="M10.8067 14.4133H3.76003C3.42944 14.4117 3.10319 14.3378 2.80418 14.1968C2.50517 14.0557 2.24063 13.851 2.02911 13.5969C1.81759 13.3428 1.6642 13.0456 1.57972 12.7259C1.49523 12.4063 1.48169 12.0721 1.54003 11.7467L2.56003 6.41334C2.66201 5.898 2.93981 5.43409 3.34596 5.10091C3.75211 4.76772 4.26137 4.58595 4.7867 4.58667H10.7867C11.2843 4.58688 11.768 4.75085 12.1632 5.05326C12.5584 5.35568 12.8431 5.77973 12.9734 6.26001L14.2134 10.8733C14.2478 11.0015 14.23 11.1382 14.1637 11.2532C14.0975 11.3682 13.9882 11.4522 13.86 11.4867C13.7318 11.5211 13.5952 11.5033 13.4802 11.437C13.3652 11.3708 13.2812 11.2615 13.2467 11.1333L12 6.52C11.929 6.25113 11.7706 6.01351 11.5498 5.84454C11.3289 5.67557 11.0581 5.58485 10.78 5.58667H4.78003C4.48813 5.58751 4.20557 5.68967 3.98062 5.8757C3.75567 6.06174 3.6023 6.32011 3.5467 6.60667L2.5267 11.94C2.48947 12.1218 2.49351 12.3096 2.53851 12.4896C2.5835 12.6695 2.66832 12.8371 2.7867 12.98C2.90489 13.1238 3.05347 13.2397 3.22177 13.3192C3.39006 13.3987 3.57389 13.44 3.76003 13.44H10.8067C10.9393 13.44 11.0665 13.4927 11.1603 13.5865C11.254 13.6802 11.3067 13.8074 11.3067 13.94C11.3067 14.0726 11.254 14.1998 11.1603 14.2936C11.0665 14.3873 10.9393 14.44 10.8067 14.44V14.4133Z" fill="#444B54"/>
<path d="M3.09329 4.25334C2.96102 4.25181 2.83444 4.19927 2.73996 4.10668L1.64663 3.02001C1.5975 2.97424 1.5581 2.91904 1.53077 2.8577C1.50344 2.79637 1.48875 2.73016 1.48757 2.66303C1.48638 2.59589 1.49873 2.5292 1.52388 2.46695C1.54903 2.40469 1.58646 2.34813 1.63393 2.30065C1.68141 2.25317 1.73797 2.21574 1.80023 2.1906C1.86249 2.16545 1.92917 2.1531 1.99631 2.15428C2.06344 2.15547 2.12965 2.17016 2.19099 2.19749C2.25232 2.22482 2.30752 2.26422 2.35329 2.31334L3.44663 3.39334C3.51555 3.46414 3.56226 3.55354 3.58103 3.65055C3.59979 3.74755 3.58978 3.84793 3.55224 3.93932C3.51469 4.03071 3.45124 4.10913 3.3697 4.16492C3.28815 4.22072 3.19208 4.25145 3.09329 4.25334Z" fill="#FF8080"/>
<path d="M12.24 4.25334C12.1412 4.25145 12.0451 4.22072 11.9636 4.16492C11.8821 4.10913 11.8186 4.03071 11.7811 3.93932C11.7435 3.84793 11.7335 3.74755 11.7523 3.65055C11.771 3.55354 11.8177 3.46414 11.8867 3.39334L12.98 2.31334C13.0258 2.26422 13.081 2.22482 13.1423 2.19749C13.2036 2.17016 13.2698 2.15547 13.337 2.15428C13.4041 2.1531 13.4708 2.16545 13.5331 2.1906C13.5953 2.21574 13.6519 2.25317 13.6994 2.30065C13.7468 2.34813 13.7843 2.40469 13.8094 2.46695C13.8346 2.5292 13.8469 2.59589 13.8457 2.66303C13.8445 2.73016 13.8298 2.79637 13.8025 2.8577C13.7752 2.91904 13.7358 2.97424 13.6867 3.02001L12.5933 4.10668C12.4989 4.19927 12.3723 4.25181 12.24 4.25334Z" fill="#FF8080"/>
<path d="M14.3933 12.6667H1.60663C1.08748 12.6667 0.666626 13.0875 0.666626 13.6067V14.3933C0.666626 14.9125 1.08748 15.3333 1.60663 15.3333H14.3933C14.9124 15.3333 15.3333 14.9125 15.3333 14.3933V13.6067C15.3333 13.0875 14.9124 12.6667 14.3933 12.6667Z" fill="#444B54"/>
<path d="M7.60665 3.33334C7.54186 3.33422 7.47754 3.32234 7.41735 3.29835C7.35715 3.27437 7.30228 3.23877 7.25585 3.19358C7.20941 3.14838 7.17234 3.09449 7.14674 3.03497C7.12114 2.97545 7.10752 2.91146 7.10665 2.84668L7.06665 1.33334C7.06665 1.20074 7.11933 1.07356 7.2131 0.97979C7.30686 0.886022 7.43404 0.833344 7.56665 0.833344C7.69926 0.833344 7.82644 0.886022 7.9202 0.97979C8.01397 1.07356 8.06665 1.20074 8.06665 1.33334L8.10665 2.84001C8.10842 2.90623 8.09702 2.97214 8.0731 3.03391C8.04919 3.09568 8.01323 3.15209 7.96734 3.19985C7.92144 3.24761 7.8665 3.28577 7.80573 3.31212C7.74496 3.33847 7.67955 3.35248 7.61332 3.35334L7.60665 3.33334Z" fill="#FF8080"/>
<path d="M4.66663 8.49999C4.53455 8.49826 4.40838 8.44503 4.31498 8.35163C4.22159 8.25824 4.16835 8.13206 4.16663 7.99999C4.16663 7.51376 4.35978 7.04744 4.7036 6.70363C5.04741 6.35981 5.51373 6.16666 5.99996 6.16666C6.13257 6.16666 6.25974 6.21934 6.35351 6.3131C6.44728 6.40687 6.49996 6.53405 6.49996 6.66666C6.49996 6.79926 6.44728 6.92644 6.35351 7.02021C6.25974 7.11398 6.13257 7.16666 5.99996 7.16666C5.77895 7.16666 5.56698 7.25445 5.4107 7.41073C5.25442 7.56701 5.16663 7.77898 5.16663 7.99999C5.1649 8.13206 5.11167 8.25824 5.01827 8.35163C4.92487 8.44503 4.7987 8.49826 4.66663 8.49999Z" fill="#FFF3F3"/>
</g>
<defs>
<clipPath id="clip0_3862_165328">
<rect width="16" height="16" fill="white"/>
</clipPath>
</defs>
</svg>
