<svg width="16" height="16" viewBox="0 0 16 16" fill="none" xmlns="http://www.w3.org/2000/svg">
<path d="M10.6667 15.5H6.00004C5.08337 15.5 4.33337 14.75 4.33337 13.8333V7.16666H12.3334V13.8333C12.3334 14.75 11.5834 15.5 10.6667 15.5Z" fill="#CADBEA"/>
<path d="M6 11.4333C6 12.6667 6.93333 13.75 8.18333 13.8167C8.23333 13.8167 8.28333 13.8167 8.33333 13.8167C9.83333 13.8167 11.2167 13.3167 12.3333 12.4833V7.16666H6V11.4333Z" fill="#75A5CC"/>
<path d="M10.6667 16H6.00004C4.80004 16 3.83337 15.0333 3.83337 13.8333V12.3333C3.83337 12.05 4.05004 11.8333 4.33337 11.8333C4.61671 11.8333 4.83337 12.05 4.83337 12.3333V13.8333C4.83337 14.4833 5.35004 15 6.00004 15H10.6667C11.3167 15 11.8334 14.4833 11.8334 13.8333V10.05C11.8334 9.76665 12.05 9.54999 12.3334 9.54999C12.6167 9.54999 12.8334 9.76665 12.8334 10.05V13.8333C12.8334 15.0333 11.8667 16 10.6667 16Z" fill="#444B54"/>
<path d="M8.33333 0.5C6.78624 0.5 5.30251 1.11458 4.20854 2.20854C3.11458 3.30251 2.5 4.78624 2.5 6.33333C2.5 7.88043 3.11458 9.36416 4.20854 10.4581C5.30251 11.5521 6.78624 12.1667 8.33333 12.1667C9.88043 12.1667 11.3642 11.5521 12.4581 10.4581C13.5521 9.36416 14.1667 7.88043 14.1667 6.33333C14.1667 4.78624 13.5521 3.30251 12.4581 2.20854C11.3642 1.11458 9.88043 0.5 8.33333 0.5Z" fill="#FF697B"/>
<path d="M11.8334 2.25C12.5667 3.21667 13.1167 3.85 13.2 5.16667C13.4 8.15 11.7667 10.2667 9.03337 10.5667C8.63337 10.6167 8.33337 10.95 8.33337 11.3333C8.33337 11.8 8.75004 12.1667 9.21671 12.1C12.0167 11.6667 14.1667 9.25 14.1667 6.33333C14.1667 4.41667 13.25 3.31667 11.8334 2.25Z" fill="#C95065"/>
<path d="M8.33333 12.6667C4.83333 12.6667 2 9.83333 2 6.33333C2 2.83333 4.83333 0 8.33333 0C11.8333 0 14.6667 2.83333 14.6667 6.33333C14.6667 9.83333 11.8333 12.6667 8.33333 12.6667ZM8.33333 1C5.4 1 3 3.4 3 6.33333C3 9.26667 5.4 11.6667 8.33333 11.6667C11.2667 11.6667 13.6667 9.26667 13.6667 6.33333C13.6667 3.4 11.2667 1 8.33333 1Z" fill="#444B54"/>
<path d="M4.55001 4.65001C4.46667 4.65001 4.38334 4.63334 4.30001 4.58334C4.06667 4.45001 3.98334 4.13334 4.11668 3.90001C4.98334 2.40001 6.60001 1.46667 8.33334 1.46667C8.61667 1.46667 8.83334 1.68334 8.83334 1.96667C8.83334 2.25001 8.61667 2.46667 8.33334 2.46667C6.95001 2.46667 5.66668 3.21668 4.98334 4.40001C4.88334 4.55001 4.71667 4.65001 4.55001 4.65001ZM3.96667 6.83334C3.68334 6.83334 3.46667 6.61667 3.46667 6.33334V6.30001C3.46667 6.01667 3.68334 5.80001 3.96667 5.80001C4.25001 5.80001 4.46667 6.01667 4.46667 6.30001V6.33334C4.46667 6.61667 4.23334 6.83334 3.96667 6.83334Z" fill="white"/>
<path d="M8.33335 4.66666C7.89133 4.66666 7.4674 4.84225 7.15484 5.15481C6.84228 5.46737 6.66669 5.8913 6.66669 6.33332C6.66669 6.77535 6.84228 7.19927 7.15484 7.51183C7.4674 7.82439 7.89133 7.99999 8.33335 7.99999C8.77538 7.99999 9.1993 7.82439 9.51186 7.51183C9.82443 7.19927 10 6.77535 10 6.33332C10 5.8913 9.82443 5.46737 9.51186 5.15481C9.1993 4.84225 8.77538 4.66666 8.33335 4.66666Z" fill="#C95065"/>
<path d="M8.33335 5.66666C8.15654 5.66666 7.98697 5.73689 7.86195 5.86192C7.73693 5.98694 7.66669 6.15651 7.66669 6.33332C7.66669 6.51013 7.73693 6.6797 7.86195 6.80473C7.98697 6.92975 8.15654 6.99999 8.33335 6.99999C8.51016 6.99999 8.67973 6.92975 8.80476 6.80473C8.92978 6.6797 9.00002 6.51013 9.00002 6.33332C9.00002 6.15651 8.92978 5.98694 8.80476 5.86192C8.67973 5.73689 8.51016 5.66666 8.33335 5.66666Z" fill="#444B54"/>
<path d="M14 13.5H12.3334C12.05 13.5 11.8334 13.2833 11.8334 13C11.8334 12.7167 12.05 12.5 12.3334 12.5H13.5V11C13.5 10.7167 13.7167 10.5 14 10.5C14.2834 10.5 14.5 10.7167 14.5 11V13C14.5 13.2833 14.2834 13.5 14 13.5Z" fill="#444B54"/>
</svg>
