<svg width="24" height="24" viewBox="0 0 24 24" fill="none" xmlns="http://www.w3.org/2000/svg">
<g id="Excited">
<g id="icons8-happy (5)">
<g id="Group">
<path id="Oval" d="M11.9665 23.5814C18.3227 23.5814 23.4753 18.4287 23.4753 12.0726C23.4753 5.71642 18.3227 0.563736 11.9665 0.563736C5.61035 0.563736 0.457672 5.71642 0.457672 12.0726C0.457672 18.4287 5.61035 23.5814 11.9665 23.5814Z" fill="#FDFCEE"/>
<path id="Shape" d="M11.9665 0.173035C18.528 0.173035 23.8654 5.5105 23.8654 12.072C23.8654 18.6334 18.528 23.9724 11.9665 23.9724C5.40503 23.9723 0.0675659 18.6334 0.0675659 12.072C0.0678964 5.51077 5.40523 0.173062 11.9665 0.173035ZM11.9665 0.953796C5.83649 0.953824 0.848355 5.94195 0.848328 12.072C0.848328 18.2025 5.83647 23.1901 11.9665 23.1901C18.0971 23.1901 23.0847 18.2026 23.0847 12.072C23.0846 5.94194 18.0971 0.953796 11.9665 0.953796Z" fill="#515151"/>
</g>
<g id="Group_2">
<g id="Group_3">
<path id="Oval_2" d="M11.9666 21.59C17.2229 21.59 21.484 17.3289 21.484 12.0726C21.484 6.81627 17.2229 2.55519 11.9666 2.55519C6.7103 2.55519 2.44922 6.81627 2.44922 12.0726C2.44922 17.3289 6.7103 21.59 11.9666 21.59Z" fill="#FFDDA7"/>
<path id="Shape_2" d="M11.9671 2.33137C17.3379 2.33167 21.7083 6.70179 21.7083 12.0726C21.708 17.4431 17.3377 21.8135 11.9671 21.8138C6.59634 21.8138 2.22623 17.4433 2.22592 12.0726C2.22592 6.7016 6.59616 2.33137 11.9671 2.33137ZM11.9671 2.77814C6.8423 2.77814 2.6727 6.9483 2.6727 12.0726C2.673 17.1977 6.84304 21.3655 11.9671 21.3655C17.0921 21.3652 21.2598 17.197 21.2601 12.0726C21.2601 6.94849 17.0923 2.77845 11.9671 2.77814Z" fill="#472B29"/>
</g>
<path id="Shape_3" opacity="0.79" d="M11.9789 4.02643C16.2274 4.02643 19.8352 6.79704 21.1999 10.6666C20.4391 6.15071 16.6053 2.71257 11.9789 2.71257C7.35245 2.71257 3.51859 6.15071 2.75784 10.6666C4.12249 6.79759 7.73031 4.02643 11.9789 4.02643Z" fill="#FBBF5C"/>
</g>
<g id="Group_4">
<path id="Shape_4" d="M11.9789 18.048C15.3696 18.048 18.1184 15.2992 18.1184 11.9085H5.83932C5.83932 15.2992 8.58816 18.048 11.9789 18.048Z" fill="#EE3E54"/>
<path id="Shape_5" d="M18.3426 11.9079C18.342 15.4156 15.4875 18.2709 11.9793 18.2712C8.47084 18.2712 5.61603 15.4163 5.61603 11.9079V11.6852H18.3426V11.9079ZM6.06573 12.132C6.18362 15.291 8.79185 17.8244 11.9793 17.8244C15.1665 17.8241 17.7735 15.2908 17.8914 12.132H6.06573Z" fill="#472B29"/>
</g>
<g id="Group_5">
<path id="Shape_6" d="M11.9789 13.5829C13.8855 13.5829 15.5889 14.4519 16.7141 15.8155C17.5921 14.7539 18.1184 13.3926 18.1184 11.9085H5.83932C5.83932 13.3926 6.36621 14.7539 7.24305 15.8155C8.36881 14.4519 10.0723 13.5829 11.9789 13.5829Z" fill="#961B30"/>
<path id="Shape_7" d="M18.342 11.9073C18.342 13.3842 17.8237 14.8235 16.886 15.9576L16.7146 16.1656L16.5417 15.9576C15.4139 14.5903 13.7501 13.8059 11.9788 13.8058C10.2078 13.8058 8.54342 14.5902 7.41431 15.9576L7.24292 16.1656L7.07007 15.9576C6.13184 14.8224 5.61548 13.383 5.61548 11.9073V11.6847H18.342V11.9073ZM6.06665 12.1314C6.11246 13.3356 6.52665 14.5025 7.25024 15.464C8.45748 14.1228 10.1659 13.359 11.9788 13.359C13.7921 13.359 15.5006 14.1228 16.7073 15.464C17.4309 14.5036 17.8451 13.3367 17.8909 12.1314H6.06665Z" fill="#472B29"/>
</g>
<g id="Group_6">
<path id="Shape_8" d="M18.0346 10.4461C17.9899 10.5974 17.8231 10.675 17.6774 10.6303L14.9927 9.80986C14.8415 9.76521 14.7695 9.60893 14.7695 9.46381V9.32986C14.7695 9.18474 14.842 9.02846 14.9927 8.98381L17.6941 8.16335C17.8448 8.11869 18.0011 8.19683 18.0457 8.34753C18.0904 8.49265 18.0067 8.64893 17.8554 8.69358L15.5788 9.39683L17.8554 10.1001C18.0011 10.1447 18.0792 10.301 18.0346 10.4461Z" fill="#684933"/>
<path id="Shape_9" fill-rule="evenodd" clip-rule="evenodd" d="M17.6528 8.03064C17.8799 7.96481 18.1122 8.08391 18.1787 8.30749C18.211 8.41226 18.2002 8.52487 18.1479 8.62243C18.0939 8.72218 18.0042 8.79506 17.8945 8.82751L16.0503 9.39734L17.896 9.96716C18.0001 9.99946 18.0863 10.0701 18.1377 10.1664C18.1901 10.2651 18.2008 10.3792 18.1685 10.4857C18.1372 10.5906 18.0649 10.6773 17.9678 10.7303C17.9042 10.7648 17.8325 10.7816 17.7612 10.7816C17.7192 10.7816 17.6777 10.7761 17.6367 10.764L14.9517 9.94372C14.7301 9.87842 14.6294 9.65414 14.6294 9.46325V9.32995C14.6294 9.13907 14.7299 8.91681 14.9531 8.85095L17.6528 8.03064ZM17.7334 8.29724L15.0322 9.11755C14.9467 9.1435 14.9092 9.24308 14.9092 9.32995V9.46325C14.9092 9.55088 14.9468 9.65054 15.0322 9.67566L17.7173 10.4974C17.7547 10.5092 17.7997 10.5058 17.8359 10.4857C17.8588 10.4739 17.8887 10.4489 17.9004 10.4066V10.4051C17.9121 10.3695 17.908 10.3311 17.8901 10.2982C17.874 10.2672 17.8471 10.2448 17.814 10.2352L15.1055 9.39734L17.8125 8.56091C17.8514 8.54925 17.8825 8.52528 17.9004 8.49206C17.9176 8.45983 17.9211 8.42399 17.9106 8.38952C17.8933 8.32757 17.8402 8.28991 17.7788 8.28991C17.7645 8.28999 17.7482 8.29285 17.7334 8.29724Z" fill="#472B29"/>
</g>
<g id="Group_7">
<path id="Shape_10" d="M5.86272 8.34756C5.90737 8.1963 6.07481 8.11872 6.21992 8.16337L8.93472 8.98384C9.08541 9.02849 9.18811 9.18477 9.18811 9.32988V9.46384C9.18811 9.60895 9.08541 9.76523 8.93472 9.80988L6.21825 10.6303C6.06755 10.675 5.90402 10.5969 5.85881 10.4462C5.81416 10.301 5.89397 10.1448 6.04467 10.1001L8.31965 9.39686L6.04132 8.6936C5.89676 8.64895 5.81751 8.49267 5.86272 8.34756Z" fill="#684933"/>
<path id="Shape_11" fill-rule="evenodd" clip-rule="evenodd" d="M6.261 8.02957L8.97389 8.85135C9.17427 8.91051 9.32692 9.11714 9.32692 9.33035V9.46365C9.32692 9.67787 9.17524 9.88338 8.97389 9.94266L6.25807 10.7644C6.21637 10.7766 6.17379 10.782 6.1321 10.782C5.94803 10.7819 5.77849 10.6662 5.72487 10.4861C5.69194 10.3806 5.70317 10.2665 5.75563 10.1682C5.8086 10.0702 5.8972 9.99885 6.00466 9.96756L7.84743 9.39773L6.00026 8.82791C5.8954 8.79496 5.80989 8.72283 5.75856 8.62576C5.70677 8.52655 5.69703 8.41435 5.72927 8.30789C5.76108 8.20352 5.83172 8.11628 5.92995 8.06326C6.03147 8.0087 6.15172 7.99612 6.261 8.02957ZM6.06179 8.30789C6.0289 8.32517 6.00538 8.35356 5.99587 8.38699V8.38846C5.9847 8.42418 5.98826 8.46246 6.00612 8.49539C6.02287 8.52656 6.05033 8.55037 6.08376 8.55984L8.79225 9.39627L6.08669 10.2342C6.04932 10.2453 6.01994 10.2683 6.00319 10.3001C5.98589 10.3324 5.98233 10.3698 5.99294 10.4055C6.01557 10.4804 6.10222 10.5185 6.17897 10.4964L8.89479 9.67605C8.98995 9.64753 9.04842 9.54391 9.0486 9.46365V9.32889C9.04839 9.24858 8.9895 9.14636 8.89479 9.11795L6.18044 8.29617C6.16593 8.29226 6.14954 8.29031 6.13503 8.29031C6.11014 8.29042 6.08446 8.2963 6.06179 8.30789Z" fill="#472B29"/>
</g>
</g>
</g>
</svg>
