<svg width="24" height="24" viewBox="0 0 24 24" fill="none" xmlns="http://www.w3.org/2000/svg">
<g id="Exhausted">
<g id="icons8-sad">
<g id="Group">
<path id="Oval" d="M11.9665 23.5814C18.3227 23.5814 23.4753 18.4287 23.4753 12.0726C23.4753 5.71642 18.3227 0.563736 11.9665 0.563736C5.61035 0.563736 0.457672 5.71642 0.457672 12.0726C0.457672 18.4287 5.61035 23.5814 11.9665 23.5814Z" fill="#FDFCEE"/>
<path id="Shape" d="M11.9665 0.173035C18.528 0.173035 23.8654 5.5105 23.8654 12.072C23.8654 18.6334 18.528 23.9724 11.9665 23.9724C5.40503 23.9723 0.0675659 18.6334 0.0675659 12.072C0.0678964 5.51077 5.40523 0.173062 11.9665 0.173035ZM11.9665 0.953796C5.83649 0.953824 0.848355 5.94195 0.848328 12.072C0.848328 18.2025 5.83647 23.1901 11.9665 23.1901C18.0971 23.1901 23.0847 18.2026 23.0847 12.072C23.0846 5.94194 18.0971 0.953796 11.9665 0.953796Z" fill="#515151"/>
</g>
<g id="Group_2">
<g id="Group_3">
<path id="Oval_2" d="M11.9666 21.59C17.2229 21.59 21.484 17.3289 21.484 12.0726C21.484 6.81627 17.2229 2.55519 11.9666 2.55519C6.7103 2.55519 2.44922 6.81627 2.44922 12.0726C2.44922 17.3289 6.7103 21.59 11.9666 21.59Z" fill="#FFDDA7"/>
<path id="Shape_2" d="M11.9671 2.33137C17.3379 2.33167 21.7083 6.70179 21.7083 12.0726C21.708 17.4431 17.3377 21.8135 11.9671 21.8138C6.59634 21.8138 2.22623 17.4433 2.22592 12.0726C2.22592 6.7016 6.59616 2.33137 11.9671 2.33137ZM11.9671 2.77814C6.8423 2.77814 2.6727 6.9483 2.6727 12.0726C2.673 17.1977 6.84304 21.3655 11.9671 21.3655C17.0921 21.3652 21.2598 17.197 21.2601 12.0726C21.2601 6.94849 17.0923 2.77845 11.9671 2.77814Z" fill="#472B29"/>
</g>
<path id="Shape_3" opacity="0.79" d="M11.9789 4.02643C16.2274 4.02643 19.8352 6.79704 21.1999 10.6666C20.4391 6.15071 16.6053 2.71257 11.9789 2.71257C7.35245 2.71257 3.51859 6.15071 2.75784 10.6666C4.12249 6.79759 7.73031 4.02643 11.9789 4.02643Z" fill="#FBBF5C"/>
</g>
<g id="Group_4">
<g id="Group_5">
<path id="Oval_3" d="M11.8348 18.509C14.9173 18.509 17.4162 17.2596 17.4162 15.7183C17.4162 14.1771 14.9173 12.9276 11.8348 12.9276C8.75229 12.9276 6.25342 14.1771 6.25342 15.7183C6.25342 17.2596 8.75229 18.509 11.8348 18.509Z" fill="#EE3E54"/>
<path id="Shape_4" d="M11.8353 12.7049C15.0901 12.7051 17.639 14.0296 17.639 15.7196C17.6383 17.4092 15.0897 18.7326 11.8353 18.7328C8.58067 18.7328 6.03082 17.4093 6.03012 15.7196C6.03012 14.0295 8.58023 12.7049 11.8353 12.7049ZM11.8353 13.1517C8.93074 13.1517 6.4769 14.3276 6.4769 15.7196C6.47771 17.1113 8.93122 18.286 11.8353 18.286C14.7391 18.2858 17.1914 17.1112 17.1922 15.7196C17.1922 14.3277 14.7396 13.1519 11.8353 13.1517Z" fill="#472B29"/>
</g>
<g id="Group_6">
<path id="Shape_5" d="M11.8348 12.9276C8.75221 12.9276 6.25342 14.1773 6.25342 15.7183C6.25342 16.3786 6.71444 16.9842 7.48077 17.4614C7.92672 16.4646 9.70551 15.7183 11.8348 15.7183C13.9641 15.7183 15.7423 16.4646 16.1889 17.4614C16.9552 16.9842 17.4162 16.3786 17.4162 15.7183C17.4162 14.1773 14.9174 12.9276 11.8348 12.9276Z" fill="#961B30"/>
<path id="Shape_6" d="M11.8347 12.7049C15.0896 12.7051 17.6385 14.0296 17.6385 15.7196C17.6382 16.4404 17.177 17.1083 16.3055 17.6517L16.0887 17.7865L15.9832 17.5536C15.5652 16.6204 13.8202 15.9423 11.8333 15.9422C9.84575 15.9422 8.10087 16.6204 7.68338 17.5536L7.57938 17.7865L7.36258 17.6517C6.49105 17.1083 6.02987 16.4404 6.02957 15.7196C6.02957 14.0295 8.57968 12.7049 11.8347 12.7049ZM11.8347 13.1502C8.93034 13.1502 6.4766 14.3262 6.47635 15.7181C6.47635 16.2171 6.80325 16.7166 7.40213 17.1419C8.03787 16.1613 9.79981 15.4955 11.8347 15.4955C13.8692 15.4955 15.6322 16.1613 16.2674 17.1419C16.8662 16.7167 17.1917 16.2171 17.1917 15.7181C17.1914 14.3269 14.7389 13.1504 11.8347 13.1502Z" fill="#472B29"/>
</g>
</g>
<g id="Group_7">
<g id="Group_8">
<path id="Shape_7" d="M10.1894 10.1715C9.92093 9.32094 9.12447 8.74941 8.20688 8.74941C7.2893 8.74941 6.4934 9.32039 6.22493 10.1715L5.69302 10.0035C6.03405 8.91964 7.04428 8.19127 8.20688 8.19127C9.36893 8.19127 10.3797 8.91964 10.7213 10.0035L10.1894 10.1715Z" fill="#684933"/>
<path id="Shape_8" d="M8.20633 8.05174C9.42977 8.05174 10.4948 8.81939 10.8548 9.9619L10.8958 10.0952L10.0974 10.3457L10.0564 10.2139C9.80638 9.42185 9.06196 8.88963 8.20633 8.88963C7.35038 8.88987 6.60713 9.42203 6.3577 10.2139L6.31668 10.3457L5.51834 10.0952L5.56082 9.9619C5.92021 8.81956 6.98313 8.05198 8.20633 8.05174ZM8.20779 8.33153C7.15415 8.33153 6.23348 8.96156 5.87283 9.91356L6.13943 9.99706C6.46328 9.16178 7.27755 8.60985 8.20779 8.60985C9.13791 8.60998 9.9518 9.16186 10.2762 9.99706L10.5428 9.91356C10.1822 8.96164 9.26076 8.33166 8.20779 8.33153Z" fill="#472B29"/>
</g>
<g id="Group_9">
<path id="Shape_9" d="M17.4441 10.1715C17.1757 9.32094 16.3792 8.74941 15.4616 8.74941C14.544 8.74941 13.7481 9.32039 13.4797 10.1715L12.9478 10.0035C13.2888 8.91964 14.299 8.19127 15.4616 8.19127C16.6237 8.19127 17.6345 8.91964 17.976 10.0035L17.4441 10.1715Z" fill="#684933"/>
<path id="Shape_10" d="M15.4611 8.05174C16.6845 8.05174 17.7495 8.81939 18.1095 9.9619L18.1505 10.0952L17.3522 10.3457L17.3112 10.2139C17.0611 9.42185 16.3167 8.88963 15.4611 8.88963C14.6051 8.88987 13.8619 9.42203 13.6124 10.2139L13.5714 10.3457L12.7731 10.0952L12.8156 9.9619C13.1749 8.81956 14.2379 8.05198 15.4611 8.05174ZM15.4625 8.33153C14.4089 8.33153 13.4882 8.96156 13.1276 9.91356L13.3942 9.99706C13.718 9.16178 14.5323 8.60985 15.4625 8.60985C16.3926 8.60998 17.2065 9.16186 17.5309 9.99706L17.7975 9.91356C17.4369 8.96164 16.5155 8.33166 15.4625 8.33153Z" fill="#472B29"/>
</g>
</g>
<g id="Group_10">
<path id="Shape_11" d="M20.405 6.88355C20.405 6.88355 18.8551 9.0882 18.8484 9.9349C18.8422 10.7799 19.522 11.472 20.3676 11.4793C21.2138 11.4854 21.9047 10.8056 21.912 9.96002C21.9193 9.11388 20.405 6.88355 20.405 6.88355Z" fill="#64A3E2"/>
<path id="Shape_12" fill-rule="evenodd" clip-rule="evenodd" d="M20.5209 6.80553C20.5852 6.9009 22.0596 9.08209 22.0516 9.9608C22.0449 10.8777 21.295 11.6187 20.3788 11.619H20.367C19.4463 11.6112 18.7025 10.8562 18.7088 9.93443C18.7166 9.05596 20.223 6.90091 20.2909 6.80406L20.4066 6.63853L20.5209 6.80553ZM20.4022 7.13219C19.9222 7.83934 18.9938 9.33137 18.9886 9.9359C18.9825 10.7038 19.6012 11.3338 20.3685 11.3407H20.3788C21.1416 11.3407 21.7655 10.7232 21.7718 9.95934C21.7769 9.35487 20.871 7.84661 20.4022 7.13219Z" fill="#472B29"/>
</g>
</g>
</g>
</svg>
