<svg width="13" height="16" viewBox="0 0 13 16" fill="none" xmlns="http://www.w3.org/2000/svg">
<g clip-path="url(#clip0_3862_164332)">
<path d="M11.1731 12.1455C11.4569 12.1455 11.687 11.9138 11.687 11.6279C11.687 11.3421 11.4569 11.1104 11.1731 11.1104C10.8893 11.1104 10.6592 11.3421 10.6592 11.6279C10.6592 11.9138 10.8893 12.1455 11.1731 12.1455Z" fill="#545454"/>
<path d="M5.12632 15.6498C7.76546 15.6498 9.90491 13.4953 9.90491 10.8375C9.90491 8.17967 7.76546 6.0251 5.12632 6.0251C2.48717 6.0251 0.347717 8.17967 0.347717 10.8375C0.347717 13.4953 2.48717 15.6498 5.12632 15.6498Z" fill="#F3F1FF"/>
<path d="M4.4718 13.9685C5.2555 13.9685 5.89081 13.3287 5.89081 12.5394C5.89081 11.7502 5.2555 11.1104 4.4718 11.1104C3.68811 11.1104 3.0528 11.7502 3.0528 12.5394C3.0528 13.3287 3.68811 13.9685 4.4718 13.9685Z" fill="#8068BA"/>
<path d="M5.41523 8.98874C5.7852 8.98874 6.08511 8.68671 6.08511 8.31413C6.08511 7.94156 5.7852 7.63953 5.41523 7.63953C5.04527 7.63953 4.74536 7.94156 4.74536 8.31413C4.74536 8.68671 5.04527 8.98874 5.41523 8.98874Z" fill="#8068BA"/>
<path d="M9.97144 12.0631C10.1131 11.4901 10.1399 10.8944 10.0505 10.3109C9.96108 9.72732 9.75715 9.16753 9.4506 8.66419C9.14405 8.16085 8.74102 7.72404 8.26505 7.37924C7.78907 7.03444 7.24967 6.78856 6.67832 6.65594C6.45386 6.60521 6.22545 6.5742 5.99566 6.56325C6.80822 6.89776 7.50365 7.46806 7.99353 8.20164C8.4834 8.93522 8.74558 9.79894 8.74675 10.683C8.74156 10.6805 8.73588 10.6792 8.73013 10.6792C8.72437 10.6792 8.71869 10.6805 8.71351 10.683C8.63103 10.6637 8.54556 10.6611 8.46209 10.6755C8.37863 10.6898 8.29885 10.7208 8.22742 10.7666C8.15599 10.8124 8.09435 10.8721 8.04611 10.9422C7.99787 11.0123 7.964 11.0913 7.94648 11.1748C7.92531 11.257 7.92093 11.3427 7.93359 11.4267C7.94625 11.5107 7.97571 11.5912 8.02016 11.6635C8.06461 11.7357 8.12315 11.798 8.19222 11.8468C8.26129 11.8956 8.33948 11.9297 8.42204 11.9472C8.47511 11.9588 8.53003 11.9588 8.58311 11.9472C8.31539 12.9542 7.71481 13.8391 6.88047 14.4561C6.04613 15.073 5.02788 15.3851 3.99371 15.3408C4.20795 15.4278 4.4296 15.4951 4.65592 15.5417C7.01837 16.0798 9.40383 14.5066 9.97144 12.0631Z" fill="#8068BA"/>
<path d="M5.12634 16C4.11118 16.0031 3.11796 15.7027 2.27245 15.1369C1.42694 14.5711 0.767173 13.7653 0.376703 12.8216C-0.0137683 11.878 -0.117379 10.8388 0.078991 9.83578C0.275361 8.83276 0.76288 7.91099 1.47981 7.18719C2.19674 6.46339 3.11082 5.97013 4.10631 5.76987C5.1018 5.56961 6.13391 5.67135 7.07194 6.06223C8.00997 6.4531 8.81173 7.11551 9.37567 7.96558C9.93961 8.81565 10.2404 9.81514 10.2399 10.8375C10.2385 12.204 9.69975 13.5144 8.74144 14.4819C7.78312 15.4494 6.48329 15.9952 5.12634 16ZM5.12634 6.37271C4.24938 6.3722 3.39197 6.63362 2.66255 7.1239C1.93314 7.61419 1.3645 8.31131 1.02855 9.12709C0.692606 9.94287 0.604444 10.8407 0.77522 11.7069C0.945996 12.5732 1.36804 13.3689 1.98796 13.9936C2.60789 14.6183 3.39785 15.0438 4.25792 15.2162C5.11799 15.3887 6.00954 15.3005 6.81979 14.9626C7.63004 14.6248 8.3226 14.0525 8.80987 13.3182C9.29713 12.5839 9.55721 11.7206 9.55721 10.8375C9.55654 9.65399 9.08958 8.51915 8.25885 7.68207C7.42812 6.84498 6.30151 6.37407 5.12634 6.37271Z" fill="#545454"/>
<path d="M3.69709 0.350174H2.84313C2.6751 0.350174 2.53888 0.487356 2.53888 0.656579V9.15095C2.53888 9.32017 2.6751 9.45735 2.84313 9.45735H3.69709C3.86513 9.45735 4.00135 9.32017 4.00135 9.15095V0.656579C4.00135 0.487356 3.86513 0.350174 3.69709 0.350174Z" fill="#F28602"/>
<path d="M3.44909 9.80753H3.09114C2.85266 9.80685 2.62414 9.71114 2.45551 9.54132C2.28687 9.37149 2.19184 9.14136 2.19116 8.90119V0.919213C2.19184 0.679045 2.28687 0.448907 2.45551 0.279082C2.62414 0.109257 2.85266 0.0135502 3.09114 0.0128708H3.44909C3.68494 0.0141822 3.91091 0.108416 4.07863 0.275401C4.24636 0.442386 4.34251 0.668855 4.34652 0.906338V8.90119C4.34585 9.14091 4.25116 9.37066 4.08308 9.54042C3.915 9.71017 3.68713 9.80617 3.44909 9.80753ZM3.09114 0.70035C3.0369 0.70035 2.98487 0.722052 2.94651 0.760682C2.90815 0.799312 2.8866 0.851707 2.8866 0.906338V8.90119C2.88727 8.95561 2.90903 9.00762 2.94725 9.04611C2.98546 9.08459 3.0371 9.10651 3.09114 9.10718H3.44909C3.50293 9.10587 3.55421 9.08375 3.59229 9.0454C3.63037 9.00705 3.65234 8.95541 3.65363 8.90119V0.919213C3.65297 0.864789 3.63121 0.812782 3.59299 0.774296C3.55478 0.73581 3.50313 0.713893 3.44909 0.713225L3.09114 0.70035Z" fill="#545554"/>
<path d="M11.0094 6.32894H4.00134V0.821373H11.0094C11.1391 0.821489 11.2662 0.857846 11.3766 0.926396C11.4869 0.994946 11.5762 1.093 11.6346 1.20964C11.6929 1.32628 11.7179 1.45692 11.7068 1.58703C11.6958 1.71714 11.6491 1.84161 11.5719 1.94657L10.3754 3.57387L11.5719 5.20116C11.6498 5.30612 11.6971 5.43084 11.7086 5.56136C11.72 5.69187 11.6951 5.82301 11.6367 5.9401C11.5784 6.05718 11.4887 6.15557 11.3779 6.22425C11.2671 6.29292 11.1395 6.32917 11.0094 6.32894Z" fill="#EF214D"/>
<path d="M11.0094 6.67653H3.65363V0.471191H11.0094C11.2022 0.472462 11.3909 0.527225 11.5547 0.62946C11.7185 0.731696 11.8512 0.877446 11.9382 1.05069C12.0251 1.22393 12.0629 1.41796 12.0475 1.61144C12.032 1.80493 11.9639 1.99038 11.8506 2.14741L10.8075 3.56614L11.8506 4.98487C11.9661 5.1419 12.036 5.32812 12.0526 5.52281C12.0692 5.71749 12.0318 5.91299 11.9446 6.08755C11.8575 6.26211 11.7239 6.40887 11.5587 6.51149C11.3936 6.61412 11.2035 6.66858 11.0094 6.66881V6.67653ZM4.36185 5.97875H11.0222C11.0879 5.97898 11.1523 5.96048 11.2079 5.92539C11.2636 5.89031 11.3082 5.84007 11.3367 5.78049C11.3676 5.72229 11.3812 5.65632 11.3757 5.59054C11.3703 5.52476 11.3461 5.46197 11.306 5.40972L9.9535 3.57386L11.306 1.73801C11.3464 1.6859 11.3708 1.62308 11.3762 1.55722C11.3817 1.49137 11.3679 1.42535 11.3367 1.36723C11.3082 1.30766 11.2636 1.25742 11.2079 1.22233C11.1523 1.18725 11.0879 1.16874 11.0222 1.16897H4.34651L4.36185 5.97875Z" fill="#545454"/>
<path fill-rule="evenodd" clip-rule="evenodd" d="M11.6359 8.38365L11.3955 9.49855L11.1731 8.38365L11.3955 7.2636L11.6359 8.38365Z" fill="#545454"/>
<path fill-rule="evenodd" clip-rule="evenodd" d="M11.4083 8.61796L10.2961 8.3991L11.4006 8.14162L12.5128 8.35018L11.4083 8.61796Z" fill="#545454"/>
<path d="M7.48719 5.53846C7.77041 5.53846 8.00001 5.30886 8.00001 5.02564C8.00001 4.74241 7.77041 4.51282 7.48719 4.51282C7.20396 4.51282 6.97437 4.74241 6.97437 5.02564C6.97437 5.30886 7.20396 5.53846 7.48719 5.53846Z" fill="white"/>
<rect x="6.97437" y="1.64102" width="1.02564" height="2.66667" rx="0.51282" fill="white"/>
</g>
<defs>
<clipPath id="clip0_3862_164332">
<rect width="12.5128" height="16" fill="white"/>
</clipPath>
</defs>
</svg>
