<svg width="13" height="16" viewBox="0 0 13 16" fill="none" xmlns="http://www.w3.org/2000/svg">
<g clip-path="url(#clip0_3862_167089)">
<path d="M11.6081 12.1455C11.903 12.1455 12.142 11.9138 12.142 11.6279C12.142 11.3421 11.903 11.1104 11.6081 11.1104C11.3132 11.1104 11.0742 11.3421 11.0742 11.6279C11.0742 11.9138 11.3132 12.1455 11.6081 12.1455Z" fill="#545454"/>
<path d="M5.32592 15.6498C8.06782 15.6498 10.2906 13.4953 10.2906 10.8375C10.2906 8.17967 8.06782 6.0251 5.32592 6.0251C2.58402 6.0251 0.361267 8.17967 0.361267 10.8375C0.361267 13.4953 2.58402 15.6498 5.32592 15.6498Z" fill="white"/>
<path d="M4.64588 13.9685C5.46009 13.9685 6.12014 13.3287 6.12014 12.5394C6.12014 11.7502 5.46009 11.1104 4.64588 11.1104C3.83168 11.1104 3.17163 11.7502 3.17163 12.5394C3.17163 13.3287 3.83168 13.9685 4.64588 13.9685Z" fill="#FAC87F"/>
<path d="M5.62607 8.98874C6.01043 8.98874 6.32202 8.68671 6.32202 8.31413C6.32202 7.94156 6.01043 7.63953 5.62607 7.63953C5.2417 7.63953 4.93011 7.94156 4.93011 8.31413C4.93011 8.68671 5.2417 8.98874 5.62607 8.98874Z" fill="#FAC87F"/>
<path d="M10.3596 12.0631C10.5068 11.4901 10.5347 10.8944 10.4418 10.3109C10.3489 9.72732 10.137 9.16753 9.81852 8.66419C9.50003 8.16085 9.08132 7.72404 8.5868 7.37924C8.09229 7.03444 7.53189 6.78856 6.9383 6.65594C6.7051 6.60521 6.4678 6.5742 6.22906 6.56325C7.07326 6.89776 7.79577 7.46806 8.30471 8.20164C8.81366 8.93522 9.08605 9.79894 9.08726 10.683C8.96704 10.6637 8.87824 10.6611 8.79152 10.6755C8.70481 10.6898 8.62192 10.7208 8.54771 10.7666C8.4735 10.8124 8.40947 10.8721 8.35935 10.9422C8.30923 11.0123 8.27404 11.0913 8.25583 11.1748C8.23384 11.257 8.22929 11.3427 8.24244 11.4267C8.2556 11.5107 8.2862 11.5912 8.33238 11.6635C8.37857 11.7357 8.43938 11.798 8.51114 11.8468C8.58291 11.8956 8.66413 11.9297 8.74991 11.9472C8.80505 11.9588 8.86211 11.9588 8.91726 11.9472C8.6391 12.9542 8.01514 13.8391 7.14832 14.4561C6.2815 15.073 5.2236 15.3851 4.14917 15.3408C4.37175 15.4278 4.60203 15.4951 4.83715 15.5417C7.29159 16.0798 9.76993 14.5066 10.3596 12.0631Z" fill="#FAC87F"/>
<path d="M5.32589 16C4.27121 16.0031 3.23932 15.7027 2.36089 15.1369C1.48246 14.5711 0.797007 13.7653 0.391333 12.8216C-0.0143405 11.878 -0.121985 10.8388 0.0820304 9.83578C0.286046 8.83276 0.792546 7.91099 1.53739 7.18719C2.28223 6.46339 3.23191 5.97013 4.26615 5.76987C5.3004 5.56961 6.3727 5.67135 7.34725 6.06223C8.3218 6.4531 9.15477 7.11551 9.74067 7.96558C10.3266 8.81565 10.639 9.81514 10.6385 10.8375C10.6371 12.204 10.0774 13.5144 9.08174 14.4819C8.08612 15.4494 6.73568 15.9952 5.32589 16ZM5.32589 6.37271C4.41479 6.3722 3.52399 6.63362 2.76618 7.1239C2.00837 7.61419 1.41759 8.31131 1.06856 9.12709C0.719536 9.94287 0.627941 10.8407 0.805367 11.7069C0.982792 12.5732 1.42126 13.3689 2.06533 13.9936C2.70939 14.6183 3.5301 15.0438 4.42366 15.2162C5.31722 15.3887 6.24348 15.3005 7.08528 14.9626C7.92708 14.6248 8.6466 14.0525 9.15284 13.3182C9.65907 12.5839 9.92928 11.7206 9.92928 10.8375C9.92858 9.65399 9.44344 8.51915 8.58037 7.68207C7.71729 6.84498 6.54681 6.37407 5.32589 6.37271Z" fill="#545454"/>
<path d="M3.84101 0.350174H2.9538C2.77922 0.350174 2.6377 0.487356 2.6377 0.656579V9.15095C2.6377 9.32017 2.77922 9.45735 2.9538 9.45735H3.84101C4.01558 9.45735 4.15711 9.32017 4.15711 9.15095V0.656579C4.15711 0.487356 4.01558 0.350174 3.84101 0.350174Z" fill="#F28602"/>
<path d="M3.5834 9.80753H3.21151C2.96374 9.80685 2.72632 9.71114 2.55112 9.54132C2.37593 9.37149 2.27719 9.14136 2.27649 8.90119V0.919213C2.27719 0.679045 2.37593 0.448907 2.55112 0.279082C2.72632 0.109257 2.96374 0.0135502 3.21151 0.0128708H3.5834C3.82843 0.0141822 4.06319 0.108416 4.23745 0.275401C4.4117 0.442386 4.5116 0.668855 4.51576 0.906338V8.90119C4.51507 9.14091 4.4167 9.37066 4.24207 9.54042C4.06744 9.71017 3.8307 9.80617 3.5834 9.80753Z" fill="#545554"/>
<path d="M11.4381 6.32894H4.1571V0.821373H11.4381C11.5728 0.821489 11.7048 0.857846 11.8195 0.926396C11.9341 0.994946 12.0269 1.093 12.0875 1.20964C12.1481 1.32628 12.1741 1.45692 12.1626 1.58703C12.1511 1.71714 12.1026 1.84161 12.0224 1.94657L10.7793 3.57387L12.0224 5.20116C12.1034 5.30612 12.1525 5.43084 12.1644 5.56136C12.1763 5.69187 12.1505 5.82301 12.0898 5.9401C12.0291 6.05718 11.936 6.15557 11.8209 6.22425C11.7058 6.29292 11.5732 6.32917 11.4381 6.32894Z" fill="#EF214D"/>
<path d="M11.4381 6.67653H3.7959V0.471191H11.4381C11.6384 0.472462 11.8344 0.527225 12.0046 0.62946C12.1748 0.731696 12.3127 0.877446 12.403 1.05069C12.4933 1.22393 12.5326 1.41796 12.5166 1.61144C12.5005 1.80493 12.4298 1.99038 12.312 2.14741L11.2283 3.56614L12.312 4.98487C12.432 5.1419 12.5047 5.32812 12.5219 5.52281C12.5392 5.71749 12.5003 5.91299 12.4097 6.08755C12.3191 6.26211 12.1803 6.40887 12.0088 6.51149C11.8373 6.61412 11.6397 6.66858 11.4381 6.66881V6.67653Z" fill="#545454"/>
<path fill-rule="evenodd" clip-rule="evenodd" d="M12.0889 8.38365L11.8392 9.49855L11.6081 8.38365L11.8392 7.2636L12.0889 8.38365Z" fill="#545454"/>
<path fill-rule="evenodd" clip-rule="evenodd" d="M11.8525 8.61796L10.697 8.3991L11.8445 8.14162L13 8.35018L11.8525 8.61796Z" fill="#545454"/>
<path d="M7.7787 5.53846C8.07295 5.53846 8.31148 5.30886 8.31148 5.02564C8.31148 4.74241 8.07295 4.51282 7.7787 4.51282C7.48445 4.51282 7.24591 4.74241 7.24591 5.02564C7.24591 5.30886 7.48445 5.53846 7.7787 5.53846Z" fill="white"/>
<rect x="7.24591" y="1.64103" width="1.06557" height="2.66667" rx="0.532787" fill="white"/>
</g>
<defs>
<clipPath id="clip0_3862_167089">
<rect width="13" height="16" fill="white"/>
</clipPath>
</defs>
</svg>
