<svg width="16" height="16" viewBox="0 0 16 16" fill="none" xmlns="http://www.w3.org/2000/svg">
<path fill-rule="evenodd" clip-rule="evenodd" d="M15.5927 7.68946C11.9855 13.0737 4.02909 13.0737 0.421814 7.68946C4.02909 2.30525 11.9709 2.30525 15.5927 7.68946Z" fill="#F7F7FB"/>
<path fill-rule="evenodd" clip-rule="evenodd" d="M10.5891 4.04208C11.3309 4.73681 11.7963 5.70655 11.7963 6.80655C11.7963 8.89076 10.0945 10.5842 7.99998 10.5842C5.90543 10.5842 4.20361 8.89076 4.20361 6.80655C4.20361 5.69208 4.69816 4.69339 5.46907 3.99866C7.24361 3.39076 8.94543 3.36181 10.5891 4.04208Z" fill="#C7D7E2"/>
<path fill-rule="evenodd" clip-rule="evenodd" d="M7.99996 8.1671C7.2436 8.1671 6.63269 7.5592 6.63269 6.80657C6.63269 6.05394 7.2436 5.44604 7.99996 5.44604C8.75633 5.44604 9.36724 6.05394 9.36724 6.80657C9.36724 7.5592 8.75633 8.1671 7.99996 8.1671Z" fill="#656C73"/>
<path fill-rule="evenodd" clip-rule="evenodd" d="M6.89452 4.88156C6.44361 4.88156 6.06543 5.25788 6.06543 5.70656C6.06543 6.08288 6.32725 6.4013 6.66179 6.50261C6.77816 5.99603 7.17088 5.60525 7.67998 5.48946C7.5927 5.14209 7.2727 4.88156 6.89452 4.88156Z" fill="#FAFBFC"/>
<path fill-rule="evenodd" clip-rule="evenodd" d="M7.69451 5.47498C7.18542 5.59077 6.79269 5.98155 6.67633 6.48813C6.74906 6.50261 6.82179 6.51708 6.90906 6.51708C7.37451 6.51708 7.73815 6.14077 7.73815 5.69208C7.7236 5.63419 7.70906 5.54734 7.69451 5.47498Z" fill="#F0F1F1"/>
<path fill-rule="evenodd" clip-rule="evenodd" d="M13.3673 8.08024C13.12 8.08024 12.9309 7.89209 12.9309 7.64603C12.9309 7.39998 13.12 7.21182 13.3673 7.21182C13.6145 7.21182 13.8036 7.39998 13.8036 7.64603C13.8036 7.89209 13.6145 8.08024 13.3673 8.08024Z" fill="#454B54"/>
<path fill-rule="evenodd" clip-rule="evenodd" d="M0.0727177 7.92104C1.84726 10.5553 4.79999 12.1329 7.99999 12.1329C11.2 12.1329 14.1527 10.5553 15.9273 7.92104C16.0145 7.7763 16.0145 7.60262 15.9273 7.45788C14.1527 4.8092 11.2 3.23157 7.99999 3.23157C4.79999 3.23157 1.84726 4.8092 0.0727177 7.45788C-0.014555 7.60262 -0.014555 7.7763 0.0727177 7.92104ZM7.99999 11.3224C5.17817 11.3224 2.54544 9.96183 0.916354 7.68946C2.54544 5.41709 5.17817 4.05657 7.99999 4.05657C10.8218 4.05657 13.4545 5.41709 15.0836 7.68946C13.4545 9.9763 10.8218 11.3224 7.99999 11.3224Z" fill="#454B54"/>
<path fill-rule="evenodd" clip-rule="evenodd" d="M3.79633 6.79209C3.79633 9.09341 5.68723 10.975 7.99996 10.975C10.3127 10.975 12.2036 9.10788 12.2181 6.80656C12.2181 5.66314 11.7236 4.54867 10.88 3.75262C10.8363 3.7092 10.7927 3.68025 10.7491 3.66578C9.89087 3.30393 8.98905 3.13025 8.05814 3.13025C7.18542 3.13025 6.26905 3.28946 5.33814 3.59341C5.27996 3.60788 5.23633 3.63683 5.19269 3.68025C4.30542 4.46183 3.79633 5.60525 3.79633 6.79209ZM4.62542 6.79209C4.62542 5.86578 5.0036 4.98288 5.68723 4.34604C6.50178 4.08551 7.30178 3.94078 8.05814 3.95525C8.8436 3.95525 9.61451 4.09999 10.3563 4.38946C11.0109 5.0263 11.3745 5.88025 11.3745 6.79209C11.3745 8.64472 9.86178 10.15 7.99996 10.15C6.13814 10.15 4.62542 8.64472 4.62542 6.79209Z" fill="#454B54"/>
<path fill-rule="evenodd" clip-rule="evenodd" d="M14.6036 11.0763C13.8763 12.0895 13.6 12.4079 13.6 12.9868C13.6 13.5368 14.0509 13.971 14.6036 13.971C15.1563 13.971 15.6072 13.5223 15.6072 12.9868C15.6072 12.4223 15.3454 12.1039 14.6036 11.0763Z" fill="#C7D7E2"/>
</svg>
