<svg width="16" height="16" viewBox="0 0 16 16" fill="none" xmlns="http://www.w3.org/2000/svg">
<g id="Family">
<path id="Shape" fill-rule="evenodd" clip-rule="evenodd" d="M2.84211 1.75C2.84211 0.786133 3.66961 0 4.68421 0C5.69881 0 6.52632 0.786133 6.52632 1.75C6.52632 2.71387 5.69881 3.5 4.68421 3.5C3.66961 3.5 2.84211 2.71387 2.84211 1.75ZM6 1.75C6 1.05664 5.41406 0.5 4.68421 0.5C3.95436 0.5 3.36842 1.05664 3.36842 1.75C3.36842 2.44336 3.95436 3 4.68421 3C5.41406 3 6 2.44336 6 1.75ZM11.7895 0.5C10.9208 0.5 10.2105 1.1748 10.2105 2C10.2105 2.8252 10.9208 3.5 11.7895 3.5C12.6581 3.5 13.3684 2.8252 13.3684 2C13.3684 1.1748 12.6581 0.5 11.7895 0.5ZM12.8421 2C12.8421 1.44434 12.3744 1 11.7895 1C11.2046 1 10.7368 1.44434 10.7368 2C10.7368 2.55566 11.2046 3 11.7895 3C12.3744 3 12.8421 2.55566 12.8421 2ZM3.10526 4C1.94572 4 1 4.89844 1 6V10C1 10.5498 1.47389 11 2.05263 11H2.31579V14.5752C2.31579 15.1738 2.78865 15.7168 3.43729 15.749C3.84231 15.7686 4.19182 15.5781 4.42105 15.2959C4.65029 15.5781 4.99979 15.7686 5.40481 15.749C6.05345 15.7168 6.52632 15.1738 6.52632 14.5752V12.7031C6.60958 12.7314 6.69696 12.75 6.78947 12.75H7.05263V15C7.05263 15.4111 7.40933 15.75 7.84211 15.75H8.89474C9.32751 15.75 9.68421 15.4111 9.68421 15V12.75H9.94737V14.75C9.94737 15.2998 10.4213 15.75 11 15.75C11.3187 15.75 11.5962 15.6055 11.7895 15.3906C11.9827 15.6055 12.2603 15.75 12.5789 15.75C13.1577 15.75 13.6316 15.2998 13.6316 14.75V11.75H14.9474C15.0296 11.75 15.1067 11.7139 15.156 11.6523C15.2064 11.5908 15.2229 11.5107 15.2023 11.4355L14.9278 10.46C14.9498 10.4636 14.9702 10.4713 14.9905 10.4789C15.0187 10.4895 15.0467 10.5 15.0789 10.5C15.5847 10.5 16 10.1055 16 9.625C16 9.54971 15.9779 9.48042 15.9558 9.41122L15.9465 9.38184C15.9476 9.34863 15.9414 9.31641 15.9291 9.28516L14.0931 4.81641C14.0685 4.75586 14.0191 4.70703 13.9564 4.67969C13.7333 4.29102 13.3396 4 12.8421 4H10.7368C10.4171 4 10.1211 4.10938 9.89391 4.29102C9.81785 4.34766 9.78084 4.43848 9.79626 4.52832C9.81271 4.61816 9.8785 4.69238 9.96793 4.72266C10.0584 4.75391 10.1591 4.73438 10.2311 4.6748C10.3678 4.56543 10.5426 4.5 10.7368 4.5H12.8421C13.1885 4.5 13.4743 4.70996 13.5833 5.00293C13.5956 5.03711 13.6162 5.06738 13.6429 5.09375L15.4274 9.43848L15.4285 9.44238C15.4315 9.4541 15.4356 9.46582 15.4408 9.47656C15.4624 9.52246 15.4737 9.57227 15.4737 9.625C15.4737 9.83496 15.3 10 15.0789 10C14.9289 10 14.8035 9.92188 14.7356 9.80469L14.7306 9.79605L14.7243 9.78516L14.7202 9.76367L14.7099 9.73926L14.5382 9.58691L14.3059 9.62598L14.2 9.82617L14.2165 9.91309L14.2257 9.93652L14.2442 9.95312C14.2453 9.96484 14.2473 9.97754 14.2514 9.98926L14.6051 11.25H13.4095L13.4068 11.2497C13.3924 11.2478 13.3788 11.2461 13.3643 11.2461L13.3617 11.2463L13.3616 11.2463C13.3501 11.2472 13.3377 11.2482 13.3263 11.25H10.7368V9.75C10.7368 8.78613 9.90933 8 8.89474 8H7.84211C7.29523 8 6.80489 8.22949 6.46669 8.59082C6.41632 8.5332 6.34231 8.5 6.26316 8.5C6.11822 8.5 6 8.6123 6 8.75C6 8.86035 6.07607 8.95703 6.18606 8.98828C6.06887 9.21973 6 9.47754 6 9.75V14.5752C6 14.9248 5.72656 15.2314 5.37808 15.249C4.99363 15.2686 4.68421 14.9844 4.68421 14.625C4.68215 14.4883 4.56497 14.3789 4.42105 14.3789C4.27714 14.3789 4.15995 14.4883 4.15789 14.625C4.15789 14.9844 3.84848 15.2686 3.46402 15.249C3.11554 15.2314 2.84211 14.9248 2.84211 14.5752V10.75C2.84211 10.6123 2.72389 10.5 2.57895 10.5H2.05263C1.75864 10.5 1.52632 10.2793 1.52632 10V6C1.52632 5.16895 2.23047 4.5 3.10526 4.5H5.73684C6.03495 4.5 6.3125 4.57812 6.54996 4.71387C6.63014 4.7627 6.73294 4.7666 6.81723 4.72363C6.90152 4.67969 6.95498 4.59668 6.95498 4.50586C6.956 4.41504 6.90461 4.33008 6.82134 4.28516C6.50473 4.10449 6.13261 4 5.73684 4H3.10526ZM6.78947 6C6.78947 5.1748 7.49979 4.5 8.36842 4.5C9.23705 4.5 9.94737 5.1748 9.94737 6C9.94737 6.8252 9.23705 7.5 8.36842 7.5C7.49979 7.5 6.78947 6.8252 6.78947 6ZM8.36842 5C8.95333 5 9.42105 5.44434 9.42105 6C9.42105 6.55566 8.95333 7 8.36842 7C7.78351 7 7.31579 6.55566 7.31579 6C7.31579 5.44434 7.78351 5 8.36842 5ZM2.31579 6.75C2.31579 6.6123 2.43401 6.5 2.57895 6.5C2.72389 6.5 2.84211 6.6123 2.84211 6.75C2.84211 6.8877 2.72389 7 2.57895 7C2.43401 7 2.31579 6.8877 2.31579 6.75ZM6.26316 6.5C6.11822 6.5 6 6.6123 6 6.75C6 6.8877 6.11822 7 6.26316 7C6.4081 7 6.52632 6.8877 6.52632 6.75C6.52632 6.6123 6.4081 6.5 6.26316 6.5ZM13.1875 6.74121L13.4188 6.70117L13.5915 6.85449L13.6007 6.87793L13.6162 6.96484L13.5113 7.16504L13.278 7.2041L13.1063 7.05078L13.097 7.02734L13.0806 6.94043L13.1875 6.74121ZM2.57895 7.5C2.43401 7.5 2.31579 7.6123 2.31579 7.75C2.31579 7.8877 2.43401 8 2.57895 8C2.72389 8 2.84211 7.8877 2.84211 7.75C2.84211 7.6123 2.72389 7.5 2.57895 7.5ZM6 7.75C6 7.6123 6.11822 7.5 6.26316 7.5C6.4081 7.5 6.52632 7.6123 6.52632 7.75C6.52632 7.8877 6.4081 8 6.26316 8C6.11822 8 6 7.8877 6 7.75ZM13.7919 7.66309L13.5606 7.70215L13.4548 7.90234L13.4712 7.98926L13.4794 8.0127L13.6521 8.16602L13.8834 8.12695L13.9893 7.92676L13.9729 7.83984L13.9646 7.81641L13.7919 7.66309ZM2.31579 8.75C2.31579 8.6123 2.43401 8.5 2.57895 8.5C2.72389 8.5 2.84211 8.6123 2.84211 8.75C2.84211 8.8877 2.72389 9 2.57895 9C2.43401 9 2.31579 8.8877 2.31579 8.75ZM7.8421 8.5H8.89474C9.62459 8.5 10.2105 9.05664 10.2105 9.75V11.458C10.2054 11.4854 10.2054 11.5127 10.2105 11.5391V12C10.2105 12.1416 10.0964 12.25 9.94737 12.25H9.42105C9.27611 12.25 9.15789 12.3623 9.15789 12.5V15C9.15789 15.1416 9.04379 15.25 8.89474 15.25H7.8421C7.69305 15.25 7.57895 15.1416 7.57895 15V12.5C7.57895 12.3623 7.46073 12.25 7.31579 12.25H6.78947C6.64042 12.25 6.52632 12.1416 6.52632 12V9.75C6.52632 9.05664 7.11225 8.5 7.8421 8.5ZM13.9328 8.66406L14.1661 8.625L14.3378 8.77832L14.347 8.80176L14.3635 8.8877L14.2566 9.08887L14.0253 9.12793L13.8526 8.97461L13.8433 8.95117L13.8279 8.86426L13.9328 8.66406ZM2.57895 9.5C2.43401 9.5 2.31579 9.6123 2.31579 9.75C2.31579 9.8877 2.43401 10 2.57895 10C2.72389 10 2.84211 9.8877 2.84211 9.75C2.84211 9.6123 2.72389 9.5 2.57895 9.5ZM4.15789 10.5C4.15789 10.3623 4.27611 10.25 4.42105 10.25C4.566 10.25 4.68421 10.3623 4.68421 10.5C4.68421 10.6377 4.566 10.75 4.42105 10.75C4.27611 10.75 4.15789 10.6377 4.15789 10.5ZM7.31579 10.25C7.17085 10.25 7.05263 10.3623 7.05263 10.5C7.05263 10.6377 7.17085 10.75 7.31579 10.75C7.46073 10.75 7.57895 10.6377 7.57895 10.5C7.57895 10.3623 7.46073 10.25 7.31579 10.25ZM9.1579 10.5C9.1579 10.3623 9.27611 10.25 9.42105 10.25C9.566 10.25 9.68421 10.3623 9.68421 10.5C9.68421 10.6377 9.566 10.75 9.42105 10.75C9.27611 10.75 9.1579 10.6377 9.1579 10.5ZM4.42105 11.25C4.27611 11.25 4.15789 11.3623 4.15789 11.5C4.15789 11.6377 4.27611 11.75 4.42105 11.75C4.566 11.75 4.68421 11.6377 4.68421 11.5C4.68421 11.3623 4.566 11.25 4.42105 11.25ZM7.05263 11.5C7.05263 11.3623 7.17085 11.25 7.31579 11.25C7.46073 11.25 7.57895 11.3623 7.57895 11.5C7.57895 11.6377 7.46073 11.75 7.31579 11.75C7.17085 11.75 7.05263 11.6377 7.05263 11.5ZM9.42105 11.25C9.27611 11.25 9.1579 11.3623 9.1579 11.5C9.1579 11.6377 9.27611 11.75 9.42105 11.75C9.566 11.75 9.68421 11.6377 9.68421 11.5C9.68421 11.3623 9.566 11.25 9.42105 11.25ZM11.5263 11.75H10.7368V12C10.7368 12.2188 10.634 12.416 10.4737 12.5537V14.75C10.4737 15.0293 10.706 15.25 11 15.25C11.294 15.25 11.5263 15.0293 11.5263 14.75C11.5284 14.6133 11.6456 14.5039 11.7895 14.5039C11.9334 14.5039 12.0506 14.6133 12.0526 14.75C12.0526 15.0293 12.285 15.25 12.5789 15.25C12.8729 15.25 13.1053 15.0293 13.1053 14.75V11.75H12.0526C12.0526 11.8877 11.9344 12 11.7895 12C11.6445 12 11.5263 11.8877 11.5263 11.75ZM4.42105 12.25C4.27611 12.25 4.15789 12.3623 4.15789 12.5C4.15789 12.6377 4.27611 12.75 4.42105 12.75C4.566 12.75 4.68421 12.6377 4.68421 12.5C4.68421 12.3623 4.566 12.25 4.42105 12.25ZM11.5263 12.75C11.5263 12.6123 11.6445 12.5 11.7895 12.5C11.9344 12.5 12.0526 12.6123 12.0526 12.75C12.0526 12.8877 11.9344 13 11.7895 13C11.6445 13 11.5263 12.8877 11.5263 12.75ZM4.42105 13.25C4.27611 13.25 4.15789 13.3623 4.15789 13.5C4.15789 13.6377 4.27611 13.75 4.42105 13.75C4.566 13.75 4.68421 13.6377 4.68421 13.5C4.68421 13.3623 4.566 13.25 4.42105 13.25ZM11.5263 13.75C11.5263 13.6123 11.6445 13.5 11.7895 13.5C11.9344 13.5 12.0526 13.6123 12.0526 13.75C12.0526 13.8877 11.9344 14 11.7895 14C11.6445 14 11.5263 13.8877 11.5263 13.75Z" fill="#444B54"/>
</g>
</svg>
