<svg width="16" height="16" viewBox="0 0 16 16" fill="none" xmlns="http://www.w3.org/2000/svg">
<path fill-rule="evenodd" clip-rule="evenodd" d="M11.7392 8.57391C11.7392 8.57391 11.5797 8.22608 11.4911 8.05217L9.0101 2.71304L7.98226 4.34782L5.90884 0.695648L2.4177 7.96521C2.31137 8.15652 2.22276 8.34782 2.13415 8.53913C1.90377 9.11304 1.77972 9.73913 1.77972 10.4C1.77972 13.2 4.08352 15.4609 6.93669 15.4609C9.78985 15.4609 12.0936 13.2 12.0936 10.4C12.0936 9.75652 11.9696 9.14782 11.7392 8.57391Z" fill="#F8E390"/>
<path fill-rule="evenodd" clip-rule="evenodd" d="M6.93669 13.4609C4.43795 13.4609 2.36453 11.7217 1.88605 9.40869C1.81517 9.73913 1.77972 10.0696 1.77972 10.4174C1.77972 13.2174 4.08352 15.4783 6.93669 15.4783C9.78985 15.4783 12.0936 13.2174 12.0936 10.4174C12.0936 10.0696 12.0582 9.73913 11.9873 9.40869C11.5088 11.7217 9.43542 13.4609 6.93669 13.4609Z" fill="#FF697B"/>
<path fill-rule="evenodd" clip-rule="evenodd" d="M6.93671 13.4609C5.51899 13.4609 4.34937 12.3304 4.34937 10.9217C4.34937 10.6087 4.40253 10.313 4.52658 10.0174C4.57974 9.89564 4.63291 9.7739 4.66835 9.72173L4.7038 9.65216L4.88101 9.28695L5.85569 10.8L7.94683 7.09564L9.1519 9.59999L9.20506 9.70434C9.25823 9.79129 9.29367 9.87825 9.34683 9.9826C9.47088 10.2783 9.52405 10.5913 9.52405 10.9217C9.52405 12.313 8.37215 13.4609 6.93671 13.4609Z" fill="white"/>
<path fill-rule="evenodd" clip-rule="evenodd" d="M1.24811 10.4174C1.24811 13.4956 3.80001 16 6.93672 16C10.0734 16 12.6253 13.4956 12.6253 10.4174C12.6253 9.72172 12.5013 9.06085 12.2532 8.41738C12.2532 8.40868 12.2487 8.39998 12.2443 8.39129C12.2399 8.38259 12.2354 8.3739 12.2354 8.3652C12.23 8.35445 12.2127 8.31548 12.1887 8.26161C12.1352 8.14115 12.0486 7.94625 11.9873 7.82607L9.47089 2.48694C9.40001 2.31303 9.22279 2.20868 9.02785 2.19129C8.83292 2.1739 8.6557 2.27825 8.54937 2.43477L8.00001 3.30433L6.36963 0.434768C6.28102 0.278246 6.08608 0.156507 5.89115 0.173898C5.69621 0.173898 5.51899 0.295637 5.43039 0.46955L1.93925 7.73912C1.83292 7.93042 1.72659 8.13911 1.63798 8.3652V8.38259C1.37216 9.02607 1.24811 9.72172 1.24811 10.4174Z" fill="#444B54"/>
<path fill-rule="evenodd" clip-rule="evenodd" d="M11.8279 16H1.62027C1.319 16 1.08862 15.7739 1.08862 15.4783C1.08862 15.1826 1.319 14.9565 1.62027 14.9565H11.8279C12.1291 14.9565 12.3595 15.1826 12.3595 15.4783C12.3595 15.7739 12.1291 16 11.8279 16Z" fill="#444B54"/>
</svg>
