<svg width="64" height="64" viewBox="0 0 64 64" fill="none" xmlns="http://www.w3.org/2000/svg">
<g id="Gallery">
<g id="Group 3" opacity="0.9">
<g id="icons8-photo-gallery (1)">
<g id="Group">
<path id="Shape" d="M57.0588 55.3101L20 61.8275C16.8235 62.4147 13.7647 60.2422 13.1764 57.0716L6.23527 17.7321C5.64703 14.5615 7.8235 11.5083 11 10.9211L48.0588 4.40369L57.0588 55.3101Z" fill="white"/>
<path id="Shape_2" d="M18.9412 63.6477C17.4118 63.6477 15.8824 63.178 14.5883 62.2972C12.9412 61.1229 11.7647 59.3614 11.4118 57.3651L4.47061 18.0257C3.76473 13.9156 6.52943 9.92291 10.6471 9.15961L12.5294 8.80732C13.4706 8.63117 14.4118 9.27704 14.5883 10.2165C14.7647 11.1559 14.1177 12.0954 13.1765 12.2715L11.2941 12.6238C9.05885 13.0348 7.58826 15.1486 7.9412 17.3798L14.8824 56.7192C15.0588 57.7761 15.6471 58.7156 16.5883 59.3614C17.4706 60.0073 18.5883 60.2422 19.6471 60.066L33.7059 57.6C34.6471 57.4238 35.5883 58.0697 35.7647 59.0092C35.9412 59.9486 35.2941 60.8881 34.353 61.0642L20.2941 63.5303C19.8236 63.589 19.353 63.6477 18.9412 63.6477Z" fill="#444B54"/>
<path id="Shape_3" d="M56.3529 53.4312H24.5882C21.3529 53.4312 18.7058 50.789 18.7058 47.5596V7.63303C18.7058 4.40368 21.3529 1.76147 24.5882 1.76147H56.3529C59.5882 1.76147 62.2352 4.40368 62.2352 7.63303V47.5596C62.2352 50.789 59.5882 53.4312 56.3529 53.4312Z" fill="white"/>
<rect id="Rectangle-path" x="24.5884" y="7.63306" width="31.7647" height="34.055" fill="#42B4AD"/>
<path id="Shape_4" d="M56.3513 0C60.5865 0 63.9996 3.40539 63.9998 7.63281V47.5586C63.9998 51.7861 60.5866 55.1914 56.3513 55.1914H24.5896C20.3543 55.1914 16.9412 51.7861 16.9412 47.5586V7.63281C16.9413 3.40539 20.3544 0 24.5896 0H56.3513ZM24.5896 3.52344C22.2956 3.52344 20.4725 5.34301 20.4724 7.63281V47.5586C20.4724 49.8485 22.2955 51.668 24.5896 51.668H56.3513C58.6454 51.668 60.4724 49.8485 60.4724 47.5586V7.63281C60.4723 5.34301 58.6454 3.52344 56.3513 3.52344H24.5896Z" fill="#444B54"/>
</g>
<path id="Oval" d="M31.3372 22.0444C32.5137 22.0444 33.4674 21.0893 33.4674 19.9111C33.4674 18.7329 32.5137 17.7778 31.3372 17.7778C30.1607 17.7778 29.207 18.7329 29.207 19.9111C29.207 21.0893 30.1607 22.0444 31.3372 22.0444Z" fill="white"/>
<path id="Oval_2" d="M49.7989 22.0444C50.9753 22.0444 51.9291 21.0893 51.9291 19.9111C51.9291 18.7329 50.9753 17.7778 49.7989 17.7778C48.6224 17.7778 47.6687 18.7329 47.6687 19.9111C47.6687 21.0893 48.6224 22.0444 49.7989 22.0444Z" fill="white"/>
</g>
<path id="Shape_5" d="M37.3728 21.6889C37.8857 22.5222 39.1202 23.1111 40.5681 23.1111C42.0159 23.1111 43.2505 22.5222 43.7633 21.6889" stroke="white" stroke-width="0.5" stroke-linecap="round"/>
</g>
</g>
</svg>
