<svg width="16" height="16" viewBox="0 0 16 16" fill="none" xmlns="http://www.w3.org/2000/svg">
<g id="Generic">
<g id="icons8-sign-document">
<path id="Shape" d="M12.9836 0.393443H5.90162C5.18031 0.393443 4.59015 0.983607 4.59015 1.70492V13.5082C4.59015 14.2295 5.18031 14.8197 5.90162 14.8197H14.2951C15.0164 14.8197 15.6065 14.2295 15.6065 13.5082V3.01639C15.6065 1.57377 14.4262 0.393443 12.9836 0.393443Z" fill="white"/>
<g id="Group">
<path id="Shape_2" d="M10.7803 9.96721H6.97706C6.75411 9.96721 6.58362 9.79672 6.58362 9.57377C6.58362 9.35082 6.75411 9.18033 6.97706 9.18033H10.7803C11.0033 9.18033 11.1738 9.35082 11.1738 9.57377C11.1738 9.79672 11.0033 9.96721 10.7803 9.96721Z" fill="#7BCAC5"/>
<g id="Group_2">
<path id="Shape_3" d="M12.7213 6.03279H6.95082C6.72786 6.03279 6.55737 5.8623 6.55737 5.63934C6.55737 5.41639 6.72786 5.2459 6.95082 5.2459H12.7213C12.9443 5.2459 13.1147 5.41639 13.1147 5.63934C13.1147 5.8623 12.9443 6.03279 12.7213 6.03279Z" fill="#7BCAC5"/>
<path id="Shape_4" d="M12.7213 8H6.95082C6.72786 8 6.55737 7.82951 6.55737 7.60656C6.55737 7.38361 6.72786 7.21311 6.95082 7.21311H12.7213C12.9443 7.21311 13.1147 7.38361 13.1147 7.60656C13.1147 7.82951 12.9443 8 12.7213 8Z" fill="#7BCAC5"/>
<path id="Shape_5" d="M12.7476 9.96721H12.7213C12.4984 9.96721 12.3279 9.79672 12.3279 9.57377C12.3279 9.35082 12.4984 9.18033 12.7213 9.18033H12.7476C12.9705 9.18033 13.141 9.35082 13.141 9.57377C13.141 9.79672 12.9705 9.96721 12.7476 9.96721Z" fill="#7BCAC5"/>
</g>
</g>
<path id="Shape_6" d="M4.59014 15.2131C4.56391 15.2131 4.53768 15.2131 4.51145 15.2C4.48523 15.2 4.459 15.1869 4.43277 15.1738C4.40654 15.1607 4.38031 15.1475 4.36719 15.1344C4.34096 15.1213 4.32785 15.1082 4.30162 15.082C4.2885 15.0689 4.26227 15.0426 4.24916 15.0295C4.23604 15.0033 4.22293 14.9902 4.20982 14.9639C4.1967 14.9377 4.1967 14.9115 4.18359 14.8852C4.18359 14.859 4.17047 14.8328 4.17047 14.8066C4.17047 14.7016 4.20982 14.5967 4.2885 14.5311C4.38031 14.4393 4.51145 14.4 4.6426 14.4262C4.66883 14.4262 4.69506 14.4393 4.72129 14.4525C4.74752 14.4656 4.77375 14.4787 4.78686 14.4918C4.81309 14.5049 4.82621 14.518 4.85244 14.5443C4.93113 14.623 4.97047 14.7148 4.97047 14.8197C4.97047 14.9246 4.93113 15.0295 4.85244 15.0951C4.83932 15.1082 4.81309 15.1344 4.78686 15.1475C4.76064 15.1607 4.74752 15.1738 4.72129 15.1869C4.69506 15.2 4.66883 15.2 4.6426 15.2131C4.6426 15.2131 4.61637 15.2131 4.59014 15.2131Z" fill="#444B54"/>
<path id="Shape_7" d="M6.50489 15.2131C6.41309 15.2131 6.32129 15.1869 6.25571 15.1213C6.08522 14.977 6.07211 14.7279 6.21637 14.5705L6.5967 14.1246C6.76719 13.8623 7.05571 13.7049 7.35735 13.718C7.65899 13.7311 7.92129 13.9016 8.06555 14.177L8.18358 14.4C8.18358 14.4131 8.1967 14.4262 8.22293 14.4262C8.24915 14.4262 8.26227 14.4131 8.26227 14.4L8.53768 13.5213C8.65571 13.1541 8.97047 12.8918 9.35079 12.8656C9.73112 12.8262 10.0983 13.023 10.2688 13.3639L10.6623 14.1115C10.741 14.2557 10.8721 14.3475 11.0295 14.3738C11.1869 14.4 11.3442 14.3475 11.4623 14.2295C11.6196 14.0721 11.8688 14.0721 12.0131 14.2295C12.1574 14.3869 12.1705 14.6361 12.0131 14.7803C11.7246 15.0689 11.318 15.2 10.9114 15.1475C10.5049 15.082 10.1639 14.8459 9.96719 14.4787L9.57374 13.7311C9.5344 13.6525 9.45571 13.6393 9.41637 13.6525C9.37702 13.6525 9.31145 13.6787 9.28522 13.7574L9.00981 14.6361C8.90489 14.9639 8.62948 15.1869 8.2885 15.2131C7.94752 15.2393 7.63276 15.0557 7.47538 14.7541L7.35735 14.5311C7.34424 14.5049 7.33112 14.5049 7.33112 14.5049C7.31801 14.5049 7.27866 14.518 7.25243 14.5574C7.23932 14.5705 7.2262 14.5967 7.21309 14.6098L6.81965 15.0689C6.72784 15.1607 6.62293 15.2131 6.50489 15.2131Z" fill="#444B54"/>
<path id="Shape_8" d="M15.6065 3.01639H14.2951C13.5737 3.01639 12.9836 2.42623 12.9836 1.70492V0.393443C14.4262 0.393443 15.6065 1.57377 15.6065 3.01639Z" fill="white"/>
<path id="Shape_9" d="M15.6065 3.40984C15.3836 3.40984 15.2131 3.23934 15.2131 3.01639C15.2131 2.42623 14.977 1.8623 14.5574 1.44262C14.1377 1.02295 13.5738 0.786885 12.9836 0.786885C12.7606 0.786885 12.5901 0.616393 12.5901 0.393443C12.5901 0.170492 12.7606 0 12.9836 0C13.7967 0 14.5442 0.314754 15.1213 0.891803C15.6852 1.46885 16 2.21639 16 3.02951C16 3.23934 15.8164 3.40984 15.6065 3.40984Z" fill="#7BCAC5"/>
<path id="Shape_10" d="M14.0065 15.2131C13.7836 15.2131 13.6131 15.0426 13.6131 14.8197C13.6131 14.5967 13.7836 14.4262 14.0065 14.4262C14.7147 14.4262 15.1869 14.059 15.1869 13.5082L15.2 4.72131C15.2 4.49836 15.3705 4.32787 15.5934 4.32787C15.8164 4.32787 15.9869 4.49836 15.9869 4.72131L15.9738 13.5082C15.9738 14.4918 15.1475 15.2131 14.0065 15.2131Z" fill="#7BCAC5"/>
<path id="Shape_11" d="M15.6065 3.40984H14.2951C13.3508 3.40984 12.5901 2.64918 12.5901 1.70492V0.786885H5.90162C5.67867 0.786885 5.50818 0.616393 5.50818 0.393443C5.50818 0.170492 5.67867 0 5.90162 0H12.9836C13.2065 0 13.377 0.170492 13.377 0.393443V1.70492C13.377 2.21639 13.7836 2.62295 14.2951 2.62295H15.6065C15.8295 2.62295 16 2.79344 16 3.01639C16 3.23934 15.8295 3.40984 15.6065 3.40984Z" fill="#7BCAC5"/>
<g id="Group_3">
<path id="Shape_12" d="M2.46556 13.2984L1.70491 14.8197L0.944252 13.2984C0.577039 12.577 0.393433 11.777 0.393433 10.9639V1.70492C0.393433 0.983607 0.983597 0.393443 1.70491 0.393443C2.42622 0.393443 3.01638 0.983607 3.01638 1.70492V10.9639C3.01638 11.777 2.83278 12.577 2.46556 13.2984Z" fill="white"/>
<path id="Shape_13" d="M2.2295 10.0459C2.00655 10.0459 1.83606 9.87541 1.83606 9.65246V2.36066C1.83606 2.1377 2.00655 1.96721 2.2295 1.96721C2.45245 1.96721 2.62294 2.1377 2.62294 2.36066V9.65246C2.62294 9.8623 2.45245 10.0459 2.2295 10.0459Z" fill="#7BCAC5"/>
<path id="Shape_14" d="M1.70508 0C2.64927 8.59729e-05 3.41016 0.760869 3.41016 1.70508V1.84961C4.28868 1.91535 4.9834 2.64933 4.9834 3.54102V7.08203C4.98337 7.30495 4.81277 7.47559 4.58984 7.47559C4.36707 7.47542 4.19632 7.30484 4.19629 7.08203V3.54102C4.19629 3.08209 3.85593 2.70143 3.41016 2.63574V10.9639C3.41016 11.8294 3.21278 12.7087 2.81934 13.4824L2.05859 15.0029C1.99304 15.1471 1.86238 15.2265 1.70508 15.2266C1.5477 15.2266 1.41616 15.1341 1.35059 15.0029L0.589844 13.4824C0.209516 12.7087 0 11.8294 0 10.9639V1.70508C0 0.760816 0.760816 0 1.70508 0ZM1.70508 0.787109C1.1936 0.787109 0.787109 1.1936 0.787109 1.70508V10.9639C0.787109 11.7114 0.970959 12.4591 1.29883 13.1279L1.70508 13.9414L2.11133 13.1279C2.4392 12.4591 2.62305 11.7114 2.62305 10.9639V1.70508C2.62305 1.19366 2.21648 0.787194 1.70508 0.787109Z" fill="#444B54"/>
</g>
</g>
</g>
</svg>
