<svg width="24" height="24" viewBox="0 0 24 24" fill="none" xmlns="http://www.w3.org/2000/svg">
<g id="Generic + 1">
<g id="icons8-sign-document">
<path id="Shape" d="M19.4754 0.590164H8.85244C7.77047 0.590164 6.88522 1.47541 6.88522 2.55738V20.2623C6.88522 21.3443 7.77047 22.2295 8.85244 22.2295H21.4426C22.5246 22.2295 23.4098 21.3443 23.4098 20.2623V4.52459C23.4098 2.36066 21.6393 0.590164 19.4754 0.590164Z" fill="white"/>
<g id="Group">
<path id="Shape_2" d="M16.1705 14.9508H10.4656C10.1312 14.9508 9.87543 14.6951 9.87543 14.3607C9.87543 14.0262 10.1312 13.7705 10.4656 13.7705H16.1705C16.5049 13.7705 16.7607 14.0262 16.7607 14.3607C16.7607 14.6951 16.5049 14.9508 16.1705 14.9508Z" fill="#7BCAC5"/>
<g id="Group_2">
<path id="Shape_3" d="M19.082 9.04918H10.4262C10.0918 9.04918 9.83606 8.79344 9.83606 8.45902C9.83606 8.12459 10.0918 7.86885 10.4262 7.86885H19.082C19.4164 7.86885 19.6721 8.12459 19.6721 8.45902C19.6721 8.79344 19.4164 9.04918 19.082 9.04918Z" fill="#7BCAC5"/>
<path id="Shape_4" d="M19.082 12H10.4262C10.0918 12 9.83606 11.7443 9.83606 11.4098C9.83606 11.0754 10.0918 10.8197 10.4262 10.8197H19.082C19.4164 10.8197 19.6721 11.0754 19.6721 11.4098C19.6721 11.7443 19.4164 12 19.082 12Z" fill="#7BCAC5"/>
<path id="Shape_5" d="M19.1213 14.9508H19.082C18.7476 14.9508 18.4918 14.6951 18.4918 14.3607C18.4918 14.0262 18.7476 13.7705 19.082 13.7705H19.1213C19.4558 13.7705 19.7115 14.0262 19.7115 14.3607C19.7115 14.6951 19.4558 14.9508 19.1213 14.9508Z" fill="#7BCAC5"/>
</g>
</g>
<path id="Shape_6" d="M6.88521 22.8197C6.84587 22.8197 6.80653 22.8197 6.76718 22.8C6.72784 22.8 6.68849 22.7803 6.64915 22.7607C6.60981 22.741 6.57046 22.7213 6.55079 22.7016C6.51144 22.682 6.49177 22.6623 6.45243 22.623C6.43276 22.6033 6.39341 22.5639 6.37374 22.5443C6.35407 22.5049 6.3344 22.4852 6.31472 22.4459C6.29505 22.4066 6.29505 22.3672 6.27538 22.3279C6.27538 22.2885 6.25571 22.2492 6.25571 22.2098C6.25571 22.0525 6.31472 21.8951 6.43276 21.7967C6.57046 21.659 6.76718 21.6 6.9639 21.6393C7.00325 21.6393 7.04259 21.659 7.08194 21.6787C7.12128 21.6984 7.16062 21.718 7.1803 21.7377C7.21964 21.7574 7.23931 21.777 7.27866 21.8164C7.39669 21.9344 7.45571 22.0721 7.45571 22.2295C7.45571 22.3869 7.39669 22.5443 7.27866 22.6426C7.25899 22.6623 7.21964 22.7016 7.1803 22.7213C7.14095 22.741 7.12128 22.7607 7.08194 22.7803C7.04259 22.8 7.00325 22.8 6.9639 22.8197C6.9639 22.8197 6.92456 22.8197 6.88521 22.8197Z" fill="#444B54"/>
<path id="Shape_7" d="M9.75734 22.8197C9.61963 22.8197 9.48193 22.7803 9.38357 22.682C9.12783 22.4656 9.10816 22.0918 9.32455 21.8557L9.89504 21.1869C10.1508 20.7934 10.5836 20.5574 11.036 20.577C11.4885 20.5967 11.8819 20.8525 12.0983 21.2656L12.2754 21.6C12.2754 21.6197 12.295 21.6393 12.3344 21.6393C12.3737 21.6393 12.3934 21.6197 12.3934 21.6L12.8065 20.282C12.9836 19.7311 13.4557 19.3377 14.0262 19.2984C14.5967 19.2393 15.1475 19.5344 15.4032 20.0459L15.9934 21.1672C16.1114 21.3836 16.3082 21.5213 16.5442 21.5607C16.7803 21.6 17.0164 21.5213 17.1934 21.3443C17.4295 21.1082 17.8032 21.1082 18.0196 21.3443C18.236 21.5803 18.2557 21.9541 18.0196 22.1705C17.5868 22.6033 16.977 22.8 16.3672 22.7213C15.7573 22.623 15.2459 22.2689 14.9508 21.718L14.3606 20.5967C14.3016 20.4787 14.1836 20.459 14.1246 20.4787C14.0655 20.4787 13.9672 20.518 13.9278 20.6361L13.5147 21.9541C13.3573 22.4459 12.9442 22.7803 12.4327 22.8197C11.9213 22.859 11.4491 22.5836 11.2131 22.1311L11.036 21.7967C11.0164 21.7574 10.9967 21.7574 10.9967 21.7574C10.977 21.7574 10.918 21.777 10.8787 21.8361C10.859 21.8557 10.8393 21.8951 10.8196 21.9148L10.2295 22.6033C10.0918 22.741 9.93439 22.8197 9.75734 22.8197Z" fill="#444B54"/>
<path id="Shape_8" d="M23.4098 4.52459H21.4426C20.3606 4.52459 19.4754 3.63934 19.4754 2.55738V0.590164C21.6393 0.590164 23.4098 2.36066 23.4098 4.52459Z" fill="white"/>
<path id="Shape_9" d="M23.4098 5.11475C23.0754 5.11475 22.8196 4.85902 22.8196 4.52459C22.8196 3.63934 22.4656 2.79344 21.836 2.16393C21.2065 1.53443 20.3606 1.18033 19.4754 1.18033C19.141 1.18033 18.8852 0.92459 18.8852 0.590164C18.8852 0.255738 19.141 0 19.4754 0C20.6951 0 21.8164 0.472131 22.6819 1.3377C23.5278 2.20328 24 3.32459 24 4.54426C24 4.85902 23.7246 5.11475 23.4098 5.11475Z" fill="#7BCAC5"/>
<path id="Shape_10" d="M21.0098 22.8197C20.6754 22.8197 20.4196 22.5639 20.4196 22.2295C20.4196 21.8951 20.6754 21.6393 21.0098 21.6393C22.0721 21.6393 22.7803 21.0885 22.7803 20.2623L22.8 7.08197C22.8 6.74754 23.0557 6.4918 23.3901 6.4918C23.7246 6.4918 23.9803 6.74754 23.9803 7.08197L23.9606 20.2623C23.9606 21.7377 22.7213 22.8197 21.0098 22.8197Z" fill="#424242"/>
<path id="Shape_11" d="M23.4098 5.11475H21.4426C20.0262 5.11475 18.8852 3.97377 18.8852 2.55738V1.18033H8.85243C8.51801 1.18033 8.26227 0.92459 8.26227 0.590164C8.26227 0.255738 8.51801 0 8.85243 0H19.4754C19.8098 0 20.0655 0.255738 20.0655 0.590164V2.55738C20.0655 3.32459 20.6754 3.93443 21.4426 3.93443H23.4098C23.7442 3.93443 24 4.19016 24 4.52459C24 4.85902 23.7442 5.11475 23.4098 5.11475Z" fill="#424242"/>
<g id="Group_3">
<path id="Shape_12" d="M3.69835 19.9475L2.55736 22.2295L1.41638 19.9475C0.865559 18.8656 0.590149 17.6656 0.590149 16.4459V2.55738C0.590149 1.47541 1.47539 0.590164 2.55736 0.590164C3.63933 0.590164 4.52458 1.47541 4.52458 2.55738V16.4459C4.52458 17.6656 4.24917 18.8656 3.69835 19.9475Z" fill="white"/>
<path id="Shape_13" d="M3.34425 15.0689C3.00983 15.0689 2.75409 14.8131 2.75409 14.4787V3.54098C2.75409 3.20656 3.00983 2.95082 3.34425 2.95082C3.67868 2.95082 3.93442 3.20656 3.93442 3.54098V14.4787C3.93442 14.7934 3.67868 15.0689 3.34425 15.0689Z" fill="#7BCAC5"/>
<path id="Shape_14" d="M2.55762 0C3.9739 0.000128959 5.11523 1.1413 5.11523 2.55762V2.77441C6.43302 2.87303 7.4751 3.974 7.4751 5.31152V10.623C7.47505 10.9574 7.21916 11.2134 6.88477 11.2134C6.55061 11.2131 6.29448 10.9573 6.29443 10.623V5.31152C6.29443 4.62314 5.78389 4.05214 5.11523 3.95361V16.4458C5.11523 17.7442 4.81917 19.063 4.229 20.2236L3.08789 22.5044C2.98956 22.7207 2.79358 22.8398 2.55762 22.8398C2.32155 22.8398 2.12424 22.7011 2.02588 22.5044L0.884766 20.2236C0.314274 19.063 0 17.7442 0 16.4458V2.55762C0 1.14122 1.14122 0 2.55762 0ZM2.55762 1.18066C1.7904 1.18066 1.18066 1.7904 1.18066 2.55762V16.4458C1.18066 17.5671 1.45644 18.6886 1.94824 19.6919L2.55762 20.9121L3.16699 19.6919C3.6588 18.6886 3.93457 17.5671 3.93457 16.4458V2.55762C3.93457 1.79048 3.32472 1.18079 2.55762 1.18066Z" fill="#444B54"/>
</g>
</g>
</g>
</svg>
