<svg width="16" height="16" viewBox="0 0 16 16" fill="none" xmlns="http://www.w3.org/2000/svg">
<g id="Globe">
<g id="icons8-globe-earth">
<path id="Oval" fill-rule="evenodd" clip-rule="evenodd" d="M13.4404 10.5523C14.8407 7.54904 13.5414 3.97923 10.5382 2.57885C7.53496 1.17848 3.96515 2.47784 2.56477 5.48105C1.1644 8.48427 2.46376 12.0541 5.46697 13.4545C8.47019 14.8548 12.04 13.5555 13.4404 10.5523Z" fill="white"/>
<path id="Path" fill-rule="evenodd" clip-rule="evenodd" d="M9.18666 8.98666C8.87999 9.41332 10.48 10.7067 11.0133 10.4533C11.92 10.0267 12.5067 9.14666 12.5067 8.81332C12.5067 8.49332 12.08 7.85332 10.6267 8.83999C10.2267 9.13332 9.49332 8.54666 9.18666 8.98666Z" fill="#ADF9D2"/>
<path id="Path_2" fill-rule="evenodd" clip-rule="evenodd" d="M13.88 6.78668C13.4533 4.72001 11.9733 3.04001 10.0266 2.34668C10.0133 2.34668 10.0133 2.34668 9.99996 2.33334L10.0266 3.48001C10.0266 3.77334 9.8533 4.05334 9.5733 4.17334C8.9733 4.44001 8.3733 4.29334 8.11996 4.98668C7.9333 5.50668 8.46663 6.90668 9.1333 6.90668C9.9733 6.90668 10.3866 5.21334 10.6266 5.21334C10.7866 5.21334 11.04 5.73334 11.3333 6.10668C11.5333 6.36001 11.84 6.50668 12.16 6.50668H12.72L13.88 6.78668Z" fill="#ADF9D2"/>
<path id="Path_3" fill-rule="evenodd" clip-rule="evenodd" d="M4.04 12.5067C4.46667 12.88 5.08 12.9333 5.56 12.6667C5.76 12.56 5.96 12.4267 6.18667 12.2667C6.34667 12.16 6.46667 12.0133 6.57333 11.8533C6.68 11.6667 6.81333 11.44 6.88 11.2133C7.30667 9.57332 5.89333 9.50666 5.85333 9.14666C5.8 8.73332 6.33333 8.43999 6.65333 8.11999C6.97333 7.79999 7.06667 7.30666 6.90667 7.02666C6.37333 6.07999 5.13333 6.58666 5.02667 7.58666C4.96 8.18666 4.6 8.79999 4.29333 9.10666C3.98667 9.41332 3.38667 9.25332 3.22667 8.79999C3.04 8.29332 3.69333 8.10666 3.58667 7.46666C3.56 7.29332 3.38667 7.21332 3.16 7.17332L2.08 7.21332C2.01333 7.46666 2 7.73332 2 7.99999C2 9.34666 2.44 10.5733 3.18667 11.5733C3.18667 11.5733 4.04 12.3867 4.04 12.5067Z" fill="#ADF9D2"/>
<path id="Shape" fill-rule="evenodd" clip-rule="evenodd" d="M11.3733 2.57331C12.6 3.33331 13.52 4.45331 14.0133 5.82665C14.6667 7.59998 14.5067 9.53331 13.5333 11.1733C12.88 12.3333 11.88 13.2533 10.68 13.8C9.81333 14.2 8.89333 14.4 7.98666 14.4C7.35999 14.4 6.71999 14.2933 6.10666 14.1066C5.89333 14.04 5.69333 14.24 5.77333 14.4533C5.81333 14.56 5.86666 14.6666 5.94666 14.76C6.15999 15.04 6.50666 15.1866 6.85333 15.1866H10.7867C11.0267 15.1866 11.2267 15.4266 11.1733 15.68C11.1333 15.8666 10.9467 15.9866 10.76 15.9866H6.82666H6.79999H6.78666H4.15999C3.93333 15.9866 3.74666 15.7866 3.75999 15.56C3.77333 15.3466 3.97333 15.1866 4.18666 15.1866H5.26666C4.99999 14.8133 4.87999 14.3466 4.91999 13.8933C4.93333 13.7466 4.86666 13.5866 4.73333 13.5066C3.46666 12.76 2.50666 11.6 1.98666 10.2C1.37333 8.49331 1.49333 6.65331 2.33333 5.03998C3.01333 3.75998 4.11999 2.71998 5.45333 2.14665C6.93333 1.50665 8.53333 1.43998 10.0267 1.93331C10.2133 1.98665 10.4267 1.90665 10.5067 1.71998L10.6933 1.31998C10.7867 1.10665 11.04 1.02665 11.24 1.13331C11.4267 1.23998 11.4933 1.47998 11.4 1.67998L11.2133 2.06665C11.1333 2.25331 11.2 2.46665 11.3733 2.57331ZM9.91999 13.2666C11.32 12.76 12.4533 11.7333 13.08 10.3733C13.7067 9.02665 13.7733 7.50665 13.2667 6.09331C12.76 4.69331 11.7333 3.55998 10.3733 2.93331C9.62666 2.57331 8.81333 2.39998 8.01333 2.39998C7.35999 2.39998 6.71999 2.51998 6.09333 2.74665C4.69333 3.25331 3.55999 4.27998 2.93333 5.63998C2.29333 6.99998 2.23999 8.50665 2.74666 9.91998C3.25333 11.3333 4.27999 12.4533 5.63999 13.08C6.99999 13.7066 8.51999 13.7733 9.91999 13.2666Z" fill="#444B54"/>
<path id="Oval_2" fill-rule="evenodd" clip-rule="evenodd" d="M2.13328 16C2.35419 16 2.53328 15.8209 2.53328 15.6C2.53328 15.3791 2.35419 15.2 2.13328 15.2C1.91236 15.2 1.73328 15.3791 1.73328 15.6C1.73328 15.8209 1.91236 16 2.13328 16Z" fill="#3F4A54"/>
</g>
</g>
</svg>
