<svg width="24" height="24" viewBox="0 0 24 24" fill="none" xmlns="http://www.w3.org/2000/svg">
<g id="Happy">
<g id="icons8-lol (1)">
<g id="Group">
<path id="Oval" d="M11.9665 23.5814C18.3227 23.5814 23.4753 18.4287 23.4753 12.0726C23.4753 5.71642 18.3227 0.563736 11.9665 0.563736C5.61035 0.563736 0.457672 5.71642 0.457672 12.0726C0.457672 18.4287 5.61035 23.5814 11.9665 23.5814Z" fill="#FDFCEE"/>
<path id="Shape" d="M11.9665 0.173035C18.528 0.173035 23.8654 5.5105 23.8654 12.072C23.8654 18.6334 18.528 23.9724 11.9665 23.9724C5.40503 23.9723 0.0675659 18.6334 0.0675659 12.072C0.0678964 5.51077 5.40523 0.173062 11.9665 0.173035ZM11.9665 0.953796C5.83649 0.953824 0.848355 5.94195 0.848328 12.072C0.848328 18.2025 5.83647 23.1901 11.9665 23.1901C18.0971 23.1901 23.0847 18.2026 23.0847 12.072C23.0846 5.94194 18.0971 0.953796 11.9665 0.953796Z" fill="#515151"/>
</g>
<g id="Group_2">
<g id="Group_3">
<path id="Oval_2" d="M11.9666 21.59C17.2229 21.59 21.484 17.3289 21.484 12.0726C21.484 6.81627 17.2229 2.55519 11.9666 2.55519C6.7103 2.55519 2.44922 6.81627 2.44922 12.0726C2.44922 17.3289 6.7103 21.59 11.9666 21.59Z" fill="#FFDDA7"/>
<path id="Shape_2" d="M11.9671 2.33137C17.3379 2.33167 21.7083 6.70179 21.7083 12.0726C21.708 17.4431 17.3377 21.8135 11.9671 21.8138C6.59634 21.8138 2.22623 17.4433 2.22592 12.0726C2.22592 6.7016 6.59616 2.33137 11.9671 2.33137ZM11.9671 2.77814C6.8423 2.77814 2.6727 6.9483 2.6727 12.0726C2.673 17.1977 6.84304 21.3655 11.9671 21.3655C17.0921 21.3652 21.2598 17.197 21.2601 12.0726C21.2601 6.94849 17.0917 2.77845 11.9671 2.77814Z" fill="#472B29"/>
</g>
<path id="Shape_3" opacity="0.79" d="M11.9789 4.02643C16.2274 4.02643 19.8352 6.79704 21.1999 10.6666C20.4391 6.15071 16.6053 2.71257 11.9789 2.71257C7.35245 2.71257 3.51859 6.15071 2.75784 10.6666C4.12249 6.79759 7.73031 4.02643 11.9789 4.02643Z" fill="#FBBF5C"/>
</g>
<g id="Group_4">
<g id="Group_5">
<path id="Shape_4" d="M8.9593 10.9909C8.21139 10.5042 7.23353 10.5678 6.5247 11.1505C5.81586 11.7327 5.56302 12.6798 5.89567 13.5076L5.37828 13.7157C4.95409 12.6614 5.27223 11.4575 6.17028 10.7196C7.06832 9.98179 8.3113 9.90309 9.26349 10.5243L8.9593 10.9909Z" fill="#684933"/>
<path id="Shape_5" fill-rule="evenodd" clip-rule="evenodd" d="M6.08085 10.6113C7.02578 9.83437 8.33603 9.75187 9.34012 10.4077L9.45585 10.4839L8.99882 11.1841L8.88163 11.1079C8.18584 10.6536 7.27406 10.715 6.61405 11.2588C5.95212 11.8024 5.71546 12.6853 6.02518 13.456L6.07645 13.5849L5.30009 13.8969L5.24882 13.768C4.8012 12.6574 5.136 11.3882 6.08085 10.6113ZM7.85917 10.2466C7.29356 10.2467 6.7276 10.4424 6.25956 10.8266C5.44523 11.4953 5.1338 12.5672 5.45975 13.5322L5.71757 13.4282C5.43738 12.577 5.71701 11.6325 6.43534 11.042C7.15422 10.452 8.1345 10.3619 8.91532 10.8017L9.06766 10.5674C8.69374 10.352 8.27605 10.2466 7.85917 10.2466Z" fill="#472B29"/>
</g>
<g id="Group_6">
<path id="Shape_6" d="M14.5653 6.38626C13.8173 5.89956 12.8395 5.96319 12.1307 6.54589C11.4218 7.12858 11.169 8.07519 11.5016 8.90291L10.9842 9.1111C10.56 8.05677 10.8782 6.85286 11.7762 6.115C12.6743 5.37714 13.9173 5.29845 14.8694 5.91965L14.5653 6.38626Z" fill="#684933"/>
<path id="Shape_7" fill-rule="evenodd" clip-rule="evenodd" d="M11.6868 6.00625C12.6328 5.23062 13.9426 5.14855 14.946 5.80263L15.0618 5.8788L14.6062 6.58046L14.489 6.50429C13.7931 6.05056 12.8804 6.11019 12.2185 6.65371C11.5572 7.19728 11.3215 8.08079 11.6311 8.85097L11.6838 8.98134L10.906 9.29189L10.8547 9.16298C10.4072 8.05178 10.7419 6.78257 11.6868 6.00625ZM13.4665 5.6415C12.9007 5.64156 12.3333 5.83855 11.864 6.22304C11.0507 6.89165 10.74 7.96243 11.0657 8.92714L11.3249 8.82314C11.0443 7.97212 11.3226 7.02889 12.0413 6.43837C12.7605 5.84857 13.7405 5.75725 14.5212 6.19668L14.6736 5.9623C14.2997 5.74749 13.8834 5.6415 13.4665 5.6415Z" fill="#472B29"/>
</g>
</g>
<g id="Group_7">
<g id="Group_8">
<path id="Shape_8" d="M18.3969 10.8893C18.6904 13.4523 17.4988 16.0839 15.1624 17.4765C13.5115 18.4599 11.5903 18.6407 9.85787 18.1446L9.30029 18.6184C11.2873 19.3055 13.5516 19.1509 15.4767 18.0039C18.1457 16.4138 19.4389 13.3418 18.9433 10.4249L18.3969 10.8893Z" fill="#684933"/>
<path id="Shape_9" d="M19.0811 10.401C19.5995 13.452 18.1804 16.5542 15.5493 18.1222C14.3856 18.8159 13.0687 19.1695 11.7393 19.1695C10.9058 19.1694 10.0666 19.0311 9.25488 18.7506L9.02344 18.67L9.82471 17.9889L9.89648 18.0094C11.6566 18.5127 13.5488 18.2756 15.0908 17.356C17.3121 16.0328 18.5565 13.5006 18.2593 10.9049L18.2505 10.8302L19.04 10.1593L19.0811 10.401ZM18.5435 10.9473C18.8214 13.6258 17.528 16.2294 15.2329 17.5963C13.6451 18.5415 11.7011 18.7957 9.89062 18.2979L9.58008 18.5631C11.5447 19.1703 13.6538 18.9271 15.4058 17.8834C17.868 16.416 19.2274 13.5505 18.8423 10.6925L18.5435 10.9473Z" fill="#472B29"/>
</g>
<g id="Group_9">
<path id="Oval_3" d="M9.68393 16.8029C9.7526 15.958 9.12333 15.2174 8.27844 15.1487C7.43354 15.0801 6.69296 15.7093 6.6243 16.5542C6.55563 17.3991 7.18489 18.1397 8.02979 18.2084C8.87468 18.277 9.61527 17.6478 9.68393 16.8029Z" fill="#EE3E54"/>
<path id="Shape_10" fill-rule="evenodd" clip-rule="evenodd" d="M8.29846 14.9269C8.76646 14.965 9.19116 15.1826 9.49523 15.5407C9.79942 15.8985 9.94683 16.3532 9.90832 16.821C9.87036 17.2892 9.65231 17.7156 9.29455 18.0192C8.9737 18.2915 8.57498 18.4366 8.1593 18.4367C8.11074 18.4367 8.06137 18.4353 8.01281 18.4308C7.54481 18.3927 7.12009 18.1746 6.81603 17.8171C6.51196 17.4589 6.36458 17.0049 6.40295 16.5368C6.44145 16.0686 6.65908 15.6427 7.01672 15.3385C7.37504 15.0355 7.82962 14.8845 8.29846 14.9269ZM8.15344 15.3678C7.84275 15.3678 7.54612 15.4764 7.30676 15.6798C7.03941 15.9064 6.87617 16.2246 6.84826 16.5734C6.81987 16.9226 6.92944 17.2612 7.15588 17.5285C7.38244 17.7958 7.70067 17.959 8.04943 17.987C8.40189 18.0143 8.73727 17.9056 9.00451 17.6794C9.2717 17.4529 9.43496 17.135 9.46301 16.7858C9.49147 16.4364 9.38199 16.0966 9.15539 15.8293C8.92882 15.5626 8.61109 15.4002 8.26184 15.3722C8.22556 15.3694 8.18916 15.3678 8.15344 15.3678Z" fill="#472B29"/>
</g>
<g id="Group_10">
<path id="Oval_4" d="M18.778 9.15243C18.8467 8.30754 18.2175 7.56695 17.3726 7.49829C16.5277 7.42963 15.7871 8.05889 15.7184 8.90378C15.6497 9.74868 16.279 10.4893 17.1239 10.5579C17.9688 10.6266 18.7094 9.99733 18.778 9.15243Z" fill="#EE3E54"/>
<path id="Shape_11" fill-rule="evenodd" clip-rule="evenodd" d="M17.3915 7.27561C17.8597 7.31356 18.2861 7.53169 18.5897 7.88938C18.8933 8.24771 19.0398 8.70284 19.0013 9.17112C18.9628 9.63907 18.745 10.0638 18.3876 10.3679C18.0672 10.6397 17.6681 10.7868 17.2523 10.7868C17.204 10.7868 17.1556 10.7854 17.1073 10.781C16.1412 10.7023 15.4193 9.85217 15.4974 8.88548C15.5354 8.41725 15.7529 7.99139 16.1112 7.68723C16.4689 7.38379 16.9217 7.23437 17.3915 7.27561ZM17.2465 7.71653C16.9358 7.71667 16.6391 7.82642 16.3998 8.03001C16.1333 8.25651 15.9707 8.57355 15.9427 8.9221C15.8847 9.64312 16.422 10.2769 17.1424 10.3357C17.4956 10.3613 17.8302 10.2544 18.0975 10.0281C18.3649 9.80145 18.5281 9.48334 18.556 9.1345C18.5843 8.7853 18.4749 8.44663 18.2484 8.17942C18.0218 7.91211 17.7042 7.74884 17.3549 7.72092C17.3191 7.71758 17.2822 7.71653 17.2465 7.71653Z" fill="#472B29"/>
</g>
</g>
</g>
</g>
</svg>
