<svg width="16" height="16" viewBox="0 0 16 16" fill="none" xmlns="http://www.w3.org/2000/svg">
<path d="M8.00003 12.2698C12.2079 12.2698 15.6191 10.9622 15.6191 9.34919C15.6191 7.73617 12.2079 6.42856 8.00003 6.42856C3.79215 6.42856 0.380981 7.73617 0.380981 9.34919C0.380981 10.9622 3.79215 12.2698 8.00003 12.2698Z" fill="white"/>
<path d="M8 12.6508C3.44127 12.6508 0 11.2286 0 9.3492C0 8.80316 0.292064 8.00316 1.68889 7.27935C1.87937 7.17777 2.10794 7.25396 2.19683 7.44443C2.28571 7.63491 2.22222 7.86348 2.03175 7.95237C1.20635 8.38412 0.761905 8.87935 0.761905 9.3492C0.761905 10.5555 3.73333 11.8889 8 11.8889C12.2667 11.8889 15.2381 10.5555 15.2381 9.3492C15.2381 8.14285 12.2667 6.80951 8 6.80951C7.78413 6.80951 7.61905 6.64443 7.61905 6.42856C7.61905 6.21269 7.78413 6.04761 8 6.04761C12.5587 6.04761 16 7.46983 16 9.3492C16 11.2286 12.5714 12.6508 8 12.6508Z" fill="#444B54"/>
<path d="M12.3937 8.79047C12.3937 9.13333 12.1651 9.43809 11.8349 9.52698C10.9207 9.78095 9.63812 9.98413 8.01273 9.98413C6.37463 9.98413 5.10479 9.78095 4.19051 9.52698C3.86035 9.43809 3.63177 9.13333 3.63177 8.79047V7.7619C3.63177 5.33651 5.60003 3.38095 8.01273 3.38095C10.4254 3.38095 12.3937 5.34921 12.3937 7.7619V8.79047Z" fill="#FFF0B3"/>
<path d="M8 10.3651C6.17143 10.3651 4.86349 10.1111 4.07619 9.89524C3.58096 9.75556 3.2381 9.31111 3.2381 8.79048V7.76191C3.2381 5.13333 5.37143 3 8 3C10.6286 3 12.7619 5.13333 12.7619 7.76191V8.79048C12.7619 9.29841 12.419 9.75556 11.9238 9.89524C11.1492 10.1111 9.82857 10.3651 8 10.3651ZM8 3.7619C5.79048 3.7619 4 5.55238 4 7.76191V8.79048C4 8.95556 4.11429 9.10794 4.27937 9.15873C5.01588 9.36191 6.27302 9.60318 8 9.60318C9.72699 9.60318 10.9841 9.36191 11.7206 9.15873C11.8857 9.10794 12 8.96825 12 8.79048V7.76191C12.0127 5.56508 10.2095 3.7619 8 3.7619Z" fill="#444B54"/>
<path d="M11.6317 8.53649C11.4159 8.53649 11.2508 8.37141 11.2508 8.15554V7.76189C11.2508 6.68252 10.7174 5.67935 9.81585 5.06983C9.63807 4.95554 9.59998 4.71427 9.71426 4.53649C9.82855 4.35872 10.0698 4.32062 10.2476 4.43491C11.3524 5.18411 12.0127 6.42856 12.0127 7.74919V8.14284C12.0127 8.37141 11.8349 8.53649 11.6317 8.53649Z" fill="#F2B630"/>
<path d="M9.81591 11.8C9.62543 11.8 9.46035 11.6476 9.43495 11.4571C9.40956 11.254 9.56194 11.0635 9.77781 11.0381C10.9969 10.9238 12.1016 10.6825 12.9778 10.3397C14.1588 9.88255 14.4635 9.4254 14.4762 9.33651C14.4635 9.29842 14.3619 9.08255 13.9302 8.81588C13.7524 8.70159 13.7016 8.46032 13.8159 8.29524C13.9302 8.11747 14.1715 8.06667 14.3365 8.18096C14.9207 8.56191 15.2254 8.95556 15.2254 9.34921C15.2254 9.94604 14.4889 10.581 13.2445 11.0635C12.3048 11.4191 11.1238 11.6857 9.8413 11.8C9.8413 11.8 9.82861 11.8 9.81591 11.8Z" fill="#F2B630"/>
</svg>
