<svg width="48" height="48" viewBox="0 0 48 48" fill="none" xmlns="http://www.w3.org/2000/svg">
<g id="Health Event">
<g id="icons8-health-graph">
<path id="Path" fill-rule="evenodd" clip-rule="evenodd" d="M42.4444 45H8.55556C5.5 45 3 42.975 3 40.5V4.5C3 2.025 5.5 0 8.55556 0H42.4444C45.5 0 48 2.025 48 4.5V40.5C48 42.975 45.5 45 42.4444 45Z" fill="white"/>
<path id="Path_2" fill-rule="evenodd" clip-rule="evenodd" d="M36 18C34.32 18 33 19.32 33 21C33 21.84 33.36 22.56 33.9 23.1L29.16 30.24C28.8 30.06 28.38 30 28.02 30C27.42 30 26.82 30.18 26.34 30.48L22.5 26.64C22.8 26.16 22.98 25.62 22.98 24.96C22.98 23.28 21.66 21.96 19.98 21.96C18.3 21.96 16.98 23.28 16.98 24.96C16.98 25.56 17.16 26.16 17.46 26.64L13.62 30.48C13.2 30.18 12.6 30 12 30C10.32 30 9 31.32 9 33C9 34.68 10.32 36 12 36C13.68 36 15 34.68 15 33C15 32.4 14.82 31.8 14.52 31.32L18.36 27.48C18.84 27.78 19.38 27.96 20.04 27.96C20.64 27.96 21.24 27.78 21.72 27.48L25.56 31.32C25.2 31.8 25.02 32.4 25.02 33C25.02 34.68 26.34 36 28.02 36C29.7 36 31.02 34.68 31.02 33C31.02 32.16 30.66 31.44 30.12 30.9L34.86 23.76C35.22 23.88 35.58 24 36 24C37.68 24 39 22.68 39 21C39 19.32 37.68 18 36 18Z" fill="#E97087"/>
<rect id="Rectangle" x="6" y="6" width="36" height="6" fill="#AFDEDC"/>
<path id="Shape" fill-rule="evenodd" clip-rule="evenodd" d="M7.17241 48H40.8276C44.8 48 48 45.3736 48 42.1132V5.88679C48 2.62642 44.8 0 40.8276 0H7.17241C3.2 0 0 2.62642 0 5.88679V42.1132C0 45.3736 3.2 48 7.17241 48ZM3.31034 5.88679C3.31034 4.12075 5.02069 2.71698 7.17241 2.71698H40.8276C42.9793 2.71698 44.6897 4.12075 44.6897 5.88679V42.1132C44.6897 43.8792 42.9793 45.283 40.8276 45.283H7.17241C5.02069 45.283 3.31034 43.8792 3.31034 42.1132V5.88679Z" fill="#454B54"/>
</g>
</g>
</svg>
