<svg width="16" height="16" viewBox="0 0 16 16" fill="none" xmlns="http://www.w3.org/2000/svg">
<g id="Hospital">
<g id="Group 5">
<rect id="Rectangle" x="2.11115" y="2.20691" width="10.4722" height="13.3793" fill="white"/>
<path id="Shape" fill-rule="evenodd" clip-rule="evenodd" d="M2.11112 16H12.5833C12.8195 16 13 15.8207 13 15.5862V2.20688C13 1.9724 12.8195 1.79309 12.5833 1.79309H2.11112C1.87501 1.79309 1.69446 1.9724 1.69446 2.20688V15.5862C1.69446 15.8207 1.87501 16 2.11112 16ZM12.1667 15.1724H2.52779V2.62068H12.1667V15.1724Z" fill="#454B54"/>
<rect id="Rectangle_2" x="4.08337" y="11.0207" width="6.54167" height="4.56552" fill="#D1ECF0"/>
<rect id="Rectangle_3" x="4.08337" y="6.28964" width="2.61111" height="2.84138" fill="#D1ECF0"/>
<path id="Shape_2" fill-rule="evenodd" clip-rule="evenodd" d="M4.08335 9.55861H6.69446C6.93058 9.55861 7.11113 9.36551 7.11113 9.13103V6.28965C7.11113 6.05516 6.93058 5.87585 6.69446 5.87585H4.08335C3.84724 5.87585 3.66669 6.05516 3.66669 6.28965V9.14482C3.66669 9.3793 3.84724 9.55861 4.08335 9.55861ZM6.2778 8.73103H4.50002V6.70344H6.2778V8.73103Z" fill="#454B54"/>
<rect id="Rectangle_4" x="8" y="6.28964" width="2.61111" height="2.84138" fill="#D1ECF0"/>
<path id="Shape_3" fill-rule="evenodd" clip-rule="evenodd" d="M8.00004 9.55861H10.625C10.8473 9.55861 11.0417 9.36551 11.0278 9.13103V6.28965C11.0278 6.05516 10.8473 5.87585 10.6112 5.87585H8.00004C7.76393 5.87585 7.58337 6.05516 7.58337 6.28965V9.14482C7.58337 9.3793 7.76393 9.55861 8.00004 9.55861ZM10.1945 8.73103H8.41671V6.70344H10.1945V8.73103Z" fill="#454B54"/>
<path id="Shape_4" fill-rule="evenodd" clip-rule="evenodd" d="M4.08335 16H10.625C10.8472 16 11.0417 15.8207 11.0417 15.5862V11.0207C11.0417 10.7862 10.8611 10.6069 10.625 10.6069H4.08335C3.84724 10.6069 3.66669 10.7862 3.66669 11.0207V15.5862C3.66669 15.8207 3.84724 16 4.08335 16ZM10.2084 15.1724H4.50002V11.4345H10.2084V15.1724Z" fill="#454B54"/>
<path id="Path" fill-rule="evenodd" clip-rule="evenodd" d="M7.34727 16C7.11116 16 6.9306 15.8207 6.9306 15.5862V11.0207C6.9306 10.7862 7.11116 10.6069 7.34727 10.6069C7.58338 10.6069 7.76394 10.7862 7.76394 11.0207V15.5862C7.76394 15.8207 7.58338 16 7.34727 16Z" fill="#454B54"/>
<rect id="Rectangle_5" x="12.5278" y="2.20691" width="2.13889" height="13.3793" fill="white"/>
<path id="Path_2" fill-rule="evenodd" clip-rule="evenodd" d="M14.6667 4.34482H12.5278V15.5862H14.6667V4.34482Z" fill="#E6E7E7"/>
<path id="Shape_5" fill-rule="evenodd" clip-rule="evenodd" d="M12.5278 16H14.6667C14.9028 16 15.0834 15.8207 15.0834 15.5862V2.20688C15.0834 1.9724 14.9028 1.79309 14.6667 1.79309H12.5278C12.2917 1.79309 12.1111 1.9724 12.1111 2.20688V15.5862C12.1111 15.8207 12.2917 16 12.5278 16ZM14.25 15.1724H12.9445V2.62068H14.25V15.1724Z" fill="#454B54"/>
<path id="Path_3" fill-rule="evenodd" clip-rule="evenodd" d="M1.45837 2.20691H15.3195V4.34484H1.45837V2.20691Z" fill="#98BED8"/>
<path id="Path_4" fill-rule="evenodd" clip-rule="evenodd" d="M15.3195 2.20691H13.2639V4.34484H15.3195V2.20691Z" fill="#7C9BB1"/>
<path id="Shape_6" fill-rule="evenodd" clip-rule="evenodd" d="M1.45835 4.75861H15.3195C15.5556 4.75861 15.7361 4.5655 15.7361 4.34482V2.20688C15.7361 1.9724 15.5556 1.79309 15.3195 1.79309H1.45835C1.22224 1.79309 1.04169 1.9724 1.04169 2.20688V4.34482C1.04169 4.5793 1.22224 4.75861 1.45835 4.75861ZM14.9028 3.93102H1.87502V2.62068H14.9028V3.93102Z" fill="#454B54"/>
<path id="Path_5" fill-rule="evenodd" clip-rule="evenodd" d="M13.2361 4.75861C13 4.75861 12.8195 4.5793 12.8195 4.34482V2.20688C12.8195 1.9724 13 1.79309 13.2361 1.79309C13.4722 1.79309 13.6528 1.9724 13.6528 2.20688V4.34482C13.6528 4.5655 13.4722 4.75861 13.2361 4.75861Z" fill="#454B54"/>
<path id="Oval" fill-rule="evenodd" clip-rule="evenodd" d="M7.90282 3.44827C8.63153 3.44827 9.22226 2.8616 9.22226 2.13792C9.22226 1.41424 8.63153 0.827576 7.90282 0.827576C7.17411 0.827576 6.58337 1.41424 6.58337 2.13792C6.58337 2.8616 7.17411 3.44827 7.90282 3.44827Z" fill="white"/>
<path id="Path_6" fill-rule="evenodd" clip-rule="evenodd" d="M9.63889 2.55172C9.40278 2.55172 9.22222 2.37241 9.22222 2.13793C9.22222 1.42069 8.625 0.827586 7.90278 0.827586C7.18056 0.827586 6.58333 1.42069 6.58333 2.13793C6.58333 2.37241 6.40278 2.55172 6.16667 2.55172C5.93056 2.55172 5.75 2.37241 5.75 2.13793C5.75 0.965517 6.72222 0 7.90278 0C9.08333 0 10.0556 0.965517 10.0556 2.13793C10.0556 2.37241 9.875 2.55172 9.63889 2.55172Z" fill="#454B54"/>
<path id="Path_7" fill-rule="evenodd" clip-rule="evenodd" d="M8.18056 1.40689V1.94482H7.70834V1.40689H7.22223V2.9793H7.70834V2.42758H8.18056V2.9793H8.66667V1.40689H8.18056Z" fill="#ED97A0"/>
</g>
</g>
</svg>
