<svg width="16" height="16" viewBox="0 0 16 16" fill="none" xmlns="http://www.w3.org/2000/svg">
<path d="M11.125 6.5375C11.125 8.2625 9.725 9.6625 8 9.6625C6.275 9.6625 4.875 8.2625 4.875 6.5375H11.125Z" fill="#454B54"/>
<path d="M8 4.6625C6.3424 4.6625 4.75269 4.86004 3.58058 5.21167C2.40848 5.5633 1.75 6.04022 1.75 6.5375C1.75 7.03478 2.40848 7.51169 3.58058 7.86332C4.75269 8.21495 6.3424 8.4125 8 8.4125C9.6576 8.4125 11.2473 8.21495 12.4194 7.86332C13.5915 7.51169 14.25 7.03478 14.25 6.5375C14.25 6.04022 13.5915 5.5633 12.4194 5.21167C11.2473 4.86004 9.6576 4.6625 8 4.6625Z" fill="white"/>
<path d="M4.28748 6.3625C4.54998 6.95 6.11248 7.45 7.99998 7.45C9.91248 7.45 11.5 7.075 11.725 6.3625C11.5 5.65 9.91248 5.275 7.99998 5.275C6.11248 5.275 4.54998 5.775 4.28748 6.3625Z" fill="#98BED8"/>
<path d="M8 8.7875C4.7125 8.7875 1.375 8.0125 1.375 6.5375C1.375 5.0625 4.7125 4.2875 8 4.2875C11.2875 4.2875 14.625 5.0625 14.625 6.5375C14.625 8.0125 11.2875 8.7875 8 8.7875ZM8 5.0375C3.875 5.0375 2.125 6.1125 2.125 6.5375C2.125 6.9625 3.875 8.0375 8 8.0375C12.125 8.0375 13.875 6.9625 13.875 6.5375C13.875 6.1125 12.125 5.0375 8 5.0375Z" fill="#454B54"/>
<path d="M4.29 6.368C4.55562 6.96588 6.11225 7.4625 8 7.4625C9.888 7.4625 11.445 7.10025 11.7101 6.404C11.4375 7.08962 9.87488 7.45 8 7.45C6.1185 7.45 4.55987 6.95312 4.29 6.368ZM8 5.0375C6.45563 5.0375 5.244 5.18825 4.33262 5.39913C4.2785 5.65313 4.25 5.917 4.25 6.1875C4.25 6.2465 4.26275 6.30487 4.2875 6.36237C4.55012 5.775 6.11263 5.275 8 5.275C9.9115 5.275 11.4985 5.64962 11.7246 6.36137C11.7414 6.3055 11.75 6.2475 11.75 6.1875C11.75 5.917 11.7215 5.65313 11.6674 5.399C10.756 5.18825 9.54437 5.0375 8 5.0375ZM8 2.4375C6.50012 2.4375 5.20925 3.3125 4.60887 4.58138C5.64237 4.38663 6.82438 4.2875 8 4.2875C9.17562 4.2875 10.3575 4.38663 11.391 4.58138C10.7907 3.3125 9.49988 2.4375 8 2.4375Z" fill="#FEF2E0"/>
<path d="M7.99998 5.275C6.1126 5.275 4.5501 5.775 4.28748 6.36238C4.28823 6.36425 4.2891 6.36613 4.28998 6.368C4.55985 6.95313 6.11848 7.45 7.99998 7.45C9.87485 7.45 11.4375 7.0895 11.7101 6.404C11.7155 6.39 11.7204 6.37575 11.7246 6.36138C11.4985 5.64963 9.91148 5.275 7.99998 5.275Z" fill="#FAC87F"/>
<path d="M8.00002 4.2875C6.82439 4.2875 5.64239 4.38662 4.60889 4.58137C4.48702 4.839 4.39352 5.113 4.33252 5.399C5.24402 5.18825 6.45564 5.0375 8.00002 5.0375C9.54439 5.0375 10.756 5.18825 11.6674 5.39912C11.6065 5.113 11.513 4.83912 11.391 4.5815C10.3575 4.38662 9.17564 4.2875 8.00002 4.2875Z" fill="#A0ADB8"/>
<path d="M10.5625 7.5375C10.4 7.5375 10.25 7.425 10.2 7.2625C10.1375 7.0625 10.25 6.85 10.45 6.8C11.0125 6.6375 11.3625 6.4 11.3625 6.1875C11.3625 5.975 11.525 5.8125 11.7375 5.8125C11.95 5.8125 12.1125 5.975 12.1125 6.1875C12.1125 6.6 11.8625 7.175 10.6625 7.525C10.6375 7.525 10.6 7.5375 10.5625 7.5375Z" fill="#454B54"/>
<path d="M5.525 6.175C5.5 6.175 5.4875 6.175 5.4625 6.175C5.2625 6.1375 5.1125 5.95 5.15 5.75C5.375 4.3625 6.6 3.3125 8 3.3125C8.2125 3.3125 8.375 3.475 8.375 3.6875C8.375 3.9 8.2125 4.0625 8 4.0625C6.9625 4.0625 6.0625 4.8375 5.9 5.8625C5.875 6.05 5.7125 6.175 5.525 6.175Z" fill="white"/>
<path d="M11.75 6.5625C11.5375 6.5625 11.375 6.4 11.375 6.1875C11.375 4.325 9.8625 2.8125 8 2.8125C6.1375 2.8125 4.625 4.325 4.625 6.1875C4.625 6.4 4.4625 6.5625 4.25 6.5625C4.0375 6.5625 3.875 6.4 3.875 6.1875C3.875 3.9125 5.725 2.0625 8 2.0625C10.275 2.0625 12.125 3.9125 12.125 6.1875C12.125 6.3875 11.9625 6.5625 11.75 6.5625ZM5.3375 13.5875C5.3 13.5875 5.275 13.5875 5.2375 13.575C5.0375 13.525 4.925 13.3125 4.975 13.1125L6.0375 9.2125C6.0875 9.0125 6.3 8.9 6.5 8.95C6.7 9 6.8125 9.2125 6.7625 9.4125L5.7 13.3125C5.6625 13.475 5.5125 13.5875 5.3375 13.5875ZM10.6625 13.5875C10.5 13.5875 10.35 13.475 10.3 13.3125L9.2375 9.4125C9.1875 9.2125 9.3 9.0125 9.5 8.95C9.7 8.9 9.9 9.0125 9.9625 9.2125L11.025 13.1125C11.075 13.3125 10.9625 13.5125 10.7625 13.575C10.725 13.575 10.6875 13.5875 10.6625 13.5875ZM8 11.4625C7.7875 11.4625 7.625 11.3 7.625 11.0875V9.6625C7.625 9.45 7.7875 9.2875 8 9.2875C8.2125 9.2875 8.375 9.45 8.375 9.6625V11.075C8.375 11.2875 8.2125 11.4625 8 11.4625Z" fill="#454B54"/>
</svg>
