<svg width="16" height="16" viewBox="0 0 16 16" fill="none" xmlns="http://www.w3.org/2000/svg">
<path d="M11.3625 9.375H4.61249C3.92499 9.375 3.36249 9.9375 3.36249 10.625V13H12.6125V10.625C12.6125 9.9375 12.0625 9.375 11.3625 9.375Z" fill="#42B4AD"/>
<path d="M7.98749 7C6.64999 7 5.37499 7.6125 4.54999 8.6625L3.98749 9.375H11.9875L11.425 8.6625C10.6 7.6125 9.33749 7 7.98749 7Z" fill="#C7D7E2"/>
<path d="M7.98749 6.9375C6.64999 6.9375 5.37499 7.55 4.54999 8.6L3.98749 9.3125H11.8625L11.425 8.6C10.6 7.55 9.33749 6.9375 7.98749 6.9375Z" fill="#DFF2F1"/>
<path d="M11.8625 9.75C11.7375 9.75 11.6125 9.6875 11.5375 9.575L11.375 9.3125C10.925 8.575 10.3 8.025 9.56248 7.7125C9.06248 7.5 8.52498 7.3875 7.97498 7.3875C7.76248 7.3875 7.59998 7.225 7.59998 7.0125C7.59998 6.8 7.76248 6.6375 7.97498 6.6375C8.62498 6.6375 9.26248 6.7625 9.86248 7.025C10.7375 7.4 11.4875 8.0625 12.0125 8.925L12.175 9.1875C12.2875 9.3625 12.225 9.6 12.05 9.7C12 9.7375 11.9375 9.75 11.8625 9.75Z" fill="#454B54"/>
<path d="M4.11248 9.75C4.04998 9.75 3.97498 9.7375 3.91248 9.7C3.73748 9.5875 3.67498 9.3625 3.78748 9.1875L3.94998 8.9125C4.43748 8.1125 5.11248 7.4875 5.89998 7.1125C6.53748 6.8 7.26248 6.6375 7.97498 6.6375C8.18748 6.6375 8.34998 6.8 8.34998 7.0125C8.34998 7.225 8.18748 7.3875 7.97498 7.3875C7.37498 7.3875 6.76248 7.525 6.22498 7.7875C5.56248 8.1 4.99998 8.6375 4.58748 9.3125L4.42498 9.5875C4.36248 9.6875 4.23748 9.75 4.11248 9.75Z" fill="#454B54"/>
<path d="M5.23747 9.75C5.17497 9.75 5.11247 9.7375 5.04997 9.7C4.87497 9.6 4.81247 9.3625 4.91247 9.1875L4.93747 9.15C5.29997 8.525 5.88747 8.0375 6.57497 7.7875C6.77497 7.7125 6.98747 7.8125 7.06247 8.0125C7.13747 8.2125 7.03747 8.425 6.83747 8.5C6.31247 8.7 5.86247 9.0625 5.58747 9.5375L5.56247 9.575C5.49997 9.6875 5.37497 9.75 5.23747 9.75Z" fill="white"/>
<path d="M12.6125 13.375H3.36249C3.14999 13.375 2.98749 13.2125 2.98749 13V10.625C2.98749 9.725 3.71249 9 4.61249 9H11.3625C12.2625 9 12.9875 9.725 12.9875 10.625V13C12.9875 13.2125 12.825 13.375 12.6125 13.375ZM3.73749 12.625H12.2375V10.625C12.2375 10.1375 11.85 9.75 11.3625 9.75H4.61249C4.12499 9.75 3.73749 10.1375 3.73749 10.625V12.625Z" fill="#454B54"/>
<path d="M13.625 13.375H2.375C2.1625 13.375 2 13.2125 2 13C2 12.7875 2.1625 12.625 2.375 12.625H13.625C13.8375 12.625 14 12.7875 14 13C14 13.2125 13.8375 13.375 13.625 13.375Z" fill="#454B54"/>
<path d="M3.36249 14.375C2.59999 14.375 1.98749 13.7625 1.98749 13C1.98749 12.2375 2.59999 11.625 3.36249 11.625C4.12499 11.625 4.73749 12.2375 4.73749 13C4.73749 13.7625 4.11249 14.375 3.36249 14.375ZM12.6375 14.375C11.875 14.375 11.2625 13.7625 11.2625 13C11.2625 12.2375 11.875 11.625 12.6375 11.625C13.4 11.625 14.0125 12.2375 14.0125 13C14.0125 13.7625 13.4 14.375 12.6375 14.375ZM7.99999 14.375C7.23749 14.375 6.62499 13.7625 6.62499 13C6.62499 12.2375 7.23749 11.625 7.99999 11.625C8.76249 11.625 9.37499 12.2375 9.37499 13C9.37499 13.7625 8.76249 14.375 7.99999 14.375Z" fill="white"/>
<path d="M3.36249 15.125C2.18749 15.125 1.23749 14.175 1.23749 13C1.23749 11.825 2.18749 10.875 3.36249 10.875C4.53749 10.875 5.48749 11.825 5.48749 13C5.48749 14.175 4.52499 15.125 3.36249 15.125ZM12.6375 15.125C11.4625 15.125 10.5125 14.175 10.5125 13C10.5125 11.825 11.4625 10.875 12.6375 10.875C13.8125 10.875 14.7625 11.825 14.7625 13C14.7625 14.175 13.8125 15.125 12.6375 15.125ZM7.99999 15.125C6.82499 15.125 5.87499 14.175 5.87499 13C5.87499 11.825 6.82499 10.875 7.99999 10.875C9.17499 10.875 10.125 11.825 10.125 13C10.125 14.175 9.17499 15.125 7.99999 15.125Z" fill="#454B54"/>
<path d="M3.0625 5.825C2.8 5.825 2.55 5.725 2.35 5.5375C2.1625 5.35 2.0625 5.1 2.0625 4.825C2.0625 4.55 2.1625 4.3125 2.35 4.1125C2.5375 3.925 2.7875 3.825 3.0625 3.825C3.3375 3.825 3.575 3.925 3.775 4.1125C3.9625 4.3 4.0625 4.55 4.0625 4.825C4.0625 5.1 3.9625 5.3375 3.775 5.5375C3.575 5.725 3.325 5.825 3.0625 5.825Z" fill="#454B54"/>
<path d="M6.225 4.825C5.5375 4.825 4.975 4.2625 4.975 3.575C4.975 2.8875 5.5375 2.325 6.225 2.325C6.4375 2.325 6.6 2.4875 6.6 2.7C6.6 2.9125 6.4375 3.075 6.225 3.075C5.95 3.075 5.725 3.3 5.725 3.575C5.725 3.85 5.95 4.075 6.225 4.075C6.4375 4.075 6.6 4.2375 6.6 4.45C6.6 4.6625 6.425 4.825 6.225 4.825Z" fill="#454B54"/>
<path d="M1.78748 8.875C1.52498 8.875 1.27498 8.775 1.07498 8.5875C0.687478 8.2 0.687478 7.5625 1.07498 7.175C1.26248 6.9875 1.51248 6.8875 1.78748 6.8875C2.06248 6.8875 2.29998 6.9875 2.49998 7.175C2.88748 7.5625 2.88748 8.2 2.49998 8.5875C2.31248 8.7625 2.06248 8.875 1.78748 8.875Z" fill="#454B54"/>
<path d="M3.58749 4.85C3.43749 4.85 3.29999 4.7625 3.23749 4.6125C3.16249 4.425 3.24999 4.2 3.43749 4.125L5.14999 3.4125C5.33749 3.3375 5.56249 3.425 5.63749 3.6125C5.71249 3.8 5.62499 4.025 5.43749 4.1L3.72499 4.8125C3.68749 4.8375 3.63749 4.85 3.58749 4.85Z" fill="#454B54"/>
<path d="M1.93748 7.53749C1.88748 7.53749 1.82498 7.52499 1.77498 7.49999C1.58748 7.41249 1.51248 7.18749 1.59998 6.99999L2.46248 5.23749C2.54998 5.04999 2.77498 4.97499 2.96248 5.06249C3.14998 5.14999 3.22498 5.37499 3.13748 5.56249L2.27498 7.32499C2.21248 7.46249 2.08748 7.53749 1.93748 7.53749Z" fill="#454B54"/>
<path d="M3.56252 10.275C3.46252 10.275 3.36252 10.2375 3.28752 10.15L1.88752 8.625C1.75002 8.475 1.76252 8.2375 1.91252 8.1C2.06252 7.9625 2.30002 7.975 2.43752 8.125L3.83752 9.65C3.97502 9.8 3.96252 10.0375 3.81252 10.175C3.73752 10.25 3.65002 10.275 3.56252 10.275Z" fill="#454B54"/>
</svg>
