<svg width="16" height="16" viewBox="0 0 16 16" fill="none" xmlns="http://www.w3.org/2000/svg">
<path d="M4.59775 3.26475L3.84775 1.024C3.72425 0.655003 3.20225 0.655003 3.07875 1.024L2.32025 3.29025C2.13225 3.36875 2 3.55425 2 3.77075V14.7295C2 15.017 2.233 15.25 2.52075 15.25H4.4795C4.767 15.25 5 15.017 5 14.7293V3.77075C5 3.524 4.828 3.3185 4.59775 3.26475Z" fill="#FCDEB1"/>
<path d="M9.0995 3.26526L8.3525 0.988009C8.22925 0.612009 7.6975 0.612009 7.57425 0.988009L6.819 3.29076C6.6315 3.36951 6.5 3.55476 6.5 3.77076V14.7295C6.5 15.017 6.733 15.25 7.02075 15.25H8.9795C9.267 15.25 9.5 15.017 9.5 14.7293V3.77076C9.5 3.52476 9.32875 3.31976 9.0995 3.26526Z" fill="#F286A2"/>
<path d="M13.5995 3.26526L12.8525 0.988009C12.7292 0.612009 12.1975 0.612009 12.0743 0.988009L11.319 3.29076C11.1315 3.36951 11 3.55476 11 3.77076V14.7295C11 15.017 11.233 15.25 11.5208 15.25H13.4795C13.767 15.25 14 15.017 14 14.7293V3.77076C14 3.52476 13.8287 3.31976 13.5995 3.26526Z" fill="#7BCAC5"/>
<path d="M3.25 3.5H2.5C2.362 3.5 2.25 3.388 2.25 3.25C2.25 3.112 2.362 3 2.5 3H3.25C3.388 3 3.5 3.112 3.5 3.25C3.5 3.388 3.388 3.5 3.25 3.5ZM4.5 3.5H4.25C4.112 3.5 4 3.388 4 3.25C4 3.112 4.112 3 4.25 3H4.5C4.638 3 4.75 3.112 4.75 3.25C4.75 3.388 4.638 3.5 4.5 3.5ZM7.75 3.5H7C6.862 3.5 6.75 3.388 6.75 3.25C6.75 3.112 6.862 3 7 3H7.75C7.888 3 8 3.112 8 3.25C8 3.388 7.888 3.5 7.75 3.5ZM9 3.5H8.75C8.61175 3.5 8.5 3.388 8.5 3.25C8.5 3.112 8.61175 3 8.75 3H9C9.13825 3 9.25 3.112 9.25 3.25C9.25 3.388 9.13825 3.5 9 3.5ZM12.25 3.5H11.5C11.3617 3.5 11.25 3.388 11.25 3.25C11.25 3.112 11.3617 3 11.5 3H12.25C12.3883 3 12.5 3.112 12.5 3.25C12.5 3.388 12.3883 3.5 12.25 3.5ZM13.5 3.5H13.25C13.1117 3.5 13 3.388 13 3.25C13 3.112 13.1117 3 13.25 3H13.5C13.6383 3 13.75 3.112 13.75 3.25C13.75 3.388 13.6383 3.5 13.5 3.5Z" fill="#454B54"/>
<path d="M5 3.546C4.9215 3.518 4.83825 3.5 4.75 3.5C4.33575 3.5 4 3.83575 4 4.25V14.25C4 14.6643 4.33575 15 4.75 15C4.83825 15 4.9215 14.982 5 14.954V3.546Z" fill="#F8B24C"/>
<path d="M9.5 3.546C9.4215 3.518 9.33825 3.5 9.25 3.5C8.83575 3.5 8.5 3.83575 8.5 4.25V14.25C8.5 14.6643 8.83575 15 9.25 15C9.33825 15 9.4215 14.982 9.5 14.954V3.546Z" fill="#F45884"/>
<path d="M14 3.546C13.9215 3.518 13.8382 3.5 13.75 3.5C13.3358 3.5 13 3.83575 13 4.25V14.25C13 14.6643 13.3358 15 13.75 15C13.8382 15 13.9215 14.982 14 14.954V3.546Z" fill="#42B4AD"/>
<path d="M4.47925 15.5H2.5205C2.09575 15.5 1.75 15.1543 1.75 14.7293V3.77075C1.75 3.5 1.89 3.25425 2.115 3.11525L2.8415 0.944503C2.9325 0.672753 3.1765 0.497003 3.463 0.497003C3.74975 0.497003 3.99375 0.672503 4.08475 0.944503L4.7955 3.06875C5.069 3.19075 5.25 3.46175 5.25 3.77075V14.7293C5.25 15.1543 4.90425 15.5 4.47925 15.5ZM8.97925 15.5H7.02075C6.59575 15.5 6.25 15.1543 6.25 14.7293V3.77075C6.25 3.5015 6.389 3.256 6.6125 3.11675L7.3365 0.910253C7.427 0.634253 7.673 0.456253 7.96325 0.456253C8.2535 0.456253 8.4995 0.634503 8.58975 0.910253L9.2985 3.07025C9.57025 3.19275 9.75 3.46325 9.75 3.77075V14.7293C9.75 15.1543 9.40425 15.5 8.97925 15.5ZM13.4792 15.5H11.5208C11.0957 15.5 10.75 15.1543 10.75 14.7293V3.77075C10.75 3.5015 10.889 3.256 11.1125 3.11675L11.8365 0.910253C11.927 0.634503 12.173 0.456253 12.4633 0.456253C12.7535 0.456253 12.9995 0.634503 13.09 0.910253L13.7987 3.07025C14.0702 3.19275 14.25 3.46325 14.25 3.77075V14.7293C14.25 15.1543 13.9043 15.5 13.4792 15.5Z" fill="#454B54"/>
<path d="M2 5.75H5V13H2V5.75Z" fill="#E3F2FF"/>
<path d="M5.25 13.25H1.75V5.5H5.25V13.25ZM2.25 12.75H4.75V6H2.25V12.75Z" fill="#454B54"/>
<path d="M3.5 8.25C3.2635 8.25 3 8.6095 3 9.375C3 9.8905 3.2635 10.25 3.5 10.25C3.7365 10.25 4 9.8905 4 9.375C4 8.8595 3.7365 8.5 3.5 8.5Z" fill="#FCDEB1"/>
<path d="M3.5 10.75C2.93925 10.75 2.5 10.146 2.5 9.375C2.5 8.604 2.93925 8 3.5 8C4.06075 8 4.5 8.604 4.5 9.375C4.5 10.146 4.06075 10.75 3.5 10.75Z" fill="#454B54"/>
<path d="M6.5 5.75H9.5V13H6.5V5.75Z" fill="#E3F2FF"/>
<path d="M14.25 13.25H10.75V5.5H14.25V13.25ZM11.25 12.75H13.75V6H11.25V12.75Z" fill="#454B54"/>
<path d="M12.5 8.5C12.2635 8.5 12 8.8595 12 9.375C12 9.8905 12.2635 10.25 12.5 10.25C12.7365 10.25 13 9.8905 13 9.375C13 8.8595 12.7365 8.5 12.5 8.5Z" fill="#7BCAC5"/>
<path d="M12.5 10.75C11.9392 10.75 11.5 10.146 11.5 9.375C11.5 8.604 11.9392 8 12.5 8C13.0608 8 13.5 8.604 13.5 9.375C13.5 10.146 13.0608 10.75 12.5 10.75Z" fill="#454B54"/>
<path d="M9.75 13.25H6.25V5.5H9.75V13.25ZM6.75 12.75H9.25V6H6.75V12.75Z" fill="#454B54"/>
<path d="M8 8.5C7.7635 8.5 7.5 8.8595 7.5 9.375C7.5 9.8905 7.7635 10.25 8 10.25C8.2365 10.25 8.5 9.8905 8.5 9.375C8.5 8.8595 8.2365 8.5 8 8.5Z" fill="#F286A2"/>
<path d="M8 10.75C7.43925 10.75 7 10.146 7 9.375C7 8.604 7.43925 8 8 8C8.56075 8 9 8.604 9 9.375C9 10.146 8.56075 10.75 8 10.75Z" fill="#454B54"/>
</svg>
