<svg width="16" height="16" viewBox="0 0 16 16" fill="none" xmlns="http://www.w3.org/2000/svg">
<path d="M6.21334 7.3846L6.58667 14.5641C6.6 15.1248 6.16 15.5897 5.61334 15.5897C5.06667 15.5897 4.62667 15.1248 4.64 14.5641L5.01334 7.3846H4.93334C4.25334 7.3846 3.70667 6.78289 3.77334 6.08546L4.08 0.546997H7.14667L7.38667 6.15383C7.4 6.82392 6.86667 7.3846 6.21334 7.3846Z" fill="#F7F7FB"/>
<path d="M6.21335 7.79488C5.98669 7.79488 5.81335 7.6171 5.81335 7.38462C5.81335 7.15214 5.98669 6.97436 6.21335 6.97436C6.42669 6.97436 6.61335 6.89231 6.76002 6.74188C6.90669 6.59146 6.98669 6.38633 6.97335 6.16752L6.74669 0.560687C6.73335 0.328209 6.90669 0.136756 7.13335 0.136756C7.36002 0.123081 7.54669 0.300858 7.54669 0.533337L7.78669 6.14017C7.80002 6.59146 7.64002 7.00171 7.34669 7.31624C7.05335 7.63077 6.64002 7.79488 6.21335 7.79488Z" fill="#454B54"/>
<path d="M5.61336 16C5.24002 16 4.89336 15.8496 4.62669 15.5761C4.36002 15.3026 4.22669 14.9333 4.24002 14.5504L4.58669 7.75384C4.28002 7.68547 3.98669 7.52136 3.77336 7.27521C3.48002 6.947 3.33336 6.49572 3.36002 6.05812L3.68002 0.533329C3.69336 0.30085 3.88002 0.136748 4.10669 0.150423C4.33336 0.164098 4.49336 0.355551 4.48002 0.58803L4.16002 6.12649C4.14669 6.35897 4.21336 6.57777 4.36002 6.74188C4.50669 6.90598 4.70669 7.00171 4.92002 7.00171H5.00002C5.10669 7.00171 5.21336 7.04273 5.29336 7.12478C5.37336 7.20683 5.41336 7.31624 5.40002 7.42564L5.02669 14.6051C5.02669 14.7556 5.08002 14.906 5.18669 15.0154C5.29336 15.1248 5.44002 15.1932 5.60002 15.1932C5.76002 15.1932 5.90669 15.1248 6.01336 15.0154C6.12002 14.906 6.17336 14.7556 6.17336 14.5914L5.80002 7.42564C5.78669 7.19316 5.96002 7.00171 6.17336 6.98803C6.40002 6.97435 6.58669 7.15213 6.60002 7.37094L6.97336 14.5504C6.98669 14.947 6.85336 15.3026 6.58669 15.5761C6.33336 15.8496 5.98669 16 5.61336 16Z" fill="#454B54"/>
<path d="M5.54667 5.05983C5.32 5.05983 5.14667 4.88205 5.14667 4.64957V0.547006C5.14667 0.314527 5.32 0.136749 5.54667 0.136749C5.77333 0.136749 5.94667 0.314527 5.94667 0.547006V4.64957C5.94667 4.88205 5.76 5.05983 5.54667 5.05983Z" fill="#454B54"/>
<path d="M12.24 15.5897H11.84C11.1067 15.5897 10.5067 14.9743 10.5067 14.2222L10.9067 10.1196C10.1734 10.1196 9.57336 9.50426 9.57336 8.75213V3.28204C9.57336 1.77777 10.7734 0.546997 12.24 0.546997V15.5897Z" fill="#F7F7FB"/>
<path d="M12.2397 0.136749C12.4664 0.136749 12.6401 0.314476 12.6401 0.546906V15.5899C12.6401 15.8223 12.4664 16 12.2397 16H11.8403C11.3738 16 10.9471 15.8085 10.6138 15.4805C10.2805 15.1524 10.107 14.7011 10.1069 14.2227V14.1817L10.4663 10.4756C9.71976 10.2704 9.17334 9.58608 9.17334 8.75198V3.28226C9.17334 1.54559 10.5465 0.136894 12.2397 0.136749ZM11.8267 0.998077C10.7733 1.18953 9.96045 2.14721 9.96045 3.28226V8.75198C9.96045 9.28522 10.3732 9.70887 10.8931 9.70901C10.9997 9.70901 11.1203 9.76373 11.187 9.84573C11.267 9.92778 11.2935 10.0518 11.2935 10.1612L10.9067 14.2364C10.9069 14.4823 11.0134 14.7149 11.1733 14.8926C11.3467 15.0703 11.5867 15.1797 11.8267 15.1797V0.998077Z" fill="#454B54"/>
</svg>
