<svg width="16" height="16" viewBox="0 0 16 16" fill="none" xmlns="http://www.w3.org/2000/svg">
<g id="Location">
<g id="icons8-place-marker (2)">
<path id="Shape" fill-rule="evenodd" clip-rule="evenodd" d="M2.47693 6.17601C2.49231 3.04001 4.96924 0.480011 8.00001 0.480011C11.0462 0.480011 13.5077 3.04001 13.5231 6.17601C13.5231 7.36001 13.1692 8.49601 12.5077 9.47201C12.5077 9.48801 12.4923 9.50401 12.4769 9.50401L8.23077 15.392C8.16924 15.472 8.09231 15.52 8.00001 15.52C7.9077 15.52 7.83078 15.472 7.76924 15.392L3.53847 9.53601L3.52308 9.52001C3.51357 9.52001 3.50994 9.5139 3.50492 9.50545C3.50182 9.50023 3.49819 9.49412 3.49231 9.48801C2.83077 8.51201 2.47693 7.36001 2.47693 6.17601ZM5.55385 6.00001C5.55385 7.34401 6.64616 8.44801 8.00001 8.44801C9.35385 8.44801 10.4462 7.34401 10.4462 6.00001C10.4462 4.64001 9.35385 3.55201 8.00001 3.55201C6.64616 3.55201 5.55385 4.64001 5.55385 6.00001Z" fill="white"/>
<path id="Shape_2" fill-rule="evenodd" clip-rule="evenodd" d="M7.41537 15.712C7.56922 15.888 7.7846 16 7.99999 16C8.23076 16 8.44614 15.888 8.5846 15.696L8.59999 15.68L12.8 9.872C12.8461 9.824 12.8769 9.776 12.9077 9.728C13.6 8.672 13.9692 7.456 13.9692 6.192C13.9692 2.784 11.2923 0 7.99999 0C4.72307 0 2.04614 2.768 2.04614 6.176C2.04614 7.456 2.41537 8.688 3.13845 9.76C3.15383 9.792 3.16922 9.824 3.19999 9.856L7.39999 15.696L7.41537 15.712ZM3.90768 9.248L3.8923 9.232C3.8923 9.232 3.8923 9.216 3.86153 9.2C3.26153 8.304 2.93845 7.264 2.93845 6.192C2.95383 3.296 5.23076 0.96 7.99999 0.96C10.7846 0.96 13.0461 3.312 13.0461 6.192C13.0461 7.264 12.7231 8.304 12.1384 9.184C12.1384 9.2 12.1231 9.216 12.1077 9.232L7.99999 14.928L3.90768 9.248Z" fill="#454B54"/>
<path id="Oval" fill-rule="evenodd" clip-rule="evenodd" d="M7.99999 8.448C9.35096 8.448 10.4461 7.35199 10.4461 6C10.4461 4.64801 9.35096 3.552 7.99999 3.552C6.64901 3.552 5.55383 4.64801 5.55383 6C5.55383 7.35199 6.64901 8.448 7.99999 8.448Z" fill="#C7D7E2"/>
<path id="Shape_3" fill-rule="evenodd" clip-rule="evenodd" d="M5.09229 6C5.09229 7.616 6.39998 8.928 7.99998 8.928C9.59998 8.928 10.9077 7.6 10.9077 5.984C10.9077 4.368 9.59998 3.056 7.99998 3.056C6.39998 3.056 5.09229 4.384 5.09229 6ZM6.01536 5.984C6.01536 4.896 6.90767 4.016 7.99998 4.016C9.09229 4.016 9.98459 4.912 9.98459 6C9.98459 7.088 9.09229 7.968 7.99998 7.968C6.90767 7.968 6.01536 7.072 6.01536 5.984Z" fill="#454B54"/>
</g>
</g>
</svg>
