<svg width="48" height="48" viewBox="0 0 48 48" fill="none" xmlns="http://www.w3.org/2000/svg">
<g id="Love">
<g id="icons8-heart-outline (2)">
<path id="Path" d="M14.2945 7.63385C18.0923 7.63385 21.5209 9.26763 23.7362 11.8501C26.0571 9.26763 29.4857 7.63385 33.178 7.63385C40.1406 7.63385 45.8901 13.1676 45.8901 20.0717C45.8901 23.9717 44.0439 27.3974 41.2483 29.6636L23.7362 43.2082L6.54064 29.9271C3.4813 27.6082 1.5824 24.0771 1.5824 20.0717C1.5824 13.273 7.22635 7.63385 14.2945 7.63385Z" fill="#ED5D64"/>
<path id="Path_2" d="M14.2945 7.63385C18.0923 7.63385 21.5209 9.26763 23.7362 11.8501C26.0571 9.26763 29.4857 7.63385 33.178 7.63385C40.1406 7.63385 45.8901 13.1676 45.8901 20.0717C45.8901 23.9717 44.0439 27.3974 41.2483 29.6636L23.7362 43.2082L6.54064 29.9271C3.4813 27.6082 1.5824 24.0771 1.5824 20.0717C1.5824 13.273 7.22635 7.63385 14.2945 7.63385Z" fill="#E780B3"/>
<path id="Path_3" d="M33.1781 7.63385C31.9649 7.63385 30.8045 7.79196 29.6968 8.10817C34.9187 9.58385 38.7693 14.3271 38.7693 20.019C38.7693 23.919 36.8704 25.3947 34.1275 29.6109L23.7363 43.2082L41.2484 29.6636C44.044 27.3974 45.8902 23.9717 45.8902 20.0717C45.8902 13.1676 40.1407 7.63385 33.1781 7.63385Z" fill="#D174A3"/>
<path id="Path_4" d="M14.2946 11.5865C9.49459 11.5865 5.64404 15.3811 5.64404 20.0717C5.64404 20.9676 6.32976 21.6528 7.22646 21.6528C8.07042 21.6528 8.80888 20.9676 8.80888 20.0717C8.80888 17.1203 11.288 14.7487 14.2946 14.7487C15.1913 14.7487 15.877 14.0636 15.877 13.1676C15.877 12.2717 15.1913 11.5865 14.2946 11.5865Z" fill="#FAE6F0"/>
<path id="Shape" fill-rule="evenodd" clip-rule="evenodd" d="M22.7868 44.473C23.0505 44.6838 23.4198 44.7892 23.7363 44.7892C24.0527 44.7892 24.422 44.6838 24.6857 44.473L42.3033 30.8757C45.6264 28.1879 47.5253 24.2352 47.5253 20.0717C47.5253 12.3244 41.0901 6.05273 33.2308 6.05273C29.7495 6.05273 26.3736 7.3703 23.789 9.63652C21.2571 7.3176 17.8813 6.05273 14.2945 6.05273C6.38242 6.05273 0 12.3244 0 20.0717C0 24.446 2.05714 28.5041 5.59121 31.1392L22.7868 44.473ZM3.16484 20.0717C3.16484 14.1162 8.17582 9.2149 14.2945 9.2149C17.5121 9.2149 20.5187 10.5852 22.5231 12.9041C22.7868 13.2203 23.2088 13.4311 23.6835 13.4311C24.1582 13.4311 24.5802 13.2203 24.8967 12.9041C27.0066 10.5852 30.0132 9.2149 33.178 9.2149C39.2967 9.2149 44.3077 14.1162 44.3077 20.0717C44.3077 23.2865 42.8308 26.3433 40.2989 28.3987L23.7363 41.2054L7.49011 28.6095C4.74725 26.6068 3.16484 23.4446 3.16484 20.0717Z" fill="#454B54"/>
</g>
</g>
</svg>
