<svg width="16" height="16" viewBox="0 0 16 16" fill="none" xmlns="http://www.w3.org/2000/svg">
<path d="M4.73499 3.05455L3.62999 5.81819C3.38916 6.4291 3.26166 7.0691 3.26166 7.73819V14.9382C3.26166 15.2873 3.53082 15.5636 3.87082 15.5636H10.6V7.73819C10.6 7.08364 10.7275 6.4291 10.9683 5.81819L12.0733 3.05455V1.06183C12.0733 0.712734 11.8042 0.436371 11.4642 0.436371H4.73499V3.02546" fill="#F8D0AF"/>
<path d="M13.5466 14.9382V7.73817C13.5466 7.08363 13.4191 6.42908 13.1783 5.81817L12.0733 3.05453L10.9683 5.81817C10.7275 6.42908 10.6 7.06908 10.6 7.73817V15.5636H12.0733H12.9233C13.2775 15.5636 13.5466 15.2873 13.5466 14.9382Z" fill="#F8D0AF"/>
<path opacity="0.1" d="M12.0733 3.05453L10.9683 5.81817C10.7275 6.42908 10.6 7.06908 10.6 7.73817V15.5636L12.0733 14.3273V3.05453Z" fill="black"/>
<path d="M11.4641 0.436371H4.12582C3.78582 0.436371 3.51665 0.712734 3.51665 1.06183L3.14832 4.27637L4.49415 3.01092L5.59915 4.27637L6.94498 3.01092L8.04998 4.27637L9.39582 3.01092L10.5008 4.27637L10.8691 1.06183C10.855 0.712734 11.1241 0.436371 11.4641 0.436371Z" fill="#F8D0AF"/>
<path d="M8.27667 7.37454H5.82584C5.48584 7.37454 5.21667 7.65091 5.21667 8V9.26545C5.21667 9.61454 5.48584 9.89091 5.82584 9.89091H8.27667C8.61667 9.89091 8.88584 9.61454 8.88584 9.26545V8C8.88584 7.65091 8.61667 7.37454 8.27667 7.37454Z" fill="white"/>
<path fill-rule="evenodd" clip-rule="evenodd" d="M11.4645 0C12.0309 0.000245997 12.4986 0.479987 12.4987 1.06152V1.6875C12.4986 1.93466 12.3137 2.12402 12.0729 2.12402C11.8323 2.12385 11.6482 1.93455 11.6481 1.6875V1.06152C11.648 0.959981 11.5634 0.873302 11.4645 0.873047C11.3655 0.873047 11.2801 0.959832 11.28 1.06152V1.10547L10.9118 4.32031C10.8975 4.49473 10.7839 4.63998 10.614 4.68359C10.5716 4.71254 10.5293 4.71289 10.487 4.71289C10.3737 4.71289 10.2453 4.65466 10.1745 4.56738L9.35321 3.63672L8.33368 4.59668C8.24868 4.66941 8.13452 4.71289 8.02118 4.71289C7.90809 4.71275 7.80917 4.65446 7.72431 4.56738L6.91669 3.63672L5.88251 4.59668C5.79758 4.6693 5.6842 4.71284 5.57099 4.71289C5.45765 4.71289 5.35813 4.65466 5.27313 4.56738L4.46552 3.63672L3.43134 4.59668C3.30383 4.71281 3.1056 4.74161 2.94989 4.66895C2.79412 4.58165 2.695 4.40693 2.72333 4.23242L3.09149 1.0332C3.10566 0.451418 3.55905 5.17888e-05 4.12567 0H11.4645ZM4.12567 0.887695C4.02661 0.887753 3.94219 0.97447 3.94208 1.07617V1.12012L3.70087 3.1709L4.21063 2.69043C4.2814 2.61789 4.38071 2.58891 4.49384 2.58887H4.52216C4.63547 2.58887 4.73502 2.64713 4.82001 2.73438L5.6413 3.66504L6.67548 2.70508C6.76037 2.63245 6.87382 2.58898 6.987 2.58887C7.10028 2.58887 7.19988 2.64717 7.28485 2.73438L8.10614 3.66504L9.14032 2.70508C9.22532 2.63235 9.33949 2.58887 9.45282 2.58887C9.56591 2.589 9.66484 2.64732 9.7497 2.73438L10.2175 3.27246L10.4724 1.04688C10.4724 0.988944 10.473 0.931202 10.487 0.887695H4.12567Z" fill="#454B54"/>
<path d="M12.073 2.61819C12.243 2.61819 12.3996 2.73456 12.4705 2.89456L13.575 5.65823C13.8441 6.31277 13.9719 7.01105 13.9861 7.73831V14.9385C13.9859 15.5201 13.5184 15.9999 12.9519 16H3.89917C3.3326 16 2.86516 15.5202 2.86499 14.9385V7.73831C2.86499 7.02562 2.99233 6.3273 3.26147 5.65823C3.34647 5.44005 3.60171 5.33854 3.81421 5.42581C4.02659 5.51315 4.12575 5.77507 4.04077 5.99319C3.81422 6.54581 3.70093 7.14209 3.70093 7.73831V14.9385C3.7011 15.04 3.78566 15.1267 3.88452 15.127H10.1746V7.73831C10.1746 7.02558 10.3029 6.32732 10.572 5.65823L11.6765 2.89456C11.7473 2.72013 11.9031 2.61832 12.073 2.61819ZM11.3796 5.99319C11.153 6.54586 11.0388 7.14203 11.0388 7.73831V15.127H12.9373C13.0363 15.127 13.1217 15.0402 13.1218 14.9385H13.1355V7.73831C13.1355 7.14207 13.0222 6.54583 12.7957 5.99319L12.0876 4.2178L11.3796 5.99319Z" fill="#454B54"/>
</svg>
