<svg width="17" height="16" viewBox="0 0 17 16" fill="none" xmlns="http://www.w3.org/2000/svg">
<path fill-rule="evenodd" clip-rule="evenodd" d="M2.38987 14.5095C2.19787 14.5095 2.08071 14.5015 2.07606 14.501C1.07735 14.5 0.25 13.6985 0.25 12.75C0.25 11.069 0.638129 9.5825 1.43658 8.205C3.24303 5.09 4.96329 5 5.15323 5C5.96097 5 6.44355 5.4405 6.44355 6.179V11.547C6.44355 12.7135 5.90213 13.5525 4.83529 14.0405C3.9429 14.4485 2.92045 14.5095 2.38987 14.5095Z" fill="#FFD6D6"/>
<path fill-rule="evenodd" clip-rule="evenodd" d="M0.25 13C0.25 11.758 0.456452 10.08 1.47013 8.3325C3.24252 5.2755 4.98084 5 5.41129 5C6.39813 5 6.95968 5.594 6.95968 6.429V11.797C6.95968 14.766 3.71323 15.0095 2.64845 15.0095C2.43942 15.0095 2.31452 15 2.31452 15C1.22497 15 0.25 14.1095 0.25 13ZM6.44355 6.429C6.44355 5.83 6.0771 5.5 5.41129 5.5C5.34161 5.5 3.68432 5.535 1.91968 8.5775C1.14342 9.916 0.766129 11.363 0.766129 13C0.766129 13.813 1.47529 14.5 2.31452 14.5H2.33465L2.35426 14.5015C2.37662 14.5029 2.48274 14.5095 2.64845 14.5095C3.78961 14.5095 6.44355 14.245 6.44355 11.797V6.429Z" fill="#454B54"/>
<path fill-rule="evenodd" clip-rule="evenodd" d="M13.5664 14.7595C12.3479 14.7595 9.51276 14.471 9.51276 11.797V6.429C9.51276 5.6905 9.99534 5.25 10.8031 5.25C10.993 5.25 12.7133 5.34 14.5197 8.455C15.3182 9.8315 15.7063 11.318 15.7063 13C15.7063 13.9485 14.879 14.75 13.8999 14.75C13.8756 14.751 13.7584 14.7595 13.5664 14.7595Z" fill="#FFD6D6"/>
<path fill-rule="evenodd" clip-rule="evenodd" d="M9.25519 11.797V6.429C9.25519 5.594 9.81674 5 10.8036 5C11.234 5 12.9723 5.2755 14.7447 8.3325C15.7584 10.08 15.9649 11.758 15.9649 13C15.9649 14.1095 14.9899 15 13.9003 15C13.9003 15 13.7754 15.0095 13.5664 15.0095C12.5016 15.0095 9.25519 14.766 9.25519 11.797ZM14.2952 8.5775C12.5305 5.535 10.8733 5.5 10.8036 5.5C10.1378 5.5 9.77132 5.83 9.77132 6.429V11.797C9.77132 14.245 12.4253 14.5095 13.5664 14.5095C13.73 14.5095 13.8355 14.5031 13.8575 14.5017L13.8802 14.5H13.9003C14.7396 14.5 15.4487 13.813 15.4487 13C15.4487 11.363 15.0714 9.9165 14.2952 8.5775Z" fill="#454B54"/>
<path fill-rule="evenodd" clip-rule="evenodd" d="M11.7551 9.8355C11.3747 8.8205 10.4859 8.4185 9.6255 8.0285C9.10008 7.791 8.55763 7.545 8.09673 7.1575L7.92744 7.0155L7.75815 7.158C7.29828 7.5445 6.75737 7.7875 6.23402 8.0225C5.37312 8.4085 4.48383 8.8075 4.10034 9.8355C4.33466 8.8975 4.80331 8.181 5.49647 7.704C7.00873 6.6625 7.15273 5.516 7.15324 5.5055V1.75H8.70163V5.5C8.70215 5.516 8.84615 6.662 10.3584 7.704C11.0516 8.1805 11.5207 8.897 11.7551 9.8355Z" fill="#F78F8F"/>
<path fill-rule="evenodd" clip-rule="evenodd" d="M6.89516 5.4995V1.4995H8.95968V5.4995C8.96019 5.5235 9.13155 6.5515 10.5081 7.4995C11.1279 7.9265 11.786 8.682 12.0565 9.9995C12.2375 10.8809 12.9032 11.4021 13.302 11.7143C13.5797 11.9317 13.6048 11.9995 13.5232 12.2358C13.0939 11.8364 12.0438 11.5026 11.5403 9.9995C11.2134 9.02361 10.3966 8.65374 9.51645 8.25519C8.97791 8.01133 8.41566 7.75673 7.92742 7.346C7.43986 7.75615 6.87926 8.00759 6.34206 8.24854C5.46209 8.64322 4.64493 9.00973 4.31452 9.9995C3.81261 11.5026 2.76194 11.8362 2.33947 11.9704C2.30534 11.9812 2.27531 11.9908 2.25 11.9995C2.33165 12.2358 2.55283 11.7143 2.70693 11.9111C2.95164 11.4021 3.61729 10.8809 3.79839 9.9995C4.06884 8.682 4.7269 7.9265 5.34677 7.4995C6.72329 6.5515 6.89465 5.5235 6.89516 5.4995ZM8.44355 5.506V1.9995H7.41129V5.4995C7.40768 5.7585 7.09852 6.9065 5.64561 7.907C5.55531 8.05084 5.39684 8.0935 5.28484 8.2C5.55531 8.05084 5.83905 7.92343 6.12033 7.79714L6.1251 7.795C6.63194 7.568 7.15632 7.3325 7.58884 6.969L7.92742 6.6845L8.26548 6.969C8.69903 7.3335 9.22548 7.572 9.73439 7.8025C10.0219 7.9325 10.3119 8.064 10.5881 8.218C10.4709 8.104 10.3445 8.0005 10.2087 7.907C8.75632 6.9065 8.44665 5.7585 8.44355 5.506Z" fill="#454B54"/>
</svg>
