<svg width="24" height="26" viewBox="0 0 24 26" fill="none" xmlns="http://www.w3.org/2000/svg">
<g id="Medical-report">
<g id="Group 2">
<path id="Path" fill-rule="evenodd" clip-rule="evenodd" d="M19.9576 4.1445V21.2137C19.9576 22.4473 18.9861 23.4567 17.7987 23.4567H7.30652C6.11914 23.4567 5.14764 22.4473 5.14764 21.2137V4.1445" fill="white"/>
<g id="Group">
<rect id="Rectangle" x="11.4731" y="10.694" width="2.15888" height="7.28972" fill="#ED97A0"/>
<rect id="Rectangle_2" x="9.0336" y="13.2286" width="7.01636" height="2.24299" fill="#ED97A0"/>
</g>
<path id="Oval" fill-rule="evenodd" clip-rule="evenodd" d="M12.5526 3.92022C13.3872 3.92022 14.0638 3.21726 14.0638 2.35012C14.0638 1.48298 13.3872 0.780029 12.5526 0.780029C11.7179 0.780029 11.0414 1.48298 11.0414 2.35012C11.0414 3.21726 11.7179 3.92022 12.5526 3.92022Z" fill="white"/>
<g id="Group_2">
<path id="Shape" fill-rule="evenodd" clip-rule="evenodd" d="M7.30654 24.1071H17.7987C19.3531 24.1071 20.6052 22.8062 20.6268 21.2136V6.38748C20.6268 4.77252 19.3747 3.47159 17.8203 3.47159H7.30654C5.75215 3.47159 4.5 4.77252 4.5 6.38748V21.1912C4.5 22.8062 5.75215 24.1071 7.30654 24.1071ZM5.79532 6.38749C5.79532 5.51272 6.46457 4.8174 7.30654 4.8174H17.8203C18.6622 4.8174 19.3315 5.51272 19.3315 6.38749V21.2137C19.3315 22.0884 18.6622 22.7838 17.8203 22.7838H7.30654C6.46457 22.7838 5.79532 22.0884 5.79532 21.2137V6.38749Z" fill="#454B54"/>
<path id="Path_2" fill-rule="evenodd" clip-rule="evenodd" d="M8.9905 7.06038C8.62349 7.06038 8.34283 6.76879 8.34283 6.38748C8.34283 6.00617 8.62349 5.71458 8.9905 5.71458H16.1148C16.4818 5.71458 16.7625 6.00617 16.7625 6.38748C16.7625 6.76879 16.4818 7.06038 16.1148 7.06038H8.9905Z" fill="#454B54"/>
<path id="Shape_2" fill-rule="evenodd" clip-rule="evenodd" d="M10.3937 2.35011C10.3937 3.58375 11.3652 4.5931 12.5526 4.5931C13.74 4.5931 14.7115 3.58375 14.7115 2.35011C14.7115 1.11646 13.74 0.107117 12.5526 0.107117C11.3652 0.107117 10.3937 1.11646 10.3937 2.35011ZM11.689 2.35011C11.689 1.85666 12.0776 1.45292 12.5526 1.45292C13.0275 1.45292 13.4161 1.85666 13.4161 2.35011C13.4161 2.84357 13.0275 3.24731 12.5526 3.24731C12.0776 3.24731 11.689 2.84357 11.689 2.35011Z" fill="#454B54"/>
</g>
</g>
</g>
</svg>
