<svg width="24" height="24" viewBox="0 0 24 24" fill="none" xmlns="http://www.w3.org/2000/svg">
<g id="Medical / Heart">
<g id="icons8-heart">
<g id="Group">
<path id="Path" fill-rule="evenodd" clip-rule="evenodd" d="M7.19999 3.86961C9.11999 3.86961 10.8267 4.68651 12 5.97772C13.1733 4.68651 14.88 3.86961 16.8 3.86961C20.3467 3.86961 23.2 6.63651 23.2 10.0622C23.2 12.0122 22.2667 13.725 20.8267 14.8845L12 21.6304L3.33332 14.9899C1.78665 13.8568 0.799988 12.0649 0.799988 10.0622C0.799988 6.63651 3.65332 3.86961 7.19999 3.86961Z" fill="#F28602"/>
<path id="Shape" fill-rule="evenodd" clip-rule="evenodd" d="M11.52 22.2628C11.6533 22.3682 11.84 22.4209 12 22.4209C12.16 22.4209 12.3467 22.3682 12.48 22.2892L21.3333 15.5169L21.3867 15.4642C23.04 14.1203 24 12.1703 24 10.0622C24 6.21487 20.7733 3.07906 16.8 3.07906C15.0133 3.07906 13.3067 3.73784 12 4.87095C10.6933 3.71149 8.98667 3.07906 7.2 3.07906C3.22667 3.07906 0 6.21487 0 10.0622C0 12.223 1.01333 14.2257 2.74667 15.5696C2.77333 15.5696 2.8 15.5959 2.82667 15.6223L11.52 22.2628ZM12 20.6554L3.89333 14.4365C3.86667 14.4101 3.84 14.3838 3.78667 14.3574C2.37333 13.3297 1.57333 11.7487 1.57333 10.0622C1.57333 7.08446 4.08 4.66014 7.17333 4.66014C8.8 4.66014 10.32 5.31892 11.3867 6.50473C11.7067 6.8473 12.2933 6.8473 12.5867 6.50473C13.6533 5.34527 15.2 4.66014 16.8 4.66014C19.8933 4.66014 22.4 7.08446 22.4 10.0622C22.4 11.6959 21.6533 13.2243 20.3467 14.252L20.32 14.2784L12 20.6554Z" fill="#454B54"/>
</g>
<path id="Path_2" fill-rule="evenodd" clip-rule="evenodd" d="M2.64003 10.8527C2.18669 10.8527 1.84003 10.5101 1.84003 10.0621C1.84003 7.18984 4.24003 4.87093 7.20003 4.87093C7.65336 4.87093 8.00003 5.21349 8.00003 5.66147C8.00003 6.10944 7.65336 6.45201 7.20003 6.45201C5.12003 6.45201 3.44003 8.05944 3.44003 10.0621C3.44003 10.5101 3.09336 10.8527 2.64003 10.8527Z" fill="white"/>
</g>
</g>
</svg>
