<svg width="16" height="16" viewBox="0 0 16 16" fill="none" xmlns="http://www.w3.org/2000/svg">
<g id="Media">
<g id="Group 3" opacity="0.9">
<g id="icons8-photo-gallery (1)">
<g id="Group">
<path id="Shape" d="M14.2647 13.8275L4.99999 15.4569C4.20588 15.6037 3.44117 15.0606 3.29411 14.2679L1.55882 4.43303C1.41176 3.64037 1.95588 2.87707 2.74999 2.73028L12.0147 1.10092L14.2647 13.8275Z" fill="white"/>
<path id="Shape_2" d="M4.7353 15.9119C4.35295 15.9119 3.97059 15.7945 3.64706 15.5743C3.2353 15.2807 2.94118 14.8404 2.85295 14.3413L1.11765 4.50642C0.941182 3.47889 1.63236 2.48073 2.66177 2.2899L3.13236 2.20183C3.36765 2.15779 3.60295 2.31926 3.64706 2.55412C3.69118 2.78898 3.52942 3.02385 3.29412 3.06788L2.82353 3.15596C2.26471 3.25871 1.89706 3.78715 1.9853 4.34495L3.72059 14.1798C3.76471 14.444 3.91177 14.6789 4.14706 14.8404C4.36765 15.0018 4.64706 15.0605 4.91177 15.0165L8.42648 14.4C8.66177 14.356 8.89706 14.5174 8.94118 14.7523C8.9853 14.9872 8.82353 15.222 8.58824 15.266L5.07353 15.8826C4.95589 15.8972 4.83824 15.9119 4.7353 15.9119Z" fill="#444B54"/>
<path id="Shape_3" d="M14.0882 13.3578H6.14704C5.33822 13.3578 4.67645 12.6972 4.67645 11.8899V1.90826C4.67645 1.10092 5.33822 0.440369 6.14704 0.440369H14.0882C14.897 0.440369 15.5588 1.10092 15.5588 1.90826V11.8899C15.5588 12.6972 14.897 13.3578 14.0882 13.3578Z" fill="white"/>
<rect id="Rectangle-path" x="6.14709" y="1.90826" width="7.94118" height="8.51376" fill="#AFDEDC"/>
<path id="Shape_4" d="M14.0878 0C15.1466 0 15.9999 0.851347 15.9999 1.9082V11.8896C15.9999 12.9465 15.1467 13.7979 14.0878 13.7979H6.1474C5.08858 13.7979 4.23529 12.9465 4.23529 11.8896V1.9082C4.23532 0.851347 5.08859 0 6.1474 0H14.0878ZM6.1474 0.880859C5.57389 0.880859 5.11813 1.33575 5.1181 1.9082V11.8896C5.1181 12.4621 5.57387 12.917 6.1474 12.917H14.0878C14.6614 12.917 15.1181 12.4621 15.1181 11.8896V1.9082C15.1181 1.33575 14.6613 0.880859 14.0878 0.880859H6.1474Z" fill="#444B54"/>
</g>
</g>
</g>
</g>
</svg>
