<svg width="16" height="16" viewBox="0 0 16 16" fill="none" xmlns="http://www.w3.org/2000/svg">
<rect width="16" height="16" fill="white"/>
<path d="M13.7852 15.3913H2.8815C1.94446 15.3913 1.1778 14.6087 1.1778 13.6522V4.9913C1.1778 4.03478 1.94446 3.25217 2.8815 3.25217H13.7852C14.7222 3.25217 15.4889 4.03478 15.4889 4.9913V13.6522C15.4889 14.6261 14.7222 15.3913 13.7852 15.3913Z" fill="white"/>
<rect x="2.88153" y="4.9913" width="10.9037" height="8.66087" fill="white"/>
<path d="M13.7849 2.73044C15.0115 2.73044 15.9996 3.73907 15.9997 4.99118V13.6523C15.9996 14.9044 15.0115 15.9131 13.7849 15.9131H2.88153C1.65491 15.9131 0.666758 14.9044 0.666687 13.6523V4.99118C0.666754 3.73907 1.65491 2.73044 2.88153 2.73044H13.7849ZM2.88153 3.77438C2.21713 3.77438 1.68921 4.31298 1.68915 4.99118V13.6523C1.68922 14.3305 2.21713 14.8691 2.88153 14.8691H13.7849C14.4493 14.8691 14.9781 14.3305 14.9782 13.6523V4.99118C14.9781 4.31298 14.4493 3.77438 13.7849 3.77438H2.88153Z" fill="#454B54"/>
<path d="M10.8889 2.17392C10.8207 2.17392 10.7696 2.15652 10.7015 2.13913L8.33333 1.16522L5.96518 2.13913C5.70962 2.24348 5.40296 2.12174 5.30074 1.84348C5.19851 1.58261 5.31777 1.26957 5.59037 1.16522L8.14592 0.121742C8.26518 0.0695676 8.40148 0.0695676 8.52074 0.121742L11.0763 1.16522C11.3318 1.26957 11.4681 1.58261 11.3659 1.84348C11.2807 2.05218 11.0933 2.17392 10.8889 2.17392Z" fill="#454B54"/>
<path d="M10.4118 8.66086H9.18518V7.40869C9.18518 6.92173 8.81036 6.53912 8.33332 6.53912C7.85629 6.53912 7.48147 6.92173 7.48147 7.40869V8.66086H6.25481C5.77777 8.66086 5.40295 9.04347 5.40295 9.53043C5.40295 10.0174 5.77777 10.4 6.25481 10.4H7.48147V11.6522C7.48147 12.1391 7.85629 12.5217 8.33332 12.5217C8.81036 12.5217 9.18518 12.1391 9.18518 11.6522V10.4H10.4118C10.8889 10.4 11.2637 10.0174 11.2637 9.53043C11.2637 9.04347 10.8718 8.66086 10.4118 8.66086Z" fill="#F37778"/>
</svg>
