<svg width="16" height="16" viewBox="0 0 16 16" fill="none" xmlns="http://www.w3.org/2000/svg">
<path fill-rule="evenodd" clip-rule="evenodd" d="M15.44 14.224L14.16 15.52L11.28 12.608C11.28 12.608 11.28 12.608 11.28 12.592L12.56 11.296L15.44 14.224Z" fill="#FCF7CB"/>
<path fill-rule="evenodd" clip-rule="evenodd" d="M13.824 15.856C13.904 15.952 14.032 16 14.16 16C14.288 16 14.416 15.952 14.512 15.856L15.792 14.56C15.984 14.384 15.968 14.08 15.792 13.888L12.912 10.976C12.72 10.8 12.4 10.8 12.224 10.976L10.944 12.272C10.752 12.448 10.768 12.752 10.944 12.944L13.824 15.856ZM14.144 14.832L11.936 12.592L12.544 11.984L14.752 14.224L14.144 14.832Z" fill="#454B54"/>
<path fill-rule="evenodd" clip-rule="evenodd" d="M0.559998 6.59201C0.559998 3.21601 3.264 0.480011 6.608 0.480011C9.936 0.480011 12.64 3.21601 12.64 6.59201C12.64 9.96801 9.952 12.704 6.608 12.704C3.264 12.704 0.559998 9.96801 0.559998 6.59201ZM2.08 6.59201C2.08 9.12001 4.096 11.168 6.608 11.168C9.104 11.168 11.136 9.12001 11.136 6.59201C11.136 4.06401 9.104 2.01601 6.608 2.01601C4.112 2.01601 2.08 4.06401 2.08 6.59201Z" fill="white"/>
<path fill-rule="evenodd" clip-rule="evenodd" d="M6.60802 11.168C4.09602 11.168 2.08002 9.11999 2.08002 6.59199C2.08002 4.06399 4.11202 2.01599 6.60802 2.01599C9.10402 2.01599 11.136 4.06399 11.136 6.59199C11.136 9.11999 9.10402 11.168 6.60802 11.168Z" fill="#AFDEDC"/>
<path fill-rule="evenodd" clip-rule="evenodd" d="M0.0800171 6.592C0.0800171 10.224 3.00802 13.184 6.60802 13.184C10.208 13.184 13.12 10.224 13.12 6.592C13.12 2.96 10.208 0 6.60802 0C3.00802 0 0.0800171 2.96 0.0800171 6.592ZM1.04002 6.592C1.04002 3.488 3.53602 0.96 6.60802 0.96C9.68002 0.96 12.16 3.488 12.16 6.592C12.16 9.696 9.68002 12.224 6.60802 12.224C3.53602 12.224 1.04002 9.696 1.04002 6.592Z" fill="#454B54"/>
<path fill-rule="evenodd" clip-rule="evenodd" d="M11.904 12.368C11.792 12.368 11.696 12.32 11.6 12.24L10.576 11.2C10.416 11.04 10.416 10.768 10.576 10.608C10.736 10.448 11.008 10.448 11.168 10.608L12.192 11.648C12.352 11.808 12.352 12.08 12.192 12.24C12.128 12.336 12.016 12.368 11.904 12.368Z" fill="#454B54"/>
<path fill-rule="evenodd" clip-rule="evenodd" d="M3.61602 5.936C3.56802 5.936 3.52002 5.936 3.47202 5.904C3.24802 5.824 3.13602 5.584 3.21602 5.36C3.72802 3.92 5.08802 2.944 6.60802 2.944C6.83202 2.944 7.02402 3.136 7.02402 3.36C7.02402 3.584 6.83202 3.776 6.60802 3.776C5.44002 3.776 4.40002 4.512 4.01602 5.632C3.95202 5.824 3.79202 5.936 3.61602 5.936Z" fill="white"/>
<path fill-rule="evenodd" clip-rule="evenodd" d="M3.43999 7.008C3.21599 7.008 3.02399 6.816 3.02399 6.592V6.528C3.02399 6.304 3.21599 6.112 3.43999 6.112C3.67999 6.112 3.87199 6.304 3.87199 6.544V6.592C3.85599 6.816 3.66399 7.008 3.43999 7.008Z" fill="white"/>
<path fill-rule="evenodd" clip-rule="evenodd" d="M6.20799 9.87199C6.06399 9.87199 5.90399 9.80799 5.82399 9.66399L5.08799 8.63999C4.92799 8.43199 4.97599 8.12799 5.19999 7.96799C5.40799 7.80799 5.71199 7.85599 5.87199 8.07999L6.60799 9.10399C6.76799 9.31199 6.71999 9.61599 6.49599 9.77599C6.39999 9.83999 6.30399 9.87199 6.20799 9.87199Z" fill="#00776B"/>
<path fill-rule="evenodd" clip-rule="evenodd" d="M8.60805 8.43201C8.56005 8.43201 8.49605 8.41601 8.44805 8.40001C8.19205 8.30401 8.06405 8.03201 8.16005 7.79201L8.70405 6.28801C8.80005 6.03201 9.07205 5.90401 9.31205 6.00001C9.56805 6.09601 9.69605 6.36801 9.60005 6.60801L9.05605 8.11201C8.99205 8.30401 8.80005 8.43201 8.60805 8.43201Z" fill="#00776B"/>
<path fill-rule="evenodd" clip-rule="evenodd" d="M7.16802 6.00001C7.15202 6.00001 7.13602 6.00001 7.12002 6.00001L5.72802 5.84001C5.47202 5.80801 5.28002 5.56801 5.31202 5.31201C5.34402 5.05601 5.58402 4.86401 5.84002 4.89601L7.23202 5.05601C7.48802 5.08801 7.68002 5.32801 7.64802 5.58401C7.61602 5.82401 7.40802 6.00001 7.16802 6.00001Z" fill="#00776B"/>
</svg>
