<svg width="16" height="16" viewBox="0 0 16 16" fill="none" xmlns="http://www.w3.org/2000/svg">
<path d="M5.10413 1.96225V1.08678C5.10413 0.739612 5.3991 0.45282 5.75618 0.45282H10.926C11.2831 0.45282 11.5781 0.739612 11.5781 1.08678V1.96225" fill="white"/>
<path d="M9.57532 15.5472H12.168C12.8822 15.5472 13.4566 14.9887 13.4566 14.2943V4.37734C13.4566 4.04527 13.3169 3.72829 13.084 3.48678L11.516 1.96225H5.05752L3.53605 3.4415C3.28765 3.683 3.16345 3.99999 3.16345 4.33206V14.2943C3.16345 14.9887 3.73788 15.5472 4.45204 15.5472H9.57532Z" fill="white"/>
<path opacity="0.1" d="M9.62189 15.5472L11.5625 13.9472C11.516 13.9472 11.5625 1.96225 11.5625 1.96225L9.62189 3.84904V15.5472Z" fill="black"/>
<path d="M7.68125 6.36981H5.10408C4.747 6.36981 4.45203 6.6566 4.45203 7.00377V8.2566C4.45203 8.60377 4.747 8.89057 5.10408 8.89057H7.69678C8.05385 8.89057 8.34883 8.60377 8.34883 8.2566V7.00377C8.3333 6.64151 8.03833 6.36981 7.68125 6.36981Z" fill="#8BD5EC"/>
<path d="M10.9107 0C11.5316 0.000106307 12.0279 0.483207 12.0279 1.08691V1.78125L13.689 3.38086C13.8753 3.56199 13.9692 3.80394 13.9537 4.06055V14.2939C13.9537 15.2298 13.1613 16 12.1988 16H4.4361C3.47373 15.9998 2.68219 15.2297 2.68219 14.2939V4.25684C2.71324 3.84929 2.89991 3.45671 3.19489 3.16992L4.62262 1.78125V1.08691C4.62262 0.48314 5.11978 0 5.74078 0H10.9107ZM3.67535 4.30176C3.6446 4.3019 3.62946 4.31761 3.62946 4.34766V14.2939C3.62946 14.7316 4.00164 15.0945 4.45172 15.0947H9.15582V4.34766C9.15582 4.31758 9.14075 4.30187 9.10992 4.30176H3.67535ZM10.3365 3.80371C10.1813 3.95456 10.0876 4.16577 10.0875 4.37695V15.0947H12.2144C12.6646 15.0947 13.0377 14.7317 13.0377 14.2939V4.06055C13.0377 4.04549 13.0375 4.04527 13.022 4.03027L11.5621 2.61133L10.3365 3.80371ZM4.28082 3.38086H9.12555C9.23395 3.38094 9.34235 3.41129 9.45074 3.44141C9.51285 3.33575 9.59099 3.24486 9.68414 3.1543L10.4449 2.40039H5.29059L4.28082 3.38086ZM5.74078 0.905273C5.64763 0.905273 5.56989 0.981254 5.56989 1.08691V1.50977H11.0972V1.08691C11.0972 0.981331 11.0038 0.905384 10.9107 0.905273H5.74078Z" fill="#454B54"/>
</svg>
