<svg width="16" height="16" viewBox="0 0 16 16" fill="none" xmlns="http://www.w3.org/2000/svg">
<path fill-rule="evenodd" clip-rule="evenodd" d="M9.0702 4.63158H6.82459C6.05266 4.63158 5.42108 5.26316 5.42108 6.03509V10.2456H6.26319V11.9298H9.63161V10.2456H10.4737V6.03509C10.4737 5.26316 9.84213 4.63158 9.0702 4.63158Z" fill="white"/>
<path fill-rule="evenodd" clip-rule="evenodd" d="M9.63158 12.3509C9.39298 12.3509 9.21053 12.1684 9.21053 11.9298V10.2456C9.21053 10.007 9.39298 9.82456 9.63158 9.82456H10.0526V6.03509C10.0526 5.48772 9.61754 5.05263 9.07018 5.05263H6.82456C6.27719 5.05263 5.84211 5.48772 5.84211 6.03509V10.2456C5.84211 10.4842 5.65965 10.6667 5.42105 10.6667C5.18246 10.6667 5 10.4842 5 10.2456V6.03509C5 5.02456 5.81404 4.21053 6.82456 4.21053H9.07018C10.0807 4.21053 10.8947 5.02456 10.8947 6.03509V10.2456C10.8947 10.4842 10.7123 10.6667 10.4737 10.6667H10.0526V11.9298C10.0526 12.1684 9.87018 12.3509 9.63158 12.3509Z" fill="#444B54"/>
<path fill-rule="evenodd" clip-rule="evenodd" d="M7.94739 3.22807C8.72253 3.22807 9.3509 2.5997 9.3509 1.82456C9.3509 1.04942 8.72253 0.421051 7.94739 0.421051C7.17226 0.421051 6.54388 1.04942 6.54388 1.82456C6.54388 2.5997 7.17226 3.22807 7.94739 3.22807Z" fill="white"/>
<path fill-rule="evenodd" clip-rule="evenodd" d="M6.1228 1.82456C6.1228 2.83509 6.93684 3.64912 7.94736 3.64912C8.95789 3.64912 9.77193 2.83509 9.77193 1.82456C9.77193 0.814035 8.95789 0 7.94736 0C6.93684 0 6.1228 0.814035 6.1228 1.82456ZM6.96491 1.82456C6.96491 1.27719 7.4 0.842105 7.94736 0.842105C8.49473 0.842105 8.92982 1.27719 8.92982 1.82456C8.92982 2.37193 8.49473 2.80702 7.94736 2.80702C7.4 2.80702 6.96491 2.37193 6.96491 1.82456Z" fill="#444B54"/>
<path fill-rule="evenodd" clip-rule="evenodd" d="M6.26315 12.3088C6.02456 12.3088 5.8421 12.1263 5.8421 11.8877V11.0877C5.8421 10.8491 6.02456 10.6667 6.26315 10.6667C6.50175 10.6667 6.68421 10.8491 6.68421 11.0877V11.8877C6.68421 12.1263 6.50175 12.3088 6.26315 12.3088Z" fill="#444B54"/>
<path fill-rule="evenodd" clip-rule="evenodd" d="M9.63158 12.3509H6.26315C6.02456 12.3509 5.8421 12.1684 5.8421 11.9298C5.8421 11.6912 6.02456 11.5088 6.26315 11.5088H9.63158C9.87017 11.5088 10.0526 11.6912 10.0526 11.9298C10.0526 12.1684 9.87017 12.3509 9.63158 12.3509Z" fill="#444B54"/>
<path fill-rule="evenodd" clip-rule="evenodd" d="M7.24564 16C7.00704 16 6.82458 15.8175 6.82458 15.5789V11.9298C6.82458 11.6912 7.00704 11.5088 7.24564 11.5088C7.48423 11.5088 7.66669 11.6912 7.66669 11.9298V15.5789C7.66669 15.8175 7.48423 16 7.24564 16Z" fill="#444B54"/>
<path fill-rule="evenodd" clip-rule="evenodd" d="M8.64914 16C8.41054 16 8.22809 15.8175 8.22809 15.5789V11.9298C8.22809 11.6912 8.41054 11.5088 8.64914 11.5088C8.88774 11.5088 9.07019 11.6912 9.07019 11.9298V15.5789C9.07019 15.8175 8.88774 16 8.64914 16Z" fill="#444B54"/>
<path fill-rule="evenodd" clip-rule="evenodd" d="M10.193 16H7.24564C7.00704 16 6.82458 15.8175 6.82458 15.579C6.82458 15.3404 7.00704 15.1579 7.24564 15.1579H10.193C10.4316 15.1579 10.6141 15.3404 10.6141 15.579C10.6141 15.8175 10.4316 16 10.193 16Z" fill="#444B54"/>
</svg>
