<svg width="16" height="16" viewBox="0 0 16 16" fill="none" xmlns="http://www.w3.org/2000/svg">
<path d="M8 16C12.4183 16 16 12.4183 16 8C16 3.58172 12.4183 0 8 0C3.58172 0 0 3.58172 0 8C0 12.4183 3.58172 16 8 16Z" fill="#A565EF"/>
<path d="M5.5625 6.50002C5.66605 6.50002 5.75 6.58397 5.75 6.68752C5.75 6.79108 5.66605 6.87502 5.5625 6.87502C5.45895 6.87502 5.375 6.79108 5.375 6.68752C5.375 6.58397 5.45895 6.50002 5.5625 6.50002" stroke="white" stroke-width="0.9" stroke-linecap="round" stroke-linejoin="round"/>
<path d="M4.75647 9.71202C5.39103 10.9153 6.63959 11.6685 7.99997 11.6685C8.08397 11.6685 8.16697 11.6655 8.24997 11.66C8.31897 11.6554 8.38747 11.6489 8.45547 11.6405" stroke="white" stroke-width="0.9" stroke-linecap="round" stroke-linejoin="round"/>
<path d="M13.6195 7.76151C13.4891 4.68862 10.9148 2.29022 7.84035 2.37726C4.76593 2.46429 2.33145 5.00448 2.37509 8.07982C2.41873 11.1552 4.92432 13.6252 7.99996 13.625C8.08396 13.625 8.16696 13.625 8.24996 13.619" stroke="white" stroke-width="0.9" stroke-linecap="round" stroke-linejoin="round"/>
<path d="M9.22296 6.83002C9.43391 6.49292 9.80355 6.28819 10.2012 6.28819C10.5989 6.28819 10.9685 6.49292 11.1795 6.83002" stroke="white" stroke-width="0.9" stroke-linecap="round" stroke-linejoin="round"/>
<path d="M13.6195 7.76153L8.25 13.619" stroke="white" stroke-width="0.9" stroke-linecap="round" stroke-linejoin="round"/>
<path d="M8.24451 13.625V13.136C8.24451 10.1645 10.6534 7.75552 13.625 7.75552" stroke="white" stroke-width="0.9" stroke-linecap="round" stroke-linejoin="round"/>
</svg>
