<svg width="16" height="16" viewBox="0 0 16 16" fill="none" xmlns="http://www.w3.org/2000/svg">
<g clip-path="url(#clip0_3862_165899)">
<path d="M5.5 0.5V13.625L11.75 13C12.4375 13 13 12.4375 13 11.75V0.5L11.75 1.75L10.5 0.5L9.25 1.75L8 0.5L6.75 1.75L5.5 0.5Z" fill="white"/>
<path d="M11.75 2.125C11.65 2.125 11.5625 2.0875 11.4875 2.0125L10.5 1.025L9.5125 2.0125C9.3625 2.1625 9.125 2.1625 8.9875 2.0125L7.7375 0.7625C7.5875 0.6125 7.5875 0.375 7.7375 0.2375C7.8875 0.0875 8.125 0.0875 8.2625 0.2375L9.25 1.225L10.2375 0.2375C10.3875 0.0875 10.625 0.0875 10.7625 0.2375L11.75 1.225L12.7375 0.2375C12.8875 0.0875 13.125 0.0875 13.2625 0.2375C13.4125 0.3875 13.4125 0.625 13.2625 0.7625L12.0125 2.0125C11.9375 2.0875 11.85 2.125 11.75 2.125Z" fill="#444B54"/>
<path d="M9.25 3H5.5V13H11.75V5.5C11.75 4.125 10.625 3 9.25 3Z" fill="#CADBEA"/>
<path d="M5.5 4.5C5.2875 4.5 5.125 4.3375 5.125 4.125V0.5C5.125 0.2875 5.2875 0.125 5.5 0.125C5.7125 0.125 5.875 0.2875 5.875 0.5V4.125C5.875 4.3375 5.7125 4.5 5.5 4.5Z" fill="#444B54"/>
<path d="M8 13V5.5C8 4.8125 8.5625 4.25 9.25 4.25C9.9375 4.25 10.5 4.8125 10.5 5.5V11.75C10.5 12.4375 11.0625 13 11.75 13C12.1 13 8 13 8 13Z" fill="#CADBEA"/>
<path d="M11.75 13.375C11.5375 13.375 11.375 13.2125 11.375 13C11.375 12.7875 11.5375 12.625 11.75 12.625C12.2375 12.625 12.625 12.2375 12.625 11.75V0.5C12.625 0.2875 12.7875 0.125 13 0.125C13.2125 0.125 13.375 0.2875 13.375 0.5V11.75C13.375 12.65 12.65 13.375 11.75 13.375Z" fill="#444B54"/>
<path d="M11.75 13.375H9.25C9.0375 13.375 8.875 13.2125 8.875 13C8.875 12.7875 9.0375 12.625 9.25 12.625H10.375C10.2125 12.375 10.125 12.075 10.125 11.75V5.5C10.125 5.0125 9.7375 4.625 9.25 4.625C9.0375 4.625 8.875 4.4625 8.875 4.25C8.875 4.0375 9.0375 3.875 9.25 3.875C10.15 3.875 10.875 4.6 10.875 5.5V11.75C10.875 12.2375 11.2625 12.625 11.75 12.625C11.9625 12.625 12.125 12.7875 12.125 13C12.125 13.2125 11.9625 13.375 11.75 13.375Z" fill="#444B54"/>
<path d="M8 6.25H14.25C14.9375 6.25 15.5 6.8125 15.5 7.5V13C15.5 13.6875 14.9375 14.25 14.25 14.25H4.25C3.5625 14.25 3 13.6875 3 13L8 6.25Z" fill="#6EC6AF"/>
<path d="M9.25 12.125C8.2145 12.125 7.375 11.2855 7.375 10.25C7.375 9.2145 8.2145 8.375 9.25 8.375C10.2855 8.375 11.125 9.2145 11.125 10.25C11.125 11.2855 10.2855 12.125 9.25 12.125ZM14.25 7.5H7.07412L4.25 11.3125V13H14.25V7.5Z" fill="#C5E8DF"/>
<path d="M9.25 8.375C8.2145 8.375 7.375 9.2145 7.375 10.25C7.375 11.2855 8.2145 12.125 9.25 12.125C10.2855 12.125 11.125 11.2855 11.125 10.25C11.125 9.2145 10.2855 8.375 9.25 8.375Z" fill="#EEF8F5"/>
<path d="M14.25 14.625H4.25C3.35 14.625 2.625 13.9 2.625 13C2.625 12.7875 2.7875 12.625 3 12.625C3.2125 12.625 3.375 12.7875 3.375 13C3.375 13.4875 3.7625 13.875 4.25 13.875H14.25C14.7375 13.875 15.125 13.4875 15.125 13V7.5C15.125 7.0125 14.7375 6.625 14.25 6.625H9.25C9.0375 6.625 8.875 6.4625 8.875 6.25C8.875 6.0375 9.0375 5.875 9.25 5.875H14.25C15.15 5.875 15.875 6.6 15.875 7.5V13C15.875 13.9 15.15 14.625 14.25 14.625Z" fill="#444B54"/>
<path d="M0.5 14.25V5.5C0.5 4.8125 1.0625 4.25 1.75 4.25H9.25C8.5625 4.25 8 4.8125 8 5.5V14.25L6.75 15.5L5.5 14.25L4.25 15.5L3 14.25L1.75 15.5L0.5 14.25Z" fill="white"/>
<path d="M6.75 15.875C6.65 15.875 6.5625 15.8375 6.4875 15.7625L5.5 14.775L4.5125 15.7625C4.3625 15.9125 4.125 15.9125 3.9875 15.7625L3 14.775L2.0125 15.7625C1.8625 15.9125 1.625 15.9125 1.4875 15.7625C1.3375 15.6125 1.3375 15.375 1.4875 15.2375L2.7375 13.9875C2.8875 13.8375 3.125 13.8375 3.2625 13.9875L4.25 14.975L5.2375 13.9875C5.3875 13.8375 5.625 13.8375 5.7625 13.9875L6.75 14.975L7.625 14.1V5.5C7.625 5.175 7.725 4.875 7.875 4.625H1.75C1.2625 4.625 0.875 5.0125 0.875 5.5V14.25C0.875 14.4625 0.7125 14.625 0.5 14.625C0.2875 14.625 0.125 14.4625 0.125 14.25V5.5C0.125 4.6 0.85 3.875 1.75 3.875H9.25C9.4625 3.875 9.625 4.0375 9.625 4.25C9.625 4.4625 9.4625 4.625 9.25 4.625C8.7625 4.625 8.375 5.0125 8.375 5.5V14.25C8.375 14.35 8.3375 14.45 8.2625 14.5125L7.0125 15.7625C6.9375 15.8375 6.85 15.875 6.75 15.875Z" fill="#444B54"/>
<path d="M6.125 7.125H2.375C2.1625 7.125 2 6.9625 2 6.75C2 6.5375 2.1625 6.375 2.375 6.375H6.125C6.3375 6.375 6.5 6.5375 6.5 6.75C6.5 6.9625 6.3375 7.125 6.125 7.125ZM2.375 9C2.275 9 2.175 8.9625 2.1125 8.8875C2.0375 8.825 2 8.725 2 8.625C2 8.525 2.0375 8.425 2.1125 8.3625C2.25 8.225 2.5 8.225 2.6375 8.3625C2.7125 8.4375 2.75 8.525 2.75 8.625C2.75 8.725 2.7125 8.825 2.6375 8.8875C2.625 8.9 2.6 8.925 2.5875 8.9375C2.5625 8.95 2.55 8.9625 2.525 8.975C2.5 8.9875 2.475 8.9875 2.45 9C2.425 9 2.4 9 2.375 9ZM6.125 9H4.875C4.6625 9 4.5 8.8375 4.5 8.625C4.5 8.4125 4.6625 8.25 4.875 8.25H6.125C6.3375 8.25 6.5 8.4125 6.5 8.625C6.5 8.8375 6.3375 9 6.125 9ZM6.125 10.875H2.375C2.1625 10.875 2 10.7125 2 10.5C2 10.2875 2.1625 10.125 2.375 10.125H6.125C6.3375 10.125 6.5 10.2875 6.5 10.5C6.5 10.7125 6.3375 10.875 6.125 10.875ZM6.125 12.75C6.025 12.75 5.925 12.7125 5.8625 12.6375C5.7875 12.5625 5.75 12.475 5.75 12.375C5.75 12.35 5.75 12.325 5.7625 12.3C5.7625 12.275 5.775 12.25 5.7875 12.225C5.8 12.2 5.8125 12.1875 5.825 12.1625C5.8375 12.1375 5.85 12.125 5.875 12.1C6.0125 11.9625 6.2625 11.9625 6.4 12.1C6.475 12.175 6.5125 12.2625 6.5125 12.3625C6.5125 12.4625 6.475 12.5625 6.4 12.625C6.3875 12.6375 6.3625 12.6625 6.35 12.675C6.325 12.6875 6.3125 12.7 6.2875 12.7125C6.2625 12.725 6.2375 12.725 6.2125 12.7375C6.175 12.75 6.15 12.75 6.125 12.75Z" fill="#9EB9D3"/>
</g>
<defs>
<clipPath id="clip0_3862_165899">
<rect width="16" height="16" fill="white"/>
</clipPath>
</defs>
</svg>
