<svg width="64" height="64" viewBox="0 0 64 64" fill="none" xmlns="http://www.w3.org/2000/svg">
<g id="Money Transfer">
<g id="icons8-money-transfer">
<path id="Shape" d="M61.9574 27.7113L45.6169 13.8557H35.6309H18.3829L2.04248 27.7113V40.9072H61.9574V27.7113Z" fill="#F8BD86"/>
<path id="Shape_2" d="M6.69277 26.3984L4.08511 28.6087V42.8866H2.04255C0.91234 42.8866 0 42.0025 0 40.9072V27.7113C0 27.1373 0.251915 26.5963 0.694468 26.2202L4.0034 23.4161C4.85447 22.6969 6.14128 22.7827 6.8834 23.6008C7.63234 24.4256 7.54383 25.6792 6.69277 26.3984Z" fill="#444B54"/>
<path id="Shape_3" d="M64.0001 27.7113V40.9072C64.0001 42.0025 63.0877 42.8866 61.9575 42.8866H59.915V28.6087L51.418 21.4103C50.5737 20.6845 50.4852 19.4375 51.2273 18.6128C51.9694 17.788 53.2631 17.7089 54.1141 18.428L63.3056 26.2202C63.7482 26.5963 64.0001 27.1373 64.0001 27.7113Z" fill="#444B54"/>
<path id="Shape_4" d="M52.4256 8.61889V47.7928C52.4256 51.4606 49.4285 54.4323 45.7308 54.4323H18.9502C15.2525 54.433 12.2554 51.4606 12.2554 47.7935V8.61889C12.2554 4.95175 15.2525 1.97938 18.9502 1.97938H45.7301C49.4285 1.97938 52.4256 4.95175 52.4256 8.61889Z" fill="#6EC6AF"/>
<path id="Shape_5" d="M46.298 7.91753H18.3831V48.4948H46.298V7.91753Z" fill="#D4EEE7"/>
<path id="Oval" d="M32.3405 43.5464C38.5449 43.5464 43.5745 38.6723 43.5745 32.6598C43.5745 26.6473 38.5449 21.7732 32.3405 21.7732C26.1361 21.7732 21.1064 26.6473 21.1064 32.6598C21.1064 38.6723 26.1361 43.5464 32.3405 43.5464Z" fill="white"/>
<path id="Shape_6" d="M33.1888 28.5605C32.6237 28.895 32.1573 29.3351 31.8026 29.8682C31.5085 30.3083 31.2729 30.8104 31.102 31.3593C30.9747 31.7651 30.8528 32.1801 30.733 32.605C30.6336 32.9567 30.5158 33.2998 30.383 33.6264C30.302 33.8263 30.1958 34.0012 30.0664 34.1463C29.9813 34.2426 29.8554 34.3278 29.694 34.4003C29.6409 34.4241 29.4291 34.5019 28.9478 34.5019C28.7442 34.5019 28.5399 34.4656 28.3418 34.3944C28.1702 34.3324 28.015 34.238 27.8768 34.112C27.7447 33.9913 27.6303 33.8197 27.5371 33.602C27.3457 33.156 27.3464 32.2619 27.535 31.8515C27.6276 31.6516 27.7461 31.4913 27.887 31.3752C28.0463 31.2432 28.2397 31.1416 28.4576 31.073C29.2051 30.8421 29.6409 30.0365 29.4019 29.2988C29.2828 28.9372 29.0261 28.643 28.6788 28.4701C28.3336 28.2979 27.9401 28.2669 27.5731 28.3817C26.9849 28.5638 26.4559 28.8475 26.0024 29.2223C25.5285 29.6142 25.1507 30.1104 24.8811 30.6969C24.7959 30.8816 24.7238 31.0849 24.6645 31.3039C23.9354 31.3798 23.3655 31.9809 23.3655 32.7086C23.3655 33.4344 23.9313 34.0341 24.6571 34.1127C24.7108 34.3192 24.7755 34.5112 24.8518 34.6893C25.103 35.2752 25.4502 35.7734 25.8826 36.1706C26.3061 36.5585 26.7949 36.8528 27.3328 37.0448C27.8543 37.2328 28.397 37.3285 28.9478 37.3285C29.7144 37.3285 30.3742 37.2071 30.91 36.9682C31.4519 36.7261 31.9088 36.3982 32.2662 35.9951C32.6108 35.6084 32.8872 35.1604 33.0887 34.6636C33.2603 34.2407 33.4114 33.7999 33.5367 33.3546C33.6497 32.9534 33.7662 32.5621 33.8846 32.1814C33.9779 31.8839 34.0977 31.6226 34.2434 31.4049C34.3592 31.2307 34.5131 31.0862 34.7037 30.9734C34.8222 30.9028 35.0543 30.819 35.4867 30.819C35.7611 30.819 36.0211 30.8572 36.2608 30.9331C36.4685 30.9991 36.6475 31.0974 36.7939 31.2247C36.928 31.3422 37.039 31.5032 37.1234 31.7024C37.2916 32.1029 37.3032 32.8485 37.1377 33.3526C37.0696 33.5611 36.9587 33.7498 36.8068 33.9114C36.6455 34.0836 36.4194 34.2314 36.1355 34.3522C35.422 34.655 35.0707 35.5068 35.3839 36.2108C35.5398 36.5579 35.8251 36.8251 36.1879 36.963C36.5495 37.1002 36.9437 37.0929 37.2998 36.9419C37.9616 36.6614 38.5185 36.2827 38.9556 35.8169C39.3954 35.3498 39.7168 34.8061 39.9122 34.2037C39.9217 34.176 39.9299 34.1483 39.9381 34.1199C40.7047 34.0803 41.3148 33.4621 41.3148 32.7086C41.3148 31.9828 40.749 31.3831 40.0232 31.3046C39.9701 31.0552 39.9013 30.8341 39.8155 30.6303C39.5629 30.0338 39.2007 29.5264 38.7377 29.1226C38.287 28.7287 37.7573 28.4345 37.1629 28.2458C36.6319 28.0775 36.0681 27.9924 35.4874 27.9924C34.5968 27.9918 33.8234 28.1831 33.1888 28.5605Z" fill="#444B54"/>
<path id="Shape_7" d="M52.4254 35.299C51.2972 35.299 50.3829 34.4129 50.3829 33.3196V8.64726C50.3829 6.06219 48.2961 3.95876 45.7306 3.95876H18.95C16.3846 3.95876 14.2978 6.06219 14.2978 8.64726V33.3196C14.2978 34.4129 13.3834 35.299 12.2552 35.299C11.127 35.299 10.2126 34.4129 10.2126 33.3196V8.64726C10.2126 3.87893 14.1323 0 18.95 0H45.7306C50.5483 0 54.468 3.87893 54.468 8.64726V33.3196C54.468 34.4129 53.5536 35.299 52.4254 35.299Z" fill="#444B54"/>
<path id="Shape_8" d="M61.9574 27.7113V58.7216C61.9574 60.5427 60.4323 62.0206 58.5531 62.0206H5.44674C3.56759 62.0206 2.04248 60.5427 2.04248 58.7216V27.7113L31.9999 44.866L61.9574 27.7113Z" fill="#FFD797"/>
<path id="Shape_9" fill-rule="evenodd" clip-rule="evenodd" d="M60.9141 26.0077C61.5451 25.6443 62.3296 25.6398 62.9688 25.992C63.6058 26.3445 63.9998 27.0002 64 27.7108V58.7225C63.9995 61.632 61.5569 63.9991 58.5547 63.9998H5.44531C2.44306 63.9991 0.000477898 61.632 0 58.7225V27.7108C0.000204375 27.0004 0.39482 26.3436 1.03125 25.992C1.66833 25.6403 2.45124 25.6476 3.08203 26.0077L32.0703 42.6053L60.9141 26.0077ZM4.08594 58.7225C4.08642 59.4494 4.69531 60.042 5.44531 60.0428H58.5547C59.3047 60.042 59.9136 59.4494 59.9141 58.7225V31.1873L19.4258 54.4842C18.4556 55.0424 17.2043 54.7322 16.6289 53.7928C16.0537 52.8535 16.3707 51.6396 17.3398 51.0819L28.0625 44.91L4.08594 31.1795V58.7225Z" fill="#444B54"/>
</g>
</g>
</svg>
