<svg width="16" height="16" viewBox="0 0 16 16" fill="none" xmlns="http://www.w3.org/2000/svg">
<g id="Monitor">
<g id="icons8-heart-monitor">
<path id="Shape" d="M13.6 1.23792H2.39999C1.36922 1.23792 0.538452 2.0716 0.538452 3.10599V12.7705C0.538452 13.8667 1.43076 14.7621 2.52307 14.7621H13.4769C14.5692 14.7621 15.4615 13.8667 15.4615 12.7705V3.10599C15.4615 2.0716 14.6308 1.23792 13.6 1.23792Z" fill="white"/>
<path id="Shape_2" d="M13.1692 2.81265C13.0154 2.81265 12.8769 2.88985 12.7692 2.99792C12.6769 2.88985 12.5384 2.81265 12.3692 2.81265C12.0769 2.81265 11.8461 3.04423 11.8461 3.33756C11.8461 3.50739 11.9231 3.64634 12.0461 3.75441L12.7692 4.32564L13.4769 3.75441C13.6 3.66178 13.6923 3.50739 13.6923 3.33756C13.6923 3.05967 13.4615 2.81265 13.1692 2.81265Z" fill="#F1C0C3"/>
<g id="Group" opacity="0.2">
<path id="Shape_3" d="M8.23073 9.80634C8.19997 9.80634 8.1692 9.80634 8.12304 9.7909C7.92304 9.74459 7.78458 9.57476 7.7692 9.37406L7.52304 5.09757L6.67689 6.64143C6.59997 6.79582 6.44612 6.87301 6.27689 6.87301H3.35381C3.09227 6.87301 2.89227 6.67231 2.89227 6.40985C2.89227 6.14739 3.09227 5.94669 3.35381 5.94669H5.98458L7.47689 3.24494C7.5692 3.05968 7.78458 2.96704 7.98458 3.01336C8.18458 3.05968 8.32304 3.2295 8.33843 3.4302L8.58458 7.70669L9.43073 6.16283C9.50766 6.00845 9.6615 5.93125 9.83073 5.93125H12.6153C12.8769 5.93125 13.0769 6.13196 13.0769 6.39441C13.0769 6.65687 12.8769 6.85757 12.6153 6.85757H10.123L8.63073 9.55932C8.55381 9.71371 8.39997 9.80634 8.23073 9.80634Z" fill="#454B54"/>
</g>
<path id="Shape_4" d="M0.538452 12.894V11.4737H15.4615V12.9095C15.4615 13.9439 14.6308 14.7621 13.6 14.7621H2.39999C1.36922 14.7621 0.538452 13.9284 0.538452 12.894Z" fill="#98BED8"/>
<path id="Shape_5" d="M15.4615 11.9368H0.538443C0.276904 11.9368 0.0769043 11.7361 0.0769043 11.4737C0.0769043 11.2112 0.276904 11.0105 0.538443 11.0105H15.4615C15.7231 11.0105 15.9231 11.2112 15.9231 11.4737C15.9231 11.7361 15.7231 11.9368 15.4615 11.9368Z" fill="#454B54"/>
<path id="Oval" d="M12.3538 14.0365C12.8721 14.0365 13.2923 13.6218 13.2923 13.1102C13.2923 12.5986 12.8721 12.1839 12.3538 12.1839C11.8355 12.1839 11.4153 12.5986 11.4153 13.1102C11.4153 13.6218 11.8355 14.0365 12.3538 14.0365Z" fill="white"/>
<path id="Oval_2" d="M3.50768 14.0365C4.02597 14.0365 4.44614 13.6218 4.44614 13.1102C4.44614 12.5986 4.02597 12.1839 3.50768 12.1839C2.98938 12.1839 2.56921 12.5986 2.56921 13.1102C2.56921 13.6218 2.98938 14.0365 3.50768 14.0365Z" fill="white"/>
<path id="Shape_6" d="M13.6003 0.77475C14.877 0.774947 15.9225 1.8246 15.9226 3.1058V12.8939C15.9226 14.1752 14.8771 15.2247 13.6003 15.2249H2.40015C1.12322 15.2249 0.0769043 14.1753 0.0769043 12.8939V3.1058C0.0769986 1.82448 1.12328 0.77475 2.40015 0.77475H13.6003ZM2.40015 1.70151C1.63097 1.70151 0.99985 2.33395 0.999756 3.1058V12.8939C0.999756 13.6658 1.63092 14.2992 2.40015 14.2992H13.6003C14.3694 14.299 14.9998 13.6657 14.9998 12.8939V3.1058C14.9997 2.33407 14.3694 1.70171 13.6003 1.70151H2.40015Z" fill="#454B54"/>
</g>
</g>
</svg>
