<svg width="30" height="30" viewBox="0 0 30 30" fill="none" xmlns="http://www.w3.org/2000/svg">
<g id="Moon + Dark">
<rect width="16" height="16" transform="scale(1.5)" fill="#3B3C3F"/>
<g id="moon">
<path id="Oval" fill-rule="evenodd" clip-rule="evenodd" d="M15 28.6813C22.6399 28.6813 28.8333 22.4822 28.8333 14.8352C28.8333 7.18816 22.6399 0.989021 15 0.989021C7.36005 0.989021 1.16666 7.18816 1.16666 14.8352C1.16666 22.4822 7.36005 28.6813 15 28.6813Z" fill="#FCF7CB"/>
<path id="Path" fill-rule="evenodd" clip-rule="evenodd" d="M15 1.15386C14.2666 1.15386 13.5333 1.2198 12.8333 1.3187C19.4666 2.37364 24.5 8.07694 24.5 15C24.5 21.9231 19.4333 27.6264 12.8333 28.6813C13.5333 28.7802 14.2666 28.8462 15 28.8462C22.6333 28.8462 28.8333 22.6484 28.8333 15C28.8333 7.35166 22.6333 1.15386 15 1.15386Z" fill="#D8D5B2"/>
<path id="Shape" fill-rule="evenodd" clip-rule="evenodd" d="M0.166626 15C0.166626 23.1758 6.79996 29.8352 15 29.8352C23.2 29.8352 29.8333 23.1758 29.8333 15C29.8333 6.82418 23.1666 0.164841 15 0.164841C6.83329 0.164841 0.166626 6.82418 0.166626 15ZM2.16663 15C2.16663 7.91209 7.89996 2.14286 15 2.14286C22.1 2.14286 27.8333 7.91209 27.8333 15C27.8333 22.0879 22.0666 27.8571 15 27.8571C7.93329 27.8571 2.16663 22.0879 2.16663 15Z" fill="#454B54"/>
<path id="Oval_2" fill-rule="evenodd" clip-rule="evenodd" d="M12.3333 19.978C13.714 19.978 14.8333 18.871 14.8333 17.5055C14.8333 16.14 13.714 15.033 12.3333 15.033C10.9526 15.033 9.83331 16.14 9.83331 17.5055C9.83331 18.871 10.9526 19.978 12.3333 19.978Z" fill="#D8D5B2"/>
<path id="Oval_3" fill-rule="evenodd" clip-rule="evenodd" d="M13.9999 8.4066C14.7363 8.4066 15.3333 7.81621 15.3333 7.08792C15.3333 6.35964 14.7363 5.76924 13.9999 5.76924C13.2635 5.76924 12.6666 6.35964 12.6666 7.08792C12.6666 7.81621 13.2635 8.4066 13.9999 8.4066Z" fill="#D8D5B2"/>
<path id="Oval_4" fill-rule="evenodd" clip-rule="evenodd" d="M23.9999 15.6593C25.1045 15.6593 25.9999 14.7738 25.9999 13.6813C25.9999 12.5889 25.1045 11.7033 23.9999 11.7033C22.8954 11.7033 21.9999 12.5889 21.9999 13.6813C21.9999 14.7738 22.8954 15.6593 23.9999 15.6593Z" fill="#D8D5B2"/>
</g>
</g>
</svg>
