<svg width="16" height="16" viewBox="0 0 16 16" fill="none" xmlns="http://www.w3.org/2000/svg">
<path d="M7.99998 14.594C4.31665 14.594 1.33331 11.6107 1.33331 7.92737V2.92737H14.6666V7.92737C14.6666 11.6107 11.6833 14.594 7.99998 14.594Z" fill="white"/>
<path d="M3.59998 12.9274C4.78331 13.9607 6.31665 14.5941 7.99998 14.5941C9.68331 14.5941 11.2333 13.9607 12.4 12.9274L9.66665 12.2607H6.49998L3.59998 12.9274ZM2.16665 6.26074C1.94563 6.26074 1.73367 6.34854 1.57739 6.50482C1.42111 6.6611 1.33331 6.87306 1.33331 7.09408C1.33331 7.31509 1.42111 7.52705 1.57739 7.68333C1.73367 7.83961 1.94563 7.92741 2.16665 7.92741C2.38766 7.92741 2.59962 7.83961 2.7559 7.68333C2.91218 7.52705 2.99998 7.31509 2.99998 7.09408C2.99998 6.87306 2.91218 6.6611 2.7559 6.50482C2.59962 6.34854 2.38766 6.26074 2.16665 6.26074ZM5.66665 8.09408C5.44563 8.09408 5.23367 8.18187 5.07739 8.33815C4.92111 8.49443 4.83331 8.70639 4.83331 8.92741C4.83331 9.14842 4.92111 9.36038 5.07739 9.51666C5.23367 9.67295 5.44563 9.76074 5.66665 9.76074C5.88766 9.76074 6.09962 9.67295 6.2559 9.51666C6.41218 9.36038 6.49998 9.14842 6.49998 8.92741C6.49998 8.70639 6.41218 8.49443 6.2559 8.33815C6.09962 8.18187 5.88766 8.09408 5.66665 8.09408Z" fill="#C3DBEA"/>
<path d="M7.3333 11.0941C7.11229 11.0941 6.90033 11.1819 6.74405 11.3381C6.58777 11.4944 6.49997 11.7064 6.49997 11.9274C6.49997 12.1484 6.58777 12.3604 6.74405 12.5166C6.90033 12.6729 7.11229 12.7607 7.3333 12.7607C7.55432 12.7607 7.76628 12.6729 7.92256 12.5166C8.07884 12.3604 8.16664 12.1484 8.16664 11.9274C8.16664 11.7064 8.07884 11.4944 7.92256 11.3381C7.76628 11.1819 7.55432 11.0941 7.3333 11.0941ZM9.49997 9.09406C9.27896 9.09406 9.06699 9.18185 8.91071 9.33813C8.75443 9.49441 8.66664 9.70638 8.66664 9.92739C8.66664 10.1484 8.75443 10.3604 8.91071 10.5166C9.06699 10.6729 9.27896 10.7607 9.49997 10.7607C9.72098 10.7607 9.93295 10.6729 10.0892 10.5166C10.2455 10.3604 10.3333 10.1484 10.3333 9.92739C10.3333 9.70638 10.2455 9.49441 10.0892 9.33813C9.93295 9.18185 9.72098 9.09406 9.49997 9.09406ZM13.8333 8.09406C13.6123 8.09406 13.4003 8.18185 13.244 8.33813C13.0878 8.49441 13 8.70638 13 8.92739C13 9.1484 13.0878 9.36036 13.244 9.51664C13.4003 9.67293 13.6123 9.76072 13.8333 9.76072C14.0543 9.76072 14.2663 9.67293 14.4226 9.51664C14.5788 9.36036 14.6666 9.1484 14.6666 8.92739C14.6666 8.70638 14.5788 8.49441 14.4226 8.33813C14.2663 8.18185 14.0543 8.09406 13.8333 8.09406Z" fill="#C3DBEA"/>
<path d="M14.7833 1.79403C10.4333 0.0773641 5.56667 0.0773641 1.21667 1.79403C0.783333 1.9607 0.5 2.39403 0.5 2.8607V3.77736C0.5 4.5607 1.26667 5.1107 2 4.8607C5.88333 3.52736 10.1167 3.52736 14 4.8607C14.7333 5.1107 15.5 4.5607 15.5 3.77736V2.8607C15.5 2.39403 15.2167 1.9607 14.7833 1.79403Z" fill="white"/>
<path d="M14.7834 1.79402C14.7667 1.79402 14.7667 1.79402 14.75 1.77736C13.8667 1.42736 12.9 2.07736 12.9 3.02736V3.51069C12.9 4.09402 13.2667 4.61069 13.8167 4.77736C13.8667 4.79402 13.9334 4.81069 13.9834 4.82736C14.7167 5.07736 15.4834 4.52736 15.4834 3.74402V2.82736C15.5 2.39402 15.2167 1.96069 14.7834 1.79402Z" fill="#C3DBEA"/>
<path d="M6.66665 11.9274C6.66665 10.4607 5.46665 9.26074 3.99998 9.26074C3.09998 9.26074 2.29998 9.71074 1.81665 10.4107C2.48332 12.0941 3.83332 13.4441 5.51665 14.1107C6.21665 13.6274 6.66665 12.8274 6.66665 11.9274ZM12 9.26074C10.5333 9.26074 9.33332 10.4607 9.33332 11.9274C9.33332 12.8274 9.78332 13.6274 10.4833 14.1107C12.1666 13.4441 13.5166 12.0941 14.1833 10.4107C13.7 9.71074 12.9 9.26074 12 9.26074Z" fill="#7EB3CE"/>
<path d="M10.5 6.26074C10.279 6.26074 10.067 6.34854 9.91076 6.50482C9.75448 6.6611 9.66669 6.87306 9.66669 7.09408C9.66669 7.31509 9.75448 7.52705 9.91076 7.68333C10.067 7.83961 10.279 7.92741 10.5 7.92741C10.721 7.92741 10.933 7.83961 11.0893 7.68333C11.2456 7.52705 11.3334 7.31509 11.3334 7.09408C11.3334 6.87306 11.2456 6.6611 11.0893 6.50482C10.933 6.34854 10.721 6.26074 10.5 6.26074Z" fill="#C3DBEA"/>
<path d="M7.16665 4.59406C6.94563 4.59406 6.73367 4.68185 6.57739 4.83813C6.42111 4.99441 6.33331 5.20637 6.33331 5.42739C6.33331 5.6484 6.42111 5.86036 6.57739 6.01664C6.73367 6.17292 6.94563 6.26072 7.16665 6.26072C7.38766 6.26072 7.59962 6.17292 7.7559 6.01664C7.91218 5.86036 7.99998 5.6484 7.99998 5.42739C7.99998 5.20637 7.91218 4.99441 7.7559 4.83813C7.59962 4.68185 7.38766 4.59406 7.16665 4.59406Z" fill="#C3DBEA"/>
</svg>
