<svg width="16" height="16" viewBox="0 0 16 16" fill="none" xmlns="http://www.w3.org/2000/svg">
<path d="M13.25 1.125H4C3.3125 1.125 2.75 1.6875 2.75 2.375V13.625C2.75 14.3125 3.3125 14.875 4 14.875H13.25C13.9375 14.875 14.5 14.3125 14.5 13.625V2.375C14.5 1.6875 13.9375 1.125 13.25 1.125Z" fill="white"/>
<path d="M12 12.375H7.625C7.4125 12.375 7.25 12.2125 7.25 12C7.25 11.7875 7.4125 11.625 7.625 11.625H12C12.2125 11.625 12.375 11.7875 12.375 12C12.375 12.2125 12.2125 12.375 12 12.375ZM12 4.875H7.625C7.4125 4.875 7.25 4.7125 7.25 4.5C7.25 4.2875 7.4125 4.125 7.625 4.125H12C12.2125 4.125 12.375 4.2875 12.375 4.5C12.375 4.7125 12.2125 4.875 12 4.875ZM12 10.5H7.625C7.4125 10.5 7.25 10.3375 7.25 10.125C7.25 9.9125 7.4125 9.75 7.625 9.75H12C12.2125 9.75 12.375 9.9125 12.375 10.125C12.375 10.3375 12.2125 10.5 12 10.5ZM12 6.75H7.625C7.4125 6.75 7.25 6.5875 7.25 6.375C7.25 6.1625 7.4125 6 7.625 6H12C12.2125 6 12.375 6.1625 12.375 6.375C12.375 6.5875 12.2125 6.75 12 6.75ZM12 8.625H7.625C7.4125 8.625 7.25 8.4625 7.25 8.25C7.25 8.0375 7.4125 7.875 7.625 7.875H12C12.2125 7.875 12.375 8.0375 12.375 8.25C12.375 8.4625 12.2125 8.625 12 8.625Z" fill="#D3D8DD"/>
<path d="M5.5 13.625C5.2875 13.625 5.125 13.4625 5.125 13.25V2.75C5.125 2.5375 5.2875 2.375 5.5 2.375C5.7125 2.375 5.875 2.5375 5.875 2.75V13.25C5.875 13.4625 5.7125 13.625 5.5 13.625Z" fill="#00B2A8"/>
<path d="M13.25 0.75H4C3.1 0.75 2.375 1.475 2.375 2.375V3.25H2.125C1.575 3.25 1.125 3.7 1.125 4.25C1.125 4.8 1.575 5.25 2.125 5.25H2.375V10.75H2.125C1.575 10.75 1.125 11.2 1.125 11.75C1.125 12.3 1.575 12.75 2.125 12.75H2.375V13.625C2.375 14.525 3.1 15.25 4 15.25H13.25C14.15 15.25 14.875 14.525 14.875 13.625V2.375C14.875 1.475 14.15 0.75 13.25 0.75ZM14.125 13.625C14.125 14.1125 13.7375 14.5 13.25 14.5H4C3.5125 14.5 3.125 14.1125 3.125 13.625V12.75H3.375C3.925 12.75 4.375 12.3 4.375 11.75C4.375 11.5375 4.2125 11.375 4 11.375C3.7875 11.375 3.625 11.5375 3.625 11.75C3.625 11.8875 3.5125 12 3.375 12H2.125C1.9875 12 1.875 11.8875 1.875 11.75C1.875 11.6125 1.9875 11.5 2.125 11.5H2.75C2.9625 11.5 3.125 11.3375 3.125 11.125V5.25H3.375C3.925 5.25 4.375 4.8 4.375 4.25C4.375 4.0375 4.2125 3.875 4 3.875C3.7875 3.875 3.625 4.0375 3.625 4.25C3.625 4.3875 3.5125 4.5 3.375 4.5H2.125C1.9875 4.5 1.875 4.3875 1.875 4.25C1.875 4.1125 1.9875 4 2.125 4H2.75C2.9625 4 3.125 3.8375 3.125 3.625V2.375C3.125 1.8875 3.5125 1.5 4 1.5H13.25C13.7375 1.5 14.125 1.8875 14.125 2.375V13.625Z" fill="#444B54"/>
</svg>
