<svg width="16" height="16" viewBox="0 0 16 16" fill="none" xmlns="http://www.w3.org/2000/svg">
<path d="M6.20356 15.5862H1.82461C1.10882 15.5862 0.533386 15.0207 0.533386 14.3172V5.35171C0.533386 4.62068 0.856193 3.93102 1.40356 3.44826L2.72286 2.30344H5.29128L6.61058 3.44826C7.15795 3.93102 7.48075 4.62068 7.48075 5.35171V14.331C7.49479 15.0207 6.91935 15.5862 6.20356 15.5862Z" fill="#E4DAEC"/>
<path opacity="0.1" d="M6.62458 3.44826L5.30528 2.30344H3.49475L4.81405 3.44826C5.36142 3.93102 5.68422 4.62068 5.68422 5.35171V14.331C5.68422 15.0345 5.10879 15.6 4.393 15.6H6.20352C6.91931 15.6 7.49475 15.0345 7.49475 14.331V5.35171C7.49475 4.62068 7.17194 3.93102 6.62458 3.44826Z" fill="#0C0F13"/>
<path d="M0.547424 5.84827H4.07023V12.6759H0.547424" fill="white"/>
<path d="M5.40354 2.30344V1.03448C5.40354 0.689649 5.1088 0.399994 4.75793 0.399994H3.36845C3.01758 0.399994 2.72284 0.689649 2.72284 1.03448V2.30344" fill="white"/>
<path d="M15.579 11.7379C15.593 11.531 15.593 11.3241 15.565 11.1172C15.3965 10.1793 14.6386 9.40688 13.6421 9.28274C13.3193 9.24136 13.0246 9.26895 12.7299 9.35171C12.5053 9.42067 12.2667 9.42067 12.0281 9.35171C11.7474 9.26895 11.4386 9.24136 11.1158 9.28274C10.1193 9.40688 9.36144 10.1793 9.19302 11.1172C9.15092 11.3241 9.15092 11.531 9.17899 11.7379L9.33337 13.5034C9.40355 14.3172 9.89478 15.0483 10.6386 15.3931C11.1158 15.6138 11.565 15.6276 12.0281 15.4896C12.2527 15.4207 12.4913 15.4207 12.7299 15.4896C13.193 15.6276 13.6421 15.6138 14.1193 15.3931C14.8632 15.0483 15.3404 14.3034 15.4246 13.5034L15.579 11.7379Z" fill="#8CCFB9"/>
<path opacity="0.1" d="M15.5649 11.1172C15.3965 10.1793 14.6386 9.40688 13.6421 9.28274C13.3193 9.24136 13.0246 9.26895 12.7298 9.35171C12.6316 9.3793 12.5333 9.39309 12.4211 9.39309C13.1789 9.66895 13.7404 10.331 13.8807 11.1172C13.9228 11.3241 13.9228 11.531 13.8947 11.7379L13.7404 13.5034C13.6702 14.3172 13.1789 15.0483 12.4351 15.3931C12.393 15.4207 12.3368 15.4345 12.2947 15.4483C12.4351 15.4345 12.5754 15.4483 12.7158 15.4896C13.1789 15.6276 13.6281 15.6138 14.1053 15.3931C14.8491 15.0483 15.3263 14.3034 15.4105 13.5034L15.5649 11.7379C15.593 11.531 15.593 11.3241 15.5649 11.1172Z" fill="#0C0F13"/>
<path d="M4.75818 0.0137939C5.34742 0.0139302 5.81075 0.482674 5.81091 1.04797V2.22083L6.89099 3.15833C7.52256 3.71004 7.88744 4.51032 7.87341 5.35168V14.3312C7.87333 15.2414 7.11594 15.9863 6.18982 15.9865H1.81091C0.884645 15.9865 0.126421 15.2415 0.126343 14.3312V5.35168C0.126354 4.51032 0.491481 3.71004 1.13708 3.15833L2.3158 2.13782V1.04797C2.31596 0.468808 2.79319 0.0137939 3.36853 0.0137939H4.75818ZM1.68396 3.75208C1.22102 4.15206 0.95448 4.74495 0.954468 5.35168V5.46204H4.08435C4.18249 5.46207 4.29446 5.50355 4.36462 5.57239C4.4348 5.64135 4.47693 5.73841 4.47693 5.84875V12.6759C4.47691 12.8964 4.29501 13.076 4.07068 13.0763H0.940796V14.3175C0.940938 14.8001 1.33345 15.1866 1.82458 15.1866H6.20349C6.69467 15.1866 7.08782 14.8001 7.10193 14.3312V5.35168C7.10192 4.745 6.83531 4.15206 6.37244 3.75208L5.16541 2.70325H2.89099L1.68396 3.75208ZM0.940796 12.2892H3.66345V6.24817H0.940796V12.2892ZM3.36853 0.813599C3.24232 0.813599 3.13043 0.923959 3.13025 1.04797V1.91711H4.99646V1.04797C4.99628 0.924043 4.88429 0.813748 4.75818 0.813599H3.36853Z" fill="#454B54"/>
<path fill-rule="evenodd" clip-rule="evenodd" d="M13.6556 7.73795C13.8801 7.73795 14.0628 7.91765 14.0628 8.13834C14.0626 8.35885 13.88 8.53775 13.6556 8.53775C13.375 8.53789 13.1081 8.69021 12.9397 8.9108C13.1923 8.86943 13.4313 8.86858 13.6839 8.89615C14.8348 9.03408 15.7472 9.90354 15.9437 11.0622C15.9857 11.2689 16 11.5171 15.972 11.779L15.8177 13.5446C15.7335 14.5101 15.1435 15.3653 14.2874 15.7653C13.7402 16.0135 13.2072 16.0547 12.6038 15.8893C12.4495 15.848 12.2806 15.848 12.1263 15.8893C11.8736 15.9583 11.6487 15.986 11.4241 15.986C11.0874 15.986 10.7644 15.9033 10.4417 15.7516C9.58568 15.3516 8.99661 14.4963 8.9124 13.5309L8.75811 11.7653C8.74409 11.5034 8.74341 11.269 8.78545 11.0485C8.99598 9.90366 9.90899 9.0342 11.0599 8.88248C11.3825 8.84117 11.7191 8.85546 12.0276 8.93814C12.2381 8.2486 12.8978 7.73812 13.6556 7.73795ZM11.4241 9.66861C11.34 9.66861 11.27 9.66948 11.1858 9.68326C10.3999 9.77981 9.76799 10.3861 9.61358 11.1999C9.58551 11.3516 9.58587 11.5175 9.5999 11.7106L9.7542 13.4762C9.81044 14.1657 10.2173 14.7726 10.8206 15.0485C11.1855 15.214 11.5089 15.2418 11.93 15.1315C12.2387 15.0488 12.5611 15.0488 12.8558 15.1315C13.2628 15.2418 13.6002 15.214 13.9651 15.0485C14.5544 14.7588 14.9753 14.1656 15.0315 13.4762L15.1858 11.7106C15.1999 11.5175 15.2002 11.3516 15.1722 11.1999C15.0318 10.3999 14.3998 9.77986 13.5999 9.68326C13.3473 9.65567 13.0944 9.66898 12.8558 9.73795C12.5472 9.82063 12.2246 9.8206 11.93 9.73795C11.7616 9.69657 11.5925 9.66861 11.4241 9.66861Z" fill="#454B54"/>
</svg>
