<svg width="16" height="16" viewBox="0 0 16 16" fill="none" xmlns="http://www.w3.org/2000/svg">
<g clip-path="url(#clip0_3862_167290)">
<path d="M8 16C12.4183 16 16 12.4183 16 8C16 3.58172 12.4183 0 8 0C3.58172 0 0 3.58172 0 8C0 12.4183 3.58172 16 8 16Z" fill="#444B54"/>
<path d="M7.99999 14.4762C11.5767 14.4762 14.4762 11.5767 14.4762 7.99999C14.4762 4.42329 11.5767 1.5238 7.99999 1.5238C4.42329 1.5238 1.5238 4.42329 1.5238 7.99999C1.5238 11.5767 4.42329 14.4762 7.99999 14.4762Z" fill="#D54263"/>
<path fill-rule="evenodd" clip-rule="evenodd" d="M8.00003 14.0952C11.3664 14.0952 14.0953 11.3663 14.0953 8C14.0953 4.63367 11.3664 1.90476 8.00003 1.90476C4.6337 1.90476 1.90479 4.63367 1.90479 8C1.90479 11.3663 4.6337 14.0952 8.00003 14.0952ZM8.00003 14.8571C11.7871 14.8571 14.8572 11.7871 14.8572 8C14.8572 4.21291 11.7871 1.14285 8.00003 1.14285C4.21294 1.14285 1.14288 4.21291 1.14288 8C1.14288 11.7871 4.21294 14.8571 8.00003 14.8571Z" fill="white"/>
<path d="M8 4.19048V9.52381" stroke="white" stroke-linecap="round"/>
<path d="M8 12.1905C8.42079 12.1905 8.76191 11.8494 8.76191 11.4286C8.76191 11.0078 8.42079 10.6667 8 10.6667C7.57921 10.6667 7.2381 11.0078 7.2381 11.4286C7.2381 11.8494 7.57921 12.1905 8 12.1905Z" fill="white"/>
</g>
<defs>
<clipPath id="clip0_3862_167290">
<rect width="16" height="16" fill="white"/>
</clipPath>
</defs>
</svg>
