<svg width="64" height="64" viewBox="0 0 64 64" fill="none" xmlns="http://www.w3.org/2000/svg">
<g id="Pencil">
<g id="icons8-create">
<path id="Shape" d="M44.6671 8.53333H11.4717C6.13611 8.53333 1.81128 12.8993 1.81128 18.2857V52.419C1.81128 57.8054 6.13611 62.1714 11.4717 62.1714H45.283C50.6185 62.1714 54.9434 57.8054 54.9434 52.419V18.9074L44.6671 8.53333Z" fill="#C7D6E2"/>
<path id="Shape_2" d="M47.6982 51.8095C47.6982 53.4924 46.3463 54.8571 44.6793 54.8571H12.0755C10.4085 54.8571 9.05664 53.4924 9.05664 51.8095V18.8952C9.05664 17.2123 10.4085 15.8476 12.0755 15.8476H47.6982V51.8095Z" fill="#F6F6FA"/>
<path id="Shape_3" d="M54.9433 18.9074L47.698 26.2217V33.9797L54.9433 26.6654V18.9074Z" fill="#ABB8C3"/>
<path id="Shape_4" d="M47.6981 26.2217L35.3328 38.7048L21.1321 42.6667L21.1351 44.4952L36.6744 44.0734C37.4503 43.8601 38.1808 43.4627 38.7997 42.9196C38.8927 42.8453 39.0279 42.7319 39.174 42.5844L47.6981 33.9797V26.2217Z" fill="#D3D3D7"/>
<path id="Shape_5" d="M50.4235 2.72211L25.0566 28.3306L22.9434 36.1143L27.6981 40.9143L35.3328 38.7047L60.6997 13.0962C61.8801 11.9046 61.8801 9.97301 60.6997 8.78139L54.6976 2.72211C53.5172 1.53049 51.6039 1.53049 50.4235 2.72211Z" fill="white"/>
<path id="Rectangle-path" d="M25.0066 28.2287L46.4341 6.80117L56.8082 17.1752L35.3806 38.6027L25.0066 28.2287Z" fill="#FDEEEF"/>
<path id="Shape_6" d="M51.5423 11.8046L30.115 33.4366L35.3328 38.7047L56.7547 17.0666L51.5423 11.8046Z" fill="#F38FA6"/>
<path id="Shape_7" d="M45.283 64H11.4717C5.14596 64 0 58.805 0 52.419V18.2857C0 11.8997 5.14596 6.70474 11.4717 6.70474H33.8113C34.8118 6.70474 35.6226 7.52333 35.6226 8.53331C35.6226 9.54329 34.8118 10.3619 33.8113 10.3619H11.4717C7.14385 10.3619 3.62264 13.9166 3.62264 18.2857V52.419C3.62264 56.7881 7.14385 60.3428 11.4717 60.3428H45.283C49.6109 60.3428 53.1321 56.7881 53.1321 52.419V18.8952C53.1321 17.8852 53.9429 17.0666 54.9434 17.0666C55.9439 17.0666 56.7547 17.8852 56.7547 18.8952V52.419C56.7547 58.805 51.6088 64 45.283 64Z" fill="#444B54"/>
<path id="Shape_8" d="M44.6793 56.6857H12.0756C9.4123 56.6857 7.24536 54.4981 7.24536 51.8095V18.8952C7.24536 16.2066 9.4123 14.019 12.0756 14.019H26.5661C27.5666 14.019 28.3774 14.8376 28.3774 15.8476C28.3774 16.8576 27.5666 17.6762 26.5661 17.6762H12.0756C11.4096 17.6762 10.868 18.2229 10.868 18.8952V51.8095C10.868 52.4818 11.4096 53.0286 12.0756 53.0286H44.6793C45.3453 53.0286 45.8869 52.4818 45.8869 51.8095V26.2095C45.8869 25.1995 46.6977 24.3809 47.6982 24.3809C48.6986 24.3809 49.5095 25.1995 49.5095 26.2095V51.8095C49.5095 54.4981 47.3426 56.6857 44.6793 56.6857Z" fill="#444B54"/>
<path id="Shape_9" fill-rule="evenodd" clip-rule="evenodd" d="M49.1412 1.42916C51.0266 -0.472343 54.0939 -0.471317 55.9771 1.42916L61.9811 7.48776C62.8946 8.40936 63.3951 9.63772 63.3951 10.9409C63.3947 12.2433 62.8941 13.4683 61.9811 14.3901L36.6139 39.9995C36.274 40.3422 35.8123 40.5346 35.3326 40.5346C34.8523 40.5346 34.3906 40.3422 34.0514 39.9995L23.774 29.6245C23.0679 28.9111 23.0684 27.7522 23.774 27.0385L49.1412 1.42916ZM53.4186 4.0151C52.9458 3.53906 52.1753 3.53845 51.7037 4.0151L27.6178 28.3315L35.3326 36.1206L59.4186 11.8042C59.647 11.5736 59.7736 11.2663 59.774 10.9409C59.774 10.6148 59.6474 10.3041 59.4186 10.0737L53.4186 4.0151Z" fill="#444B54"/>
<path id="Shape_10" d="M56.7547 18.8952C56.291 18.8952 55.8279 18.7166 55.4741 18.3595L45.2099 7.99756C44.5023 7.28381 44.5023 6.12571 45.2099 5.41196C45.9175 4.6976 47.0635 4.6976 47.7711 5.41196L58.0353 15.7739C58.7429 16.4876 58.7429 17.6457 58.0353 18.3595C57.6815 18.7166 57.2184 18.8952 56.7547 18.8952Z" fill="#444B54"/>
<path id="Shape_11" d="M21.1308 44.4958C20.3344 44.4958 19.6045 43.9613 19.3841 43.1476C19.1208 42.1729 19.6902 41.1684 20.655 40.9021L34.7682 37.0164C35.7295 36.7494 36.7287 37.3248 36.9925 38.2994C37.2558 39.274 36.6864 40.2785 35.7216 40.5449L21.609 44.4312C21.449 44.4751 21.2884 44.4958 21.1308 44.4958Z" fill="#444B54"/>
<path id="Shape_12" d="M22.944 37.9435C22.784 37.9435 22.621 37.9215 22.4591 37.8764C21.4949 37.607 20.9304 36.5988 21.1973 35.626L23.3105 27.9308C23.5773 26.9574 24.5742 26.3857 25.5396 26.6569C26.5038 26.9269 27.0684 27.9345 26.8015 28.9073L24.6883 36.6025C24.4661 37.4126 23.7379 37.9435 22.944 37.9435Z" fill="#444B54"/>
<path id="Shape_13" d="M27.3962 42.4381C26.9325 42.4381 26.4688 42.2595 26.1156 41.9023L21.6628 37.4071C20.9552 36.6933 20.9552 35.5352 21.6628 34.8215C22.3698 34.1071 23.517 34.1071 24.224 34.8215L28.6768 39.3167C29.3845 40.0305 29.3845 41.1886 28.6768 41.9023C28.3236 42.2595 27.8599 42.4381 27.3962 42.4381Z" fill="#444B54"/>
</g>
</g>
</svg>
