<svg width="16" height="17" viewBox="0 0 16 17" fill="none" xmlns="http://www.w3.org/2000/svg">
<path d="M8.11325 11.1832C7.89071 10.9746 7.54298 10.9468 7.26479 11.1137L7.01443 11.2667L6.29116 11.7257C6.01297 11.9065 5.65134 11.837 5.48443 11.5866L4.44124 9.95923L3.41197 8.34577C3.24506 8.09541 3.34242 7.73377 3.62061 7.55295L4.34388 7.09395L4.59424 6.94095C4.87243 6.76013 4.99761 6.42631 4.90024 6.14813L3.78752 3.14376C3.66233 2.79603 3.24506 2.64303 2.86951 2.82385L2.78606 2.86558L1.43687 3.58885C0.797054 3.90876 0.37978 4.56249 0.421508 5.23013C0.504963 6.5654 0.936145 8.98559 2.3966 11.2667C3.85706 13.5478 5.9017 14.9804 7.08398 15.6202C7.68207 15.9401 8.44707 15.8428 9.00344 15.3977L10.2274 14.4658L10.297 14.4101C10.6169 14.1598 10.6586 13.7147 10.3804 13.4504L8.11325 11.1832Z" fill="#F8B24C"/>
<path d="M3.98224 3.67231L3.78752 3.14376C3.66233 2.79603 3.24506 2.64303 2.86951 2.82385L2.78606 2.86558L1.43687 3.58885C0.797054 3.90876 0.37978 4.56249 0.421508 5.23013C0.463235 5.9534 0.616235 6.98268 0.963964 8.13713C1.3256 6.76013 2.13233 4.96585 3.98224 3.67231Z" fill="white"/>
<path d="M7.84895 16.2183C7.51513 16.2183 7.18131 16.1349 6.88922 15.9819C6.19376 15.6063 3.77358 14.1737 2.04885 11.4892C0.393662 8.91605 0.073752 6.27332 0.00420637 5.25795C-0.0514301 4.4234 0.449298 3.60277 1.24212 3.21331L2.68867 2.44831C2.84167 2.36485 3.02249 2.33704 3.18939 2.33704C3.63449 2.33704 4.02394 2.60131 4.17694 3.00467L5.27576 5.99513C5.44267 6.46804 5.24794 7.0105 4.80285 7.28868L3.82921 7.91459C3.78749 7.94241 3.74576 7.99805 3.73185 8.03977C3.71794 8.06759 3.73185 8.09541 3.74576 8.12323L5.83213 11.378C5.85995 11.4197 5.91558 11.4336 5.9434 11.4336C5.97122 11.4336 6.01295 11.4336 6.05467 11.3919L7.02831 10.766C7.22304 10.6408 7.43168 10.5851 7.65422 10.5851C7.94631 10.5851 8.21059 10.6964 8.40531 10.8911L10.6725 13.1444C10.8811 13.3531 10.9785 13.6173 10.9646 13.9233C10.9507 14.2293 10.7977 14.5353 10.5473 14.7301L10.4778 14.7857L9.25377 15.7315C8.86432 16.0375 8.36359 16.2183 7.84895 16.2183Z" fill="#444B54"/>
<path d="M15.5685 4.65986C15.5407 6.95486 13.6073 8.76305 11.3262 8.76305H7.65424C7.4456 8.76305 7.2926 8.59614 7.2926 8.3875V4.67376C7.2926 2.37876 9.10079 0.445392 11.368 0.403664C13.7047 0.389755 15.6103 2.2953 15.5685 4.65986Z" fill="white"/>
<path d="M11.3401 9.18032H7.65422C7.22303 9.18032 6.87531 8.83259 6.87531 8.3875V4.68767C6.87531 2.1423 8.89213 0.0420257 11.368 0.000298296C12.6059 -0.0136108 13.7742 0.459299 14.6505 1.33557C15.5407 2.22576 16.0136 3.40803 15.9997 4.65985C15.958 7.14959 13.8577 9.18032 11.3401 9.18032Z" fill="#444B54"/>
<path d="M11.3402 5.98123H9.49026C9.2538 5.98123 9.07298 5.80041 9.07298 5.56395C9.07298 5.3275 9.2538 5.14668 9.49026 5.14668H11.3263C11.5627 5.14668 11.7435 5.3275 11.7435 5.56395C11.7435 5.80041 11.5627 5.98123 11.3402 5.98123ZM13.0093 5.98123H12.9814C12.745 5.98123 12.5642 5.80041 12.5642 5.56395C12.5642 5.3275 12.745 5.14668 12.9814 5.14668H13.0093C13.2457 5.14668 13.4265 5.3275 13.4265 5.56395C13.4265 5.80041 13.2318 5.98123 13.0093 5.98123ZM13.1484 4.59032H9.46244C9.22598 4.59032 9.04517 4.4095 9.04517 4.17304C9.04517 3.93659 9.22598 3.75577 9.46244 3.75577H13.1484C13.3848 3.75577 13.5656 3.93659 13.5656 4.17304C13.5656 4.4095 13.3709 4.59032 13.1484 4.59032Z" fill="#42B4AD"/>
</svg>
