<svg width="64" height="64" viewBox="0 0 64 64" fill="none" xmlns="http://www.w3.org/2000/svg">
<g id="Piggy Bank">
<g id="icons8-money-box">
<path id="Shape" d="M41.1853 20.3107H24.5927C17.9557 20.3107 12.2076 23.8641 9.18533 29.1068C8.17792 30.9126 6.16311 31.9612 4.08903 31.9612H2.07422V43.6117H4.08903C6.16311 43.6117 8.11866 44.6602 9.18533 46.466C12.2668 51.7087 18.015 55.2621 24.5927 55.2621H41.1853C51.0224 55.2621 58.9631 47.4563 58.9631 37.7864C58.9631 28.1165 50.9631 20.3107 41.1853 20.3107Z" fill="#F48884"/>
<path id="Shape_2" d="M41.1863 18.5631C51.9708 18.5637 60.7406 27.1845 60.741 37.7858C60.741 48.3874 51.9117 57.0078 41.1863 57.0084H24.5925C17.6001 57.0084 11.081 53.282 7.58472 47.3405C6.87367 46.1173 5.51137 45.3601 4.03003 45.36H2.0144C1.00721 45.3598 0.237061 44.6001 0.237061 43.61V31.9615C0.237061 30.9714 1.00721 30.2157 2.0144 30.2155H4.03003C5.51137 30.2153 6.87367 29.4543 7.58472 28.2311C11.0812 22.2901 17.5412 18.5631 24.5925 18.5631H41.1863ZM24.5925 22.0592C18.8444 22.0592 13.5698 25.0879 10.7253 29.9811C9.3623 32.2526 6.87355 33.7076 4.08862 33.7076H3.85034V41.8639H4.08862C6.81393 41.8639 9.36215 43.2613 10.7253 45.5905C13.5698 50.4836 18.9037 53.5162 24.5925 53.5162H41.1863C50.0154 53.5157 57.1863 46.465 57.1863 37.7858C57.1859 29.1068 50.0152 22.0598 41.1863 22.0592H24.5925Z" fill="#454B54"/>
<path id="Shape_3" d="M14.6962 33.7087C14.2222 33.7087 13.7481 33.534 13.4518 33.1845C13.0962 32.835 12.9185 32.4272 12.9185 31.9612C12.9185 31.4951 13.0962 31.0291 13.4518 30.7379C14.1036 30.0971 15.2888 30.0971 15.9407 30.7379C16.2962 31.0874 16.474 31.4951 16.474 31.9612C16.474 32.4272 16.2962 32.8932 15.9407 33.1845C15.6444 33.534 15.1703 33.7087 14.6962 33.7087Z" fill="#454B54"/>
<path id="Shape_4" d="M29.9259 50.6019C28.6222 50.6019 29.3333 51.6505 29.3333 52.932L27.5555 60.5048C27.5555 61.4951 26.7851 62.2524 25.7777 62.2524H21.6296C20.6222 62.2524 19.8518 61.4951 19.8518 60.5048V52.932" fill="#F48884"/>
<path id="Shape_5" d="M36.4446 52.932L38.815 60.5049C38.815 61.4951 39.5853 62.2524 40.5927 62.2524H44.7409C45.7483 62.2524 46.5187 61.4951 46.5187 60.5049V52.932" fill="#F48884"/>
<path id="Shape_6" d="M44.7409 64H40.5927C38.7557 64 37.215 62.6019 37.0372 60.8544L35.3187 55.8447C35.0224 54.9126 35.4964 53.9223 36.4446 53.6311C37.3927 53.3398 38.4001 53.8058 38.6964 54.7379L40.4742 59.9806C40.5335 60.1553 40.5927 60.3301 40.5927 60.5049H44.7409V54.4466C44.7409 53.4563 45.5113 52.699 46.5187 52.699C47.5261 52.699 48.2964 53.4563 48.2964 54.4466V60.5049C48.2964 62.4272 46.6964 64 44.7409 64Z" fill="#454B54"/>
<path id="Shape_7" d="M25.7779 64H21.6298C19.6742 64 18.0742 62.4272 18.0742 60.5049V54.6214C18.0742 53.6311 18.8446 52.8738 19.852 52.8738C20.8594 52.8738 21.6298 53.6311 21.6298 54.6214V60.5049H25.7779C25.7779 60.3883 25.7779 60.2136 25.8372 60.0971L27.615 52.5243C27.852 51.5922 28.8001 51.0097 29.7483 51.2427C30.6964 51.4757 31.289 52.4078 31.052 53.3398L29.3335 60.7379C29.1557 62.5437 27.615 64 25.7779 64Z" fill="#454B54"/>
<path id="Shape_8" d="M13.926 16.233C18.8445 16.233 22.8149 18.3883 22.8149 23.2233V26.1359H13.926V16.233Z" fill="#F48884"/>
<path id="Shape_9" d="M13.926 27.8835C12.9186 27.8835 12.1482 27.1262 12.1482 26.1359V16.233C12.1482 15.2427 12.9186 14.4854 13.926 14.4854C20.3852 14.4854 24.5926 17.9223 24.5926 23.2233C24.5926 24.2136 23.8223 24.9709 22.8149 24.9709C21.8075 24.9709 21.0371 24.2136 21.0371 23.2233C21.0371 19.5534 18.0149 18.4466 15.7037 18.0971V26.1359C15.7037 27.1262 14.8741 27.8835 13.926 27.8835Z" fill="#454B54"/>
<path id="Shape_10" d="M61.926 39.534H58.9038C57.8963 39.534 57.126 38.7767 57.126 37.7864C57.126 36.7961 57.8963 36.0388 58.9038 36.0388H61.926C62.9334 36.0388 63.7038 36.7961 63.7038 37.7864C63.7038 38.7767 62.9334 39.534 61.926 39.534Z" fill="#454B54"/>
<path id="Oval" d="M45.3333 34.5825C53.0571 34.5825 59.3185 28.1928 59.3185 20.3107C59.3185 12.4286 53.0571 6.03883 45.3333 6.03883C37.6095 6.03883 31.3481 12.4286 31.3481 20.3107C31.3481 28.1928 37.6095 34.5825 45.3333 34.5825Z" fill="#F8E390"/>
<path id="Shape_11" d="M45.332 4.29126C54.0431 4.29126 61.0977 11.4564 61.0977 20.3108C61.0976 29.1651 53.9838 36.3303 45.332 36.3303C36.6215 36.3296 29.5704 29.1647 29.5703 20.3108C29.5703 11.4568 36.6215 4.29194 45.332 4.29126ZM45.332 7.78736C38.5771 7.78804 33.125 13.3792 33.125 20.3108C33.1251 27.2424 38.5771 32.8335 45.332 32.8342C52.0875 32.8342 57.539 27.2428 57.5391 20.3108C57.5391 13.3788 52.0283 7.78736 45.332 7.78736Z" fill="#454B54"/>
<path id="Oval_2" d="M45.3333 28.8738C49.9806 28.8738 53.7481 25.04 53.7481 20.3107C53.7481 15.5814 49.9806 11.7476 45.3333 11.7476C40.6859 11.7476 36.9185 15.5814 36.9185 20.3107C36.9185 25.04 40.6859 28.8738 45.3333 28.8738Z" fill="white"/>
<path id="Shape_12" d="M29.3333 27.301H39.9999C46.5184 27.301 51.8518 32.5437 51.8518 38.9515L42.074 39.8252C34.6073 40.5243 29.3333 34.699 29.3333 27.301Z" fill="#F48884"/>
</g>
</g>
</svg>
