<svg width="16" height="16" viewBox="0 0 16 16" fill="none" xmlns="http://www.w3.org/2000/svg">
<path d="M12.6353 13.9993C14.4801 13.6741 15.7126 11.9182 15.3881 10.0773C15.0636 8.23645 13.305 7.00778 11.4601 7.33299C9.61526 7.65821 8.38275 9.41416 8.70726 11.255C9.03176 13.0959 10.7904 14.3245 12.6353 13.9993Z" fill="white"/>
<path fill-rule="evenodd" clip-rule="evenodd" d="M12.0001 6.82053C13.888 6.82056 15.5195 8.15921 15.8555 10.0207C16.0475 11.0361 15.8235 12.0513 15.2315 12.882C14.6396 13.728 13.7601 14.2821 12.7364 14.4514C12.5284 14.4975 12.3041 14.5129 12.0801 14.5129C10.1921 14.5129 8.55969 13.1743 8.22369 11.3127C7.83981 9.23591 9.24796 7.23597 11.3438 6.88205C11.5678 6.85128 11.7761 6.82053 12.0001 6.82053ZM12.0001 7.74338C11.8401 7.74338 11.6799 7.75851 11.504 7.78928C9.91996 8.05081 8.86402 9.57478 9.16802 11.1594C9.42418 12.5746 10.6563 13.5901 12.0801 13.5901C12.2401 13.59 12.4003 13.5739 12.5762 13.5432C13.3441 13.42 14.0004 12.9893 14.4483 12.3586C14.8961 11.7279 15.0558 10.9431 14.9278 10.174C14.6557 8.77425 13.4399 7.74341 12.0001 7.74338Z" fill="#454B54"/>
<g opacity="0.15">
<path d="M13.104 9.00515C13.024 8.94361 12.912 8.91284 12.816 8.91284C12.656 8.91284 12.496 8.98976 12.4 9.12823L10.864 11.6513C10.704 11.8667 10.768 12.1744 10.992 12.3282C11.072 12.3898 11.184 12.4205 11.28 12.4205C11.44 12.4205 11.6 12.3436 11.696 12.2051L13.232 9.68207C13.392 9.46669 13.328 9.159 13.104 9.00515Z" fill="black"/>
</g>
<path d="M0.825365 10.17L4.53965 3.72583C5.26981 2.45917 6.87298 2.03167 8.14283 2.76L8.1587 2.77583C9.41267 3.50417 9.85711 5.11917 9.12695 6.37L5.41267 12.8142C4.68251 14.0808 3.07933 14.5083 1.80949 13.78L1.79362 13.7642C0.539651 13.0358 0.111079 11.4208 0.825365 10.17Z" fill="white"/>
<path d="M5.42854 12.7983L7.28569 9.60001L2.69839 6.95584L0.841243 10.1542C0.111084 11.4208 0.539656 13.0358 1.8095 13.7642C3.07934 14.5083 4.69839 14.065 5.42854 12.7983Z" fill="#E97087"/>
<path fill-rule="evenodd" clip-rule="evenodd" d="M6.84133 2C7.38098 2.00002 7.92084 2.14296 8.397 2.41211L8.41262 2.42773C9.90463 3.28276 10.4123 5.18259 9.5552 6.6709L5.84133 13.1152C5.26994 14.0809 4.23818 14.6669 3.14309 14.667C2.60344 14.667 2.0636 14.524 1.58743 14.2549L1.5718 14.2393C0.0798458 13.3843 -0.42864 11.4844 0.428249 9.99609L4.14309 3.55176C4.69866 2.58596 5.73024 2 6.84133 2ZM6.84133 2.9502C6.06366 2.9502 5.34928 3.36152 4.96829 4.02637L1.23782 10.4707C0.634648 11.4999 1.00002 12.8302 2.03176 13.416L2.04739 13.4316C2.38059 13.6216 2.7457 13.7167 3.12649 13.7168C3.90427 13.7168 4.61859 13.3046 4.99954 12.6396L8.73001 6.19629C9.33318 5.16712 8.96781 3.83681 7.93606 3.25098L7.92044 3.23535C7.58714 3.04537 7.20638 2.95021 6.84133 2.9502Z" fill="#454B54"/>
<g opacity="0.8">
<path d="M1.90476 11.3417C1.82539 11.3417 1.74603 11.3258 1.66666 11.2783C1.44444 11.1517 1.36508 10.8508 1.49206 10.6292L5.26984 4.13751C5.39682 3.91584 5.69841 3.83668 5.9365 3.96334C6.15873 4.09001 6.23809 4.39084 6.11111 4.61251L2.33333 11.1042C2.25397 11.2625 2.07936 11.3417 1.90476 11.3417Z" fill="white"/>
</g>
</svg>
