<svg width="48" height="48" viewBox="0 0 48 48" fill="none" xmlns="http://www.w3.org/2000/svg">
<g id="Plan">
<path id="Oval 2" d="M24 48C37.2548 48 48 37.2548 48 24C48 10.7452 37.2548 0 24 0C10.7452 0 0 10.7452 0 24C0 37.2548 10.7452 48 24 48Z" fill="#F28602"/>
<g id="Buttons / Text + Leading Icon / Enabled" clip-path="url(#clip0_3862_165484)">
<g id="Files-Folders / Common-Files / common-file-quill">
<g id="Group">
<g id="common-file-quill">
<path id="Shape" d="M22.7501 38.0625L30.0426 30.77" stroke="white" stroke-width="0.75" stroke-linecap="round" stroke-linejoin="round"/>
<path id="Shape_2" fill-rule="evenodd" clip-rule="evenodd" d="M37.9725 22.815C37.0419 22.7149 36.1032 22.7149 35.1725 22.815L32.6725 26.79L31.1363 23.9288C25.5625 26.665 23.3863 33.2763 25.4475 35.3413C28.2125 38.1113 39.16 33.26 37.9725 22.815Z" stroke="white" stroke-width="0.75" stroke-linecap="round" stroke-linejoin="round"/>
<path id="Shape_3" d="M19.3125 34.3125H11.8125C10.777 34.3125 9.9375 33.473 9.9375 32.4375V11.8125C9.9375 10.777 10.777 9.9375 11.8125 9.9375H25.0987C25.5957 9.93761 26.0723 10.135 26.4237 10.4863L30.0138 14.0763C30.365 14.4277 30.5624 14.9043 30.5625 15.4012V19.3125" stroke="white" stroke-width="0.75" stroke-linecap="round" stroke-linejoin="round"/>
</g>
</g>
</g>
</g>
</g>
<defs>
<clipPath id="clip0_3862_165484">
<rect width="10" height="10" fill="white" transform="matrix(3 0 0 3 9 9)"/>
</clipPath>
</defs>
</svg>
