<svg width="48" height="48" viewBox="0 0 48 48" fill="none" xmlns="http://www.w3.org/2000/svg">
<g id="Plane">
<g id="illustrated_holiday">
<path id="Path" fill-rule="evenodd" clip-rule="evenodd" d="M41.069 25.825C41.069 35.705 33.4345 43.7 24.0001 43.7C14.5656 43.7 6.93109 35.705 6.93109 25.825C6.93109 15.945 14.5656 7.95 24.0001 7.95C26.0173 7.95 27.9725 8.3075 29.7725 8.99C36.3518 11.46 41.069 18.0575 41.069 25.825Z" fill="white"/>
<path id="Path_2" fill-rule="evenodd" clip-rule="evenodd" d="M27.3517 28.75C26.4827 30.0175 31.0448 33.885 32.5655 33.1375C35.1413 31.87 36.8172 29.2375 36.8172 28.2625C36.8172 27.2875 35.6069 25.4025 31.4793 28.3275C30.331 29.205 28.2517 27.45 27.3517 28.75Z" fill="#ADF9D2"/>
<path id="Path_3" fill-rule="evenodd" clip-rule="evenodd" d="M40.7277 22.2175C39.5173 16.075 35.2966 11.07 29.7725 8.99C29.7414 8.99 29.7104 8.9575 29.7104 8.9575L29.7725 12.4025C29.7725 13.28 29.2759 14.0925 28.5001 14.45C26.7932 15.23 25.0863 14.8075 24.3725 16.855C23.7828 18.3825 25.3346 22.575 27.2277 22.575C29.6173 22.575 30.7656 17.5375 31.4794 17.5375C31.9449 17.5375 32.6587 19.065 33.4966 20.2025C34.0552 20.9825 34.9242 21.405 35.8552 21.405H37.438L40.7277 22.2175Z" fill="#ADF9D2"/>
<path id="Path_4" fill-rule="evenodd" clip-rule="evenodd" d="M12.7345 39.2475C13.9449 40.3525 15.6828 40.515 17.0483 39.7025C17.607 39.3775 18.1966 38.9875 18.8483 38.5325C19.2828 38.2075 19.6552 37.785 19.9345 37.2975C20.2449 36.7125 20.6173 36.095 20.8035 35.38C22.0138 30.505 17.9794 30.31 17.8552 29.2375C17.7311 28.035 19.2207 27.125 20.1207 26.1825C21.0207 25.24 21.3001 23.7775 20.8345 22.9325C19.3449 20.105 15.807 21.6 15.4656 24.5575C15.2794 26.345 14.2552 28.165 13.3863 29.1075C12.5173 30.0175 10.8104 29.53 10.3449 28.1975C9.8173 26.7025 11.6483 26.15 11.369 24.2325C11.307 23.7125 10.7794 23.4525 10.1276 23.355L7.05523 23.485C6.99316 24.2325 6.93109 25.0125 6.93109 25.825C6.93109 29.8225 8.17247 33.495 10.3139 36.485C10.3139 36.485 12.7345 38.89 12.7345 39.2475Z" fill="#ADF9D2"/>
<path id="Path_5" fill-rule="evenodd" clip-rule="evenodd" d="M23.9999 44.675C23.4724 44.675 23.0689 44.2525 23.0689 43.7C23.0689 43.1475 23.4724 42.725 23.9999 42.725C32.9068 42.725 40.1379 35.1525 40.1379 25.825C40.1379 23.2575 39.6103 20.7875 38.5551 18.5125C38.3379 18.025 38.5241 17.44 38.9896 17.2125C39.4551 16.985 40.0137 17.18 40.231 17.6675C41.4103 20.235 41.9999 22.965 41.9999 25.825C41.9999 36.225 33.931 44.675 23.9999 44.675Z" fill="#444B54"/>
<path id="Path_6" fill-rule="evenodd" clip-rule="evenodd" d="M33.9931 19.195C33.4966 19.065 33 19.39 32.8759 19.91C32.4103 21.8275 30.6103 28.555 26.0483 34.145C20.1517 41.3925 13.8828 44.2525 11.7414 42.3675C10.9966 41.7175 10.6862 40.45 10.8724 38.7275C11.5552 39.475 12.3 40.19 13.1069 40.84C13.2621 40.97 13.4793 41.035 13.6655 41.035C13.9448 41.035 14.2241 40.905 14.4103 40.645C14.7207 40.2225 14.6276 39.605 14.2241 39.28C13.0138 38.305 11.9586 37.2 11.0586 35.965C11.0276 35.9325 10.9966 35.9 10.9655 35.835C8.97931 33.0075 7.86207 29.53 7.86207 25.825C7.86207 16.4975 15.0931 8.92499 24 8.92499C25.8621 8.92499 27.6931 9.24999 29.4621 9.89999C29.9586 10.095 30.4862 9.80249 30.6414 9.31499C30.8276 8.79499 30.5483 8.24249 30.0828 8.07999C28.1276 7.33249 26.0793 6.97499 24 6.97499C14.069 6.97499 6 15.425 6 25.825C6 29.8225 7.17931 33.625 9.35172 36.7775L9.25862 37.265C8.63793 40.32 9.10345 42.595 10.5621 43.895C11.3379 44.5775 12.331 44.9025 13.4793 44.9025C17.2345 44.9025 22.6345 41.36 27.4759 35.4125C32.1621 29.66 34.0552 22.9975 34.6759 20.3975C34.8 19.8775 34.4897 19.325 33.9931 19.195Z" fill="#444B54"/>
<path id="Path_7" fill-rule="evenodd" clip-rule="evenodd" d="M38.0896 14.0925L35.2654 11.135V6.975C35.2654 6.4225 34.862 6 34.3344 6C33.8068 6 33.4034 6.4225 33.4034 6.975V11.135L30.5792 14.0925C30.2068 14.4825 30.2068 15.1 30.5792 15.4575C30.7654 15.6525 31.0137 15.75 31.231 15.75C31.4482 15.75 31.6965 15.6525 31.8827 15.4575L33.4034 13.865V16.4C33.4034 16.66 33.4965 16.92 33.6827 17.0825L34.4585 17.895C34.6448 18.09 34.893 18.1875 35.1103 18.1875C35.3275 18.1875 35.5758 18.09 35.762 17.895C36.1344 17.505 36.1344 16.8875 35.762 16.53L35.2654 16.01V13.8975L36.7861 15.49C36.9723 15.685 37.2206 15.7825 37.4379 15.7825C37.6551 15.7825 37.9034 15.685 38.0896 15.49C38.462 15.0675 38.462 14.4825 38.0896 14.0925Z" fill="#444B54"/>
</g>
</g>
</svg>
