<svg width="26" height="26" viewBox="0 0 26 26" fill="none" xmlns="http://www.w3.org/2000/svg">
<g id="Plans">
<g id="Group 3">
<rect id="Rectangle" width="15" height="12" rx="3" transform="matrix(0 -1.5 -1.5 0 24.3913 23.1864)" fill="white"/>
<g id="Group">
<path id="Path" d="M8.76921 22.9112H17.4725C17.8088 22.9112 18.0659 23.1801 18.0659 23.5319C18.0659 23.8836 17.8088 24.1525 17.4725 24.1525L8.76921 24.1525C8.07691 24.1525 7.44394 23.8629 6.94943 23.3663C6.45493 22.8491 6.19779 22.187 6.19779 21.4629L6.19779 7.60082C6.19779 7.24909 6.45493 6.98013 6.79119 6.98013C7.12746 6.98013 7.3846 7.24909 7.3846 7.60082L7.3846 21.4629C7.3846 21.856 7.52306 22.2077 7.7802 22.4974C8.03735 22.787 8.39339 22.9112 8.76921 22.9112Z" fill="#444B54"/>
<path id="Shape" fill-rule="evenodd" clip-rule="evenodd" d="M7.52308 1.53875C6.69231 2.4284 6.21758 3.58702 6.1978 4.8284C6.1978 4.84909 6.1978 4.89047 6.17802 4.91116C6.17802 4.99392 6.1978 5.07668 6.23736 5.15944C6.33626 5.36633 6.55385 5.53185 6.79121 5.53185H6.87033L8.76923 5.53185C10.1934 5.53185 11.3407 4.33185 11.3407 2.8422V1.39392L21.4286 1.39392C22.2 1.39392 22.8132 2.0353 22.8132 2.8422L22.8132 12.7732C22.8132 13.125 23.0703 13.3939 23.4066 13.3939C23.7429 13.3939 24 13.125 24 12.7732L24 2.8422C24 1.35254 22.8527 0.152541 21.4286 0.152541L10.7473 0.152541C9.52088 0.152541 8.39341 0.649093 7.52308 1.53875ZM10.1538 1.45599V2.8422C10.1538 3.64909 9.54066 4.29047 8.76923 4.29047L7.44396 4.29047C7.56264 3.58702 7.87912 2.94564 8.37363 2.4284C8.86813 1.91116 9.48132 1.58013 10.1538 1.45599Z" fill="#444B54"/>
</g>
<g id="Group 2">
<path id="Polygon" fill-rule="evenodd" clip-rule="evenodd" d="M20.25 13.89L19.0761 11.7764H16.7283L15.5543 13.89L16.7283 16.0037H19.0761L20.25 13.89Z" fill="#DC4D01"/>
<path id="Polygon Copy" fill-rule="evenodd" clip-rule="evenodd" d="M16.3369 16.3093L15.163 14.1956H12.8152L11.6413 16.3093L12.8152 18.423H15.163L16.3369 16.3093Z" fill="#FAC87F"/>
<path id="Polygon Copy 2" fill-rule="evenodd" clip-rule="evenodd" d="M20.25 8.98729L19.0761 6.8736H16.7283L15.5543 8.98729L16.7283 11.101H19.0761L20.25 8.98729Z" fill="#FAC87F"/>
<path id="Polygon Copy 3" fill-rule="evenodd" clip-rule="evenodd" d="M16.3369 11.428L15.163 9.31428H12.8152L11.6413 11.428L12.8152 13.5417H15.163L16.3369 11.428Z" fill="#F28602"/>
</g>
</g>
<g id="icons8-shpatel">
<path id="Path_2" d="M0.474976 14.1635V9.50481H10.025V14.1635" fill="white"/>
<path id="Path_3" d="M10.025 14.1635H0.474976V15.6779C0.474976 16.3269 0.924976 16.8462 1.47498 16.8462H3.32498C3.92498 16.8462 4.38748 17.4519 4.32498 18.1298L3.98748 21.851C3.91248 22.7308 4.49998 23.4952 5.26248 23.4952C6.01248 23.4952 6.59998 22.7452 6.53748 21.8798L6.24998 18.1154C6.19998 17.4375 6.66248 16.8462 7.24998 16.8462H9.02498C9.57498 16.8462 10.025 16.3269 10.025 15.6779V14.1635Z" fill="#F28602"/>
<path id="Oval" d="M5.25 22.2981C5.45711 22.2981 5.625 22.1044 5.625 21.8654C5.625 21.6264 5.45711 21.4327 5.25 21.4327C5.04289 21.4327 4.875 21.6264 4.875 21.8654C4.875 22.1044 5.04289 22.2981 5.25 22.2981Z" fill="white"/>
<path id="Path_4" d="M10.025 14.5962C9.81248 14.5962 9.64998 14.4087 9.64998 14.1635V9.9375H0.849976V14.1635C0.849976 14.4087 0.687476 14.5962 0.474976 14.5962C0.262476 14.5962 0.0999756 14.4087 0.0999756 14.1635V9.50481C0.0999756 9.25962 0.262476 9.07212 0.474976 9.07212H10.025C10.2375 9.07212 10.4 9.25962 10.4 9.50481V14.1635C10.4 14.4087 10.2375 14.5962 10.025 14.5962Z" fill="#454B54"/>
<path id="Shape_2" fill-rule="evenodd" clip-rule="evenodd" d="M4.03748 23.2933C4.34998 23.6971 4.79998 23.9279 5.26248 23.9279C5.72498 23.9279 6.16248 23.6971 6.48748 23.3077C6.79998 22.9038 6.94998 22.3702 6.91248 21.8365L6.62498 18.0721C6.61248 17.8702 6.66248 17.6683 6.78748 17.5096C6.91248 17.3654 7.07498 17.2788 7.24998 17.2788H9.02498C9.77498 17.2788 10.4 16.5577 10.4 15.6779V14.1635C10.4 13.9183 10.2375 13.7308 10.025 13.7308H0.474976C0.262476 13.7308 0.0999756 13.9183 0.0999756 14.1635V15.6635C0.0999756 16.5433 0.712476 17.2644 1.47498 17.2644H3.33748C3.51248 17.2644 3.67498 17.351 3.79998 17.5096C3.92498 17.6683 3.98748 17.8702 3.96248 18.0865L3.62498 21.8077C3.57498 22.3558 3.72498 22.8894 4.03748 23.2933ZM0.849976 15.6779V14.5962H9.64998V15.6779C9.64998 16.0817 9.37497 16.4135 9.02498 16.4135H7.24998C6.86248 16.4135 6.49998 16.601 6.23748 16.9327C5.97498 17.2644 5.83748 17.7115 5.87498 18.1587L6.14998 21.9231C6.17498 22.226 6.08748 22.5144 5.91248 22.7308C5.73748 22.9471 5.49998 23.0625 5.24998 23.0625C4.99998 23.0625 4.76248 22.9327 4.58748 22.7163C4.42498 22.4856 4.33748 22.1971 4.36248 21.8942L4.69998 18.1731C4.73748 17.726 4.61248 17.2644 4.34998 16.9327C4.08748 16.601 3.71248 16.4135 3.32498 16.4135H1.47498C1.13748 16.4135 0.849976 16.0817 0.849976 15.6779Z" fill="#454B54"/>
</g>
</g>
</svg>
