<svg width="16" height="16" viewBox="0 0 16 16" fill="none" xmlns="http://www.w3.org/2000/svg">
<path fill-rule="evenodd" clip-rule="evenodd" d="M14.6121 8.13334C14.6121 12.1867 11.431 15.4667 7.50001 15.4667C3.56897 15.4667 0.387939 12.1867 0.387939 8.13334C0.387939 4.08 3.56897 0.800003 7.50001 0.800003C8.34053 0.800003 9.15518 0.94667 9.90518 1.22667C12.6466 2.24 14.6121 4.94667 14.6121 8.13334Z" fill="white"/>
<path fill-rule="evenodd" clip-rule="evenodd" d="M8.89652 9.33333C8.53445 9.85333 10.4353 11.44 11.0689 11.1333C12.1422 10.6133 12.8405 9.53333 12.8405 9.13333C12.8405 8.73333 12.3362 7.96 10.6164 9.16C10.1379 9.52 9.27152 8.8 8.89652 9.33333Z" fill="#00B2A8"/>
<path fill-rule="evenodd" clip-rule="evenodd" d="M14.4698 6.65333C13.9655 4.13333 12.2069 2.08 9.90519 1.22667C9.89225 1.22667 9.87932 1.21333 9.87932 1.21333L9.90519 2.62667C9.90519 2.98667 9.69829 3.32 9.37501 3.46667C8.66381 3.78667 7.9526 3.61333 7.65519 4.45333C7.4095 5.08 8.05605 6.8 8.84484 6.8C9.84053 6.8 10.319 4.73333 10.6164 4.73333C10.8104 4.73333 11.1078 5.36 11.4569 5.82667C11.6897 6.14667 12.0517 6.32 12.4397 6.32H13.0992L14.4698 6.65333Z" fill="#00B2A8"/>
<path fill-rule="evenodd" clip-rule="evenodd" d="M2.80604 13.64C3.31035 14.0933 4.03449 14.16 4.60346 13.8267C4.83622 13.6933 5.0819 13.5333 5.35346 13.3467C5.53449 13.2133 5.68966 13.04 5.80604 12.84C5.93535 12.6 6.09053 12.3467 6.16811 12.0533C6.67242 10.0533 4.99139 9.97333 4.93966 9.53333C4.88794 9.04 5.50863 8.66667 5.88363 8.28C6.25863 7.89333 6.37501 7.29333 6.18104 6.94667C5.56035 5.78667 4.08622 6.4 3.94397 7.61333C3.86639 8.34667 3.43966 9.09333 3.07759 9.48C2.71553 9.85333 2.00432 9.65333 1.81035 9.10667C1.59053 8.49333 2.35346 8.26667 2.23708 7.48C2.21122 7.26667 1.99139 7.16 1.71984 7.12L0.439664 7.17333C0.413802 7.48 0.387939 7.8 0.387939 8.13333C0.387939 9.77333 0.905181 11.28 1.79742 12.5067C1.79742 12.5067 2.80604 13.4933 2.80604 13.64Z" fill="#00B2A8"/>
<path fill-rule="evenodd" clip-rule="evenodd" d="M7.49999 15.8667C7.28016 15.8667 7.11206 15.6933 7.11206 15.4667C7.11206 15.24 7.28016 15.0667 7.49999 15.0667C11.2112 15.0667 14.2241 11.96 14.2241 8.13333C14.2241 7.08 14.0043 6.06667 13.5646 5.13333C13.4741 4.93333 13.5517 4.69333 13.7457 4.6C13.9396 4.50667 14.1724 4.58667 14.2629 4.78667C14.7543 5.84 15 6.96 15 8.13333C15 12.4 11.6379 15.8667 7.49999 15.8667Z" fill="black"/>
<path fill-rule="evenodd" clip-rule="evenodd" d="M11.6638 5.41333C11.4569 5.36 11.25 5.49334 11.1983 5.70667C11.0043 6.49334 10.2543 9.25333 8.35345 11.5467C5.89655 14.52 3.28448 15.6933 2.39224 14.92C2.0819 14.6533 1.95259 14.1333 2.03017 13.4267C2.31466 13.7333 2.625 14.0267 2.96121 14.2933C3.02586 14.3467 3.11638 14.3733 3.19397 14.3733C3.31034 14.3733 3.42672 14.32 3.50431 14.2133C3.63362 14.04 3.59483 13.7867 3.42672 13.6533C2.92241 13.2533 2.48276 12.8 2.10776 12.2933C2.09483 12.28 2.0819 12.2667 2.06897 12.24C1.24138 11.08 0.775862 9.65333 0.775862 8.13333C0.775862 4.30667 3.78879 1.2 7.5 1.2C8.27586 1.2 9.03879 1.33333 9.77586 1.6C9.98276 1.68 10.2026 1.56 10.2672 1.36C10.3448 1.14667 10.2284 0.920002 10.0345 0.853335C9.21983 0.546668 8.36638 0.400002 7.5 0.400002C3.36207 0.400002 0 3.86667 0 8.13333C0 9.77333 0.491379 11.3333 1.39655 12.6267L1.35776 12.8267C1.09914 14.08 1.2931 15.0133 1.90086 15.5467C2.22414 15.8267 2.63793 15.96 3.11638 15.96C4.68103 15.96 6.93103 14.5067 8.94828 12.0667C10.9009 9.70667 11.6897 6.97333 11.9483 5.90667C12 5.69334 11.8707 5.46667 11.6638 5.41333Z" fill="black"/>
<path fill-rule="evenodd" clip-rule="evenodd" d="M13.3707 3.32L12.194 2.10667V0.4C12.194 0.173333 12.0259 0 11.806 0C11.5862 0 11.4181 0.173333 11.4181 0.4V2.10667L10.2414 3.32C10.0862 3.48 10.0862 3.73333 10.2414 3.88C10.319 3.96 10.4224 4 10.5129 4C10.6034 4 10.7069 3.96 10.7845 3.88L11.4181 3.22667V4.26667C11.4181 4.37333 11.4569 4.48 11.5345 4.54667L11.8578 4.88C11.9353 4.96 12.0388 5 12.1293 5C12.2198 5 12.3233 4.96 12.4009 4.88C12.556 4.72 12.556 4.46667 12.4009 4.32L12.194 4.10667V3.24L12.8276 3.89333C12.9052 3.97333 13.0086 4.01333 13.0991 4.01333C13.1897 4.01333 13.2931 3.97333 13.3707 3.89333C13.5259 3.72 13.5259 3.48 13.3707 3.32Z" fill="black"/>
</svg>
