<svg width="17" height="16" viewBox="0 0 17 16" fill="none" xmlns="http://www.w3.org/2000/svg">
<path d="M7.77235 6.54167L6.29408 5.431C6.04722 5.15217 5.92494 4.85525 5.81523 4.5525C5.72151 4.26492 5.67351 3.94467 5.67923 3.6355C5.67923 2.49975 6.36494 1.82542 6.82093 1.50342C6.85636 2.04767 7.02207 2.87075 7.66321 3.2995C8.72262 4.00942 10.2037 4.16458 10.8215 4.199V6.54167H7.77235Z" fill="#E0AC89"/>
<path d="M6.60443 2.06226C6.27815 2.39826 5.96501 2.90867 5.96501 3.62967C5.95987 3.91784 6.00273 4.20426 6.08958 4.46851C6.1993 4.77126 6.3033 4.99351 6.50901 5.23034L7.86613 6.25001H10.5358L9.39297 5.66667C8.51698 5.59142 6.34558 4.18384 6.60443 2.06226Z" fill="#C49474"/>
<path d="M3.67874 9.45831C2.95646 9.45831 2.25018 8.28931 2.25018 7.41665C2.25018 6.00615 3.5416 5.37498 4.82158 5.37498C5.56729 5.37498 6.11014 5.54531 6.54727 5.68181C7.00098 5.82473 7.42955 5.95831 8.25011 5.95831C8.98553 5.95831 9.38153 5.81423 9.51867 5.75181L9.66952 5.68298L9.68609 5.51556C9.76209 4.77006 10.3724 4.20831 11.1072 4.20831C11.8952 4.20831 12.5358 4.86223 12.5358 5.66665C12.5358 7.14656 11.4135 8.87498 8.25011 8.87498C7.00327 8.87498 6.25642 8.64165 5.71071 8.47131C5.56214 8.42465 5.44614 8.38848 5.34329 8.36223L5.09986 8.29923L5.00729 8.53723C4.78958 9.09665 4.26844 9.45831 3.67874 9.45831Z" fill="#E0AC89"/>
<path d="M8.25011 11.7916C3.84788 11.7916 2.25018 9.1754 2.25018 7.41665C2.25018 6.61223 2.89075 5.95831 3.67874 5.95831C4.46673 5.95831 5.10729 6.61223 5.10729 7.41665C5.141 7.81448 5.78671 8.87498 8.25011 8.87498C9.64381 8.87498 10.1718 8.4579 10.7307 8.01573C11.2324 7.61848 11.8564 7.12498 12.8215 7.12498C14.3335 7.12498 15.9643 8.1289 15.9643 9.74998C15.9643 10.6226 15.258 11.7916 14.5357 11.7916H8.25011Z" fill="#E0AC89"/>
<path d="M12.8215 7.41669C12.8215 7.41669 12.2501 8.87502 10.5358 9.75002C9.47066 10.1689 8.51982 10.3334 7.67868 10.3334C3.82159 10.3334 2.53589 7.97552 2.53589 7.41669C2.53589 9.05819 4.05758 11.5 8.2501 11.5H14.5357C15.0877 11.5 15.6786 10.4728 15.6786 9.75002C15.6786 8.3086 14.1957 7.41669 12.8215 7.41669Z" fill="#C49474"/>
<path d="M8.25012 14.7084C5.29129 14.7084 2.6279 13.698 0.942204 11.9352C0.391925 11.3606 0.403354 10.4354 0.966776 9.8731C1.23534 9.60594 1.58963 9.45894 1.96505 9.45894C2.35304 9.45894 2.71533 9.61469 2.98675 9.89819C4.12102 11.0835 6.089 11.7917 8.25012 11.7917C10.6872 11.7917 12.7946 10.492 13.0843 9.81244L13.1061 9.7611L13.1078 9.70452C13.1312 8.91235 13.7586 8.29169 14.5358 8.29169C15.3237 8.29169 15.9643 8.9456 15.9643 9.75002C15.9643 12.8224 11.4712 14.7084 8.25012 14.7084Z" fill="#E0AC89"/>
<path d="M8.25012 14.7084C11.4712 14.7084 15.9643 12.8224 15.9643 9.75002C15.9643 9.68808 15.9583 9.62757 15.952 9.56789C15.5653 11.3857 13.2675 12.8917 9.26664 12.8917C6.61659 12.8917 4.23032 12.0016 2.71083 10.5598C2.41258 10.2801 2.01225 10.1459 1.60538 10.1459C1.43124 10.1459 1.25738 10.1724 1.09183 10.2238C1.26962 10.7789 1.43476 11.1327 1.68034 11.3918C3.16527 12.9516 5.67258 14.0416 8.25012 14.7084Z" fill="#C49474"/>
</svg>
