<svg width="17" height="16" viewBox="0 0 17 16" fill="none" xmlns="http://www.w3.org/2000/svg">
<path d="M6.64699 6.66344L5.38989 5.72879C5.17997 5.49414 5.07598 5.24428 4.98268 4.98951C4.90299 4.7475 4.86217 4.47801 4.86703 4.21784C4.86703 3.26208 5.45014 2.69461 5.83792 2.42365C5.86804 2.88164 6.00896 3.57428 6.55418 3.93509C7.45509 4.5325 8.71463 4.66307 9.23992 4.69203V6.66344H6.64699Z" fill="#E0AC89"/>
<path d="M5.65373 2.89392C5.37626 3.17667 5.10997 3.6062 5.10997 4.21293C5.1056 4.45543 5.14204 4.69646 5.2159 4.91883C5.3092 5.1736 5.39764 5.36063 5.57258 5.55993L6.72666 6.418H8.99693L8.02507 5.92711C7.28014 5.86379 5.4336 4.67928 5.65373 2.89392Z" fill="#C49474"/>
<path d="M3.16575 9.11781C2.55154 9.11781 1.95093 8.13407 1.95093 7.39971C1.95093 6.21274 3.04913 5.6816 4.13762 5.6816C4.77175 5.6816 5.23339 5.82494 5.60513 5.93981C5.99095 6.06008 6.3554 6.17249 7.0532 6.17249C7.67859 6.17249 8.01534 6.05124 8.13197 5.99872L8.26025 5.94079L8.27434 5.79991C8.33897 5.17255 8.85794 4.69983 9.48285 4.69983C10.153 4.69983 10.6977 5.25011 10.6977 5.92705C10.6977 7.17243 9.74331 8.62692 7.0532 8.62692C5.9929 8.62692 5.35779 8.43057 4.89372 8.28723C4.76738 8.24796 4.66874 8.21753 4.58127 8.19544L4.37426 8.14242L4.29554 8.3427C4.1104 8.81346 3.66723 9.11781 3.16575 9.11781Z" fill="#E0AC89"/>
<path d="M7.0532 11.0814C3.30959 11.0814 1.95093 8.87979 1.95093 7.39976C1.95093 6.72283 2.49566 6.17255 3.16575 6.17255C3.83585 6.17255 4.38058 6.72283 4.38058 7.39976C4.40925 7.73455 4.95835 8.62698 7.0532 8.62698C8.23838 8.62698 8.68738 8.276 9.16262 7.9039C9.58927 7.56961 10.1199 7.15432 10.9406 7.15432C12.2264 7.15432 13.6133 7.99914 13.6133 9.36331C13.6133 10.0977 13.0127 11.0814 12.3984 11.0814H7.0532Z" fill="#E0AC89"/>
<path d="M10.9407 7.39978C10.9407 7.39978 10.4547 8.627 8.99694 9.36333C8.09116 9.71578 7.28257 9.85421 6.56728 9.85421C3.28725 9.85421 2.19391 7.87005 2.19391 7.39978C2.19391 8.78114 3.48794 10.836 7.05321 10.836H12.3985C12.8679 10.836 13.3703 9.97154 13.3703 9.36333C13.3703 8.15035 12.1093 7.39978 10.9407 7.39978Z" fill="#C49474"/>
<path d="M7.0532 13.5358C4.53705 13.5358 2.27213 12.6856 0.838635 11.2021C0.370684 10.7186 0.380403 9.94006 0.85953 9.46684C1.08792 9.24202 1.38919 9.11831 1.70845 9.11831C2.0384 9.11831 2.34648 9.24938 2.57729 9.48795C3.54187 10.4854 5.21541 11.0814 7.0532 11.0814C9.1257 11.0814 10.9178 9.98767 11.1642 9.41579L11.1826 9.37259L11.1841 9.32498C11.204 8.65835 11.7376 8.13605 12.3984 8.13605C13.0685 8.13605 13.6133 8.68633 13.6133 9.36326C13.6133 11.9488 9.79239 13.5358 7.0532 13.5358Z" fill="#E0AC89"/>
<path d="M7.0532 13.5358C9.79288 13.5358 13.6138 11.9488 13.6138 9.36326C13.6138 9.31468 13.6086 9.26707 13.6016 9.22043C13.2624 10.7744 11.2695 12.0905 7.81128 12.0905C5.38358 12.0905 3.2782 11.2934 1.97581 10.0267C1.64558 9.70649 1.20207 9.49637 0.721313 9.49637C0.57019 9.49637 0.421597 9.52033 0.282227 9.56681C0.441891 10.0706 0.589685 10.3993 0.838393 10.6529L0.83939 10.6539C2.27288 12.1364 4.53681 13.5358 7.0532 13.5358Z" fill="#C49474"/>
</svg>
