<svg width="24" height="24" viewBox="0 0 24 24" fill="none" xmlns="http://www.w3.org/2000/svg">
<g id="Proud">
<g id="icons8-lol (1)">
<g id="Group">
<path id="Oval" d="M11.9665 23.5814C18.3227 23.5814 23.4753 18.4287 23.4753 12.0726C23.4753 5.71642 18.3227 0.563736 11.9665 0.563736C5.61035 0.563736 0.457672 5.71642 0.457672 12.0726C0.457672 18.4287 5.61035 23.5814 11.9665 23.5814Z" fill="#FDFCEE"/>
<path id="Shape" d="M11.9665 0.173035C18.528 0.173035 23.8654 5.5105 23.8654 12.072C23.8654 18.6334 18.528 23.9724 11.9665 23.9724C5.40503 23.9723 0.0675659 18.6334 0.0675659 12.072C0.0678964 5.51077 5.40523 0.173062 11.9665 0.173035ZM11.9665 0.953796C5.83649 0.953824 0.848355 5.94195 0.848328 12.072C0.848328 18.2025 5.83647 23.1901 11.9665 23.1901C18.0971 23.1901 23.0847 18.2026 23.0847 12.072C23.0846 5.94194 18.0971 0.953796 11.9665 0.953796Z" fill="#515151"/>
</g>
<g id="Group_2">
<g id="Group_3">
<path id="Oval_2" d="M11.9666 21.59C17.2229 21.59 21.484 17.3289 21.484 12.0726C21.484 6.81627 17.2229 2.55519 11.9666 2.55519C6.7103 2.55519 2.44922 6.81627 2.44922 12.0726C2.44922 17.3289 6.7103 21.59 11.9666 21.59Z" fill="#FFDDA7"/>
<path id="Shape_2" d="M11.9671 2.33137C17.3379 2.33167 21.7083 6.70179 21.7083 12.0726C21.708 17.4431 17.3377 21.8135 11.9671 21.8138C6.59634 21.8138 2.22623 17.4433 2.22592 12.0726C2.22592 6.7016 6.59616 2.33137 11.9671 2.33137ZM11.9671 2.77814C6.8423 2.77814 2.6727 6.9483 2.6727 12.0726C2.673 17.1977 6.84304 21.3655 11.9671 21.3655C17.0921 21.3652 21.2598 17.197 21.2601 12.0726C21.2601 6.94849 17.0917 2.77845 11.9671 2.77814Z" fill="#472B29"/>
</g>
<path id="Shape_3" opacity="0.79" d="M11.9789 4.02643C16.2274 4.02643 19.8352 6.79704 21.1999 10.6666C20.4391 6.15071 16.6053 2.71257 11.9789 2.71257C7.35245 2.71257 3.51859 6.15071 2.75784 10.6666C4.12249 6.79759 7.73031 4.02643 11.9789 4.02643Z" fill="#FBBF5C"/>
</g>
<g id="Group_4">
<g id="Group_5">
<path id="Shape_4" d="M10.5547 9.11888C10.3095 8.26089 9.5298 7.66738 8.61255 7.64211C7.69567 7.61641 6.88345 8.16537 6.59148 9.0083L6.06441 8.82598C6.43597 7.75198 7.46591 7.05209 8.62775 7.0844C9.7896 7.1167 10.7793 7.87277 11.0904 8.96629L10.5547 9.11888Z" fill="#684933"/>
<path id="Shape_5" fill-rule="evenodd" clip-rule="evenodd" d="M8.63131 6.94396C9.85417 6.97753 10.8972 7.77487 11.2247 8.92857L11.2621 9.06197L10.4578 9.29058L10.4193 9.15621C10.1922 8.35691 9.46379 7.80506 8.60896 7.78241C7.75275 7.75842 6.99492 8.26947 6.723 9.05438L6.67712 9.1853L5.88649 8.91144L5.93237 8.78052C6.32321 7.64863 7.40851 6.91044 8.63131 6.94396ZM10.2127 7.83536C9.78576 7.4644 9.23023 7.24079 8.62492 7.22371C7.57166 7.19411 6.6334 7.79876 6.24629 8.74091L6.50909 8.83156C6.85605 8.00536 7.68677 7.47595 8.61631 7.50155C9.54588 7.52796 10.3448 8.10307 10.6456 8.94726L10.9143 8.87032C10.7734 8.46244 10.5274 8.10886 10.2127 7.83536Z" fill="#472B29"/>
</g>
<g id="Group_6">
<path id="Shape_6" d="M17.8064 9.32155C17.5613 8.46357 16.7815 7.87005 15.8643 7.84478C14.947 7.81951 14.1352 8.36805 13.8432 9.21097L13.3161 9.02865C13.6877 7.95465 14.7176 7.25477 15.8795 7.28707C17.0413 7.31937 18.031 8.07544 18.3421 9.16897L17.8064 9.32155Z" fill="#684933"/>
<path id="Shape_7" fill-rule="evenodd" clip-rule="evenodd" d="M15.8833 7.14629C17.1061 7.18157 18.1485 7.97894 18.4767 9.1309L18.514 9.26431L17.7099 9.49498L17.6714 9.36061C17.4439 8.56159 16.716 8.00786 15.8598 7.98379C15.0041 7.96016 14.2466 8.47231 13.975 9.25671L13.9292 9.3897L13.1385 9.11377L13.1843 8.98285C13.5756 7.85062 14.6609 7.1123 15.8833 7.14629ZM17.4658 8.03866C17.0387 7.66746 16.4813 7.44391 15.8748 7.42619C14.8224 7.39725 13.8854 8.00149 13.4983 8.94325L13.7622 9.03485C14.1087 8.20845 14.9376 7.67919 15.8673 7.70499C16.7971 7.73174 17.5966 8.30574 17.8976 9.14959L18.1663 9.07265C18.025 8.66523 17.7804 8.31214 17.4658 8.03866Z" fill="#472B29"/>
</g>
</g>
</g>
<g id="Group_7">
<path id="Shape_8" d="M10.3063 11.7759C10.596 12.6199 11.4058 13.1717 12.3231 13.149C13.2404 13.1262 14.0224 12.5359 14.2699 11.6789L14.8058 11.8334C14.4909 12.9253 13.499 13.6782 12.3371 13.7067C11.1752 13.7353 10.1472 13.032 9.77935 11.9563L10.3063 11.7759Z" fill="#684933"/>
<path id="Shape_9" fill-rule="evenodd" clip-rule="evenodd" d="M12.3407 13.8475C11.1177 13.8763 10.035 13.1346 9.64699 12.0013L9.6027 11.8701L10.3937 11.5976L10.4391 11.7298C10.7082 12.5158 11.4641 13.0307 12.3203 13.0099C13.1761 12.9887 13.9058 12.4376 14.1359 11.6401L14.1747 11.5049L14.9788 11.7391L14.9398 11.8722C14.6083 13.0234 13.5632 13.8175 12.3407 13.8475ZM10.7136 13.0392C11.1596 13.3875 11.7279 13.5816 12.3345 13.5675C13.387 13.5414 14.2911 12.8889 14.6284 11.9282L14.3601 11.8505C14.0573 12.6939 13.2572 13.2658 12.3274 13.2887C11.3975 13.3107 10.569 12.7793 10.2243 11.9524L9.96 12.0433C10.1224 12.4427 10.3852 12.7825 10.7136 13.0392Z" fill="#472B29"/>
</g>
</g>
</svg>
