<svg width="48" height="48" viewBox="0 0 48 48" fill="none" xmlns="http://www.w3.org/2000/svg">
<g id="Question">
<g id="icons8-raise-a-hand-to-answer">
<path id="Path" d="M39.1904 1.14285C37.9332 1.14285 36.9047 2.17142 36.9047 3.42857V9.06666C36.9047 15.5809 35.7618 22.019 33.5904 28.0762C32.4856 31.1238 29.6285 33.1429 26.3904 33.1429H18.6189H17.057C15.6856 33.1429 14.3904 33.9048 13.7427 35.0857L7.19037 46.8571H33.857C33.857 42.819 34.6189 38.8571 36.1047 35.0857L37.438 31.7333C40.1047 25.1048 41.438 18.019 41.438 10.8571V3.42857C41.4761 2.17142 40.4475 1.14285 39.1904 1.14285Z" fill="white"/>
<path id="Path_2" d="M26.3904 34.2857H18.619C17.9714 34.2857 17.4761 33.7905 17.4761 33.1428C17.4761 32.4952 17.9714 32 18.619 32H26.3904C29.1333 32 31.5714 30.2857 32.4857 27.6952C32.7142 27.0857 33.3618 26.7809 33.9333 27.0095C34.5428 27.2381 34.8476 27.8857 34.619 28.4571C33.3999 31.9619 30.0857 34.2857 26.3904 34.2857Z" fill="#444B54"/>
<path id="Path_3" d="M9.20945 44.3428C9.01897 44.3428 8.82849 44.3047 8.63802 44.1905C8.10469 43.8857 7.87611 43.2 8.18088 42.6286L12.6761 34.5143C13.5523 32.9524 15.1904 31.9619 17.019 31.9619H18.619C19.2666 31.9619 19.7618 32.4571 19.7618 33.1047C19.7618 33.7524 19.2666 34.2476 18.619 34.2476H17.0571C16.1047 34.2476 15.1904 34.7809 14.7333 35.619L10.238 43.7714C10.0094 44.1524 9.62849 44.3428 9.20945 44.3428Z" fill="#444B54"/>
<path id="Path_4" d="M11.9524 46.8572H4.33337C4.33337 44.7619 6.04766 43.0476 8.1429 43.0476C10.2381 43.0476 11.9524 44.7619 11.9524 46.8572Z" fill="white"/>
<path id="Path_5" d="M4.33329 48C3.68567 48 3.19043 47.5048 3.19043 46.8572C3.19043 44.1143 5.39995 41.9048 8.14281 41.9048C8.63805 41.9048 9.09519 41.981 9.55233 42.0953C10.1619 42.2857 10.5047 42.8953 10.3142 43.5048C10.1238 44.1143 9.51424 44.4572 8.90472 44.2667C8.67614 44.1905 8.40948 44.1524 8.14281 44.1524C6.6571 44.1524 5.47614 45.3334 5.47614 46.8191C5.47614 47.5048 4.98091 48 4.33329 48Z" fill="#444B54"/>
<path id="Path_6" d="M33.857 48C33.2094 48 32.7142 47.5048 32.7142 46.8571C32.7142 42.6667 33.5142 38.5524 35.0761 34.6667L36.4094 31.3143C39.038 24.8 40.3332 17.9048 40.3332 10.8952V3.42857C40.3332 2.78095 39.838 2.28571 39.1904 2.28571C38.5427 2.28571 38.0475 2.78095 38.0475 3.42857V9.06667C38.0475 9.71429 37.5523 10.2095 36.9046 10.2095C36.257 10.2095 35.7618 9.71429 35.7618 9.06667V3.42857C35.7618 1.52381 37.2856 0 39.1904 0C41.0951 0 42.6189 1.52381 42.6189 3.42857V10.8952C42.6189 18.2095 41.2475 25.3714 38.5046 32.1905L37.1713 35.5429C35.7237 39.1619 34.9999 42.9714 34.9999 46.8571C34.9999 47.5048 34.5046 48 33.857 48Z" fill="#444B54"/>
<path id="Oval" d="M24.7143 27.4286C28.9222 27.4286 32.3334 24.0174 32.3334 19.8095C32.3334 15.6016 28.9222 12.1905 24.7143 12.1905C20.5064 12.1905 17.0953 15.6016 17.0953 19.8095C17.0953 24.0174 20.5064 27.4286 24.7143 27.4286Z" fill="white"/>
<path id="Shape" fill-rule="evenodd" clip-rule="evenodd" d="M15.9523 19.8095C15.9523 24.6476 19.8761 28.5714 24.7142 28.5714C29.5523 28.5714 33.4761 24.6476 33.4761 19.8095C33.4761 14.9714 29.5523 11.0476 24.7142 11.0476C19.8761 11.0476 15.9523 14.9714 15.9523 19.8095ZM18.238 19.8095C18.238 16.2286 21.1333 13.3333 24.7142 13.3333C28.2952 13.3333 31.1904 16.2286 31.1904 19.8095C31.1904 23.3905 28.2952 26.2857 24.7142 26.2857C21.1333 26.2857 18.238 23.3905 18.238 19.8095Z" fill="#444B54"/>
<path id="Path_7" d="M37.6667 48H10.8095C10.1619 48 9.66669 47.5048 9.66669 46.8572C9.66669 46.2095 10.1619 45.7143 10.8095 45.7143H37.6667C38.3143 45.7143 38.8095 46.2095 38.8095 46.8572C38.8095 47.5048 38.3143 48 37.6667 48Z" fill="#444B54"/>
<path id="Path_8" d="M43.3809 48C43.3047 48 43.2285 48 43.1523 47.9619C43.0762 47.9619 43 47.9238 42.9238 47.8857C42.8476 47.8476 42.8095 47.8095 42.7333 47.7714C42.6571 47.7333 42.619 47.6952 42.5428 47.619C42.5047 47.581 42.4285 47.5048 42.3904 47.4286C42.3523 47.3524 42.3142 47.3143 42.2762 47.2381C42.2381 47.1619 42.2381 47.0857 42.2 47.0095C42.2 46.9333 42.1619 46.8571 42.1619 46.781C42.1619 46.7048 42.1619 46.6286 42.2 46.5524C42.2 46.4762 42.2381 46.4 42.2762 46.3238C42.3142 46.2476 42.3523 46.2095 42.3904 46.1333C42.4285 46.0571 42.4666 46.019 42.5428 45.9429C42.619 45.8667 42.6571 45.8286 42.7333 45.7905C42.8095 45.7524 42.8476 45.7143 42.9238 45.6762C43 45.6381 43.0762 45.6381 43.1523 45.6C43.3047 45.5619 43.4571 45.5619 43.6095 45.6C43.6857 45.6 43.7619 45.6381 43.8381 45.6762C43.9142 45.7143 43.9904 45.7524 44.0285 45.7905C44.1047 45.8286 44.1428 45.8667 44.219 45.9429C44.2571 45.981 44.3333 46.0571 44.3714 46.1333C44.4095 46.2095 44.4476 46.2476 44.4857 46.3238C44.5238 46.4 44.5238 46.4762 44.5619 46.5524C44.5619 46.6286 44.6 46.7048 44.6 46.781C44.6 46.8571 44.6 46.9333 44.5619 47.0095C44.5619 47.0857 44.5238 47.1619 44.4857 47.2381C44.4476 47.3143 44.4095 47.3905 44.3714 47.4286C44.3333 47.5048 44.2952 47.5429 44.219 47.619C44.1809 47.6571 44.1047 47.7333 44.0285 47.7714C43.9523 47.8095 43.9142 47.8476 43.8381 47.8857C43.7619 47.9238 43.6857 47.9238 43.6095 47.9619C43.5333 48 43.4571 48 43.3809 48Z" fill="#444B54"/>
</g>
</g>
</svg>
