<svg width="16" height="16" viewBox="0 0 16 16" fill="none" xmlns="http://www.w3.org/2000/svg">
<path fill-rule="evenodd" clip-rule="evenodd" d="M8.00005 15.5294C12.1584 15.5294 15.5295 12.1584 15.5295 7.99999C15.5295 3.84161 12.1584 0.470581 8.00005 0.470581C3.84167 0.470581 0.470642 3.84161 0.470642 7.99999C0.470642 12.1584 3.84167 15.5294 8.00005 15.5294Z" fill="white"/>
<path fill-rule="evenodd" clip-rule="evenodd" d="M7.99997 14.1176C11.3787 14.1176 14.1176 11.3787 14.1176 8C14.1176 4.62132 11.3787 1.88235 7.99997 1.88235C4.62129 1.88235 1.88232 4.62132 1.88232 8C1.88232 11.3787 4.62129 14.1176 7.99997 14.1176Z" fill="#E64766"/>
<path fill-rule="evenodd" clip-rule="evenodd" d="M11.47 4.52998C11.6538 4.71376 11.6538 5.01172 11.47 5.1955L5.1955 11.47C5.01172 11.6538 4.71376 11.6538 4.52998 11.47C4.34621 11.2862 4.34621 10.9883 4.52998 10.8045L10.8045 4.52998C10.9883 4.34621 11.2862 4.34621 11.47 4.52998Z" fill="white"/>
<path fill-rule="evenodd" clip-rule="evenodd" d="M4.52998 4.52998C4.71376 4.34621 5.01172 4.34621 5.1955 4.52998L11.47 10.8045C11.6538 10.9883 11.6538 11.2862 11.47 11.47C11.2862 11.6538 10.9883 11.6538 10.8045 11.47L4.52998 5.1955C4.34621 5.01172 4.34621 4.71376 4.52998 4.52998Z" fill="white"/>
<path fill-rule="evenodd" clip-rule="evenodd" d="M0 8C0 3.58172 3.58172 0 8 0C12.4183 0 16 3.58172 16 8C16 12.4183 12.4183 16 8 16C3.58172 16 0 12.4183 0 8ZM8 0.941176C4.10152 0.941176 0.941176 4.10152 0.941176 8C0.941176 11.8985 4.10152 15.0588 8 15.0588C11.8985 15.0588 15.0588 11.8985 15.0588 8C15.0588 4.10152 11.8985 0.941176 8 0.941176Z" fill="#444B54"/>
</svg>
