<svg width="16" height="16" viewBox="0 0 16 16" fill="none" xmlns="http://www.w3.org/2000/svg">
<path d="M11.6279 1.00001C12.939 1.00001 14.0119 2.1459 14 3.5459L13.9883 13.7275C13.9881 14.4274 13.4514 15 12.7959 15H5L4 14.5V13.7285L5.28027 13.876L5.56836 12.9522C6.26853 10.7793 5.65113 8.40863 4 6.86036V2.27247C4.00014 1.57276 4.53617 1.00028 5.19141 1.00001H11.6279Z" fill="white"/>
<path d="M5.0596 14.9793C5.01832 14.9793 4.97703 14.9793 4.93575 14.9655C4.71557 14.8966 4.60548 14.6621 4.67428 14.4414L5.18346 12.8276C5.80272 10.8828 5.29355 8.77241 3.88988 7.32414C2.48621 8.77241 1.97703 10.8828 2.5963 12.8276L2.7752 13.3931C2.84401 13.6138 2.72015 13.8483 2.51373 13.9172C2.29355 13.9862 2.0596 13.8621 1.9908 13.6552L1.8119 13.0897C1.04125 10.7034 1.75685 8.11034 3.61465 6.45517C3.76603 6.31724 3.99997 6.31724 4.16511 6.45517C6.02291 8.11034 6.7385 10.7172 5.96786 13.0897L5.45869 14.6897C5.40364 14.869 5.2385 14.9793 5.0596 14.9793Z" fill="#00B2A8"/>
<path d="M3.88989 16C3.65595 16 3.47705 15.8207 3.47705 15.5862V13.3793C3.47705 13.1448 3.65595 12.9655 3.88989 12.9655C4.12384 12.9655 4.30274 13.1448 4.30274 13.3793V15.5862C4.30274 15.8207 4.12384 16 3.88989 16Z" fill="#00B2A8"/>
<path d="M3.88994 10.4828C4.19395 10.4828 4.44039 10.2357 4.44039 9.93103C4.44039 9.62633 4.19395 9.37931 3.88994 9.37931C3.58593 9.37931 3.33948 9.62633 3.33948 9.93103C3.33948 10.2357 3.58593 10.4828 3.88994 10.4828Z" fill="#00B2A8"/>
<path d="M6.36699 16C6.13305 16 5.95415 15.8207 5.95415 15.5862V14.6483L5.1147 13.8069C4.94956 13.6414 4.94956 13.3793 5.1147 13.2276C5.27984 13.0621 5.5413 13.0621 5.69268 13.2276L6.65598 14.1931C6.73855 14.2759 6.77984 14.3724 6.77984 14.4828V15.5862C6.77984 15.8207 6.60094 16 6.36699 16Z" fill="#00B2A8"/>
<path d="M1.41284 16C1.1789 16 1 15.8207 1 15.5862V14.4828C1 14.3724 1.04128 14.2621 1.12385 14.1931L2.08716 13.2276C2.25229 13.0621 2.51376 13.0621 2.66514 13.2276C2.83028 13.3931 2.83028 13.6552 2.66514 13.8069L1.82569 14.6483V15.5862C1.82569 15.8207 1.64679 16 1.41284 16Z" fill="#00B2A8"/>
<path d="M9.5 14.5C9.77614 14.5 10 14.7239 10 15C10 15.2761 9.77614 15.5 9.5 15.5H8.5C8.22386 15.5 8 15.2761 8 15C8 14.7239 8.22386 14.5 8.5 14.5H9.5ZM12.3887 14.4492C12.6553 14.3779 12.9295 14.5362 13.001 14.8027C13.0723 15.0695 12.9133 15.3437 12.6465 15.415C12.4397 15.4703 12.2229 15.5 12 15.5H11.5C11.2239 15.5 11 15.2761 11 15C11 14.7239 11.2239 14.5 11.5 14.5H12C12.1351 14.5 12.2653 14.4822 12.3887 14.4492ZM14 11.9443C14.2761 11.9443 14.4999 12.1682 14.5 12.4443V13C14.5 13.2229 14.4703 13.4397 14.415 13.6465C14.3437 13.9133 14.0695 14.0723 13.8027 14.001C13.5362 13.9295 13.3779 13.6553 13.4492 13.3887C13.4822 13.2653 13.5 13.1351 13.5 13V12.4443C13.5001 12.1682 13.7239 11.9443 14 11.9443ZM14 8.61133C14.2761 8.61133 14.5 8.83519 14.5 9.11133V10.2227C14.4998 10.4986 14.276 10.7227 14 10.7227C13.724 10.7227 13.5002 10.4986 13.5 10.2227V9.11133C13.5 8.83519 13.7239 8.61133 14 8.61133ZM14 5.27734C14.276 5.27734 14.4998 5.5014 14.5 5.77734V6.88867C14.5 7.16481 14.2761 7.38867 14 7.38867C13.7239 7.38867 13.5 7.16481 13.5 6.88867V5.77734C13.5002 5.5014 13.724 5.27734 14 5.27734ZM4.19727 1.99902C4.4638 2.0705 4.62206 2.34469 4.55078 2.61133C4.51779 2.73474 4.5 2.86491 4.5 3V3.55566C4.49994 3.83176 4.27611 4.05566 4 4.05566C3.72389 4.05566 3.50006 3.83176 3.5 3.55566V3C3.5 2.77706 3.52972 2.56031 3.58496 2.35352C3.65627 2.08674 3.93049 1.92771 4.19727 1.99902ZM13.8027 1.99902C14.0695 1.92771 14.3437 2.08674 14.415 2.35352C14.4703 2.56031 14.5 2.77706 14.5 3V3.55566C14.4999 3.83176 14.2761 4.05566 14 4.05566C13.7239 4.05566 13.5001 3.83176 13.5 3.55566V3C13.5 2.86491 13.4822 2.73474 13.4492 2.61133C13.3779 2.34469 13.5362 2.0705 13.8027 1.99902ZM6.5 0.5C6.77614 0.5 7 0.723858 7 1C7 1.27614 6.77614 1.5 6.5 1.5H6C5.86491 1.5 5.73474 1.51779 5.61133 1.55078C5.34469 1.62206 5.0705 1.4638 4.99902 1.19727C4.92771 0.93049 5.08674 0.656272 5.35352 0.584961C5.56031 0.529716 5.77706 0.5 6 0.5H6.5ZM12 0.5C12.2229 0.5 12.4397 0.529716 12.6465 0.584961C12.9133 0.656272 13.0723 0.93049 13.001 1.19727C12.9295 1.4638 12.6553 1.62206 12.3887 1.55078C12.2653 1.51779 12.1351 1.5 12 1.5H11.5C11.2239 1.5 11 1.27614 11 1C11 0.723858 11.2239 0.5 11.5 0.5H12ZM9.5 0.5C9.77614 0.5 10 0.723858 10 1C10 1.27614 9.77614 1.5 9.5 1.5H8.5C8.22386 1.5 8 1.27614 8 1C8 0.723858 8.22386 0.5 8.5 0.5H9.5Z" fill="#444B54"/>
</svg>
