<svg width="64" height="64" viewBox="0 0 64 64" fill="none" xmlns="http://www.w3.org/2000/svg">
<g id="RocketDocument">
<g id="icons8-spaceship-launch-documentation">
<g id="Group">
<path id="Shape" d="M15.5596 7.17242V62.3448H56.1834C59.2109 62.3448 61.688 59.8621 61.688 56.8276L61.7431 12.6897C61.7981 6.62069 56.844 1.65517 50.7889 1.65517H21.0642C18.0366 1.65517 15.5596 4.13793 15.5596 7.17242Z" fill="white"/>
<path id="Shape_2" d="M20.2386 58.2621L21.1194 55.5035L22.2753 51.8069C25.1377 42.9241 22.4955 33.2138 15.5597 27.0345C8.62396 33.2138 5.98176 42.9241 8.7891 51.8069L9.5047 54.069" fill="white"/>
<path id="Shape_3" d="M20.2384 59.9172C20.0733 59.9172 19.9081 59.9172 19.743 59.8621C18.8623 59.5862 18.4219 58.6483 18.6971 57.7655L20.7338 51.3103C23.2109 43.531 21.1742 35.0896 15.5595 29.2965C9.94484 35.0896 7.90814 43.531 10.3852 51.3103L11.1008 53.5724C11.376 54.4552 10.8806 55.3931 10.0549 55.669C9.17419 55.9448 8.23841 55.4483 7.96318 54.6207L7.24759 52.3586C4.16502 42.8138 7.02741 32.4414 14.4586 25.8207C15.0641 25.269 15.9999 25.269 16.6604 25.8207C24.0916 32.4414 26.954 42.869 23.8714 52.3586L21.8347 58.7586C21.6146 59.4759 20.954 59.9172 20.2384 59.9172Z" fill="#71C2FF"/>
<path id="Shape_4" d="M15.5596 64C14.6238 64 13.9082 63.2828 13.9082 62.3448V53.5172C13.9082 52.5793 14.6238 51.8621 15.5596 51.8621C16.4954 51.8621 17.211 52.5793 17.211 53.5172V62.3448C17.211 63.2828 16.4954 64 15.5596 64Z" fill="#71C2FF"/>
<path id="Oval" d="M15.5597 41.931C16.7758 41.931 17.7616 40.943 17.7616 39.7241C17.7616 38.5053 16.7758 37.5172 15.5597 37.5172C14.3437 37.5172 13.3579 38.5053 13.3579 39.7241C13.3579 40.943 14.3437 41.931 15.5597 41.931Z" fill="#71C2FF"/>
<path id="Shape_5" d="M25.468 64C24.5322 64 23.8166 63.2828 23.8166 62.3448V58.5931L20.4588 55.2276C19.7982 54.5655 19.7982 53.5172 20.4588 52.9103C21.1193 52.2483 22.1652 52.2483 22.7707 52.9103L26.6239 56.7724C26.9542 57.1034 27.1193 57.4896 27.1193 57.931V62.3448C27.1193 63.2828 26.4037 64 25.468 64Z" fill="#71C2FF"/>
<path id="Shape_6" d="M5.65138 64C4.7156 64 4 63.2828 4 62.3448V57.931C4 57.4896 4.16514 57.0483 4.49541 56.7724L8.34862 52.9103C9.00917 52.2483 10.055 52.2483 10.6606 52.9103C11.3211 53.5724 11.3211 54.6207 10.6606 55.2276L7.30275 58.5931V62.3448C7.30275 63.2828 6.58716 64 5.65138 64Z" fill="#71C2FF"/>
</g>
<g id="Group_2">
<path id="Shape_7" d="M56.2385 64C60.2018 64 63.3945 60.8 63.3945 56.8276L63.4495 19.8621C63.4495 18.9241 62.7339 18.2069 61.7982 18.2069C60.8624 18.2069 60.1468 18.9241 60.1468 19.8621L60.0917 56.8276C60.0917 58.9793 58.3853 60.6897 56.2385 60.6897H36.4771C35.5413 60.6897 34.8257 61.4069 34.8257 62.3448C34.8257 63.2828 35.5413 64 36.4771 64H56.2385Z" fill="#444B54"/>
<path id="Shape_8" d="M50.7871 0C54.1993 0 57.3379 1.3238 59.7598 3.69531C62.0716 6.06768 63.3961 9.15848 63.4512 12.4688C63.4512 12.5791 63.4508 12.6362 63.5059 12.6914C63.5056 12.9115 63.4477 13.1315 63.3379 13.3516C63.0627 13.9029 62.4589 14.3434 61.7988 14.3438H56.2949C52.3316 14.3438 49.1387 11.1443 49.1387 7.17188V3.30859H21.0645C18.9178 3.30859 17.2132 5.0204 17.2129 7.17188V18.7578C17.2129 19.6954 16.4959 20.4136 15.5605 20.4141C14.6248 20.4141 13.9082 19.6957 13.9082 18.7578V7.17188C13.9085 3.19971 17.1013 0 21.0645 0H50.7871ZM52.4395 7.17188C52.4395 9.3236 54.1481 11.0352 56.2949 11.0352H59.9824C59.6521 9.15929 58.7687 7.44962 57.3926 6.07031C56.0165 4.69115 54.3109 3.80758 52.4395 3.47656V7.17188Z" fill="#444B54"/>
</g>
</g>
</g>
</svg>
