<svg width="24" height="24" viewBox="0 0 24 24" fill="none" xmlns="http://www.w3.org/2000/svg">
<g id="Sick">
<g id="icons8-angry">
<g id="Group">
<path id="Oval" d="M11.9665 23.5814C18.3227 23.5814 23.4753 18.4287 23.4753 12.0726C23.4753 5.71642 18.3227 0.563736 11.9665 0.563736C5.61035 0.563736 0.457672 5.71642 0.457672 12.0726C0.457672 18.4287 5.61035 23.5814 11.9665 23.5814Z" fill="#FDFCEE"/>
<path id="Shape" d="M11.9665 0.173035C18.528 0.173035 23.8654 5.5105 23.8654 12.072C23.8654 18.6334 18.528 23.9724 11.9665 23.9724C5.40503 23.9723 0.0675659 18.6334 0.0675659 12.072C0.0678964 5.51077 5.40523 0.173062 11.9665 0.173035ZM11.9665 0.953796C5.83649 0.953824 0.848355 5.94195 0.848328 12.072C0.848328 18.2025 5.83647 23.1901 11.9665 23.1901C18.0971 23.1901 23.0847 18.2026 23.0847 12.072C23.0846 5.94194 18.0971 0.953796 11.9665 0.953796Z" fill="#515151"/>
</g>
<g id="Group_2">
<g id="Group_3">
<path id="Oval_2" d="M11.9666 21.59C17.2229 21.59 21.484 17.3289 21.484 12.0726C21.484 6.81627 17.2229 2.55519 11.9666 2.55519C6.7103 2.55519 2.44922 6.81627 2.44922 12.0726C2.44922 17.3289 6.7103 21.59 11.9666 21.59Z" fill="#FFDDA7"/>
<path id="Shape_2" d="M11.9671 2.33137C17.3379 2.33167 21.7083 6.70179 21.7083 12.0726C21.708 17.4431 17.3377 21.8135 11.9671 21.8138C6.59634 21.8138 2.22623 17.4433 2.22592 12.0726C2.22592 6.7016 6.59616 2.33137 11.9671 2.33137ZM11.9671 2.77814C6.8423 2.77814 2.6727 6.9483 2.6727 12.0726C2.673 17.1977 6.84304 21.3655 11.9671 21.3655C17.0921 21.3652 21.2598 17.197 21.2601 12.0726C21.2601 6.94849 17.0923 2.77845 11.9671 2.77814Z" fill="#472B29"/>
</g>
<path id="Shape_3" d="M11.9789 4.02643C16.2274 4.02643 19.8352 6.79704 21.1999 10.6666C20.4391 6.15071 16.6053 2.71257 11.9789 2.71257C7.35245 2.71257 3.51859 6.15071 2.75784 10.6666C4.12249 6.79759 7.73031 4.02643 11.9789 4.02643Z" fill="#FBBF5C"/>
</g>
<g id="Group_4">
<path id="Rectangle-path" d="M9.23776 16.4741H14.5747V17.2241H9.23776V16.4741Z" fill="#684933"/>
<path id="Shape_4" d="M14.7144 17.3321H9.09824V16.3345H14.7144V17.3321ZM9.37802 17.0538H14.4347V16.6143H9.37802V17.0538Z" fill="#472B29"/>
</g>
<g id="Group_5">
<g id="Group_6">
<path id="Shape_5" d="M17.9889 13.2368C17.9443 13.3881 17.7774 13.4657 17.6317 13.421L14.947 12.6006C14.7958 12.5559 14.7238 12.3996 14.7238 12.2545V12.1206C14.7238 11.9755 14.7963 11.8192 14.947 11.7745L17.6484 10.9541C17.7991 10.9094 17.9554 10.9875 18.0001 11.1382C18.0447 11.2834 17.961 11.4396 17.8097 11.4843L15.5331 12.1875L17.8097 12.8908C17.9554 12.9355 18.0336 13.0917 17.9889 13.2368Z" fill="#684933"/>
<path id="Shape_6" fill-rule="evenodd" clip-rule="evenodd" d="M17.6077 10.8213C17.7135 10.7885 17.8289 10.7981 17.927 10.8491C18.0279 10.901 18.1017 10.9895 18.1336 11.0982C18.1659 11.203 18.1543 11.3155 18.1013 11.4131C18.0478 11.5125 17.9588 11.5864 17.8494 11.6182L16.0052 12.188L17.8509 12.7578C18.0672 12.8242 18.1884 13.0561 18.1219 13.2764C18.0907 13.3811 18.0191 13.4685 17.9212 13.521C17.8587 13.555 17.7869 13.5737 17.7161 13.5738C17.6738 13.5738 17.6322 13.5669 17.5916 13.5547L14.9065 12.7344C14.6849 12.6691 14.5843 12.4448 14.5843 12.2539V12.1206C14.5845 11.9293 14.685 11.7074 14.908 11.6416L17.6077 10.8213ZM17.6883 11.0879L14.9871 11.9082C14.9017 11.9341 14.8642 12.0339 14.864 12.1206V12.2539C14.864 12.3416 14.9017 12.4412 14.9871 12.4663L17.6721 13.2881C17.7107 13.2998 17.7536 13.2965 17.7893 13.2764C17.8221 13.2591 17.8458 13.2307 17.8553 13.1973L17.8611 13.1431C17.8597 13.1249 17.8552 13.1067 17.8465 13.0904C17.8304 13.0582 17.8026 13.036 17.7688 13.0259L15.0603 12.188L17.7674 11.3516C17.8063 11.3399 17.8374 11.316 17.8553 11.2827C17.8725 11.2505 17.8754 11.2147 17.8655 11.1802C17.8521 11.1339 17.8225 11.1093 17.7996 11.0982C17.7801 11.087 17.7565 11.0821 17.7337 11.0821C17.7188 11.0821 17.7031 11.0835 17.6883 11.0879Z" fill="#472B29"/>
</g>
<g id="Group_7">
<path id="Shape_7" d="M5.81703 11.1382C5.86168 10.987 6.02912 10.9094 6.17424 10.9541L8.88903 11.7745C9.03973 11.8192 9.14243 11.9755 9.14243 12.1206V12.2545C9.14243 12.3996 9.03973 12.5559 8.88903 12.6006L6.17257 13.421C6.02187 13.4657 5.85833 13.3875 5.81312 13.2369C5.76847 13.0917 5.84829 12.9355 5.99898 12.8908L8.27396 12.1875L5.99564 11.4843C5.85108 11.4396 5.77182 11.2834 5.81703 11.1382Z" fill="#684933"/>
<path id="Shape_8" fill-rule="evenodd" clip-rule="evenodd" d="M6.21436 10.8214L8.92872 11.6417C9.12896 11.7008 9.28155 11.9071 9.28175 12.1207V12.254C9.28175 12.4683 9.13021 12.6753 8.92872 12.7345L6.2129 13.5548C6.17104 13.5671 6.12822 13.5738 6.08692 13.5738C5.90287 13.5737 5.73331 13.4575 5.67969 13.2779C5.64676 13.1713 5.6589 13.0568 5.71192 12.9586C5.76436 12.8607 5.85207 12.7892 5.95948 12.7579L7.80225 12.1881L5.95509 11.6183C5.85082 11.5859 5.76475 11.5145 5.71339 11.4176C5.66148 11.3188 5.65117 11.2054 5.68409 11.0982C5.71583 10.9941 5.78598 10.9076 5.88331 10.8551C5.98474 10.8005 6.10565 10.7886 6.21436 10.8214ZM6.01661 11.0997C5.9938 11.1114 5.96305 11.1346 5.95069 11.1773V11.1803C5.93976 11.2158 5.94323 11.2536 5.96094 11.2857C5.97707 11.3174 6.00434 11.3406 6.03712 11.3502L8.74708 12.1881L6.04151 13.0245C6.00412 13.0357 5.97329 13.0592 5.95655 13.0904C5.93948 13.1232 5.93721 13.1604 5.94776 13.1959C5.97029 13.2697 6.05339 13.3087 6.13233 13.2867L8.84815 12.4664C8.94336 12.438 9.00313 12.3343 9.00343 12.254V12.1207C9.00343 12.0404 8.94445 11.9353 8.84962 11.9068L6.1338 11.0865C6.11937 11.0832 6.10427 11.0807 6.08985 11.0807C6.06431 11.0807 6.03939 11.0875 6.01661 11.0997Z" fill="#472B29"/>
</g>
</g>
</g>
</g>
</svg>
