<svg width="17" height="17" viewBox="0 0 17 17" fill="none" xmlns="http://www.w3.org/2000/svg">
<path d="M7.99998 0.68749C3.94989 0.68749 0.666646 3.97074 0.666646 8.02082C0.666646 12.0709 3.94989 15.3542 7.99998 15.3542C12.0501 15.3542 15.3333 12.0709 15.3333 8.02082C15.3333 3.97074 12.0501 0.68749 7.99998 0.68749Z" fill="white"/>
<path d="M7.99998 2.06249C4.70928 2.06249 2.04165 4.73013 2.04165 8.02082C2.04165 11.3115 4.70928 13.9792 7.99998 13.9792C11.2907 13.9792 13.9583 11.3115 13.9583 8.02082C13.9583 4.73013 11.2907 2.06249 7.99998 2.06249Z" fill="#F8B24C"/>
<path d="M1.08358 5.5773C2.09008 2.7286 4.80662 0.68749 7.99998 0.68749C12.0501 0.68749 15.3333 3.97068 15.3333 8.02082C15.3333 12.071 12.0501 15.3542 7.99998 15.3542C4.80692 15.3542 2.09069 13.3135 1.08388 10.4653" stroke="#444B54" stroke-width="1.375" stroke-linecap="round"/>
<path d="M3.26385 10.1597L0.819411 8.02081L3.26385 5.88192" stroke="#444B54" stroke-width="1.375" stroke-linecap="round" stroke-linejoin="round"/>
<path d="M0.972222 8.02081H8" stroke="#444B54" stroke-width="1.375" stroke-linecap="round" stroke-linejoin="round"/>
</svg>
