<svg width="16" height="16" viewBox="0 0 16 16" fill="none" xmlns="http://www.w3.org/2000/svg">
<path d="M8.13328 15.4667C4.08319 15.4667 0.799948 12.1834 0.799948 8.13332C0.799948 4.08323 4.08319 0.799988 8.13328 0.799988C12.1834 0.799988 15.4666 4.08323 15.4666 8.13332C15.4666 12.1834 12.1834 15.4667 8.13328 15.4667Z" fill="white"/>
<path d="M8.13328 14.0917C4.84259 14.0917 2.17495 11.424 2.17495 8.13332C2.17495 4.84262 4.84259 2.17499 8.13328 2.17499C11.424 2.17499 14.0916 4.84262 14.0916 8.13332C14.0916 11.424 11.424 14.0917 8.13328 14.0917Z" fill="#FAC87F"/>
<path fill-rule="evenodd" clip-rule="evenodd" d="M8.13331 1.07499C12.0316 1.07499 15.1916 4.23507 15.1916 8.13333C15.1916 12.0316 12.0316 15.1917 8.13331 15.1917C5.06013 15.1917 2.44508 13.2275 1.47619 10.4852C1.4256 10.342 1.26849 10.267 1.12529 10.3176C0.982087 10.3682 0.907016 10.5253 0.957612 10.6685C2.00172 13.6236 4.81976 15.7417 8.13331 15.7417C12.3353 15.7417 15.7416 12.3353 15.7416 8.13333C15.7416 3.93131 12.3353 0.524994 8.13331 0.524994C4.82008 0.524994 2.00236 2.64257 0.95793 5.59723C0.907313 5.74043 0.982362 5.89754 1.12556 5.94816C1.26875 5.99878 1.42587 5.92373 1.47649 5.78053C2.44567 3.03872 5.06042 1.07499 8.13331 1.07499Z" fill="#444B54"/>
<path fill-rule="evenodd" clip-rule="evenodd" d="M3.69821 5.73102C3.55273 5.56477 3.30003 5.54792 3.13377 5.6934L0.689328 7.83228C0.602523 7.90824 0.552731 8.01797 0.552731 8.13332C0.552731 8.24866 0.602523 8.35839 0.689328 8.43435L3.13377 10.5732C3.30003 10.7187 3.55273 10.7019 3.69821 10.5356C3.84368 10.3694 3.82683 10.1166 3.66058 9.97117L1.56017 8.13332L3.66058 6.29546C3.82683 6.14998 3.84368 5.89728 3.69821 5.73102Z" fill="#444B54"/>
<path fill-rule="evenodd" clip-rule="evenodd" d="M8.53326 8.13334C8.53326 7.91242 8.35418 7.73334 8.13326 7.73334L1.10549 7.73334C0.884573 7.73334 0.705486 7.91242 0.705486 8.13334C0.705486 8.35425 0.884573 8.53334 1.10549 8.53334L8.13326 8.53334C8.35418 8.53334 8.53326 8.35425 8.53326 8.13334Z" fill="#444B54"/>
</svg>
