<svg width="16" height="16" viewBox="0 0 16 16" fill="none" xmlns="http://www.w3.org/2000/svg">
<path d="M8.13336 15.4667C12.1834 15.4667 15.4667 12.1834 15.4667 8.13333C15.4667 4.08324 12.1834 0.799994 8.13336 0.799994C4.08327 0.799994 0.800024 4.08324 0.800024 8.13333C0.800024 12.1834 4.08327 15.4667 8.13336 15.4667Z" fill="white"/>
<path d="M8.13336 14.0917C11.4241 14.0917 14.0917 11.424 14.0917 8.13333C14.0917 4.84263 11.4241 2.17499 8.13336 2.17499C4.84266 2.17499 2.17502 4.84263 2.17502 8.13333C2.17502 11.424 4.84266 14.0917 8.13336 14.0917Z" fill="#7BCAC5"/>
<path fill-rule="evenodd" clip-rule="evenodd" d="M8.13336 1.07499C4.2351 1.07499 1.07502 4.23507 1.07502 8.13333C1.07502 12.0316 4.2351 15.1917 8.13336 15.1917C11.2065 15.1917 13.8216 13.2275 14.7905 10.4852C14.8411 10.342 14.9982 10.267 15.1414 10.3176C15.2846 10.3682 15.3596 10.5253 15.3091 10.6685C14.2649 13.6236 11.4469 15.7417 8.13336 15.7417C3.93134 15.7417 0.525024 12.3353 0.525024 8.13333C0.525024 3.93131 3.93134 0.524994 8.13336 0.524994C11.4466 0.524994 14.2643 2.64257 15.3087 5.59723C15.3593 5.74043 15.2843 5.89754 15.1411 5.94816C14.9979 5.99878 14.8408 5.92373 14.7902 5.78053C13.821 3.03872 11.2062 1.07499 8.13336 1.07499Z" fill="#444B54"/>
<path fill-rule="evenodd" clip-rule="evenodd" d="M12.5684 5.73104C12.7139 5.56478 12.9666 5.54794 13.1329 5.69341L15.5773 7.8323C15.6641 7.90825 15.7139 8.01798 15.7139 8.13333C15.7139 8.24867 15.6641 8.3584 15.5773 8.43436L13.1329 10.5732C12.9666 10.7187 12.7139 10.7019 12.5684 10.5356C12.423 10.3694 12.4398 10.1167 12.6061 9.97119L14.7065 8.13333L12.6061 6.29547C12.4398 6.15 12.423 5.89729 12.5684 5.73104Z" fill="#444B54"/>
<path fill-rule="evenodd" clip-rule="evenodd" d="M7.73337 8.13332C7.73337 7.91241 7.91245 7.73332 8.13337 7.73332H14.2493L14.7065 8.13333L14.2493 8.53332H8.13337C7.91245 8.53332 7.73337 8.35424 7.73337 8.13332Z" fill="#444B54"/>
</svg>
