<svg width="17" height="17" viewBox="0 0 17 17" fill="none" xmlns="http://www.w3.org/2000/svg">
<path d="M8.02085 15.3542C3.97077 15.3542 0.68752 12.0709 0.68752 8.02083C0.68752 3.97075 3.97077 0.6875 8.02085 0.6875C12.0709 0.6875 15.3542 3.97075 15.3542 8.02083C15.3542 12.0709 12.0709 15.3542 8.02085 15.3542Z" fill="white"/>
<path d="M8.02085 13.9792C4.73016 13.9792 2.06252 11.3115 2.06252 8.02083C2.06252 4.73014 4.73016 2.0625 8.02085 2.0625C11.3116 2.0625 13.9792 4.73014 13.9792 8.02083C13.9792 11.3115 11.3116 13.9792 8.02085 13.9792Z" fill="#79C8A6"/>
<path d="M1.10445 10.4644C2.11095 13.3131 4.82749 15.3542 8.02085 15.3542C12.071 15.3542 15.3542 12.071 15.3542 8.02083C15.3542 3.97069 12.071 0.6875 8.02085 0.6875C4.8278 0.6875 2.11156 2.72815 1.10476 5.57639" stroke="#444B54" stroke-width="1.375" stroke-linecap="round"/>
<path d="M5.42358 10.1597L7.86803 8.02084L5.42358 5.88195" stroke="#444B54" stroke-width="1.375" stroke-linecap="round" stroke-linejoin="round"/>
<path d="M7.71528 8.02084H0.6875" stroke="#444B54" stroke-width="1.375" stroke-linecap="round" stroke-linejoin="round"/>
</svg>
