<svg width="16" height="16" viewBox="0 0 16 16" fill="none" xmlns="http://www.w3.org/2000/svg">
<path d="M7.31659 3.43867L3.54572 8.23992H6.98719C7.25759 8.23992 7.47883 8.46521 7.47883 8.74057V9.24122C7.47883 9.51658 7.25759 9.74188 6.98719 9.74188H2.0708C1.8004 9.74188 1.57916 9.51658 1.57916 9.24122V8.50276C1.57916 8.33254 1.6357 8.16733 1.7414 8.03465L5.51227 3.2334H2.0708C1.8004 3.2334 1.57916 3.00811 1.57916 2.73275V2.2321C1.57916 1.95674 1.8004 1.73145 2.0708 1.73145H6.98719C7.25759 1.73145 7.47883 1.95674 7.47883 2.2321V2.97056C7.47883 3.06068 7.46162 3.15079 7.43212 3.2334C7.40508 3.3085 7.36575 3.37609 7.31659 3.43867Z" fill="#85CBF8"/>
<path d="M13.3785 6.73795H9.44537C9.17374 6.73795 8.95374 6.96199 8.95374 7.2386V7.73925C8.95374 8.01586 9.17374 8.2399 9.44537 8.2399H11.9036L9.13122 11.5334C9.01667 11.6696 8.95374 11.8431 8.95374 12.0223V12.7458C8.95374 13.0224 9.17374 13.2464 9.44537 13.2464H13.3785C13.6501 13.2464 13.8701 13.0224 13.8701 12.7458V12.2451C13.8701 11.9685 13.6501 11.7445 13.3785 11.7445H10.9203L13.6926 8.45093C13.8072 8.31475 13.8701 8.14127 13.8701 7.96204V7.2386C13.8701 6.96199 13.6501 6.73795 13.3785 6.73795Z" fill="#85CBF8"/>
<path d="M4.28317 12.2451H6.24973L4.16346 14.6057C4.08234 14.6976 4.03735 14.8167 4.03735 14.9404V15.4993C4.03735 15.6375 4.14748 15.7497 4.28317 15.7497H7.23301C7.3687 15.7497 7.47883 15.6375 7.47883 15.4993V14.9987C7.47883 14.8605 7.3687 14.7484 7.23301 14.7484H5.26645L7.35272 12.3878C7.43384 12.2959 7.47883 12.1768 7.47883 12.0531V11.4941C7.47883 11.356 7.3687 11.2438 7.23301 11.2438H4.28317C4.14748 11.2438 4.03735 11.356 4.03735 11.4941V11.9948C4.03735 12.133 4.14748 12.2451 4.28317 12.2451Z" fill="#85CBF8"/>
<path d="M6.74137 1.73145C6.74137 2.56103 6.0811 3.2334 5.26645 3.2334H1.57916V1.73145H6.74137Z" fill="#9FDDFF"/>
<path d="M7.4788 9.74185H4.77478C3.96014 9.74185 3.29987 9.06948 3.29987 8.2399H7.4788V9.74185Z" fill="#7BBEEB"/>
<path d="M11.9036 8.2399H9.44537C9.17374 8.2399 8.95374 8.01586 8.95374 7.73925V7.2386C8.95374 6.96199 9.17374 6.73795 9.44537 6.73795H13.3785C13.3785 7.56753 12.7182 8.2399 11.9036 8.2399Z" fill="#9FDDFF"/>
<path d="M13.3785 13.2464H12.1494C11.3347 13.2464 10.6744 12.5741 10.6744 11.7445H13.3785C13.6501 11.7445 13.8701 11.9685 13.8701 12.2451V12.7458C13.8701 13.0224 13.6501 13.2464 13.3785 13.2464Z" fill="#7BBEEB"/>
<path d="M6.24973 12.2451H4.03735V11.2438H7.23301C7.23301 11.7968 6.79274 12.2451 6.24973 12.2451Z" fill="#9FDDFF"/>
<path d="M7.47882 15.7497H6.00391C5.46089 15.7497 5.02063 15.3014 5.02063 14.7484H7.47882V15.7497Z" fill="#7BBEEB"/>
</svg>
