<svg width="16" height="17" viewBox="0 0 16 17" fill="none" xmlns="http://www.w3.org/2000/svg">
<path d="M7.31659 3.7848L3.54572 8.58605H6.98719C7.25759 8.58605 7.47883 8.81134 7.47883 9.0867V9.58735C7.47883 9.86271 7.25759 10.088 6.98719 10.088H2.0708C1.8004 10.088 1.57916 9.86271 1.57916 9.58735V8.84889C1.57916 8.67867 1.6357 8.51346 1.7414 8.38078L5.51227 3.57953H2.0708C1.8004 3.57953 1.57916 3.35424 1.57916 3.07888V2.57823C1.57916 2.30287 1.8004 2.07758 2.0708 2.07758H6.98719C7.25759 2.07758 7.47883 2.30287 7.47883 2.57823V3.31669C7.47883 3.40681 7.46162 3.49692 7.43212 3.57953C7.40508 3.65463 7.36575 3.72222 7.31659 3.7848Z" fill="#85CBF8"/>
<path d="M13.3785 7.08408H9.44537C9.17374 7.08408 8.95374 7.30812 8.95374 7.58473V8.08538C8.95374 8.36199 9.17374 8.58603 9.44537 8.58603H11.9036L9.13122 11.8796C9.01667 12.0157 8.95374 12.1892 8.95374 12.3685V13.0919C8.95374 13.3685 9.17374 13.5926 9.44537 13.5926H13.3785C13.6501 13.5926 13.8701 13.3685 13.8701 13.0919V12.5912C13.8701 12.3146 13.6501 12.0906 13.3785 12.0906H10.9203L13.6926 8.79706C13.8072 8.66088 13.8701 8.4874 13.8701 8.30817V7.58473C13.8701 7.30812 13.6501 7.08408 13.3785 7.08408Z" fill="#85CBF8"/>
<path d="M4.28317 12.5912H6.24973L4.16346 14.9518C4.08234 15.0437 4.03735 15.1628 4.03735 15.2865V15.8455C4.03735 15.9837 4.14748 16.0958 4.28317 16.0958H7.23301C7.3687 16.0958 7.47883 15.9837 7.47883 15.8455V15.3448C7.47883 15.2066 7.3687 15.0945 7.23301 15.0945H5.26645L7.35272 12.7339C7.43384 12.6421 7.47883 12.5229 7.47883 12.3992V11.8403C7.47883 11.7021 7.3687 11.5899 7.23301 11.5899H4.28317C4.14748 11.5899 4.03735 11.7021 4.03735 11.8403V12.3409C4.03735 12.4791 4.14748 12.5912 4.28317 12.5912Z" fill="#85CBF8"/>
<path d="M6.74137 2.07758C6.74137 2.90716 6.0811 3.57953 5.26645 3.57953H1.57916V2.07758H6.74137Z" fill="#9FDDFF"/>
<path d="M7.4788 10.088H4.77478C3.96014 10.088 3.29987 9.41561 3.29987 8.58603H7.4788V10.088Z" fill="#7BBEEB"/>
<path d="M11.9036 8.58603H9.44537C9.17374 8.58603 8.95374 8.36199 8.95374 8.08538V7.58473C8.95374 7.30812 9.17374 7.08408 9.44537 7.08408H13.3785C13.3785 7.91366 12.7182 8.58603 11.9036 8.58603Z" fill="#9FDDFF"/>
<path d="M13.3785 13.5926H12.1494C11.3347 13.5926 10.6744 12.9202 10.6744 12.0906H13.3785C13.6501 12.0906 13.8701 12.3146 13.8701 12.5913V13.0919C13.8701 13.3685 13.6501 13.5926 13.3785 13.5926Z" fill="#7BBEEB"/>
<path d="M6.24973 12.5912H4.03735V11.5899H7.23301C7.23301 12.1429 6.79274 12.5912 6.24973 12.5912Z" fill="#9FDDFF"/>
<path d="M7.47882 16.0958H6.00391C5.46089 16.0958 5.02063 15.6475 5.02063 15.0945H7.47882V16.0958Z" fill="#7BBEEB"/>
<path d="M11.6812 7.73075C13.6982 7.73075 15.3333 6.07764 15.3333 4.03844C15.3333 1.99923 13.6982 0.34613 11.6812 0.34613C9.66413 0.34613 8.02899 1.99923 8.02899 4.03844C8.02899 6.07764 9.66413 7.73075 11.6812 7.73075Z" fill="white"/>
<path d="M11.6811 7.03845C13.32 7.03845 14.6485 5.69531 14.6485 4.03845C14.6485 2.3816 13.32 1.03845 11.6811 1.03845C10.0423 1.03845 8.71375 2.3816 8.71375 4.03845C8.71375 5.69531 10.0423 7.03845 11.6811 7.03845Z" fill="#8CCFB9"/>
<path fill-rule="evenodd" clip-rule="evenodd" d="M11.6812 7.73075C13.6982 7.73075 15.3333 6.07764 15.3333 4.03844C15.3333 1.99923 13.6982 0.34613 11.6812 0.34613C9.66413 0.34613 8.02899 1.99923 8.02899 4.03844C8.02899 6.07764 9.66413 7.73075 11.6812 7.73075Z" stroke="#515151" stroke-width="0.692308"/>
<path d="M10.0073 4.42304L11.0382 5.34612L13.3551 2.65381" stroke="white" stroke-width="0.692308" stroke-linecap="round"/>
</svg>
