<svg width="16" height="16" viewBox="0 0 16 16" fill="none" xmlns="http://www.w3.org/2000/svg">
<path d="M7.70912 0.436371C8.26184 1.26546 9.39639 1.4691 10.1964 0.872734C10.4291 1.84728 11.4328 2.4291 12.3782 2.13819C12.2618 3.12728 13.0037 4.01455 14.0073 4.07273C13.5564 4.96001 13.9491 6.05092 14.8655 6.44364C14.1382 7.12728 14.1382 8.29092 14.8655 8.97455C13.9491 9.36728 13.5564 10.4582 14.0073 11.3455C13.0037 11.4036 12.2618 12.2909 12.3782 13.28C11.4182 12.9891 10.4146 13.5709 10.1964 14.5455C9.39639 13.9491 8.26184 14.1527 7.70912 14.9818C7.15639 14.1527 6.02184 13.9491 5.22184 14.5455L5.17821 14.3709C4.98912 13.5709 4.07275 13.1927 3.37457 13.6291L1.57094 14.7346L2.40003 13.0909C2.79275 12.32 2.26912 11.3891 1.39639 11.3455C1.8473 10.4582 1.45457 9.36728 0.538208 8.97455C1.26548 8.29092 1.26548 7.12728 0.538208 6.44364C1.45457 6.05092 1.8473 4.96001 1.39639 4.07273C2.31275 4.01455 2.92366 3.09819 2.60366 2.24001L2.29821 1.41092L3.24366 1.89092C4.02912 2.28364 4.98912 1.84728 5.19275 0.989098L5.22184 0.872734C6.02184 1.4691 7.15639 1.26546 7.70912 0.436371Z" fill="#F9F6E4"/>
<path d="M7.70912 12C10.103 12 12.0437 10.0789 12.0437 7.70909C12.0437 5.33929 10.103 3.41818 7.70912 3.41818C5.31522 3.41818 3.37457 5.33929 3.37457 7.70909C3.37457 10.0789 5.31522 12 7.70912 12Z" fill="#F8E390"/>
<path d="M7.70908 3.41818C7.46181 3.41818 7.21454 3.43273 6.98181 3.47636C9.03272 3.82546 10.5891 5.58546 10.5891 7.70909C10.5891 9.83273 9.03272 11.5927 6.98181 11.9418C7.21454 11.9855 7.46181 12 7.70908 12C10.0945 12 12.0436 10.08 12.0436 7.70909C12.0436 5.33818 10.0945 3.41818 7.70908 3.41818Z" fill="#FAA93C"/>
<path d="M4.95998 6.99637C4.84362 6.99637 4.72726 6.95273 4.65453 6.86546C4.5818 6.77819 4.52362 6.67637 4.52362 6.56001C4.52362 6.44364 4.56726 6.32728 4.65453 6.25455C4.81453 6.09455 5.10544 6.09455 5.26544 6.25455C5.35271 6.34182 5.39635 6.44364 5.39635 6.56001C5.39635 6.67637 5.35271 6.79273 5.26544 6.86546C5.17817 6.93819 5.07635 6.99637 4.95998 6.99637Z" fill="#FAA93C"/>
</svg>
