<svg width="16" height="16" viewBox="0 0 16 16" fill="none" xmlns="http://www.w3.org/2000/svg">
<path d="M3.90044 15.4615H9.82252C10.1844 15.4615 10.4805 15.1846 10.4805 14.8462V7.98461C10.4805 6.61538 9.29611 5.50769 7.83204 5.50769H5.89092C4.42685 5.50769 3.24243 6.61538 3.24243 7.98461V14.8308C3.24243 15.1846 3.53854 15.4615 3.90044 15.4615Z" fill="#FBBF5C"/>
<path d="M10.497 8.33847H7.86492C7.50301 8.33847 7.20691 8.61539 7.20691 8.95386V12.6923C7.20691 13.0308 7.50301 13.3077 7.86492 13.3077H10.497V8.33847Z" fill="white"/>
<path d="M7.84851 5.04617C9.57576 5.04619 10.9901 6.36928 10.9901 7.98465V14.8304C10.9901 15.4304 10.4637 15.9231 9.82214 15.9231H3.90027C3.25878 15.9231 2.7489 15.4305 2.7489 14.846V7.98465C2.7489 6.36939 4.16341 5.04637 5.8905 5.04617H7.84851ZM5.8905 5.96902C4.70626 5.96922 3.73621 6.87708 3.73621 7.98465V14.8304C3.73621 14.9226 3.81807 14.9846 3.90027 14.9846H9.82214C9.92085 14.9846 9.98718 14.9073 9.98718 14.8304V7.98465C9.98718 6.87696 9.01632 5.96902 7.83191 5.96902H5.8905Z" fill="#454B54"/>
<path d="M5.87444 0.538483H7.84847C8.21037 0.538483 8.50647 0.815406 8.50647 1.15387V4.26156H5.21643V1.15387C5.21643 0.815406 5.51253 0.538483 5.87444 0.538483Z" fill="white"/>
<path d="M7.84888 0.0769348C8.49023 0.0771575 9.00024 0.5696 9.00024 1.15408V4.26151C9.00024 4.52304 8.78576 4.73807 8.5061 4.73807H5.21606C4.93665 4.7379 4.72301 4.53847 4.7229 4.27713V1.15408C4.7229 0.554131 5.24922 0.0770101 5.87427 0.0769348H7.84888ZM5.87427 0.999786C5.77565 0.999863 5.71021 1.0772 5.71021 1.15408V3.81522H8.01294V1.15408C8.01294 1.06194 7.93098 1 7.84888 0.999786H5.87427Z" fill="#454B54"/>
<path d="M12.9316 2.23079H9.98698C9.70732 2.23079 9.49347 2.03079 9.49347 1.76925C9.49347 1.50771 9.70732 1.30771 9.98698 1.30771H12.9316C13.2112 1.30771 13.4251 1.50771 13.4251 1.76925C13.4251 2.03079 13.2112 2.23079 12.9316 2.23079Z" fill="#454B54"/>
<path d="M14.4285 2.53846H13.2606C12.8 2.53846 12.438 2.2 12.438 1.76923C12.438 1.33846 12.8 1 13.2606 1H14.4285C14.8891 1 15.251 1.33846 15.251 1.76923C15.251 2.2 14.8891 2.53846 14.4285 2.53846Z" fill="#454B54"/>
<path d="M4.88743 8.44616C4.60777 8.44616 4.39392 8.24616 4.39392 7.98463C4.39392 7.21539 5.06838 6.58463 5.89089 6.58463C6.17054 6.58463 6.3844 6.78463 6.3844 7.04616C6.3844 7.3077 6.17054 7.5077 5.89089 7.5077C5.61124 7.5077 5.38093 7.72309 5.38093 7.98463C5.38093 8.24616 5.15063 8.44616 4.88743 8.44616Z" fill="white" opacity="0.8"/>
</svg>
