<svg width="16" height="16" viewBox="0 0 16 16" fill="none" xmlns="http://www.w3.org/2000/svg">
<g id="Syringe">
<g id="icons8-syringe">
<g id="Group">
<g id="Group_2">
<path id="Shape" d="M3.10181 15.5088V13.0947C3.10181 12.6316 3.48075 12.2667 3.94391 12.2667H6.83514C7.2983 12.2667 7.67725 12.6456 7.67725 13.0947V15.5088" fill="white"/>
<path id="Shape_2" d="M5.38951 9.69824C5.74039 9.69824 6.03512 9.97894 6.03512 10.3439V12.2526H4.7439V10.3439C4.7439 9.99298 5.03863 9.69824 5.38951 9.69824Z" fill="white"/>
<path id="Shape_3" d="M5.38922 9.27719C5.97861 9.27719 6.45646 9.75424 6.4566 10.3436V12.2528C6.45652 12.4913 6.25924 12.6737 6.03473 12.6737H4.74371C4.50524 12.6736 4.32289 12.4913 4.32281 12.2528V10.3436C4.32296 9.75433 4.79995 9.27733 5.38922 9.27719ZM5.38922 10.119C5.26312 10.1191 5.16475 10.2175 5.16461 10.3436V11.8319H5.61383V10.3436C5.6137 10.2174 5.51545 10.119 5.38922 10.119Z" fill="#454B54"/>
<path id="Shape_4" d="M5.3895 10.1193C5.1509 10.1193 4.96844 9.93684 4.96844 9.69824V5.38947C4.96844 5.15087 5.1509 4.96841 5.3895 4.96841C5.62809 4.96841 5.81055 5.15087 5.81055 5.38947V9.69824C5.81055 9.93684 5.61406 10.1193 5.3895 10.1193Z" fill="#454B54"/>
<path id="Shape_5" d="M7.67722 15.9298C7.43862 15.9298 7.25616 15.7474 7.25616 15.5088V13.0947C7.25616 12.8702 7.07371 12.6877 6.83511 12.6877H3.94388C3.70529 12.6877 3.52283 12.8702 3.52283 13.0947V15.5088C3.52283 15.7474 3.34037 15.9298 3.10178 15.9298C2.86318 15.9298 2.68073 15.7474 2.68073 15.5088V13.0947C2.68073 12.407 3.24213 11.8456 3.94388 11.8456H6.83511C7.53687 11.8456 8.09827 12.407 8.09827 13.0947V15.5088C8.09827 15.7474 7.90178 15.9298 7.67722 15.9298Z" fill="#454B54"/>
</g>
<path id="Shape_6" fill-rule="evenodd" clip-rule="evenodd" d="M12.0417 4.35115C12.2803 4.35115 12.4636 4.53345 12.4636 4.77205V4.85603C12.4636 5.08059 12.2662 5.27693 12.0417 5.27693C11.8033 5.2767 11.6208 5.09448 11.6208 4.85603V4.77205C11.6208 4.5336 11.8033 4.35137 12.0417 4.35115ZM5.43134 3.08748C5.66984 3.10151 5.83878 3.29822 5.82489 3.53669V3.71931C5.81086 3.95791 5.61391 4.14021 5.38934 4.14021C5.15082 4.14013 4.96845 3.95786 4.96845 3.71931C4.96845 3.63523 4.96813 3.56509 4.98212 3.48103C4.99615 3.24253 5.19287 3.07359 5.43134 3.08748ZM11.8181 2.47029C12.0425 2.41443 12.2665 2.5408 12.3366 2.76521C12.3506 2.83534 12.3792 2.91936 12.3932 3.00349C12.4354 3.22805 12.2946 3.4526 12.07 3.4947C12.0282 3.49474 12.0002 3.50922 11.9724 3.50935C11.776 3.50935 11.6074 3.36871 11.5651 3.17244C11.5511 3.11637 11.5371 3.05986 11.5231 2.98982C11.467 2.76526 11.5935 2.54046 11.8181 2.47029ZM5.71259 1.50154C5.8529 1.31951 6.11912 1.27735 6.30145 1.43123C6.48391 1.57158 6.52615 1.83861 6.37177 2.02107C6.32969 2.06317 6.30155 2.11925 6.25946 2.17537C6.20332 2.28765 6.0629 2.35798 5.92255 2.35798C5.83843 2.35792 5.75436 2.32973 5.68427 2.28767C5.48792 2.16141 5.44591 1.89525 5.57196 1.6988C5.61407 1.62863 5.65645 1.57171 5.71259 1.50154ZM10.611 1.02498C10.7654 0.856614 11.0315 0.828618 11.1999 0.982984C11.256 1.03908 11.3127 1.09486 11.3688 1.15095C11.5371 1.31937 11.5372 1.58646 11.3688 1.7408C11.2987 1.825 11.1858 1.86677 11.0876 1.86677C10.9754 1.86673 10.8768 1.82497 10.7927 1.7408C10.7506 1.69871 10.7091 1.65593 10.653 1.61384C10.4846 1.45946 10.4566 1.1934 10.611 1.02498ZM7.4245 0.280835C7.64903 0.21067 7.88749 0.322938 7.9577 0.547437C8.02788 0.771998 7.91566 1.01046 7.6911 1.08064C7.63508 1.09466 7.57915 1.12294 7.52313 1.15095C7.48113 1.15095 7.42485 1.16456 7.36884 1.16462C7.20048 1.16462 7.04549 1.06696 6.97528 0.912671C6.89108 0.702161 6.9894 0.449049 7.19989 0.36482C7.27004 0.336759 7.34033 0.308896 7.4245 0.280835ZM9.27704 0.0982181C9.36125 0.112253 9.43209 0.126175 9.5163 0.14021C9.74055 0.182503 9.8945 0.407078 9.83856 0.631421C9.81049 0.841948 9.62783 0.982984 9.43134 0.982984C9.40335 0.982984 9.37533 0.982326 9.34735 0.968335C9.29122 0.954307 9.22085 0.940015 9.16473 0.940015C8.94034 0.911824 8.7725 0.701903 8.80048 0.463452C8.82854 0.238951 9.03852 0.0702601 9.27704 0.0982181Z" fill="#454B54"/>
</g>
<path id="Shape_7" d="M11.1579 9.72632C11.6492 10.2175 12.4492 10.2175 12.9404 9.72632C13.4316 9.23509 13.3053 8.53334 12.9404 7.9579C12.379 7.08772 12.0562 6.58246 12.0562 6.58246C12.0562 6.58246 11.6772 7.17193 11.172 7.9579C10.6948 8.65965 10.6667 9.23509 11.1579 9.72632Z" fill="#98BED8"/>
</g>
</g>
</svg>
