<svg width="16" height="16" viewBox="0 0 16 16" fill="none" xmlns="http://www.w3.org/2000/svg">
<path fill-rule="evenodd" clip-rule="evenodd" d="M8.50002 0.45282C7.34724 0.45282 6.41669 1.46414 6.41669 2.71697V10.717C6.41669 11.6981 7.00002 12.5434 7.80558 12.8453V14.7924C7.80558 15.2151 8.11113 15.5472 8.50002 15.5472C8.88891 15.5472 9.19446 15.2151 9.19446 14.7924V12.8453C10 12.5283 10.5834 11.6981 10.5834 10.717V2.71697C10.5834 1.46414 9.6528 0.45282 8.50002 0.45282Z" fill="white"/>
<path fill-rule="evenodd" clip-rule="evenodd" d="M7.06945 6.68679H6.5139C6.27778 6.68679 6.09723 6.49056 6.09723 6.23396C6.09723 5.97735 6.27778 5.78113 6.5139 5.78113H7.06945C7.30556 5.78113 7.48612 5.97735 7.48612 6.23396C7.48612 6.49056 7.29167 6.68679 7.06945 6.68679Z" fill="#454B54"/>
<path fill-rule="evenodd" clip-rule="evenodd" d="M7.06945 8.49813H6.5139C6.27778 8.49813 6.09723 8.3019 6.09723 8.0453C6.09723 7.78869 6.27778 7.59247 6.5139 7.59247H7.06945C7.30556 7.59247 7.48612 7.78869 7.48612 8.0453C7.48612 8.3019 7.29167 8.49813 7.06945 8.49813Z" fill="#454B54"/>
<path fill-rule="evenodd" clip-rule="evenodd" d="M7.06945 4.87548H6.5139C6.27778 4.87548 6.09723 4.67925 6.09723 4.42265C6.09723 4.16604 6.27778 3.96982 6.5139 3.96982H7.06945C7.30556 3.96982 7.48612 4.16604 7.48612 4.42265C7.48612 4.67925 7.29167 4.87548 7.06945 4.87548Z" fill="#454B54"/>
<path fill-rule="evenodd" clip-rule="evenodd" d="M7.06945 10.3094H6.5139C6.27778 10.3094 6.09723 10.1132 6.09723 9.85661C6.09723 9.6 6.27778 9.40378 6.5139 9.40378H7.06945C7.30556 9.40378 7.48612 9.6 7.48612 9.85661C7.48612 10.1132 7.29167 10.3094 7.06945 10.3094Z" fill="#454B54"/>
<path fill-rule="evenodd" clip-rule="evenodd" d="M8.49998 8.45284C8.26387 8.45284 8.08331 8.25661 8.08331 8.00001V2.71699C8.08331 2.46039 8.26387 2.26416 8.49998 2.26416C8.73609 2.26416 8.91665 2.46039 8.91665 2.71699V8.00001C8.91665 8.25661 8.73609 8.45284 8.49998 8.45284Z" fill="#98BED8"/>
<path fill-rule="evenodd" clip-rule="evenodd" d="M8.49998 12.2264C8.26387 12.2264 8.08331 12.0302 8.08331 11.7736V8.00001C8.08331 7.74341 8.26387 7.54718 8.49998 7.54718C8.73609 7.54718 8.91665 7.74341 8.91665 8.00001V11.7736C8.91665 12.0302 8.73609 12.2264 8.49998 12.2264Z" fill="#E97087"/>
<path fill-rule="evenodd" clip-rule="evenodd" d="M7.38889 14.7925C7.38889 15.4566 7.88889 16 8.5 16C9.11111 16 9.61111 15.4566 9.61111 14.7925V13.1472C10.4583 12.6943 11 11.7585 11 10.717V2.71698C11 1.22264 9.875 0 8.5 0C7.125 0 6 1.22264 6 2.71698V10.717C6 11.7585 6.54167 12.6943 7.38889 13.1472V14.7925ZM6.83333 2.71698C6.83333 1.72075 7.58333 0.90566 8.5 0.90566C9.41667 0.90566 10.1667 1.72075 10.1667 2.71698V10.717C10.1667 11.4868 9.72222 12.166 9.05556 12.4226C8.88889 12.483 8.77778 12.6491 8.77778 12.8453V14.7925C8.77778 14.9585 8.65278 15.0943 8.5 15.0943C8.34722 15.0943 8.22222 14.9585 8.22222 14.7925V12.8453C8.22222 12.6642 8.11111 12.483 7.94444 12.4226C7.27778 12.166 6.83333 11.4868 6.83333 10.717V2.71698Z" fill="#454B54"/>
</svg>
