<svg width="48" height="48" viewBox="0 0 48 48" fill="none" xmlns="http://www.w3.org/2000/svg">
<g id="Thank">
<g id="icons8-pray">
<path id="Path" d="M22.9566 6.15C22.9566 7.305 22.6436 10.98 22.3618 14.067C22.1218 16.608 21.9131 18.75 21.9131 18.75V30.3C21.9131 33.7755 19.1062 36.6 15.6522 36.6L9.78268 42.5062L2.47833 30.4313L11.4783 25.05L15.6522 15.6L18.7827 6.15L19.3566 3.8505C19.4714 3.3675 19.8679 3 20.3479 3H20.8696C22.3514 3 22.9566 4.575 22.9566 6.15Z" fill="#FFCC80"/>
<path id="Path_2" d="M22.3618 14.1195C22.1218 16.6395 21.9131 18.75 21.9131 18.75V24H16.6957L17.7392 16.44C17.8436 15.306 18.1253 13.5 20.2123 13.5C20.6088 13.5 20.9218 13.5315 21.214 13.6155C21.3288 13.647 21.4436 13.689 21.5583 13.731C21.8297 13.8255 22.101 13.962 22.3618 14.1195Z" fill="#F2A25A"/>
<path id="Path_3" d="M16.6957 23.9475L19.4067 16.3014C19.5903 15.7827 20.135 15.4919 20.661 15.6357C21.623 15.9003 22.9566 17.175 22.9566 19.5375C22.9566 21.6522 21.9131 25.575 21.9131 25.575V30.3L16.6957 23.9475Z" fill="#FFCC80"/>
<path id="Path_4" d="M7.30435 25.05L0 29.775L9.3913 45L16.6957 40.2677L7.30435 25.05Z" fill="#009688"/>
<path id="Oval" d="M10.9565 40.8C11.821 40.8 12.5217 40.0948 12.5217 39.225C12.5217 38.3551 11.821 37.65 10.9565 37.65C10.0921 37.65 9.3913 38.3551 9.3913 39.225C9.3913 40.0948 10.0921 40.8 10.9565 40.8Z" fill="#B2DFDB"/>
<path id="Path_5" d="M25.0435 6.15C25.0435 7.305 25.3566 10.98 25.6383 14.067C25.8783 16.608 26.087 18.75 26.087 18.75V30.3C26.087 33.7755 28.894 36.6 32.3479 36.6L38.2174 42.5062L45.5218 30.4313L36.5218 25.05L32.3479 15.6L29.2174 6.15L28.6435 3.8505C28.5287 3.3675 28.1322 3 27.6522 3H27.1305C25.6487 3 25.0435 4.575 25.0435 6.15Z" fill="#FFCC80"/>
<path id="Path_6" d="M25.6382 14.1195C25.8782 16.6395 26.0869 18.75 26.0869 18.75V24H31.3043L30.2609 16.44C30.1565 15.306 29.8748 13.5 27.7878 13.5C27.3913 13.5 27.0782 13.5315 26.7861 13.6155C26.6713 13.647 26.5565 13.689 26.4417 13.731C26.1704 13.8255 25.8991 13.962 25.6382 14.1195Z" fill="#F2A25A"/>
<path id="Path_7" d="M31.3044 23.9475L28.5934 16.3014C28.4098 15.7827 27.8651 15.4919 27.3392 15.6357C26.3771 15.9003 25.0435 17.175 25.0435 19.5375C25.0435 21.6522 26.087 25.575 26.087 25.575V30.3L31.3044 23.9475Z" fill="#FFCC80"/>
<path id="Path_8" d="M40.6956 25.05L47.9999 29.775L38.6086 45L31.3043 40.2677L40.6956 25.05Z" fill="#009688"/>
<path id="Oval_2" d="M37.0435 40.8C37.908 40.8 38.6088 40.0948 38.6088 39.225C38.6088 38.3551 37.908 37.65 37.0435 37.65C36.1791 37.65 35.4783 38.3551 35.4783 39.225C35.4783 40.0948 36.1791 40.8 37.0435 40.8Z" fill="#B2DFDB"/>
</g>
</g>
</svg>
