<svg width="48" height="48" viewBox="0 0 48 48" fill="none" xmlns="http://www.w3.org/2000/svg">
<g id="Thumbs">
<g id="icons8-facebook-like">
<rect id="Rectangle" y="25.2372" width="8.90722" height="21.2784" fill="#DFE8F4"/>
<path id="Path" d="M8.90722 48H1.48454C0.643299 48 0 47.3567 0 46.5155C0 45.6743 0.643299 45.031 1.48454 45.031H7.42268V26.7217H1.48454C0.643299 26.7217 0 26.0784 0 25.2372C0 24.3959 0.643299 23.7526 1.48454 23.7526H8.90722C9.74845 23.7526 10.3918 24.3959 10.3918 25.2372V46.5155C10.3918 47.3567 9.74845 48 8.90722 48Z" fill="#444B54"/>
<path id="Path_2" d="M14.8454 23.7526C20.3876 19.9917 24.099 14.0536 24.9897 7.37319L25.2866 5.39381C25.5835 3.21649 27.5629 1.73195 29.7402 2.02886C31.9175 2.32576 33.4021 4.30515 33.1052 6.48247L32.8083 8.46185C32.5608 10.3917 32.1155 12.2722 31.4722 14.1031L29.7897 18.8536L39.1423 18.8041C42.2103 18.8041 44.5361 21.5753 43.9918 24.6433L40.8248 42.4577C40.3794 44.833 38.3505 46.5155 35.9753 46.5155H21.1794C19.0021 46.5155 16.8742 46.1196 14.8454 45.3773H13.3608V23.7526H14.8454Z" fill="white"/>
<path id="Path_3" d="M35.9258 48H21.1794C18.8041 48 16.5278 47.6041 14.301 46.7629C13.5093 46.466 13.1629 45.6248 13.4103 44.833C13.7072 44.0412 14.5485 43.6949 15.3402 43.9423C17.2206 44.6351 19.1505 44.9815 21.1794 44.9815H35.9258C37.6083 44.9815 39.0433 43.7938 39.3402 42.1114L42.5072 24.2969C42.7052 23.3072 42.4083 22.2681 41.765 21.4763C41.1217 20.6845 40.132 20.2392 39.0928 20.2392L29.7897 20.2887C29.2949 20.2887 28.8495 20.0412 28.5526 19.6454C28.2557 19.2495 28.2062 18.7546 28.3547 18.3093L30.0371 13.5588C30.6309 11.8268 31.0268 10.0454 31.2742 8.21444L31.5711 6.23506C31.7691 4.89898 30.8289 3.61238 29.4433 3.46393C28.8 3.36496 28.1567 3.5629 27.6124 3.95877C27.0681 4.35465 26.7217 4.94846 26.6722 5.59176L26.3753 7.57114C25.3856 14.5979 21.4763 20.932 15.5876 24.9897C14.8949 25.4351 14.0041 25.2866 13.5093 24.5938C13.0639 23.901 13.2124 23.0103 13.9052 22.5155C19.101 18.9526 22.565 13.3608 23.4062 7.17527L23.7031 5.19589C23.901 3.76083 24.6433 2.47424 25.8309 1.58351C26.9691 0.692793 28.4041 0.346401 29.8392 0.54434C31.2742 0.742278 32.5608 1.48455 33.4516 2.67217C34.3423 3.8598 34.6887 5.24537 34.4907 6.68042L34.1938 8.6598C33.8969 10.6887 33.4516 12.6681 32.8083 14.5979L31.8186 17.3691L39.0928 17.3196C41.0227 17.3196 42.8041 18.1608 44.0413 19.6454C45.2784 21.1299 45.7732 23.0103 45.4268 24.8907L42.2598 42.7052C41.7155 45.7732 39.0433 48 35.9258 48Z" fill="#444B54"/>
</g>
</g>
</svg>
