<svg width="16" height="16" viewBox="0 0 16 16" fill="none" xmlns="http://www.w3.org/2000/svg">
<path fill-rule="evenodd" clip-rule="evenodd" d="M7.93785 0.599991C3.80581 0.599991 0.466003 3.90768 0.466003 7.99999C0.466003 12.0923 3.80581 15.4 7.93785 15.4C12.0699 15.4 15.4097 12.0923 15.4097 7.99999C15.4097 3.90768 12.0544 0.599991 7.93785 0.599991Z" fill="white"/>
<path fill-rule="evenodd" clip-rule="evenodd" d="M0 8C0 12.3385 3.55728 15.8615 7.93786 15.8615C12.3029 15.8615 15.8757 12.3385 15.8757 8C15.8757 3.66154 12.3184 0.138458 7.93786 0.138458C3.55728 0.138458 0 3.66154 0 8ZM0.932039 8C0.932039 4.16923 4.0699 1.06154 7.93786 1.06154C11.7903 1.06154 14.9437 4.16923 14.9437 8C14.9437 11.8308 11.8058 14.9385 7.93786 14.9385C4.0699 14.9385 0.932039 11.8308 0.932039 8Z" fill="#292A2C"/>
<path fill-rule="evenodd" clip-rule="evenodd" d="M10.8583 10.8C10.7495 10.8 10.6408 10.7692 10.5476 10.6923L7.6272 8.38462C7.50293 8.29231 7.4408 8.15385 7.4408 8V2.73846C7.4408 2.46154 7.65827 2.24615 7.93788 2.24615C8.21749 2.24615 8.43497 2.46154 8.43497 2.73846V7.75385L11.169 9.92308C11.3864 10.0923 11.4175 10.4 11.2466 10.6154C11.1379 10.7385 10.9981 10.8 10.8583 10.8Z" fill="#F28602"/>
<path fill-rule="evenodd" clip-rule="evenodd" d="M7.93788 8.98462C8.58131 8.98462 9.10292 8.46802 9.10292 7.83077C9.10292 7.19352 8.58131 6.67693 7.93788 6.67693C7.29444 6.67693 6.77283 7.19352 6.77283 7.83077C6.77283 8.46802 7.29444 8.98462 7.93788 8.98462Z" fill="#454B54"/>
</svg>
