<svg width="48" height="48" viewBox="0 0 48 48" fill="none" xmlns="http://www.w3.org/2000/svg">
<g id="Time">
<g id="illustrated_pickuptime">
<path id="Path" fill-rule="evenodd" clip-rule="evenodd" d="M23.8135 1.79997C11.4174 1.79997 1.39801 11.7231 1.39801 24C1.39801 36.2769 11.4174 46.2 23.8135 46.2C36.2097 46.2 46.2291 36.2769 46.2291 24C46.2291 11.7231 36.1631 1.79997 23.8135 1.79997Z" fill="white"/>
<path id="Shape" fill-rule="evenodd" clip-rule="evenodd" d="M0 24C0 37.0154 10.6718 47.5846 23.8136 47.5846C36.9087 47.5846 47.6272 37.0154 47.6272 24C47.6272 10.9846 36.9553 0.415375 23.8136 0.415375C10.6718 0.415375 0 10.9846 0 24ZM2.79612 24C2.79612 12.5077 12.2097 3.18461 23.8136 3.18461C35.3709 3.18461 44.8311 12.5077 44.8311 24C44.8311 35.4923 35.4175 44.8154 23.8136 44.8154C12.2097 44.8154 2.79612 35.4923 2.79612 24Z" fill="#454B54"/>
<path id="Path_2" fill-rule="evenodd" clip-rule="evenodd" d="M32.5748 32.4C32.2486 32.4 31.9224 32.3077 31.6428 32.0769L22.8816 25.1538C22.5088 24.8769 22.3224 24.4615 22.3224 24V8.21539C22.3224 7.38462 22.9748 6.73846 23.8136 6.73846C24.6525 6.73846 25.3049 7.38462 25.3049 8.21539V23.2615L33.5069 29.7692C34.1593 30.2769 34.2525 31.2 33.7399 31.8462C33.4136 32.2154 32.9942 32.4 32.5748 32.4Z" fill="#00A49B"/>
<path id="Oval" fill-rule="evenodd" clip-rule="evenodd" d="M23.8136 26.9539C25.7439 26.9539 27.3088 25.4041 27.3088 23.4923C27.3088 21.5806 25.7439 20.0308 23.8136 20.0308C21.8833 20.0308 20.3185 21.5806 20.3185 23.4923C20.3185 25.4041 21.8833 26.9539 23.8136 26.9539Z" fill="#454B54"/>
</g>
</g>
</svg>
