<svg width="16" height="16" viewBox="0 0 16 16" fill="none" xmlns="http://www.w3.org/2000/svg">
<path d="M10.0526 15.75H5.94744C5.60025 15.75 5.34144 15.4565 5.41399 15.1453L6.09089 12.25H9.90908L10.586 15.1453C10.6585 15.4565 10.3997 15.75 10.0526 15.75Z" fill="#FAEFDE"/>
<path d="M8.00001 0.25C6.77037 0.25 5.59109 0.776784 4.72161 1.71446C3.85212 2.65215 3.36365 3.92392 3.36365 5.25C3.36365 6.57608 3.85212 7.84786 4.72161 8.78552C5.59109 9.7232 6.77037 10.25 8.00001 10.25C9.22968 10.25 10.4089 9.7232 11.2784 8.78552C12.1479 7.84786 12.6364 6.57608 12.6364 5.25C12.6364 3.92392 12.1479 2.65215 11.2784 1.71446C10.4089 0.776784 9.22968 0.25 8.00001 0.25Z" fill="#CDA1A7"/>
<path d="M4.99997 5.25728C4.99997 3.60453 6.34315 1.76453 7.99997 1.76453C9.65676 1.76453 11 3.60428 11 5.25728C11 6.91028 9.65676 7.75002 7.99997 7.75002C6.34315 7.75002 4.99997 6.91028 4.99997 5.25728ZM3.09088 8.75005L3.42252 10.1178C3.73234 11.3958 4.68933 12.4165 5.93515 12.9158L6.14979 12.921C6.67615 13.1283 7.31297 13.2501 7.99997 13.2501C9.0325 13.2501 9.95218 12.9753 10.5519 12.5473C11.5438 12.025 12.317 11.1923 12.5774 10.1178L12.9091 8.75005H3.09088Z" fill="#FFF7F0"/>
<path d="M2.81816 7.75H13.1818C13.4831 7.75 13.7273 7.97375 13.7273 8.25C13.7273 8.52624 13.4831 8.75 13.1818 8.75H2.81816C2.5168 8.75 2.27271 8.52624 2.27271 8.25C2.27271 7.97375 2.5168 7.75 2.81816 7.75Z" fill="#CDA1A7"/>
<path d="M13.1818 7.5H12.4345H12.2412C12.6767 6.9635 12.9091 6.2935 12.9091 5.5C12.9091 3.00875 10.7193 0 8 0C5.28063 0 3.09091 3.00875 3.09091 5.5C3.09091 6.2935 3.32327 6.9635 3.75882 7.5H3.56545H2.81818C2.36819 7.5 2 7.8375 2 8.25C2 8.66248 2.36819 9 2.81818 9H2.8711L3.15636 10.1725C3.45909 11.425 4.37273 12.4875 5.62182 13.0575L5.14727 15.0925C5.09546 15.315 5.15545 15.545 5.31091 15.7225C5.46636 15.8975 5.69818 16 5.94636 16H10.0536C10.3018 16 10.5336 15.8975 10.6891 15.7225C10.8446 15.545 10.9045 15.315 10.8527 15.0925L10.3782 13.0575C11.6218 12.495 12.5355 11.445 12.8436 10.1725L13.1289 9H13.1818C13.6318 9 14 8.66248 14 8.25C14 7.8375 13.6318 7.5 13.1818 7.5Z" fill="#454B54"/>
<path d="M9.36365 10C9.21284 10 9.09092 10.112 9.09092 10.25V10.75C9.09092 10.888 9.21284 11 9.36365 11C9.51445 11 9.63637 10.888 9.63637 10.75V10.25C9.63637 10.112 9.51445 10 9.36365 10ZM6.63637 10C6.48556 10 6.36365 10.112 6.36365 10.25V10.75C6.36365 10.888 6.48556 11 6.63637 11C6.78719 11 6.9091 10.888 6.9091 10.75V10.25C6.9091 10.112 6.78719 10 6.63637 10ZM8.31777 13H7.68229C7.53146 13 7.40956 13.112 7.40956 13.25C7.40956 13.388 7.53146 13.5 7.68229 13.5H8.31777C8.46858 13.5 8.5905 13.388 8.5905 13.25C8.5905 13.112 8.46858 13 8.31777 13Z" fill="#CDA1A7"/>
</svg>
