<svg width="16" height="16" viewBox="0 0 16 16" fill="none" xmlns="http://www.w3.org/2000/svg">
<path fill-rule="evenodd" clip-rule="evenodd" d="M5.33504 2.53945L6.32504 2.70092C6.67004 2.75963 6.88004 2.78899 7.22504 2.80367C7.57004 2.78899 7.78004 2.75963 8.12504 2.70092L9.11504 2.53945C10.96 2.23119 12.925 3.42018 12.925 5.71009C12.925 8.23486 11.23 12.433 9.82004 15.2073C9.71504 15.4275 9.49004 15.5596 9.25004 15.5596C8.93504 15.5596 8.66504 15.3248 8.62004 15.0018C8.42504 13.7541 8.20004 11.9927 7.60004 11.1266C7.36004 10.7743 7.12004 10.7743 6.88004 11.1266C6.28004 11.9927 6.05504 13.7688 5.86004 15.0018C5.81504 15.3248 5.54504 15.5596 5.23004 15.5596C4.99004 15.5596 4.78004 15.4275 4.66004 15.2073C3.23504 12.433 1.54004 8.24954 1.54004 5.72477C1.54004 3.42018 3.49004 2.23119 5.33504 2.53945Z" fill="white"/>
<path fill-rule="evenodd" clip-rule="evenodd" d="M8.15503 15.0752C8.23003 15.6037 8.69503 16 9.23503 16C9.65503 16 10.03 15.7651 10.21 15.4128C11.74 12.4183 13.36 8.29357 13.36 5.72476C13.36 4.63852 12.97 3.69908 12.235 3.02385C11.56 2.39265 10.66 2.05504 9.70003 2.05504C9.49003 2.05504 9.26503 2.06972 9.04003 2.11375L8.05003 2.27522C7.70503 2.33394 7.52503 2.3633 7.22503 2.37797C6.92503 2.3633 6.74503 2.33394 6.40003 2.27522L5.41003 2.11375C5.20003 2.06972 4.97503 2.05504 4.75003 2.05504C3.79003 2.05504 2.89003 2.39265 2.21503 3.02385C1.48003 3.69908 1.09003 4.63852 1.09003 5.72476C1.09003 8.29357 2.72503 12.4183 4.24003 15.4128C4.43503 15.7651 4.79503 16 5.21503 16C5.75503 16 6.20503 15.6183 6.29503 15.0752L6.34003 14.767C6.50503 13.6367 6.74503 12.1101 7.22503 11.3761C7.70503 12.1101 7.94503 13.6367 8.11003 14.767L8.15503 15.0752Z" fill="#454B54"/>
</svg>
