<svg width="16" height="16" viewBox="0 0 16 16" fill="none" xmlns="http://www.w3.org/2000/svg">
<path d="M10.8875 15.375C10.5875 11.575 11.575 7.6125 13.6125 4.4L14 3.7875C14.2 3.4625 14.7125 3.55 14.8 3.925L14.9625 4.6375C15.7875 8.3625 15.525 11.9125 13.9625 15.375H10.8875Z" fill="#F8B24C"/>
<path d="M14.9625 4.6375L14.8 3.925C14.7125 3.55 14.2 3.4625 14 3.7875L13.6125 4.4C13.3125 4.8625 13.0375 5.35 12.7875 5.85C13.225 7.6375 14.225 9.0125 15.4 9.425C15.475 7.8625 15.325 6.2625 14.9625 4.6375Z" fill="white"/>
<path d="M12.7875 5.8625C11.325 8.7375 10.6375 12.0625 10.875 15.275V15.2875C10.875 15.3 10.875 15.3 10.875 15.3125H13.15C13.7875 12.6625 13.85 9.95 13.3375 7.325C13.1125 6.925 12.925 6.4125 12.7875 5.8625Z" fill="#FCDEB1"/>
<path d="M8.3125 9.9875L12.6 12.4625C12.6125 12.3875 12.6125 12.325 12.625 12.25L8.425 8.5C8.3625 8.9875 8.325 9.4875 8.3125 9.9875ZM12.575 12.7125L8.3125 11.125C8.325 11.5 8.3375 11.8625 8.375 12.2375L12.5625 12.875C12.5625 12.8125 12.575 12.7625 12.575 12.7125Z" fill="white"/>
<path d="M15.2125 15.75C15.1125 15.75 15.0125 15.7125 14.95 15.6375C14.875 15.5625 14.8375 15.475 14.8375 15.375C14.8375 15.275 14.875 15.175 14.95 15.1125C15.0875 14.975 15.3375 14.975 15.475 15.1125C15.55 15.1875 15.5875 15.275 15.5875 15.375C15.5875 15.475 15.55 15.575 15.475 15.6375C15.4125 15.7125 15.3125 15.75 15.2125 15.75Z" fill="#454B54"/>
<path d="M8.91253 15.35C7.87503 11.375 8.17503 7.175 9.75003 3.3625L10.05 2.6375C10.2125 2.25 10.775 2.25 10.9375 2.6375L11.2375 3.3625C12.825 7.175 13.1125 11.3625 12.0875 15.35H10.525H8.91253Z" fill="#7BCAC5"/>
<path d="M13.9625 15H12.5625C13.4875 11.05 13.1625 6.98751 11.5875 3.22501L11.2875 2.50001C11.15 2.18751 10.85 1.97501 10.5 1.97501C10.15 1.97501 9.8375 2.17501 9.7125 2.50001L9.4125 3.22501C7.8375 6.98751 7.5125 11.05 8.4375 15H4.075C2.1125 12.275 1.55 9.73751 2.3875 7.46251C2.6375 6.78751 2.975 6.23751 3.3 5.80001C3.6125 5.43751 3.95 5.07501 4.3375 4.73751C4.4875 4.60001 4.5 4.37501 4.375 4.22501C4.25 4.07501 4.025 4.03751 3.8625 4.16251C3.8125 4.20001 3.225 4.63751 2.625 5.46251C0.775 7.75001 0.5125 10.1125 0.6625 11.8C0.7875 13.2125 1.2 14.3375 1.4875 14.975H0.5C0.2875 14.975 0.125 15.1375 0.125 15.35C0.125 15.5625 0.2875 15.725 0.5 15.725H13.95C14.1625 15.725 14.325 15.55 14.325 15.3375C14.325 15.125 14.175 15 13.9625 15ZM11.8 14.975H10.9V8.46251C10.9 8.25001 10.7375 8.08751 10.525 8.08751C10.3125 8.08751 10.15 8.25001 10.15 8.46251V14.975H9.2C8.2625 11.1375 8.575 7.17501 10.1 3.51251L10.4 2.78751C10.425 2.73751 10.475 2.72501 10.5 2.72501C10.525 2.72501 10.575 2.73751 10.6 2.78751L10.9 3.51251C12.425 7.17501 12.7375 11.1375 11.8 14.975Z" fill="#454B54"/>
<path d="M2.08748 15.35C2.08748 15.35 -1.40002 9.4125 4.07498 4.45C4.07498 4.45 -1.28752 8.375 3.87498 15.3625L2.08748 15.35Z" fill="#FEF2E0"/>
</svg>
