<svg width="16" height="16" viewBox="0 0 16 16" fill="none" xmlns="http://www.w3.org/2000/svg">
<g id="Visitor">
<g id="icons8-standing-man">
<g id="Group">
<path id="Path" fill-rule="evenodd" clip-rule="evenodd" d="M7.78949 15.5789C7.32634 15.5789 6.94739 15.2 6.94739 14.7368V8.8421H8.6316V14.7368C8.6316 15.2 8.25265 15.5789 7.78949 15.5789Z" fill="white"/>
<path id="Path_2" fill-rule="evenodd" clip-rule="evenodd" d="M8.0702 4.63158H5.82459C5.05266 4.63158 4.42108 5.26316 4.42108 6.03509V10.2456C4.88424 10.2456 5.26319 10.6246 5.26319 11.0877V14.6947C5.26319 15.1579 5.61406 15.5649 6.07722 15.5649C6.55441 15.5789 6.9474 15.2 6.9474 14.7228V10.2456H8.63161H9.47371V6.03509C9.47371 5.26316 8.84213 4.63158 8.0702 4.63158Z" fill="white"/>
<path id="Path_3" fill-rule="evenodd" clip-rule="evenodd" d="M7.78947 16C7.08772 16 6.52632 15.4386 6.52632 14.7368V10.2456C6.52632 10.007 6.70877 9.82456 6.94737 9.82456C7.18596 9.82456 7.36842 10.007 7.36842 10.2456V14.7368C7.36842 14.9754 7.55088 15.1579 7.78947 15.1579C8.02807 15.1579 8.21053 14.9754 8.21053 14.7368V10.2456C8.21053 10.007 8.39298 9.82456 8.63158 9.82456H9.05263V6.03509C9.05263 5.48772 8.61754 5.05263 8.07018 5.05263H5.82456C5.27719 5.05263 4.84211 5.48772 4.84211 6.03509V10.2456C4.84211 10.4842 4.65965 10.6667 4.42105 10.6667C4.18246 10.6667 4 10.4842 4 10.2456V6.03509C4 5.02456 4.81404 4.21053 5.82456 4.21053H8.07018C9.0807 4.21053 9.89474 5.02456 9.89474 6.03509V10.2456C9.89474 10.4842 9.71228 10.6667 9.47368 10.6667H9.05263V14.7368C9.05263 15.4386 8.49123 16 7.78947 16Z" fill="#444B54"/>
<path id="Oval" fill-rule="evenodd" clip-rule="evenodd" d="M6.94739 3.22807C7.72253 3.22807 8.3509 2.5997 8.3509 1.82456C8.3509 1.04942 7.72253 0.421051 6.94739 0.421051C6.17226 0.421051 5.54388 1.04942 5.54388 1.82456C5.54388 2.5997 6.17226 3.22807 6.94739 3.22807Z" fill="white"/>
<path id="Shape" fill-rule="evenodd" clip-rule="evenodd" d="M5.1228 1.82456C5.1228 2.83509 5.93684 3.64912 6.94736 3.64912C7.95789 3.64912 8.77193 2.83509 8.77193 1.82456C8.77193 0.814035 7.95789 0 6.94736 0C5.93684 0 5.1228 0.814035 5.1228 1.82456ZM5.96491 1.82456C5.96491 1.27719 6.4 0.842105 6.94736 0.842105C7.49473 0.842105 7.92982 1.27719 7.92982 1.82456C7.92982 2.37193 7.49473 2.80702 6.94736 2.80702C6.4 2.80702 5.96491 2.37193 5.96491 1.82456Z" fill="#444B54"/>
<path id="Path_4" fill-rule="evenodd" clip-rule="evenodd" d="M6.10526 16C5.40351 16 4.8421 15.4386 4.8421 14.7368V11.0877C4.8421 10.8491 5.02456 10.6667 5.26315 10.6667C5.50175 10.6667 5.68421 10.8491 5.68421 11.0877V14.7368C5.68421 14.9754 5.86666 15.1579 6.10526 15.1579C6.34386 15.1579 6.52631 14.9754 6.52631 14.7368C6.52631 14.4982 6.70877 14.3158 6.94737 14.3158C7.18596 14.3158 7.36842 14.4982 7.36842 14.7368C7.36842 15.4386 6.80701 16 6.10526 16Z" fill="#444B54"/>
</g>
<path id="Path_5" fill-rule="evenodd" clip-rule="evenodd" d="M10.5965 16H6.10526C5.86666 16 5.6842 15.8175 5.6842 15.579C5.6842 15.3404 5.86666 15.1579 6.10526 15.1579H10.5965C10.8351 15.1579 11.0175 15.3404 11.0175 15.579C11.0175 15.8175 10.8351 16 10.5965 16Z" fill="#444B54"/>
<path id="Path_6" fill-rule="evenodd" clip-rule="evenodd" d="M12 16C11.8877 16 11.7754 15.9579 11.7052 15.8737C11.621 15.7895 11.5789 15.6912 11.5789 15.579C11.5789 15.4667 11.621 15.3544 11.7052 15.2842C11.7193 15.2702 11.7473 15.2421 11.7614 15.2281C11.7894 15.214 11.8035 15.2 11.8316 15.186C11.8596 15.1719 11.8877 15.1719 11.9158 15.1579C12.0561 15.1298 12.1965 15.1719 12.2947 15.2702C12.3789 15.3544 12.421 15.4526 12.421 15.5649C12.421 15.6772 12.3789 15.7895 12.2947 15.8597C12.2245 15.9579 12.1123 16 12 16Z" fill="#444B54"/>
</g>
</g>
</svg>
