<svg width="16" height="17" viewBox="0 0 16 17" fill="none" xmlns="http://www.w3.org/2000/svg">
<path d="M8.17685 16.123C5.47157 16.123 3.23376 13.9643 3.23376 11.2976C3.23376 9.54566 4.37807 7.86907 5.57523 6.11709C6.58946 4.61808 7.63011 3.09427 8.15043 1.34229C8.67076 3.09427 9.71141 4.61808 10.7267 6.11709C11.9228 7.86907 13.0681 9.54566 13.0681 11.2976C13.1199 13.9643 10.9086 16.123 8.17685 16.123Z" fill="#85CBF8"/>
<path d="M10.4919 14.7768C10.0762 14.3711 9.50407 14.2441 8.9309 14.3711C8.69716 14.4464 8.437 14.4722 8.17684 14.4722C6.71952 14.4722 5.47155 13.4564 5.00306 12.0595C4.82115 11.5258 4.30082 11.1707 3.72765 11.1707H3.26017C3.18192 13.8879 5.41871 16.123 8.17684 16.123C9.21749 16.123 10.1799 15.7927 10.9868 15.2599L10.4919 14.7768Z" fill="#6FC6F0"/>
<path d="M10.7785 6.14187C9.76424 4.64385 8.72359 3.12004 8.20326 1.36707C8.04676 1.92659 7.81302 2.45933 7.55286 2.99306C8.09859 4.11012 8.80082 5.12599 9.47765 6.14187C10.6748 7.89484 11.8191 9.57044 11.8191 11.3234C11.8191 11.7798 11.7673 12.2123 11.6372 12.6439C11.2988 13.7103 12.3394 13.9643 12.7815 13.0754C13.0417 12.5417 13.1199 11.9325 13.1199 11.3234C13.1199 9.57044 11.9756 7.89484 10.7785 6.14187Z" fill="#9FDDFF"/>
<path fill-rule="evenodd" clip-rule="evenodd" d="M11.0121 5.91143C11.0298 5.93766 11.0474 5.96388 11.065 5.99008C12.2612 7.71627 13.3801 9.36706 13.4065 11.1706C13.4065 13.9643 11.065 16.25 8.20325 16.25C5.34146 16.25 3 13.9643 3 11.1706C3 9.36706 4.11789 7.71627 5.31504 5.99008C5.33469 5.96085 5.35435 5.93161 5.37402 5.90236C6.50019 4.22745 7.66142 2.50039 7.94309 0.478175C7.9685 0.351191 8.07317 0.25 8.20325 0.25C8.33333 0.25 8.43699 0.351191 8.43699 0.478175C8.71917 2.50404 9.88311 4.23369 11.0121 5.91143ZM3.4939 11.1706C3.4939 13.6845 5.60163 15.7421 8.17683 15.7421C10.752 15.7421 12.8598 13.6845 12.8598 11.1706C12.8598 9.51983 11.7927 7.94543 10.5965 6.26884C9.63415 4.87201 8.64532 3.3988 8.15041 1.74801C7.6629 3.37743 6.6932 4.80968 5.74267 6.21362L5.70528 6.26884C4.56097 7.91963 3.4939 9.51983 3.4939 11.1706Z" fill="#515151"/>
<path d="M10.2317 7.03073L10.0498 6.75196C9.97153 6.62498 9.81604 6.59918 9.68596 6.67557C9.55588 6.75196 9.52946 6.90375 9.60771 7.03073L9.78962 7.31049C10.7002 8.65672 11.5589 9.92656 11.5589 11.1706C11.5589 11.3234 11.6626 11.4246 11.8191 11.4246C11.9756 11.4246 12.0793 11.3234 12.0793 11.1706C12.0793 9.77379 11.1687 8.45335 10.2317 7.03073Z" fill="#515151"/>
<path d="M8.9309 4.97423C8.87907 4.84724 8.69716 4.79566 8.5935 4.87205C8.46342 4.92264 8.41057 5.10121 8.48882 5.2024C8.5935 5.43058 8.74899 5.65974 8.87907 5.91371C8.9309 5.9901 9.00915 6.0407 9.11382 6.0407C9.37399 5.93851 9.39939 5.78673 9.34756 5.65974C9.16565 5.40578 9.03557 5.17661 8.9309 4.97423Z" fill="#515151"/>
<path d="M8.17685 13.7103C8.02035 13.7103 7.91669 13.8115 7.91669 13.9643V14.4722C7.91669 14.625 8.02035 14.7262 8.17685 14.7262C8.33335 14.7262 8.43701 14.625 8.43701 14.4722V13.9643C8.43701 13.8115 8.33335 13.7103 8.17685 13.7103Z" fill="#515151"/>
<path d="M5.5752 11.1707C5.5752 11.0179 5.47154 10.9167 5.31503 10.9167H4.79471C4.6382 10.9167 4.53455 11.0179 4.53455 11.1707C4.53455 11.3234 4.6382 11.4246 4.79471 11.4246H5.31503C5.47154 11.4246 5.5752 11.3234 5.5752 11.1707Z" fill="#515151"/>
<path d="M5.57518 12.3393L5.13311 12.5933C5.00302 12.6687 4.9766 12.8214 5.02843 12.9484C5.08128 13.0248 5.15851 13.0754 5.26319 13.0754C5.39327 13.0496L5.83534 12.7957C5.96542 12.7203 5.99185 12.5675 5.939 12.4405C5.86176 12.3135 5.70526 12.2877 5.57518 12.3393Z" fill="#515151"/>
<path d="M6.87599 13.38C6.74591 13.3036 6.58941 13.3552 6.51217 13.4822L6.25201 13.9137C6.17376 14.0407 6.22559 14.1925 6.35567 14.2689C6.48575 14.2947C6.564 14.2947 6.66766 14.2441 6.71949 14.1677L6.97965 13.7361C7.0325 13.5834 7.00607 13.4306 6.87599 13.38Z" fill="#515151"/>
</svg>
