<svg width="216" height="216" viewBox="0 0 216 216" fill="none" xmlns="http://www.w3.org/2000/svg">
<rect width="216" height="216" fill="#F5F5F5"/>
<g id="Above and beyond" clip-path="url(#clip0_4652_16135)">
<g id="Group 755">
<path id="Vector" fill-rule="evenodd" clip-rule="evenodd" d="M162.777 215.998C161.611 215.998 160.456 215.769 159.379 215.324C158.302 214.879 157.324 214.226 156.499 213.403L126.529 183.548C124.346 186.65 121.451 189.185 118.088 190.944C114.724 192.702 110.987 193.632 107.19 193.657C103.258 193.676 99.3837 192.715 95.9179 190.86C92.4677 188.985 89.5348 186.288 87.3792 183.009L57.0042 213.336C55.8557 214.471 54.4208 215.273 52.852 215.659C51.2832 216.045 49.639 215.999 48.0942 215.526C46.5659 215.056 45.1939 214.181 44.1241 212.995C43.0543 211.808 42.3268 210.354 42.0192 208.787L37.6318 185.199L14.0068 180.819C12.4106 180.536 10.9256 179.812 9.72047 178.73C8.51616 177.659 7.62803 176.28 7.15214 174.742C6.67624 173.203 6.63074 171.564 7.02051 170.002C7.4187 168.433 8.23513 167.001 9.38305 165.857L36.1803 139.102C31.2765 132.462 27.3762 125.14 24.6041 117.368C17.7241 98.6682 17.4587 78.1812 23.852 59.3101C30.2454 40.439 42.9125 24.3196 59.7495 13.6296C76.5865 2.93958 96.5799 -1.6776 116.408 0.545023C136.237 2.76764 154.707 11.6963 168.75 25.8478C176.703 33.8189 183.061 43.2311 187.482 53.5801C193.35 67.4743 195.502 82.6523 193.727 97.6267C191.952 112.601 186.311 126.858 177.357 139.001L204.357 165.958C205.216 166.809 205.892 167.827 206.34 168.95C206.788 170.072 207 171.275 206.962 172.483C206.924 173.69 206.637 174.877 206.119 175.97C205.601 177.062 204.863 178.036 203.952 178.831C202.755 179.906 201.283 180.629 199.699 180.92L176.074 185.3L171.72 208.888C171.295 210.929 170.168 212.757 168.535 214.056C166.901 215.355 164.864 216.042 162.777 215.998Z" fill="white"/>
<path id="Vector_2" fill-rule="evenodd" clip-rule="evenodd" d="M63.2814 118.918L12.8927 169.193C12.3599 169.699 11.9748 170.339 11.7789 171.047C11.5763 171.751 11.5763 172.499 11.7789 173.203C11.9883 173.903 12.3852 174.532 12.9265 175.023C13.4754 175.511 14.156 175.828 14.8838 175.933L39.1839 180.448C39.9553 180.615 40.6669 180.987 41.2426 181.526C41.8052 182.09 42.1921 182.804 42.3564 183.582L46.879 207.843C46.9719 208.577 47.2768 209.268 47.7565 209.832C48.228 210.41 48.863 210.832 49.5789 211.045C50.2962 211.246 51.0554 211.246 51.7727 211.045C52.4917 210.837 53.1358 210.427 53.629 209.865L104.018 159.59C104.385 159.239 104.673 158.814 104.861 158.343C105.059 157.862 105.162 157.347 105.165 156.827C105.169 156.306 105.065 155.79 104.861 155.31C104.665 154.833 104.379 154.399 104.018 154.03L68.9176 118.985C68.5505 118.605 68.1155 118.297 67.6351 118.076C67.1462 117.854 66.6192 117.728 66.0827 117.705C65.5501 117.701 65.0221 117.804 64.5301 118.008C64.0575 118.226 63.6329 118.535 63.2814 118.918Z" fill="#EF214D"/>
<g id="Group">
<mask id="mask0_4652_16135" style="mask-type:alpha" maskUnits="userSpaceOnUse" x="11" y="117" width="95" height="95">
<path id="Vector_3" fill-rule="evenodd" clip-rule="evenodd" d="M63.2814 118.918L12.8927 169.193C12.3599 169.699 11.9748 170.339 11.7789 171.047C11.5763 171.751 11.5763 172.499 11.7789 173.203C11.9883 173.903 12.3852 174.532 12.9265 175.023C13.4754 175.511 14.156 175.828 14.8838 175.933L39.1839 180.448C39.9553 180.615 40.6669 180.987 41.2426 181.526C41.8052 182.09 42.1921 182.804 42.3564 183.582L46.879 207.843C46.9719 208.577 47.2768 209.268 47.7565 209.832C48.228 210.41 48.863 210.832 49.5789 211.045C50.2962 211.246 51.0554 211.246 51.7727 211.045C52.4917 210.837 53.1358 210.427 53.629 209.865L104.018 159.59C104.385 159.239 104.673 158.814 104.861 158.343C105.059 157.862 105.162 157.347 105.165 156.827C105.169 156.306 105.065 155.79 104.861 155.31C104.665 154.833 104.379 154.399 104.018 154.03L68.9176 118.985C68.5505 118.605 68.1155 118.297 67.6351 118.076C67.1462 117.854 66.6192 117.728 66.0827 117.705C65.5501 117.701 65.0221 117.804 64.5301 118.008C64.0575 118.226 63.6329 118.535 63.2814 118.918Z" fill="#EF214D"/>
</mask>
<g mask="url(#mask0_4652_16135)">
<path id="Vector_4" fill-rule="evenodd" clip-rule="evenodd" d="M35.0661 199.15L24.3672 188.468L93.0824 119.895L103.747 130.577L35.0661 199.15Z" fill="#FEF2E0"/>
</g>
</g>
<path id="Vector_5" fill-rule="evenodd" clip-rule="evenodd" d="M150.154 118.918L200.779 169.463C201.314 169.961 201.69 170.606 201.859 171.316C202.062 172.021 202.062 172.768 201.859 173.473C201.645 174.17 201.241 174.794 200.693 175.276C200.145 175.758 199.474 176.079 198.754 176.202L174.42 180.684C173.638 180.84 172.921 181.228 172.362 181.796C171.796 182.352 171.418 183.071 171.281 183.851L166.793 208.113C166.665 208.843 166.351 209.528 165.882 210.101C165.383 210.641 164.756 211.046 164.059 211.281C163.351 211.466 162.607 211.466 161.899 211.281C161.188 211.072 160.547 210.676 160.043 210.135L109.418 159.59C109.053 159.228 108.763 158.798 108.566 158.323C108.369 157.849 108.269 157.34 108.27 156.827C108.268 156.308 108.368 155.794 108.565 155.314C108.762 154.834 109.052 154.398 109.418 154.03L144.552 118.985C144.919 118.607 145.36 118.307 145.847 118.104C146.335 117.901 146.858 117.8 147.386 117.806C147.908 117.834 148.421 117.948 148.905 118.143C149.358 118.337 149.779 118.599 150.154 118.918Z" fill="#EF214D"/>
<g id="Group_2">
<mask id="mask1_4652_16135" style="mask-type:alpha" maskUnits="userSpaceOnUse" x="108" y="117" width="95" height="95">
<path id="Vector_6" fill-rule="evenodd" clip-rule="evenodd" d="M150.154 118.918L200.779 169.463C201.314 169.961 201.69 170.606 201.859 171.316C202.062 172.021 202.062 172.768 201.859 173.473C201.645 174.17 201.241 174.794 200.693 175.276C200.145 175.758 199.474 176.079 198.754 176.202L174.42 180.684C173.638 180.84 172.921 181.228 172.362 181.796C171.796 182.352 171.418 183.071 171.281 183.851L166.793 208.113C166.665 208.843 166.351 209.528 165.882 210.101C165.383 210.641 164.756 211.046 164.059 211.281C163.351 211.466 162.607 211.466 161.899 211.281C161.188 211.072 160.547 210.676 160.043 210.135L109.418 159.59C109.053 159.228 108.763 158.798 108.566 158.323C108.369 157.849 108.269 157.34 108.27 156.827C108.268 156.308 108.368 155.794 108.565 155.314C108.762 154.834 109.052 154.398 109.418 154.03L144.552 118.985C144.919 118.607 145.36 118.307 145.847 118.104C146.335 117.901 146.858 117.8 147.386 117.806C147.908 117.834 148.421 117.948 148.905 118.143C149.358 118.337 149.779 118.599 150.154 118.918Z" fill="#EF214D"/>
</mask>
<g mask="url(#mask1_4652_16135)">
<path id="Vector_7" fill-rule="evenodd" clip-rule="evenodd" d="M189.304 188.67L178.605 199.15L109.924 130.746L120.623 120.064L189.304 188.67Z" fill="#FEF2E0"/>
</g>
</g>
<path id="Vector_8" fill-rule="evenodd" clip-rule="evenodd" d="M189.304 87.6138C189.311 68.568 182.703 50.109 170.607 35.382C158.511 20.655 141.674 10.5713 122.966 6.84913C104.258 3.12694 84.8361 5.99656 68.0097 14.969C51.1832 23.9415 37.9933 38.4616 30.6875 56.0553C23.3818 73.6489 22.4123 93.2275 27.9441 111.455C33.4759 129.682 45.1667 145.431 61.0246 156.017C76.8825 166.602 95.9263 171.371 114.911 169.509C133.896 167.648 151.646 159.272 165.139 145.808C172.802 138.171 178.881 129.1 183.027 119.114C187.174 109.128 189.307 98.4239 189.304 87.6138Z" fill="#2087AF"/>
<path id="Vector_9" fill-rule="evenodd" clip-rule="evenodd" d="M21.9037 87.6137C21.8744 68.0065 28.6555 48.9958 41.0916 33.8209C53.5276 18.646 70.8491 8.24596 90.1045 4.39287C109.36 0.539782 129.358 3.47208 146.69 12.6901C164.023 21.9081 177.618 36.8415 185.159 54.9456C192.7 73.0497 193.72 93.2044 188.045 111.975C182.371 130.746 170.353 146.972 154.039 157.887C137.726 168.803 118.126 173.733 98.5795 171.838C79.0331 169.942 60.7499 161.339 46.845 147.493C30.918 131.618 21.9483 110.083 21.9037 87.6137ZM106.852 7.75267C88.356 7.75834 70.4338 14.1666 56.139 25.8857C41.8441 37.6049 32.061 53.9099 28.4563 72.0229C24.8517 90.136 27.6484 108.937 36.3702 125.222C45.092 141.507 59.1992 154.269 76.2885 161.334C93.3777 168.4 112.392 169.33 130.091 163.969C147.791 158.607 163.081 147.284 173.357 131.929C183.633 116.574 188.258 98.1365 186.446 79.7582C184.634 61.3799 176.495 44.1975 163.417 31.1381C155.992 23.7182 147.174 17.8334 137.468 13.8206C127.762 9.80775 117.358 7.74577 106.852 7.75267Z" fill="#545454"/>
<path id="Vector_10" fill-rule="evenodd" clip-rule="evenodd" d="M169.122 137.788C169.344 137.57 169.608 137.398 169.898 137.283C170.188 137.167 170.497 137.11 170.809 137.114C171.436 137.119 172.039 137.36 172.497 137.788L202.5 167.576C203.322 168.406 203.905 169.442 204.188 170.575C204.474 171.68 204.474 172.839 204.188 173.945C203.832 175.074 203.172 176.084 202.278 176.863C201.385 177.641 200.294 178.159 199.125 178.359L174.825 182.84C174.531 182.892 174.259 183.032 174.048 183.243C173.836 183.455 173.695 183.726 173.644 184.02L169.155 208.315C168.945 209.461 168.425 210.528 167.652 211.401C166.879 212.274 165.881 212.92 164.768 213.269C163.664 213.574 162.497 213.574 161.393 213.269C160.25 213.008 159.206 212.423 158.389 211.584L131.389 184.626C131.111 184.16 130.992 183.616 131.052 183.076C131.118 182.528 131.368 182.017 131.76 181.627C132.154 181.246 132.665 181.008 133.211 180.953C133.748 180.886 134.292 180.993 134.764 181.257L161.764 208.214C161.943 208.407 162.18 208.538 162.439 208.585C162.693 208.653 162.961 208.653 163.215 208.585C163.459 208.504 163.679 208.365 163.857 208.18C164.032 207.976 164.159 207.734 164.228 207.473L168.717 183.177C168.949 181.904 169.56 180.729 170.472 179.808C171.401 178.9 172.573 178.28 173.847 178.022L198.18 173.54C198.434 173.498 198.669 173.381 198.855 173.203C199.068 173.03 199.222 172.794 199.294 172.529C199.361 172.275 199.361 172.008 199.294 171.754C199.218 171.507 199.092 171.277 198.923 171.08L168.75 141.394C168.509 141.157 168.325 140.869 168.21 140.551C168.146 140.217 168.146 139.874 168.21 139.54C168.244 139.197 168.347 138.865 168.514 138.563C168.659 138.264 168.866 138 169.122 137.788Z" fill="#545454"/>
<path id="Vector_11" fill-rule="evenodd" clip-rule="evenodd" d="M44.4823 137.687C44.8882 138.156 45.1154 138.752 45.1235 139.372C45.1277 139.994 44.8989 140.595 44.4823 141.057L14.6474 170.845C14.4578 171.032 14.3183 171.263 14.2422 171.518C14.1573 171.77 14.1573 172.042 14.2422 172.293C14.3009 172.556 14.4431 172.792 14.6474 172.967C14.8461 173.146 15.0921 173.263 15.356 173.304L39.6898 177.82C40.9636 178.078 42.1355 178.698 43.0648 179.606C43.9866 180.524 44.6099 181.698 44.8535 182.975L49.3761 207.237C49.4178 207.5 49.5349 207.746 49.7135 207.945C49.8809 208.149 50.1035 208.301 50.3547 208.383C50.6206 208.45 50.8989 208.45 51.1647 208.383C51.4202 208.307 51.6523 208.168 51.8397 207.978L79.6161 180.212C80.0827 179.969 80.6163 179.886 81.1347 179.976C81.6697 180.035 82.1688 180.273 82.5493 180.653C82.9298 181.033 83.1689 181.531 83.2272 182.066C83.3174 182.583 83.2345 183.116 82.9911 183.582L55.181 211.314L53.4261 209.562L55.181 211.314C54.3589 212.147 53.3177 212.732 52.1774 212.999C51.0758 213.323 49.904 213.323 48.8024 212.999C47.6921 212.66 46.6985 212.018 45.9335 211.146C45.1619 210.269 44.648 209.196 44.4485 208.046L39.9261 183.784C39.8749 183.49 39.7338 183.219 39.5224 183.008C39.3109 182.797 39.0393 182.656 38.7447 182.605L14.4449 178.089C13.2928 177.89 12.2182 177.377 11.3397 176.607C10.4663 175.843 9.8235 174.851 9.48354 173.742C9.15913 172.643 9.15913 171.473 9.48354 170.373C9.75147 169.234 10.3365 168.195 11.171 167.374L41.0061 137.586C41.2522 137.356 41.5381 137.174 41.8499 137.047C42.1967 136.996 42.5493 136.996 42.8961 137.047C43.2397 137.08 43.5727 137.183 43.8748 137.35C44.0905 137.437 44.2946 137.55 44.4823 137.687Z" fill="#545454"/>
<path id="Vector_12" fill-rule="evenodd" clip-rule="evenodd" d="M146.307 39.3602L144.552 47.5148L142.932 39.4613L144.552 31.3741L146.307 39.3602Z" fill="white"/>
<path id="Vector_13" fill-rule="evenodd" clip-rule="evenodd" d="M144.653 41.045L136.553 39.4612L144.585 37.6753L152.685 39.1917L144.653 41.045Z" fill="white"/>
<path id="Vector_14" fill-rule="evenodd" clip-rule="evenodd" d="M139.117 67.7327L138.105 72.484L137.126 67.7327L138.105 62.9478L139.117 67.7327Z" fill="white"/>
<path id="Vector_15" fill-rule="evenodd" clip-rule="evenodd" d="M138.139 68.6762L133.346 67.7327L138.105 66.6881L142.898 67.5643L138.139 68.6762Z" fill="white"/>
<path id="Vector_16" fill-rule="evenodd" clip-rule="evenodd" d="M171.551 99.7109L170.539 104.496L169.56 99.7109L170.539 94.9597L171.551 99.7109Z" fill="white"/>
<path id="Vector_17" fill-rule="evenodd" clip-rule="evenodd" d="M170.573 100.722L165.78 99.7782L170.539 98.7336L175.332 99.6098L170.573 100.722Z" fill="white"/>
<path id="Vector_18" fill-rule="evenodd" clip-rule="evenodd" d="M67.4994 140.518L66.4869 145.235L65.5081 140.45L66.4869 135.699L67.4994 140.518Z" fill="white"/>
<path id="Vector_19" fill-rule="evenodd" clip-rule="evenodd" d="M66.5214 141.528L61.7288 140.585L66.4876 139.54L71.2801 140.416L66.5214 141.528Z" fill="white"/>
<path id="Vector_20" fill-rule="evenodd" clip-rule="evenodd" d="M50.0176 49.8398L48.9713 54.591L47.9924 49.8398L48.9713 45.0549L50.0176 49.8398Z" fill="white"/>
<path id="Vector_21" fill-rule="evenodd" clip-rule="evenodd" d="M49.0385 50.8844L44.2458 49.9409L48.9709 48.8963L53.7634 49.7724L49.0385 50.8844Z" fill="white"/>
<path id="Vector_22" fill-rule="evenodd" clip-rule="evenodd" d="M84.8475 23.1184L83.8351 27.9033L82.8562 23.1184L83.8351 18.3671L84.8475 23.1184Z" fill="white"/>
<path id="Vector_23" fill-rule="evenodd" clip-rule="evenodd" d="M83.8684 24.1292L79.0759 23.2194L83.8348 22.1411L88.6272 23.0173L83.8684 24.1292Z" fill="white"/>
<path id="Vector_24" fill-rule="evenodd" clip-rule="evenodd" d="M159.401 132.464L157.646 140.518L155.992 132.464L157.646 124.411L159.401 132.464Z" fill="white"/>
<path id="Vector_25" fill-rule="evenodd" clip-rule="evenodd" d="M157.748 134.183L149.614 132.565L157.68 130.813L165.78 132.296L157.748 134.183Z" fill="white"/>
<path id="Vector_26" fill-rule="evenodd" clip-rule="evenodd" d="M68.209 72.4165L66.4539 80.47L64.834 72.4165L66.4539 64.363L68.209 72.4165Z" fill="white"/>
<path id="Vector_27" fill-rule="evenodd" clip-rule="evenodd" d="M66.5552 74.1351L58.4553 72.5514L66.4878 70.7654L74.5877 72.2481L66.5552 74.1351Z" fill="white"/>
<path id="Vector_28" d="M74.5874 47.0766C74.9879 47.0766 75.3795 46.9581 75.7126 46.7359C76.0456 46.5138 76.3052 46.198 76.4585 45.8286C76.6117 45.4591 76.6517 45.0526 76.5736 44.6604C76.4955 44.2682 76.3027 43.908 76.0195 43.6252C75.7363 43.3425 75.3753 43.1499 74.9825 43.0719C74.5897 42.9939 74.1825 43.0339 73.8125 43.187C73.4424 43.34 73.1263 43.5991 72.9038 43.9316C72.6813 44.2641 72.5625 44.655 72.5625 45.0549C72.5625 45.5911 72.7758 46.1053 73.1556 46.4845C73.5353 46.8636 74.0504 47.0766 74.5874 47.0766Z" fill="white"/>
<path id="Vector_29" d="M44.2461 99.7446C44.6466 99.7446 45.0382 99.626 45.3712 99.4039C45.7043 99.1817 45.9637 98.8659 46.1169 98.4965C46.2702 98.1271 46.3104 97.7205 46.2323 97.3284C46.1542 96.9362 45.9612 96.5759 45.678 96.2932C45.3948 96.0104 45.034 95.8178 44.6412 95.7398C44.2484 95.6618 43.8412 95.7019 43.4712 95.8549C43.1011 96.0079 42.785 96.2671 42.5625 96.5995C42.34 96.932 42.2212 97.3229 42.2212 97.7228C42.2212 97.9883 42.2735 98.2512 42.3753 98.4965C42.477 98.7418 42.6262 98.9647 42.8142 99.1524C43.0023 99.3402 43.2255 99.4891 43.4712 99.5907C43.7168 99.6923 43.9802 99.7446 44.2461 99.7446Z" fill="white"/>
<path id="Vector_30" d="M161.224 61.3304C161.624 61.3304 162.016 61.2118 162.349 60.9896C162.682 60.7675 162.941 60.4517 163.094 60.0823C163.248 59.7128 163.288 59.3063 163.21 58.9141C163.131 58.5219 162.939 58.1617 162.655 57.8789C162.372 57.5962 162.011 57.4036 161.618 57.3256C161.226 57.2476 160.819 57.2876 160.449 57.4407C160.079 57.5937 159.762 57.8528 159.54 58.1853C159.317 58.5178 159.198 58.9087 159.198 59.3086C159.198 59.5741 159.251 59.837 159.353 60.0823C159.455 60.3276 159.604 60.5505 159.792 60.7382C159.98 60.9259 160.203 61.0749 160.449 61.1765C160.694 61.2781 160.958 61.3304 161.224 61.3304Z" fill="white"/>
<path id="Vector_31" d="M100.102 133.711H94.8037C94.2637 141.596 92.2048 158.646 88.7285 165.723C91.3402 166.522 94.0008 167.152 96.6937 167.61C98.6241 156.404 99.763 145.076 100.102 133.711Z" fill="#FFD9A0"/>
<path id="Vector_32" d="M113.501 131.959H118.597V130.813H113.501V131.959Z" fill="#FFD9A0"/>
<path id="Vector_33" fill-rule="evenodd" clip-rule="evenodd" d="M113.536 133.711V132.026H118.632C118.969 140.517 121.231 158.208 125.382 165.723L124.639 165.925C122.183 166.664 119.68 167.238 117.147 167.643C114.91 156.466 113.702 145.108 113.536 133.711Z" fill="#FFD9A0"/>
<path id="Vector_34" d="M112.185 133.677H108.27C108.27 135.261 108.27 137.047 108.27 139.304C108.27 137.148 108.27 135.227 108.27 133.643H101.25C100.922 145.064 99.7941 156.447 97.8752 167.711C103.787 168.082 109.716 168.082 115.628 167.711C113.436 156.496 112.283 145.103 112.185 133.677Z" fill="#EC6E6F"/>
<path id="Vector_35" d="M116.91 167.61C114.753 156.436 113.624 145.089 113.535 133.711V131.959V130.88H112.927H113.501V130.274H100.001V130.88C100.076 131.259 100.076 131.648 100.001 132.026V133.778C99.6729 145.143 98.5451 156.47 96.626 167.677H97.301H97.9085C99.7957 156.409 100.923 145.028 101.283 133.61H108.033C108.051 133.318 108.051 133.025 108.033 132.734C108.05 133.025 108.05 133.318 108.033 133.61H111.948C112.039 145.033 113.169 156.424 115.323 167.643H115.897C115.594 166.498 115.324 165.15 115.054 163.667C115.324 165.116 115.627 166.43 115.897 167.542L116.91 167.61ZM108.27 130.813V131.453V130.813ZM108.27 131.959C108.3 131.825 108.3 131.687 108.27 131.554V131.959ZM112.286 131.959V131.453C112.32 131.62 112.32 131.792 112.286 131.959Z" fill="#EF214D"/>
<path id="Vector_36" fill-rule="evenodd" clip-rule="evenodd" d="M118.294 72.6187H95.3098L96.1198 61.701H117.484L118.294 72.6187Z" fill="white" stroke="#545454" stroke-width="0.5" stroke-miterlimit="10"/>
<path id="Vector_37" fill-rule="evenodd" clip-rule="evenodd" d="M72.765 125.725L89.3699 129.701C89.6735 129.821 90.0115 129.821 90.315 129.701C90.61 129.554 90.8389 129.301 90.9563 128.993L94.3313 120.064H71.7188V124.545C71.7211 124.837 71.8157 125.12 71.9888 125.354C72.2052 125.551 72.4753 125.68 72.765 125.725Z" fill="#F8B24C"/>
<path id="Vector_38" fill-rule="evenodd" clip-rule="evenodd" d="M139.759 107.057L122.614 90.4779C120.468 88.401 119.17 85.6037 118.969 82.6266L117.619 63.1163C117.499 61.2356 116.932 59.4105 115.965 57.7922L108 44.145C107.897 43.9419 107.731 43.7767 107.528 43.6733C107.32 43.5641 107.088 43.507 106.853 43.507C106.618 43.507 106.386 43.5641 106.178 43.6733C105.974 43.7767 105.809 43.9419 105.705 44.145L97.6391 57.6237C96.6919 59.2386 96.1263 61.048 95.9853 62.9141L94.669 82.4581C94.5051 85.473 93.2451 88.3246 91.1253 90.4779L73.9465 107.057C73.3115 107.682 72.8067 108.426 72.4615 109.247C72.0985 110.075 71.9146 110.971 71.9216 111.875V119.963H92.8804C93.0701 119.928 93.2644 119.928 93.4541 119.963C93.6329 120.056 93.7931 120.182 93.9266 120.333C94.0366 120.49 94.1271 120.66 94.1965 120.839C94.2305 121.039 94.2305 121.244 94.1965 121.445L91.0578 137.047C91.0077 137.234 91.0077 137.432 91.0578 137.62C91.0995 137.82 91.1926 138.005 91.3278 138.159C91.4448 138.317 91.5974 138.445 91.7734 138.533C91.9493 138.62 92.1436 138.665 92.3403 138.664H121.5C121.69 138.699 121.884 138.699 122.074 138.664C122.251 138.568 122.411 138.443 122.547 138.294C122.682 138.14 122.775 137.954 122.817 137.754C122.849 137.565 122.849 137.371 122.817 137.182L119.543 121.647C119.493 121.46 119.493 121.262 119.543 121.075C119.584 120.874 119.678 120.689 119.813 120.535C119.941 120.387 120.103 120.271 120.285 120.198C120.473 120.148 120.671 120.148 120.859 120.198H141.75V111.808C141.75 110.93 141.578 110.06 141.244 109.247C140.891 108.43 140.387 107.687 139.759 107.057Z" fill="#F5B6B7"/>
<path id="Vector_39" fill-rule="evenodd" clip-rule="evenodd" d="M140.772 125.725L124.166 129.701C123.862 129.818 123.526 129.818 123.221 129.701C122.943 129.542 122.728 129.292 122.614 128.993L119.239 120.064H141.75V124.545C141.771 124.834 141.687 125.121 141.514 125.354C141.421 125.462 141.307 125.55 141.18 125.613C141.052 125.677 140.914 125.715 140.772 125.725Z" fill="#F8B24C"/>
<path id="Vector_40" fill-rule="evenodd" clip-rule="evenodd" d="M109.282 138.496L108.034 140.551C107.898 140.77 107.713 140.955 107.494 141.09C107.269 141.224 107.013 141.294 106.751 141.294C106.49 141.294 106.233 141.224 106.009 141.09C105.789 140.955 105.604 140.77 105.469 140.551L104.22 138.496V116.29H109.282V138.496Z" fill="#FEF2E0"/>
<path id="Vector_41" d="M118.294 72.6187H95.3098V83.5364H118.294V72.6187Z" fill="#FEF2E0"/>
<path id="Vector_42" fill-rule="evenodd" clip-rule="evenodd" d="M118.294 72.6187H95.3098L96.1198 61.9031L117.484 61.701L118.294 72.6187Z" fill="#FEF2E0"/>
<path id="Vector_43" d="M118.294 83.5365H95.3098V94.4542H118.294V83.5365Z" fill="#FEF2E0"/>
<path id="Vector_44" d="M118.294 94.4541H95.3098V105.406H118.294V94.4541Z" fill="#FEF2E0"/>
<path id="Vector_45" d="M118.294 105.406H95.3098V116.323H118.294V105.406Z" fill="#FEF2E0"/>
<path id="Vector_46" fill-rule="evenodd" clip-rule="evenodd" d="M104.119 140.349H91.1252C90.7072 140.34 90.3087 140.171 90.0131 139.876C89.7174 139.58 89.5477 139.183 89.5391 138.765V130.981L95.1077 116.391H104.153L104.119 140.349Z" fill="#F1E6FD"/>
<path id="Vector_47" fill-rule="evenodd" clip-rule="evenodd" d="M111.004 140.349H122.478C122.898 140.345 123.298 140.175 123.592 139.877C123.735 139.73 123.848 139.556 123.923 139.365C123.999 139.174 124.035 138.97 124.031 138.765V131.15C124.099 130.976 124.099 130.784 124.031 130.611L118.969 117.132C118.858 116.832 118.658 116.573 118.395 116.391C118.123 116.216 117.807 116.122 117.484 116.121H111.105C110.898 116.117 110.693 116.153 110.5 116.229C110.308 116.305 110.133 116.419 109.985 116.563C109.837 116.707 109.72 116.88 109.64 117.07C109.56 117.26 109.519 117.465 109.519 117.671V138.496C109.486 138.708 109.486 138.924 109.519 139.136C109.585 139.341 109.701 139.526 109.856 139.675C109.99 139.826 110.15 139.952 110.329 140.046C110.533 140.187 110.762 140.289 111.004 140.349Z" fill="#F1E6FD"/>
<path id="Vector_48" d="M143.032 108.506C142.592 107.441 141.937 106.477 141.109 105.675L123.93 89.0627C122.135 87.3354 121.041 85.0078 120.859 82.5256L119.542 62.9815C119.374 60.8122 118.729 58.7067 117.652 56.815L109.586 43.3363C109.293 42.8629 108.887 42.4693 108.405 42.1907C107.893 41.9236 107.328 41.774 106.751 41.7526C106.196 41.7783 105.654 41.928 105.165 42.1907C104.683 42.4852 104.279 42.8893 103.984 43.37L95.9173 56.8487C94.8259 58.734 94.1796 60.843 94.0273 63.0152L92.6774 82.5592C92.5036 85.0369 91.4223 87.3639 89.6398 89.0964L72.4274 105.709C71.6027 106.514 70.9484 107.477 70.5037 108.539C70.0598 109.608 69.8304 110.753 69.8286 111.909V124.545C69.8286 125.274 70.0655 125.984 70.5037 126.567C70.9695 127.137 71.6096 127.54 72.3261 127.713L88.4587 131.554V139.945C88.41 140.144 88.41 140.352 88.4587 140.551C88.5367 140.74 88.6513 140.912 88.7961 141.057C88.9409 141.201 89.1131 141.316 89.3024 141.394C89.502 141.442 89.7103 141.442 89.9099 141.394H90.4498C90.1639 149.364 88.3658 157.208 85.151 164.51L86.3998 164.981H86.8385L88.526 165.52C91.4061 157.715 93.2004 149.551 93.8586 141.259H104.726C104.877 141.527 105.099 141.748 105.367 141.899C105.743 142.127 106.176 142.244 106.616 142.236C107.045 142.245 107.468 142.128 107.831 141.899C108.094 141.744 108.324 141.538 108.506 141.293H119.272C119.761 149.622 121.714 157.8 125.044 165.453L126.157 165.15L127.845 164.577C124.585 157.22 122.709 149.327 122.31 141.293H123.457C123.659 141.325 123.864 141.325 124.065 141.293C124.261 141.208 124.443 141.095 124.605 140.956C124.759 140.798 124.884 140.616 124.976 140.416C125.008 140.215 125.008 140.011 124.976 139.81V131.52L140.94 127.679C141.649 127.531 142.282 127.137 142.729 126.567C143.179 125.988 143.428 125.278 143.437 124.545V111.875C143.537 110.736 143.399 109.589 143.032 108.506ZM121.162 91.9269L138.375 108.539C138.831 108.982 139.198 109.508 139.455 110.089C139.698 110.689 139.824 111.33 139.826 111.976V118.278H120.487L119.407 115.38V89.7366C119.927 90.5163 120.515 91.2492 121.162 91.9269ZM96.3561 95.5325H105.705V104.294H96.3561V95.5325ZM96.3561 93.4096V84.581H105.705V93.3759L96.3561 93.4096ZM96.5586 82.4919H96.3561V73.697H105.705V82.4919H96.5586ZM96.5586 71.5404L97.1998 62.9815H97.8749H105.671V71.6415H96.5248L96.5586 71.5404ZM116.235 71.5404H108V62.8804H115.762H116.606L117.247 71.6415L116.235 71.5404ZM108 95.5325H117.315V104.294H108V95.5325ZM108 93.4096V84.581H117.315V93.3759L108 93.4096ZM117.079 82.4919H108V73.697H117.315V82.4919H117.079ZM106.954 46.0658L114.514 58.8031C114.841 59.3899 115.101 60.0116 115.29 60.6564H98.4148C98.622 60.0132 98.8936 59.3923 99.2249 58.8031L106.954 46.0658ZM73.8449 111.909C73.8508 111.273 73.9767 110.645 74.2161 110.056C74.4603 109.458 74.8284 108.918 75.2961 108.472L92.4749 91.8932C93.1974 91.1855 93.8319 90.3935 94.3649 89.5345V115.548L93.386 118.143H73.8449V111.909ZM89.5049 127.746L73.8449 123.972V121.883H91.7323L89.5049 127.746ZM103.005 136.878V139.203H90.6861V131.217L95.6137 118.278L95.8499 117.637H102.971L103.005 136.878ZM103.241 115.245H96.4912V106.45H105.84V115.245H103.241ZM108.27 136.878V138.294L107.156 140.113H106.785L105.705 138.294V117.402H108.574L108.27 136.878ZM108.27 115.245H108V106.45H117.315V115.245H108.506H108.27ZM122.816 139.203H110.497V136.878V117.503H117.619L118.125 118.278L122.985 131.352L122.816 139.203ZM139.691 123.972L123.997 127.746L121.804 121.883H139.691V123.972Z" fill="#545454"/>
<path id="Vector_49" fill-rule="evenodd" clip-rule="evenodd" d="M126.529 169.901C126.521 167.132 125.901 164.398 124.711 161.897C123.521 159.395 121.791 157.188 119.646 155.432C117.501 153.677 114.993 152.417 112.303 151.744C109.612 151.07 106.806 150.999 104.085 151.536C100.446 152.24 97.105 154.026 94.4999 156.658C92.534 158.617 91.028 160.986 90.0906 163.596C89.1531 166.206 88.8075 168.991 89.0787 171.75C89.3499 174.51 90.2313 177.175 91.659 179.553C93.0867 181.931 95.0253 183.963 97.3349 185.503C100.165 187.377 103.45 188.452 106.842 188.612C110.235 188.772 113.607 188.012 116.601 186.412C119.595 184.812 122.099 182.432 123.847 179.524C125.595 176.617 126.522 173.292 126.529 169.901Z" fill="#EF214D"/>
<path id="Vector_50" fill-rule="evenodd" clip-rule="evenodd" d="M87.0753 169.901C87.0545 165.814 88.2273 161.809 90.4503 158.377C92.1583 155.837 94.4084 153.706 97.039 152.137C99.6696 150.568 102.616 149.6 105.665 149.303C108.715 149.005 111.793 149.386 114.678 150.417C117.563 151.448 120.183 153.104 122.351 155.266C124.519 157.428 126.181 160.042 127.217 162.922C128.253 165.801 128.638 168.873 128.343 171.918C128.049 174.964 127.083 177.906 125.515 180.534C123.946 183.163 121.815 185.412 119.273 187.12C115.835 189.339 111.824 190.51 107.73 190.49C105.005 190.499 102.305 189.97 99.7845 188.934C97.2644 187.897 94.9743 186.374 93.0456 184.452C91.1169 182.529 89.5876 180.245 88.5457 177.731C87.5037 175.216 86.9697 172.521 86.9741 169.8L87.0753 169.901ZM107.832 153.053C105.326 153.047 102.851 153.599 100.586 154.667C98.3202 155.736 96.3215 157.295 94.7348 159.231C93.148 161.167 92.0131 163.431 91.4121 165.86C90.8111 168.288 90.7592 170.82 91.2603 173.271C91.7484 175.714 92.7733 178.019 94.261 180.019C95.7486 182.02 97.6621 183.666 99.8636 184.839C102.065 186.012 104.5 186.683 106.992 186.803C109.485 186.924 111.973 186.491 114.278 185.536C117.406 184.285 120.087 182.126 121.976 179.34C123.865 176.553 124.875 173.266 124.875 169.901C124.875 165.433 123.097 161.147 119.933 157.987C116.768 154.828 112.476 153.053 108 153.053H107.832Z" fill="#545454"/>
<path id="Vector_51" fill-rule="evenodd" clip-rule="evenodd" d="M104.389 164.408V178.932H111.139V164.543" fill="#FEF2E0"/>
<path id="Vector_52" fill-rule="evenodd" clip-rule="evenodd" d="M103.41 164.408H105.368V177.887H110.295V164.408H112.253V179.842H103.41V164.408Z" fill="#545454"/>
<path id="Vector_53" fill-rule="evenodd" clip-rule="evenodd" d="M108 159.253L104.625 164.408H111.375L108 159.253Z" fill="#FEF2E0"/>
<path id="Vector_54" fill-rule="evenodd" clip-rule="evenodd" d="M108 158.242C108.154 158.197 108.318 158.197 108.472 158.242C108.608 158.314 108.724 158.418 108.81 158.545L112.185 163.701C112.236 163.877 112.236 164.064 112.185 164.24C112.235 164.405 112.235 164.581 112.185 164.745C112.097 164.9 111.969 165.029 111.814 165.116C111.648 165.162 111.473 165.162 111.307 165.116H104.557C104.392 165.166 104.216 165.166 104.051 165.116C103.968 165.082 103.892 165.032 103.828 164.968C103.764 164.905 103.714 164.829 103.68 164.745C103.63 164.581 103.63 164.405 103.68 164.24C103.629 164.064 103.629 163.877 103.68 163.701L107.055 158.545C107.156 158.398 107.297 158.281 107.46 158.208C107.638 158.151 107.831 158.163 108 158.242ZM106.414 163.398H109.586L108 161.005L106.414 163.398Z" fill="#545454"/>
<path id="Vector_55" fill-rule="evenodd" clip-rule="evenodd" d="M115.223 178.73H111.375V171.586L115.223 178.73Z" fill="#F1E6FD"/>
<path id="Vector_56" fill-rule="evenodd" clip-rule="evenodd" d="M111.072 170.642C111.28 170.575 111.504 170.575 111.713 170.642C111.915 170.731 112.082 170.885 112.185 171.08L116.1 178.224C116.132 178.391 116.132 178.563 116.1 178.729C116.135 178.885 116.135 179.046 116.1 179.201C116.013 179.356 115.884 179.484 115.729 179.572C115.563 179.618 115.389 179.618 115.223 179.572H111.375C111.243 179.572 111.112 179.545 110.99 179.493C110.868 179.441 110.758 179.364 110.667 179.269C110.488 179.077 110.391 178.823 110.397 178.561V171.586C110.396 171.377 110.468 171.175 110.599 171.013C110.708 170.838 110.875 170.706 111.072 170.642ZM112.287 175.427V177.752H113.569L112.287 175.427Z" fill="#545454"/>
<path id="Vector_57" fill-rule="evenodd" clip-rule="evenodd" d="M115.223 178.932H111.375V171.822L115.223 178.932Z" fill="#F1E6FD"/>
<path id="Vector_58" fill-rule="evenodd" clip-rule="evenodd" d="M111.071 170.71C111.28 170.643 111.504 170.643 111.712 170.71C111.915 170.798 112.081 170.953 112.185 171.148L116.1 178.291C116.132 178.458 116.132 178.63 116.1 178.797C116.149 178.95 116.149 179.115 116.1 179.269C116.023 179.432 115.892 179.563 115.729 179.639C115.573 179.674 115.412 179.674 115.256 179.639H111.375C111.244 179.649 111.112 179.631 110.989 179.586C110.865 179.54 110.753 179.468 110.66 179.376C110.567 179.283 110.496 179.171 110.45 179.048C110.404 178.925 110.386 178.793 110.396 178.662V171.653C110.396 171.445 110.468 171.243 110.599 171.08C110.708 170.905 110.875 170.774 111.071 170.71ZM112.286 175.495V177.82H113.569L112.286 175.495Z" fill="#545454"/>
<path id="Vector_59" fill-rule="evenodd" clip-rule="evenodd" d="M115.223 178.932H111.375V171.822L115.223 178.932Z" fill="#FEF2E0"/>
<path id="Vector_60" fill-rule="evenodd" clip-rule="evenodd" d="M111.071 170.71C111.28 170.643 111.504 170.643 111.712 170.71C111.915 170.798 112.081 170.953 112.185 171.148L116.1 178.291C116.132 178.458 116.132 178.63 116.1 178.797C116.149 178.95 116.149 179.115 116.1 179.269C116.023 179.432 115.892 179.563 115.729 179.639C115.573 179.674 115.412 179.674 115.256 179.639H111.375C111.244 179.649 111.112 179.631 110.989 179.586C110.865 179.54 110.753 179.468 110.66 179.376C110.567 179.283 110.496 179.171 110.45 179.048C110.404 178.925 110.386 178.793 110.396 178.662V171.653C110.396 171.445 110.468 171.243 110.599 171.08C110.708 170.905 110.875 170.774 111.071 170.71ZM112.286 175.495V177.82H113.569L112.286 175.495Z" fill="#545454"/>
<path id="Vector_61" fill-rule="evenodd" clip-rule="evenodd" d="M100.406 178.932H104.355V171.822L100.406 178.932Z" fill="#FEF2E0"/>
<path id="Vector_62" fill-rule="evenodd" clip-rule="evenodd" d="M104.625 170.71C104.843 170.768 105.033 170.899 105.165 171.08C105.296 171.243 105.368 171.445 105.368 171.653V178.932C105.368 179.064 105.341 179.195 105.289 179.317C105.236 179.438 105.16 179.548 105.064 179.639C104.88 179.81 104.64 179.906 104.389 179.909H100.44C100.275 179.955 100.1 179.955 99.934 179.909C99.7977 179.823 99.6825 179.708 99.5965 179.572C99.5627 179.417 99.5627 179.256 99.5965 179.1C99.5505 178.935 99.5505 178.76 99.5965 178.595L103.511 171.451C103.583 171.232 103.725 171.042 103.916 170.912C104.129 170.778 104.375 170.708 104.625 170.71ZM102.128 177.82H103.41V175.562L102.128 177.82Z" fill="#545454"/>
</g>
</g>
<defs>
<clipPath id="clip0_4652_16135">
<rect width="216" height="216" fill="white"/>
</clipPath>
</defs>
</svg>
