<svg width="216" height="216" viewBox="0 0 216 216" fill="none" xmlns="http://www.w3.org/2000/svg">
<rect width="216" height="216" fill="#F5F5F5"/>
<g id="Best centre">
<g id="Group 756">
<path id="Vector" fill-rule="evenodd" clip-rule="evenodd" d="M163.945 215.802C162.784 215.802 161.635 215.572 160.564 215.126C159.492 214.681 158.519 214.028 157.701 213.205L127.832 183.354C125.614 186.517 122.653 189.088 119.209 190.842C115.764 192.595 111.942 193.477 108.078 193.411C104.213 193.344 100.424 192.331 97.0421 190.46C93.6605 188.589 90.7899 185.917 88.682 182.679L58.3068 213.036C57.4908 213.862 56.5184 214.517 55.4464 214.963C54.3743 215.409 53.2241 215.637 52.0629 215.634C49.9854 215.656 47.966 214.949 46.3564 213.636C44.7468 212.323 43.649 210.488 43.2541 208.449L38.8667 184.838L15.2415 180.453C13.6552 180.156 12.18 179.432 10.9745 178.36C9.76906 177.287 8.87901 175.907 8.4 174.366C7.921 172.826 7.87119 171.185 8.25601 169.618C8.64083 168.052 9.44567 166.62 10.584 165.477L37.3816 138.695C25.1016 121.88 19.2431 101.231 20.8648 80.4778C22.4864 59.7241 31.4812 40.2344 46.2242 25.5292C60.286 11.5023 78.7096 2.68118 98.4591 0.519429C118.209 -1.64232 138.106 2.98424 154.872 13.6368C171.639 24.2893 184.274 40.3323 190.696 59.1223C197.118 77.9122 196.944 98.3281 190.202 117.006C187.387 124.79 183.465 132.128 178.559 138.796L205.356 165.578C206.495 166.721 207.3 168.153 207.684 169.719C208.069 171.286 208.019 172.927 207.54 174.468C207.061 176.008 206.171 177.388 204.966 178.461C203.76 179.533 202.285 180.257 200.699 180.554L177.074 184.905L172.72 208.516C172.335 210.553 171.251 212.392 169.656 213.715C168.06 215.039 166.052 215.765 163.979 215.769L163.945 215.802Z" fill="white"/>
<path id="Vector_2" fill-rule="evenodd" clip-rule="evenodd" d="M201.847 169.053L172.012 139.236C181.797 127.136 187.955 112.516 189.774 97.0656C191.592 81.615 188.998 65.9656 182.29 51.9271C175.582 37.8887 165.035 26.0347 151.868 17.7363C138.701 9.4379 123.453 5.03403 107.887 5.03403C92.3204 5.03403 77.072 9.4379 63.9053 17.7363C50.7386 26.0347 40.1913 37.8887 33.4834 51.9271C26.7754 65.9656 24.1808 81.615 25.9996 97.0656C27.8184 112.516 33.9764 127.136 43.7613 139.236L13.8922 169.053C13.3624 169.558 12.9835 170.2 12.7978 170.908C12.612 171.616 12.6266 172.361 12.8402 173.061C13.0538 173.761 13.4578 174.387 14.0072 174.871C14.5565 175.354 15.2294 175.676 15.9509 175.799L40.2849 180.319C41.0624 180.467 41.7773 180.846 42.337 181.405C42.8967 181.965 43.2753 182.679 43.4236 183.456L47.9463 207.742C48.058 208.471 48.3732 209.153 48.8557 209.71C49.3383 210.267 49.9685 210.677 50.6738 210.892C51.3792 211.107 52.1309 211.118 52.8426 210.925C53.5542 210.732 54.1968 210.342 54.6963 209.8L95.5678 168.952C99.6681 169.563 103.808 169.868 107.954 169.863C112.031 169.862 116.103 169.569 120.138 168.986L161.178 209.698C161.683 210.228 162.326 210.607 163.034 210.792C163.742 210.978 164.488 210.963 165.188 210.75C165.888 210.536 166.515 210.133 166.999 209.584C167.483 209.035 167.805 208.362 167.928 207.641L172.417 183.355C172.561 182.567 172.942 181.842 173.509 181.276C174.076 180.709 174.801 180.329 175.59 180.184L199.89 175.698C200.589 175.558 201.237 175.23 201.764 174.748C202.29 174.267 202.675 173.651 202.877 172.967C203.078 172.283 203.089 171.556 202.907 170.867C202.726 170.177 202.359 169.55 201.847 169.053Z" fill="#FEF2E0"/>
<path id="Vector_3" fill-rule="evenodd" clip-rule="evenodd" d="M64.4499 118.626L14.0607 168.952C13.5309 169.457 13.152 170.099 12.9662 170.807C12.7804 171.514 12.7951 172.26 13.0086 172.96C13.2222 173.659 13.6263 174.286 14.1756 174.77C14.7249 175.253 15.398 175.575 16.1196 175.698L40.4534 180.218C41.2309 180.366 41.946 180.745 42.5057 181.304C43.0654 181.863 43.4438 182.578 43.5921 183.355L48.1147 207.641C48.2264 208.369 48.5416 209.051 49.0242 209.609C49.5068 210.166 50.1372 210.576 50.8425 210.791C51.5478 211.006 52.2996 211.017 53.0112 210.824C53.7228 210.631 54.3653 210.241 54.8648 209.698L105.153 159.272C105.88 158.528 106.288 157.529 106.288 156.489C106.288 155.449 105.88 154.45 105.153 153.706L70.0524 118.626C69.6877 118.253 69.2519 117.956 68.7709 117.754C68.2898 117.551 67.773 117.447 67.251 117.447C66.729 117.447 66.2123 117.551 65.7312 117.754C65.2501 117.956 64.8146 118.253 64.4499 118.626Z" fill="#F28602"/>
<g id="Group">
<mask id="mask0_4652_16135" style="mask-type:alpha" maskUnits="userSpaceOnUse" x="12" y="117" width="95" height="94">
<path id="Vector_4" fill-rule="evenodd" clip-rule="evenodd" d="M64.4499 118.626L14.0607 168.952C13.5309 169.457 13.152 170.099 12.9662 170.807C12.7804 171.514 12.7951 172.26 13.0086 172.96C13.2222 173.659 13.6263 174.286 14.1756 174.77C14.7249 175.253 15.398 175.575 16.1196 175.698L40.4534 180.218C41.2309 180.366 41.946 180.745 42.5057 181.304C43.0654 181.863 43.4438 182.578 43.5921 183.355L48.1147 207.641C48.2264 208.369 48.5416 209.051 49.0242 209.609C49.5068 210.166 50.1372 210.576 50.8425 210.791C51.5478 211.006 52.2996 211.017 53.0112 210.824C53.7228 210.631 54.3653 210.241 54.8648 209.698L105.153 159.272C105.88 158.528 106.288 157.529 106.288 156.489C106.288 155.449 105.88 154.45 105.153 153.706L70.0524 118.626C69.6877 118.253 69.2519 117.956 68.7709 117.754C68.2898 117.551 67.773 117.447 67.251 117.447C66.729 117.447 66.2123 117.551 65.7312 117.754C65.2501 117.956 64.8146 118.253 64.4499 118.626Z" fill="#F28602"/>
</mask>
<g mask="url(#mask0_4652_16135)">
<path id="Vector_5" fill-rule="evenodd" clip-rule="evenodd" d="M36.3021 198.871L25.5696 188.212L94.2512 119.571L104.95 130.263L36.3021 198.871Z" fill="#FEF2E0"/>
</g>
</g>
<path id="Vector_6" fill-rule="evenodd" clip-rule="evenodd" d="M151.39 118.626L201.847 169.222C202.39 169.721 202.78 170.363 202.973 171.075C203.167 171.786 203.155 172.537 202.94 173.242C202.725 173.947 202.315 174.577 201.757 175.059C201.2 175.541 200.517 175.856 199.788 175.968L175.488 180.454C174.7 180.599 173.974 180.979 173.408 181.545C172.841 182.112 172.46 182.837 172.316 183.625L167.928 207.641C167.805 208.362 167.483 209.035 166.999 209.584C166.515 210.133 165.888 210.536 165.188 210.75C164.488 210.963 163.742 210.978 163.034 210.792C162.326 210.607 161.683 210.228 161.178 209.698L110.553 159.272C109.825 158.528 109.418 157.529 109.418 156.489C109.418 155.449 109.825 154.45 110.553 153.706L145.687 118.626C146.053 118.237 146.495 117.927 146.985 117.716C147.476 117.504 148.004 117.394 148.539 117.394C149.073 117.394 149.602 117.504 150.092 117.716C150.583 117.927 151.024 118.237 151.39 118.626Z" fill="#F28602"/>
<g id="Group_2">
<mask id="mask1_4652_16135" style="mask-type:alpha" maskUnits="userSpaceOnUse" x="109" y="117" width="95" height="94">
<path id="Vector_7" fill-rule="evenodd" clip-rule="evenodd" d="M151.39 118.626L201.847 169.222C202.39 169.721 202.78 170.363 202.973 171.075C203.167 171.786 203.155 172.537 202.94 173.242C202.725 173.947 202.315 174.577 201.757 175.059C201.2 175.541 200.517 175.856 199.788 175.968L175.488 180.454C174.7 180.599 173.974 180.979 173.408 181.545C172.841 182.112 172.46 182.837 172.316 183.625L167.928 207.641C167.805 208.362 167.483 209.035 166.999 209.584C166.515 210.133 165.888 210.536 165.188 210.75C164.488 210.963 163.742 210.978 163.034 210.792C162.326 210.607 161.683 210.228 161.178 209.698L110.553 159.272C109.825 158.528 109.418 157.529 109.418 156.489C109.418 155.449 109.825 154.45 110.553 153.706L145.687 118.626C146.053 118.237 146.495 117.927 146.985 117.716C147.476 117.504 148.004 117.394 148.539 117.394C149.073 117.394 149.602 117.504 150.092 117.716C150.583 117.927 151.024 118.237 151.39 118.626Z" fill="#F28602"/>
</mask>
<g mask="url(#mask1_4652_16135)">
<path id="Vector_8" fill-rule="evenodd" clip-rule="evenodd" d="M190.473 188.415L179.775 199.107L111.093 130.466L121.792 119.807L190.473 188.415Z" fill="#FEF2E0"/>
</g>
</g>
<path id="Vector_9" fill-rule="evenodd" clip-rule="evenodd" d="M189.57 86.8874C189.576 70.6679 184.773 54.8108 175.766 41.3215C166.76 27.8323 153.956 17.3169 138.973 11.1054C123.99 4.89387 107.501 3.26521 91.5927 6.4254C75.684 9.5856 61.0701 17.3927 49.5988 28.8593C38.1275 40.3258 30.3144 54.9368 27.1477 70.8441C23.981 86.7515 25.6028 103.241 31.8082 118.226C38.0136 133.212 48.5238 146.02 62.0094 155.032C75.4949 164.044 91.3501 168.854 107.57 168.854C129.312 168.854 150.163 160.219 165.54 144.848C180.917 129.478 189.561 108.629 189.57 86.8874Z" fill="#FEF2E0"/>
<path id="Vector_10" fill-rule="evenodd" clip-rule="evenodd" d="M23.106 87.2909C23.0993 70.5047 28.0738 54.0934 37.4004 40.1329C46.7269 26.1724 59.9865 15.2897 75.5022 8.86127C91.0179 2.43282 108.093 0.747389 124.567 4.01814C141.041 7.28889 156.175 15.3689 168.054 27.2362C179.933 39.1035 188.024 54.2251 191.303 70.6883C194.582 87.1516 192.903 104.217 186.476 119.726C180.05 135.235 169.167 148.491 155.201 157.818C141.236 167.145 124.818 172.123 108.021 172.123C96.8717 172.127 85.8304 169.936 75.5282 165.675C65.226 161.414 55.8646 155.166 47.979 147.288C40.0935 139.41 33.8381 130.057 29.5703 119.762C25.3025 109.468 23.106 98.434 23.106 87.2909ZM108.021 7.34994C92.2085 7.38328 76.7602 12.1001 63.6285 20.9043C50.4967 29.7086 40.2707 42.2053 34.2425 56.8155C28.2142 71.4257 26.6544 87.4939 29.7598 102.99C32.8652 118.486 40.4966 132.714 51.6898 143.877C62.883 155.04 77.1357 162.637 92.6472 165.708C108.159 168.779 124.233 167.186 138.839 161.13C153.445 155.075 165.928 144.829 174.709 131.686C183.491 118.544 188.178 103.095 188.178 87.2909C188.178 76.7787 186.104 66.3697 182.073 56.6598C178.043 46.9499 172.136 38.1298 164.691 30.7044C157.245 23.279 148.407 17.3941 138.683 13.3866C128.959 9.37913 118.54 7.32777 108.021 7.34994Z" fill="#545454"/>
<path id="Vector_11" fill-rule="evenodd" clip-rule="evenodd" d="M170.291 137.617C170.744 137.18 171.349 136.936 171.978 136.936C172.608 136.936 173.213 137.18 173.666 137.617L203.501 167.401C204.326 168.227 204.909 169.263 205.188 170.396C205.466 171.53 205.43 172.718 205.083 173.832C204.735 174.946 204.09 175.945 203.217 176.72C202.343 177.494 201.274 178.016 200.126 178.228L175.792 182.714C175.501 182.774 175.234 182.918 175.024 183.127C174.814 183.337 174.671 183.604 174.611 183.895L170.122 208.181C169.91 209.328 169.388 210.396 168.613 211.269C167.838 212.142 166.838 212.787 165.723 213.134C164.608 213.482 163.42 213.518 162.286 213.239C161.151 212.961 160.115 212.378 159.288 211.554L132.288 184.569C132.01 184.099 131.895 183.549 131.964 183.007C132.032 182.465 132.28 181.961 132.666 181.574C133.053 181.188 133.557 180.941 134.1 180.872C134.643 180.804 135.192 180.918 135.663 181.196L162.663 208.181C162.849 208.37 163.082 208.505 163.339 208.572C163.596 208.638 163.866 208.632 164.12 208.556C164.374 208.479 164.602 208.335 164.78 208.138C164.957 207.941 165.077 207.699 165.127 207.438L169.616 183.119C169.862 181.85 170.481 180.684 171.396 179.771C172.31 178.857 173.477 178.237 174.746 177.992L199.08 173.506C199.343 173.461 199.589 173.345 199.79 173.169C199.991 172.994 200.141 172.766 200.221 172.512C200.301 172.257 200.309 171.985 200.245 171.726C200.181 171.467 200.046 171.231 199.856 171.043L170.291 140.99C169.854 140.537 169.609 139.932 169.609 139.303C169.609 138.674 169.854 138.069 170.291 137.617Z" fill="#545454"/>
<path id="Vector_12" fill-rule="evenodd" clip-rule="evenodd" d="M45.6508 137.414C46.088 137.867 46.3323 138.472 46.3323 139.101C46.3323 139.73 46.088 140.335 45.6508 140.787L15.8156 170.605C15.6254 170.792 15.4908 171.029 15.4264 171.288C15.3621 171.547 15.3705 171.819 15.4507 172.073C15.531 172.328 15.6799 172.555 15.8813 172.731C16.0826 172.906 16.3284 173.023 16.5917 173.067L40.8919 177.587C42.1631 177.828 43.3322 178.446 44.2472 179.361C45.1621 180.275 45.7806 181.444 46.022 182.714L50.5444 207C50.5892 207.263 50.7058 207.509 50.8812 207.71C51.0567 207.911 51.2845 208.06 51.5392 208.14C51.7939 208.221 52.0659 208.229 52.3251 208.165C52.5843 208.1 52.8208 207.966 53.0084 207.776L80.7847 179.982C80.9674 179.636 81.2286 179.339 81.5475 179.113C81.8664 178.886 82.2339 178.738 82.6205 178.68C83.0072 178.622 83.4021 178.655 83.7735 178.777C84.1449 178.899 84.4825 179.107 84.759 179.383C85.0354 179.659 85.243 179.997 85.3652 180.368C85.4874 180.739 85.5207 181.134 85.4624 181.52C85.4042 181.907 85.2559 182.274 85.0296 182.593C84.8034 182.911 84.5054 183.172 84.1597 183.355L56.5521 211.351L54.8308 209.597L56.5521 211.351C55.729 212.178 54.6949 212.763 53.5623 213.043C52.4296 213.323 51.242 213.287 50.1283 212.939C49.0147 212.591 48.0177 211.945 47.2461 211.07C46.4745 210.195 45.9577 209.126 45.752 207.978L41.2296 183.692C41.1831 183.396 41.0437 183.122 40.8314 182.91C40.6191 182.697 40.3448 182.558 40.0482 182.512L15.6806 178.093C14.5321 177.887 13.462 177.371 12.5868 176.6C11.7116 175.829 11.0648 174.832 10.7168 173.719C10.3688 172.606 10.333 171.419 10.6132 170.287C10.8933 169.155 11.4786 168.122 12.3056 167.299L42.1407 137.482C42.3629 137.241 42.6317 137.047 42.9309 136.912C43.23 136.778 43.5534 136.705 43.8813 136.699C44.2093 136.693 44.5351 136.753 44.8392 136.876C45.1433 136.999 45.4195 137.182 45.6508 137.414Z" fill="#545454"/>
<path id="Vector_13" fill-rule="evenodd" clip-rule="evenodd" d="M106.3 18.1436L109.405 24.4512L116.358 25.4631L111.329 30.354L112.51 37.2688L106.3 33.9969L100.09 37.2688L101.271 30.354L96.2424 25.4631L103.195 24.4512L106.3 18.1436Z" fill="#F28602"/>
<g id="Mask Group">
<mask id="mask2_4652_16135" style="mask-type:alpha" maskUnits="userSpaceOnUse" x="27" y="7" width="161" height="161">
<path id="Vector_14" fill-rule="evenodd" clip-rule="evenodd" d="M187.986 87.9957C187.992 72.1718 183.306 56.7015 174.519 43.5412C165.733 30.381 153.241 20.1221 138.623 14.0621C124.006 8.00203 107.919 6.41309 92.3986 9.4962C76.878 12.5793 62.6205 20.196 51.429 31.3829C40.2375 42.5698 32.6149 56.8244 29.5255 72.3437C26.436 87.8631 28.0183 103.95 34.0723 118.57C40.1264 133.19 50.3802 145.686 63.5369 154.478C76.6935 163.27 92.162 167.963 107.986 167.963C129.198 167.963 149.541 159.539 164.543 144.543C179.545 129.547 187.977 109.207 187.986 87.9957Z" fill="#FEF2E0"/>
</mask>
<g mask="url(#mask2_4652_16135)">
<g id="Group_3">
<path id="Vector_15" d="M79.2661 89.1441H136.641C136.641 90.4681 136.115 91.7379 135.178 92.6741C134.242 93.6103 132.971 94.1362 131.646 94.1362H84.2274C82.9085 94.1273 81.6466 93.5974 80.7172 92.6622C79.7877 91.7269 79.2661 90.4623 79.2661 89.1441Z" fill="#BF2C4E"/>
<path id="Vector_16" d="M123.175 97.0033H92.7661V100.275H123.175V97.0033Z" fill="#FF527F"/>
<path id="Vector_17" d="M66.5083 159.539L107.987 172.188L149.433 159.539L123.175 103.176H92.766L66.5083 159.539Z" fill="#81EAE3"/>
<path id="Vector_18" d="M135.899 163.283L112.881 170.299L107.987 171.817L103.06 170.299L80.0422 163.283L92.7661 102.805H123.175L135.899 163.283Z" fill="#BBF9F1"/>
<path id="Vector_19" d="M112.881 170.299L107.988 171.817L103.06 170.299L104.95 102.805H110.991L112.881 170.299Z" fill="white"/>
<path id="Vector_20" d="M128.204 68.265H87.7036V67.8602C87.7573 62.4927 89.9424 57.3664 93.778 53.6089C95.6772 51.7484 97.9244 50.28 100.391 49.2875C102.858 48.295 105.497 47.7978 108.156 47.8244C110.816 47.851 113.444 48.4008 115.89 49.4424C118.337 50.484 120.554 51.9971 122.416 53.8952C124.278 55.7932 125.747 58.0392 126.74 60.5048C127.733 62.9704 128.23 65.6073 128.204 68.265Z" fill="#F28602"/>
<path id="Vector_21" d="M117.944 52.5467C115.107 56.9985 111.192 60.6622 106.56 63.1977C101.928 65.7333 96.731 67.0586 91.4501 67.0507H89.6274C89.6955 63.7917 90.6455 60.6119 92.3767 57.8491C94.1078 55.0864 96.5555 52.8439 99.4596 51.3599C102.364 49.8758 105.616 49.2057 108.87 49.4206C112.125 49.6355 115.26 50.7274 117.944 52.5804V52.5467Z" fill="#110000" fill-opacity="0.3"/>
<path id="Vector_22" d="M164.992 79.3623H50.9496C48.6569 79.3623 46.7983 81.2198 46.7983 83.5111V83.5449C46.7983 85.8362 48.6569 87.6937 50.9496 87.6937H164.992C167.284 87.6937 169.143 85.8362 169.143 83.5449V83.5111C169.143 81.2198 167.284 79.3623 164.992 79.3623Z" fill="#FF527F"/>
<path id="Vector_23" d="M167.152 83.5111C167.152 83.9584 166.974 84.3874 166.657 84.7037C166.341 85.02 165.912 85.1977 165.464 85.1977C165.017 85.1977 164.587 85.02 164.271 84.7037C163.954 84.3874 163.777 83.9584 163.777 83.5111C163.777 83.0638 163.954 82.6349 164.271 82.3186C164.587 82.0023 165.017 81.8246 165.464 81.8246C165.912 81.8246 166.341 82.0023 166.657 82.3186C166.974 82.6349 167.152 83.0638 167.152 83.5111Z" fill="#BF2C4E"/>
<path id="Vector_24" d="M155.103 85.1639C156.016 85.1639 156.757 84.4239 156.757 83.5111C156.757 82.5983 156.016 81.8583 155.103 81.8583C154.189 81.8583 153.449 82.5983 153.449 83.5111C153.449 84.4239 154.189 85.1639 155.103 85.1639Z" fill="#BF2C4E"/>
<path id="Vector_25" d="M144.707 85.1639C145.621 85.1639 146.361 84.4239 146.361 83.5111C146.361 82.5983 145.621 81.8583 144.707 81.8583C143.794 81.8583 143.054 82.5983 143.054 83.5111C143.054 84.4239 143.794 85.1639 144.707 85.1639Z" fill="#BF2C4E"/>
<path id="Vector_26" d="M134.279 85.1639C135.192 85.1639 135.933 84.4239 135.933 83.5111C135.933 82.5983 135.192 81.8583 134.279 81.8583C133.366 81.8583 132.625 82.5983 132.625 83.5111C132.625 84.4239 133.366 85.1639 134.279 85.1639Z" fill="#BF2C4E"/>
<path id="Vector_27" d="M123.884 85.1639C124.797 85.1639 125.537 84.4239 125.537 83.5111C125.537 82.5983 124.797 81.8583 123.884 81.8583C122.97 81.8583 122.23 82.5983 122.23 83.5111C122.23 84.4239 122.97 85.1639 123.884 85.1639Z" fill="#BF2C4E"/>
<path id="Vector_28" d="M115.109 83.5111C115.113 83.7266 115.075 83.9407 114.995 84.1411C114.916 84.3414 114.798 84.5239 114.647 84.6778C114.496 84.8318 114.316 84.9541 114.117 85.0375C113.918 85.121 113.705 85.164 113.489 85.1639C113.05 85.1639 112.63 84.9898 112.319 84.6798C112.009 84.3699 111.835 83.9495 111.835 83.5111C111.835 83.2956 111.878 83.0823 111.962 82.8837C112.045 82.685 112.168 82.505 112.322 82.3542C112.476 82.2034 112.658 82.0849 112.859 82.0055C113.059 81.9261 113.273 81.8876 113.489 81.8921C113.703 81.8875 113.916 81.9262 114.114 82.0059C114.313 82.0857 114.493 82.2048 114.645 82.356C114.796 82.5073 114.915 82.6876 114.995 82.8861C115.075 83.0847 115.113 83.2973 115.109 83.5111Z" fill="#BF2C4E"/>
<path id="Vector_29" d="M103.094 85.1639C104.007 85.1639 104.747 84.4239 104.747 83.5111C104.747 82.5983 104.007 81.8583 103.094 81.8583C102.18 81.8583 101.44 82.5983 101.44 83.5111C101.44 84.4239 102.18 85.1639 103.094 85.1639Z" fill="#BF2C4E"/>
<path id="Vector_30" d="M92.6647 85.1639C93.5781 85.1639 94.3185 84.4239 94.3185 83.5111C94.3185 82.5983 93.5781 81.8583 92.6647 81.8583C91.7514 81.8583 91.011 82.5983 91.011 83.5111C91.011 84.4239 91.7514 85.1639 92.6647 85.1639Z" fill="#BF2C4E"/>
<path id="Vector_31" d="M82.2695 85.1639C83.1828 85.1639 83.9232 84.4239 83.9232 83.5111C83.9232 82.5983 83.1828 81.8583 82.2695 81.8583C81.3561 81.8583 80.6157 82.5983 80.6157 83.5111C80.6157 84.4239 81.3561 85.1639 82.2695 85.1639Z" fill="#BF2C4E"/>
<path id="Vector_32" d="M71.8747 85.1639C72.7881 85.1639 73.5285 84.4239 73.5285 83.5111C73.5285 82.5983 72.7881 81.8583 71.8747 81.8583C70.9614 81.8583 70.2209 82.5983 70.2209 83.5111C70.2209 84.4239 70.9614 85.1639 71.8747 85.1639Z" fill="#BF2C4E"/>
<path id="Vector_33" d="M63.0996 83.5111C63.0996 83.9584 62.9219 84.3874 62.6055 84.7037C62.289 85.02 61.8597 85.1977 61.4121 85.1977C60.9646 85.1977 60.5353 85.02 60.2188 84.7037C59.9023 84.3874 59.7246 83.9584 59.7246 83.5111C59.7246 83.0638 59.9023 82.6349 60.2188 82.3186C60.5353 82.0023 60.9646 81.8246 61.4121 81.8246C61.8597 81.8246 62.289 82.0023 62.6055 82.3186C62.9219 82.6349 63.0996 83.0638 63.0996 83.5111Z" fill="#BF2C4E"/>
<path id="Vector_34" d="M51.0505 85.1639C51.9638 85.1639 52.7042 84.4239 52.7042 83.5111C52.7042 82.5983 51.9638 81.8583 51.0505 81.8583C50.1371 81.8583 49.3967 82.5983 49.3967 83.5111C49.3967 84.4239 50.1371 85.1639 51.0505 85.1639Z" fill="#BF2C4E"/>
<path id="Vector_35" d="M128.204 70.2551H87.7039C74.6464 71.9156 61.8044 74.9687 49.3975 79.3623H166.443C154.059 74.9694 141.24 71.9162 128.204 70.2551Z" fill="#94EBFF"/>
<path id="Vector_36" d="M168.367 78.0806C168.101 77.6748 167.71 77.3668 167.253 77.2036C155.783 73.1915 143.965 70.2555 131.95 68.4337C131.942 64.5619 130.999 60.7492 129.201 57.3197C127.403 53.8902 124.803 50.9452 121.623 48.7351C117.667 45.9609 112.955 44.4658 108.123 44.4514C101.838 44.4939 95.8188 46.9847 91.3438 51.3941C86.8688 55.8034 84.2914 61.7835 84.1597 68.0626V68.6698C72.1331 70.4857 60.3029 73.4218 48.8234 77.4397C48.3761 77.62 47.9896 77.9243 47.7095 78.3167C46.525 79.056 45.6126 80.1598 45.1099 81.4619C44.6071 82.7641 44.5412 84.1942 44.9218 85.5371C45.3025 86.88 46.1093 88.063 47.2207 88.9082C48.3321 89.7533 49.688 90.2149 51.0846 90.2235H75.6884C75.8981 92.3766 76.9028 94.3744 78.5064 95.8274C80.11 97.2805 82.1977 98.0845 84.3622 98.0827H89.1547V102.333L61.4459 161.867L107.009 175.764L108.089 176.101L154.765 161.867L126.921 102.333V97.8465H131.68C133.848 97.8491 135.94 97.0463 137.549 95.5939C139.158 94.1416 140.17 92.1434 140.388 89.9874H164.958C166.354 89.9788 167.71 89.5172 168.822 88.672C169.933 87.8269 170.74 86.6439 171.12 85.301C171.501 83.9581 171.435 82.528 170.932 81.2258C170.43 79.9236 169.517 78.8199 168.333 78.0806H168.367ZM93.6773 99.4319V97.8465H122.399V99.4319H93.6773ZM122.702 104.019L148.319 159.033L108.021 171.311L67.6896 159.033L93.2723 104.019H122.702ZM135.798 89.9874C135.624 90.9343 135.124 91.7903 134.384 92.4066C133.644 93.0229 132.711 93.3604 131.748 93.3604H84.2273C83.2658 93.3539 82.3364 93.0141 81.5978 92.3989C80.8591 91.7837 80.357 90.9314 80.1772 89.9874H135.798ZM88.5472 67.4555C88.7969 62.4763 90.9425 57.781 94.5443 54.3318C98.1462 50.8826 102.932 48.9406 107.92 48.9038C112.915 48.916 117.715 50.8499 121.322 54.3041C124.929 57.7583 127.067 62.4678 127.293 67.4555H88.5472ZM128.001 72.5488C135.822 73.5357 143.569 75.0458 151.188 77.0686H64.7196C72.2893 75.0795 79.9772 73.5699 87.7372 72.5488H128.001ZM166.814 83.5111C166.814 84.0121 166.615 84.4926 166.26 84.8468C165.906 85.201 165.425 85.4 164.924 85.4H50.9496C50.4961 85.3391 50.08 85.1157 49.7788 84.7714C49.4775 84.4272 49.3116 83.9853 49.3116 83.528C49.3116 83.0707 49.4775 82.6289 49.7788 82.2846C50.08 81.9403 50.4961 81.7169 50.9496 81.656H164.958C165.453 81.6559 165.929 81.8503 166.282 82.1972C166.636 82.5442 166.839 83.016 166.848 83.5111H166.814Z" fill="#545454"/>
</g>
</g>
</g>
<path id="Vector_37" fill-rule="evenodd" clip-rule="evenodd" d="M126.719 169.66C126.719 165.951 125.619 162.325 123.557 159.241C121.495 156.157 118.564 153.753 115.135 152.334C111.706 150.915 107.933 150.543 104.293 151.267C100.653 151.99 97.3094 153.777 94.685 156.399C92.0607 159.022 90.2736 162.364 89.5496 166.002C88.8255 169.64 89.197 173.411 90.6173 176.837C92.0375 180.264 94.4429 183.193 97.5288 185.254C100.615 187.315 104.243 188.415 107.954 188.415C112.931 188.415 117.704 186.439 121.223 182.922C124.742 179.405 126.719 174.634 126.719 169.66Z" fill="#F28602"/>
<path id="Vector_38" fill-rule="evenodd" clip-rule="evenodd" d="M87.2315 169.66C87.2248 165.555 88.4373 161.539 90.7155 158.123C92.9936 154.706 96.235 152.042 100.029 150.468C103.823 148.894 107.999 148.48 112.029 149.28C116.058 150.079 119.76 152.055 122.665 154.958C125.57 157.862 127.547 161.561 128.347 165.588C129.147 169.615 128.733 173.789 127.158 177.581C125.582 181.373 122.917 184.612 119.498 186.889C116.08 189.166 112.062 190.378 107.954 190.371C102.461 190.362 97.1951 188.177 93.3108 184.295C89.4265 180.413 87.2404 175.15 87.2315 169.66ZM107.954 152.795C104.616 152.795 101.354 153.784 98.5787 155.638C95.8036 157.491 93.6407 160.125 92.3634 163.206C91.0862 166.288 90.7519 169.679 91.4031 172.951C92.0542 176.222 93.6615 179.227 96.0215 181.586C98.3815 183.945 101.388 185.551 104.662 186.202C107.935 186.852 111.328 186.518 114.412 185.242C117.495 183.965 120.131 181.804 121.985 179.03C123.839 176.257 124.829 172.996 124.829 169.66C124.802 165.205 123.013 160.941 119.851 157.8C116.689 154.659 112.412 152.896 107.954 152.896V152.795Z" fill="#545454"/>
<path id="Vector_39" fill-rule="evenodd" clip-rule="evenodd" d="M104.512 164.162V178.599H111.262V164.162" fill="#FEF2E0"/>
<path id="Vector_40" fill-rule="evenodd" clip-rule="evenodd" d="M103.533 164.162H105.49V177.655H110.553V164.162H112.544V179.577H103.668L103.533 164.162Z" fill="#545454"/>
<path id="Vector_41" fill-rule="evenodd" clip-rule="evenodd" d="M107.954 158.968L104.579 164.162H111.329L107.954 158.968Z" fill="#FEF2E0"/>
<path id="Vector_42" fill-rule="evenodd" clip-rule="evenodd" d="M107.954 157.855C108.119 157.856 108.282 157.897 108.429 157.973C108.575 158.049 108.702 158.159 108.798 158.293L112.173 163.454C112.265 163.607 112.314 163.782 112.314 163.96C112.314 164.138 112.265 164.313 112.173 164.466C112.091 164.629 111.966 164.765 111.811 164.861C111.656 164.956 111.477 165.006 111.295 165.006H104.545C104.399 164.998 104.257 164.958 104.128 164.888C104 164.818 103.889 164.72 103.803 164.601C103.714 164.447 103.667 164.273 103.667 164.095C103.667 163.917 103.714 163.743 103.803 163.589L107.178 158.428C107.244 158.272 107.351 158.136 107.487 158.035C107.624 157.934 107.785 157.872 107.954 157.855ZM106.368 163.016H109.743L108.123 160.621L106.368 163.016Z" fill="#545454"/>
<path id="Vector_43" fill-rule="evenodd" clip-rule="evenodd" d="M115.379 178.498H111.43V171.347L115.379 178.498Z" fill="#FEF2E0"/>
<path id="Vector_44" fill-rule="evenodd" clip-rule="evenodd" d="M111.194 170.369C111.409 170.32 111.635 170.343 111.836 170.435C112.037 170.526 112.203 170.681 112.308 170.875L116.223 178.093C116.305 178.243 116.349 178.411 116.349 178.582C116.349 178.753 116.305 178.921 116.223 179.071C116.135 179.216 116.011 179.336 115.863 179.419C115.715 179.502 115.548 179.545 115.379 179.543H111.43C111.17 179.543 110.921 179.44 110.738 179.257C110.554 179.074 110.451 178.825 110.451 178.565V171.347C110.451 171.125 110.523 170.909 110.657 170.733C110.791 170.556 110.98 170.428 111.194 170.369ZM112.443 175.192V177.52H113.691L112.443 175.192Z" fill="#545454"/>
<path id="Vector_45" fill-rule="evenodd" clip-rule="evenodd" d="M115.379 178.565H111.43V171.347L115.379 178.565Z" fill="#FEF2E0"/>
<path id="Vector_46" fill-rule="evenodd" clip-rule="evenodd" d="M111.194 170.47C111.405 170.406 111.633 170.418 111.836 170.505C112.04 170.591 112.207 170.746 112.308 170.942L116.223 178.093C116.305 178.243 116.349 178.411 116.349 178.582C116.349 178.753 116.305 178.922 116.223 179.071C116.135 179.216 116.011 179.336 115.863 179.419C115.715 179.502 115.548 179.545 115.379 179.543H111.43C111.17 179.543 110.921 179.44 110.738 179.257C110.554 179.074 110.451 178.825 110.451 178.565V171.347C110.467 171.141 110.547 170.946 110.68 170.788C110.813 170.631 110.993 170.519 111.194 170.47ZM112.443 175.26V177.587H113.691L112.443 175.26Z" fill="#545454"/>
<path id="Vector_47" fill-rule="evenodd" clip-rule="evenodd" d="M115.379 178.565H111.43V171.347L115.379 178.565Z" fill="#FEF2E0"/>
<path id="Vector_48" fill-rule="evenodd" clip-rule="evenodd" d="M111.194 170.47C111.405 170.406 111.633 170.418 111.836 170.505C112.04 170.591 112.207 170.746 112.308 170.942L116.223 178.093C116.305 178.243 116.349 178.411 116.349 178.582C116.349 178.753 116.305 178.922 116.223 179.071C116.135 179.216 116.011 179.336 115.863 179.419C115.715 179.502 115.548 179.545 115.379 179.543H111.43C111.17 179.543 110.921 179.44 110.738 179.257C110.554 179.074 110.451 178.825 110.451 178.565V171.347C110.467 171.141 110.547 170.946 110.68 170.788C110.813 170.631 110.993 170.519 111.194 170.47ZM112.443 175.26V177.587H113.691L112.443 175.26Z" fill="#545454"/>
<path id="Vector_49" fill-rule="evenodd" clip-rule="evenodd" d="M100.427 178.565H104.342V171.347L100.427 178.565Z" fill="#FEF2E0"/>
<path id="Vector_50" fill-rule="evenodd" clip-rule="evenodd" d="M104.714 170.47C104.925 170.523 105.113 170.644 105.247 170.815C105.382 170.986 105.455 171.197 105.456 171.414V178.565C105.456 178.825 105.354 179.074 105.17 179.257C104.986 179.44 104.737 179.543 104.478 179.543H100.428C100.256 179.547 100.086 179.505 99.9354 179.423C99.7848 179.34 99.6587 179.219 99.5698 179.072C99.4808 178.925 99.4321 178.757 99.4287 178.585C99.4252 178.413 99.4672 178.244 99.5502 178.093L103.803 170.942C103.89 170.781 104.023 170.65 104.185 170.566C104.348 170.481 104.532 170.448 104.714 170.47ZM102.217 177.587H103.499V175.26L102.217 177.587Z" fill="#545454"/>
<path id="Vector_51" fill-rule="evenodd" clip-rule="evenodd" d="M55.9785 109.452L54.2235 117.378L52.6035 109.317L54.2235 101.222L55.9785 109.452Z" fill="#F28602"/>
<path id="Vector_52" fill-rule="evenodd" clip-rule="evenodd" d="M54.325 111.138L46.2249 109.553L54.2574 107.765L62.3573 109.283L54.325 111.138Z" fill="#F28602"/>
<path id="Vector_53" fill-rule="evenodd" clip-rule="evenodd" d="M157.432 116.906L155.677 124.968L154.057 116.906L155.677 108.811L157.432 116.906Z" fill="#F28602"/>
<path id="Vector_54" fill-rule="evenodd" clip-rule="evenodd" d="M155.778 118.593L147.678 117.007L155.71 115.22L163.81 116.738L155.778 118.593Z" fill="#F28602"/>
</g>
</g>
</svg>
