<svg width="216" height="216" viewBox="0 0 216 216" fill="none" xmlns="http://www.w3.org/2000/svg">
<rect width="216" height="216" fill="#F5F5F5"/>
<g id="Communication">
<g id="Group">
<g id="Group 497">
<path id="Fill 493" fill-rule="evenodd" clip-rule="evenodd" d="M163.975 215.856C161.621 215.856 159.401 214.934 157.724 213.259L127.866 183.442C126.465 185.413 124.765 187.174 122.828 188.637C118.687 191.765 113.748 193.418 108.544 193.418C100.358 193.418 93.0042 189.279 88.7247 182.757L58.2755 213.164C56.5983 214.839 54.3785 215.762 52.0249 215.762C47.7437 215.762 44.0691 212.717 43.2879 208.522L38.8928 184.924L15.2625 180.535C12.0165 179.932 9.39258 177.601 8.41455 174.453C7.43653 171.304 8.27924 167.899 10.6136 165.568L37.4155 138.803C32.5331 132.126 28.6454 124.828 25.8333 117.054C22.401 107.564 20.6605 97.5918 20.6605 87.4154C20.6605 75.636 22.9716 64.206 27.5301 53.4437C31.9321 43.0511 38.2326 33.7182 46.2568 25.705C54.281 17.6913 63.6266 11.3994 74.0336 7.00373C84.8111 2.45121 96.2563 0.143507 108.052 0.143507C119.847 0.143507 131.293 2.45121 142.07 7.00373C152.477 11.3994 161.823 17.6913 169.847 25.705C177.871 33.7182 184.172 43.0511 188.574 53.4437C193.132 64.206 195.443 75.636 195.443 87.4154C195.443 97.6184 193.694 107.614 190.245 117.126C187.418 124.919 183.511 132.231 178.605 138.918L205.386 165.663C207.722 167.995 208.564 171.401 207.584 174.551C206.604 177.701 203.979 180.031 200.731 180.631L177.09 185.003L172.713 208.61C171.935 212.81 168.26 215.856 163.975 215.856H163.975Z" fill="white"/>
<path id="Fill 495" fill-rule="evenodd" clip-rule="evenodd" d="M64.4959 118.733L14.1055 169.055C11.8695 171.288 13.0566 175.109 16.1653 175.686L40.4769 180.202C42.0742 180.499 43.324 181.747 43.6211 183.342L48.1431 207.62C48.7211 210.725 52.5477 211.91 54.7838 209.677L105.174 159.356C106.708 157.824 106.708 155.339 105.174 153.807L70.0524 118.733C68.5179 117.201 66.0305 117.201 64.4959 118.733Z" fill="#A8EB85"/>
</g>
<g id="Group 500">
<mask id="mask0_4652_16135" style="mask-type:luminance" maskUnits="userSpaceOnUse" x="12" y="117" width="95" height="94">
<path id="Clip 499" fill-rule="evenodd" clip-rule="evenodd" d="M64.4957 118.733L14.1055 169.055C11.8695 171.288 13.0566 175.109 16.165 175.686L40.4766 180.202C42.0742 180.499 43.3241 181.747 43.6211 183.342L48.1428 207.62C48.7211 210.725 52.5478 211.91 54.7838 209.677L105.174 159.356C106.709 157.824 106.709 155.34 105.174 153.807L70.0525 118.733C69.285 117.967 68.2796 117.584 67.2742 117.584C66.2685 117.584 65.2631 117.967 64.4957 118.733Z" fill="white"/>
</mask>
<g mask="url(#mask0_4652_16135)">
<path id="Fill 498" fill-rule="evenodd" clip-rule="evenodd" d="M36.2829 198.93L25.5898 188.252L94.2777 119.658L104.971 130.336L36.2829 198.93Z" fill="#F0FCEA"/>
</g>
</g>
<path id="Fill 501" fill-rule="evenodd" clip-rule="evenodd" d="M151.408 118.733L201.894 169.15C204.131 171.384 202.942 175.207 199.831 175.782L175.509 180.279C173.909 180.576 172.657 181.825 172.361 183.423L167.857 207.712C167.281 210.819 163.453 212.006 161.216 209.772L110.73 159.356C109.196 157.824 109.196 155.339 110.73 153.807L145.852 118.733C147.386 117.201 149.874 117.201 151.408 118.733Z" fill="#A8EB85"/>
<g id="Group 505">
<mask id="mask1_4652_16135" style="mask-type:luminance" maskUnits="userSpaceOnUse" x="109" y="117" width="95" height="94">
<path id="Clip 504" fill-rule="evenodd" clip-rule="evenodd" d="M145.852 118.733L110.731 153.807C109.196 155.34 109.196 157.824 110.731 159.356L161.216 209.772C163.453 212.006 167.282 210.819 167.857 207.712L172.361 183.423C172.657 181.826 173.909 180.576 175.509 180.28L199.832 175.782C202.942 175.207 204.131 171.384 201.894 169.15L151.409 118.733C150.641 117.967 149.636 117.584 148.63 117.584C147.625 117.584 146.619 117.967 145.852 118.733Z" fill="white"/>
</mask>
<g mask="url(#mask1_4652_16135)">
<path id="Fill 503" fill-rule="evenodd" clip-rule="evenodd" d="M190.516 188.509L179.822 199.188L111.135 130.594L121.828 119.915L190.516 188.509Z" fill="#F0FCEA"/>
</g>
</g>
<g id="Group 516">
<path id="Fill 506" fill-rule="evenodd" clip-rule="evenodd" d="M190.505 87.415C190.505 41.9399 153.589 5.07491 108.052 5.07491C62.5144 5.07491 25.5989 41.9399 25.5989 87.415C25.5989 132.89 62.5144 169.755 108.052 169.755C153.589 169.755 190.505 132.89 190.505 87.415Z" fill="#F0FCEA"/>
<path id="Stroke 508 (Stroke)" fill-rule="evenodd" clip-rule="evenodd" d="M23.1299 87.4151C23.1299 40.573 61.1541 2.60578 108.052 2.60578C154.95 2.60578 192.974 40.573 192.974 87.4151C192.974 134.257 154.95 172.225 108.052 172.225C61.1541 172.225 23.1299 134.257 23.1299 87.4151ZM108.052 7.54405C63.8751 7.54405 28.0682 43.3068 28.0682 87.4151C28.0682 131.524 63.8751 167.286 108.052 167.286C152.229 167.286 188.036 131.524 188.036 87.4151C188.036 43.3068 152.229 7.54405 108.052 7.54405Z" fill="#545454"/>
<path id="Stroke 510 (Stroke)" fill-rule="evenodd" clip-rule="evenodd" d="M170.314 137.613C171.278 136.648 172.841 136.647 173.806 137.611L203.639 167.403C207.287 171.046 205.343 177.274 200.281 178.21L200.281 178.21L175.958 182.708C175.362 182.818 174.898 183.283 174.789 183.873L174.789 183.873L170.286 208.162L170.286 208.163C169.346 213.227 163.111 215.154 159.471 211.519L132.606 184.691C131.641 183.727 131.64 182.164 132.604 181.199C133.567 180.234 135.131 180.233 136.095 181.196L162.961 208.025C163.795 208.858 165.217 208.41 165.43 207.262C165.43 207.262 165.43 207.262 165.43 207.262L169.934 182.973C170.416 180.368 172.457 178.333 175.06 177.852L175.06 177.852L199.383 173.354C200.542 173.14 200.976 171.722 200.15 170.897L170.317 141.105C169.352 140.141 169.351 138.578 170.314 137.613Z" fill="#545454"/>
<path id="Stroke 512 (Stroke)" fill-rule="evenodd" clip-rule="evenodd" d="M45.6885 137.515C46.6521 138.48 46.651 140.043 45.6861 141.007L15.8503 170.802L15.8502 170.802C15.0245 171.627 15.458 173.044 16.6161 173.259L16.6163 173.259L40.9278 177.774C40.9278 177.774 40.9278 177.774 40.9279 177.774C43.5273 178.257 45.5642 180.289 46.0485 182.89C46.0485 182.89 46.0485 182.89 46.0485 182.89L50.5705 207.168L50.5705 207.168C50.7842 208.316 52.2055 208.763 53.0391 207.93L80.8314 180.176C81.7964 179.212 83.3597 179.213 84.3233 180.178C85.2869 181.143 85.2859 182.706 84.3209 183.67L56.5286 211.424L54.7839 209.677L56.5286 211.424C52.8902 215.058 46.6582 213.133 45.7157 208.072C45.7157 208.072 45.7157 208.072 45.7157 208.072L41.1937 183.794L41.1937 183.794C41.084 183.205 40.6211 182.74 40.0261 182.63L40.026 182.63L15.7146 178.114C10.6555 177.175 8.71465 170.949 12.3608 167.308C12.3609 167.308 12.3609 167.308 12.3609 167.308L42.1966 137.513C43.1616 136.549 44.7249 136.55 45.6885 137.515Z" fill="#545454"/>
<path id="Fill 514" fill-rule="evenodd" clip-rule="evenodd" d="M104.711 98.1618L82.4951 121.911H135.916V121.807C135.95 121.807 135.984 121.808 136.019 121.808C153.982 121.808 168.545 107.266 168.545 89.3272C168.545 71.3884 153.982 56.8459 136.019 56.8459C118.055 56.8459 103.493 71.3884 103.493 89.3272C103.493 92.3897 103.918 95.3528 104.711 98.1618Z" fill="#A8EB85"/>
</g>
<g id="Group 523">
<g id="Group 519">
<mask id="mask2_4652_16135" style="mask-type:luminance" maskUnits="userSpaceOnUse" x="82" y="56" width="87" height="66">
<path id="Clip 518" fill-rule="evenodd" clip-rule="evenodd" d="M103.492 89.3273C103.492 92.3898 103.917 95.3529 104.711 98.1619L82.4949 121.911H135.915V121.807C135.95 121.807 135.984 121.808 136.019 121.808C153.982 121.808 168.544 107.266 168.544 89.3273C168.544 71.3882 153.982 56.846 136.019 56.846C118.055 56.846 103.492 71.3882 103.492 89.3273Z" fill="white"/>
</mask>
<g mask="url(#mask2_4652_16135)">
<path id="Fill 517" fill-rule="evenodd" clip-rule="evenodd" d="M98.0442 96.4358L75.8281 120.185H129.249V120.081C129.283 120.081 129.317 120.082 129.352 120.082C147.315 120.082 161.878 105.54 161.878 87.6012C161.878 69.6624 147.315 55.1199 129.352 55.1199C111.388 55.1199 96.8257 69.6624 96.8257 87.6012C96.8257 90.6637 97.2508 93.6268 98.0442 96.4358Z" fill="#A8EB85"/>
</g>
</g>
<g id="Group 522">
<mask id="mask3_4652_16135" style="mask-type:luminance" maskUnits="userSpaceOnUse" x="82" y="56" width="87" height="66">
<path id="Clip 521" fill-rule="evenodd" clip-rule="evenodd" d="M103.492 89.3273C103.492 92.3898 103.917 95.3529 104.711 98.1619L82.4949 121.911H135.915V121.807C135.95 121.807 135.984 121.808 136.019 121.808C153.982 121.808 168.544 107.266 168.544 89.3273C168.544 71.3882 153.982 56.846 136.019 56.846C118.055 56.846 103.492 71.3882 103.492 89.3273Z" fill="white"/>
</mask>
<g mask="url(#mask3_4652_16135)">
<path id="Fill 520" fill-rule="evenodd" clip-rule="evenodd" d="M142.474 55.1199C140.227 55.1199 138.032 55.3478 135.913 55.7813C150.731 58.8124 161.878 71.9068 161.878 87.6011C161.878 105.54 147.315 120.082 129.352 120.082C129.317 120.082 129.283 120.081 129.249 120.081V120.185H142.371V120.081C142.406 120.081 142.44 120.082 142.474 120.082C160.438 120.082 175 105.54 175 87.6011C175 69.6625 160.438 55.1199 142.474 55.1199Z" fill="#5AB93B"/>
</g>
</g>
</g>
<g id="Group 576">
<path id="Stroke 524 (Stroke)" fill-rule="evenodd" clip-rule="evenodd" d="M101.097 89.3272C101.097 70.0623 116.735 54.4504 136.019 54.4504C155.302 54.4504 170.94 70.0624 170.94 89.3272C170.94 108.389 155.631 123.873 136.629 124.199C136.404 124.269 136.164 124.307 135.916 124.307H82.4949C81.5405 124.307 80.6772 123.74 80.2974 122.865C79.9175 121.989 80.0935 120.972 80.7455 120.275L102.06 97.4893C101.43 94.8692 101.097 92.1359 101.097 89.3272ZM107.066 97.7253C107.051 97.6395 107.03 97.5544 107.005 97.4705C106.278 94.8828 105.888 92.1523 105.888 89.3272C105.888 72.7145 119.375 59.2413 136.019 59.2413C152.662 59.2413 166.149 72.7144 166.149 89.3272C166.149 105.94 152.662 119.413 136.019 119.413L136.02 119.413C136.02 119.413 136.016 119.413 136.001 119.413C135.992 119.413 135.972 119.412 135.949 119.412C135.939 119.412 135.927 119.412 135.916 119.412C135.672 119.412 135.437 119.448 135.216 119.516H88.0157L106.431 99.8299C106.491 99.7673 106.548 99.7015 106.602 99.633C106.816 99.3586 106.961 99.0494 107.039 98.7278C107.117 98.407 107.13 98.0664 107.066 97.7253ZM135.916 124.203L135.914 124.203L135.916 124.203Z" fill="#545454"/>
<path id="Fill 526" fill-rule="evenodd" clip-rule="evenodd" d="M124.106 86.356C124.106 87.2496 123.381 87.9741 122.486 87.9741C121.591 87.9741 120.866 87.2496 120.866 86.356C120.866 85.4624 121.591 84.738 122.486 84.738C123.381 84.738 124.106 85.4624 124.106 86.356Z" fill="#545454"/>
<path id="Fill 528" fill-rule="evenodd" clip-rule="evenodd" d="M151.163 86.356C151.163 87.2496 150.438 87.9741 149.543 87.9741C148.648 87.9741 147.923 87.2496 147.923 86.356C147.923 85.4624 148.648 84.738 149.543 84.738C150.438 84.738 151.163 85.4624 151.163 86.356Z" fill="#545454"/>
<path id="Fill 530" fill-rule="evenodd" clip-rule="evenodd" d="M143.643 91.1775C147.162 91.1775 149.426 94.9933 147.647 98.0254C145.289 102.046 140.918 104.746 135.915 104.746C130.966 104.746 126.635 102.103 124.26 98.1541C122.414 95.085 124.605 91.1775 128.191 91.1775H143.643Z" fill="#545454"/>
<path id="Fill 532" fill-rule="evenodd" clip-rule="evenodd" d="M64.6411 56.8645C61.1119 56.8867 58.2428 59.7882 58.2648 63.3125L58.5588 110.169L71.3919 110.089L71.0979 63.2321C71.0759 59.7078 68.1702 56.8426 64.6411 56.8645Z" fill="white"/>
<path id="Stroke 534 (Stroke)" fill-rule="evenodd" clip-rule="evenodd" d="M73.5668 63.2167C73.5668 63.2167 73.5668 63.2167 73.5668 63.2167L73.8609 110.073C73.865 110.728 73.6088 111.358 73.1487 111.824C72.6885 112.29 72.0621 112.554 71.4073 112.558L58.5742 112.638C57.2106 112.647 56.0982 111.548 56.0897 110.184L55.7956 63.328C55.7651 58.4369 59.7358 54.4262 64.6254 54.3954C69.5147 54.365 73.5363 58.3253 73.5668 63.2167ZM64.6565 59.3336C66.8254 59.3202 68.6152 61.0903 68.6287 63.2475L68.9072 107.635L61.0123 107.684L60.7338 63.2971C60.7338 63.297 60.7338 63.2971 60.7338 63.2971C60.7204 61.1396 62.4879 59.3473 64.6565 59.3336C64.6566 59.3336 64.6564 59.3336 64.6565 59.3336Z" fill="#545454"/>
<path id="Fill 536" fill-rule="evenodd" clip-rule="evenodd" d="M65.0502 122.043L71.3949 110.589L58.562 110.669L65.0502 122.043Z" fill="white"/>
<path id="Stroke 538 (Stroke)" fill-rule="evenodd" clip-rule="evenodd" d="M73.5181 109.329C73.9657 110.083 73.9796 111.019 73.5546 111.786L67.21 123.24C66.7776 124.02 65.9578 124.507 65.0655 124.512C64.1733 124.518 63.3475 124.042 62.9053 123.267L56.4172 111.893C55.9826 111.131 55.9848 110.196 56.4229 109.436C56.8611 108.676 57.6694 108.206 58.5465 108.2L71.3793 108.12C72.2564 108.115 73.0705 108.575 73.5181 109.329ZM62.798 113.112L65.0184 117.005L67.1898 113.085L62.798 113.112Z" fill="#545454"/>
<g id="Group 543">
<path id="Stroke 542 (Stroke)" fill-rule="evenodd" clip-rule="evenodd" d="M64.2971 122.508C64.2971 121.185 65.3696 120.113 66.6926 120.113H72.6185C73.9414 120.113 75.0139 121.185 75.0139 122.508C75.0139 123.831 73.9414 124.904 72.6185 124.904H66.6926C65.3696 124.904 64.2971 123.831 64.2971 122.508Z" fill="#545454"/>
</g>
<path id="Fill 544" fill-rule="evenodd" clip-rule="evenodd" d="M127.31 169.747C127.31 159.397 118.908 151.007 108.544 151.007C98.1803 151.007 89.7788 159.397 89.7788 169.747C89.7788 180.097 98.1803 188.487 108.544 188.487C118.908 188.487 127.31 180.097 127.31 169.747Z" fill="#A8EB85"/>
<path id="Stroke 546 (Stroke)" fill-rule="evenodd" clip-rule="evenodd" d="M87.8035 169.747C87.8035 158.304 97.0919 149.032 108.544 149.032C119.997 149.032 129.285 158.304 129.285 169.747C129.285 181.19 119.997 190.462 108.544 190.462C97.0919 190.462 87.8035 181.19 87.8035 169.747ZM108.544 152.982C99.2686 152.982 91.7541 160.491 91.7541 169.747C91.7541 179.003 99.2686 186.511 108.544 186.511C117.82 186.511 125.334 179.003 125.334 169.747C125.334 160.491 117.82 152.982 108.544 152.982Z" fill="#545454"/>
<g id="Group 551">
<path id="Fill 548" fill-rule="evenodd" clip-rule="evenodd" d="M105.099 164.239V178.689H111.989V173.15V164.239" fill="#F0FCEA"/>
<path id="Stroke 550 (Stroke)" fill-rule="evenodd" clip-rule="evenodd" d="M104.111 164.239H106.087V177.702H111.002V164.239H112.977V179.677H104.111V164.239Z" fill="#545454"/>
</g>
<path id="Fill 552" fill-rule="evenodd" clip-rule="evenodd" d="M108.544 159.078L105.099 164.239H111.989L108.544 159.078Z" fill="#F0FCEA"/>
<path id="Stroke 554 (Stroke)" fill-rule="evenodd" clip-rule="evenodd" d="M108.544 158.091C108.874 158.091 109.183 158.256 109.366 158.53L112.811 163.691C113.013 163.994 113.032 164.384 112.861 164.705C112.689 165.026 112.354 165.227 111.99 165.227H105.099C104.735 165.227 104.4 165.026 104.228 164.705C104.056 164.384 104.075 163.994 104.278 163.691L107.723 158.53C107.906 158.256 108.214 158.091 108.544 158.091ZM106.946 163.252H110.143L108.544 160.857L106.946 163.252Z" fill="#545454"/>
<path id="Fill 556" fill-rule="evenodd" clip-rule="evenodd" d="M115.952 178.587H112.024V171.43L115.952 178.587Z" fill="#F0FCEA"/>
<path id="Stroke 558 (Stroke)" fill-rule="evenodd" clip-rule="evenodd" d="M111.779 170.473C112.216 170.361 112.673 170.56 112.89 170.955L116.818 178.111C116.985 178.417 116.979 178.789 116.802 179.09C116.624 179.39 116.301 179.574 115.952 179.574H112.024C111.479 179.574 111.036 179.132 111.036 178.587V171.43C111.036 170.979 111.342 170.585 111.779 170.473ZM113.012 175.283V177.599H114.283L113.012 175.283Z" fill="#545454"/>
<path id="Fill 560" fill-rule="evenodd" clip-rule="evenodd" d="M115.952 178.655H112.024V171.499L115.952 178.655Z" fill="#F0FCEA"/>
<path id="Stroke 562 (Stroke)" fill-rule="evenodd" clip-rule="evenodd" d="M111.779 170.542C112.216 170.43 112.673 170.628 112.89 171.024L116.818 178.18C116.985 178.486 116.979 178.858 116.802 179.158C116.624 179.459 116.301 179.643 115.952 179.643H112.024C111.479 179.643 111.036 179.201 111.036 178.655V171.499C111.036 171.048 111.342 170.654 111.779 170.542ZM113.012 175.351V177.668H114.283L113.012 175.351Z" fill="#545454"/>
<path id="Fill 564" fill-rule="evenodd" clip-rule="evenodd" d="M115.952 178.655H112.024V171.499L115.952 178.655Z" fill="#F0FCEA"/>
<path id="Stroke 566 (Stroke)" fill-rule="evenodd" clip-rule="evenodd" d="M111.779 170.542C112.216 170.43 112.673 170.628 112.89 171.024L116.818 178.18C116.985 178.486 116.979 178.858 116.802 179.158C116.624 179.459 116.301 179.643 115.952 179.643H112.024C111.479 179.643 111.036 179.201 111.036 178.655V171.499C111.036 171.048 111.342 170.654 111.779 170.542ZM113.012 175.351V177.668H114.283L113.012 175.351Z" fill="#545454"/>
<path id="Fill 568" fill-rule="evenodd" clip-rule="evenodd" d="M101.137 178.655H105.064V171.499L101.137 178.655Z" fill="#F0FCEA"/>
<path id="Stroke 570 (Stroke)" fill-rule="evenodd" clip-rule="evenodd" d="M105.31 170.542C105.746 170.654 106.052 171.048 106.052 171.499V178.655C106.052 179.201 105.61 179.643 105.064 179.643H101.137C100.788 179.643 100.465 179.459 100.287 179.158C100.109 178.858 100.103 178.486 100.271 178.18L104.198 171.024C104.415 170.629 104.873 170.43 105.31 170.542ZM102.805 177.668H104.077V175.351L102.805 177.668Z" fill="#545454"/>
<path id="Stroke 572 (Stroke)" fill-rule="evenodd" clip-rule="evenodd" d="M128.05 72.8461C125.342 72.8461 122.926 74.0875 121.338 76.0393C120.477 77.0971 118.922 77.2568 117.864 76.3961C116.806 75.5354 116.647 73.9803 117.507 72.9225C119.994 69.8669 123.794 67.9078 128.05 67.9078C129.414 67.9078 130.52 69.0133 130.52 70.3769C130.52 71.7406 129.414 72.8461 128.05 72.8461Z" fill="white"/>
<path id="Stroke 574 (Stroke)" fill-rule="evenodd" clip-rule="evenodd" d="M117.136 78.2295C118.497 78.3234 119.523 79.5023 119.43 80.8627C119.416 81.0644 119.408 81.2681 119.408 81.4729C119.408 82.8366 118.303 83.9421 116.939 83.9421C115.576 83.9421 114.47 82.8366 114.47 81.4729C114.47 81.1535 114.481 80.8364 114.503 80.5228C114.597 79.1624 115.776 78.1356 117.136 78.2295Z" fill="white"/>
</g>
</g>
</g>
</svg>
