<svg width="200" height="141" viewBox="0 0 200 141" fill="none" xmlns="http://www.w3.org/2000/svg">
<rect width="200" height="141" fill="#F5F5F5"/>
<g id="Empty/ Comment">
<g id="Illustration/Comment">
<path id="Rectangle 5625" d="M162 0H42C36.4772 0 32 4.47715 32 10V130C32 135.523 36.4772 140 42 140H162C167.523 140 172 135.523 172 130V10C172 4.47715 167.523 0 162 0Z" fill="#E8E3F2"/>
<g id="Group 26800">
<g id="Group" filter="url(#filter0_d_4652_16135)">
<path id="Path 25918" d="M54 55H189C190.061 55 191.078 55.4217 191.828 56.1719C192.578 56.922 193 57.9391 193 59V84C193 85.0609 192.578 86.078 191.828 86.8281C191.078 87.5783 190.061 88 189 88H54C52.9391 88 51.922 87.5783 51.1719 86.8281C50.4217 86.078 50 85.0609 50 84V59C50 57.9391 50.4217 56.922 51.1719 56.1719C51.922 55.4217 52.9391 55 54 55Z" fill="white" stroke="#A0A0A0" stroke-width="2"/>
</g>
<g id="Group 26775">
<path id="Rectangle 5617" d="M128 62H102C100.343 62 99 63.3431 99 65C99 66.6569 100.343 68 102 68H128C129.657 68 131 66.6569 131 65C131 63.3431 129.657 62 128 62Z" fill="#B9ABD8"/>
<path id="Rectangle 5618" d="M146 75H102C100.343 75 99 76.3431 99 78C99 79.6569 100.343 81 102 81H146C147.657 81 149 79.6569 149 78C149 76.3431 147.657 75 146 75Z" fill="#E8E3F2"/>
</g>
<g id="Group 26799">
<g id="Group 26756">
<path id="Ellipse 647" d="M79.5 81C84.7467 81 89 76.7467 89 71.5C89 66.2533 84.7467 62 79.5 62C74.2533 62 70 66.2533 70 71.5C70 76.7467 74.2533 81 79.5 81Z" fill="#A18FCC"/>
<g id="Icons / Account / Active">
<g id="Group 6">
<path id="Shape" fill-rule="evenodd" clip-rule="evenodd" d="M74.6947 71.0935C74.8128 68.5653 76.921 66.55 79.5 66.55C82.079 66.55 84.1872 68.5653 84.3053 71.0935H84.5417C84.7923 71.0935 85 71.2993 85 71.5478V72.9109C85 73.1593 84.7923 73.3652 84.5417 73.3652H84.3125V75.5234L84.2194 75.5943C84.2194 75.5943 82.2769 77 79.5 77C76.7231 77 74.7806 75.5943 74.7806 75.5943L74.6875 75.5234V73.3652H74.4583C74.2077 73.3652 74 73.1593 74 72.9109V71.5478C74 71.2993 74.2077 71.0935 74.4583 71.0935H74.6947ZM83.8542 71.3206C83.8542 68.9344 81.9071 67.0043 79.5 67.0043C77.0929 67.0043 75.1458 68.9344 75.1458 71.3206V75.282C75.3831 75.4444 77.0651 76.5456 79.5 76.5456C81.9349 76.5456 83.6169 75.4444 83.8542 75.282V71.3206ZM79.5 68.5946C78.0964 68.5946 77.1188 68.9433 76.4922 69.4678C75.8656 69.9922 75.6042 70.687 75.6042 71.3206V72.7263C75.6042 73.4664 76.0088 74.1062 76.6927 74.5295C77.3766 74.9528 78.3345 75.1826 79.5 75.1826C80.6655 75.1826 81.6234 74.9528 82.3073 74.5295C82.9097 74.1559 83.2911 73.6119 83.3743 72.9818L83.3747 72.9793L83.3747 72.9793C83.3853 72.8959 83.3958 72.8133 83.3958 72.7263V71.3206C83.3958 70.695 83.1335 70.0011 82.5078 69.4749C81.8821 68.9486 80.9045 68.5946 79.5 68.5946ZM82.207 69.8227C81.6825 69.3817 80.8267 69.0489 79.5 69.0489C78.1724 69.0489 77.3167 69.3772 76.793 69.8156C76.2693 70.254 76.0625 70.8095 76.0625 71.3206V72.7263C76.0625 73.3075 76.3543 73.7858 76.9362 74.1461C77.5181 74.5064 78.3953 74.7282 79.5 74.7282C80.6047 74.7282 81.4819 74.5064 82.0638 74.1461C82.259 74.0254 82.4138 73.8879 82.5436 73.7415C82.4004 73.7876 82.241 73.8196 82.0566 73.8196H81.0397C80.96 73.9553 80.815 74.0467 80.6458 74.0467C80.3925 74.0467 80.1875 73.8435 80.1875 73.5924C80.1875 73.3412 80.3925 73.138 80.6458 73.138C80.815 73.138 80.96 73.2294 81.0397 73.3652H82.0566C82.4353 73.3652 82.643 73.2294 82.7728 73.0954C82.8856 72.9792 82.9214 72.8869 82.9303 72.8612C82.9339 72.8168 82.9375 72.7724 82.9375 72.7263V71.3206C82.9375 70.8193 82.7316 70.2637 82.207 69.8227ZM74.4583 71.5478H74.6875V72.9109H74.4583V71.5478ZM84.5417 71.5478H84.3125V72.9109H84.5417V71.5478Z" fill="white"/>
</g>
</g>
</g>
</g>
</g>
<g id="Group 26798">
<g id="Group_2" filter="url(#filter1_d_4652_16135)">
<path id="Path 25919" d="M11 97H146C147.326 97 148.598 97.5268 149.536 98.4645C150.473 99.4021 151 100.674 151 102V127C151 128.326 150.473 129.598 149.536 130.536C148.598 131.473 147.326 132 146 132H11C9.67392 132 8.40215 131.473 7.46447 130.536C6.52678 129.598 6 128.326 6 127V102C6 100.674 6.52678 99.4021 7.46447 98.4645C8.40215 97.5268 9.67392 97 11 97V97Z" fill="white"/>
</g>
<g id="Group 26775_2">
<path id="Rectangle 5617_2" d="M85 105H59C57.3431 105 56 106.343 56 108C56 109.657 57.3431 111 59 111H85C86.6569 111 88 109.657 88 108C88 106.343 86.6569 105 85 105Z" fill="#F8B24C"/>
<path id="Rectangle 5618_2" d="M103 118H59C57.3431 118 56 119.343 56 121C56 122.657 57.3431 124 59 124H103C104.657 124 106 122.657 106 121C106 119.343 104.657 118 103 118Z" fill="#FCDEB1"/>
</g>
<g id="Group 26796">
<g id="Group 26757">
<g id="Ellipse 648">
<path id="Vector" d="M23.5 124C28.7467 124 33 119.747 33 114.5C33 109.253 28.7467 105 23.5 105C18.2533 105 14 109.253 14 114.5C14 119.747 18.2533 124 23.5 124Z" fill="#F7A226"/>
</g>
<g id="Icons / Account / Active_2">
<g id="Group 6_2">
<path id="Shape_2" fill-rule="evenodd" clip-rule="evenodd" d="M18.6947 114.093C18.8128 111.565 20.921 109.55 23.5 109.55C26.079 109.55 28.1872 111.565 28.3053 114.093H28.5417C28.7923 114.093 29 114.299 29 114.548V115.911C29 116.159 28.7923 116.365 28.5417 116.365H28.3125V118.523L28.2194 118.594C28.2194 118.594 26.2769 120 23.5 120C20.7231 120 18.7806 118.594 18.7806 118.594L18.6875 118.523V116.365H18.4583C18.2077 116.365 18 116.159 18 115.911V114.548C18 114.299 18.2077 114.093 18.4583 114.093H18.6947ZM27.8542 114.321C27.8542 111.934 25.9071 110.004 23.5 110.004C21.0929 110.004 19.1458 111.934 19.1458 114.321V118.282C19.3831 118.444 21.0651 119.546 23.5 119.546C25.9349 119.546 27.6169 118.444 27.8542 118.282V114.321ZM23.5 111.595C22.0964 111.595 21.1188 111.943 20.4922 112.468C19.8656 112.992 19.6042 113.687 19.6042 114.321V115.726C19.6042 116.466 20.0088 117.106 20.6927 117.529C21.3766 117.953 22.3345 118.183 23.5 118.183C24.6655 118.183 25.6234 117.953 26.3073 117.529C26.9097 117.156 27.2911 116.612 27.3743 115.982L27.3747 115.979L27.3747 115.979C27.3853 115.896 27.3958 115.813 27.3958 115.726V114.321C27.3958 113.695 27.1335 113.001 26.5078 112.475C25.8821 111.949 24.9045 111.595 23.5 111.595ZM26.207 112.823C25.6825 112.382 24.8267 112.049 23.5 112.049C22.1724 112.049 21.3167 112.377 20.793 112.816C20.2693 113.254 20.0625 113.809 20.0625 114.321V115.726C20.0625 116.308 20.3543 116.786 20.9362 117.146C21.5181 117.506 22.3953 117.728 23.5 117.728C24.6047 117.728 25.4819 117.506 26.0638 117.146C26.259 117.025 26.4138 116.888 26.5436 116.741C26.4004 116.788 26.241 116.82 26.0566 116.82H25.0397C24.96 116.955 24.815 117.047 24.6458 117.047C24.3925 117.047 24.1875 116.844 24.1875 116.592C24.1875 116.341 24.3925 116.138 24.6458 116.138C24.815 116.138 24.96 116.229 25.0397 116.365H26.0566C26.4353 116.365 26.643 116.229 26.7728 116.095C26.8856 115.979 26.9214 115.887 26.9303 115.861C26.9339 115.817 26.9375 115.772 26.9375 115.726V114.321C26.9375 113.819 26.7316 113.264 26.207 112.823ZM18.4583 114.548H18.6875V115.911H18.4583V114.548ZM28.5417 114.548H28.3125V115.911H28.5417V114.548Z" fill="white"/>
</g>
</g>
</g>
</g>
</g>
<g id="Group 26802">
<g id="Group_3" filter="url(#filter2_d_4652_16135)">
<path id="Rectangle 5623" d="M11 12H146C148.209 12 150 13.7909 150 16V41C150 43.2091 148.209 45 146 45H11C8.79086 45 7 43.2091 7 41V16C7 13.7909 8.79086 12 11 12Z" fill="white" stroke="#686868" stroke-width="2"/>
</g>
<g id="Group 26775_3">
<path id="Rectangle 5617_3" d="M83 19H57C55.3431 19 54 20.3431 54 22C54 23.6569 55.3431 25 57 25H83C84.6569 25 86 23.6569 86 22C86 20.3431 84.6569 19 83 19Z" fill="#7BCAC5"/>
<path id="Rectangle 5618_3" d="M101 32H57C55.3431 32 54 33.3431 54 35C54 36.6569 55.3431 38 57 38H101C102.657 38 104 36.6569 104 35C104 33.3431 102.657 32 101 32Z" fill="#DFF2F1"/>
</g>
<g id="Group 26801">
<g id="Group 26756_2">
<path id="Ellipse 647_2" d="M36.5 38C41.7467 38 46 33.7467 46 28.5C46 23.2533 41.7467 19 36.5 19C31.2533 19 27 23.2533 27 28.5C27 33.7467 31.2533 38 36.5 38Z" fill="#01A39D"/>
<g id="Icons / Account / Active_3">
<g id="Group 6_3">
<path id="Shape_3" fill-rule="evenodd" clip-rule="evenodd" d="M31.6947 28.0935C31.8128 25.5653 33.921 23.55 36.5 23.55C39.079 23.55 41.1872 25.5653 41.3053 28.0935H41.5417C41.7923 28.0935 42 28.2993 42 28.5478V29.9109C42 30.1593 41.7923 30.3652 41.5417 30.3652H41.3125V32.5234L41.2194 32.5943C41.2194 32.5943 39.2769 34 36.5 34C33.7231 34 31.7806 32.5943 31.7806 32.5943L31.6875 32.5234V30.3652H31.4583C31.2077 30.3652 31 30.1593 31 29.9109V28.5478C31 28.2993 31.2077 28.0935 31.4583 28.0935H31.6947ZM40.8542 28.3206C40.8542 25.9344 38.9071 24.0043 36.5 24.0043C34.0929 24.0043 32.1458 25.9344 32.1458 28.3206V32.282C32.3831 32.4444 34.0651 33.5456 36.5 33.5456C38.9349 33.5456 40.6169 32.4444 40.8542 32.282V28.3206ZM36.5 25.5946C35.0964 25.5946 34.1188 25.9433 33.4922 26.4678C32.8656 26.9922 32.6042 27.687 32.6042 28.3206V29.7263C32.6042 30.4664 33.0088 31.1062 33.6927 31.5295C34.3766 31.9528 35.3345 32.1826 36.5 32.1826C37.6655 32.1826 38.6234 31.9528 39.3073 31.5295C39.9097 31.1559 40.2911 30.6119 40.3743 29.9818L40.3747 29.9793L40.3747 29.9793C40.3853 29.8959 40.3958 29.8133 40.3958 29.7263V28.3206C40.3958 27.695 40.1335 27.0011 39.5078 26.4749C38.8821 25.9486 37.9045 25.5946 36.5 25.5946ZM39.207 26.8227C38.6825 26.3817 37.8267 26.0489 36.5 26.0489C35.1724 26.0489 34.3167 26.3772 33.793 26.8156C33.2693 27.254 33.0625 27.8095 33.0625 28.3206V29.7263C33.0625 30.3075 33.3543 30.7858 33.9362 31.1461C34.5181 31.5064 35.3953 31.7282 36.5 31.7282C37.6047 31.7282 38.4819 31.5064 39.0638 31.1461C39.259 31.0254 39.4138 30.8879 39.5436 30.7415C39.4004 30.7876 39.241 30.8196 39.0566 30.8196H38.0397C37.96 30.9553 37.815 31.0467 37.6458 31.0467C37.3925 31.0467 37.1875 30.8435 37.1875 30.5924C37.1875 30.3412 37.3925 30.138 37.6458 30.138C37.815 30.138 37.96 30.2294 38.0397 30.3652H39.0566C39.4353 30.3652 39.643 30.2294 39.7728 30.0954C39.8856 29.9792 39.9214 29.8869 39.9303 29.8612C39.9339 29.8168 39.9375 29.7724 39.9375 29.7263V28.3206C39.9375 27.8193 39.7316 27.2637 39.207 26.8227ZM31.4583 28.5478H31.6875V29.9109H31.4583V28.5478ZM41.5417 28.5478H41.3125V29.9109H41.5417V28.5478Z" fill="white"/>
</g>
</g>
<path id="SD" d="M21.1597 21.6C21.1597 22.384 21.8597 23.07 22.8607 23.07C23.7777 23.07 24.4287 22.531 24.5057 21.775C24.5827 21.075 24.1837 20.536 23.2037 20.277L22.5877 20.116C22.0137 19.969 21.9437 19.675 21.9437 19.486C21.9437 19.094 22.3287 18.821 22.7767 18.821C23.2807 18.821 23.6167 19.101 23.6167 19.549H24.3587C24.3587 18.667 23.6867 18.121 22.7907 18.121C21.9437 18.121 21.2017 18.674 21.2017 19.5C21.2017 19.927 21.3627 20.515 22.3987 20.795L23.0077 20.949C23.4557 21.054 23.7987 21.285 23.7707 21.733C23.7217 22.09 23.4277 22.391 22.8607 22.391C22.2797 22.391 21.9227 21.992 21.9017 21.6H21.1597ZM26.2012 18.87H27.3352C28.2802 18.87 28.7632 19.647 28.7632 20.599C28.7632 21.558 28.2802 22.314 27.3352 22.314H26.2012V18.87ZM27.3352 23C28.7072 23 29.5052 21.971 29.5052 20.599C29.5052 19.227 28.7072 18.177 27.3352 18.177H25.4592V23H27.3352Z" fill="white"/>
</g>
</g>
</g>
</g>
</g>
<defs>
<filter id="filter0_d_4652_16135" x="43" y="51" width="157" height="47" filterUnits="userSpaceOnUse" color-interpolation-filters="sRGB">
<feFlood flood-opacity="0" result="BackgroundImageFix"/>
<feColorMatrix in="SourceAlpha" type="matrix" values="0 0 0 0 0 0 0 0 0 0 0 0 0 0 0 0 0 0 127 0" result="hardAlpha"/>
<feOffset dy="3"/>
<feGaussianBlur stdDeviation="3"/>
<feColorMatrix type="matrix" values="0 0 0 0 0 0 0 0 0 0 0 0 0 0 0 0 0 0 0.161 0"/>
<feBlend mode="normal" in2="BackgroundImageFix" result="effect1_dropShadow_4652_16135"/>
<feBlend mode="normal" in="SourceGraphic" in2="effect1_dropShadow_4652_16135" result="shape"/>
</filter>
<filter id="filter1_d_4652_16135" x="0" y="94" width="157" height="47" filterUnits="userSpaceOnUse" color-interpolation-filters="sRGB">
<feFlood flood-opacity="0" result="BackgroundImageFix"/>
<feColorMatrix in="SourceAlpha" type="matrix" values="0 0 0 0 0 0 0 0 0 0 0 0 0 0 0 0 0 0 127 0" result="hardAlpha"/>
<feOffset dy="3"/>
<feGaussianBlur stdDeviation="3"/>
<feColorMatrix type="matrix" values="0 0 0 0 0 0 0 0 0 0 0 0 0 0 0 0 0 0 0.161 0"/>
<feBlend mode="normal" in2="BackgroundImageFix" result="effect1_dropShadow_4652_16135"/>
<feBlend mode="normal" in="SourceGraphic" in2="effect1_dropShadow_4652_16135" result="shape"/>
</filter>
<filter id="filter2_d_4652_16135" x="0" y="8" width="157" height="47" filterUnits="userSpaceOnUse" color-interpolation-filters="sRGB">
<feFlood flood-opacity="0" result="BackgroundImageFix"/>
<feColorMatrix in="SourceAlpha" type="matrix" values="0 0 0 0 0 0 0 0 0 0 0 0 0 0 0 0 0 0 127 0" result="hardAlpha"/>
<feOffset dy="3"/>
<feGaussianBlur stdDeviation="3"/>
<feColorMatrix type="matrix" values="0 0 0 0 0 0 0 0 0 0 0 0 0 0 0 0 0 0 0.161 0"/>
<feBlend mode="normal" in2="BackgroundImageFix" result="effect1_dropShadow_4652_16135"/>
<feBlend mode="normal" in="SourceGraphic" in2="effect1_dropShadow_4652_16135" result="shape"/>
</filter>
</defs>
</svg>
