<svg width="216" height="216" viewBox="0 0 216 216" fill="none" xmlns="http://www.w3.org/2000/svg">
<rect width="216" height="216" fill="#F5F5F5"/>
<g id="Error">
<g id="Group 757">
<path id="Vector" fill-rule="evenodd" clip-rule="evenodd" d="M163.959 215.96C161.615 215.952 159.37 215.018 157.712 213.362L127.833 183.497C126.441 185.483 124.743 187.237 122.802 188.694C120.219 190.659 117.258 192.072 114.105 192.844C110.951 193.615 107.672 193.729 104.473 193.178C101.274 192.627 98.2219 191.423 95.5085 189.641C92.7951 187.86 90.4781 185.538 88.702 182.822L58.3157 213.193C57.5018 214.022 56.5295 214.679 55.4565 215.126C54.3836 215.572 53.2318 215.798 52.0696 215.791C49.9934 215.795 47.9816 215.071 46.384 213.745C44.7864 212.42 43.7041 210.576 43.3252 208.536L38.936 184.914L15.3023 180.527C13.7177 180.241 12.2408 179.53 11.0295 178.47C9.81813 177.41 8.91807 176.04 8.42557 174.508C7.93307 172.976 7.86667 171.338 8.2335 169.771C8.60032 168.204 9.38655 166.766 10.508 165.612L37.518 138.818C28.6151 126.651 23.0049 112.393 21.2305 97.4247C19.456 82.456 21.5774 67.2828 27.3893 53.3737C36.2953 32.4181 53.0026 15.7434 73.9815 6.87225C89.6496 0.267397 106.904 -1.63008 123.634 1.41193C140.364 4.45395 155.844 12.3036 168.181 24.0005C180.518 35.6975 189.176 50.7348 193.098 67.2728C197.019 83.8108 196.033 101.133 190.259 117.119C187.422 124.908 183.501 132.258 178.611 138.953L205.385 165.713C206.524 166.857 207.329 168.289 207.714 169.856C208.099 171.423 208.049 173.066 207.57 174.607C207.091 176.148 206.2 177.529 204.994 178.602C203.788 179.675 202.313 180.399 200.726 180.696L177.092 185.083L172.703 208.705C172.318 210.742 171.234 212.582 169.638 213.906C168.041 215.23 166.033 215.957 163.959 215.96Z" fill="white"/>
<path id="Vector_2" fill-rule="evenodd" clip-rule="evenodd" d="M64.5282 118.739L14.0533 169.087C13.5106 169.587 13.12 170.229 12.9266 170.941C12.7332 171.652 12.7447 172.404 12.9599 173.109C13.1751 173.814 13.5852 174.444 14.143 174.927C14.7008 175.409 15.3836 175.725 16.1128 175.836L40.4218 180.358C41.1995 180.507 41.9148 180.885 42.4747 181.445C43.0346 182.004 43.4133 182.719 43.5617 183.497L48.0858 207.793C48.1976 208.522 48.513 209.205 48.9957 209.762C49.4785 210.32 50.109 210.73 50.8146 210.945C51.5202 211.16 52.2722 211.171 52.984 210.978C53.6959 210.785 54.3387 210.394 54.8383 209.852L105.043 159.402C105.771 158.658 106.179 157.659 106.179 156.618C106.179 155.578 105.771 154.578 105.043 153.834L69.9977 118.739C69.2704 118.018 68.2874 117.613 67.2629 117.613C66.2384 117.613 65.2554 118.018 64.5282 118.739Z" fill="#F28602"/>
<g id="Group">
<path id="Vector_3" fill-rule="evenodd" clip-rule="evenodd" d="M46.4651 188.795L36.1338 177.726L94.2391 119.65L105.043 130.347L46.4651 188.795Z" fill="#FCE6EC"/>
</g>
<path id="Vector_4" fill-rule="evenodd" clip-rule="evenodd" d="M151.399 118.739L202.043 169.188C202.573 169.694 202.952 170.336 203.138 171.044C203.324 171.752 203.309 172.498 203.095 173.198C202.882 173.898 202.478 174.525 201.928 175.009C201.379 175.492 200.705 175.814 199.983 175.938L175.641 180.426C174.856 180.572 174.135 180.954 173.574 181.521C173.013 182.088 172.639 182.812 172.501 183.598L167.977 207.895C167.865 208.623 167.549 209.306 167.067 209.863C166.584 210.421 165.954 210.831 165.248 211.046C164.542 211.261 163.79 211.273 163.078 211.079C162.367 210.886 161.724 210.496 161.224 209.953L110.749 159.335C110.381 158.971 110.088 158.537 109.888 158.059C109.689 157.581 109.586 157.069 109.586 156.551C109.586 156.033 109.689 155.52 109.888 155.042C110.088 154.564 110.381 154.131 110.749 153.767L145.862 118.671C146.605 117.947 147.606 117.547 148.645 117.559C149.683 117.572 150.674 117.996 151.399 118.739Z" fill="#F28602"/>
<g id="Group_2">
<path id="Vector_5" fill-rule="evenodd" clip-rule="evenodd" d="M180.029 178.064L169.192 188.558L111.12 130.617L121.924 119.92L180.029 178.064Z" fill="#FCE6EC"/>
</g>
<path id="Vector_6" fill-rule="evenodd" clip-rule="evenodd" d="M190.496 87.3892C190.503 71.0825 185.671 55.1402 176.612 41.5785C167.553 28.0168 154.673 17.4449 139.602 11.2C124.531 4.9551 107.946 3.31768 91.9436 6.49486C75.9414 9.67203 61.2414 17.5211 49.7028 29.0492C38.1641 40.5774 30.3052 55.2668 27.1198 71.2596C23.9345 87.2525 25.566 103.83 31.8078 118.896C38.0497 133.962 48.6215 146.84 62.1863 155.9C75.7511 164.96 91.6994 169.796 108.014 169.796C129.884 169.796 150.858 161.115 166.326 145.662C181.793 130.208 190.487 109.248 190.496 87.3892Z" fill="#FCE6EC"/>
<path id="Vector_7" fill-rule="evenodd" clip-rule="evenodd" d="M23.0679 87.3892C23.0612 70.5953 28.0375 54.1767 37.3675 40.2099C46.6975 26.243 59.9619 15.3554 75.4833 8.92409C91.0046 2.49274 108.086 0.806543 124.566 4.07877C141.046 7.35099 156.185 15.4346 168.069 27.3073C179.952 39.18 188.046 54.3084 191.326 70.7791C194.606 87.2497 192.926 104.323 186.498 119.839C180.069 135.355 169.182 148.617 155.211 157.948C141.241 167.279 124.817 172.259 108.014 172.259C85.4909 172.259 63.8896 163.319 47.96 147.403C32.0305 131.488 23.0768 109.901 23.0679 87.3892ZM108.014 7.41208C92.1884 7.41208 76.7179 12.1026 63.5592 20.8906C50.4004 29.6786 40.1444 42.1693 34.0881 56.7832C28.0318 71.3971 26.4472 87.4779 29.5347 102.992C32.6222 118.506 40.2431 132.756 51.4336 143.941C62.6242 155.126 76.8819 162.744 92.4037 165.829C107.926 168.915 124.014 167.332 138.636 161.278C153.257 155.225 165.754 144.974 174.546 131.822C183.338 118.67 188.031 103.207 188.031 87.3892C188.031 76.8864 185.962 66.4865 181.94 56.7832C177.919 47.08 172.025 38.2634 164.595 30.8368C157.165 23.4103 148.344 17.5192 138.636 13.5C128.927 9.48075 118.522 7.41208 108.014 7.41208Z" fill="#545454"/>
<path id="Vector_8" fill-rule="evenodd" clip-rule="evenodd" d="M170.306 137.569C170.763 137.139 171.367 136.9 171.994 136.9C172.621 136.9 173.225 137.139 173.682 137.569L203.528 167.4C204.344 168.228 204.919 169.262 205.193 170.391C205.466 171.52 205.427 172.702 205.081 173.811C204.734 174.92 204.092 175.914 203.224 176.687C202.356 177.46 201.294 177.982 200.152 178.199L175.944 182.754C175.658 182.816 175.396 182.961 175.192 183.171C174.987 183.381 174.85 183.647 174.796 183.935L170.272 208.435C170.066 209.583 169.549 210.653 168.778 211.528C168.006 212.403 167.008 213.05 165.894 213.398C164.78 213.746 163.592 213.781 162.459 213.501C161.326 213.221 160.292 212.636 159.468 211.809L132.458 184.813C132.18 184.342 132.066 183.792 132.134 183.25C132.203 182.707 132.45 182.203 132.837 181.816C133.223 181.43 133.728 181.183 134.271 181.114C134.814 181.046 135.364 181.16 135.835 181.438L162.844 208.435C163.032 208.625 163.269 208.759 163.528 208.824C163.787 208.888 164.059 208.88 164.314 208.799C164.569 208.719 164.797 208.57 164.972 208.369C165.148 208.168 165.264 207.922 165.309 207.658L169.833 183.328C170.037 182.01 170.654 180.791 171.594 179.846C172.534 178.9 173.75 178.276 175.066 178.064L199.375 173.542C199.639 173.497 199.885 173.38 200.086 173.205C200.288 173.029 200.437 172.802 200.517 172.547C200.597 172.292 200.606 172.021 200.541 171.761C200.477 171.502 200.342 171.266 200.152 171.078L170.306 141.247C170.051 141.013 169.848 140.729 169.709 140.412C169.569 140.096 169.498 139.754 169.498 139.408C169.498 139.062 169.569 138.72 169.709 138.404C169.848 138.087 170.051 137.803 170.306 137.569Z" fill="#545454"/>
<path id="Vector_9" fill-rule="evenodd" clip-rule="evenodd" d="M45.6204 137.569C46.0577 138.022 46.3021 138.627 46.3021 139.256C46.3021 139.886 46.0577 140.49 45.6204 140.943L15.7743 170.775C15.5842 170.962 15.4495 171.198 15.3851 171.458C15.3207 171.717 15.3291 171.989 15.4094 172.243C15.4896 172.498 15.6387 172.726 15.8401 172.901C16.0415 173.077 16.2875 173.193 16.5509 173.238L40.8936 177.827C42.1653 178.069 43.3348 178.687 44.25 179.602C45.1653 180.517 45.784 181.686 46.0255 182.957L50.5497 207.254C50.6047 207.51 50.7268 207.748 50.9035 207.942C51.0803 208.136 51.3054 208.28 51.5559 208.359C51.8064 208.438 52.0734 208.449 52.3296 208.391C52.5858 208.333 52.8221 208.208 53.0143 208.03L80.8346 180.223C81.026 179.9 81.2888 179.625 81.603 179.419C81.9171 179.212 82.2743 179.081 82.6472 179.034C83.02 178.987 83.3987 179.025 83.7543 179.147C84.1098 179.269 84.4328 179.47 84.6986 179.736C84.9643 180.001 85.1658 180.324 85.2875 180.68C85.4093 181.035 85.4481 181.414 85.401 181.786C85.354 182.159 85.2223 182.516 85.016 182.83C84.8097 183.144 84.5343 183.407 84.2109 183.598L56.4244 211.37L54.6687 209.616L56.4244 211.37C55.5971 212.195 54.5603 212.778 53.4258 213.057C52.2912 213.336 51.1021 213.299 49.9867 212.952C48.8712 212.605 47.8719 211.96 47.0965 211.086C46.321 210.213 45.799 209.144 45.5866 207.996L41.0625 183.699C41.0134 183.409 40.8773 183.141 40.6723 182.93C40.4673 182.719 40.2031 182.575 39.9145 182.518L15.6393 178.064C14.4904 177.858 13.42 177.341 12.5444 176.57C11.6689 175.798 11.0219 174.801 10.6738 173.688C10.3256 172.574 10.2897 171.387 10.5699 170.254C10.8501 169.122 11.4358 168.088 12.263 167.265L42.1428 137.569C42.3693 137.337 42.6397 137.153 42.9383 137.028C43.2369 136.902 43.5576 136.837 43.8816 136.837C44.2056 136.837 44.5263 136.902 44.8249 137.028C45.1235 137.153 45.394 137.337 45.6204 137.569Z" fill="#545454"/>
<path id="Vector_10" fill-rule="evenodd" clip-rule="evenodd" d="M127.293 169.796C127.293 166.089 126.194 162.466 124.136 159.383C122.078 156.299 119.152 153.894 115.728 152.471C112.304 151.048 108.534 150.671 104.896 151.387C101.257 152.103 97.9123 153.88 95.283 156.493C92.6537 159.107 90.8579 162.441 90.1222 166.074C89.3864 169.707 89.7438 173.476 91.1491 176.906C92.5543 180.336 94.9446 183.274 98.0183 185.347C101.092 187.421 104.711 188.538 108.42 188.558C110.893 188.572 113.345 188.096 115.635 187.159C117.924 186.222 120.005 184.843 121.759 183.099C123.513 181.355 124.905 179.282 125.854 176.999C126.804 174.716 127.293 172.268 127.293 169.796Z" fill="#D54263"/>
<path id="Vector_11" fill-rule="evenodd" clip-rule="evenodd" d="M87.7569 169.796C87.7502 165.685 88.9649 161.666 91.2469 158.246C93.529 154.827 96.7755 152.161 100.575 150.589C104.374 149.016 108.556 148.606 112.588 149.411C116.621 150.216 120.324 152.2 123.227 155.111C126.13 158.023 128.103 161.73 128.896 165.763C129.688 169.797 129.264 173.974 127.678 177.767C126.092 181.559 123.415 184.795 119.986 187.065C116.558 189.335 112.532 190.536 108.42 190.516C102.933 190.498 97.6778 188.307 93.8047 184.423C89.9316 180.539 87.7568 175.279 87.7569 169.796ZM108.521 152.923C105.182 152.923 101.918 153.913 99.1421 155.767C96.366 157.621 94.2023 160.256 92.9246 163.339C91.6469 166.422 91.3126 169.815 91.9639 173.088C92.6153 176.361 94.2231 179.367 96.584 181.727C98.9449 184.086 101.953 185.693 105.227 186.344C108.502 186.996 111.896 186.661 114.981 185.384C118.066 184.107 120.702 181.945 122.557 179.17C124.412 176.395 125.402 173.133 125.402 169.796C125.389 167.58 124.939 165.389 124.078 163.347C123.218 161.305 121.963 159.452 120.386 157.895C118.809 156.337 116.941 155.106 114.887 154.27C112.834 153.434 110.636 153.011 108.42 153.024L108.521 152.923Z" fill="#545454"/>
<path id="Vector_12" fill-rule="evenodd" clip-rule="evenodd" d="M105.043 164.295V178.738H111.795V164.295" fill="#FCE6EC"/>
<path id="Vector_13" fill-rule="evenodd" clip-rule="evenodd" d="M104.098 164.295H106.056V177.794H110.985V164.295H112.943V179.751H104.098V164.295Z" fill="#545454"/>
<path id="Vector_14" fill-rule="evenodd" clip-rule="evenodd" d="M108.419 159.132L105.043 164.295H111.795L108.419 159.132Z" fill="#FCE6EC"/>
<path id="Vector_15" fill-rule="evenodd" clip-rule="evenodd" d="M108.42 158.12C108.581 158.118 108.74 158.157 108.882 158.234C109.024 158.311 109.144 158.422 109.23 158.559L112.606 163.722C112.695 163.876 112.742 164.05 112.742 164.228C112.742 164.406 112.695 164.58 112.606 164.734C112.525 164.897 112.399 165.033 112.244 165.129C112.089 165.224 111.91 165.274 111.728 165.274H105.043C104.861 165.274 104.683 165.224 104.528 165.129C104.373 165.033 104.247 164.897 104.166 164.734C104.073 164.581 104.024 164.406 104.024 164.228C104.024 164.049 104.073 163.874 104.166 163.722L107.542 158.559C107.634 158.412 107.765 158.294 107.919 158.217C108.074 158.139 108.247 158.106 108.42 158.12ZM106.799 163.283H110.175L108.42 160.887L106.799 163.283Z" fill="#545454"/>
<path id="Vector_16" fill-rule="evenodd" clip-rule="evenodd" d="M115.915 178.637H111.998V171.483L115.915 178.637Z" fill="#FCE6EC"/>
<path id="Vector_17" fill-rule="evenodd" clip-rule="evenodd" d="M111.796 170.538C112.008 170.474 112.235 170.487 112.439 170.573C112.642 170.659 112.809 170.814 112.91 171.011L116.793 178.064C116.876 178.214 116.918 178.384 116.914 178.556C116.911 178.728 116.862 178.895 116.773 179.043C116.684 179.19 116.558 179.311 116.408 179.394C116.257 179.476 116.087 179.518 115.915 179.515H111.999C111.87 179.515 111.743 179.489 111.624 179.44C111.505 179.391 111.397 179.319 111.306 179.228C111.215 179.137 111.143 179.029 111.094 178.911C111.045 178.792 111.02 178.665 111.02 178.536V171.483C111.022 171.261 111.101 171.046 111.242 170.875C111.383 170.703 111.579 170.584 111.796 170.538ZM113.012 175.33V177.659H114.294L113.012 175.33Z" fill="#545454"/>
<path id="Vector_18" fill-rule="evenodd" clip-rule="evenodd" d="M115.915 178.705H111.998V171.551L115.915 178.705Z" fill="#FCE6EC"/>
<path id="Vector_19" fill-rule="evenodd" clip-rule="evenodd" d="M111.796 170.606C112.008 170.542 112.235 170.554 112.439 170.64C112.642 170.727 112.809 170.882 112.91 171.078L116.827 178.232C116.909 178.382 116.953 178.55 116.953 178.722C116.953 178.893 116.909 179.061 116.827 179.211C116.735 179.363 116.607 179.489 116.453 179.577C116.3 179.666 116.126 179.714 115.949 179.717H111.999C111.736 179.708 111.487 179.598 111.304 179.409C111.121 179.22 111.019 178.968 111.02 178.705V171.551C111.022 171.328 111.101 171.114 111.242 170.942C111.383 170.77 111.579 170.652 111.796 170.606ZM113.012 175.398V177.726H114.294L113.012 175.398Z" fill="#545454"/>
<path id="Vector_20" fill-rule="evenodd" clip-rule="evenodd" d="M115.915 178.705H111.998V171.551L115.915 178.705Z" fill="#FCE6EC"/>
<path id="Vector_21" fill-rule="evenodd" clip-rule="evenodd" d="M111.796 170.606C112.008 170.542 112.235 170.554 112.439 170.64C112.642 170.727 112.809 170.882 112.91 171.078L116.827 178.232C116.909 178.382 116.953 178.55 116.953 178.722C116.953 178.893 116.909 179.061 116.827 179.211C116.735 179.363 116.607 179.489 116.453 179.577C116.3 179.666 116.126 179.714 115.949 179.717H111.999C111.736 179.708 111.487 179.598 111.304 179.409C111.121 179.22 111.019 178.968 111.02 178.705V171.551C111.022 171.328 111.101 171.114 111.242 170.942C111.383 170.77 111.579 170.652 111.796 170.606ZM113.012 175.398V177.726H114.294L113.012 175.398Z" fill="#545454"/>
<path id="Vector_22" fill-rule="evenodd" clip-rule="evenodd" d="M101.093 178.705H105.043V171.551L101.093 178.705Z" fill="#FCE6EC"/>
<path id="Vector_23" fill-rule="evenodd" clip-rule="evenodd" d="M105.28 170.606C105.491 170.658 105.679 170.78 105.813 170.951C105.948 171.122 106.022 171.333 106.023 171.551V178.705C106.023 178.968 105.921 179.22 105.738 179.409C105.555 179.598 105.306 179.708 105.043 179.717H101.093C100.92 179.715 100.751 179.667 100.603 179.578C100.455 179.489 100.333 179.362 100.249 179.211C100.166 179.061 100.123 178.893 100.123 178.722C100.123 178.55 100.166 178.382 100.249 178.232L104.166 171.078C104.267 170.882 104.434 170.727 104.637 170.64C104.841 170.554 105.068 170.542 105.28 170.606ZM102.781 177.726H104.031V175.398L102.781 177.726Z" fill="#545454"/>
<path id="Vector_24" d="M161.224 94.8807C165.363 94.8807 168.719 91.5266 168.719 87.3891C168.719 83.2517 165.363 79.8976 161.224 79.8976C157.084 79.8976 153.729 83.2517 153.729 87.3891C153.729 91.5266 157.084 94.8807 161.224 94.8807Z" fill="#F28602"/>
<path id="Vector_25" d="M63.3467 69.4365C64.6333 69.4365 65.6763 68.394 65.6763 67.1081C65.6763 65.8221 64.6333 64.7796 63.3467 64.7796C62.0601 64.7796 61.0171 65.8221 61.0171 67.1081C61.0171 68.394 62.0601 69.4365 63.3467 69.4365Z" fill="#F28602"/>
<path id="Vector_26" d="M63.3468 134.802C65.4165 134.802 67.0944 133.125 67.0944 131.056C67.0944 128.987 65.4165 127.31 63.3468 127.31C61.277 127.31 59.5991 128.987 59.5991 131.056C59.5991 133.125 61.277 134.802 63.3468 134.802Z" fill="#F28602"/>
<path id="Vector_27" d="M102.95 137.738C122.174 137.738 137.759 122.161 137.759 102.946C137.759 83.7309 122.174 68.1542 102.95 68.1542C83.7252 68.1542 68.1406 83.7309 68.1406 102.946C68.1406 122.161 83.7252 137.738 102.95 137.738Z" fill="white"/>
<path id="Vector_28" d="M98.1897 125.589C103.896 125.589 108.521 120.966 108.521 115.263C108.521 109.56 103.896 104.937 98.1897 104.937C92.4839 104.937 87.8584 109.56 87.8584 115.263C87.8584 120.966 92.4839 125.589 98.1897 125.589Z" fill="#FAC87F"/>
<path id="Vector_29" d="M105.077 89.5826C107.781 89.5826 109.973 87.3919 109.973 84.6895C109.973 81.9871 107.781 79.7964 105.077 79.7964C102.373 79.7964 100.182 81.9871 100.182 84.6895C100.182 87.3919 102.373 89.5826 105.077 89.5826Z" fill="#FAC87F"/>
<path id="Vector_30" d="M138.231 111.821C139.254 107.679 139.443 103.374 138.787 99.1581C138.131 94.9421 136.642 90.8985 134.409 87.2624C132.175 83.6263 129.241 80.4703 125.776 77.9778C122.311 75.4853 118.385 73.7061 114.226 72.7436C112.592 72.3887 110.933 72.163 109.263 72.0686C115.184 74.4898 120.252 78.615 123.822 83.9203C127.393 89.2257 129.306 95.4719 129.318 101.866C129.276 101.847 129.23 101.838 129.183 101.838C129.137 101.838 129.091 101.847 129.048 101.866C127.84 101.615 126.582 101.85 125.545 102.519C124.509 103.189 123.778 104.239 123.511 105.443C123.365 106.028 123.337 106.636 123.428 107.232C123.52 107.828 123.728 108.4 124.042 108.915C124.357 109.43 124.77 109.877 125.258 110.231C125.746 110.585 126.3 110.839 126.887 110.977C127.263 111.078 127.659 111.078 128.035 110.977C126.095 118.262 121.724 124.665 115.645 129.127C109.566 133.589 102.145 135.841 94.6104 135.51C96.1737 136.136 97.7893 136.621 99.4384 136.961C107.913 138.708 116.734 137.049 123.994 132.344C131.254 127.639 136.369 120.266 138.231 111.821Z" fill="#FAC87F"/>
<path id="Vector_31" d="M102.984 140.269C95.5891 140.275 88.3583 138.089 82.2069 133.987C76.0554 129.885 71.2597 124.051 68.4267 117.223C65.5937 110.396 64.8507 102.882 66.2917 95.6326C67.7328 88.383 71.2931 81.7236 76.5221 76.4972C81.7511 71.2708 88.4139 67.7122 95.6671 66.2719C102.92 64.8316 110.438 65.5742 117.269 68.4058C124.099 71.2374 129.936 76.0307 134.041 82.1791C138.145 88.3275 140.332 95.5546 140.325 102.946C140.307 112.839 136.368 122.322 129.369 129.317C122.37 136.313 112.882 140.251 102.984 140.269ZM102.984 70.6513C96.5994 70.678 90.3658 72.5947 85.0701 76.1595C79.7744 79.7242 75.6541 84.7772 73.2293 90.6805C70.8045 96.5839 70.1839 103.073 71.4458 109.329C72.7077 115.584 75.7956 121.326 80.3197 125.829C84.8437 130.332 90.6011 133.394 96.8651 134.629C103.129 135.865 109.619 135.217 115.515 132.769C121.411 130.321 126.449 126.182 129.994 120.874C133.538 115.566 135.43 109.327 135.43 102.946C135.425 98.6948 134.582 94.4863 132.948 90.5613C131.315 86.6364 128.922 83.072 125.909 80.0723C122.895 77.0726 119.319 74.6964 115.385 73.0799C111.451 71.4633 107.237 70.638 102.984 70.6513Z" fill="#545454"/>
<path id="Vector_32" d="M90.7616 27.1195H88.1281C85.9092 27.1195 84.1104 28.9174 84.1104 31.1352V88.9414C84.1104 91.1593 85.9092 92.9572 88.1281 92.9572H90.7616C92.9805 92.9572 94.7793 91.1593 94.7793 88.9414V31.1352C94.7793 28.9174 92.9805 27.1195 90.7616 27.1195Z" fill="#F28602"/>
<path id="Vector_33" d="M90.7619 95.4881H88.1622C86.4251 95.4881 84.7591 94.7984 83.5307 93.5706C82.3024 92.3429 81.6123 90.6777 81.6123 88.9414V31.1352C81.6123 29.3989 82.3024 27.7338 83.5307 26.5061C84.7591 25.2783 86.4251 24.5886 88.1622 24.5886H90.7957C92.5329 24.5886 94.1989 25.2783 95.4272 26.5061C96.6556 27.7338 97.3456 29.3989 97.3456 31.1352V88.9414C97.3456 89.804 97.1751 90.6581 96.8438 91.4546C96.5126 92.251 96.0271 92.9742 95.4153 93.5826C94.8035 94.1909 94.0774 94.6725 93.2789 94.9995C92.4803 95.3265 91.6249 95.4925 90.7619 95.4881ZM88.1622 29.5829C87.7682 29.5829 87.3904 29.7394 87.1118 30.0178C86.8332 30.2963 86.6767 30.6739 86.6767 31.0677V88.9414C86.7024 89.3174 86.8702 89.6696 87.1461 89.9265C87.4219 90.1834 87.7852 90.3259 88.1622 90.325H90.7957C91.187 90.3164 91.5599 90.1572 91.8366 89.8806C92.1134 89.604 92.2727 89.2313 92.2813 88.8402V31.1352C92.2727 30.7441 92.1134 30.3714 91.8366 30.0948C91.5599 29.8182 91.187 29.659 90.7957 29.6504L88.1622 29.5829Z" fill="#545554"/>
<path id="Vector_34" d="M145.828 70.3476H94.9141V30.4941H145.828C146.775 30.4971 147.703 30.7622 148.509 31.26C149.315 31.7578 149.967 32.4688 150.394 33.3143C150.82 34.1599 151.004 35.1069 150.925 36.0505C150.847 36.9941 150.508 37.8974 149.947 38.6605L141.202 50.404L149.947 62.1812C150.508 62.9442 150.847 63.8476 150.925 64.7912C151.004 65.7348 150.82 66.6818 150.394 67.5273C149.967 68.3729 149.315 69.0839 148.509 69.5817C147.703 70.0795 146.775 70.3446 145.828 70.3476Z" fill="#EF214D"/>
<path id="Vector_35" d="M145.828 72.8786H92.2471V27.9632H145.828C147.246 27.9662 148.635 28.3622 149.841 29.1071C151.046 29.852 152.022 30.9166 152.659 32.1825C153.296 33.4484 153.569 34.866 153.448 36.2778C153.326 37.6895 152.816 39.04 151.973 40.1791L144.343 50.3027L151.973 60.4264C152.816 61.5655 153.326 62.916 153.448 64.3277C153.569 65.7394 153.296 67.1571 152.659 68.423C152.022 69.6889 151.046 70.7535 149.841 71.4984C148.635 72.2433 147.246 72.6392 145.828 72.6423V72.8786ZM97.3114 67.8167H145.828C146.309 67.8178 146.781 67.6819 147.187 67.4249C147.594 67.1679 147.919 66.8005 148.124 66.3657C148.354 65.9482 148.455 65.4715 148.413 64.9966C148.371 64.5217 148.188 64.0702 147.888 63.6998L138.063 50.404L147.888 37.142C148.187 36.7643 148.369 36.3074 148.411 35.8275C148.453 35.3477 148.353 34.8661 148.124 34.4423C147.914 34.0138 147.587 33.6533 147.181 33.4025C146.774 33.1517 146.306 33.0209 145.828 33.025H97.3114V67.8167Z" fill="#545454"/>
<path id="Vector_36" d="M119.73 35.151H118.886C117.152 35.151 115.746 36.556 115.746 38.2893V52.8337C115.746 54.5669 117.152 55.972 118.886 55.972H119.73C121.464 55.972 122.87 54.5669 122.87 52.8337V38.2893C122.87 36.556 121.464 35.151 119.73 35.151Z" fill="white"/>
<path id="Vector_37" d="M119.291 64.1722C121.249 64.1722 122.836 62.5858 122.836 60.6289C122.836 58.672 121.249 57.0856 119.291 57.0856C117.333 57.0856 115.746 58.672 115.746 60.6289C115.746 62.5858 117.333 64.1722 119.291 64.1722Z" fill="white"/>
<path id="Vector_38" fill-rule="evenodd" clip-rule="evenodd" d="M47.0052 92.7884L45.2495 100.854L43.6289 92.7884L45.2495 84.6895L47.0052 92.7884Z" fill="#F28602"/>
<path id="Vector_39" fill-rule="evenodd" clip-rule="evenodd" d="M45.3515 94.4757L37.2485 92.8897L45.284 91.1012L53.387 92.6197L45.3515 94.4757Z" fill="#F28602"/>
<path id="Vector_40" fill-rule="evenodd" clip-rule="evenodd" d="M152.075 138.345L150.319 146.41L148.698 138.345L150.319 130.246L152.075 138.345Z" fill="#F28602"/>
<path id="Vector_41" fill-rule="evenodd" clip-rule="evenodd" d="M150.42 140.032L142.182 138.446L150.217 136.658L158.32 138.176L150.42 140.032Z" fill="#F28602"/>
<path id="Vector_42" fill-rule="evenodd" clip-rule="evenodd" d="M69.3553 39.7066L68.1065 45.3759L66.959 39.7066L68.1065 34.0036L69.3553 39.7066Z" fill="#F28602"/>
<path id="Vector_43" fill-rule="evenodd" clip-rule="evenodd" d="M68.1746 41.0227L62.4688 39.9091L68.1408 38.6268L73.8467 39.7066L68.1746 41.0227Z" fill="#F28602"/>
</g>
</g>
</svg>
