<svg width="216" height="216" viewBox="0 0 216 216" fill="none" xmlns="http://www.w3.org/2000/svg">
<rect width="216" height="216" fill="#F5F5F5"/>
<g id="General">
<g id="Group">
<path id="Fill 579" fill-rule="evenodd" clip-rule="evenodd" d="M163.961 215.96C161.607 215.96 159.387 215.036 157.71 213.359L127.852 183.508C126.451 185.481 124.751 187.245 122.814 188.709C118.673 191.84 113.734 193.496 108.531 193.496C100.344 193.496 92.9903 189.352 88.7108 182.822L58.2616 213.264C56.5843 214.941 54.3646 215.864 52.011 215.864C47.7298 215.864 44.0552 212.817 43.274 208.617L38.8789 184.992L15.2485 180.598C12.0026 179.994 9.37866 177.661 8.40064 174.508C7.42261 171.356 8.26533 167.947 10.5996 165.613L37.4016 138.818C32.5192 132.133 28.6315 124.827 25.8194 117.044C22.3871 107.543 20.6466 97.5597 20.6466 87.3716C20.6466 75.5788 22.9577 64.1357 27.5162 53.3611C31.9182 42.9566 38.2187 33.6131 46.2429 25.5907C54.2671 17.5678 63.6127 11.2688 74.0196 6.86806C84.7972 2.31034 96.2424 0 108.038 0C119.833 0 131.279 2.31034 142.056 6.86806C152.463 11.2688 161.809 17.5678 169.833 25.5907C177.857 33.6131 184.158 42.9566 188.56 53.3611C193.118 64.1357 195.429 75.5788 195.429 87.3716C195.429 97.5863 193.68 107.594 190.231 117.116C187.404 124.918 183.497 132.238 178.591 138.933L205.372 165.709C207.708 168.044 208.55 171.453 207.57 174.607C206.591 177.76 203.965 180.093 200.717 180.694L177.076 185.071L172.699 208.705C171.921 212.909 168.246 215.96 163.961 215.96H163.961Z" fill="white"/>
<path id="Fill 581" fill-rule="evenodd" clip-rule="evenodd" d="M64.482 118.725L14.0916 169.104C11.8556 171.34 13.0427 175.165 16.1514 175.744L40.463 180.264C42.0603 180.561 43.3101 181.811 43.6072 183.408L48.1291 207.714C48.7072 210.822 52.5338 212.009 54.7699 209.773L105.16 159.394C106.695 157.86 106.695 155.373 105.16 153.839L70.0385 118.725C68.504 117.191 66.0166 117.191 64.482 118.725Z" fill="#F28602"/>
<g id="Group 585">
<mask id="mask0_4652_16135" style="mask-type:luminance" maskUnits="userSpaceOnUse" x="12" y="117" width="95" height="94">
<path id="Clip 584" fill-rule="evenodd" clip-rule="evenodd" d="M64.4817 118.725L14.0916 169.104C11.8556 171.34 13.0427 175.165 16.1511 175.744L40.4627 180.264C42.0603 180.561 43.3101 181.811 43.6072 183.408L48.1289 207.714C48.7072 210.822 52.5338 212.009 54.7699 209.773L105.16 159.394C106.695 157.86 106.695 155.373 105.16 153.839L70.0385 118.725C69.2711 117.958 68.2657 117.575 67.2603 117.575C66.2546 117.575 65.2492 117.958 64.4817 118.725Z" fill="white"/>
</mask>
<g mask="url(#mask0_4652_16135)">
<path id="Fill 583" fill-rule="evenodd" clip-rule="evenodd" d="M36.269 199.014L25.5759 188.323L94.2638 119.651L104.957 130.342L36.269 199.014Z" fill="#DFF2F1"/>
</g>
</g>
<path id="Fill 586" fill-rule="evenodd" clip-rule="evenodd" d="M151.395 118.725L201.881 169.2C204.117 171.436 202.928 175.263 199.818 175.839L175.495 180.342C173.895 180.638 172.644 181.89 172.347 183.489L167.844 207.806C167.268 210.916 163.439 212.105 161.202 209.868L110.717 159.394C109.182 157.86 109.182 155.373 110.717 153.839L145.838 118.725C147.373 117.191 149.86 117.191 151.395 118.725Z" fill="#00B2A8"/>
<g id="Group 590">
<mask id="mask1_4652_16135" style="mask-type:luminance" maskUnits="userSpaceOnUse" x="109" y="117" width="95" height="95">
<path id="Clip 589" fill-rule="evenodd" clip-rule="evenodd" d="M145.838 118.725L110.717 153.839C109.182 155.373 109.182 157.86 110.717 159.394L161.202 209.868C163.439 212.105 167.268 210.916 167.844 207.806L172.347 183.489C172.644 181.89 173.895 180.638 175.495 180.342L199.818 175.84C202.928 175.264 204.117 171.436 201.88 169.2L151.395 118.725C150.628 117.958 149.622 117.575 148.616 117.575C147.611 117.575 146.606 117.958 145.838 118.725Z" fill="white"/>
</mask>
<g mask="url(#mask1_4652_16135)">
<path id="Fill 588" fill-rule="evenodd" clip-rule="evenodd" d="M190.502 188.581L179.809 199.272L111.121 130.599L121.814 119.909L190.502 188.581Z" fill="#DFF2F1"/>
</g>
</g>
<path id="Fill 591" fill-rule="evenodd" clip-rule="evenodd" d="M190.491 87.3713C190.491 41.8442 153.576 4.93704 108.038 4.93704C62.5005 4.93704 25.585 41.8442 25.585 87.3713C25.585 132.899 62.5005 169.806 108.038 169.806C153.576 169.806 190.491 132.899 190.491 87.3713Z" fill="#DFF2F1"/>
<g id="Group 600">
<g id="Group 596">
<mask id="mask2_4652_16135" style="mask-type:luminance" maskUnits="userSpaceOnUse" x="25" y="4" width="166" height="166">
<path id="Clip 594" fill-rule="evenodd" clip-rule="evenodd" d="M25.5847 87.3714C25.5847 132.899 62.5003 169.806 108.038 169.806C153.576 169.806 190.491 132.899 190.491 87.3714C190.491 41.8443 153.576 4.93714 108.038 4.93714C62.5003 4.93714 25.5847 41.8443 25.5847 87.3714Z" fill="white"/>
</mask>
<g mask="url(#mask2_4652_16135)">
<path id="Fill 593" fill-rule="evenodd" clip-rule="evenodd" d="M94.4886 118.273C89.3508 118.273 85.1859 114.163 85.1859 109.093C85.1859 105.925 86.8128 103.131 89.2874 101.481L85.1859 106.344C80.0484 106.344 75.8832 102.234 75.8832 97.164C75.8832 93.9954 77.5103 91.2019 79.9849 89.5522L85.7926 90.9097C78.7768 90.9097 73.0894 85.2974 73.0894 78.3743C73.0894 71.4511 78.7768 65.8389 85.7926 65.8389L77.7832 66.8964C80.0029 58.7634 88.3973 53.9692 96.5321 56.1885L96.4679 56.5385C98.8368 54.1697 102.678 54.1697 105.048 56.5385H105.004V118.204H105.048C102.678 120.573 98.8368 120.573 96.4679 118.204" fill="#8EDDD2"/>
<path id="Stroke 595 (Stroke)" fill-rule="evenodd" clip-rule="evenodd" d="M102.535 57.6997C101.162 56.9187 99.3846 57.1138 98.2139 58.2845C97.4497 59.0487 96.2773 59.2271 95.3204 58.7247C95.1093 58.6139 94.9195 58.4757 94.754 58.316C89.6456 57.4018 84.5821 59.6843 81.8227 63.8725L81.9517 63.8554C83.1795 63.5384 84.4669 63.3697 85.7927 63.3697C87.0935 63.3697 88.1712 64.3789 88.2565 65.6769C88.3418 66.9749 87.4055 68.1165 86.1159 68.2867L82.9227 68.7084C78.6519 69.9318 75.5586 73.8163 75.5586 78.3743C75.5586 82.1899 77.7264 85.5336 80.938 87.2393L86.3547 88.5053C87.576 88.7908 88.3893 89.9465 88.2456 91.1925C88.1019 92.4385 87.0469 93.3788 85.7927 93.3788C83.8878 93.3788 82.0623 93.0307 80.3791 92.3944C79.1211 93.6166 78.3525 95.3062 78.3525 97.164C78.3525 100.452 80.7766 103.228 84.0121 103.777C84.926 102.017 86.2776 100.52 87.918 99.4265C88.9411 98.7446 90.31 98.9193 91.129 99.8363C91.9481 100.753 91.9677 102.133 91.175 103.073L88.0906 106.73C87.8086 107.466 87.6552 108.263 87.6552 109.093C87.6552 112.768 90.6835 115.803 94.4888 115.803C94.8108 115.803 95.1184 115.865 95.4005 115.977C96.3188 115.537 97.4529 115.697 98.2139 116.458C99.3845 117.629 101.162 117.824 102.535 117.043V57.6997ZM107.474 56.999C107.624 56.2069 107.379 55.3775 106.794 54.7924C103.931 51.931 99.5427 51.5261 96.249 53.5783C87.0985 51.5989 77.8954 57.1082 75.4013 66.2463C75.2913 66.6494 75.2869 67.0668 75.3797 67.4614C72.4526 70.1922 70.6204 74.0643 70.6204 78.3743C70.6204 82.9912 72.7229 87.1057 76.0217 89.853C74.3947 91.8477 73.4142 94.3896 73.4142 97.164C73.4142 102.787 77.4261 107.442 82.7291 108.558C82.721 108.736 82.7169 108.914 82.7169 109.093C82.7169 115.557 88.0184 120.742 94.4888 120.742C94.8131 120.742 95.1228 120.679 95.4064 120.566C98.7582 123.269 103.679 123.064 106.793 119.951C107.379 119.366 107.624 118.536 107.474 117.744V56.999Z" fill="#545454"/>
</g>
</g>
<g id="Group 599">
<mask id="mask3_4652_16135" style="mask-type:luminance" maskUnits="userSpaceOnUse" x="25" y="4" width="166" height="166">
<path id="Clip 598" fill-rule="evenodd" clip-rule="evenodd" d="M25.5847 87.3714C25.5847 132.899 62.5003 169.806 108.038 169.806C153.576 169.806 190.491 132.899 190.491 87.3714C190.491 41.8443 153.576 4.93714 108.038 4.93714C62.5003 4.93714 25.5847 41.8443 25.5847 87.3714Z" fill="white"/>
</mask>
<g mask="url(#mask3_4652_16135)">
<path id="Fill 597" fill-rule="evenodd" clip-rule="evenodd" d="M121.587 118.273C126.725 118.273 130.89 114.163 130.89 109.093C130.89 105.925 129.263 103.131 126.788 101.481L130.89 106.344C136.027 106.344 140.193 102.234 140.193 97.164C140.193 93.9954 138.566 91.2019 136.091 89.5522L130.283 90.9097C137.299 90.9097 142.986 85.2974 142.986 78.3743C142.986 71.4511 137.299 65.8389 130.283 65.8389L138.293 66.8964C136.073 58.7634 127.678 53.9692 119.544 56.1885L119.608 56.5385C117.239 54.1697 113.397 54.1697 111.028 56.5385H111.071V118.204H111.028C113.397 120.573 117.239 120.573 119.608 118.204" fill="#F8B24C"/>
</g>
</g>
</g>
<g id="Group 607">
<g id="Group 603">
<mask id="mask4_4652_16135" style="mask-type:luminance" maskUnits="userSpaceOnUse" x="111" y="54" width="32" height="66">
<path id="Clip 602" fill-rule="evenodd" clip-rule="evenodd" d="M111.028 56.5384H111.072V118.204H111.028C113.398 120.573 117.239 120.573 119.608 118.204L121.588 118.273C126.725 118.273 130.89 114.163 130.89 109.093C130.89 107.791 130.615 106.553 130.12 105.431L130.89 106.344C136.028 106.344 140.193 102.234 140.193 97.1642C140.193 93.9955 138.566 91.2019 136.091 89.5524L135.993 89.5753C140.141 87.5121 142.987 83.2711 142.987 78.3742C142.987 72.5999 139.03 67.7378 133.647 66.2829L138.293 66.8963C136.073 58.7634 127.679 53.9691 119.544 56.1884L119.608 56.5384C118.424 55.3543 116.871 54.762 115.318 54.762C113.766 54.762 112.213 55.3543 111.028 56.5384Z" fill="white"/>
</mask>
<g mask="url(#mask4_4652_16135)">
<path id="Stroke 601 (Stroke)" fill-rule="evenodd" clip-rule="evenodd" d="M113.901 53.5783C123.052 51.5989 132.255 57.1082 134.749 66.2463C134.859 66.6494 134.863 67.0668 134.77 67.4614C137.697 70.1922 139.53 74.0643 139.53 78.3743C139.53 82.9912 137.427 87.1057 134.128 89.853C135.755 91.8477 136.736 94.3896 136.736 97.164C136.736 102.787 132.724 107.442 127.421 108.558C127.429 108.736 127.433 108.914 127.433 109.093C127.433 115.557 122.132 120.742 115.662 120.742C115.337 120.742 115.028 120.679 114.744 120.566C111.392 123.269 106.471 123.064 103.357 119.951C102.771 119.366 102.526 118.536 102.676 117.744V56.999C102.526 56.2069 102.771 55.3775 103.357 54.7924C106.219 51.9309 110.607 51.5262 113.901 53.5783ZM107.615 57.6997V117.043C108.988 117.824 110.766 117.629 111.937 116.458C112.698 115.697 113.832 115.537 114.75 115.977C115.032 115.865 115.339 115.803 115.662 115.803C119.466 115.803 122.495 112.768 122.495 109.093C122.495 108.263 122.341 107.466 122.059 106.73L118.975 103.073C118.182 102.133 118.202 100.753 119.021 99.8363C119.84 98.9193 121.209 98.7446 122.232 99.4265C123.872 100.52 125.224 102.017 126.138 103.777C129.373 103.228 131.798 100.452 131.798 97.164C131.798 95.3061 131.029 93.6165 129.771 92.3944C128.088 93.0306 126.262 93.3788 124.357 93.3788C123.103 93.3788 122.048 92.4385 121.904 91.1925C121.761 89.9465 122.574 88.7908 123.795 88.5053L129.212 87.2392C132.424 85.5336 134.591 82.1899 134.591 78.3743C134.591 73.8163 131.498 69.9318 127.227 68.7084L124.034 68.2867C122.745 68.1165 121.808 66.9749 121.894 65.6769C121.979 64.3789 123.057 63.3697 124.357 63.3697C125.683 63.3697 126.971 63.5384 128.198 63.8554L128.327 63.8725C125.568 59.6844 120.505 57.4019 115.396 58.316C115.231 58.4754 115.042 58.6136 114.831 58.7243C113.874 59.2271 112.701 59.0489 111.936 58.2846C110.766 57.1138 108.988 56.9187 107.615 57.6997Z" fill="#F8B24C"/>
</g>
</g>
<g id="Group 606">
<mask id="mask5_4652_16135" style="mask-type:luminance" maskUnits="userSpaceOnUse" x="111" y="54" width="32" height="66">
<path id="Clip 605" fill-rule="evenodd" clip-rule="evenodd" d="M111.028 56.5384H111.072V118.204H111.028C113.398 120.573 117.239 120.573 119.608 118.204L121.588 118.273C126.725 118.273 130.89 114.163 130.89 109.093C130.89 107.791 130.615 106.553 130.12 105.431L130.89 106.344C136.028 106.344 140.193 102.234 140.193 97.1642C140.193 93.9955 138.566 91.2019 136.091 89.5524L135.993 89.5753C140.141 87.5121 142.987 83.2711 142.987 78.3742C142.987 72.5999 139.03 67.7378 133.647 66.2829L138.293 66.8963C136.073 58.7634 127.679 53.9691 119.544 56.1884L119.608 56.5384C118.424 55.3543 116.871 54.762 115.318 54.762C113.766 54.762 112.213 55.3543 111.028 56.5384Z" fill="white"/>
</mask>
<g mask="url(#mask5_4652_16135)">
<path id="Fill 604" fill-rule="evenodd" clip-rule="evenodd" d="M140.782 89.5523L140.67 89.5784C144.825 87.5179 147.678 83.2759 147.678 78.3743C147.678 72.5924 143.71 67.7276 138.315 66.2801L142.984 66.8965C140.764 58.7633 132.37 53.969 124.235 56.1885L124.3 56.5386C122.27 54.5092 119.162 54.2243 116.823 55.6716C123.852 55.2897 130.439 59.8319 132.367 66.8965L127.698 66.2801C133.092 67.7276 137.061 72.5924 137.061 78.3743C137.061 83.2759 134.208 87.5179 130.052 89.5784L130.165 89.5523C132.64 91.202 134.267 93.9954 134.267 97.1641C134.267 102.234 130.102 106.344 124.964 106.344L124.185 105.42C124.684 106.545 124.964 107.786 124.964 109.093C124.964 114.12 120.869 118.201 115.792 118.269C118.166 120.569 121.953 120.55 124.3 118.204L126.279 118.273C131.416 118.273 135.581 114.163 135.581 109.093C135.581 107.786 135.301 106.545 134.802 105.42L135.581 106.344C140.719 106.344 144.884 102.234 144.884 97.1641C144.884 93.9954 143.257 91.202 140.782 89.5523Z" fill="#EC7702"/>
</g>
</g>
</g>
<g id="Group 692">
<g id="Group 610">
<mask id="mask6_4652_16135" style="mask-type:luminance" maskUnits="userSpaceOnUse" x="25" y="4" width="166" height="166">
<path id="Clip 609" fill-rule="evenodd" clip-rule="evenodd" d="M25.5847 87.3714C25.5847 132.899 62.5003 169.806 108.038 169.806C153.576 169.806 190.491 132.899 190.491 87.3714C190.491 41.8443 153.576 4.93714 108.038 4.93714C62.5003 4.93714 25.5847 41.8443 25.5847 87.3714Z" fill="white"/>
</mask>
<g mask="url(#mask6_4652_16135)">
<path id="Stroke 608 (Stroke)" fill-rule="evenodd" clip-rule="evenodd" d="M119.827 53.5783C128.977 51.5989 138.18 57.1082 140.674 66.2463C140.785 66.6494 140.789 67.0668 140.696 67.4614C143.623 70.1922 145.455 74.0643 145.455 78.3743C145.455 82.9912 143.353 87.1057 140.054 89.853C141.681 91.8477 142.662 94.3896 142.662 97.164C142.662 102.787 138.65 107.442 133.347 108.558C133.355 108.736 133.359 108.914 133.359 109.093C133.359 115.557 128.057 120.742 121.587 120.742C121.263 120.742 120.953 120.679 120.67 120.566C117.318 123.269 112.396 123.064 109.282 119.951C108.697 119.366 108.452 118.536 108.602 117.744V56.999C108.452 56.2069 108.697 55.3775 109.282 54.7924C112.144 51.9309 116.533 51.5262 119.827 53.5783ZM113.54 57.6997V117.043C114.914 117.824 116.691 117.629 117.862 116.458C118.623 115.697 119.757 115.537 120.676 115.977C120.958 115.865 121.265 115.803 121.587 115.803C125.392 115.803 128.421 112.768 128.421 109.093C128.421 108.263 128.267 107.466 127.985 106.73L124.901 103.073C124.108 102.133 124.128 100.753 124.947 99.8363C125.766 98.9193 127.135 98.7446 128.158 99.4265C129.798 100.52 131.15 102.017 132.064 103.777C135.299 103.228 137.723 100.452 137.723 97.164C137.723 95.3061 136.955 93.6165 135.697 92.3944C134.014 93.0306 132.188 93.3788 130.283 93.3788C129.029 93.3788 127.974 92.4385 127.83 91.1925C127.687 89.9465 128.5 88.7908 129.721 88.5053L135.138 87.2393C138.349 85.5336 140.517 82.1899 140.517 78.3743C140.517 73.8163 137.424 69.9318 133.153 68.7084L129.96 68.2867C128.67 68.1165 127.734 66.9749 127.819 65.6769C127.905 64.3789 128.982 63.3697 130.283 63.3697C131.609 63.3697 132.896 63.5384 134.124 63.8554L134.253 63.8725C131.494 59.6844 126.43 57.4019 121.322 58.316C121.157 58.4754 120.967 58.6136 120.756 58.7243C119.799 59.2271 118.627 59.0489 117.862 58.2846C116.691 57.1138 114.914 56.9187 113.54 57.6997Z" fill="#545454"/>
</g>
</g>
<g id="Group 613">
<mask id="mask7_4652_16135" style="mask-type:luminance" maskUnits="userSpaceOnUse" x="25" y="4" width="166" height="166">
<path id="Clip 612" fill-rule="evenodd" clip-rule="evenodd" d="M25.5847 87.3714C25.5847 132.899 62.5003 169.806 108.038 169.806C153.576 169.806 190.491 132.899 190.491 87.3714C190.491 41.8443 153.576 4.93714 108.038 4.93714C62.5003 4.93714 25.5847 41.8443 25.5847 87.3714Z" fill="white"/>
</mask>
<g mask="url(#mask7_4652_16135)">
<path id="Stroke 611 (Stroke)" fill-rule="evenodd" clip-rule="evenodd" d="M109.518 22.9653C110.882 22.9653 111.987 24.0708 111.987 25.4345V37.729C111.987 39.0926 110.882 40.1981 109.518 40.1981C108.154 40.1981 107.049 39.0926 107.049 37.729V25.4345C107.049 24.0708 108.154 22.9653 109.518 22.9653Z" fill="#545454"/>
</g>
</g>
<g id="Group 616">
<mask id="mask8_4652_16135" style="mask-type:luminance" maskUnits="userSpaceOnUse" x="25" y="4" width="166" height="166">
<path id="Clip 615" fill-rule="evenodd" clip-rule="evenodd" d="M25.5847 87.3714C25.5847 132.899 62.5003 169.806 108.038 169.806C153.576 169.806 190.491 132.899 190.491 87.3714C190.491 41.8443 153.576 4.93714 108.038 4.93714C62.5003 4.93714 25.5847 41.8443 25.5847 87.3714Z" fill="white"/>
</mask>
<g mask="url(#mask8_4652_16135)">
<path id="Stroke 614 (Stroke)" fill-rule="evenodd" clip-rule="evenodd" d="M109.518 14.7706C110.882 14.7706 111.987 15.8761 111.987 17.2397V17.4083C111.987 18.772 110.882 19.8775 109.518 19.8775C108.154 19.8775 107.049 18.772 107.049 17.4083V17.2397C107.049 15.8761 108.154 14.7706 109.518 14.7706Z" fill="#545454"/>
</g>
</g>
<g id="Group 619">
<mask id="mask9_4652_16135" style="mask-type:luminance" maskUnits="userSpaceOnUse" x="25" y="4" width="166" height="166">
<path id="Clip 618" fill-rule="evenodd" clip-rule="evenodd" d="M25.5847 87.3714C25.5847 132.899 62.5003 169.806 108.038 169.806C153.576 169.806 190.491 132.899 190.491 87.3714C190.491 41.8443 153.576 4.93714 108.038 4.93714C62.5003 4.93714 25.5847 41.8443 25.5847 87.3714Z" fill="white"/>
</mask>
<g mask="url(#mask9_4652_16135)">
<path id="Stroke 617 (Stroke)" fill-rule="evenodd" clip-rule="evenodd" d="M87.3957 26.3435C88.6771 25.877 90.094 26.5376 90.5605 27.819L94.7662 39.3719C95.2327 40.6533 94.572 42.0703 93.2906 42.5367C92.0092 43.0032 90.5923 42.3426 90.1258 41.0612L85.9201 29.5083C85.4537 28.2269 86.1143 26.8099 87.3957 26.3435Z" fill="#545454"/>
</g>
</g>
<g id="Group 622">
<mask id="mask10_4652_16135" style="mask-type:luminance" maskUnits="userSpaceOnUse" x="25" y="4" width="166" height="166">
<path id="Clip 621" fill-rule="evenodd" clip-rule="evenodd" d="M25.5847 87.3714C25.5847 132.899 62.5003 169.806 108.038 169.806C153.576 169.806 190.491 132.899 190.491 87.3714C190.491 41.8443 153.576 4.93714 108.038 4.93714C62.5003 4.93714 25.5847 41.8443 25.5847 87.3714Z" fill="white"/>
</mask>
<g mask="url(#mask10_4652_16135)">
<path id="Stroke 620 (Stroke)" fill-rule="evenodd" clip-rule="evenodd" d="M67.7629 37.0825C68.8074 36.2058 70.3649 36.3419 71.2415 37.3864L79.1462 46.8042C80.0229 47.8488 79.8869 49.4062 78.8424 50.2829C77.7979 51.1596 76.2404 51.0235 75.3637 49.979L67.459 40.5612C66.5824 39.5167 66.7184 37.9592 67.7629 37.0825Z" fill="#545454"/>
</g>
</g>
<g id="Group 625">
<mask id="mask11_4652_16135" style="mask-type:luminance" maskUnits="userSpaceOnUse" x="25" y="4" width="166" height="166">
<path id="Clip 624" fill-rule="evenodd" clip-rule="evenodd" d="M25.5847 87.3714C25.5847 132.899 62.5003 169.806 108.038 169.806C153.576 169.806 190.491 132.899 190.491 87.3714C190.491 41.8443 153.576 4.93714 108.038 4.93714C62.5003 4.93714 25.5847 41.8443 25.5847 87.3714Z" fill="white"/>
</mask>
<g mask="url(#mask11_4652_16135)">
<path id="Stroke 623 (Stroke)" fill-rule="evenodd" clip-rule="evenodd" d="M62.4944 30.805C63.539 29.9283 65.0964 30.0644 65.973 31.109L66.0812 31.2378C66.9579 32.2824 66.8218 33.8398 65.7772 34.7164C64.7327 35.5931 63.1752 35.457 62.2986 34.4125L62.1904 34.2836C61.3138 33.2391 61.4499 31.6816 62.4944 30.805Z" fill="#545454"/>
</g>
</g>
<g id="Group 628">
<mask id="mask12_4652_16135" style="mask-type:luminance" maskUnits="userSpaceOnUse" x="25" y="4" width="166" height="166">
<path id="Clip 627" fill-rule="evenodd" clip-rule="evenodd" d="M25.5847 87.3714C25.5847 132.899 62.5003 169.806 108.038 169.806C153.576 169.806 190.491 132.899 190.491 87.3714C190.491 41.8443 153.576 4.93714 108.038 4.93714C62.5003 4.93714 25.5847 41.8443 25.5847 87.3714Z" fill="white"/>
</mask>
<g mask="url(#mask12_4652_16135)">
<path id="Stroke 626 (Stroke)" fill-rule="evenodd" clip-rule="evenodd" d="M52.9883 53.8872C53.67 52.7061 55.18 52.3013 56.3611 52.983L67.011 59.13C68.192 59.8117 68.5968 61.3217 67.9151 62.5028C67.2334 63.6838 65.7234 64.0886 64.5423 63.4069L53.8925 57.26C52.7114 56.5783 52.3066 55.0682 52.9883 53.8872Z" fill="#545454"/>
</g>
</g>
<g id="Group 631">
<mask id="mask13_4652_16135" style="mask-type:luminance" maskUnits="userSpaceOnUse" x="25" y="4" width="166" height="166">
<path id="Clip 630" fill-rule="evenodd" clip-rule="evenodd" d="M25.5847 87.3714C25.5847 132.899 62.5003 169.806 108.038 169.806C153.576 169.806 190.491 132.899 190.491 87.3714C190.491 41.8443 153.576 4.93714 108.038 4.93714C62.5003 4.93714 25.5847 41.8443 25.5847 87.3714Z" fill="white"/>
</mask>
<g mask="url(#mask13_4652_16135)">
<path id="Stroke 629 (Stroke)" fill-rule="evenodd" clip-rule="evenodd" d="M44.8533 74.7302C45.0901 73.3872 46.3707 72.4905 47.7136 72.7272L59.824 74.862C61.167 75.0988 62.0637 76.3794 61.827 77.7223C61.5903 79.0653 60.3097 79.962 58.9667 79.7253L46.8563 77.5905C45.5134 77.3537 44.6166 76.0732 44.8533 74.7302Z" fill="#545454"/>
</g>
</g>
<g id="Group 634">
<mask id="mask14_4652_16135" style="mask-type:luminance" maskUnits="userSpaceOnUse" x="25" y="4" width="166" height="166">
<path id="Clip 633" fill-rule="evenodd" clip-rule="evenodd" d="M25.5847 87.3714C25.5847 132.899 62.5003 169.806 108.038 169.806C153.576 169.806 190.491 132.899 190.491 87.3714C190.491 41.8443 153.576 4.93714 108.038 4.93714C62.5003 4.93714 25.5847 41.8443 25.5847 87.3714Z" fill="white"/>
</mask>
<g mask="url(#mask14_4652_16135)">
<path id="Stroke 632 (Stroke)" fill-rule="evenodd" clip-rule="evenodd" d="M36.7816 73.3054C37.0194 71.9626 38.3006 71.0668 39.6434 71.3045L39.8093 71.3339C41.1521 71.5716 42.0479 72.8528 41.8102 74.1956C41.5725 75.5384 40.2912 76.4342 38.9484 76.1965L38.7825 76.1671C37.4397 75.9294 36.5439 74.6481 36.7816 73.3054Z" fill="#545454"/>
</g>
</g>
<g id="Group 637">
<mask id="mask15_4652_16135" style="mask-type:luminance" maskUnits="userSpaceOnUse" x="25" y="4" width="166" height="166">
<path id="Clip 636" fill-rule="evenodd" clip-rule="evenodd" d="M25.5847 87.3714C25.5847 132.899 62.5003 169.806 108.038 169.806C153.576 169.806 190.491 132.899 190.491 87.3714C190.491 41.8443 153.576 4.93714 108.038 4.93714C62.5003 4.93714 25.5847 41.8443 25.5847 87.3714Z" fill="white"/>
</mask>
<g mask="url(#mask15_4652_16135)">
<path id="Stroke 635 (Stroke)" fill-rule="evenodd" clip-rule="evenodd" d="M61.3131 94.1059C61.5498 95.4489 60.653 96.7295 59.3101 96.9662L47.1995 99.101C45.8565 99.3378 44.5759 98.441 44.3392 97.098C44.1024 95.7551 44.9992 94.4745 46.3422 94.2378L58.4528 92.1029C59.7958 91.8662 61.0763 92.763 61.3131 94.1059Z" fill="#545454"/>
</g>
</g>
<g id="Group 640">
<mask id="mask16_4652_16135" style="mask-type:luminance" maskUnits="userSpaceOnUse" x="25" y="4" width="166" height="166">
<path id="Clip 639" fill-rule="evenodd" clip-rule="evenodd" d="M25.5847 87.3714C25.5847 132.899 62.5003 169.806 108.038 169.806C153.576 169.806 190.491 132.899 190.491 87.3714C190.491 41.8443 153.576 4.93714 108.038 4.93714C62.5003 4.93714 25.5847 41.8443 25.5847 87.3714Z" fill="white"/>
</mask>
<g mask="url(#mask16_4652_16135)">
<path id="Stroke 638 (Stroke)" fill-rule="evenodd" clip-rule="evenodd" d="M66.4349 109.677C67.1166 110.858 66.7118 112.368 65.5307 113.05L54.8809 119.197C53.6998 119.878 52.1898 119.474 51.5081 118.293C50.8264 117.112 51.2312 115.601 52.4122 114.92L63.0621 108.773C64.2432 108.091 65.7532 108.496 66.4349 109.677Z" fill="#545454"/>
</g>
</g>
<g id="Group 643">
<mask id="mask17_4652_16135" style="mask-type:luminance" maskUnits="userSpaceOnUse" x="25" y="4" width="166" height="166">
<path id="Clip 642" fill-rule="evenodd" clip-rule="evenodd" d="M25.5847 87.3714C25.5847 132.899 62.5003 169.806 108.038 169.806C153.576 169.806 190.491 132.899 190.491 87.3714C190.491 41.8443 153.576 4.93714 108.038 4.93714C62.5003 4.93714 25.5847 41.8443 25.5847 87.3714Z" fill="white"/>
</mask>
<g mask="url(#mask17_4652_16135)">
<path id="Stroke 641 (Stroke)" fill-rule="evenodd" clip-rule="evenodd" d="M48.8313 119.835C49.5142 121.015 49.1109 122.526 47.9306 123.209L47.7846 123.293C46.6043 123.976 45.0938 123.573 44.4109 122.392C43.728 121.212 44.1313 119.701 45.3117 119.019L45.4576 118.934C46.638 118.251 48.1484 118.654 48.8313 119.835Z" fill="#545454"/>
</g>
</g>
<g id="Group 646">
<mask id="mask18_4652_16135" style="mask-type:luminance" maskUnits="userSpaceOnUse" x="25" y="4" width="166" height="166">
<path id="Clip 645" fill-rule="evenodd" clip-rule="evenodd" d="M25.5847 87.3714C25.5847 132.899 62.5003 169.806 108.038 169.806C153.576 169.806 190.491 132.899 190.491 87.3714C190.491 41.8443 153.576 4.93714 108.038 4.93714C62.5003 4.93714 25.5847 41.8443 25.5847 87.3714Z" fill="white"/>
</mask>
<g mask="url(#mask18_4652_16135)">
<path id="Stroke 644 (Stroke)" fill-rule="evenodd" clip-rule="evenodd" d="M76.5748 122.557C77.6193 123.434 77.7554 124.991 76.8787 126.036L68.974 135.454C68.0973 136.499 66.5399 136.635 65.4954 135.758C64.4508 134.881 64.3148 133.324 65.1914 132.279L73.0961 122.861C73.9728 121.817 75.5303 121.681 76.5748 122.557Z" fill="#545454"/>
</g>
</g>
<g id="Group 649">
<mask id="mask19_4652_16135" style="mask-type:luminance" maskUnits="userSpaceOnUse" x="25" y="4" width="166" height="166">
<path id="Clip 648" fill-rule="evenodd" clip-rule="evenodd" d="M25.5847 87.3714C25.5847 132.899 62.5003 169.806 108.038 169.806C153.576 169.806 190.491 132.899 190.491 87.3714C190.491 41.8443 153.576 4.93714 108.038 4.93714C62.5003 4.93714 25.5847 41.8443 25.5847 87.3714Z" fill="white"/>
</mask>
<g mask="url(#mask19_4652_16135)">
<path id="Stroke 647 (Stroke)" fill-rule="evenodd" clip-rule="evenodd" d="M90.5092 131.194C91.7906 131.66 92.4512 133.077 91.9847 134.359L87.7787 145.912C87.3122 147.193 85.8953 147.854 84.6139 147.387C83.3325 146.921 82.6719 145.504 83.1384 144.222L87.3443 132.669C87.8108 131.388 89.2278 130.727 90.5092 131.194Z" fill="#545454"/>
</g>
</g>
<g id="Group 652">
<mask id="mask20_4652_16135" style="mask-type:luminance" maskUnits="userSpaceOnUse" x="25" y="4" width="166" height="166">
<path id="Clip 651" fill-rule="evenodd" clip-rule="evenodd" d="M25.5847 87.3714C25.5847 132.899 62.5003 169.806 108.038 169.806C153.576 169.806 190.491 132.899 190.491 87.3714C190.491 41.8443 153.576 4.93714 108.038 4.93714C62.5003 4.93714 25.5847 41.8443 25.5847 87.3714Z" fill="white"/>
</mask>
<g mask="url(#mask20_4652_16135)">
<path id="Stroke 650 (Stroke)" fill-rule="evenodd" clip-rule="evenodd" d="M83.5563 150.289C84.8379 150.755 85.4991 152.171 85.0332 153.453L84.9756 153.611C84.5097 154.893 83.093 155.554 81.8114 155.088C80.5298 154.622 79.8686 153.205 80.3346 151.924L80.3921 151.766C80.8581 150.484 82.2747 149.823 83.5563 150.289Z" fill="#545454"/>
</g>
</g>
<g id="Group 655">
<mask id="mask21_4652_16135" style="mask-type:luminance" maskUnits="userSpaceOnUse" x="25" y="4" width="166" height="166">
<path id="Clip 654" fill-rule="evenodd" clip-rule="evenodd" d="M25.5847 87.3714C25.5847 132.899 62.5003 169.806 108.038 169.806C153.576 169.806 190.491 132.899 190.491 87.3714C190.491 41.8443 153.576 4.93714 108.038 4.93714C62.5003 4.93714 25.5847 41.8443 25.5847 87.3714Z" fill="white"/>
</mask>
<g mask="url(#mask21_4652_16135)">
<path id="Stroke 653 (Stroke)" fill-rule="evenodd" clip-rule="evenodd" d="M106.558 134.545C107.921 134.545 109.027 135.65 109.027 137.014V149.308C109.027 150.672 107.921 151.777 106.558 151.777C105.194 151.777 104.089 150.672 104.089 149.308V137.014C104.089 135.65 105.194 134.545 106.558 134.545Z" fill="#545454"/>
</g>
</g>
<g id="Group 658">
<mask id="mask22_4652_16135" style="mask-type:luminance" maskUnits="userSpaceOnUse" x="25" y="4" width="166" height="166">
<path id="Clip 657" fill-rule="evenodd" clip-rule="evenodd" d="M25.5847 87.3714C25.5847 132.899 62.5003 169.806 108.038 169.806C153.576 169.806 190.491 132.899 190.491 87.3714C190.491 41.8443 153.576 4.93714 108.038 4.93714C62.5003 4.93714 25.5847 41.8443 25.5847 87.3714Z" fill="white"/>
</mask>
<g mask="url(#mask22_4652_16135)">
<path id="Stroke 656 (Stroke)" fill-rule="evenodd" clip-rule="evenodd" d="M122.785 132.206C124.066 131.74 125.483 132.4 125.95 133.682L130.156 145.235C130.622 146.516 129.961 147.933 128.68 148.399C127.399 148.866 125.982 148.205 125.515 146.924L121.31 135.371C120.843 134.089 121.504 132.673 122.785 132.206Z" fill="#545454"/>
</g>
</g>
<g id="Group 661">
<mask id="mask23_4652_16135" style="mask-type:luminance" maskUnits="userSpaceOnUse" x="25" y="4" width="166" height="166">
<path id="Clip 660" fill-rule="evenodd" clip-rule="evenodd" d="M25.5847 87.3714C25.5847 132.899 62.5003 169.806 108.038 169.806C153.576 169.806 190.491 132.899 190.491 87.3714C190.491 41.8443 153.576 4.93714 108.038 4.93714C62.5003 4.93714 25.5847 41.8443 25.5847 87.3714Z" fill="white"/>
</mask>
<g mask="url(#mask23_4652_16135)">
<path id="Stroke 659 (Stroke)" fill-rule="evenodd" clip-rule="evenodd" d="M129.738 151.301C131.02 150.835 132.436 151.496 132.902 152.778L132.96 152.936C133.426 154.218 132.764 155.634 131.483 156.1C130.201 156.566 128.785 155.905 128.319 154.623L128.261 154.465C127.795 153.184 128.456 151.767 129.738 151.301Z" fill="#545454"/>
</g>
</g>
<g id="Group 664">
<mask id="mask24_4652_16135" style="mask-type:luminance" maskUnits="userSpaceOnUse" x="25" y="4" width="166" height="166">
<path id="Clip 663" fill-rule="evenodd" clip-rule="evenodd" d="M25.5847 87.3714C25.5847 132.899 62.5003 169.806 108.038 169.806C153.576 169.806 190.491 132.899 190.491 87.3714C190.491 41.8443 153.576 4.93714 108.038 4.93714C62.5003 4.93714 25.5847 41.8443 25.5847 87.3714Z" fill="white"/>
</mask>
<g mask="url(#mask24_4652_16135)">
<path id="Stroke 662 (Stroke)" fill-rule="evenodd" clip-rule="evenodd" d="M137.234 124.46C138.278 123.583 139.836 123.719 140.712 124.764L148.617 134.182C149.494 135.226 149.358 136.784 148.313 137.66C147.269 138.537 145.711 138.401 144.834 137.356L136.93 127.938C136.053 126.894 136.189 125.336 137.234 124.46Z" fill="#545454"/>
</g>
</g>
<g id="Group 667">
<mask id="mask25_4652_16135" style="mask-type:luminance" maskUnits="userSpaceOnUse" x="25" y="4" width="166" height="166">
<path id="Clip 666" fill-rule="evenodd" clip-rule="evenodd" d="M25.5847 87.3714C25.5847 132.899 62.5003 169.806 108.038 169.806C153.576 169.806 190.491 132.899 190.491 87.3714C190.491 41.8443 153.576 4.93714 108.038 4.93714C62.5003 4.93714 25.5847 41.8443 25.5847 87.3714Z" fill="white"/>
</mask>
<g mask="url(#mask25_4652_16135)">
<path id="Stroke 665 (Stroke)" fill-rule="evenodd" clip-rule="evenodd" d="M148.161 112.24C148.843 111.059 150.353 110.654 151.534 111.336L162.184 117.483C163.365 118.165 163.769 119.675 163.088 120.856C162.406 122.037 160.896 122.442 159.715 121.76L149.065 115.613C147.884 114.931 147.479 113.421 148.161 112.24Z" fill="#545454"/>
</g>
</g>
<g id="Group 670">
<mask id="mask26_4652_16135" style="mask-type:luminance" maskUnits="userSpaceOnUse" x="25" y="4" width="166" height="166">
<path id="Clip 669" fill-rule="evenodd" clip-rule="evenodd" d="M25.5847 87.3714C25.5847 132.899 62.5003 169.806 108.038 169.806C153.576 169.806 190.491 132.899 190.491 87.3714C190.491 41.8443 153.576 4.93714 108.038 4.93714C62.5003 4.93714 25.5847 41.8443 25.5847 87.3714Z" fill="white"/>
</mask>
<g mask="url(#mask26_4652_16135)">
<path id="Stroke 668 (Stroke)" fill-rule="evenodd" clip-rule="evenodd" d="M165.764 122.398C166.447 121.218 167.958 120.814 169.138 121.497L169.284 121.582C170.464 122.264 170.868 123.775 170.185 124.955C169.502 126.136 167.991 126.539 166.811 125.856L166.665 125.772C165.485 125.089 165.082 123.578 165.764 122.398Z" fill="#545454"/>
</g>
</g>
<g id="Group 673">
<mask id="mask27_4652_16135" style="mask-type:luminance" maskUnits="userSpaceOnUse" x="25" y="4" width="166" height="166">
<path id="Clip 672" fill-rule="evenodd" clip-rule="evenodd" d="M25.5847 87.3714C25.5847 132.899 62.5003 169.806 108.038 169.806C153.576 169.806 190.491 132.899 190.491 87.3714C190.491 41.8443 153.576 4.93714 108.038 4.93714C62.5003 4.93714 25.5847 41.8443 25.5847 87.3714Z" fill="white"/>
</mask>
<g mask="url(#mask27_4652_16135)">
<path id="Stroke 671 (Stroke)" fill-rule="evenodd" clip-rule="evenodd" d="M154.249 97.0205C154.486 95.6775 155.766 94.7808 157.109 95.0175L169.22 97.1523C170.562 97.3891 171.459 98.6697 171.222 100.013C170.986 101.356 169.705 102.252 168.362 102.016L156.252 99.8808C154.909 99.6441 154.012 98.3635 154.249 97.0205Z" fill="#545454"/>
</g>
</g>
<g id="Group 676">
<mask id="mask28_4652_16135" style="mask-type:luminance" maskUnits="userSpaceOnUse" x="25" y="4" width="166" height="166">
<path id="Clip 675" fill-rule="evenodd" clip-rule="evenodd" d="M25.5847 87.3714C25.5847 132.899 62.5003 169.806 108.038 169.806C153.576 169.806 190.491 132.899 190.491 87.3714C190.491 41.8443 153.576 4.93714 108.038 4.93714C62.5003 4.93714 25.5847 41.8443 25.5847 87.3714Z" fill="white"/>
</mask>
<g mask="url(#mask28_4652_16135)">
<path id="Stroke 674 (Stroke)" fill-rule="evenodd" clip-rule="evenodd" d="M171.737 77.6448C171.973 78.9877 171.077 80.2683 169.734 80.5051L157.623 82.6399C156.28 82.8766 155 81.9798 154.763 80.6369C154.526 79.2939 155.423 78.0133 156.766 77.7766L168.876 75.6418C170.219 75.405 171.5 76.3018 171.737 77.6448Z" fill="#545454"/>
</g>
</g>
<g id="Group 679">
<mask id="mask29_4652_16135" style="mask-type:luminance" maskUnits="userSpaceOnUse" x="25" y="4" width="166" height="166">
<path id="Clip 678" fill-rule="evenodd" clip-rule="evenodd" d="M25.5847 87.3714C25.5847 132.899 62.5003 169.806 108.038 169.806C153.576 169.806 190.491 132.899 190.491 87.3714C190.491 41.8443 153.576 4.93714 108.038 4.93714C62.5003 4.93714 25.5847 41.8443 25.5847 87.3714Z" fill="white"/>
</mask>
<g mask="url(#mask29_4652_16135)">
<path id="Stroke 677 (Stroke)" fill-rule="evenodd" clip-rule="evenodd" d="M179.808 76.2199C180.046 77.5627 179.15 78.8439 177.807 79.0817L177.641 79.1111C176.299 79.3488 175.017 78.453 174.78 77.1102C174.542 75.7674 175.438 74.4861 176.781 74.2484L176.946 74.219C178.289 73.9813 179.571 74.8771 179.808 76.2199Z" fill="#545454"/>
</g>
</g>
<g id="Group 682">
<mask id="mask30_4652_16135" style="mask-type:luminance" maskUnits="userSpaceOnUse" x="25" y="4" width="166" height="166">
<path id="Clip 681" fill-rule="evenodd" clip-rule="evenodd" d="M25.5847 87.3714C25.5847 132.899 62.5003 169.806 108.038 169.806C153.576 169.806 190.491 132.899 190.491 87.3714C190.491 41.8443 153.576 4.93714 108.038 4.93714C62.5003 4.93714 25.5847 41.8443 25.5847 87.3714Z" fill="white"/>
</mask>
<g mask="url(#mask30_4652_16135)">
<path id="Stroke 680 (Stroke)" fill-rule="evenodd" clip-rule="evenodd" d="M164.568 56.4502C165.249 57.6313 164.845 59.1413 163.664 59.823L153.014 65.97C151.833 66.6517 150.323 66.2469 149.641 65.0659C148.959 63.8848 149.364 62.3748 150.545 61.6931L161.195 55.5461C162.376 54.8644 163.886 55.2692 164.568 56.4502Z" fill="#545454"/>
</g>
</g>
<g id="Group 685">
<mask id="mask31_4652_16135" style="mask-type:luminance" maskUnits="userSpaceOnUse" x="25" y="4" width="166" height="166">
<path id="Clip 684" fill-rule="evenodd" clip-rule="evenodd" d="M25.5847 87.3714C25.5847 132.899 62.5003 169.806 108.038 169.806C153.576 169.806 190.491 132.899 190.491 87.3714C190.491 41.8443 153.576 4.93714 108.038 4.93714C62.5003 4.93714 25.5847 41.8443 25.5847 87.3714Z" fill="white"/>
</mask>
<g mask="url(#mask31_4652_16135)">
<path id="Stroke 683 (Stroke)" fill-rule="evenodd" clip-rule="evenodd" d="M150.58 38.9848C151.625 39.8615 151.761 41.4189 150.884 42.4634L142.98 51.8815C142.103 52.9261 140.546 53.0621 139.501 52.1855C138.457 51.3088 138.321 49.7514 139.197 48.7069L147.102 39.2888C147.978 38.2442 149.536 38.1081 150.58 38.9848Z" fill="#545454"/>
</g>
</g>
<g id="Group 688">
<mask id="mask32_4652_16135" style="mask-type:luminance" maskUnits="userSpaceOnUse" x="25" y="4" width="166" height="166">
<path id="Clip 687" fill-rule="evenodd" clip-rule="evenodd" d="M25.5847 87.3714C25.5847 132.899 62.5003 169.806 108.038 169.806C153.576 169.806 190.491 132.899 190.491 87.3714C190.491 41.8443 153.576 4.93714 108.038 4.93714C62.5003 4.93714 25.5847 41.8443 25.5847 87.3714Z" fill="white"/>
</mask>
<g mask="url(#mask32_4652_16135)">
<path id="Stroke 686 (Stroke)" fill-rule="evenodd" clip-rule="evenodd" d="M155.849 32.7073C156.894 33.5839 157.03 35.1414 156.153 36.1859L156.045 36.3148C155.168 37.3593 153.611 37.4954 152.566 36.6188C151.522 35.7421 151.386 34.1847 152.262 33.1401L152.37 33.0113C153.247 31.9667 154.804 31.8306 155.849 32.7073Z" fill="#545454"/>
</g>
</g>
<g id="Group 691">
<mask id="mask33_4652_16135" style="mask-type:luminance" maskUnits="userSpaceOnUse" x="25" y="4" width="166" height="166">
<path id="Clip 690" fill-rule="evenodd" clip-rule="evenodd" d="M25.5847 87.3714C25.5847 132.899 62.5003 169.806 108.038 169.806C153.576 169.806 190.491 132.899 190.491 87.3714C190.491 41.8443 153.576 4.93714 108.038 4.93714C62.5003 4.93714 25.5847 41.8443 25.5847 87.3714Z" fill="white"/>
</mask>
<g mask="url(#mask33_4652_16135)">
<path id="Stroke 689 (Stroke)" fill-rule="evenodd" clip-rule="evenodd" d="M131.462 27.3557C132.743 27.8222 133.404 29.2392 132.938 30.5206L128.732 42.0735C128.265 43.3549 126.848 44.0155 125.567 43.549C124.285 43.0825 123.625 41.6655 124.091 40.3841L128.297 28.8312C128.764 27.5498 130.181 26.8892 131.462 27.3557Z" fill="#545454"/>
</g>
</g>
</g>
<g id="Group 727">
<path id="Stroke 693 (Stroke)" fill-rule="evenodd" clip-rule="evenodd" d="M23.1157 87.3713C23.1157 40.48 61.1373 2.46791 108.038 2.46791C154.939 2.46791 192.96 40.48 192.96 87.3713C192.96 134.263 154.939 172.275 108.038 172.275C61.1373 172.275 23.1157 134.263 23.1157 87.3713ZM108.038 7.40618C63.8636 7.40618 28.054 43.2084 28.054 87.3713C28.054 131.534 63.8636 167.337 108.038 167.337C152.212 167.337 188.022 131.534 188.022 87.3713C188.022 43.2084 152.212 7.40618 108.038 7.40618Z" fill="#545454"/>
<path id="Stroke 695 (Stroke)" fill-rule="evenodd" clip-rule="evenodd" d="M170.302 137.628C171.266 136.663 172.829 136.663 173.793 137.627L203.626 167.453C207.27 171.096 205.332 177.33 200.267 178.267L200.267 178.267L175.945 182.77C175.35 182.88 174.885 183.345 174.775 183.938L174.775 183.939L170.272 208.256L170.272 208.256C169.334 213.321 163.099 215.256 159.457 211.614L132.591 184.755C131.627 183.791 131.627 182.228 132.591 181.263C133.555 180.299 135.118 180.299 136.083 181.263L162.948 208.122C163.78 208.954 165.202 208.511 165.416 207.356L169.92 183.04C169.92 183.04 169.92 183.04 169.92 183.039C170.402 180.434 172.441 178.396 175.046 177.914L175.046 177.914L199.368 173.412C200.525 173.198 200.965 171.776 200.135 170.946L170.302 141.12C169.338 140.156 169.337 138.592 170.302 137.628Z" fill="#545454"/>
<path id="Stroke 697 (Stroke)" fill-rule="evenodd" clip-rule="evenodd" d="M45.6736 137.53C46.6377 138.494 46.6376 140.057 45.6732 141.022L15.8374 170.851L15.8373 170.851C15.0076 171.68 15.4471 173.101 16.6027 173.316L16.6028 173.316L40.9143 177.837C40.9144 177.837 40.9144 177.837 40.9144 177.837C43.5153 178.32 45.5508 180.355 46.0347 182.956C46.0347 182.956 46.0347 182.956 46.0347 182.956L50.5567 207.262L50.5567 207.262C50.7712 208.416 52.1929 208.858 53.0242 208.027L80.8165 180.241C81.7809 179.277 83.3442 179.277 84.3084 180.241C85.2725 181.206 85.2724 182.769 84.308 183.733L56.5157 211.519L54.7699 209.773L56.5157 211.519C52.8748 215.159 46.6432 213.228 45.7017 208.165L41.1797 183.859L41.1797 183.859C41.0695 183.267 40.6053 182.802 40.0117 182.692L40.0116 182.692L15.7001 178.171C10.6384 177.23 8.70363 170.999 12.346 167.358L42.1817 137.529C43.1461 136.565 44.7094 136.565 45.6736 137.53Z" fill="#545454"/>
<path id="Fill 699" fill-rule="evenodd" clip-rule="evenodd" d="M127.049 169.797C127.049 159.436 118.648 151.036 108.284 151.036C97.9198 151.036 89.5183 159.436 89.5183 169.797C89.5183 180.159 97.9198 188.558 108.284 188.558C118.648 188.558 127.049 180.159 127.049 169.797Z" fill="#D54263"/>
<path id="Stroke 701 (Stroke)" fill-rule="evenodd" clip-rule="evenodd" d="M87.543 169.797C87.543 158.344 96.8293 149.061 108.284 149.061C119.738 149.061 129.024 158.344 129.024 169.797C129.024 181.25 119.738 190.534 108.284 190.534C96.8293 190.534 87.543 181.25 87.543 169.797ZM108.284 153.011C99.0103 153.011 91.4936 160.527 91.4936 169.797C91.4936 179.067 99.0103 186.583 108.284 186.583C117.557 186.583 125.074 179.067 125.074 169.797C125.074 160.527 117.557 153.011 108.284 153.011Z" fill="#545454"/>
<g id="Group 706">
<path id="Fill 703" fill-rule="evenodd" clip-rule="evenodd" d="M104.838 164.283V178.75H111.729V173.205V164.283" fill="#FCE6EC"/>
<path id="Stroke 705 (Stroke)" fill-rule="evenodd" clip-rule="evenodd" d="M103.851 164.283H105.826V177.762H110.741V164.283H112.717V179.738H103.851V164.283Z" fill="#545454"/>
</g>
<path id="Fill 707" fill-rule="evenodd" clip-rule="evenodd" d="M108.284 159.117L104.838 164.283H111.729L108.284 159.117Z" fill="#FCE6EC"/>
<path id="Stroke 709 (Stroke)" fill-rule="evenodd" clip-rule="evenodd" d="M108.284 158.129C108.614 158.129 108.922 158.294 109.105 158.569L112.551 163.735C112.753 164.038 112.772 164.428 112.6 164.749C112.428 165.07 112.093 165.271 111.729 165.271H104.838C104.474 165.271 104.139 165.07 103.967 164.749C103.796 164.428 103.814 164.038 104.017 163.735L107.462 158.569C107.645 158.294 107.954 158.129 108.284 158.129ZM106.684 163.296H109.883L108.284 160.897L106.684 163.296Z" fill="#545454"/>
<path id="Fill 711" fill-rule="evenodd" clip-rule="evenodd" d="M115.691 178.647H111.763V171.482L115.691 178.647Z" fill="#FCE6EC"/>
<path id="Stroke 713 (Stroke)" fill-rule="evenodd" clip-rule="evenodd" d="M111.518 170.526C111.955 170.414 112.413 170.612 112.629 171.008L116.557 178.172C116.725 178.478 116.719 178.85 116.541 179.15C116.363 179.45 116.04 179.635 115.691 179.635H111.763C111.218 179.635 110.776 179.192 110.776 178.647V171.482C110.776 171.031 111.081 170.638 111.518 170.526ZM112.751 175.339V177.659H114.023L112.751 175.339Z" fill="#545454"/>
<path id="Fill 715" fill-rule="evenodd" clip-rule="evenodd" d="M115.691 178.716H111.763V171.551L115.691 178.716Z" fill="#FCE6EC"/>
<path id="Stroke 717 (Stroke)" fill-rule="evenodd" clip-rule="evenodd" d="M111.518 170.595C111.955 170.483 112.412 170.681 112.629 171.077L116.557 178.241C116.725 178.547 116.719 178.919 116.541 179.219C116.363 179.519 116.04 179.703 115.691 179.703H111.763C111.218 179.703 110.776 179.261 110.776 178.716V171.551C110.776 171.1 111.081 170.707 111.518 170.595ZM112.751 175.407V177.728H114.023L112.751 175.407Z" fill="#545454"/>
<path id="Fill 719" fill-rule="evenodd" clip-rule="evenodd" d="M115.691 178.716H111.763V171.551L115.691 178.716Z" fill="#FCE6EC"/>
<path id="Stroke 721 (Stroke)" fill-rule="evenodd" clip-rule="evenodd" d="M111.518 170.595C111.955 170.483 112.412 170.681 112.629 171.077L116.557 178.241C116.725 178.547 116.719 178.919 116.541 179.219C116.363 179.519 116.04 179.703 115.691 179.703H111.763C111.218 179.703 110.776 179.261 110.776 178.716V171.551C110.776 171.1 111.081 170.707 111.518 170.595ZM112.751 175.407V177.728H114.023L112.751 175.407Z" fill="#545454"/>
<path id="Fill 723" fill-rule="evenodd" clip-rule="evenodd" d="M100.876 178.716H104.804V171.551L100.876 178.716Z" fill="#FCE6EC"/>
<path id="Stroke 725 (Stroke)" fill-rule="evenodd" clip-rule="evenodd" d="M105.049 170.595C105.486 170.707 105.791 171.1 105.791 171.551V178.716C105.791 179.261 105.349 179.703 104.804 179.703H100.876C100.527 179.703 100.204 179.519 100.027 179.219C99.8487 178.919 99.8425 178.547 100.01 178.241L103.938 171.077C104.155 170.681 104.612 170.483 105.049 170.595ZM102.544 177.728H103.816V175.408L102.544 177.728Z" fill="#545454"/>
</g>
</g>
</g>
</svg>
