<svg width="216" height="216" viewBox="0 0 216 216" fill="none" xmlns="http://www.w3.org/2000/svg">
<rect width="216" height="216" fill="#F5F5F5"/>
<g id="Individual">
<g id="Group">
<path id="Fill 249" fill-rule="evenodd" clip-rule="evenodd" d="M163.961 215.96C161.607 215.96 159.387 215.036 157.71 213.359L127.852 183.508C126.451 185.481 124.751 187.245 122.814 188.709C118.673 191.84 113.734 193.496 108.53 193.496C100.343 193.496 92.9903 189.352 88.7108 182.822L58.2616 213.264C56.5843 214.941 54.3646 215.864 52.011 215.864C47.7298 215.864 44.0552 212.817 43.274 208.617L38.8787 184.992L15.2483 180.598C12.0026 179.994 9.37866 177.661 8.40064 174.508C7.42261 171.356 8.26533 167.947 10.5996 165.613L37.4014 138.818C32.5192 132.133 28.6315 124.827 25.8194 117.044C22.3868 107.543 20.6466 97.5597 20.6466 87.3716C20.6466 75.5788 22.9577 64.1357 27.5162 53.3611C31.9182 42.9566 38.2187 33.6131 46.2429 25.5907C54.2671 17.5678 63.6125 11.2688 74.0196 6.86806C84.7969 2.31034 96.2424 0 108.038 0C119.833 0 131.279 2.31034 142.056 6.86806C152.463 11.2688 161.809 17.5678 169.833 25.5907C177.857 33.6131 184.158 42.9566 188.56 53.3611C193.118 64.1357 195.429 75.5788 195.429 87.3716C195.429 97.5863 193.68 107.594 190.231 117.116C187.404 124.918 183.497 132.238 178.591 138.933L205.372 165.709C207.708 168.044 208.55 171.453 207.57 174.607C206.591 177.76 203.964 180.093 200.717 180.694L177.076 185.071L172.699 208.705C171.921 212.909 168.246 215.96 163.961 215.96H163.961Z" fill="white"/>
<path id="Fill 251" fill-rule="evenodd" clip-rule="evenodd" d="M64.482 118.725L14.0917 169.104C11.8556 171.34 13.0425 175.165 16.1514 175.744L40.463 180.264C42.0603 180.561 43.3099 181.811 43.6072 183.408L48.129 207.714C48.707 210.822 52.5339 212.009 54.7697 209.773L105.16 159.394C106.694 157.86 106.694 155.373 105.16 153.839L70.0383 118.725C68.504 117.191 66.0164 117.191 64.482 118.725Z" fill="#00B2A8"/>
<g id="Group 255">
<mask id="mask0_4652_16135" style="mask-type:luminance" maskUnits="userSpaceOnUse" x="12" y="117" width="95" height="94">
<path id="Clip 254" fill-rule="evenodd" clip-rule="evenodd" d="M64.482 118.725L14.0917 169.104C11.8556 171.34 13.0425 175.165 16.1514 175.744L40.463 180.264C42.0603 180.561 43.3102 181.811 43.6072 183.408L48.129 207.714C48.707 210.822 52.5339 212.009 54.7697 209.773L105.16 159.394C106.695 157.86 106.695 155.373 105.16 153.839L70.0383 118.725C69.2712 117.958 68.2657 117.575 67.2603 117.575C66.2546 117.575 65.2492 117.958 64.482 118.725Z" fill="white"/>
</mask>
<g mask="url(#mask0_4652_16135)">
<path id="Fill 253" fill-rule="evenodd" clip-rule="evenodd" d="M36.2693 199.014L25.5762 188.323L94.2641 119.651L104.957 130.342L36.2693 199.014Z" fill="#DFF2F1"/>
</g>
</g>
<path id="Fill 256" fill-rule="evenodd" clip-rule="evenodd" d="M151.395 118.725L201.88 169.2C204.117 171.436 202.928 175.263 199.817 175.839L175.495 180.342C173.895 180.638 172.644 181.89 172.347 183.489L167.844 207.806C167.268 210.916 163.439 212.105 161.202 209.868L110.716 159.394C109.182 157.86 109.182 155.373 110.716 153.839L145.838 118.725C147.373 117.191 149.86 117.191 151.395 118.725Z" fill="#00B2A8"/>
<g id="Group 260">
<mask id="mask1_4652_16135" style="mask-type:luminance" maskUnits="userSpaceOnUse" x="109" y="117" width="95" height="95">
<path id="Clip 259" fill-rule="evenodd" clip-rule="evenodd" d="M145.838 118.725L110.717 153.839C109.182 155.373 109.182 157.86 110.717 159.394L161.202 209.868C163.439 212.105 167.268 210.916 167.844 207.806L172.347 183.489C172.644 181.89 173.895 180.638 175.495 180.342L199.817 175.84C202.928 175.264 204.117 171.436 201.88 169.2L151.395 118.725C150.628 117.958 149.622 117.575 148.617 117.575C147.611 117.575 146.606 117.958 145.838 118.725Z" fill="white"/>
</mask>
<g mask="url(#mask1_4652_16135)">
<path id="Fill 258" fill-rule="evenodd" clip-rule="evenodd" d="M190.501 188.581L179.808 199.272L111.121 130.599L121.813 119.909L190.501 188.581Z" fill="#DFF2F1"/>
</g>
</g>
<path id="Fill 261" fill-rule="evenodd" clip-rule="evenodd" d="M190.491 87.3713C190.491 41.8442 153.576 4.93704 108.038 4.93704C62.5003 4.93704 25.5847 41.8442 25.5847 87.3713C25.5847 132.899 62.5003 169.806 108.038 169.806C153.576 169.806 190.491 132.899 190.491 87.3713Z" fill="#DFF2F1"/>
<g id="Group 278">
<g id="Group 265">
<mask id="mask2_4652_16135" style="mask-type:luminance" maskUnits="userSpaceOnUse" x="25" y="4" width="166" height="166">
<path id="Clip 264" fill-rule="evenodd" clip-rule="evenodd" d="M25.5847 87.3714C25.5847 132.899 62.5003 169.806 108.038 169.806C153.576 169.806 190.491 132.899 190.491 87.3714C190.491 41.8443 153.576 4.93714 108.038 4.93714C62.5003 4.93714 25.5847 41.8443 25.5847 87.3714Z" fill="white"/>
</mask>
<g mask="url(#mask2_4652_16135)">
<path id="Fill 263" fill-rule="evenodd" clip-rule="evenodd" d="M63.8424 92.8197C61.4419 97.8601 55.6017 101.418 48.7772 101.418C41.9528 101.418 36.1125 97.8601 33.712 92.8197C27.7439 95.2185 23.592 100.368 23.592 106.297C23.592 114.499 31.5345 133.509 41.2422 133.509H56.3123C66.0199 133.509 73.9624 114.499 73.9624 106.297C73.9624 100.368 69.8106 95.2185 63.8424 92.8197Z" fill="#AFDEDC"/>
</g>
</g>
<g id="Group 268">
<mask id="mask3_4652_16135" style="mask-type:luminance" maskUnits="userSpaceOnUse" x="25" y="4" width="166" height="166">
<path id="Clip 267" fill-rule="evenodd" clip-rule="evenodd" d="M25.5847 87.3714C25.5847 132.899 62.5003 169.806 108.038 169.806C153.576 169.806 190.491 132.899 190.491 87.3714C190.491 41.8443 153.576 4.93714 108.038 4.93714C62.5003 4.93714 25.5847 41.8443 25.5847 87.3714Z" fill="white"/>
</mask>
<g mask="url(#mask3_4652_16135)">
<path id="Fill 266" fill-rule="evenodd" clip-rule="evenodd" d="M61.5848 85.2901C61.5848 78.2186 55.8507 72.4856 48.7771 72.4856C41.7038 72.4856 35.9697 78.2186 35.9697 85.2901C35.9697 92.3618 41.7038 98.0948 48.7771 98.0948C55.8507 98.0948 61.5848 92.3618 61.5848 85.2901Z" fill="#AFDEDC"/>
</g>
</g>
<g id="Group 271">
<mask id="mask4_4652_16135" style="mask-type:luminance" maskUnits="userSpaceOnUse" x="25" y="4" width="166" height="166">
<path id="Clip 270" fill-rule="evenodd" clip-rule="evenodd" d="M25.5847 87.3714C25.5847 132.899 62.5003 169.806 108.038 169.806C153.576 169.806 190.491 132.899 190.491 87.3714C190.491 41.8443 153.576 4.93714 108.038 4.93714C62.5003 4.93714 25.5847 41.8443 25.5847 87.3714Z" fill="white"/>
</mask>
<g mask="url(#mask4_4652_16135)">
<path id="Fill 269" fill-rule="evenodd" clip-rule="evenodd" d="M183.842 92.8197C181.442 97.8601 175.602 101.418 168.777 101.418C161.953 101.418 156.113 97.8601 153.712 92.8197C147.744 95.2185 143.592 100.368 143.592 106.297C143.592 114.499 151.535 133.509 161.242 133.509H176.312C186.02 133.509 193.962 114.499 193.962 106.297C193.962 100.368 189.811 95.2185 183.842 92.8197Z" fill="#AFDEDC"/>
</g>
</g>
<g id="Group 274">
<mask id="mask5_4652_16135" style="mask-type:luminance" maskUnits="userSpaceOnUse" x="25" y="4" width="166" height="166">
<path id="Clip 273" fill-rule="evenodd" clip-rule="evenodd" d="M25.5847 87.3714C25.5847 132.899 62.5003 169.806 108.038 169.806C153.576 169.806 190.491 132.899 190.491 87.3714C190.491 41.8443 153.576 4.93714 108.038 4.93714C62.5003 4.93714 25.5847 41.8443 25.5847 87.3714Z" fill="white"/>
</mask>
<g mask="url(#mask5_4652_16135)">
<path id="Fill 272" fill-rule="evenodd" clip-rule="evenodd" d="M181.585 85.2901C181.585 78.2186 175.851 72.4856 168.777 72.4856C161.704 72.4856 155.97 78.2186 155.97 85.2901C155.97 92.3618 161.704 98.0948 168.777 98.0948C175.851 98.0948 181.585 92.3618 181.585 85.2901Z" fill="#AFDEDC"/>
</g>
</g>
<g id="Group 277">
<mask id="mask6_4652_16135" style="mask-type:luminance" maskUnits="userSpaceOnUse" x="25" y="4" width="166" height="166">
<path id="Clip 276" fill-rule="evenodd" clip-rule="evenodd" d="M25.5847 87.3714C25.5847 132.899 62.5003 169.806 108.038 169.806C153.576 169.806 190.491 132.899 190.491 87.3714C190.491 41.8443 153.576 4.93714 108.038 4.93714C62.5003 4.93714 25.5847 41.8443 25.5847 87.3714Z" fill="white"/>
</mask>
<g mask="url(#mask6_4652_16135)">
<path id="Fill 275" fill-rule="evenodd" clip-rule="evenodd" d="M96.0679 133.987C82.4729 130.532 71.4934 121.976 66.2425 110.951C49.0983 117.841 37.1721 132.632 37.1721 149.665V149.665C37.1721 173.225 59.9877 192.501 87.8729 192.501H131.163C159.048 192.501 181.863 173.225 181.863 149.665V149.665C181.863 132.632 169.938 117.841 152.793 110.951C145.898 125.429 129.122 135.651 109.518 135.651C104.842 135.651 100.326 135.069 96.0679 133.987Z" fill="#8EDDD2"/>
</g>
</g>
</g>
<g id="Group 281">
<mask id="mask7_4652_16135" style="mask-type:luminance" maskUnits="userSpaceOnUse" x="40" y="110" width="138" height="60">
<path id="Clip 280" fill-rule="evenodd" clip-rule="evenodd" d="M109.518 135.651C104.842 135.651 100.326 135.069 96.0679 133.987C82.4731 130.532 71.4933 121.976 66.2424 110.951C54.435 115.696 45.1027 124.189 40.4368 134.581C55.3442 155.88 80.0632 169.806 108.038 169.806C137.108 169.806 162.665 154.764 177.347 132.043C172.373 122.809 163.625 115.304 152.794 110.951C145.898 125.429 129.122 135.651 109.518 135.651Z" fill="white"/>
</mask>
<g mask="url(#mask7_4652_16135)">
<path id="Fill 279" fill-rule="evenodd" clip-rule="evenodd" d="M177.913 158.552C177.913 158.552 165.987 126.728 148.843 119.838L143.098 104.38L159.148 96.9744L175.197 108.083L192.481 139.187L177.913 158.552Z" fill="#6DAFA4"/>
</g>
</g>
<g id="Group 284">
<mask id="mask8_4652_16135" style="mask-type:luminance" maskUnits="userSpaceOnUse" x="25" y="4" width="166" height="166">
<path id="Clip 283" fill-rule="evenodd" clip-rule="evenodd" d="M25.5847 87.3714C25.5847 132.899 62.5003 169.806 108.038 169.806C153.576 169.806 190.491 132.899 190.491 87.3714C190.491 41.8443 153.576 4.93714 108.038 4.93714C62.5003 4.93714 25.5847 41.8443 25.5847 87.3714Z" fill="white"/>
</mask>
<g mask="url(#mask8_4652_16135)">
<path id="Stroke 282 (Stroke)" fill-rule="evenodd" clip-rule="evenodd" d="M65.5061 109.118C66.474 108.729 67.5775 109.16 68.0261 110.102C72.9896 120.523 83.4452 128.741 96.5546 132.073L96.0681 133.987L96.5547 132.073C100.654 133.114 105.006 133.675 109.518 133.675C128.477 133.675 144.49 123.793 151.01 110.102C151.459 109.16 152.562 108.729 153.53 109.118C171.24 116.235 183.839 131.645 183.839 149.665V149.665C183.839 174.615 159.814 194.476 131.163 194.476H87.8731C59.2221 194.476 35.197 174.615 35.197 149.665V149.665C35.197 131.645 47.7965 116.235 65.5061 109.118ZM65.3141 113.486C49.6515 120.408 39.1476 134.163 39.1476 149.665V149.665C39.1476 171.835 60.7536 190.526 87.8731 190.526H131.163C158.283 190.526 179.888 171.835 179.888 149.665V149.665C179.888 134.163 169.385 120.408 153.722 113.486C145.996 127.838 129.013 137.626 109.518 137.626C104.678 137.626 99.9994 137.024 95.5816 135.901C82.1894 132.498 71.1286 124.286 65.3141 113.486Z" fill="#545454"/>
</g>
</g>
<g id="Group 325">
<path id="Stroke 285 (Stroke)" fill-rule="evenodd" clip-rule="evenodd" d="M23.1156 87.3713C23.1156 40.48 61.1372 2.46791 108.038 2.46791C154.939 2.46791 192.96 40.48 192.96 87.3713C192.96 134.263 154.939 172.275 108.038 172.275C61.1372 172.275 23.1156 134.263 23.1156 87.3713ZM108.038 7.40618C63.8634 7.40618 28.0539 43.2084 28.0539 87.3713C28.0539 131.534 63.8634 167.337 108.038 167.337C152.212 167.337 188.022 131.534 188.022 87.3713C188.022 43.2084 152.212 7.40618 108.038 7.40618Z" fill="#545454"/>
<path id="Stroke 287 (Stroke)" fill-rule="evenodd" clip-rule="evenodd" d="M170.301 137.628C171.265 136.663 172.829 136.663 173.793 137.627L203.626 167.453L203.626 167.453C207.269 171.096 205.332 177.33 200.267 178.267L200.267 178.267L175.945 182.77C175.945 182.77 175.945 182.77 175.945 182.77C175.35 182.88 174.885 183.345 174.775 183.939L170.271 208.256C169.333 213.321 163.099 215.256 159.456 211.614L132.591 184.755C131.626 183.791 131.626 182.228 132.59 181.263C133.555 180.299 135.118 180.299 136.082 181.263L162.948 208.122L162.948 208.122C163.78 208.954 165.202 208.511 165.416 207.357L165.416 207.356L169.919 183.039L169.919 183.039C170.402 180.434 172.44 178.396 175.046 177.914L175.046 177.914L199.368 173.412C200.524 173.198 200.965 171.776 200.134 170.946L170.302 141.12C169.337 140.156 169.337 138.592 170.301 137.628Z" fill="#545454"/>
<path id="Stroke 289 (Stroke)" fill-rule="evenodd" clip-rule="evenodd" d="M45.6735 137.53C46.6377 138.494 46.6375 140.057 45.6731 141.022L15.8376 170.851L15.8375 170.851C15.0075 171.68 15.4473 173.101 16.6026 173.316L16.6027 173.316L40.9143 177.837C40.9143 177.837 40.9143 177.837 40.9143 177.837C43.5152 178.32 45.5508 180.355 46.0346 182.956C46.0346 182.956 46.0346 182.956 46.0346 182.956L50.5566 207.262L50.5566 207.262C50.7712 208.416 52.1928 208.858 53.0241 208.027L80.8164 180.241C81.7808 179.277 83.3442 179.277 84.3083 180.241C85.2725 181.206 85.2723 182.769 84.3079 183.733L56.5156 211.519L54.7698 209.773L56.5156 211.519C52.8748 215.159 46.6431 213.228 45.7016 208.165L41.1796 183.859L41.1796 183.859C41.0694 183.267 40.6052 182.802 40.0116 182.692L40.0115 182.692L15.7 178.171C10.6381 177.23 8.70405 170.999 12.3461 167.358C12.3461 167.358 12.3461 167.358 12.3462 167.358L42.1816 137.529C43.146 136.565 44.7094 136.565 45.6735 137.53Z" fill="#545454"/>
<path id="Stroke 291 (Stroke)" fill-rule="evenodd" clip-rule="evenodd" d="M100.382 70.0674C97.6744 70.0674 95.2588 71.3097 93.6702 73.2643C92.8101 74.3225 91.255 74.4831 90.1968 73.623C89.1386 72.7629 88.978 71.2078 89.8381 70.1496C92.324 67.091 96.1247 65.1291 100.382 65.1291C101.746 65.1291 102.851 66.2346 102.851 67.5982C102.851 68.9619 101.746 70.0674 100.382 70.0674Z" fill="white"/>
<path id="Stroke 293 (Stroke)" fill-rule="evenodd" clip-rule="evenodd" d="M89.4704 75.4628C90.8308 75.5578 91.8565 76.7376 91.7614 78.098C91.7474 78.2985 91.7403 78.5018 91.7403 78.7069C91.7403 80.0706 90.6348 81.1761 89.2711 81.1761C87.9075 81.1761 86.802 80.0706 86.802 78.7069C86.802 78.3873 86.8131 78.0692 86.8352 77.7538C86.9302 76.3934 88.1101 75.3677 89.4704 75.4628Z" fill="white"/>
<path id="Fill 295" fill-rule="evenodd" clip-rule="evenodd" d="M127.296 169.797C127.296 159.436 118.894 151.036 108.53 151.036C98.1664 151.036 89.7649 159.436 89.7649 169.797C89.7649 180.159 98.1664 188.558 108.53 188.558C118.894 188.558 127.296 180.159 127.296 169.797Z" fill="#00B2A8"/>
<path id="Stroke 297 (Stroke)" fill-rule="evenodd" clip-rule="evenodd" d="M87.7896 169.797C87.7896 158.344 97.0758 149.061 108.53 149.061C119.985 149.061 129.271 158.344 129.271 169.797C129.271 181.25 119.985 190.534 108.53 190.534C97.0758 190.534 87.7896 181.25 87.7896 169.797ZM108.53 153.011C99.2568 153.011 91.7402 160.527 91.7402 169.797C91.7402 179.067 99.2568 186.583 108.53 186.583C117.804 186.583 125.32 179.067 125.32 169.797C125.32 160.527 117.804 153.011 108.53 153.011Z" fill="#545454"/>
<g id="Group 302">
<path id="Fill 299" fill-rule="evenodd" clip-rule="evenodd" d="M105.085 164.283V178.75H111.976V173.205V164.283" fill="#DFF2F1"/>
<path id="Stroke 301 (Stroke)" fill-rule="evenodd" clip-rule="evenodd" d="M104.097 164.283H106.073V177.762H110.988V164.283H112.963V179.738H104.097V164.283Z" fill="#545454"/>
</g>
<path id="Fill 303" fill-rule="evenodd" clip-rule="evenodd" d="M108.53 159.117L105.085 164.283H111.976L108.53 159.117Z" fill="#DFF2F1"/>
<path id="Stroke 305 (Stroke)" fill-rule="evenodd" clip-rule="evenodd" d="M108.53 158.129C108.86 158.129 109.169 158.294 109.352 158.569L112.797 163.735C112.999 164.038 113.018 164.428 112.847 164.749C112.675 165.07 112.34 165.271 111.976 165.271H105.085C104.721 165.271 104.386 165.07 104.214 164.749C104.042 164.428 104.061 164.038 104.263 163.735L107.709 158.569C107.892 158.294 108.2 158.129 108.53 158.129ZM108.53 160.897L106.931 163.296H110.13L108.53 160.897Z" fill="#545454"/>
<path id="Fill 307" fill-rule="evenodd" clip-rule="evenodd" d="M115.938 178.647H112.01V171.482L115.938 178.647Z" fill="#DFF2F1"/>
<path id="Stroke 309 (Stroke)" fill-rule="evenodd" clip-rule="evenodd" d="M111.765 170.526C112.202 170.414 112.659 170.612 112.876 171.008L116.804 178.172C116.972 178.478 116.965 178.85 116.788 179.15C116.61 179.45 116.287 179.635 115.938 179.635H112.01C111.465 179.635 111.022 179.192 111.022 178.647V171.482C111.022 171.031 111.328 170.638 111.765 170.526ZM112.998 175.339V177.659H114.27L112.998 175.339Z" fill="#545454"/>
<path id="Fill 311" fill-rule="evenodd" clip-rule="evenodd" d="M115.938 178.716H112.01V171.551L115.938 178.716Z" fill="#DFF2F1"/>
<path id="Stroke 313 (Stroke)" fill-rule="evenodd" clip-rule="evenodd" d="M111.765 170.595C112.202 170.483 112.659 170.681 112.876 171.077L116.804 178.241C116.972 178.547 116.965 178.919 116.788 179.219C116.61 179.519 116.287 179.703 115.938 179.703H112.01C111.465 179.703 111.022 179.261 111.022 178.716V171.551C111.022 171.1 111.328 170.707 111.765 170.595ZM112.998 175.407V177.728H114.27L112.998 175.407Z" fill="#545454"/>
<path id="Fill 315" fill-rule="evenodd" clip-rule="evenodd" d="M115.938 178.716H112.01V171.551L115.938 178.716Z" fill="#DFF2F1"/>
<path id="Stroke 317 (Stroke)" fill-rule="evenodd" clip-rule="evenodd" d="M111.765 170.595C112.202 170.483 112.659 170.681 112.876 171.077L116.804 178.241C116.972 178.547 116.965 178.919 116.788 179.219C116.61 179.519 116.287 179.703 115.938 179.703H112.01C111.465 179.703 111.022 179.261 111.022 178.716V171.551C111.022 171.1 111.328 170.707 111.765 170.595ZM112.998 175.407V177.728H114.27L112.998 175.407Z" fill="#545454"/>
<path id="Fill 319" fill-rule="evenodd" clip-rule="evenodd" d="M101.123 178.716H105.051V171.551L101.123 178.716Z" fill="#DFF2F1"/>
<path id="Stroke 321 (Stroke)" fill-rule="evenodd" clip-rule="evenodd" d="M105.296 170.595C105.733 170.707 106.038 171.1 106.038 171.551V178.716C106.038 179.261 105.596 179.703 105.051 179.703H101.123C100.774 179.703 100.451 179.519 100.273 179.219C100.095 178.919 100.089 178.547 100.257 178.241L104.185 171.077C104.401 170.681 104.859 170.483 105.296 170.595ZM102.791 177.728H104.063V175.407L102.791 177.728Z" fill="#545454"/>
<path id="Fill 323" fill-rule="evenodd" clip-rule="evenodd" d="M146.308 89.3218C146.308 69.0079 129.837 52.5401 109.518 52.5401C89.1994 52.5401 72.7278 69.0079 72.7278 89.3218C72.7278 109.636 89.1994 126.104 109.518 126.104C129.837 126.104 146.308 109.636 146.308 89.3218Z" fill="#8EDDD2"/>
</g>
<g id="Group 328">
<mask id="mask9_4652_16135" style="mask-type:luminance" maskUnits="userSpaceOnUse" x="72" y="52" width="75" height="75">
<path id="Clip 327" fill-rule="evenodd" clip-rule="evenodd" d="M72.728 89.3218C72.728 109.636 89.1994 126.104 109.518 126.104C129.837 126.104 146.308 109.636 146.308 89.3218C146.308 69.0079 129.837 52.5401 109.518 52.5401C89.1994 52.5401 72.728 69.0079 72.728 89.3218Z" fill="white"/>
</mask>
<g mask="url(#mask9_4652_16135)">
<path id="Fill 326" fill-rule="evenodd" clip-rule="evenodd" d="M121.067 56.4358C128.139 60.6956 133.828 67.3484 136.777 75.7455C143.509 94.9119 133.426 115.906 114.255 122.636C105.856 125.585 97.106 125.307 89.3589 122.452C98.4298 127.915 109.779 129.441 120.55 125.659C139.721 118.928 149.805 97.9342 143.072 78.7677C139.29 67.9983 131.003 60.0977 121.067 56.4358Z" fill="#70B2A7"/>
</g>
</g>
<g id="Group 343">
<path id="Stroke 329 (Stroke)" fill-rule="evenodd" clip-rule="evenodd" d="M70.7524 89.3218C70.7524 67.9166 88.1088 50.5648 109.518 50.5648C130.927 50.5648 148.283 67.9166 148.283 89.3218C148.283 110.727 130.927 128.079 109.518 128.079C88.1089 128.079 70.7524 110.727 70.7524 89.3218ZM109.518 54.5154C90.2899 54.5154 74.7031 70.0993 74.7031 89.3218C74.7031 108.545 90.2899 124.128 109.518 124.128C128.746 124.128 144.333 108.545 144.333 89.3218C144.333 70.0993 128.746 54.5154 109.518 54.5154Z" fill="#545454"/>
<path id="Fill 331" fill-rule="evenodd" clip-rule="evenodd" d="M95.354 91.5551C95.354 92.6282 94.4841 93.4978 93.4107 93.4978C92.3374 93.4978 91.4673 92.6282 91.4673 91.5551C91.4673 90.482 92.3374 89.6123 93.4107 89.6123C94.4841 89.6123 95.354 90.482 95.354 91.5551Z" fill="#545454"/>
<path id="Fill 333" fill-rule="evenodd" clip-rule="evenodd" d="M127.807 91.5551C127.807 92.6282 126.936 93.4978 125.863 93.4978C124.79 93.4978 123.92 92.6282 123.92 91.5551C123.92 90.482 124.79 89.6123 125.863 89.6123C126.936 89.6123 127.807 90.482 127.807 91.5551Z" fill="#545454"/>
<path id="Stroke 335 (Stroke)" fill-rule="evenodd" clip-rule="evenodd" d="M128.115 28.871C123.343 24.101 115.608 24.101 110.837 28.871L110.837 28.871C104.681 35.0256 104.681 45.0044 110.837 51.1593L108.044 53.9531C100.344 46.2554 100.344 33.7747 108.044 26.0772M108.044 26.0771C114.358 19.7648 124.594 19.7648 130.908 26.0772C136.113 31.2814 136.113 39.7193 130.908 44.9236L130.908 44.9237C126.589 49.2409 119.588 49.2409 115.269 44.9237L115.269 44.9235C111.66 41.315 111.66 35.4645 115.269 31.8562C118.311 28.815 123.242 28.815 126.284 31.8562C128.871 34.4432 128.871 38.6379 126.284 41.2249L126.283 41.2251C124.059 43.4485 120.453 43.4487 118.229 41.2249L118.229 41.2248C116.807 39.8026 116.43 37.7306 117.1 35.9648C116.073 37.9551 116.394 40.461 118.062 42.1297C120.838 44.9047 125.339 44.9047 128.115 42.1298M123.712 34.9009L121.596 37.0168C121.438 36.8584 121.181 36.8584 121.022 37.0168L121.022 37.017C120.632 37.4074 120.631 38.0404 121.022 38.4313C121.704 39.1123 122.809 39.1125 123.49 38.4311C124.455 37.467 124.529 35.9498 123.712 34.9009ZM128.115 28.871C131.777 32.5323 131.777 38.4684 128.115 42.1297L128.115 28.871Z" fill="#545454"/>
<path id="Fill 337" fill-rule="evenodd" clip-rule="evenodd" d="M118.787 97.3447C123.008 97.3447 125.723 101.927 123.589 105.568C120.761 110.395 115.518 113.637 109.518 113.637C103.582 113.637 98.3873 110.464 95.5381 105.723C93.3238 102.037 95.9522 97.3447 100.253 97.3447H118.787Z" fill="#545454"/>
<path id="Stroke 339 (Stroke)" fill-rule="evenodd" clip-rule="evenodd" d="M100.135 69.8206C96.6534 69.8206 93.5471 71.4187 91.506 73.9304C90.646 74.9887 89.091 75.1495 88.0327 74.2895C86.9744 73.4295 86.8136 71.8744 87.6736 70.8161C90.6123 67.1998 95.104 64.8823 100.135 64.8823C101.499 64.8823 102.604 65.9878 102.604 67.3514C102.604 68.7151 101.499 69.8206 100.135 69.8206Z" fill="white"/>
<path id="Stroke 341 (Stroke)" fill-rule="evenodd" clip-rule="evenodd" d="M86.7595 77.5106C88.1199 77.6054 89.1458 78.785 89.0511 80.1454C89.0331 80.4035 89.024 80.6647 89.024 80.9287C89.024 82.2923 87.9185 83.3978 86.5548 83.3978C85.1912 83.3978 84.0857 82.2923 84.0857 80.9287C84.0857 80.5507 84.0988 80.1751 84.1247 79.8022C84.2195 78.4419 85.3991 77.4159 86.7595 77.5106Z" fill="white"/>
</g>
</g>
</g>
</svg>
