<svg width="216" height="216" viewBox="0 0 216 216" fill="none" xmlns="http://www.w3.org/2000/svg">
<rect width="216" height="216" fill="#F5F5F5"/>
<g id="Learning">
<g id="Group">
<path id="Fill 346" fill-rule="evenodd" clip-rule="evenodd" d="M163.961 215.96C161.607 215.96 159.387 215.036 157.71 213.359L127.852 183.508C126.451 185.481 124.751 187.245 122.814 188.709C118.673 191.84 113.734 193.496 108.531 193.496C100.344 193.496 92.9903 189.352 88.7108 182.822L58.2616 213.264C56.5843 214.941 54.3646 215.864 52.011 215.864C47.7298 215.864 44.0552 212.817 43.274 208.617L38.8789 184.992L15.2485 180.598C12.0026 179.994 9.37866 177.661 8.40064 174.508C7.42261 171.356 8.26533 167.947 10.5996 165.613L37.4016 138.818C32.5192 132.133 28.6315 124.827 25.8194 117.044C22.3871 107.543 20.6466 97.5597 20.6466 87.3716C20.6466 75.5788 22.9577 64.1357 27.5162 53.3611C31.9182 42.9566 38.2187 33.6131 46.2429 25.5907C54.2671 17.5678 63.6127 11.2688 74.0196 6.86806C84.7972 2.31034 96.2424 0 108.038 0C119.833 0 131.279 2.31034 142.056 6.86806C152.463 11.2688 161.809 17.5678 169.833 25.5907C177.857 33.6131 184.158 42.9566 188.56 53.3611C193.118 64.1357 195.429 75.5788 195.429 87.3716C195.429 97.5863 193.68 107.594 190.231 117.116C187.404 124.918 183.497 132.238 178.591 138.933L205.372 165.709C207.708 168.044 208.55 171.453 207.57 174.607C206.591 177.76 203.965 180.093 200.717 180.694L177.076 185.071L172.699 208.705C171.921 212.909 168.246 215.96 163.961 215.96H163.961Z" fill="white"/>
<path id="Fill 348" fill-rule="evenodd" clip-rule="evenodd" d="M64.482 118.725L14.0916 169.104C11.8556 171.34 13.0427 175.165 16.1514 175.744L40.463 180.264C42.0603 180.561 43.3101 181.811 43.6072 183.408L48.1291 207.714C48.7072 210.822 52.5338 212.009 54.7699 209.773L105.16 159.394C106.695 157.86 106.695 155.373 105.16 153.839L70.0385 118.725C68.504 117.191 66.0166 117.191 64.482 118.725Z" fill="#7A11F2"/>
<g id="Group 352">
<mask id="mask0_4652_16135" style="mask-type:luminance" maskUnits="userSpaceOnUse" x="12" y="117" width="95" height="94">
<path id="Clip 351" fill-rule="evenodd" clip-rule="evenodd" d="M64.4817 118.725L14.0916 169.104C11.8556 171.34 13.0427 175.165 16.1511 175.744L40.4627 180.264C42.0603 180.561 43.3101 181.811 43.6072 183.408L48.1289 207.714C48.7072 210.822 52.5338 212.009 54.7699 209.773L105.16 159.394C106.695 157.86 106.695 155.373 105.16 153.839L70.0385 118.725C69.2711 117.958 68.2657 117.575 67.2603 117.575C66.2546 117.575 65.2492 117.958 64.4817 118.725Z" fill="white"/>
</mask>
<g mask="url(#mask0_4652_16135)">
<path id="Fill 350" fill-rule="evenodd" clip-rule="evenodd" d="M36.269 199.014L25.5759 188.323L94.2638 119.651L104.957 130.342L36.269 199.014Z" fill="#F1E6FD"/>
</g>
</g>
<path id="Fill 353" fill-rule="evenodd" clip-rule="evenodd" d="M151.395 118.725L201.881 169.2C204.117 171.436 202.928 175.263 199.818 175.839L175.495 180.342C173.895 180.638 172.644 181.89 172.347 183.489L167.844 207.806C167.268 210.916 163.439 212.105 161.202 209.868L110.717 159.394C109.182 157.86 109.182 155.373 110.717 153.839L145.838 118.725C147.373 117.191 149.86 117.191 151.395 118.725Z" fill="#7A11F2"/>
<g id="Group 357">
<mask id="mask1_4652_16135" style="mask-type:luminance" maskUnits="userSpaceOnUse" x="109" y="117" width="95" height="95">
<path id="Clip 356" fill-rule="evenodd" clip-rule="evenodd" d="M145.838 118.725L110.717 153.839C109.182 155.373 109.182 157.86 110.717 159.394L161.202 209.868C163.439 212.105 167.268 210.916 167.844 207.806L172.347 183.489C172.644 181.89 173.895 180.638 175.495 180.342L199.818 175.84C202.928 175.264 204.117 171.436 201.88 169.2L151.395 118.725C150.628 117.958 149.622 117.575 148.616 117.575C147.611 117.575 146.606 117.958 145.838 118.725Z" fill="white"/>
</mask>
<g mask="url(#mask1_4652_16135)">
<path id="Fill 355" fill-rule="evenodd" clip-rule="evenodd" d="M190.502 188.581L179.809 199.272L111.121 130.599L121.814 119.909L190.502 188.581Z" fill="#F1E6FD"/>
</g>
</g>
<path id="Fill 358" fill-rule="evenodd" clip-rule="evenodd" d="M190.491 87.3713C190.491 41.8442 153.576 4.93704 108.038 4.93704C62.5005 4.93704 25.585 41.8442 25.585 87.3713C25.585 132.899 62.5005 169.806 108.038 169.806C153.576 169.806 190.491 132.899 190.491 87.3713Z" fill="#F1E6FD"/>
<g id="Group 362">
<mask id="mask2_4652_16135" style="mask-type:luminance" maskUnits="userSpaceOnUse" x="25" y="4" width="166" height="166">
<path id="Clip 361" fill-rule="evenodd" clip-rule="evenodd" d="M25.5847 87.3714C25.5847 132.899 62.5003 169.806 108.038 169.806C153.576 169.806 190.491 132.899 190.491 87.3714C190.491 41.8443 153.576 4.93714 108.038 4.93714C62.5003 4.93714 25.5847 41.8443 25.5847 87.3714Z" fill="white"/>
</mask>
<g mask="url(#mask2_4652_16135)">
<path id="Fill 360" fill-rule="evenodd" clip-rule="evenodd" d="M137.419 251.507H83.0982C45.4809 251.507 14.7034 220.736 14.7034 183.128V183.128C14.7034 145.519 45.4809 114.748 83.0982 114.748H137.419C175.037 114.748 205.814 145.519 205.814 183.128V183.128C205.814 220.736 175.037 251.507 137.419 251.507Z" fill="white"/>
</g>
</g>
<g id="Group 365">
<mask id="mask3_4652_16135" style="mask-type:luminance" maskUnits="userSpaceOnUse" x="38" y="114" width="142" height="56">
<path id="Clip 364" fill-rule="evenodd" clip-rule="evenodd" d="M83.0982 114.748C66.0414 114.748 50.3915 121.074 38.3787 131.496C53.0024 154.524 78.735 169.806 108.038 169.806C138.359 169.806 164.856 153.443 179.18 129.069C167.608 120.101 153.108 114.748 137.419 114.748" fill="white"/>
</mask>
<g mask="url(#mask3_4652_16135)">
<path id="Fill 363" fill-rule="evenodd" clip-rule="evenodd" d="M125.387 114.748H111.74C155.976 114.748 192.168 145.519 192.168 183.128V183.128C192.168 220.736 155.976 251.507 111.74 251.507H125.387C169.622 251.507 205.814 220.736 205.814 183.128V183.128C205.814 145.519 169.622 114.748 125.387 114.748Z" fill="#DFF2F1"/>
</g>
</g>
<g id="Group 372">
<g id="Group 368">
<mask id="mask4_4652_16135" style="mask-type:luminance" maskUnits="userSpaceOnUse" x="25" y="4" width="166" height="166">
<path id="Clip 367" fill-rule="evenodd" clip-rule="evenodd" d="M25.5847 87.3714C25.5847 132.899 62.5003 169.806 108.038 169.806C153.576 169.806 190.491 132.899 190.491 87.3714C190.491 41.8443 153.576 4.93714 108.038 4.93714C62.5003 4.93714 25.5847 41.8443 25.5847 87.3714Z" fill="white"/>
</mask>
<g mask="url(#mask4_4652_16135)">
<path id="Stroke 366 (Stroke)" fill-rule="evenodd" clip-rule="evenodd" d="M83.0981 117.502C47.0014 117.502 17.4576 147.041 17.4576 183.128V183.128C17.4576 219.215 47.0014 248.753 83.0981 248.753H137.419C173.516 248.753 203.06 219.215 203.06 183.128V183.128C203.06 147.041 173.516 117.502 137.419 117.502H83.0981ZM11.949 183.128C11.949 143.997 43.9602 111.994 83.0981 111.994H137.419C176.557 111.994 208.569 143.997 208.569 183.128V183.128C208.569 222.258 176.557 254.261 137.419 254.261H83.0981C43.9603 254.261 11.949 222.258 11.949 183.128V183.128Z" fill="#545454"/>
</g>
</g>
<g id="Group 371">
<mask id="mask5_4652_16135" style="mask-type:luminance" maskUnits="userSpaceOnUse" x="25" y="4" width="166" height="166">
<path id="Clip 370" fill-rule="evenodd" clip-rule="evenodd" d="M25.5847 87.3714C25.5847 132.899 62.5003 169.806 108.038 169.806C153.576 169.806 190.491 132.899 190.491 87.3714C190.491 41.8443 153.576 4.93714 108.038 4.93714C62.5003 4.93714 25.5847 41.8443 25.5847 87.3714Z" fill="white"/>
</mask>
<g mask="url(#mask5_4652_16135)">
<path id="Fill 369" fill-rule="evenodd" clip-rule="evenodd" d="M163.918 79.7951C163.918 49.8163 139.633 25.5135 109.677 25.5135C79.7211 25.5135 55.4367 49.8163 55.4367 79.7951H55.5441V117.986V117.985C55.5441 119.215 55.2614 121.946 55.5441 123.135C60.1268 136.555 82.7424 146.306 109.409 146.306C136.075 146.306 159.335 136.555 163.918 123.135V79.7951Z" fill="white"/>
</g>
</g>
</g>
<g id="Group 380">
<g id="Group 376">
<mask id="mask6_4652_16135" style="mask-type:luminance" maskUnits="userSpaceOnUse" x="55" y="25" width="109" height="122">
<path id="Clip 374" fill-rule="evenodd" clip-rule="evenodd" d="M55.4369 79.7953H55.5441V117.985C55.5441 119.215 55.2614 121.946 55.5441 123.135C60.1271 136.555 82.7426 146.306 109.409 146.306C136.076 146.306 159.335 136.555 163.918 123.135V79.7953C163.918 49.8163 139.633 25.5137 109.677 25.5137C79.7214 25.5137 55.4369 49.8163 55.4369 79.7953Z" fill="white"/>
</mask>
<g mask="url(#mask6_4652_16135)">
<path id="Fill 373" fill-rule="evenodd" clip-rule="evenodd" d="M55.5441 102.323C55.5441 103.552 55.2614 106.284 55.5441 107.472V102.323Z" fill="#FF9A36"/>
<path id="Stroke 375 (Stroke)" fill-rule="evenodd" clip-rule="evenodd" d="M55.2421 103.718C55.2696 103.173 55.2942 102.685 55.2942 102.323H55.7942C55.7942 102.694 55.7685 103.207 55.7404 103.766C55.7217 104.14 55.7019 104.534 55.688 104.922C55.6524 105.913 55.6552 106.859 55.7874 107.414L55.301 107.53C55.1504 106.897 55.1532 105.882 55.1883 104.904C55.2029 104.496 55.2232 104.093 55.2421 103.718Z" fill="#454B54"/>
</g>
</g>
<g id="Group 379">
<mask id="mask7_4652_16135" style="mask-type:luminance" maskUnits="userSpaceOnUse" x="55" y="25" width="109" height="122">
<path id="Clip 378" fill-rule="evenodd" clip-rule="evenodd" d="M55.4369 79.7953H55.5441V117.985C55.5441 119.215 55.2614 121.946 55.5441 123.135C60.1271 136.555 82.7426 146.306 109.409 146.306C136.076 146.306 159.335 136.555 163.918 123.135V79.7953C163.918 49.8163 139.633 25.5137 109.677 25.5137C79.7214 25.5137 55.4369 49.8163 55.4369 79.7953Z" fill="white"/>
</mask>
<g mask="url(#mask7_4652_16135)">
<path id="Fill 377" fill-rule="evenodd" clip-rule="evenodd" d="M108.117 28.3481C106.83 28.3481 105.555 28.394 104.29 28.4779C132.46 30.3513 154.703 52.7378 154.703 80.0822V121.388C150.341 133.562 129.059 142.567 104.024 143.407C105.289 143.45 106.564 143.471 107.849 143.471C134.516 143.471 157.775 134.178 162.358 121.388V80.0822C162.358 51.5102 138.073 28.3481 108.117 28.3481Z" fill="#DFF2F1"/>
</g>
</g>
</g>
<g id="Group 451">
<g id="Group 383">
<mask id="mask8_4652_16135" style="mask-type:luminance" maskUnits="userSpaceOnUse" x="25" y="4" width="166" height="166">
<path id="Clip 382" fill-rule="evenodd" clip-rule="evenodd" d="M25.5847 87.3714C25.5847 132.899 62.5003 169.806 108.038 169.806C153.576 169.806 190.491 132.899 190.491 87.3714C190.491 41.8443 153.576 4.93714 108.038 4.93714C62.5003 4.93714 25.5847 41.8443 25.5847 87.3714Z" fill="white"/>
</mask>
<g mask="url(#mask8_4652_16135)">
<path id="Stroke 381 (Stroke)" fill-rule="evenodd" clip-rule="evenodd" d="M52.9676 79.7951C52.9676 48.4544 78.3557 23.0443 109.677 23.0443C140.999 23.0443 166.387 48.4544 166.387 79.7951V123.545L166.254 123.933C163.625 131.633 155.872 137.808 145.907 142.027C135.837 146.29 123.02 148.775 109.409 148.775C95.797 148.775 83.1356 146.29 73.2188 142.021C63.3941 137.792 55.8292 131.611 53.2075 123.933L53.1693 123.821L53.142 123.706C52.9098 122.73 52.9375 121.407 52.9706 120.487C52.9886 119.983 53.0109 119.55 53.0303 119.174C53.0551 118.694 53.075 118.307 53.075 117.986C53.075 117.986 53.075 117.986 53.075 117.986V82.2643H52.9676V79.7951ZM57.9636 77.326H58.0133V117.985C58.0133 117.985 58.0133 117.986 58.0133 117.985C58.0132 118.4 57.9821 119.032 57.9517 119.647C57.934 120.007 57.9165 120.361 57.9057 120.664C57.8888 121.134 57.882 121.564 57.8929 121.928C57.8983 122.108 57.9076 122.256 57.9195 122.374C57.9241 122.419 57.9288 122.457 57.9332 122.487C59.9475 128.174 65.9573 133.519 75.1714 137.485C84.3747 141.447 96.3545 143.837 109.409 143.837C122.464 143.837 134.611 141.447 143.982 137.48C153.254 133.554 159.359 128.291 161.449 122.707V79.7951C161.449 51.1782 138.268 27.9826 109.677 27.9826C81.9136 27.9826 59.2514 49.8558 57.9636 77.326Z" fill="#545454"/>
</g>
</g>
<g id="Group 387">
<mask id="mask9_4652_16135" style="mask-type:luminance" maskUnits="userSpaceOnUse" x="25" y="4" width="166" height="166">
<path id="Clip 385" fill-rule="evenodd" clip-rule="evenodd" d="M25.5847 87.3714C25.5847 132.899 62.5003 169.806 108.038 169.806C153.576 169.806 190.491 132.899 190.491 87.3714C190.491 41.8443 153.576 4.93714 108.038 4.93714C62.5003 4.93714 25.5847 41.8443 25.5847 87.3714Z" fill="white"/>
</mask>
<g mask="url(#mask9_4652_16135)">
<path id="Fill 384" fill-rule="evenodd" clip-rule="evenodd" d="M154.904 88.5918L154.81 79.8202C154.81 59.8996 134.509 43.7505 109.467 43.7505C84.4255 43.7505 64.1248 59.8996 64.1248 79.8202V116.37C64.1248 123.78 84.4255 129.786 109.467 129.786C134.509 129.786 154.81 123.78 154.81 116.37V105.97" fill="#C199F9"/>
<path id="Stroke 386 (Stroke)" fill-rule="evenodd" clip-rule="evenodd" d="M61.6558 79.8202C61.6558 58.039 83.6188 41.2813 109.467 41.2813C135.311 41.2813 157.27 58.0321 157.279 79.8069L157.373 88.5653C157.388 89.9289 156.295 91.0462 154.931 91.0608C153.567 91.0755 152.45 89.982 152.435 88.6184L152.341 79.8335V79.8202C152.341 61.7603 133.703 46.2196 109.467 46.2196C85.2325 46.2196 66.594 61.7603 66.594 79.8202V116.37C66.594 117.01 67.0451 118.129 69.1035 119.569C71.0918 120.96 74.1298 122.312 78.106 123.489C86.0264 125.832 97.1151 127.317 109.467 127.317C121.82 127.317 132.909 125.832 140.829 123.489C144.805 122.312 147.843 120.96 149.832 119.569C151.89 118.129 152.341 117.01 152.341 116.37V105.97C152.341 104.607 153.446 103.501 154.81 103.501C156.174 103.501 157.279 104.607 157.279 105.97V116.37C157.279 119.436 155.193 121.845 152.662 123.616C150.062 125.435 146.459 126.973 142.23 128.224C133.74 130.736 122.157 132.255 109.467 132.255C96.7779 132.255 85.1953 130.736 76.705 128.224C72.4758 126.973 68.8735 125.435 66.2729 123.616C63.7423 121.845 61.6558 119.436 61.6558 116.37V79.8202Z" fill="#545454"/>
</g>
</g>
<g id="Group 390">
<mask id="mask10_4652_16135" style="mask-type:luminance" maskUnits="userSpaceOnUse" x="25" y="4" width="166" height="166">
<path id="Clip 389" fill-rule="evenodd" clip-rule="evenodd" d="M25.5847 87.3714C25.5847 132.899 62.5003 169.806 108.038 169.806C153.576 169.806 190.491 132.899 190.491 87.3714C190.491 41.8443 153.576 4.93714 108.038 4.93714C62.5003 4.93714 25.5847 41.8443 25.5847 87.3714Z" fill="white"/>
</mask>
<g mask="url(#mask10_4652_16135)">
<path id="Fill 388" fill-rule="evenodd" clip-rule="evenodd" d="M164.025 78.2933C167.861 78.2933 170.999 80.9181 170.999 84.126V100.996C170.999 104.204 167.861 106.829 164.025 106.829" fill="#545454"/>
</g>
</g>
<g id="Group 393">
<mask id="mask11_4652_16135" style="mask-type:luminance" maskUnits="userSpaceOnUse" x="25" y="4" width="166" height="166">
<path id="Clip 392" fill-rule="evenodd" clip-rule="evenodd" d="M25.5847 87.3714C25.5847 132.899 62.5003 169.806 108.038 169.806C153.576 169.806 190.491 132.899 190.491 87.3714C190.491 41.8443 153.576 4.93714 108.038 4.93714C62.5003 4.93714 25.5847 41.8443 25.5847 87.3714Z" fill="white"/>
</mask>
<g mask="url(#mask11_4652_16135)">
<path id="Fill 391" fill-rule="evenodd" clip-rule="evenodd" d="M55.4367 106.829C51.6009 106.829 48.4624 104.204 48.4624 100.996V84.1259C48.4624 80.918 51.6009 78.2932 55.4367 78.2932" fill="#545454"/>
</g>
</g>
<g id="Group 396">
<mask id="mask12_4652_16135" style="mask-type:luminance" maskUnits="userSpaceOnUse" x="25" y="4" width="166" height="166">
<path id="Clip 395" fill-rule="evenodd" clip-rule="evenodd" d="M25.5847 87.3714C25.5847 132.899 62.5003 169.806 108.038 169.806C153.576 169.806 190.491 132.899 190.491 87.3714C190.491 41.8443 153.576 4.93714 108.038 4.93714C62.5003 4.93714 25.5847 41.8443 25.5847 87.3714Z" fill="white"/>
</mask>
<g mask="url(#mask12_4652_16135)">
<path id="Fill 394" fill-rule="evenodd" clip-rule="evenodd" d="M92.5388 91.1346C92.5388 92.485 91.4438 93.5798 90.0931 93.5798C88.7423 93.5798 87.6472 92.485 87.6472 91.1346C87.6472 89.7841 88.7423 88.6895 90.0931 88.6895C91.4438 88.6895 92.5388 89.7841 92.5388 91.1346Z" fill="#545454"/>
</g>
</g>
<g id="Group 399">
<mask id="mask13_4652_16135" style="mask-type:luminance" maskUnits="userSpaceOnUse" x="25" y="4" width="166" height="166">
<path id="Clip 398" fill-rule="evenodd" clip-rule="evenodd" d="M25.5847 87.3714C25.5847 132.899 62.5003 169.806 108.038 169.806C153.576 169.806 190.491 132.899 190.491 87.3714C190.491 41.8443 153.576 4.93714 108.038 4.93714C62.5003 4.93714 25.5847 41.8443 25.5847 87.3714Z" fill="white"/>
</mask>
<g mask="url(#mask13_4652_16135)">
<path id="Fill 397" fill-rule="evenodd" clip-rule="evenodd" d="M133.382 91.1346C133.382 92.485 132.287 93.5798 130.936 93.5798C129.586 93.5798 128.49 92.485 128.49 91.1346C128.49 89.7841 129.586 88.6895 130.936 88.6895C132.287 88.6895 133.382 89.7841 133.382 91.1346Z" fill="#545454"/>
</g>
</g>
<g id="Group 402">
<mask id="mask14_4652_16135" style="mask-type:luminance" maskUnits="userSpaceOnUse" x="25" y="4" width="166" height="166">
<path id="Clip 401" fill-rule="evenodd" clip-rule="evenodd" d="M25.5847 87.3714C25.5847 132.899 62.5003 169.806 108.038 169.806C153.576 169.806 190.491 132.899 190.491 87.3714C190.491 41.8443 153.576 4.93714 108.038 4.93714C62.5003 4.93714 25.5847 41.8443 25.5847 87.3714Z" fill="white"/>
</mask>
<g mask="url(#mask14_4652_16135)">
<path id="Stroke 400 (Stroke)" fill-rule="evenodd" clip-rule="evenodd" d="M122.597 95.5846C122.697 96.671 121.897 97.6326 120.811 97.7325L104.055 99.2728C102.968 99.3727 102.007 98.573 101.907 97.4867C101.807 96.4003 102.607 95.4387 103.693 95.3388L120.449 93.7984C121.535 93.6986 122.497 94.4983 122.597 95.5846Z" fill="#545454"/>
</g>
</g>
<g id="Group 405">
<mask id="mask15_4652_16135" style="mask-type:luminance" maskUnits="userSpaceOnUse" x="25" y="4" width="166" height="166">
<path id="Clip 404" fill-rule="evenodd" clip-rule="evenodd" d="M25.5847 87.3714C25.5847 132.899 62.5003 169.806 108.038 169.806C153.576 169.806 190.491 132.899 190.491 87.3714C190.491 41.8443 153.576 4.93714 108.038 4.93714C62.5003 4.93714 25.5847 41.8443 25.5847 87.3714Z" fill="white"/>
</mask>
<g mask="url(#mask15_4652_16135)">
<path id="Stroke 403 (Stroke)" fill-rule="evenodd" clip-rule="evenodd" d="M135.809 81.5339C136.126 82.5776 135.538 83.6811 134.494 83.9987L125.634 86.6944C124.591 87.0119 123.487 86.4233 123.17 85.3796C122.852 84.3359 123.441 83.2324 124.484 82.9148L133.344 80.2191C134.388 79.9016 135.491 80.4902 135.809 81.5339Z" fill="#545454"/>
</g>
</g>
<g id="Group 408">
<mask id="mask16_4652_16135" style="mask-type:luminance" maskUnits="userSpaceOnUse" x="25" y="4" width="166" height="166">
<path id="Clip 407" fill-rule="evenodd" clip-rule="evenodd" d="M25.5847 87.3714C25.5847 132.899 62.5003 169.806 108.038 169.806C153.576 169.806 190.491 132.899 190.491 87.3714C190.491 41.8443 153.576 4.93714 108.038 4.93714C62.5003 4.93714 25.5847 41.8443 25.5847 87.3714Z" fill="white"/>
</mask>
<g mask="url(#mask16_4652_16135)">
<path id="Stroke 406 (Stroke)" fill-rule="evenodd" clip-rule="evenodd" d="M91.6299 83.8223C91.0881 83.491 90.3739 83.2882 89.6626 83.3166C88.9526 83.345 88.2909 83.6016 87.825 83.9537C87.3394 84.3207 87.2362 84.6461 87.2276 84.7598C87.146 85.8477 86.1979 86.6634 85.1101 86.5818C84.0222 86.5001 83.2065 85.5521 83.2881 84.4642C83.4062 82.8899 84.3537 81.6252 85.4431 80.8018C86.5524 79.9635 87.9903 79.4296 89.505 79.3691C91.0183 79.3087 92.5015 79.7247 93.6906 80.4517C94.8547 81.1634 95.9405 82.3094 96.2687 83.8336C96.4983 84.9001 95.8199 85.9508 94.7534 86.1804C93.6869 86.41 92.6362 85.7316 92.4066 84.6651C92.3754 84.5206 92.1967 84.1688 91.6299 83.8223Z" fill="#545454"/>
</g>
</g>
<g id="Group 411">
<mask id="mask17_4652_16135" style="mask-type:luminance" maskUnits="userSpaceOnUse" x="25" y="4" width="166" height="166">
<path id="Clip 410" fill-rule="evenodd" clip-rule="evenodd" d="M25.5847 87.3714C25.5847 132.899 62.5003 169.806 108.038 169.806C153.576 169.806 190.491 132.899 190.491 87.3714C190.491 41.8443 153.576 4.93714 108.038 4.93714C62.5003 4.93714 25.5847 41.8443 25.5847 87.3714Z" fill="white"/>
</mask>
<g mask="url(#mask17_4652_16135)">
<path id="Fill 409" fill-rule="evenodd" clip-rule="evenodd" d="M107.39 145.288L109.45 143.228C111.288 141.391 111.288 138.383 109.45 136.545L94.888 121.987C93.0498 120.149 90.0416 120.149 88.2034 121.987L86.1434 124.046C84.3051 125.884 84.3051 128.892 86.1434 130.73L100.705 145.288C102.543 147.126 105.552 147.126 107.39 145.288Z" fill="white"/>
</g>
</g>
<g id="Group 414">
<mask id="mask18_4652_16135" style="mask-type:luminance" maskUnits="userSpaceOnUse" x="25" y="4" width="166" height="166">
<path id="Clip 413" fill-rule="evenodd" clip-rule="evenodd" d="M25.5847 87.3714C25.5847 132.899 62.5003 169.806 108.038 169.806C153.576 169.806 190.491 132.899 190.491 87.3714C190.491 41.8443 153.576 4.93714 108.038 4.93714C62.5003 4.93714 25.5847 41.8443 25.5847 87.3714Z" fill="white"/>
</mask>
<g mask="url(#mask18_4652_16135)">
<path id="Stroke 412 (Stroke)" fill-rule="evenodd" clip-rule="evenodd" d="M86.4824 120.266C89.2712 117.477 93.8202 117.477 96.609 120.266L111.171 134.824C113.96 137.612 113.96 142.161 111.171 144.95L109.111 147.009C106.322 149.797 101.773 149.797 98.9839 147.009L84.4224 132.451C81.6333 129.663 81.6333 125.114 84.4224 122.325L86.4824 120.266ZM93.1671 123.708C92.2793 122.821 90.812 122.821 89.9243 123.708L87.8643 125.768C86.9769 126.655 86.9769 128.121 87.8643 129.008L102.426 143.567C103.314 144.454 104.781 144.454 105.669 143.567L107.729 141.507C108.616 140.62 108.616 139.154 107.729 138.267L93.1671 123.708Z" fill="#545454"/>
</g>
</g>
<g id="Group 417">
<mask id="mask19_4652_16135" style="mask-type:luminance" maskUnits="userSpaceOnUse" x="25" y="4" width="166" height="166">
<path id="Clip 416" fill-rule="evenodd" clip-rule="evenodd" d="M25.5847 87.3714C25.5847 132.899 62.5003 169.806 108.038 169.806C153.576 169.806 190.491 132.899 190.491 87.3714C190.491 41.8443 153.576 4.93714 108.038 4.93714C62.5003 4.93714 25.5847 41.8443 25.5847 87.3714Z" fill="white"/>
</mask>
<g mask="url(#mask19_4652_16135)">
<path id="Fill 415" fill-rule="evenodd" clip-rule="evenodd" d="M109.378 139.696L111.438 141.755C113.277 143.593 116.285 143.593 118.123 141.755L139.816 120.068C141.654 118.23 141.654 115.222 139.816 113.385L137.756 111.325C135.917 109.487 132.909 109.487 131.071 111.325L109.378 133.013C107.54 134.851 107.54 137.858 109.378 139.696Z" fill="white"/>
</g>
</g>
<g id="Group 420">
<mask id="mask20_4652_16135" style="mask-type:luminance" maskUnits="userSpaceOnUse" x="25" y="4" width="166" height="166">
<path id="Clip 419" fill-rule="evenodd" clip-rule="evenodd" d="M25.5847 87.3714C25.5847 132.899 62.5003 169.806 108.038 169.806C153.576 169.806 190.491 132.899 190.491 87.3714C190.491 41.8443 153.576 4.93714 108.038 4.93714C62.5003 4.93714 25.5847 41.8443 25.5847 87.3714Z" fill="white"/>
</mask>
<g mask="url(#mask20_4652_16135)">
<path id="Stroke 418 (Stroke)" fill-rule="evenodd" clip-rule="evenodd" d="M129.325 109.579C132.128 106.777 136.699 106.777 139.501 109.579L139.501 109.579L141.561 111.638L139.816 113.385L141.561 111.638C144.364 114.441 144.364 119.012 141.561 121.814L119.869 143.501C119.869 143.501 119.869 143.501 119.869 143.502C117.066 146.303 112.495 146.303 109.693 143.502L107.633 141.442C104.83 138.64 104.83 134.069 107.633 131.267C107.633 131.267 107.633 131.267 107.633 131.267L129.325 109.579L129.325 109.579ZM132.816 113.071L111.124 134.759L109.388 133.022L111.124 134.759C110.25 135.632 110.25 137.076 111.124 137.95L113.184 140.009C114.058 140.883 115.503 140.883 116.377 140.009L116.377 140.009L138.07 118.322C138.944 117.448 138.944 116.004 138.07 115.131L136.01 113.071C136.01 113.071 136.01 113.071 136.01 113.071C135.136 112.197 133.691 112.197 132.816 113.071Z" fill="#545454"/>
</g>
</g>
<g id="Group 423">
<mask id="mask21_4652_16135" style="mask-type:luminance" maskUnits="userSpaceOnUse" x="25" y="4" width="166" height="166">
<path id="Clip 422" fill-rule="evenodd" clip-rule="evenodd" d="M25.5847 87.3714C25.5847 132.899 62.5003 169.806 108.038 169.806C153.576 169.806 190.491 132.899 190.491 87.3714C190.491 41.8443 153.576 4.93714 108.038 4.93714C62.5003 4.93714 25.5847 41.8443 25.5847 87.3714Z" fill="white"/>
</mask>
<g mask="url(#mask21_4652_16135)">
<path id="Fill 421" fill-rule="evenodd" clip-rule="evenodd" d="M118.976 147.469L121.036 149.528C122.875 151.366 125.883 151.366 127.721 149.528L132.455 144.796C134.293 142.958 134.293 139.951 132.455 138.113L130.395 136.054C128.556 134.216 125.548 134.216 123.71 136.054L118.976 140.786C117.138 142.624 117.138 145.631 118.976 147.469Z" fill="white"/>
</g>
</g>
<g id="Group 426">
<mask id="mask22_4652_16135" style="mask-type:luminance" maskUnits="userSpaceOnUse" x="25" y="4" width="166" height="166">
<path id="Clip 425" fill-rule="evenodd" clip-rule="evenodd" d="M25.5847 87.3714C25.5847 132.899 62.5003 169.806 108.038 169.806C153.576 169.806 190.491 132.899 190.491 87.3714C190.491 41.8443 153.576 4.93714 108.038 4.93714C62.5003 4.93714 25.5847 41.8443 25.5847 87.3714Z" fill="white"/>
</mask>
<g mask="url(#mask22_4652_16135)">
<path id="Stroke 424 (Stroke)" fill-rule="evenodd" clip-rule="evenodd" d="M121.964 134.307C124.766 131.506 129.338 131.506 132.14 134.307L134.2 136.367L134.2 136.367C137.003 139.169 137.003 143.74 134.2 146.542L134.2 146.542L129.467 151.275C126.664 154.076 122.093 154.076 119.291 151.275L117.231 149.215C114.428 146.413 114.428 141.842 117.231 139.04L121.964 134.307ZM128.649 137.8C127.775 136.926 126.329 136.926 125.455 137.8L120.722 142.532C119.848 143.405 119.848 144.849 120.722 145.723L122.782 147.782C123.656 148.656 125.101 148.656 125.975 147.782L130.709 143.05C130.709 143.05 130.709 143.05 130.709 143.05C131.582 142.177 131.582 140.733 130.709 139.859C130.709 139.859 130.709 139.859 130.709 139.859L128.649 137.8Z" fill="#545454"/>
</g>
</g>
<g id="Group 429">
<mask id="mask23_4652_16135" style="mask-type:luminance" maskUnits="userSpaceOnUse" x="25" y="4" width="166" height="166">
<path id="Clip 428" fill-rule="evenodd" clip-rule="evenodd" d="M25.5847 87.3714C25.5847 132.899 62.5003 169.806 108.038 169.806C153.576 169.806 190.491 132.899 190.491 87.3714C190.491 41.8443 153.576 4.93714 108.038 4.93714C62.5003 4.93714 25.5847 41.8443 25.5847 87.3714Z" fill="white"/>
</mask>
<g mask="url(#mask23_4652_16135)">
<path id="Fill 427" fill-rule="evenodd" clip-rule="evenodd" d="M127.045 157.359L129.105 159.418C130.944 161.256 133.952 161.256 135.79 159.418L140.524 154.686C142.362 152.848 142.362 149.841 140.524 148.003L138.464 145.943C136.625 144.106 133.617 144.106 131.779 145.943L127.045 150.676C125.207 152.514 125.207 155.521 127.045 157.359Z" fill="white"/>
</g>
</g>
<g id="Group 432">
<mask id="mask24_4652_16135" style="mask-type:luminance" maskUnits="userSpaceOnUse" x="25" y="4" width="166" height="166">
<path id="Clip 431" fill-rule="evenodd" clip-rule="evenodd" d="M25.5847 87.3714C25.5847 132.899 62.5003 169.806 108.038 169.806C153.576 169.806 190.491 132.899 190.491 87.3714C190.491 41.8443 153.576 4.93714 108.038 4.93714C62.5003 4.93714 25.5847 41.8443 25.5847 87.3714Z" fill="white"/>
</mask>
<g mask="url(#mask24_4652_16135)">
<path id="Stroke 430 (Stroke)" fill-rule="evenodd" clip-rule="evenodd" d="M130.033 144.197C132.836 141.396 137.407 141.396 140.21 144.197L142.27 146.257C145.072 149.059 145.072 153.63 142.27 156.432L137.536 161.165C134.734 163.966 130.162 163.966 127.36 161.165L125.3 159.105C122.497 156.303 122.497 151.732 125.3 148.93L130.033 144.197ZM136.718 147.69C135.844 146.816 134.399 146.816 133.525 147.69L128.791 152.422C127.918 153.295 127.918 154.739 128.791 155.613L130.851 157.672C131.725 158.546 133.171 158.546 134.045 157.672L138.778 152.94C139.652 152.066 139.652 150.623 138.778 149.749L136.718 147.69Z" fill="#545454"/>
</g>
</g>
<g id="Group 435">
<mask id="mask25_4652_16135" style="mask-type:luminance" maskUnits="userSpaceOnUse" x="25" y="4" width="166" height="166">
<path id="Clip 434" fill-rule="evenodd" clip-rule="evenodd" d="M25.5847 87.3714C25.5847 132.899 62.5003 169.806 108.038 169.806C153.576 169.806 190.491 132.899 190.491 87.3714C190.491 41.8443 153.576 4.93714 108.038 4.93714C62.5003 4.93714 25.5847 41.8443 25.5847 87.3714Z" fill="white"/>
</mask>
<g mask="url(#mask25_4652_16135)">
<path id="Fill 433" fill-rule="evenodd" clip-rule="evenodd" d="M76.4947 175.588L92.146 191.235C95.5426 194.631 101.1 194.631 104.497 191.235L128.267 167.47C131.664 164.075 131.664 158.518 128.267 155.122L112.616 139.475C109.219 136.079 103.661 136.079 100.265 139.475L76.4947 163.239C73.0981 166.635 73.0981 172.192 76.4947 175.588Z" fill="white"/>
</g>
</g>
<g id="Group 438">
<mask id="mask26_4652_16135" style="mask-type:luminance" maskUnits="userSpaceOnUse" x="25" y="4" width="166" height="166">
<path id="Clip 437" fill-rule="evenodd" clip-rule="evenodd" d="M25.5847 87.3714C25.5847 132.899 62.5003 169.806 108.038 169.806C153.576 169.806 190.491 132.899 190.491 87.3714C190.491 41.8443 153.576 4.93714 108.038 4.93714C62.5003 4.93714 25.5847 41.8443 25.5847 87.3714Z" fill="white"/>
</mask>
<g mask="url(#mask26_4652_16135)">
<path id="Stroke 436 (Stroke)" fill-rule="evenodd" clip-rule="evenodd" d="M98.5192 137.728C102.88 133.369 110.001 133.369 114.362 137.728L130.013 153.376C134.374 157.736 134.374 164.856 130.013 169.216L106.243 192.981C101.882 197.341 94.7609 197.341 90.4002 192.981L74.7488 177.334C70.3878 172.974 70.3877 165.853 74.7489 161.493L98.5191 137.728C98.5192 137.728 98.5192 137.728 98.5192 137.728ZM110.87 141.221C108.438 138.789 104.443 138.789 102.011 141.221L102.011 141.221L78.2403 164.986L78.2403 164.986C75.8084 167.417 75.8083 171.41 78.2403 173.841L93.8917 189.489C96.324 191.921 100.319 191.921 102.751 189.489L126.521 165.724C128.953 163.293 128.953 159.3 126.521 156.868L110.87 141.221Z" fill="#545454"/>
</g>
</g>
<g id="Group 441">
<mask id="mask27_4652_16135" style="mask-type:luminance" maskUnits="userSpaceOnUse" x="25" y="4" width="166" height="166">
<path id="Clip 440" fill-rule="evenodd" clip-rule="evenodd" d="M25.5847 87.3714C25.5847 132.899 62.5003 169.806 108.038 169.806C153.576 169.806 190.491 132.899 190.491 87.3714C190.491 41.8443 153.576 4.93714 108.038 4.93714C62.5003 4.93714 25.5847 41.8443 25.5847 87.3714Z" fill="white"/>
</mask>
<g mask="url(#mask27_4652_16135)">
<path id="Fill 439" fill-rule="evenodd" clip-rule="evenodd" d="M76.4947 175.588L92.146 191.235C95.5426 194.631 101.1 194.631 104.497 191.235L128.267 167.47C131.664 164.075 131.664 158.518 128.267 155.122L112.616 139.475C109.219 136.079 103.661 136.079 100.265 139.475L76.4947 163.239C73.0981 166.635 73.0981 172.192 76.4947 175.588Z" fill="white"/>
</g>
</g>
<g id="Group 444">
<mask id="mask28_4652_16135" style="mask-type:luminance" maskUnits="userSpaceOnUse" x="25" y="4" width="166" height="166">
<path id="Clip 443" fill-rule="evenodd" clip-rule="evenodd" d="M25.5847 87.3714C25.5847 132.899 62.5003 169.806 108.038 169.806C153.576 169.806 190.491 132.899 190.491 87.3714C190.491 41.8443 153.576 4.93714 108.038 4.93714C62.5003 4.93714 25.5847 41.8443 25.5847 87.3714Z" fill="white"/>
</mask>
<g mask="url(#mask28_4652_16135)">
<path id="Stroke 442 (Stroke)" fill-rule="evenodd" clip-rule="evenodd" d="M98.5192 137.728C102.88 133.369 110.001 133.369 114.362 137.728L130.013 153.376C134.374 157.736 134.374 164.856 130.013 169.216L106.243 192.981C101.882 197.341 94.7609 197.341 90.4002 192.981L74.7488 177.334C70.3878 172.974 70.3877 165.853 74.7489 161.493L98.5191 137.728C98.5192 137.728 98.5192 137.728 98.5192 137.728ZM110.87 141.221C108.438 138.789 104.443 138.789 102.011 141.221L102.011 141.221L78.2403 164.986L78.2403 164.986C75.8084 167.417 75.8083 171.41 78.2403 173.841L93.8917 189.489C96.324 191.921 100.319 191.921 102.751 189.489L126.521 165.724C128.953 163.293 128.953 159.3 126.521 156.868L110.87 141.221Z" fill="#545454"/>
</g>
</g>
<g id="Group 447">
<mask id="mask29_4652_16135" style="mask-type:luminance" maskUnits="userSpaceOnUse" x="25" y="4" width="166" height="166">
<path id="Clip 446" fill-rule="evenodd" clip-rule="evenodd" d="M25.5847 87.3714C25.5847 132.899 62.5003 169.806 108.038 169.806C153.576 169.806 190.491 132.899 190.491 87.3714C190.491 41.8443 153.576 4.93714 108.038 4.93714C62.5003 4.93714 25.5847 41.8443 25.5847 87.3714Z" fill="white"/>
</mask>
<g mask="url(#mask29_4652_16135)">
<path id="Stroke 445 (Stroke)" fill-rule="evenodd" clip-rule="evenodd" d="M102.598 104.308C102.598 102.058 104.423 100.234 106.673 100.234H121.513C123.763 100.234 125.588 102.058 125.588 104.308C125.588 106.559 123.763 108.383 121.513 108.383H106.673C104.423 108.383 102.598 106.559 102.598 104.308Z" fill="#545454"/>
</g>
</g>
<g id="Group 450">
<mask id="mask30_4652_16135" style="mask-type:luminance" maskUnits="userSpaceOnUse" x="25" y="4" width="166" height="166">
<path id="Clip 449" fill-rule="evenodd" clip-rule="evenodd" d="M25.5847 87.3714C25.5847 132.899 62.5003 169.806 108.038 169.806C153.576 169.806 190.491 132.899 190.491 87.3714C190.491 41.8443 153.576 4.93714 108.038 4.93714C62.5003 4.93714 25.5847 41.8443 25.5847 87.3714Z" fill="white"/>
</mask>
<g mask="url(#mask30_4652_16135)">
<path id="Stroke 448 (Stroke)" fill-rule="evenodd" clip-rule="evenodd" d="M154.89 93.8047C156.254 93.8047 157.359 94.9101 157.359 96.2738C157.359 97.864 156.29 98.9477 155.605 99.5116C154.817 100.161 153.799 100.727 152.721 101.223C150.54 102.226 147.617 103.166 144.455 103.973C138.134 105.585 130.394 106.777 124.783 106.777C123.419 106.777 122.313 105.672 122.313 104.308C122.313 102.945 123.419 101.839 124.783 101.839C129.861 101.839 137.174 100.733 143.235 99.1876C146.264 98.415 148.863 97.5615 150.657 96.7363C151.567 96.3178 152.149 95.9603 152.465 95.7003C152.475 95.6919 152.485 95.6839 152.494 95.6761C152.761 94.6012 153.733 93.8047 154.89 93.8047ZM152.64 95.5329C152.642 95.5329 152.633 95.5451 152.61 95.5693C152.627 95.545 152.639 95.5329 152.64 95.5329Z" fill="#545454"/>
</g>
</g>
</g>
<g id="Group 490">
<path id="Stroke 452 (Stroke)" fill-rule="evenodd" clip-rule="evenodd" d="M23.1157 87.3713C23.1157 40.48 61.1373 2.46791 108.038 2.46791C154.939 2.46791 192.96 40.48 192.96 87.3713C192.96 134.263 154.939 172.275 108.038 172.275C61.1373 172.275 23.1157 134.263 23.1157 87.3713ZM108.038 7.40618C63.8636 7.40618 28.054 43.2084 28.054 87.3713C28.054 131.534 63.8636 167.337 108.038 167.337C152.212 167.337 188.022 131.534 188.022 87.3713C188.022 43.2084 152.212 7.40618 108.038 7.40618Z" fill="#545454"/>
<path id="Stroke 454 (Stroke)" fill-rule="evenodd" clip-rule="evenodd" d="M170.302 137.628C171.266 136.663 172.829 136.663 173.793 137.627L203.626 167.453C207.27 171.096 205.332 177.33 200.267 178.267L200.267 178.267L175.945 182.77C175.35 182.88 174.885 183.345 174.775 183.938L174.775 183.939L170.272 208.256L170.272 208.256C169.334 213.321 163.099 215.256 159.457 211.614L132.591 184.755C131.627 183.791 131.627 182.228 132.591 181.263C133.555 180.299 135.118 180.299 136.083 181.263L162.948 208.122C163.78 208.954 165.202 208.511 165.416 207.356L169.92 183.04C169.92 183.04 169.92 183.04 169.92 183.039C170.402 180.434 172.441 178.396 175.046 177.914L175.046 177.914L199.368 173.412C200.525 173.198 200.965 171.776 200.135 170.946L170.302 141.12C169.338 140.156 169.337 138.592 170.302 137.628Z" fill="#545454"/>
<path id="Stroke 456 (Stroke)" fill-rule="evenodd" clip-rule="evenodd" d="M45.6736 137.53C46.6377 138.494 46.6376 140.057 45.6732 141.022L15.8374 170.851L15.8373 170.851C15.0076 171.68 15.4471 173.101 16.6027 173.316L16.6028 173.316L40.9143 177.837C40.9144 177.837 40.9144 177.837 40.9144 177.837C43.5153 178.32 45.5508 180.355 46.0347 182.956C46.0347 182.956 46.0347 182.956 46.0347 182.956L50.5567 207.262L50.5567 207.262C50.7712 208.416 52.1929 208.858 53.0242 208.027L80.8165 180.241C81.7809 179.277 83.3442 179.277 84.3084 180.241C85.2725 181.206 85.2724 182.769 84.308 183.733L56.5157 211.519L54.7699 209.773L56.5157 211.519C52.8748 215.159 46.6432 213.228 45.7017 208.165L41.1797 183.859L41.1797 183.859C41.0695 183.267 40.6053 182.802 40.0117 182.692L40.0116 182.692L15.7001 178.171C10.6384 177.23 8.70363 170.999 12.346 167.358L42.1817 137.529C43.1461 136.565 44.7094 136.565 45.6736 137.53Z" fill="#545454"/>
<path id="Stroke 458 (Stroke)" fill-rule="evenodd" clip-rule="evenodd" d="M87.5403 61.7268C88.3277 62.8402 88.0634 64.3811 86.95 65.1685C83.2345 67.7962 80.2078 70.9683 78.0544 74.501C77.3446 75.6654 75.8253 76.034 74.6609 75.3242C73.4965 74.6145 73.128 73.0952 73.8377 71.9308C76.3767 67.7655 79.8907 64.1125 84.0986 61.1366C85.212 60.3492 86.7529 60.6134 87.5403 61.7268Z" fill="white"/>
<path id="Stroke 460 (Stroke)" fill-rule="evenodd" clip-rule="evenodd" d="M97.506 57.2014C97.9852 58.4781 97.3387 59.9016 96.062 60.3807C94.7497 60.8732 93.4794 61.4228 92.2564 62.0243C91.0327 62.6261 89.5528 62.122 88.951 60.8983C88.3492 59.6746 88.8534 58.1948 90.0771 57.593C91.4461 56.9197 92.8647 56.3061 94.3268 55.7574C95.6035 55.2782 97.0269 55.9247 97.506 57.2014Z" fill="white"/>
<path id="Fill 462" fill-rule="evenodd" clip-rule="evenodd" d="M127.79 169.797C127.79 159.436 119.388 151.036 109.024 151.036C98.6605 151.036 90.259 159.436 90.259 169.797C90.259 180.159 98.6605 188.558 109.024 188.558C119.388 188.558 127.79 180.159 127.79 169.797Z" fill="#7A11F2"/>
<path id="Stroke 464 (Stroke)" fill-rule="evenodd" clip-rule="evenodd" d="M88.2837 169.797C88.2837 158.344 97.57 149.061 109.024 149.061C120.479 149.061 129.765 158.344 129.765 169.797C129.765 181.25 120.479 190.534 109.024 190.534C97.57 190.534 88.2837 181.25 88.2837 169.797ZM109.024 153.011C99.751 153.011 92.2343 160.527 92.2343 169.797C92.2343 179.067 99.751 186.583 109.024 186.583C118.298 186.583 125.815 179.067 125.815 169.797C125.815 160.527 118.298 153.011 109.024 153.011Z" fill="#545454"/>
<g id="Group 469">
<path id="Fill 466" fill-rule="evenodd" clip-rule="evenodd" d="M105.579 164.283V178.75H112.469V173.205V164.283" fill="#F1E6FD"/>
<path id="Stroke 468 (Stroke)" fill-rule="evenodd" clip-rule="evenodd" d="M104.591 164.283H106.567V177.762H111.482V164.283H113.457V179.738H104.591V164.283Z" fill="#545454"/>
</g>
<path id="Fill 470" fill-rule="evenodd" clip-rule="evenodd" d="M109.024 159.117L105.579 164.283H112.469L109.024 159.117Z" fill="#F1E6FD"/>
<path id="Stroke 472 (Stroke)" fill-rule="evenodd" clip-rule="evenodd" d="M109.024 158.129C109.355 158.129 109.663 158.294 109.846 158.569L113.291 163.735C113.493 164.038 113.512 164.428 113.34 164.749C113.169 165.07 112.834 165.271 112.47 165.271H105.579C105.215 165.271 104.88 165.07 104.708 164.749C104.536 164.428 104.555 164.038 104.757 163.735L108.203 158.569C108.386 158.294 108.694 158.129 109.024 158.129ZM107.425 163.296H110.624L109.024 160.897L107.425 163.296Z" fill="#545454"/>
<path id="Fill 474" fill-rule="evenodd" clip-rule="evenodd" d="M116.432 178.647H112.504V171.482L116.432 178.647Z" fill="#F1E6FD"/>
<path id="Stroke 476 (Stroke)" fill-rule="evenodd" clip-rule="evenodd" d="M112.259 170.526C112.696 170.414 113.153 170.612 113.37 171.008L117.298 178.172C117.466 178.478 117.46 178.85 117.282 179.15C117.104 179.45 116.781 179.635 116.432 179.635H112.504C111.959 179.635 111.517 179.192 111.517 178.647V171.482C111.517 171.031 111.822 170.638 112.259 170.526ZM113.492 175.339V177.659H114.764L113.492 175.339Z" fill="#545454"/>
<path id="Fill 478" fill-rule="evenodd" clip-rule="evenodd" d="M116.432 178.716H112.504V171.551L116.432 178.716Z" fill="#F1E6FD"/>
<path id="Stroke 480 (Stroke)" fill-rule="evenodd" clip-rule="evenodd" d="M112.259 170.595C112.696 170.483 113.153 170.681 113.37 171.077L117.298 178.241C117.466 178.547 117.46 178.919 117.282 179.219C117.104 179.519 116.781 179.703 116.432 179.703H112.504C111.959 179.703 111.517 179.261 111.517 178.716V171.551C111.517 171.1 111.822 170.707 112.259 170.595ZM113.492 175.407V177.728H114.764L113.492 175.407Z" fill="#545454"/>
<path id="Fill 482" fill-rule="evenodd" clip-rule="evenodd" d="M116.432 178.716H112.504V171.551L116.432 178.716Z" fill="#F1E6FD"/>
<path id="Stroke 484 (Stroke)" fill-rule="evenodd" clip-rule="evenodd" d="M112.259 170.595C112.696 170.483 113.153 170.681 113.37 171.077L117.298 178.241C117.466 178.547 117.46 178.919 117.282 179.219C117.104 179.519 116.781 179.703 116.432 179.703H112.504C111.959 179.703 111.517 179.261 111.517 178.716V171.551C111.517 171.1 111.822 170.707 112.259 170.595ZM113.492 175.407V177.728H114.764L113.492 175.407Z" fill="#545454"/>
<path id="Fill 486" fill-rule="evenodd" clip-rule="evenodd" d="M101.617 178.716H105.544V171.551L101.617 178.716Z" fill="#F1E6FD"/>
<path id="Stroke 488 (Stroke)" fill-rule="evenodd" clip-rule="evenodd" d="M105.79 170.595C106.226 170.707 106.532 171.1 106.532 171.551V178.716C106.532 179.261 106.09 179.703 105.544 179.703H101.617C101.268 179.703 100.945 179.519 100.767 179.219C100.589 178.919 100.583 178.547 100.751 178.241L104.678 171.077C104.895 170.681 105.353 170.483 105.79 170.595ZM103.285 177.728H104.557V175.408L103.285 177.728Z" fill="#545454"/>
</g>
</g>
</g>
</svg>
