<svg width="216" height="216" viewBox="0 0 216 216" fill="none" xmlns="http://www.w3.org/2000/svg">
<rect width="216" height="216" fill="#F5F5F5"/>
<g id="Loading">
<g id="Group">
<path id="Fill 581" fill-rule="evenodd" clip-rule="evenodd" d="M14.0914 169.104C11.8553 171.34 13.0425 175.165 16.1511 175.744L40.4627 180.264C42.06 180.561 43.3099 181.811 43.6069 183.408L48.1289 207.714C48.7069 210.822 52.5336 212.009 54.7696 209.773L105.16 159.394C106.694 157.86 106.694 155.373 105.16 153.839L70.0383 118.725C68.5037 117.191 66.0163 117.191 64.4817 118.725L14.0914 169.104Z" fill="#979797"/>
<g id="Group 585">
<mask id="mask0_4652_16135" style="mask-type:luminance" maskUnits="userSpaceOnUse" x="12" y="117" width="95" height="94">
<path id="Clip 584" fill-rule="evenodd" clip-rule="evenodd" d="M64.4815 118.725L14.0914 169.104C11.8553 171.34 13.0425 175.165 16.1509 175.744L40.4625 180.264C42.06 180.561 43.3099 181.811 43.6069 183.408L48.1287 207.714C48.7069 210.822 52.5336 212.009 54.7696 209.773L105.16 159.394C106.694 157.86 106.694 155.373 105.16 153.839L70.0383 118.725C69.2709 117.958 68.2655 117.575 67.26 117.575C66.2543 117.575 65.2489 117.958 64.4815 118.725Z" fill="white"/>
</mask>
<g mask="url(#mask0_4652_16135)">
<path id="Fill 583" fill-rule="evenodd" clip-rule="evenodd" d="M36.2688 199.014L25.5757 188.323L94.2636 119.651L104.957 130.342L36.2688 199.014Z" fill="#979797"/>
</g>
</g>
<path id="Fill 586" fill-rule="evenodd" clip-rule="evenodd" d="M201.88 169.2C204.117 171.436 202.928 175.263 199.817 175.839L175.495 180.342C173.895 180.638 172.643 181.89 172.347 183.489L167.843 207.806C167.267 210.916 163.439 212.105 161.202 209.868L110.716 159.394C109.182 157.86 109.182 155.373 110.716 153.839L145.838 118.725C147.372 117.191 149.86 117.191 151.394 118.725L201.88 169.2Z" fill="#979797"/>
<g id="Group 590">
<mask id="mask1_4652_16135" style="mask-type:luminance" maskUnits="userSpaceOnUse" x="109" y="117" width="95" height="95">
<path id="Clip 589" fill-rule="evenodd" clip-rule="evenodd" d="M110.716 153.839C109.182 155.373 109.182 157.86 110.716 159.394L161.202 209.868C163.439 212.105 167.267 210.916 167.843 207.806L172.347 183.489C172.643 181.89 173.895 180.638 175.495 180.342L199.817 175.84C202.928 175.264 204.117 171.436 201.88 169.2L151.394 118.725C150.627 117.958 149.621 117.575 148.616 117.575C147.61 117.575 146.605 117.958 145.838 118.725L110.716 153.839Z" fill="white"/>
</mask>
<g mask="url(#mask1_4652_16135)">
<path id="Fill 588" fill-rule="evenodd" clip-rule="evenodd" d="M190.501 188.581L179.808 199.272L111.12 130.599L121.813 119.909L190.501 188.581Z" fill="#979797"/>
</g>
</g>
<path id="Fill 591" fill-rule="evenodd" clip-rule="evenodd" d="M190.491 87.3713C190.491 41.8442 153.575 4.93704 108.038 4.93704C62.5 4.93704 25.5845 41.8442 25.5845 87.3713C25.5845 132.899 62.5 169.806 108.038 169.806C153.575 169.806 190.491 132.899 190.491 87.3713Z" fill="#979797"/>
</g>
</g>
</svg>
