<svg width="128" height="128" viewBox="0 0 128 128" fill="none" xmlns="http://www.w3.org/2000/svg">
<rect width="128" height="128" fill="#F5F5F5"/>
<g id="Placeholder / Observations">
<g id="Group 2">
<g id="Group 7 Copy">
<path id="Combined Shape" fill-rule="evenodd" clip-rule="evenodd" d="M8 102C8 103.105 8.89543 104 10 104H16H102H112V96H104V20C104 18.8954 103.105 18 102 18H10C8.89543 18 8 18.8954 8 20V101.313V102Z" fill="#F498B0"/>
<path id="Combined Shape_2" fill-rule="evenodd" clip-rule="evenodd" d="M104.045 96C104.015 96.071 104 96.1449 104 96.2218C104 100.518 107.582 104 112 104C116.418 104 120 100.518 120 96.2218C120 96.1458 119.972 96.0719 119.917 96H104.045Z" fill="#AA3859"/>
</g>
<path id="Oval" d="M30 60C37.732 60 44 53.732 44 46C44 38.268 37.732 32 30 32C22.268 32 16 38.268 16 46C16 53.732 22.268 60 30 60Z" fill="#AA3859"/>
<path id="Rectangle Copy 11" d="M48 36C48 33.7909 49.7909 32 52 32H92C94.2091 32 96 33.7909 96 36C96 38.2091 94.2091 40 92 40H52C49.7909 40 48 38.2091 48 36Z" fill="#AA3859"/>
<path id="Rectangle Copy 15" d="M48 58C48 56.8954 48.8954 56 50 56H82C83.1046 56 84 56.8954 84 58C84 59.1046 83.1046 60 82 60H50C48.8954 60 48 59.1046 48 58Z" fill="#AA3859"/>
<path id="Rectangle Copy 16" d="M48 50C48 48.8954 48.8954 48 50 48H94C95.1046 48 96 48.8954 96 50C96 51.1046 95.1046 52 94 52H50C48.8954 52 48 51.1046 48 50Z" fill="#AA3859"/>
<g id="Group">
<path id="Rectangle Copy 12" d="M16 70C16 68.8954 16.8954 68 18 68H94C95.1046 68 96 68.8954 96 70C96 71.1046 95.1046 72 94 72H18C16.8954 72 16 71.1046 16 70Z" fill="#AA3859"/>
<path id="Rectangle Copy 13" d="M16 78C16 76.8954 16.8954 76 18 76H82C83.1046 76 84 76.8954 84 78C84 79.1046 83.1046 80 82 80H18C16.8954 80 16 79.1046 16 78Z" fill="#AA3859"/>
</g>
<path id="Rectangle Copy 14" d="M16 90C16 88.8954 16.8954 88 18 88H94C95.1046 88 96 88.8954 96 90C96 91.1046 95.1046 92 94 92H18C16.8954 92 16 91.1046 16 90Z" fill="#AA3859"/>
</g>
</g>
</svg>
