<svg width="128" height="128" viewBox="0 0 128 128" fill="none" xmlns="http://www.w3.org/2000/svg">
<rect width="128" height="128" fill="#F5F5F5"/>
<g id="Placeholder / Documents">
<g id="Group 7">
<path id="Combined Shape" fill-rule="evenodd" clip-rule="evenodd" d="M8 120C8 120.039 8.00111 120.077 8.00329 120.116C8.0011 120.151 8 120.186 8 120.222C8 124.518 11.5817 128 16 128H112V120H104V2C104 0.895428 103.105 0 102 0H10C8.89543 0 8 0.89543 8 2V120Z" fill="#AFDEDC"/>
<g id="Group 6">
<path id="Rectangle" d="M19 10H77V38H19V10Z" fill="#00877C"/>
<path id="Rectangle Copy 7" d="M79 10H95V18H79V10Z" fill="#00877C"/>
<path id="Rectangle Copy 8" d="M79 20H95V28H79V20Z" fill="#00877C"/>
<path id="Rectangle Copy 10" d="M79 30H95V38H79V30Z" fill="#00877C"/>
</g>
<path id="Rectangle Copy 11" d="M18 53C18 51.8954 18.8954 51 20 51H92C93.1046 51 94 51.8954 94 53C94 54.1046 93.1046 55 92 55H20C18.8954 55 18 54.1046 18 53Z" fill="#00877C"/>
<path id="Rectangle Copy 12" d="M18 67C18 65.8954 18.8954 65 20 65H92C93.1046 65 94 65.8954 94 67C94 68.1046 93.1046 69 92 69H20C18.8954 69 18 68.1046 18 67Z" fill="#00877C"/>
<path id="Rectangle Copy 15" d="M18 95C18 93.8954 18.8954 93 20 93H92C93.1046 93 94 93.8954 94 95C94 96.1046 93.1046 97 92 97H20C18.8954 97 18 96.1046 18 95Z" fill="#00877C"/>
<path id="Rectangle Copy 13" d="M18 73C18 71.8954 18.8954 71 20 71H76C77.1046 71 78 71.8954 78 73C78 74.1046 77.1046 75 76 75H20C18.8954 75 18 74.1046 18 73Z" fill="#00877C"/>
<path id="Rectangle Copy 16" d="M18 101C18 99.8954 18.8954 99 20 99H76C77.1046 99 78 99.8954 78 101C78 102.105 77.1046 103 76 103H20C18.8954 103 18 102.105 18 101Z" fill="#00877C"/>
<path id="Rectangle Copy 14" d="M18 79C18 77.8954 18.8954 77 20 77H88C89.1046 77 90 77.8954 90 79C90 80.1046 89.1046 81 88 81H20C18.8954 81 18 80.1046 18 79Z" fill="#00877C"/>
<path id="Rectangle Copy 17" d="M18 107C18 105.895 18.8954 105 20 105H88C89.1046 105 90 105.895 90 107C90 108.105 89.1046 109 88 109H20C18.8954 109 18 108.105 18 107Z" fill="#00877C"/>
<path id="Combined Shape_2" fill-rule="evenodd" clip-rule="evenodd" d="M104.045 120C104.015 120.071 104 120.145 104 120.222C104 124.518 107.582 128 112 128C116.418 128 120 124.518 120 120.222C120 120.146 119.972 120.072 119.917 120H104.045Z" fill="#00776B"/>
</g>
</g>
</svg>
