<svg width="128" height="128" viewBox="0 0 128 128" fill="none" xmlns="http://www.w3.org/2000/svg">
<rect width="128" height="128" fill="#F5F5F5"/>
<g id="Placeholder / Table">
<g id="Group 7 Copy">
<path id="Combined Shape" fill-rule="evenodd" clip-rule="evenodd" d="M8 102C8 103.105 8.89543 104 10 104H16H102H112V96H104V20C104 18.8954 103.105 18 102 18H10C8.89543 18 8 18.8954 8 20V101.313V102Z" fill="#FCDEB1"/>
<path id="Combined Shape_2" fill-rule="evenodd" clip-rule="evenodd" d="M104.045 96C104.015 96.071 104 96.1449 104 96.2218C104 100.518 107.582 104 112 104C116.418 104 120 100.518 120 96.2218C120 96.1458 119.972 96.0719 119.917 96H104.045Z" fill="#E56701"/>
</g>
<g id="Group 729">
<path id="Rectangle 7" d="M26 41H86V31H26V41Z" fill="#FAC87F"/>
<path id="Rectangle 8" d="M24 89C24 91.2091 25.7909 93 28 93H84C86.2091 93 88 91.2091 88 89V68C88 65.7909 86.2091 64 84 64H28C25.7909 64 24 65.7909 24 68V89Z" fill="#FAC87F"/>
<g id="Group 33">
<path id="Rectangle Copy 15" d="M32 56C32 55.4477 32.4477 55 33 55H45C45.5523 55 46 55.4477 46 56C46 56.5523 45.5523 57 45 57H33C32.4477 57 32 56.5523 32 56Z" fill="#E56701"/>
<path id="Rectangle Copy 16" d="M32 51C32 50.4477 32.4477 50 33 50H49C49.5523 50 50 50.4477 50 51C50 51.5523 49.5523 52 49 52H33C32.4477 52 32 51.5523 32 51Z" fill="#E56701"/>
</g>
<path id="Rectangle Copy 21" d="M32 36C32 35.4477 32.4477 35 33 35H49C49.5523 35 50 35.4477 50 36C50 36.5523 49.5523 37 49 37H33C32.4477 37 32 36.5523 32 36Z" fill="#E56701"/>
<path id="Rectangle Copy 22" d="M62 36C62 35.4477 62.4477 35 63 35H79C79.5523 35 80 35.4477 80 36C80 36.5523 79.5523 37 79 37H63C62.4477 37 62 36.5523 62 36Z" fill="#E56701"/>
<path id="Rectangle 3 (Stroke)" fill-rule="evenodd" clip-rule="evenodd" d="M84 31H28C26.8954 31 26 31.8954 26 33V89C26 90.1046 26.8954 91 28 91H84C85.1046 91 86 90.1046 86 89V33C86 31.8954 85.1046 31 84 31ZM28 29C25.7909 29 24 30.7909 24 33V89C24 91.2091 25.7909 93 28 93H84C86.2091 93 88 91.2091 88 89V33C88 30.7909 86.2091 29 84 29H28Z" fill="#E56701"/>
<path id="Rectangle 4 (Stroke)" fill-rule="evenodd" clip-rule="evenodd" d="M86 43H26V89C26 90.1046 26.8954 91 28 91H84C85.1046 91 86 90.1046 86 89V43ZM24 41V89C24 91.2091 25.7909 93 28 93H84C86.2091 93 88 91.2091 88 89V41H24Z" fill="#E56701"/>
<path id="Rectangle 6 (Stroke)" fill-rule="evenodd" clip-rule="evenodd" d="M86 66H26V89C26 90.1046 26.8954 91 28 91H84C85.1046 91 86 90.1046 86 89V66ZM24 64V89C24 91.2091 25.7909 93 28 93H84C86.2091 93 88 91.2091 88 89V64H24Z" fill="#E56701"/>
<path id="Rectangle 5 (Stroke)" fill-rule="evenodd" clip-rule="evenodd" d="M84 31H56V91H84C85.1046 91 86 90.1046 86 89V33C86 31.8954 85.1046 31 84 31ZM54 29V93H84C86.2091 93 88 91.2091 88 89V33C88 30.7909 86.2091 29 84 29H54Z" fill="#E56701"/>
<g id="Group 34">
<path id="Ellipse 4 (Stroke)" fill-rule="evenodd" clip-rule="evenodd" d="M71.5 59C74.5376 59 77 56.5376 77 53.5C77 50.4624 74.5376 48 71.5 48C68.4624 48 66 50.4624 66 53.5C66 56.5376 68.4624 59 71.5 59ZM71.5 61C75.6421 61 79 57.6421 79 53.5C79 49.3579 75.6421 46 71.5 46C67.3579 46 64 49.3579 64 53.5C64 57.6421 67.3579 61 71.5 61Z" fill="#E56701"/>
<path id="Ellipse 7 (Stroke)" fill-rule="evenodd" clip-rule="evenodd" d="M70 54.5C70.2761 54.5 70.5 54.7239 70.5 55C70.5 55.057 70.5346 55.1697 70.7167 55.2911C70.8952 55.4101 71.1707 55.5 71.5 55.5C71.8293 55.5 72.1048 55.4101 72.2833 55.2911C72.4654 55.1697 72.5 55.057 72.5 55C72.5 54.7239 72.7239 54.5 73 54.5C73.2761 54.5 73.5 54.7239 73.5 55C73.5 55.4953 73.1988 55.8826 72.838 56.1231C72.4737 56.366 71.9992 56.5 71.5 56.5C71.0008 56.5 70.5263 56.366 70.162 56.1231C69.8012 55.8826 69.5 55.4953 69.5 55C69.5 54.7239 69.7239 54.5 70 54.5Z" fill="#E56701"/>
<path id="Ellipse 5 (Stroke)" fill-rule="evenodd" clip-rule="evenodd" d="M69 53C69.5523 53 70 52.5523 70 52C70 51.4477 69.5523 51 69 51C68.4477 51 68 51.4477 68 52C68 52.5523 68.4477 53 69 53Z" fill="#E56701"/>
<path id="Ellipse 6 (Stroke)" fill-rule="evenodd" clip-rule="evenodd" d="M74 53C74.5523 53 75 52.5523 75 52C75 51.4477 74.5523 51 74 51C73.4477 51 73 51.4477 73 52C73 52.5523 73.4477 53 74 53Z" fill="#E56701"/>
</g>
</g>
</g>
</svg>
