<svg width="128" height="128" viewBox="0 0 128 128" fill="none" xmlns="http://www.w3.org/2000/svg">
<rect width="128" height="128" fill="#F5F5F5"/>
<g id="Placeholder / Plans">
<g id="Group 7 Copy 2">
<g id="Group 7 Copy">
<path id="Combined Shape" d="M120 24V16H128V112C128 115.787 125.441 118.957 122.006 119.786L122 120L1 120L1 24L120 24Z" fill="#FCDEB1"/>
<path id="Combined Shape_2" fill-rule="evenodd" clip-rule="evenodd" d="M120.222 24C117.733 24 118.415 8 120.222 8C124.517 8.00008 128 11.5818 128 16C128 20.4182 124.517 23.9999 120.222 24Z" fill="#E56701"/>
</g>
</g>
<g id="Group">
<g id="Combined Shape_3">
<path fill-rule="evenodd" clip-rule="evenodd" d="M67.9803 82.3546C64.6775 88.0753 65.1018 94.5037 68.9282 96.7128L84.9282 69C84.9282 69 84.9282 69 84.9282 69L84.9282 69C84.9277 69.0005 84.9093 69.011 84.8742 69.0309C83.9405 69.563 71.1614 76.8448 67.9803 82.3546ZM84.9284 69.0622C84.9345 70.1369 85.0178 84.8448 81.8367 90.3546C78.5339 96.0753 72.7545 98.922 68.9282 96.7128L84.9282 69C84.928 69.0007 84.9282 69.0218 84.9284 69.0622ZM84.9282 69L84.9282 69C84.9282 69 84.9282 69 84.9282 69Z" fill="#E56701"/>
<path d="M68.9282 96.7128L68.4282 97.5789C68.6579 97.7115 68.9308 97.7474 69.187 97.6788C69.4432 97.6101 69.6616 97.4425 69.7942 97.2128L68.9282 96.7128ZM84.9282 69L85.4282 68.134C84.9499 67.8578 84.3383 68.0217 84.0622 68.5L84.9282 69ZM84.8742 69.0309L85.3693 69.8998L85.3693 69.8998L84.8742 69.0309ZM84.9284 69.0622L83.9284 69.0679L83.9284 69.0679L84.9284 69.0622ZM68.9282 96.7128L68.0622 96.2128C67.786 96.6911 67.9499 97.3027 68.4282 97.5789L68.9282 96.7128ZM84.9282 69L85.7942 69.5C86.0704 69.0217 85.9065 68.4101 85.4282 68.134L84.9282 69ZM68.9282 96.7128L69.4282 95.8468C67.8933 94.9607 66.936 93.1679 66.7786 90.7847C66.6218 88.4095 67.2802 85.5672 68.8463 82.8546L67.9803 82.3546L67.1143 81.8546C65.3776 84.8626 64.5967 88.0949 64.783 90.9164C64.9687 93.7299 66.1367 96.2559 68.4282 97.5789L68.9282 96.7128ZM84.9282 69L84.0622 68.5L68.0622 96.2128L68.9282 96.7128L69.7942 97.2128L85.7942 69.5L84.9282 69ZM84.9282 69L85.6247 69.7176C85.6357 69.7069 85.721 69.6268 85.7942 69.5C85.8251 69.4464 85.9263 69.2652 85.9282 69.0073C85.9308 68.6532 85.7448 68.3168 85.4282 68.134L84.9282 69L84.4282 69.866C84.2974 69.7905 84.1588 69.6704 84.0585 69.4936C83.9585 69.3174 83.9272 69.139 83.9282 68.9927C83.9301 68.7348 84.0312 68.5536 84.0622 68.5C84.1354 68.3732 84.2207 68.2931 84.2317 68.2825L84.9282 69ZM84.9282 69L84.0622 68.5L84.0622 68.5L84.9282 69L85.7942 69.5L85.7942 69.5L84.9282 69ZM84.8742 69.0309L85.3693 69.8998C85.3864 69.8901 85.4009 69.8818 85.411 69.876C85.4158 69.8733 85.4217 69.8699 85.4272 69.8667C85.4294 69.8654 85.4351 69.8621 85.4417 69.8581C85.4443 69.8565 85.4524 69.8517 85.4624 69.8454C85.467 69.8425 85.478 69.8355 85.4917 69.8261C85.4985 69.8215 85.5109 69.8129 85.5261 69.8016C85.5353 69.7947 85.5725 69.767 85.6155 69.7264L84.9282 69L84.2409 68.2736C84.2654 68.2505 84.2862 68.2332 84.2982 68.2234C84.3113 68.2128 84.3225 68.2043 84.3302 68.1985C84.3454 68.1872 84.3577 68.1786 84.3645 68.1741C84.3781 68.1648 84.389 68.1578 84.3933 68.1551C84.403 68.149 84.4106 68.1444 84.4126 68.1432C84.4158 68.1413 84.4182 68.1399 84.4192 68.1393C84.4205 68.1385 84.4214 68.138 84.4217 68.1378C84.4225 68.1373 84.4216 68.1379 84.4173 68.1403C84.4094 68.1449 84.3971 68.1519 84.3792 68.1621L84.8742 69.0309ZM67.9803 82.3546L68.8463 82.8546C69.5599 81.6188 70.8579 80.2162 72.4926 78.7727C74.1131 77.3418 76.0038 75.9229 77.8404 74.6475C81.5126 72.0975 84.9103 70.1614 85.3693 69.8998L84.8742 69.0309L84.3792 68.1621C83.9045 68.4326 80.4457 70.4034 76.6996 73.0048C74.8271 74.3051 72.8683 75.7729 71.1688 77.2736C69.4835 78.7617 67.9913 80.3355 67.1143 81.8546L67.9803 82.3546ZM81.8367 90.3546L82.7028 90.8546C83.5798 89.3355 84.1967 87.2563 84.6428 85.0528C85.0927 82.8307 85.3844 80.4003 85.5743 78.1285C85.954 73.5837 85.9315 69.6029 85.9284 69.0565L84.9284 69.0622L83.9284 69.0679C83.9314 69.5962 83.9535 73.5067 83.5812 77.962C83.395 80.1902 83.1115 82.5371 82.6826 84.6559C82.2498 86.7933 81.6842 88.6188 80.9707 89.8546L81.8367 90.3546ZM68.9282 96.7128L68.4282 97.5789C70.7197 98.9019 73.4912 98.6504 76.0206 97.4045C78.5573 96.155 80.9661 93.8626 82.7028 90.8546L81.8367 90.3546L80.9707 89.8546C79.4046 92.5672 77.2722 94.5585 75.1369 95.6103C72.9943 96.6657 70.963 96.733 69.4282 95.8468L68.9282 96.7128ZM84.9282 69L84.0622 68.5L68.0622 96.2128L68.9282 96.7128L69.7942 97.2128L85.7942 69.5L84.9282 69ZM84.9284 69.0622L85.9284 69.0565C85.9282 69.0358 85.9282 69.0217 85.9281 69.0126C85.9281 69.0077 85.9281 69.0066 85.9281 69.0075C85.9281 69.0079 85.9281 69.0089 85.9281 69.0104C85.9281 69.0116 85.9281 69.0144 85.928 69.018C85.928 69.0204 85.9278 69.0292 85.9274 69.0407C85.9272 69.0458 85.9266 69.0586 85.9254 69.075C85.9248 69.0831 85.9236 69.0981 85.9214 69.1168C85.9202 69.1264 85.9185 69.1402 85.9158 69.1569C85.9134 69.1721 85.9088 69.1987 85.9011 69.2314L84.9282 69L83.9553 68.7686C83.9417 68.826 83.9364 68.8719 83.935 68.8833C83.9328 68.9021 83.9316 68.9171 83.931 68.9253C83.9298 68.9418 83.9292 68.9548 83.929 68.9601C83.9285 68.972 83.9283 68.9813 83.9283 68.9844C83.9282 68.9921 83.9281 68.9986 83.9281 69.0012C83.9281 69.0075 83.9281 69.0144 83.9281 69.0199C83.9282 69.0316 83.9283 69.0482 83.9284 69.0679L84.9284 69.0622ZM84.9282 69L84.0622 68.5L84.0622 68.5L84.9282 69L85.7942 69.5L85.7942 69.5L84.9282 69ZM84.9282 69L85.8979 69.2444C85.8941 69.2593 85.8675 69.3732 85.7942 69.5C85.7633 69.5536 85.6569 69.7318 85.4345 69.8624C85.3083 69.9365 85.1381 69.9985 84.9356 70C84.7323 70.0015 84.5589 69.9415 84.4282 69.866L84.9282 69L85.4282 68.134C85.1116 67.9512 84.7273 67.9584 84.4219 68.1376C84.1995 68.2682 84.0931 68.4464 84.0622 68.5C83.9889 68.6269 83.9623 68.7407 83.9585 68.7556L84.9282 69Z" fill="#E56701"/>
</g>
<g id="Combined Shape Copy">
<path fill-rule="evenodd" clip-rule="evenodd" d="M40.5148 61.0159C42.9919 65.3065 47.3264 67.4415 50.1962 65.7846L38.1962 45C38.1962 45 38.1962 45 38.1961 45L38.1962 45C38.1963 45.0005 38.1962 45.0164 38.196 45.0467C38.1915 45.8526 38.129 56.8836 40.5148 61.0159ZM38.2366 45.0232C38.9369 45.4223 48.5213 50.8836 50.9071 55.0159C53.3842 59.3065 53.0659 64.1278 50.1962 65.7846L38.1962 45C38.1966 45.0004 38.2103 45.0082 38.2366 45.0232ZM38.1962 45L38.1962 45C38.1962 45 38.1962 45 38.1962 45Z" fill="#E56701"/>
<path d="M50.1962 65.7846L50.6962 66.6507C51.1745 66.3745 51.3383 65.7629 51.0622 65.2846L50.1962 65.7846ZM38.1961 45L37.6961 44.134C37.4665 44.2666 37.2989 44.485 37.2302 44.7412C37.1616 44.9974 37.1975 45.2703 37.3301 45.5L38.1961 45ZM38.196 45.0467L39.196 45.0523L39.196 45.0523L38.196 45.0467ZM38.2366 45.0232L37.7415 45.8921L37.7415 45.8921L38.2366 45.0232ZM50.1962 65.7846L49.3301 66.2846C49.6063 66.7629 50.2179 66.9268 50.6962 66.6507L50.1962 65.7846ZM38.1962 45L39.0622 44.5C38.786 44.0217 38.1744 43.8578 37.6962 44.134L38.1962 45ZM50.1962 65.7846L49.6962 64.9186C48.6396 65.5286 47.2087 65.5012 45.6501 64.7335C44.0988 63.9693 42.5341 62.5135 41.3808 60.5159L40.5148 61.0159L39.6487 61.5159C40.9726 63.8089 42.8137 65.5658 44.7664 66.5276C46.7118 67.4859 48.883 67.6975 50.6962 66.6507L50.1962 65.7846ZM38.1962 45L37.3301 45.5L49.3301 66.2846L50.1962 65.7846L51.0622 65.2846L39.0622 44.5L38.1962 45ZM38.1962 45L39.166 44.7563C39.1623 44.7414 39.1356 44.6272 39.0622 44.5C39.0311 44.4462 38.9244 44.2676 38.7014 44.137C38.3953 43.9578 38.0115 43.9519 37.6961 44.134L38.1961 45L38.6961 45.866C38.5658 45.9413 38.3929 46.0012 38.19 46C37.9877 45.9987 37.8175 45.9371 37.6909 45.863C37.4679 45.7324 37.3612 45.5538 37.3301 45.5C37.2567 45.3728 37.23 45.2586 37.2263 45.2437L38.1962 45ZM38.1961 45L37.3301 45.5L37.3301 45.5L38.1962 45L39.0622 44.5L39.0622 44.5L38.1961 45ZM38.196 45.0467L39.196 45.0523C39.1961 45.0377 39.1962 45.0249 39.1962 45.0158C39.1962 45.0116 39.1962 45.0058 39.1962 45.0001C39.1962 44.9979 39.1962 44.9916 39.1961 44.9841C39.196 44.9811 39.1958 44.9718 39.1954 44.96C39.1952 44.9548 39.1946 44.9418 39.1934 44.9253C39.1928 44.9171 39.1915 44.9021 39.1893 44.8834C39.188 44.872 39.1827 44.826 39.169 44.7686L38.1962 45L37.2233 45.2315C37.2155 45.1987 37.2109 45.1721 37.2085 45.1568C37.2059 45.1402 37.2041 45.1263 37.203 45.1167C37.2008 45.098 37.1996 45.083 37.199 45.075C37.1977 45.0585 37.1972 45.0457 37.197 45.0405C37.1965 45.0291 37.1964 45.0202 37.1963 45.0177C37.1962 45.0113 37.1962 45.0066 37.1962 45.0064C37.1962 45.0048 37.1962 45.005 37.1962 45.0086C37.1962 45.0151 37.1961 45.0253 37.196 45.041L38.196 45.0467ZM40.5148 61.0159L41.3808 60.5159C40.8661 59.6245 40.4483 58.2871 40.1254 56.6923C39.8063 55.1161 39.5947 53.3664 39.4555 51.7006C39.1772 48.3704 39.1938 45.4463 39.196 45.0523L38.196 45.0467L37.196 45.041C37.1937 45.453 37.1767 48.4474 37.4625 51.8672C37.6053 53.5765 37.8252 55.4097 38.1652 57.0892C38.5015 58.7501 38.9705 60.3412 39.6487 61.5159L40.5148 61.0159ZM50.9071 55.0159L51.7731 54.5159C51.0949 53.3412 49.9515 52.1395 48.6812 51.0178C47.3967 49.8836 45.919 48.7766 44.5102 47.7982C41.6914 45.8408 39.0897 44.3583 38.7317 44.1544L38.2366 45.0232L37.7415 45.8921C38.0839 46.0871 40.6245 47.5348 43.3694 49.441C44.7424 50.3944 46.1519 51.4525 47.3574 52.517C48.577 53.594 49.5263 54.6245 50.041 55.5159L50.9071 55.0159ZM50.1962 65.7846L50.6962 66.6507C52.5094 65.6038 53.4117 63.6177 53.5545 61.4538C53.6979 59.2819 53.0969 56.8089 51.7731 54.5159L50.9071 55.0159L50.041 55.5159C51.1943 57.5135 51.6728 59.5965 51.5589 61.322C51.4444 63.0556 50.7527 64.3086 49.6962 64.9186L50.1962 65.7846ZM38.1962 45L37.3301 45.5L49.3301 66.2846L50.1962 65.7846L51.0622 65.2846L39.0622 44.5L38.1962 45ZM38.2366 45.0232L38.7317 44.1544C38.7181 44.1466 38.7092 44.1415 38.7035 44.1383C38.7004 44.1365 38.7003 44.1364 38.7017 44.1372C38.7018 44.1373 38.7059 44.1397 38.7114 44.143C38.7135 44.1443 38.7211 44.1488 38.7308 44.155C38.7352 44.1577 38.7461 44.1646 38.7597 44.1739C38.7664 44.1785 38.7787 44.187 38.7938 44.1983C38.8016 44.204 38.8127 44.2125 38.8258 44.2231C38.8378 44.2328 38.8586 44.2501 38.883 44.2732L38.1962 45L37.5093 45.7268C37.5522 45.7674 37.5894 45.7949 37.5985 45.8018C37.6137 45.8131 37.6261 45.8216 37.6328 45.8262C37.6465 45.8356 37.6575 45.8425 37.6619 45.8454C37.6719 45.8517 37.6799 45.8565 37.6825 45.858C37.6889 45.8619 37.6943 45.865 37.6962 45.8661C37.7011 45.869 37.7062 45.8719 37.7098 45.874C37.7177 45.8785 37.7288 45.8848 37.7415 45.8921L38.2366 45.0232ZM38.1962 45L37.3301 45.5L37.3301 45.5L38.1962 45L39.0622 44.5L39.0622 44.5L38.1962 45ZM38.1962 45L38.8921 44.2819C38.9031 44.2926 38.9887 44.3728 39.0622 44.5C39.0932 44.5538 39.1946 44.7355 39.1961 44.9939C39.197 45.1406 39.1653 45.3189 39.0652 45.4947C38.9648 45.671 38.8265 45.7908 38.6962 45.866L38.1962 45L37.6962 44.134C37.3808 44.3161 37.194 44.6514 37.1962 45.006C37.1977 45.2645 37.2991 45.4462 37.3301 45.5C37.4036 45.6272 37.4892 45.7074 37.5002 45.7181L38.1962 45Z" fill="#E56701"/>
</g>
<path id="Combined Shape Copy 2" d="M75.2425 56.2132L74.5354 56.9203C74.926 57.3108 75.5591 57.3108 75.9496 56.9203L75.2425 56.2132ZM92.2131 39.2426L92.9202 38.5355C92.5297 38.145 91.8965 38.145 91.506 38.5355L92.2131 39.2426ZM92.168 39.2546L92.4214 40.2219L92.4214 40.2219L92.168 39.2546ZM92.2012 39.2877L91.2338 39.0344L91.2338 39.0344L92.2012 39.2877ZM75.2425 56.2132L74.5354 55.5061C74.1449 55.8966 74.1449 56.5298 74.5354 56.9203L75.2425 56.2132ZM92.2131 39.2426L92.9202 39.9497C93.3108 39.5592 93.3108 38.926 92.9202 38.5355L92.2131 39.2426ZM91.9491 38.2781C91.4157 38.4215 91.0996 38.97 91.2429 39.5034C91.3862 40.0368 91.9348 40.353 92.4681 40.2096L92.2086 39.2439L91.9491 38.2781ZM92.4259 40.2208C92.9602 40.0808 93.2798 39.5343 93.1399 39C93 38.4658 92.4535 38.1461 91.9192 38.286L92.1725 39.2534L92.4259 40.2208ZM91.3863 38.4282C90.8533 38.5729 90.5386 39.1224 90.6833 39.6553C90.8281 40.1883 91.3775 40.503 91.9105 40.3582L91.6484 39.3932L91.3863 38.4282ZM87.8059 41.5942C88.3304 41.421 88.6151 40.8555 88.4418 40.3311C88.2686 39.8066 87.703 39.5219 87.1786 39.6952L87.4923 40.6447L87.8059 41.5942ZM86.1387 40.047C85.6169 40.2279 85.3405 40.7976 85.5214 41.3194C85.7022 41.8412 86.2719 42.1176 86.7937 41.9367L86.4662 40.9919L86.1387 40.047ZM82.8245 43.4763C83.33 43.254 83.5597 42.6639 83.3373 42.1583C83.115 41.6528 82.525 41.4231 82.0194 41.6455L82.4219 42.5609L82.8245 43.4763ZM81.0057 42.109C80.5072 42.3466 80.2955 42.9433 80.5331 43.4419C80.7706 43.9405 81.3674 44.1521 81.866 43.9146L81.4359 43.0118L81.0057 42.109ZM78.3909 46.0202C78.8102 45.6608 78.8587 45.0295 78.4992 44.6102C78.1397 44.1909 77.5084 44.1424 77.0891 44.5019L77.74 45.2611L78.3909 46.0202ZM76.1947 45.3812C75.8216 45.7884 75.8493 46.421 76.2565 46.794C76.6637 47.1671 77.2963 47.1395 77.6694 46.7323L76.9321 46.0567L76.1947 45.3812ZM75.3985 50.4101C75.5839 49.8898 75.3124 49.3178 74.7921 49.1325C74.2719 48.9471 73.6999 49.2186 73.5145 49.7389L74.4565 50.0745L75.3985 50.4101ZM73.152 51.0039C73.0353 51.5437 73.3783 52.0759 73.9181 52.1926C74.4579 52.3093 74.9902 51.9663 75.1069 51.4265L74.1295 51.2152L73.152 51.0039ZM75.6566 55.167C75.3267 54.7241 74.7003 54.6323 74.2573 54.9622C73.8143 55.292 73.7226 55.9185 74.0525 56.3615L74.8545 55.7643L75.6566 55.167ZM76.2891 56.5809C76.6796 56.1904 76.6796 55.5572 76.2891 55.1667C75.8985 54.7762 75.2654 54.7762 74.8748 55.1667L75.5819 55.8738L76.2891 56.5809ZM77.5901 52.4514C77.1996 52.8419 77.1996 53.4751 77.5901 53.8656C77.9807 54.2561 78.6138 54.2561 79.0043 53.8656L78.2972 53.1585L77.5901 52.4514ZM79.6832 53.1868C80.0737 52.7963 80.0737 52.1631 79.6832 51.7726C79.2926 51.382 78.6595 51.382 78.269 51.7726L78.9761 52.4797L79.6832 53.1868ZM80.9842 49.0573C80.5937 49.4478 80.5937 50.081 80.9842 50.4715C81.3748 50.862 82.0079 50.862 82.3985 50.4715L81.6914 49.7644L80.9842 49.0573ZM83.0773 49.7927C83.4678 49.4021 83.4678 48.769 83.0773 48.3785C82.6868 47.9879 82.0536 47.9879 81.6631 48.3785L82.3702 49.0856L83.0773 49.7927ZM84.3784 45.6632C83.9878 46.0537 83.9878 46.6868 84.3784 47.0774C84.7689 47.4679 85.402 47.4679 85.7926 47.0774L85.0855 46.3703L84.3784 45.6632ZM86.4714 46.3986C86.8619 46.008 86.8619 45.3749 86.4714 44.9843C86.0809 44.5938 85.4477 44.5938 85.0572 44.9843L85.7643 45.6914L86.4714 46.3986ZM87.7725 42.269C87.382 42.6596 87.382 43.2927 87.7725 43.6833C88.163 44.0738 88.7962 44.0738 89.1867 43.6833L88.4796 42.9762L87.7725 42.269ZM89.8655 43.0044C90.256 42.6139 90.256 41.9807 89.8655 41.5902C89.475 41.1997 88.8418 41.1997 88.4513 41.5902L89.1584 42.2973L89.8655 43.0044ZM91.1666 38.8749C90.7761 39.2655 90.7761 39.8986 91.1666 40.2891C91.5571 40.6797 92.1903 40.6797 92.5808 40.2891L91.8737 39.582L91.1666 38.8749ZM92.7127 40.1089C93.1911 39.833 93.3553 39.2215 93.0794 38.7431C92.8035 38.2646 92.192 38.1004 91.7136 38.3763L92.2131 39.2426L92.7127 40.1089ZM91.2208 39.1191C91.1525 39.6671 91.5415 40.1667 92.0896 40.235C92.6376 40.3032 93.1372 39.9142 93.2055 39.3662L92.2131 39.2426L91.2208 39.1191ZM91.506 38.5355C91.1155 38.926 91.1155 39.5592 91.506 39.9497C91.8965 40.3402 92.5297 40.3402 92.9202 39.9497L92.2131 39.2426L91.506 38.5355ZM92.9202 39.9497C93.3107 39.5592 93.3107 38.926 92.9202 38.5355C92.5297 38.145 91.8965 38.145 91.506 38.5355L92.2131 39.2426L92.9202 39.9497ZM91.1666 38.8749C90.7761 39.2655 90.7761 39.8986 91.1666 40.2892C91.5571 40.6797 92.1903 40.6797 92.5808 40.2892L91.8737 39.582L91.1666 38.8749ZM89.8655 43.0044C90.256 42.6139 90.256 41.9808 89.8655 41.5902C89.475 41.1997 88.8418 41.1997 88.4513 41.5902L89.1584 42.2973L89.8655 43.0044ZM87.7725 42.2691C87.382 42.6596 87.382 43.2927 87.7725 43.6833C88.163 44.0738 88.7962 44.0738 89.1867 43.6833L88.4796 42.9762L87.7725 42.2691ZM86.4714 46.3986C86.8619 46.008 86.8619 45.3749 86.4714 44.9843C86.0809 44.5938 85.4477 44.5938 85.0572 44.9843L85.7643 45.6915L86.4714 46.3986ZM84.3784 45.6632C83.9878 46.0537 83.9878 46.6869 84.3784 47.0774C84.7689 47.4679 85.4021 47.4679 85.7926 47.0774L85.0855 46.3703L84.3784 45.6632ZM83.0773 49.7927C83.4678 49.4021 83.4678 48.769 83.0773 48.3785C82.6868 47.9879 82.0536 47.9879 81.6631 48.3785L82.3702 49.0856L83.0773 49.7927ZM80.9843 49.0573C80.5937 49.4478 80.5937 50.081 80.9843 50.4715C81.3748 50.862 82.0079 50.862 82.3985 50.4715L81.6914 49.7644L80.9843 49.0573ZM79.6832 53.1868C80.0737 52.7963 80.0737 52.1631 79.6832 51.7726C79.2926 51.382 78.6595 51.3821 78.269 51.7726L78.9761 52.4797L79.6832 53.1868ZM77.5901 52.4514C77.1996 52.8419 77.1996 53.4751 77.5901 53.8656C77.9807 54.2561 78.6138 54.2561 79.0043 53.8656L78.2972 53.1585L77.5901 52.4514ZM76.2891 56.5809C76.6796 56.1904 76.6796 55.5572 76.2891 55.1667C75.8985 54.7762 75.2654 54.7762 74.8748 55.1667L75.582 55.8738L76.2891 56.5809ZM75.0942 57.4033C75.5372 57.7331 76.1637 57.6414 76.4935 57.1985C76.8234 56.7555 76.7317 56.129 76.2887 55.7992L75.6915 56.6012L75.0942 57.4033ZM80.0292 56.3489C79.4894 56.4656 79.1464 56.9978 79.2631 57.5376C79.3799 58.0774 79.9121 58.4204 80.4519 58.3037L80.2406 57.3263L80.0292 56.3489ZM81.7169 57.9412C82.2371 57.7559 82.5086 57.1839 82.3233 56.6636C82.1379 56.1434 81.5659 55.8719 81.0457 56.0572L81.3813 56.9992L81.7169 57.9412ZM84.7235 53.7864C84.3163 54.1594 84.2886 54.792 84.6617 55.1992C85.0348 55.6064 85.6673 55.6341 86.0746 55.261L85.399 54.5237L84.7235 53.7864ZM86.9538 54.3666C87.3133 53.9473 87.2648 53.316 86.8456 52.9566C86.4263 52.5971 85.795 52.6456 85.4355 53.0648L86.1947 53.7157L86.9538 54.3666ZM87.5412 49.5898C87.3036 50.0883 87.5152 50.6851 88.0138 50.9227C88.5124 51.1602 89.1092 50.9486 89.3467 50.45L88.4439 50.0199L87.5412 49.5898ZM89.8103 49.4363C90.0326 48.9308 89.803 48.3407 89.2974 48.1184C88.7918 47.8961 88.2018 48.1257 87.9795 48.6313L88.8949 49.0338L89.8103 49.4363ZM89.519 44.662C89.3381 45.1839 89.6145 45.7535 90.1364 45.9344C90.6582 46.1153 91.2278 45.8389 91.4087 45.3171L90.4639 44.9895L89.519 44.662ZM91.7606 44.2771C91.9338 43.7527 91.6491 43.1871 91.1247 43.0139C90.6003 42.8407 90.0347 43.1254 89.8615 43.6498L90.811 43.9634L91.7606 44.2771ZM91.0975 39.5452C90.9527 40.0782 91.2674 40.6276 91.8004 40.7724C92.3334 40.9172 92.8828 40.6025 93.0276 40.0695L92.0625 39.8074L91.0975 39.5452ZM93.1697 39.5366C93.3097 39.0023 92.99 38.4557 92.4557 38.3158C91.9215 38.1759 91.3749 38.4956 91.235 39.0298L92.2024 39.2832L93.1697 39.5366ZM91.2461 38.9876C91.1028 39.521 91.419 40.0695 91.9523 40.2129C92.4857 40.3562 93.0343 40.04 93.1776 39.5066L92.2119 39.2471L91.2461 38.9876ZM92.9202 39.9497C93.3107 39.5592 93.3107 38.9261 92.9202 38.5355C92.5297 38.145 91.8965 38.145 91.506 38.5355L92.2131 39.2426L92.9202 39.9497ZM91.506 38.5355C91.1155 38.926 91.1155 39.5592 91.506 39.9497C91.8965 40.3403 92.5297 40.3403 92.9202 39.9497L92.2131 39.2426L91.506 38.5355ZM92.0896 38.2503C91.5415 38.3185 91.1526 38.8181 91.2208 39.3662C91.289 39.9142 91.7886 40.3032 92.3367 40.235L92.2131 39.2426L92.0896 38.2503ZM93.0794 39.7422C93.3553 39.2638 93.1911 38.6522 92.7127 38.3764C92.2342 38.1005 91.6227 38.2646 91.3468 38.7431L92.2131 39.2426L93.0794 39.7422ZM92.2131 39.2426L91.7378 38.3628C91.7727 38.344 91.8013 38.3312 91.8156 38.325C91.8319 38.318 91.8454 38.3126 91.8543 38.3092C91.8717 38.3025 91.8856 38.2978 91.8926 38.2954C91.907 38.2905 91.9183 38.2871 91.9225 38.2858C91.9321 38.2829 91.9395 38.2808 91.9413 38.2803C91.9442 38.2795 91.9464 38.2789 91.9473 38.2787C91.9483 38.2784 91.949 38.2782 91.9491 38.2781L92.2086 39.2439L92.4681 40.2096C92.4705 40.209 92.476 40.2075 92.4825 40.2057C92.485 40.205 92.493 40.2027 92.503 40.1997C92.5074 40.1984 92.5189 40.1949 92.5334 40.1899C92.5404 40.1876 92.5544 40.1828 92.5718 40.1761C92.5791 40.1733 92.6291 40.1545 92.6885 40.1224L92.2131 39.2426ZM92.1725 39.2534L91.9192 38.286C91.9177 38.2864 91.9162 38.2868 91.9147 38.2872L92.168 39.2546L92.4214 40.2219C92.4229 40.2215 92.4244 40.2211 92.4259 40.2208L92.1725 39.2534ZM92.168 39.2546L91.9147 38.2872C91.8348 38.3081 91.6524 38.3559 91.3863 38.4282L91.6484 39.3932L91.9105 40.3582C92.1683 40.2882 92.3441 40.2422 92.4214 40.2219L92.168 39.2546ZM87.4923 40.6447L87.1786 39.6952C86.8404 39.8069 86.4928 39.9243 86.1387 40.047L86.4662 40.9919L86.7937 41.9367C87.138 41.8174 87.4764 41.7031 87.8059 41.5942L87.4923 40.6447ZM82.4219 42.5609L82.0194 41.6455C81.6769 41.7961 81.3381 41.9507 81.0057 42.109L81.4359 43.0118L81.866 43.9146C82.1784 43.7657 82.4987 43.6195 82.8245 43.4763L82.4219 42.5609ZM77.74 45.2611L77.0891 44.5019C76.9303 44.638 76.7787 44.7775 76.6359 44.9203L77.343 45.6275L78.0501 46.3346C78.1531 46.2315 78.2667 46.1267 78.3909 46.0202L77.74 45.2611ZM77.343 45.6275L76.6359 44.9203C76.4844 45.0718 76.3374 45.2255 76.1947 45.3812L76.9321 46.0567L77.6694 46.7323C77.7923 46.5981 77.9193 46.4654 78.0501 46.3346L77.343 45.6275ZM74.4565 50.0745L73.5145 49.7389C73.3643 50.1606 73.2429 50.5834 73.152 51.0039L74.1295 51.2152L75.1069 51.4265C75.1787 51.0945 75.2758 50.7546 75.3985 50.4101L74.4565 50.0745ZM74.8545 55.7643L74.0525 56.3615C74.1987 56.5579 74.3597 56.7446 74.5354 56.9203L75.2425 56.2132L75.9496 55.5061C75.843 55.3994 75.7454 55.2863 75.6566 55.167L74.8545 55.7643ZM75.2425 56.2132L75.9496 56.9203L76.2891 56.5809L75.5819 55.8738L74.8748 55.1667L74.5354 55.5061L75.2425 56.2132ZM78.2972 53.1585L79.0043 53.8656L79.6832 53.1868L78.9761 52.4797L78.269 51.7726L77.5901 52.4514L78.2972 53.1585ZM81.6914 49.7644L82.3985 50.4715L83.0773 49.7927L82.3702 49.0856L81.6631 48.3785L80.9842 49.0573L81.6914 49.7644ZM85.0855 46.3703L85.7926 47.0774L86.4714 46.3986L85.7643 45.6914L85.0572 44.9843L84.3784 45.6632L85.0855 46.3703ZM88.4796 42.9762L89.1867 43.6833L89.8655 43.0044L89.1584 42.2973L88.4513 41.5902L87.7725 42.269L88.4796 42.9762ZM91.8737 39.582L92.5808 40.2891L92.9202 39.9497L92.2131 39.2426L91.506 38.5355L91.1666 38.8749L91.8737 39.582ZM92.2131 39.2426L92.6995 40.1164C92.7036 40.1141 92.708 40.1116 92.7127 40.1089L92.2131 39.2426L91.7136 38.3763C91.7182 38.3737 91.7226 38.3712 91.7267 38.3689L92.2131 39.2426ZM92.2131 39.2426L93.2055 39.3662C93.2463 39.0383 93.1223 38.7376 92.9202 38.5355L92.2131 39.2426L91.506 39.9497C91.4173 39.861 91.329 39.739 91.2723 39.5816C91.2149 39.4221 91.2029 39.2626 91.2208 39.1191L92.2131 39.2426ZM92.2131 39.2426L91.506 38.5355L91.506 38.5355L92.2131 39.2426L92.9202 39.9497L92.9202 39.9497L92.2131 39.2426ZM92.2131 39.2426L91.506 38.5355L91.506 38.5355L92.2131 39.2426L92.9202 39.9497L92.9202 39.9497L92.2131 39.2426ZM92.2131 39.2426L91.506 38.5355L91.1666 38.8749L91.8737 39.582L92.5808 40.2892L92.9202 39.9497L92.2131 39.2426ZM89.1584 42.2973L88.4513 41.5902L87.7725 42.2691L88.4796 42.9762L89.1867 43.6833L89.8655 43.0044L89.1584 42.2973ZM85.7643 45.6915L85.0572 44.9843L84.3784 45.6632L85.0855 46.3703L85.7926 47.0774L86.4714 46.3986L85.7643 45.6915ZM82.3702 49.0856L81.6631 48.3785L80.9843 49.0573L81.6914 49.7644L82.3985 50.4715L83.0773 49.7927L82.3702 49.0856ZM78.9761 52.4797L78.269 51.7726L77.5901 52.4514L78.2972 53.1585L79.0043 53.8656L79.6832 53.1868L78.9761 52.4797ZM75.582 55.8738L74.8748 55.1667L74.5354 55.5061L75.2425 56.2132L75.9496 56.9203L76.2891 56.5809L75.582 55.8738ZM75.2425 56.2132L74.5354 56.9203C74.7112 57.0961 74.8978 57.257 75.0942 57.4033L75.6915 56.6012L76.2887 55.7992C76.1695 55.7104 76.0563 55.6128 75.9496 55.5061L75.2425 56.2132ZM80.2406 57.3263L80.4519 58.3037C80.8723 58.2128 81.2952 58.0914 81.7169 57.9412L81.3813 56.9992L81.0457 56.0572C80.7011 56.1799 80.3613 56.2771 80.0292 56.3489L80.2406 57.3263ZM85.399 54.5237L86.0746 55.261C86.2302 55.1184 86.3839 54.9713 86.5354 54.8198L85.8283 54.1127L85.1212 53.4056C84.9903 53.5365 84.8577 53.6634 84.7235 53.7864L85.399 54.5237ZM85.8283 54.1127L86.5354 54.8198C86.6782 54.677 86.8177 54.5254 86.9538 54.3666L86.1947 53.7157L85.4355 53.0648C85.329 53.189 85.2242 53.3026 85.1212 53.4056L85.8283 54.1127ZM88.4439 50.0199L89.3467 50.45C89.505 50.1177 89.6597 49.7789 89.8103 49.4363L88.8949 49.0338L87.9795 48.6313C87.8362 48.9571 87.69 49.2774 87.5412 49.5898L88.4439 50.0199ZM90.4639 44.9895L91.4087 45.3171C91.5315 44.963 91.6489 44.6153 91.7606 44.2771L90.811 43.9634L89.8615 43.6498C89.7526 43.9794 89.6383 44.3178 89.519 44.662L90.4639 44.9895ZM92.0625 39.8074L93.0276 40.0695C93.0999 39.8033 93.1476 39.6209 93.1686 39.5411L92.2012 39.2877L91.2338 39.0344C91.2136 39.1117 91.1675 39.2875 91.0975 39.5452L92.0625 39.8074ZM92.2012 39.2877L93.1686 39.5411C93.169 39.5395 93.1693 39.538 93.1697 39.5366L92.2024 39.2832L91.235 39.0298C91.2346 39.0313 91.2342 39.0328 91.2338 39.0344L92.2012 39.2877ZM92.2119 39.2471L93.1776 39.5066C93.1776 39.5068 93.1774 39.5075 93.1771 39.5085C93.1768 39.5094 93.1763 39.5115 93.1754 39.5144C93.1749 39.5162 93.1729 39.5236 93.1699 39.5332C93.1687 39.5374 93.1652 39.5488 93.1603 39.5632C93.158 39.5701 93.1532 39.5841 93.1465 39.6014C93.1431 39.6103 93.1378 39.6238 93.1307 39.6402C93.1245 39.6544 93.1118 39.6831 93.0929 39.718L92.2131 39.2426L91.3333 38.7673C91.3012 38.8267 91.2825 38.8766 91.2797 38.8839C91.273 38.9013 91.2682 38.9153 91.2658 38.9223C91.2609 38.9369 91.2574 38.9484 91.256 38.9527C91.253 38.9628 91.2508 38.9708 91.25 38.9733C91.2482 38.9797 91.2467 38.9853 91.2461 38.9876L92.2119 39.2471ZM92.2131 39.2426L92.9202 39.9497L92.9202 39.9497L92.2131 39.2426L91.506 38.5355L91.506 38.5355L92.2131 39.2426ZM92.2131 39.2426L92.9202 39.9497L92.9202 39.9497L92.2131 39.2426L91.506 38.5355L91.506 38.5355L92.2131 39.2426ZM92.2131 39.2426L92.9202 38.5355C92.7182 38.3334 92.4174 38.2095 92.0896 38.2503L92.2131 39.2426L92.3367 40.235C92.1932 40.2528 92.0336 40.2409 91.8742 40.1834C91.7168 40.1267 91.5948 40.0385 91.506 39.9497L92.2131 39.2426ZM92.2131 39.2426L91.3468 38.7431C91.3442 38.7477 91.3417 38.7521 91.3394 38.7562L92.2131 39.2426L93.0868 39.729C93.0845 39.7332 93.0821 39.7376 93.0794 39.7422L92.2131 39.2426Z" fill="#E56701"/>
<path id="Path 4" d="M58 104C58 104 58 71.5329 58 70.1806C58 68.8283 69.5 60 69.5 60" stroke="#E56701" stroke-width="4" stroke-linecap="round"/>
</g>
</g>
</svg>
