<svg width="216" height="216" viewBox="0 0 216 216" fill="none" xmlns="http://www.w3.org/2000/svg">
<rect width="216" height="216" fill="#F5F5F5"/>
<g id="Wellbeing">
<g id="Group">
<path id="Fill 158" fill-rule="evenodd" clip-rule="evenodd" d="M163.961 215.96C161.607 215.96 159.387 215.036 157.71 213.359L127.852 183.508C126.451 185.481 124.751 187.245 122.814 188.709C118.673 191.84 113.734 193.496 108.531 193.496C100.344 193.496 92.9903 189.352 88.7108 182.822L58.2616 213.264C56.5843 214.941 54.3646 215.864 52.011 215.864C47.7298 215.864 44.0552 212.817 43.274 208.617L38.8789 184.992L15.2485 180.598C12.0026 179.994 9.37866 177.661 8.40064 174.508C7.42261 171.356 8.26533 167.947 10.5996 165.613L37.4016 138.818C32.5192 132.133 28.6315 124.827 25.8194 117.044C22.3871 107.543 20.6466 97.5597 20.6466 87.3716C20.6466 75.5788 22.9577 64.1357 27.5162 53.3611C31.9182 42.9566 38.2187 33.6131 46.2429 25.5907C54.2671 17.5678 63.6127 11.2688 74.0196 6.86806C84.7972 2.31034 96.2424 0 108.038 0C119.833 0 131.279 2.31034 142.056 6.86806C152.463 11.2688 161.809 17.5678 169.833 25.5907C177.857 33.6131 184.158 42.9566 188.56 53.3611C193.118 64.1357 195.429 75.5788 195.429 87.3716C195.429 97.5863 193.68 107.594 190.231 117.116C187.404 124.918 183.497 132.238 178.591 138.933L205.372 165.709C207.708 168.044 208.55 171.453 207.57 174.607C206.591 177.76 203.965 180.093 200.717 180.694L177.076 185.071L172.699 208.705C171.921 212.909 168.246 215.96 163.961 215.96H163.961Z" fill="white"/>
<path id="Fill 160" fill-rule="evenodd" clip-rule="evenodd" d="M64.482 118.725L14.0916 169.104C11.8556 171.34 13.0427 175.165 16.1514 175.744L40.463 180.264C42.0603 180.561 43.3101 181.811 43.6072 183.408L48.1291 207.714C48.7072 210.822 52.5338 212.009 54.7699 209.773L105.16 159.394C106.695 157.86 106.695 155.373 105.16 153.839L70.0385 118.725C68.504 117.191 66.0166 117.191 64.482 118.725Z" fill="#D54263"/>
<g id="Group 164">
<mask id="mask0_4652_16135" style="mask-type:luminance" maskUnits="userSpaceOnUse" x="12" y="117" width="95" height="94">
<path id="Clip 163" fill-rule="evenodd" clip-rule="evenodd" d="M64.4817 118.725L14.0916 169.104C11.8556 171.34 13.0427 175.165 16.1511 175.744L40.4627 180.264C42.0603 180.561 43.3101 181.811 43.6072 183.408L48.1289 207.714C48.7072 210.822 52.5338 212.009 54.7699 209.773L105.16 159.394C106.695 157.86 106.695 155.373 105.16 153.839L70.0385 118.725C69.2711 117.958 68.2657 117.575 67.2603 117.575C66.2546 117.575 65.2492 117.958 64.4817 118.725Z" fill="white"/>
</mask>
<g mask="url(#mask0_4652_16135)">
<path id="Fill 162" fill-rule="evenodd" clip-rule="evenodd" d="M36.269 199.014L25.5759 188.323L94.2638 119.651L104.957 130.342L36.269 199.014Z" fill="#FCE6EC"/>
</g>
</g>
<path id="Fill 165" fill-rule="evenodd" clip-rule="evenodd" d="M151.395 118.725L201.881 169.2C204.117 171.436 202.928 175.263 199.818 175.839L175.495 180.342C173.895 180.638 172.644 181.89 172.347 183.489L167.844 207.806C167.268 210.916 163.439 212.105 161.202 209.868L110.717 159.394C109.182 157.86 109.182 155.373 110.717 153.839L145.838 118.725C147.373 117.191 149.86 117.191 151.395 118.725Z" fill="#D54263"/>
<g id="Group 169">
<mask id="mask1_4652_16135" style="mask-type:luminance" maskUnits="userSpaceOnUse" x="109" y="117" width="95" height="95">
<path id="Clip 168" fill-rule="evenodd" clip-rule="evenodd" d="M145.838 118.725L110.717 153.839C109.182 155.373 109.182 157.86 110.717 159.394L161.202 209.868C163.439 212.105 167.268 210.916 167.844 207.806L172.347 183.489C172.644 181.89 173.895 180.638 175.495 180.342L199.818 175.84C202.928 175.264 204.117 171.436 201.88 169.2L151.395 118.725C150.628 117.958 149.622 117.575 148.616 117.575C147.611 117.575 146.606 117.958 145.838 118.725Z" fill="white"/>
</mask>
<g mask="url(#mask1_4652_16135)">
<path id="Fill 167" fill-rule="evenodd" clip-rule="evenodd" d="M190.502 188.581L179.809 199.272L111.121 130.599L121.814 119.909L190.502 188.581Z" fill="#FCE6EC"/>
</g>
</g>
<g id="Group 204">
<path id="Fill 170" fill-rule="evenodd" clip-rule="evenodd" d="M190.491 87.3713C190.491 41.8442 153.576 4.93704 108.038 4.93704C62.5005 4.93704 25.585 41.8442 25.585 87.3713C25.585 132.899 62.5005 169.806 108.038 169.806C153.576 169.806 190.491 132.899 190.491 87.3713Z" fill="#FCE6EC"/>
<path id="Stroke 172 (Stroke)" fill-rule="evenodd" clip-rule="evenodd" d="M23.1157 87.3713C23.1157 40.48 61.1373 2.46791 108.038 2.46791C154.939 2.46791 192.96 40.48 192.96 87.3713C192.96 134.263 154.939 172.275 108.038 172.275C61.1373 172.275 23.1157 134.263 23.1157 87.3713ZM108.038 7.40618C63.8636 7.40618 28.054 43.2084 28.054 87.3713C28.054 131.534 63.8636 167.337 108.038 167.337C152.212 167.337 188.022 131.534 188.022 87.3713C188.022 43.2084 152.212 7.40618 108.038 7.40618Z" fill="#545454"/>
<path id="Stroke 174 (Stroke)" fill-rule="evenodd" clip-rule="evenodd" d="M170.302 137.628C171.266 136.663 172.829 136.663 173.793 137.627L203.626 167.453C207.27 171.096 205.332 177.33 200.267 178.267L200.267 178.267L175.945 182.77C175.35 182.88 174.885 183.345 174.775 183.938L174.775 183.939L170.272 208.256L170.272 208.256C169.334 213.321 163.099 215.256 159.457 211.614L132.591 184.755C131.627 183.791 131.627 182.228 132.591 181.263C133.555 180.299 135.118 180.299 136.083 181.263L162.948 208.122C163.78 208.954 165.202 208.511 165.416 207.356L169.92 183.04C169.92 183.04 169.92 183.04 169.92 183.039C170.402 180.434 172.441 178.396 175.046 177.914L175.046 177.914L199.368 173.412C200.525 173.198 200.965 171.776 200.135 170.946L170.302 141.12C169.338 140.156 169.337 138.592 170.302 137.628Z" fill="#545454"/>
<path id="Stroke 176 (Stroke)" fill-rule="evenodd" clip-rule="evenodd" d="M45.6736 137.53C46.6377 138.494 46.6376 140.057 45.6732 141.022L15.8374 170.851L15.8373 170.851C15.0076 171.68 15.4471 173.101 16.6027 173.316L16.6028 173.316L40.9143 177.837C40.9144 177.837 40.9144 177.837 40.9144 177.837C43.5153 178.32 45.5508 180.355 46.0347 182.956C46.0347 182.956 46.0347 182.956 46.0347 182.956L50.5567 207.262L50.5567 207.262C50.7712 208.416 52.1929 208.858 53.0242 208.027L80.8165 180.241C81.7809 179.277 83.3442 179.277 84.3084 180.241C85.2725 181.206 85.2724 182.769 84.308 183.733L56.5157 211.519L54.7699 209.773L56.5157 211.519C52.8748 215.159 46.6432 213.228 45.7017 208.165L41.1797 183.859L41.1797 183.859C41.0695 183.267 40.6053 182.802 40.0117 182.692L40.0116 182.692L15.7001 178.171C10.6384 177.23 8.70363 170.999 12.346 167.358L42.1817 137.529C43.1461 136.565 44.7094 136.565 45.6736 137.53Z" fill="#545454"/>
<g id="Group 181">
<path id="Fill 178" fill-rule="evenodd" clip-rule="evenodd" d="M102.653 69.6938C105.176 69.6938 107.241 71.758 107.241 74.2809V75.1246C107.241 77.6475 105.176 79.7117 102.653 79.7117H43.7361C41.2126 79.7117 39.1479 77.6475 39.1479 75.1246V74.2809C39.1479 71.758 41.2126 69.6938 43.7361 69.6938H52.4813" fill="white"/>
<path id="Stroke 180 (Stroke)" fill-rule="evenodd" clip-rule="evenodd" d="M43.736 72.1629C42.5757 72.1629 41.617 73.1222 41.617 74.2809V75.1246C41.617 76.2833 42.5757 77.2426 43.736 77.2426H102.653C103.813 77.2426 104.772 76.2833 104.772 75.1246V74.2809C104.772 73.1222 103.813 72.1629 102.653 72.1629C101.289 72.1629 100.183 71.0574 100.183 69.6938C100.183 68.3301 101.289 67.2246 102.653 67.2246C106.539 67.2246 109.71 70.3938 109.71 74.2809V75.1246C109.71 79.0117 106.539 82.1809 102.653 82.1809H43.736C39.8494 82.1809 36.6787 79.0117 36.6787 75.1246V74.2809C36.6787 70.3938 39.8494 67.2246 43.736 67.2246H52.4812C53.8448 67.2246 54.9503 68.3301 54.9503 69.6938C54.9503 71.0574 53.8448 72.1629 52.4812 72.1629H43.736Z" fill="#545454"/>
</g>
<path id="Fill 182" fill-rule="evenodd" clip-rule="evenodd" d="M104.247 89.7299H53.3777C50.8545 89.7299 48.7896 87.6657 48.7896 85.1426V84.2991C48.7896 81.7759 50.8545 79.7117 53.3777 79.7117H104.247C106.77 79.7117 108.835 81.7759 108.835 84.2991V85.1426C108.835 87.6657 106.77 89.7299 104.247 89.7299Z" fill="white"/>
<path id="Stroke 184 (Stroke)" fill-rule="evenodd" clip-rule="evenodd" d="M53.3778 82.1809C52.2178 82.1809 51.2588 83.1401 51.2588 84.2991V85.1426C51.2588 86.3015 52.2178 87.2608 53.3778 87.2608H104.247C105.407 87.2608 106.366 86.3016 106.366 85.1426V84.2991C106.366 83.14 105.407 82.1809 104.247 82.1809H53.3778ZM46.3206 84.2991C46.3206 80.4117 49.4915 77.2426 53.3778 77.2426H104.247C108.133 77.2426 111.304 80.4118 111.304 84.2991V85.1426C111.304 89.0298 108.133 92.1991 104.247 92.1991H53.3778C49.4915 92.1991 46.3206 89.0299 46.3206 85.1426V84.2991Z" fill="#545454"/>
<path id="Fill 186" fill-rule="evenodd" clip-rule="evenodd" d="M104.247 99.7479H64.3972C61.8738 99.7479 59.8088 97.6837 59.8088 95.1608V94.317C59.8088 91.7941 61.8738 89.7299 64.3972 89.7299H104.247C106.77 89.7299 108.835 91.7941 108.835 94.317V95.1608C108.835 97.6837 106.77 99.7479 104.247 99.7479Z" fill="white"/>
<path id="Stroke 188 (Stroke)" fill-rule="evenodd" clip-rule="evenodd" d="M64.3974 92.1991C63.2369 92.1991 62.2781 93.1585 62.2781 94.317V95.1608C62.2781 96.3193 63.2369 97.2787 64.3974 97.2787H104.247C105.407 97.2787 106.366 96.3195 106.366 95.1608V94.317C106.366 93.1583 105.407 92.1991 104.247 92.1991H64.3974ZM57.3398 94.317C57.3398 90.4298 60.511 87.2608 64.3974 87.2608H104.247C108.133 87.2608 111.304 90.4299 111.304 94.317V95.1608C111.304 99.0479 108.133 102.217 104.247 102.217H64.3974C60.511 102.217 57.3398 99.048 57.3398 95.1608V94.317Z" fill="#545454"/>
<g id="Group 193">
<path id="Fill 190" fill-rule="evenodd" clip-rule="evenodd" d="M118.654 69.2384H116.384C113.86 69.2384 111.796 71.3026 111.796 73.8255V74.6692C111.796 77.1924 113.86 79.2563 116.384 79.2563H175.3C177.824 79.2563 179.889 77.1924 179.889 74.6692V73.8255C179.889 71.3026 177.824 69.2384 175.3 69.2384H164.086" fill="white"/>
<path id="Stroke 192 (Stroke)" fill-rule="evenodd" clip-rule="evenodd" d="M109.326 73.8255C109.326 69.9383 112.497 66.7692 116.384 66.7692H118.654C120.018 66.7692 121.123 67.8747 121.123 69.2384C121.123 70.602 120.018 71.7075 118.654 71.7075H116.384C115.223 71.7075 114.265 72.6669 114.265 73.8255V74.6692C114.265 75.828 115.223 76.7872 116.384 76.7872H175.3C176.461 76.7872 177.42 75.828 177.42 74.6692V73.8255C177.42 72.6669 176.461 71.7075 175.3 71.7075H164.086C162.723 71.7075 161.617 70.602 161.617 69.2384C161.617 67.8747 162.723 66.7692 164.086 66.7692H175.3C179.187 66.7692 182.358 69.9383 182.358 73.8255V74.6692C182.358 78.5567 179.187 81.7255 175.3 81.7255H116.384C112.497 81.7255 109.326 78.5567 109.326 74.6692V73.8255Z" fill="#545454"/>
</g>
<path id="Fill 194" fill-rule="evenodd" clip-rule="evenodd" d="M114.79 89.2746H165.658C168.182 89.2746 170.247 87.2103 170.247 84.6872V83.8437C170.247 81.3206 168.182 79.2563 165.658 79.2563H114.79C112.266 79.2563 110.201 81.3206 110.201 83.8437V84.6872C110.201 87.2103 112.266 89.2746 114.79 89.2746Z" fill="white"/>
<path id="Stroke 196 (Stroke)" fill-rule="evenodd" clip-rule="evenodd" d="M107.732 83.8437C107.732 79.9564 110.903 76.7872 114.79 76.7872H165.658C169.545 76.7872 172.716 79.9563 172.716 83.8437V84.6872C172.716 88.5746 169.545 91.7437 165.658 91.7437H114.79C110.903 91.7437 107.732 88.5745 107.732 84.6872V83.8437ZM114.79 81.7255C113.629 81.7255 112.67 82.6848 112.67 83.8437V84.6872C112.67 85.8461 113.629 86.8054 114.79 86.8054H165.658C166.819 86.8054 167.778 85.846 167.778 84.6872V83.8437C167.778 82.6848 166.819 81.7255 165.658 81.7255H114.79Z" fill="#545454"/>
<path id="Fill 198" fill-rule="evenodd" clip-rule="evenodd" d="M114.79 99.2925H154.639C157.162 99.2925 159.227 97.2285 159.227 94.7054V93.8617C159.227 91.3388 157.162 89.2746 154.639 89.2746H114.79C112.266 89.2746 110.201 91.3388 110.201 93.8617V94.7054C110.201 97.2285 112.266 99.2925 114.79 99.2925Z" fill="white"/>
<path id="Stroke 200 (Stroke)" fill-rule="evenodd" clip-rule="evenodd" d="M107.732 93.8616C107.732 89.9745 110.903 86.8054 114.79 86.8054H154.639C158.525 86.8054 161.696 89.9744 161.696 93.8616V94.7054C161.696 98.593 158.525 101.762 154.639 101.762H114.79C110.903 101.762 107.732 98.5929 107.732 94.7054V93.8616ZM114.79 91.7437C113.629 91.7437 112.67 92.7031 112.67 93.8616V94.7054C112.67 95.8642 113.629 96.8234 114.79 96.8234H154.639C155.799 96.8234 156.758 95.8641 156.758 94.7054V93.8616C156.758 92.7031 155.799 91.7437 154.639 91.7437H114.79Z" fill="#545454"/>
<path id="Fill 202" fill-rule="evenodd" clip-rule="evenodd" d="M108.881 142.174C120.435 112.653 151.083 101.818 151.246 78.4267C151.376 59.765 127.324 46.725 108.881 65.1638H108.904C90.4603 46.725 66.4082 59.765 66.5386 78.4267C66.7016 101.818 97.3495 112.653 108.904 142.174H108.881Z" fill="#F498B0"/>
</g>
<g id="Group 207">
<mask id="mask2_4652_16135" style="mask-type:luminance" maskUnits="userSpaceOnUse" x="66" y="56" width="86" height="87">
<path id="Clip 206" fill-rule="evenodd" clip-rule="evenodd" d="M108.892 65.1525C90.4505 46.7286 66.4085 59.7683 66.5386 78.4268C66.7013 101.811 97.33 112.645 108.892 142.145C120.454 112.645 151.083 101.811 151.246 78.4268C151.332 66.1195 140.899 56.2575 128.495 56.2568C122.094 56.2565 115.169 58.8811 108.892 65.1525ZM108.881 142.174H108.904C108.9 142.165 108.896 142.154 108.892 142.145C108.888 142.154 108.884 142.165 108.881 142.174Z" fill="white"/>
</mask>
<g mask="url(#mask2_4652_16135)">
<path id="Fill 205" fill-rule="evenodd" clip-rule="evenodd" d="M104.827 134.003C109.991 125.122 120.835 111.637 126.982 105.389C135.674 96.5542 161.37 71.3012 129.271 56.2429L155.197 61.4269L162.852 81.1755L136.185 151.777L104.827 147.827V134.003Z" fill="#C16F88"/>
</g>
</g>
<g id="Group 246">
<path id="Stroke 208 (Stroke)" fill-rule="evenodd" clip-rule="evenodd" d="M108.892 61.7633C128.564 44.3512 153.857 58.0223 153.715 78.4438C153.625 91.2775 145.121 100.513 136.099 109.729C135.504 110.337 134.906 110.946 134.305 111.557C125.657 120.352 116.52 129.646 111.299 142.772C111.229 143.052 111.11 143.321 110.943 143.565C110.483 144.239 109.72 144.643 108.903 144.643H108.881C108.065 144.643 107.301 144.239 106.841 143.565C106.674 143.321 106.555 143.052 106.485 142.772C101.265 129.646 92.1273 120.352 83.4795 111.557C82.8785 110.946 82.2798 110.337 81.6849 109.729C72.663 100.513 64.1589 91.2775 64.0694 78.4439L66.5385 78.4267L64.0694 78.4439C63.9268 58.0222 89.2198 44.3513 108.892 61.7633ZM106.953 66.707C107.414 67.2827 108.119 67.6329 108.881 67.6329H108.903C109.665 67.6329 110.37 67.2827 110.831 66.707C127.796 50.0122 148.89 62.1865 148.777 78.4095C148.703 88.9673 141.802 96.8448 132.571 106.274C131.949 106.909 131.319 107.549 130.682 108.197C123.142 115.856 114.643 124.491 108.892 136.064C103.142 124.491 94.6418 115.856 87.1024 108.197C86.4653 107.549 85.8349 106.909 85.2137 106.274C75.9824 96.8448 69.0812 88.9673 69.0076 78.4095L69.0076 78.4094C68.8943 62.1866 89.9878 50.0121 106.953 66.707Z" fill="#545454"/>
<g id="Group 213">
<path id="Fill 210" fill-rule="evenodd" clip-rule="evenodd" d="M75.1133 98.9355L98.7587 98.8244L105.255 82.829L111.491 110.885L119.286 98.9355H142.672" fill="#F498B0"/>
<path id="Stroke 212 (Stroke)" fill-rule="evenodd" clip-rule="evenodd" d="M105.461 80.3685C106.537 80.4587 107.431 81.2385 107.665 82.2933L112.628 104.623L117.218 97.5864C117.674 96.8877 118.452 96.4663 119.286 96.4663H142.672V101.405H120.623L113.559 112.234C113.016 113.067 112.027 113.492 111.049 113.315C110.072 113.137 109.296 112.391 109.08 111.421L104.563 91.0952L101.046 99.7535C100.67 100.681 99.7709 101.289 98.7702 101.294L75.1248 101.405L75.1016 96.4664L97.0932 96.3631L102.967 81.9C103.374 80.8988 104.384 80.2784 105.461 80.3685Z" fill="#545454"/>
</g>
<path id="Stroke 214 (Stroke)" fill-rule="evenodd" clip-rule="evenodd" d="M89.0241 69.5737C86.3165 69.5737 83.9009 70.816 82.3123 72.7706C81.4522 73.8288 79.8971 73.9894 78.8389 73.1293C77.7807 72.2692 77.62 70.7141 78.4801 69.6559C80.9661 66.5973 84.7668 64.6354 89.0241 64.6354C90.3878 64.6354 91.4933 65.7409 91.4933 67.1045C91.4933 68.4682 90.3878 69.5737 89.0241 69.5737Z" fill="white"/>
<path id="Stroke 216 (Stroke)" fill-rule="evenodd" clip-rule="evenodd" d="M78.1099 74.9689C79.4703 75.0626 80.4972 76.2415 80.4034 77.6019C80.3895 77.804 80.3824 78.0081 80.3824 78.2132C80.3824 79.5769 79.2769 80.6824 77.9132 80.6824C76.5496 80.6824 75.4441 79.5769 75.4441 78.2132C75.4441 77.8936 75.4552 77.5763 75.4768 77.2624C75.5706 75.902 76.7495 74.8751 78.1099 74.9689Z" fill="white"/>
<path id="Fill 218" fill-rule="evenodd" clip-rule="evenodd" d="M127.296 169.797C127.296 159.436 118.894 151.036 108.53 151.036C98.1664 151.036 89.7649 159.436 89.7649 169.797C89.7649 180.159 98.1664 188.558 108.53 188.558C118.894 188.558 127.296 180.159 127.296 169.797Z" fill="#D54263"/>
<path id="Stroke 220 (Stroke)" fill-rule="evenodd" clip-rule="evenodd" d="M87.7896 169.797C87.7896 158.344 97.0758 149.061 108.53 149.061C119.985 149.061 129.271 158.344 129.271 169.797C129.271 181.25 119.985 190.534 108.53 190.534C97.0758 190.534 87.7896 181.25 87.7896 169.797ZM108.53 153.011C99.2568 153.011 91.7402 160.527 91.7402 169.797C91.7402 179.067 99.2568 186.583 108.53 186.583C117.804 186.583 125.32 179.067 125.32 169.797C125.32 160.527 117.804 153.011 108.53 153.011Z" fill="#545454"/>
<g id="Group 225">
<path id="Fill 222" fill-rule="evenodd" clip-rule="evenodd" d="M105.085 164.283V178.75H111.976V173.205V164.283" fill="#FCE6EC"/>
<path id="Stroke 224 (Stroke)" fill-rule="evenodd" clip-rule="evenodd" d="M104.097 164.283H106.073V177.762H110.988V164.283H112.963V179.738H104.097V164.283Z" fill="#545454"/>
</g>
<path id="Fill 226" fill-rule="evenodd" clip-rule="evenodd" d="M108.53 159.117L105.085 164.283H111.976L108.53 159.117Z" fill="#FCE6EC"/>
<path id="Stroke 228 (Stroke)" fill-rule="evenodd" clip-rule="evenodd" d="M108.531 158.129C108.861 158.129 109.169 158.294 109.352 158.569L112.797 163.735C112.999 164.038 113.018 164.428 112.846 164.749C112.675 165.07 112.34 165.271 111.976 165.271H105.085C104.721 165.271 104.386 165.07 104.214 164.749C104.042 164.428 104.061 164.038 104.263 163.735L107.709 158.569C107.892 158.294 108.2 158.129 108.531 158.129ZM106.931 163.296H110.13L108.53 160.897L106.931 163.296Z" fill="#545454"/>
<path id="Fill 230" fill-rule="evenodd" clip-rule="evenodd" d="M115.938 178.647H112.01V171.482L115.938 178.647Z" fill="#FCE6EC"/>
<path id="Stroke 232 (Stroke)" fill-rule="evenodd" clip-rule="evenodd" d="M111.765 170.526C112.202 170.414 112.659 170.612 112.876 171.008L116.804 178.172C116.972 178.478 116.965 178.85 116.788 179.15C116.61 179.45 116.287 179.635 115.938 179.635H112.01C111.465 179.635 111.022 179.192 111.022 178.647V171.482C111.022 171.031 111.328 170.638 111.765 170.526ZM112.998 175.339V177.659H114.27L112.998 175.339Z" fill="#545454"/>
<path id="Fill 234" fill-rule="evenodd" clip-rule="evenodd" d="M115.938 178.716H112.01V171.551L115.938 178.716Z" fill="#FCE6EC"/>
<path id="Stroke 236 (Stroke)" fill-rule="evenodd" clip-rule="evenodd" d="M111.765 170.595C112.202 170.483 112.659 170.681 112.876 171.077L116.804 178.241C116.972 178.547 116.965 178.919 116.788 179.219C116.61 179.519 116.287 179.703 115.938 179.703H112.01C111.465 179.703 111.022 179.261 111.022 178.716V171.551C111.022 171.1 111.328 170.707 111.765 170.595ZM112.998 175.407V177.728H114.27L112.998 175.407Z" fill="#545454"/>
<path id="Fill 238" fill-rule="evenodd" clip-rule="evenodd" d="M115.938 178.716H112.01V171.551L115.938 178.716Z" fill="#FCE6EC"/>
<path id="Stroke 240 (Stroke)" fill-rule="evenodd" clip-rule="evenodd" d="M111.765 170.595C112.202 170.483 112.659 170.681 112.876 171.077L116.804 178.241C116.972 178.547 116.965 178.919 116.788 179.219C116.61 179.519 116.287 179.703 115.938 179.703H112.01C111.465 179.703 111.022 179.261 111.022 178.716V171.551C111.022 171.1 111.328 170.707 111.765 170.595ZM112.998 175.407V177.728H114.27L112.998 175.407Z" fill="#545454"/>
<path id="Fill 242" fill-rule="evenodd" clip-rule="evenodd" d="M101.123 178.716H105.05V171.551L101.123 178.716Z" fill="#FCE6EC"/>
<path id="Stroke 244 (Stroke)" fill-rule="evenodd" clip-rule="evenodd" d="M105.295 170.595C105.732 170.707 106.038 171.1 106.038 171.551V178.716C106.038 179.261 105.596 179.703 105.05 179.703H101.123C100.774 179.703 100.451 179.519 100.273 179.219C100.095 178.919 100.089 178.547 100.257 178.241L104.184 171.077C104.401 170.681 104.858 170.483 105.295 170.595ZM102.791 177.728H104.063V175.408L102.791 177.728Z" fill="#545454"/>
</g>
</g>
</g>
</svg>
