<svg width="216" height="216" viewBox="0 0 216 216" fill="none" xmlns="http://www.w3.org/2000/svg">
<rect width="216" height="216" fill="#F5F5F5"/>
<g id="World">
<g id="Group">
<path id="Fill 2" fill-rule="evenodd" clip-rule="evenodd" d="M163.961 215.96C161.607 215.96 159.387 215.036 157.71 213.359L127.852 183.508C126.451 185.481 124.751 187.245 122.814 188.709C118.673 191.84 113.734 193.496 108.531 193.496C100.343 193.496 92.9903 189.352 88.7108 182.822L58.2616 213.264C56.5843 214.941 54.3646 215.864 52.011 215.864C47.7298 215.864 44.0552 212.817 43.274 208.617L38.8787 184.992L15.2483 180.598C12.0026 179.994 9.37866 177.661 8.40064 174.508C7.42261 171.356 8.26533 167.947 10.5996 165.613L37.4014 138.818C32.5192 132.133 28.6315 124.827 25.8194 117.044C22.3868 107.543 20.6466 97.5597 20.6466 87.3716C20.6466 75.5788 22.9577 64.1357 27.5162 53.3611C31.9182 42.9566 38.2187 33.6131 46.2429 25.5907C54.2671 17.5678 63.6125 11.2688 74.0196 6.86806C84.7969 2.31034 96.2424 0 108.038 0C119.833 0 131.279 2.31034 142.056 6.86806C152.463 11.2688 161.809 17.5678 169.833 25.5907C177.857 33.6131 184.158 42.9566 188.56 53.3611C193.118 64.1357 195.429 75.5788 195.429 87.3716C195.429 97.5863 193.68 107.594 190.231 117.116C187.404 124.918 183.497 132.238 178.591 138.933L205.372 165.709C207.708 168.044 208.55 171.453 207.57 174.607C206.591 177.76 203.965 180.093 200.717 180.694L177.076 185.071L172.699 208.705C171.921 212.909 168.246 215.96 163.961 215.96H163.961Z" fill="white"/>
<g id="Group 8">
<path id="Fill 4" fill-rule="evenodd" clip-rule="evenodd" d="M201.88 169.2L172.028 139.354C183.569 125.171 190.491 107.08 190.491 87.3714C190.491 41.8443 153.575 4.93717 108.038 4.93717C62.5003 4.93717 25.5848 41.8443 25.5848 87.3714C25.5848 107.029 32.4714 125.077 43.9588 139.244L14.0917 169.104C11.8556 171.34 13.0425 175.165 16.1512 175.744L40.4628 180.264C42.0603 180.561 43.31 181.811 43.6072 183.408L48.129 207.714C48.707 210.822 52.5337 212.009 54.7697 209.773L95.67 168.882C99.7045 169.489 103.834 169.806 108.038 169.806C112.181 169.806 116.252 169.497 120.231 168.907L161.202 209.868C163.439 212.105 167.267 210.916 167.844 207.806L172.347 183.489C172.643 181.89 173.895 180.638 175.495 180.342L199.818 175.839C202.928 175.263 204.117 171.436 201.88 169.2Z" fill="#FEF2E0"/>
<path id="Fill 6" fill-rule="evenodd" clip-rule="evenodd" d="M64.482 118.725L14.0917 169.104C11.8556 171.34 13.0425 175.165 16.1514 175.744L40.463 180.264C42.0603 180.561 43.3099 181.811 43.6072 183.408L48.129 207.714C48.707 210.822 52.5339 212.009 54.7697 209.773L105.16 159.394C106.694 157.86 106.694 155.373 105.16 153.839L70.0383 118.725C68.504 117.191 66.0164 117.191 64.482 118.725Z" fill="#F28602"/>
</g>
<g id="Group 11">
<mask id="mask0_4652_16135" style="mask-type:luminance" maskUnits="userSpaceOnUse" x="12" y="117" width="95" height="94">
<path id="Clip 10" fill-rule="evenodd" clip-rule="evenodd" d="M64.482 118.725L14.0917 169.104C11.8556 171.34 13.0425 175.165 16.1514 175.744L40.463 180.264C42.0603 180.561 43.3102 181.811 43.6072 183.408L48.129 207.714C48.707 210.822 52.5339 212.009 54.7697 209.773L105.16 159.394C106.695 157.86 106.695 155.373 105.16 153.839L70.0383 118.725C69.2712 117.958 68.2657 117.575 67.2603 117.575C66.2546 117.575 65.2492 117.958 64.482 118.725Z" fill="white"/>
</mask>
<g mask="url(#mask0_4652_16135)">
<path id="Fill 9" fill-rule="evenodd" clip-rule="evenodd" d="M36.2693 199.014L25.5762 188.323L94.2641 119.651L104.957 130.342L36.2693 199.014Z" fill="#FEF2E0"/>
</g>
</g>
<path id="Fill 12" fill-rule="evenodd" clip-rule="evenodd" d="M151.395 118.725L201.881 169.2C204.117 171.436 202.928 175.263 199.818 175.839L175.495 180.342C173.895 180.638 172.644 181.89 172.347 183.489L167.844 207.806C167.268 210.916 163.439 212.105 161.202 209.868L110.717 159.394C109.182 157.86 109.182 155.373 110.717 153.839L145.838 118.725C147.373 117.191 149.86 117.191 151.395 118.725Z" fill="#F28602"/>
<g id="Group 16">
<mask id="mask1_4652_16135" style="mask-type:luminance" maskUnits="userSpaceOnUse" x="109" y="117" width="95" height="95">
<path id="Clip 15" fill-rule="evenodd" clip-rule="evenodd" d="M145.838 118.725L110.717 153.839C109.182 155.373 109.182 157.86 110.717 159.394L161.202 209.868C163.439 212.105 167.268 210.916 167.844 207.806L172.347 183.489C172.644 181.89 173.895 180.638 175.495 180.342L199.818 175.84C202.928 175.264 204.117 171.436 201.88 169.2L151.395 118.725C150.628 117.958 149.622 117.575 148.616 117.575C147.611 117.575 146.606 117.958 145.838 118.725Z" fill="white"/>
</mask>
<g mask="url(#mask1_4652_16135)">
<path id="Fill 14" fill-rule="evenodd" clip-rule="evenodd" d="M190.502 188.581L179.809 199.272L111.121 130.599L121.814 119.909L190.502 188.581Z" fill="#FEF2E0"/>
</g>
</g>
<g id="Group 23">
<path id="Fill 17" fill-rule="evenodd" clip-rule="evenodd" d="M190.491 87.3713C190.491 41.8442 153.576 4.93704 108.038 4.93704C62.5005 4.93704 25.5847 41.8442 25.5847 87.3713C25.5847 132.899 62.5005 169.806 108.038 169.806C153.576 169.806 190.491 132.899 190.491 87.3713Z" fill="#FEF2E0"/>
<path id="Stroke 19 (Stroke)" fill-rule="evenodd" clip-rule="evenodd" d="M23.1155 87.3713C23.1155 40.48 61.1373 2.46791 108.038 2.46791C154.939 2.46791 192.96 40.48 192.96 87.3713C192.96 134.263 154.939 172.275 108.038 172.275C61.1373 172.275 23.1155 134.263 23.1155 87.3713ZM108.038 7.40618C63.8635 7.40618 28.0538 43.2084 28.0538 87.3713C28.0538 131.534 63.8635 167.337 108.038 167.337C152.212 167.337 188.022 131.534 188.022 87.3713C188.022 43.2084 152.212 7.40618 108.038 7.40618Z" fill="#545454"/>
<path id="Fill 21" fill-rule="evenodd" clip-rule="evenodd" d="M156.185 87.8472C156.185 61.2631 134.629 39.7122 108.039 39.7122C81.4484 39.7122 59.8928 61.2631 59.8928 87.8472C59.8928 114.431 81.4484 135.982 108.039 135.982C134.629 135.982 156.185 114.431 156.185 87.8472Z" fill="#94EBFF"/>
</g>
<g id="Group 114">
<g id="Group 26">
<mask id="mask2_4652_16135" style="mask-type:luminance" maskUnits="userSpaceOnUse" x="59" y="39" width="98" height="97">
<path id="Clip 25" fill-rule="evenodd" clip-rule="evenodd" d="M59.8926 87.8471C59.8926 114.431 81.4484 135.982 108.039 135.982C134.629 135.982 156.185 114.431 156.185 87.8471C156.185 61.263 134.629 39.7122 108.039 39.7122C81.4484 39.7122 59.8926 61.263 59.8926 87.8471Z" fill="white"/>
</mask>
<g mask="url(#mask2_4652_16135)">
<path id="Fill 24" fill-rule="evenodd" clip-rule="evenodd" d="M85.9442 57.8615H36.9985C35.265 57.8615 33.8467 56.4435 33.8467 54.7104V52.5955C33.8467 50.8624 35.265 49.4444 36.9985 49.4444H85.9442C87.6778 49.4444 89.0961 50.8624 89.0961 52.5955V54.7104C89.0961 56.4435 87.6778 57.8615 85.9442 57.8615Z" fill="#67F4C8"/>
</g>
</g>
<g id="Group 29">
<mask id="mask3_4652_16135" style="mask-type:luminance" maskUnits="userSpaceOnUse" x="59" y="39" width="98" height="97">
<path id="Clip 28" fill-rule="evenodd" clip-rule="evenodd" d="M59.8926 87.8471C59.8926 114.431 81.4484 135.982 108.039 135.982C134.629 135.982 156.185 114.431 156.185 87.8471C156.185 61.263 134.629 39.7122 108.039 39.7122C81.4484 39.7122 59.8926 61.263 59.8926 87.8471Z" fill="white"/>
</mask>
<g mask="url(#mask3_4652_16135)">
<path id="Fill 27" fill-rule="evenodd" clip-rule="evenodd" d="M83.3134 53.6529H34.3677C32.6341 53.6529 31.2158 52.2349 31.2158 50.5017V48.3872C31.2158 46.6537 32.6341 45.2358 34.3677 45.2358H83.3134C85.0469 45.2358 86.4652 46.6537 86.4652 48.3872V50.5017C86.4652 52.2349 85.0469 53.6529 83.3134 53.6529Z" fill="#67F4C8"/>
</g>
</g>
<g id="Group 32">
<mask id="mask4_4652_16135" style="mask-type:luminance" maskUnits="userSpaceOnUse" x="59" y="39" width="98" height="97">
<path id="Clip 31" fill-rule="evenodd" clip-rule="evenodd" d="M59.8926 87.8471C59.8926 114.431 81.4484 135.982 108.039 135.982C134.629 135.982 156.185 114.431 156.185 87.8471C156.185 61.263 134.629 39.7122 108.039 39.7122C81.4484 39.7122 59.8926 61.263 59.8926 87.8471Z" fill="white"/>
</mask>
<g mask="url(#mask4_4652_16135)">
<path id="Fill 30" fill-rule="evenodd" clip-rule="evenodd" d="M87.2595 69.9611H59.8874C58.1539 69.9611 56.7356 68.5429 56.7356 66.8097V64.6952C56.7356 62.962 58.1539 61.5438 59.8874 61.5438H87.2595C88.9931 61.5438 90.4114 62.962 90.4114 64.6952V66.8097C90.4114 68.5429 88.9931 69.9611 87.2595 69.9611Z" fill="#67F4C8"/>
</g>
</g>
<g id="Group 35">
<mask id="mask5_4652_16135" style="mask-type:luminance" maskUnits="userSpaceOnUse" x="59" y="39" width="98" height="97">
<path id="Clip 34" fill-rule="evenodd" clip-rule="evenodd" d="M59.8926 87.8471C59.8926 114.431 81.4484 135.982 108.039 135.982C134.629 135.982 156.185 114.431 156.185 87.8471C156.185 61.263 134.629 39.7122 108.039 39.7122C81.4484 39.7122 59.8926 61.263 59.8926 87.8471Z" fill="white"/>
</mask>
<g mask="url(#mask5_4652_16135)">
<path id="Fill 33" fill-rule="evenodd" clip-rule="evenodd" d="M77.5252 87.0581H50.1531C48.4195 87.0581 47.001 85.6402 47.001 83.907V81.7922C47.001 80.059 48.4195 78.641 50.1531 78.641H77.5252C79.2588 78.641 80.677 80.059 80.677 81.7922V83.907C80.677 85.6402 79.2588 87.0581 77.5252 87.0581Z" fill="#67F4C8"/>
</g>
</g>
<g id="Group 38">
<mask id="mask6_4652_16135" style="mask-type:luminance" maskUnits="userSpaceOnUse" x="59" y="39" width="98" height="97">
<path id="Clip 37" fill-rule="evenodd" clip-rule="evenodd" d="M59.8926 87.8471C59.8926 114.431 81.4484 135.982 108.039 135.982C134.629 135.982 156.185 114.431 156.185 87.8471C156.185 61.263 134.629 39.7122 108.039 39.7122C81.4484 39.7122 59.8926 61.263 59.8926 87.8471Z" fill="white"/>
</mask>
<g mask="url(#mask6_4652_16135)">
<path id="Fill 36" fill-rule="evenodd" clip-rule="evenodd" d="M65.6861 82.3235H38.314C36.5804 82.3235 35.1621 80.9056 35.1621 79.1724V77.0575C35.1621 75.3244 36.5804 73.9064 38.314 73.9064H65.6861C67.4196 73.9064 68.8379 75.3244 68.8379 77.0575V79.1724C68.8379 80.9056 67.4196 82.3235 65.6861 82.3235Z" fill="#67F4C8"/>
</g>
</g>
<g id="Group 41">
<mask id="mask7_4652_16135" style="mask-type:luminance" maskUnits="userSpaceOnUse" x="59" y="39" width="98" height="97">
<path id="Clip 40" fill-rule="evenodd" clip-rule="evenodd" d="M59.8926 87.8471C59.8926 114.431 81.4484 135.982 108.039 135.982C134.629 135.982 156.185 114.431 156.185 87.8471C156.185 61.263 134.629 39.7122 108.039 39.7122C81.4484 39.7122 59.8926 61.263 59.8926 87.8471Z" fill="white"/>
</mask>
<g mask="url(#mask7_4652_16135)">
<path id="Fill 39" fill-rule="evenodd" clip-rule="evenodd" d="M100.54 49.9705H63.9803C60.6719 49.9705 57.965 52.3443 57.965 55.2456V64.8175C57.965 65.2297 58.0253 65.6299 58.1287 66.0155H44.3344C41.026 66.0155 38.3191 68.3893 38.3191 71.2906V78.8896C38.3191 81.7909 41.026 84.1649 44.3344 84.1649H54.8156V96.513C54.8156 96.9724 54.8907 97.4164 55.0181 97.8425H46.1176C43.4781 97.8425 41.3186 99.7364 41.3186 102.051C41.3186 104.366 43.4781 106.259 46.1176 106.259H74.9117C77.5512 106.259 79.7107 104.366 79.7107 102.051C79.7107 101.962 79.7016 101.875 79.6954 101.788H93.7912C97.0996 101.788 99.8065 99.4143 99.8065 96.513V83.9161C99.8065 81.015 97.0996 78.6412 93.7912 78.6412H86.909V71.2906C86.909 70.8781 86.8487 70.4782 86.7455 70.0926H100.54C103.848 70.0926 106.555 67.7185 106.555 64.8175V55.2456C106.555 52.3443 103.848 49.9705 100.54 49.9705Z" fill="#8AFFCF"/>
</g>
</g>
<g id="Group 44">
<mask id="mask8_4652_16135" style="mask-type:luminance" maskUnits="userSpaceOnUse" x="59" y="39" width="98" height="97">
<path id="Clip 43" fill-rule="evenodd" clip-rule="evenodd" d="M59.8926 87.8471C59.8926 114.431 81.4484 135.982 108.039 135.982C134.629 135.982 156.185 114.431 156.185 87.8471C156.185 61.263 134.629 39.7122 108.039 39.7122C81.4484 39.7122 59.8926 61.263 59.8926 87.8471Z" fill="white"/>
</mask>
<g mask="url(#mask8_4652_16135)">
<path id="Fill 42" fill-rule="evenodd" clip-rule="evenodd" d="M207.872 86.2527H186.561C186.561 86.2478 186.562 86.2433 186.562 86.2384V80.4805C186.562 79.4076 186.236 78.4081 185.68 77.5727H189.982C192.297 77.5727 194.192 75.6789 194.192 73.3643C194.192 71.0495 192.297 69.1556 189.982 69.1556H187.601C187.606 69.0683 187.614 68.9814 187.614 68.8927C187.614 66.578 185.72 64.6841 183.405 64.6841H178.823C178.894 64.3392 178.932 63.9828 178.932 63.6177V56.8076C178.932 56.4425 178.894 56.0858 178.823 55.7409H180.248C182.563 55.7409 184.457 53.8473 184.457 51.5328C184.457 49.218 182.563 47.3241 180.248 47.3241H133.417C131.102 47.3241 129.208 49.218 129.208 51.5328H128.959C126.057 51.5328 123.683 53.9063 123.683 56.8076V63.6177C123.683 66.519 126.057 68.8927 128.959 68.8927H132.365C132.365 71.2075 134.259 73.1014 136.574 73.1014H138.956C138.95 73.1886 138.942 73.2754 138.942 73.3643C138.942 75.6789 140.836 77.5727 143.152 77.5727H144.823C144.267 78.4081 143.941 79.4076 143.941 80.4805V86.2384C143.941 89.1397 146.315 91.5135 149.217 91.5135H156.972C157.443 93.3225 159.091 94.6701 161.042 94.6701H207.872C210.188 94.6701 212.082 92.7762 212.082 90.4614C212.082 88.1466 210.188 86.2527 207.872 86.2527Z" fill="#8AFFCF"/>
</g>
</g>
<g id="Group 47">
<mask id="mask9_4652_16135" style="mask-type:luminance" maskUnits="userSpaceOnUse" x="59" y="39" width="98" height="97">
<path id="Clip 46" fill-rule="evenodd" clip-rule="evenodd" d="M59.8926 87.8471C59.8926 114.431 81.4484 135.982 108.039 135.982C134.629 135.982 156.185 114.431 156.185 87.8471C156.185 61.263 134.629 39.7122 108.039 39.7122C81.4484 39.7122 59.8926 61.263 59.8926 87.8471Z" fill="white"/>
</mask>
<g mask="url(#mask9_4652_16135)">
<path id="Fill 45" fill-rule="evenodd" clip-rule="evenodd" d="M166.971 122.304H162.389C162.461 121.96 162.499 121.603 162.499 121.238V114.428C162.499 114.063 162.461 113.706 162.389 113.361H163.814C166.13 113.361 168.024 111.468 168.024 109.153C168.024 106.838 166.13 104.944 163.814 104.944H157.022C157.16 104.53 157.237 104.088 157.237 103.629C157.237 101.314 155.343 99.4206 153.028 99.4206H130.928C128.612 99.4206 126.718 101.314 126.718 103.629C126.718 104.088 126.795 104.53 126.933 104.944H116.984C114.669 104.944 112.774 106.838 112.774 109.153H112.526C109.624 109.153 107.249 111.527 107.249 114.428V121.238C107.249 124.139 109.624 126.513 112.526 126.513H115.931C115.931 128.828 117.826 130.722 120.141 130.722H166.971C169.287 130.722 171.181 128.828 171.181 126.513C171.181 124.198 169.287 122.304 166.971 122.304Z" fill="#8AFFCF"/>
</g>
</g>
<g id="Group 50">
<mask id="mask10_4652_16135" style="mask-type:luminance" maskUnits="userSpaceOnUse" x="59" y="39" width="98" height="97">
<path id="Clip 49" fill-rule="evenodd" clip-rule="evenodd" d="M59.8926 87.8471C59.8926 114.431 81.4484 135.982 108.039 135.982C134.629 135.982 156.185 114.431 156.185 87.8471C156.185 61.263 134.629 39.7122 108.039 39.7122C81.4484 39.7122 59.8926 61.263 59.8926 87.8471Z" fill="white"/>
</mask>
<g mask="url(#mask10_4652_16135)">
<path id="Fill 48" fill-rule="evenodd" clip-rule="evenodd" d="M184.078 140.98H135.132C133.398 140.98 131.98 139.562 131.98 137.829V135.714C131.98 133.981 133.398 132.563 135.132 132.563H184.078C185.811 132.563 187.23 133.981 187.23 135.714V137.829C187.23 139.562 185.811 140.98 184.078 140.98Z" fill="#67F4C8"/>
</g>
</g>
<g id="Group 59">
<mask id="mask11_4652_16135" style="mask-type:luminance" maskUnits="userSpaceOnUse" x="59" y="39" width="98" height="97">
<path id="Clip 58" fill-rule="evenodd" clip-rule="evenodd" d="M59.8926 87.8471C59.8926 114.431 81.4484 135.982 108.039 135.982C134.629 135.982 156.185 114.431 156.185 87.8471C156.185 61.263 134.629 39.7122 108.039 39.7122C81.4484 39.7122 59.8926 61.263 59.8926 87.8471Z" fill="white"/>
</mask>
<g mask="url(#mask11_4652_16135)">
<path id="Fill 57" fill-rule="evenodd" clip-rule="evenodd" d="M112.909 100.122H96.3278C95.2443 100.122 94.3579 99.2353 94.3579 98.1521V96.8305C94.3579 95.7472 95.2443 94.861 96.3278 94.861H112.909C113.993 94.861 114.879 95.7472 114.879 96.8305V98.1521C114.879 99.2353 113.993 100.122 112.909 100.122Z" fill="white"/>
</g>
</g>
<g id="Group 62">
<mask id="mask12_4652_16135" style="mask-type:luminance" maskUnits="userSpaceOnUse" x="59" y="39" width="98" height="97">
<path id="Clip 61" fill-rule="evenodd" clip-rule="evenodd" d="M59.8926 87.8471C59.8926 114.431 81.4484 135.982 108.039 135.982C134.629 135.982 156.185 114.431 156.185 87.8471C156.185 61.263 134.629 39.7122 108.039 39.7122C81.4484 39.7122 59.8926 61.263 59.8926 87.8471Z" fill="white"/>
</mask>
<g mask="url(#mask12_4652_16135)">
<path id="Fill 60" fill-rule="evenodd" clip-rule="evenodd" d="M160.003 100.122H120.006C118.923 100.122 118.036 99.2353 118.036 98.1521V96.8305C118.036 95.7472 118.923 94.861 120.006 94.861H160.003C161.086 94.861 161.973 95.7472 161.973 96.8305V98.1521C161.973 99.2353 161.086 100.122 160.003 100.122Z" fill="white"/>
</g>
</g>
<g id="Group 65">
<mask id="mask13_4652_16135" style="mask-type:luminance" maskUnits="userSpaceOnUse" x="59" y="39" width="98" height="97">
<path id="Clip 64" fill-rule="evenodd" clip-rule="evenodd" d="M59.8926 87.8471C59.8926 114.431 81.4484 135.982 108.039 135.982C134.629 135.982 156.185 114.431 156.185 87.8471C156.185 61.263 134.629 39.7122 108.039 39.7122C81.4484 39.7122 59.8926 61.263 59.8926 87.8471Z" fill="white"/>
</mask>
<g mask="url(#mask13_4652_16135)">
<path id="Fill 63" fill-rule="evenodd" clip-rule="evenodd" d="M89.2975 100.451H87.9755C86.892 100.451 86.0054 99.5651 86.0054 98.4819V97.1602C86.0054 96.077 86.892 95.1906 87.9755 95.1906H89.2975C90.3809 95.1906 91.2673 96.077 91.2673 97.1602V98.4819C91.2673 99.5651 90.3809 100.451 89.2975 100.451Z" fill="white"/>
</g>
</g>
<g id="Group 68">
<mask id="mask14_4652_16135" style="mask-type:luminance" maskUnits="userSpaceOnUse" x="59" y="39" width="98" height="97">
<path id="Clip 67" fill-rule="evenodd" clip-rule="evenodd" d="M59.8926 87.8471C59.8926 114.431 81.4484 135.982 108.039 135.982C134.629 135.982 156.185 114.431 156.185 87.8471C156.185 61.263 134.629 39.7122 108.039 39.7122C81.4484 39.7122 59.8926 61.263 59.8926 87.8471Z" fill="white"/>
</mask>
<g mask="url(#mask14_4652_16135)">
<path id="Fill 66" fill-rule="evenodd" clip-rule="evenodd" d="M115.349 61.5422H114.027C112.944 61.5422 112.057 60.656 112.057 59.5725V58.2511C112.057 57.1676 112.944 56.2814 114.027 56.2814H115.349C116.433 56.2814 117.319 57.1676 117.319 58.2511V59.5725C117.319 60.656 116.433 61.5422 115.349 61.5422Z" fill="white"/>
</g>
</g>
<g id="Group 71">
<mask id="mask15_4652_16135" style="mask-type:luminance" maskUnits="userSpaceOnUse" x="59" y="39" width="98" height="97">
<path id="Clip 70" fill-rule="evenodd" clip-rule="evenodd" d="M59.8926 87.8471C59.8926 114.431 81.4484 135.982 108.039 135.982C134.629 135.982 156.185 114.431 156.185 87.8471C156.185 61.263 134.629 39.7122 108.039 39.7122C81.4484 39.7122 59.8926 61.263 59.8926 87.8471Z" fill="white"/>
</mask>
<g mask="url(#mask15_4652_16135)">
<path id="Fill 69" fill-rule="evenodd" clip-rule="evenodd" d="M139.752 114.622H138.43C137.346 114.622 136.46 113.736 136.46 112.653V111.331C136.46 110.248 137.346 109.362 138.43 109.362H139.752C140.835 109.362 141.722 110.248 141.722 111.331V112.653C141.722 113.736 140.835 114.622 139.752 114.622Z" fill="white"/>
</g>
</g>
<g id="Group 74">
<mask id="mask16_4652_16135" style="mask-type:luminance" maskUnits="userSpaceOnUse" x="59" y="39" width="98" height="97">
<path id="Clip 73" fill-rule="evenodd" clip-rule="evenodd" d="M59.8926 87.8471C59.8926 114.431 81.4484 135.982 108.039 135.982C134.629 135.982 156.185 114.431 156.185 87.8471C156.185 61.263 134.629 39.7122 108.039 39.7122C81.4484 39.7122 59.8926 61.263 59.8926 87.8471Z" fill="white"/>
</mask>
<g mask="url(#mask16_4652_16135)">
<path id="Fill 72" fill-rule="evenodd" clip-rule="evenodd" d="M139.831 74.5434H129.477C128.394 74.5434 127.508 73.6572 127.508 72.574V71.2523C127.508 70.1691 128.394 69.2826 129.477 69.2826H139.831C140.914 69.2826 141.801 70.1691 141.801 71.2523V72.574C141.801 73.6572 140.914 74.5434 139.831 74.5434Z" fill="white"/>
</g>
</g>
<g id="Group 77">
<mask id="mask17_4652_16135" style="mask-type:luminance" maskUnits="userSpaceOnUse" x="59" y="39" width="98" height="97">
<path id="Clip 76" fill-rule="evenodd" clip-rule="evenodd" d="M59.8926 87.8471C59.8926 114.431 81.4484 135.982 108.039 135.982C134.629 135.982 156.185 114.431 156.185 87.8471C156.185 61.263 134.629 39.7122 108.039 39.7122C81.4484 39.7122 59.8926 61.263 59.8926 87.8471Z" fill="white"/>
</mask>
<g mask="url(#mask17_4652_16135)">
<path id="Fill 75" fill-rule="evenodd" clip-rule="evenodd" d="M172.631 74.5434H145.969C144.886 74.5434 143.999 73.6572 143.999 72.574V71.2523C143.999 70.1691 144.886 69.2826 145.969 69.2826H172.631C173.715 69.2826 174.601 70.1691 174.601 71.2523V72.574C174.601 73.6572 173.715 74.5434 172.631 74.5434Z" fill="white"/>
</g>
</g>
<g id="Group 80">
<mask id="mask18_4652_16135" style="mask-type:luminance" maskUnits="userSpaceOnUse" x="59" y="39" width="98" height="97">
<path id="Clip 79" fill-rule="evenodd" clip-rule="evenodd" d="M59.8926 87.8471C59.8926 114.431 81.4484 135.982 108.039 135.982C134.629 135.982 156.185 114.431 156.185 87.8471C156.185 61.263 134.629 39.7122 108.039 39.7122C81.4484 39.7122 59.8926 61.263 59.8926 87.8471Z" fill="white"/>
</mask>
<g mask="url(#mask18_4652_16135)">
<path id="Fill 78" fill-rule="evenodd" clip-rule="evenodd" d="M74.8466 61.5439H64.4936C63.4101 61.5439 62.5237 60.6576 62.5237 59.5744V58.2528C62.5237 57.1696 63.4101 56.2831 64.4936 56.2831H74.8466C75.9301 56.2831 76.8168 57.1696 76.8168 58.2528V59.5744C76.8168 60.6576 75.9301 61.5439 74.8466 61.5439Z" fill="white"/>
</g>
</g>
<g id="Group 83">
<mask id="mask19_4652_16135" style="mask-type:luminance" maskUnits="userSpaceOnUse" x="59" y="39" width="98" height="97">
<path id="Clip 82" fill-rule="evenodd" clip-rule="evenodd" d="M59.8926 87.8471C59.8926 114.431 81.4484 135.982 108.039 135.982C134.629 135.982 156.185 114.431 156.185 87.8471C156.185 61.263 134.629 39.7122 108.039 39.7122C81.4484 39.7122 59.8926 61.263 59.8926 87.8471Z" fill="white"/>
</mask>
<g mask="url(#mask19_4652_16135)">
<path id="Fill 81" fill-rule="evenodd" clip-rule="evenodd" d="M107.647 61.5439H80.9857C79.902 61.5439 79.0156 60.6576 79.0156 59.5744V58.2528C79.0156 57.1696 79.902 56.2831 80.9857 56.2831H107.647C108.731 56.2831 109.617 57.1696 109.617 58.2528V59.5744C109.617 60.6576 108.731 61.5439 107.647 61.5439Z" fill="white"/>
</g>
</g>
<g id="Group 86">
<mask id="mask20_4652_16135" style="mask-type:luminance" maskUnits="userSpaceOnUse" x="59" y="39" width="98" height="97">
<path id="Clip 85" fill-rule="evenodd" clip-rule="evenodd" d="M59.8926 87.8471C59.8926 114.431 81.4484 135.982 108.039 135.982C134.629 135.982 156.185 114.431 156.185 87.8471C156.185 61.263 134.629 39.7122 108.039 39.7122C81.4484 39.7122 59.8926 61.263 59.8926 87.8471Z" fill="white"/>
</mask>
<g mask="url(#mask20_4652_16135)">
<path id="Fill 84" fill-rule="evenodd" clip-rule="evenodd" d="M65.3755 52.8638H55.0224C53.9389 52.8638 53.0525 51.9776 53.0525 50.8944V49.5727C53.0525 48.4895 53.9389 47.6031 55.0224 47.6031H65.3755C66.4589 47.6031 67.3456 48.4895 67.3456 49.5727V50.8944C67.3456 51.9776 66.4589 52.8638 65.3755 52.8638Z" fill="white"/>
</g>
</g>
<g id="Group 89">
<mask id="mask21_4652_16135" style="mask-type:luminance" maskUnits="userSpaceOnUse" x="59" y="39" width="98" height="97">
<path id="Clip 88" fill-rule="evenodd" clip-rule="evenodd" d="M59.8926 87.8471C59.8926 114.431 81.4484 135.982 108.039 135.982C134.629 135.982 156.185 114.431 156.185 87.8471C156.185 61.263 134.629 39.7122 108.039 39.7122C81.4484 39.7122 59.8926 61.263 59.8926 87.8471Z" fill="white"/>
</mask>
<g mask="url(#mask21_4652_16135)">
<path id="Fill 87" fill-rule="evenodd" clip-rule="evenodd" d="M98.176 52.8638H71.5143C70.4306 52.8638 69.5442 51.9776 69.5442 50.8944V49.5727C69.5442 48.4895 70.4306 47.6031 71.5143 47.6031H98.176C99.2595 47.6031 100.146 48.4895 100.146 49.5727V50.8944C100.146 51.9776 99.2595 52.8638 98.176 52.8638Z" fill="white"/>
</g>
</g>
<g id="Group 92">
<mask id="mask22_4652_16135" style="mask-type:luminance" maskUnits="userSpaceOnUse" x="59" y="39" width="98" height="97">
<path id="Clip 91" fill-rule="evenodd" clip-rule="evenodd" d="M59.8926 87.8471C59.8926 114.431 81.4484 135.982 108.039 135.982C134.629 135.982 156.185 114.431 156.185 87.8471C156.185 61.263 134.629 39.7122 108.039 39.7122C81.4484 39.7122 59.8926 61.263 59.8926 87.8471Z" fill="white"/>
</mask>
<g mask="url(#mask22_4652_16135)">
<path id="Fill 90" fill-rule="evenodd" clip-rule="evenodd" d="M84.4952 114.676H67.914C66.8305 114.676 65.9438 113.79 65.9438 112.707V111.385C65.9438 110.302 66.8305 109.416 67.914 109.416H84.4952C85.5787 109.416 86.4653 110.302 86.4653 111.385V112.707C86.4653 113.79 85.5787 114.676 84.4952 114.676Z" fill="white"/>
</g>
</g>
<g id="Group 95">
<mask id="mask23_4652_16135" style="mask-type:luminance" maskUnits="userSpaceOnUse" x="59" y="39" width="98" height="97">
<path id="Clip 94" fill-rule="evenodd" clip-rule="evenodd" d="M59.8926 87.8471C59.8926 114.431 81.4484 135.982 108.039 135.982C134.629 135.982 156.185 114.431 156.185 87.8471C156.185 61.263 134.629 39.7122 108.039 39.7122C81.4484 39.7122 59.8926 61.263 59.8926 87.8471Z" fill="white"/>
</mask>
<g mask="url(#mask23_4652_16135)">
<path id="Fill 93" fill-rule="evenodd" clip-rule="evenodd" d="M131.589 114.676H91.5919C90.5085 114.676 89.6221 113.79 89.6221 112.707V111.385C89.6221 110.302 90.5085 109.416 91.5919 109.416H131.589C132.672 109.416 133.559 110.302 133.559 111.385V112.707C133.559 113.79 132.672 114.676 131.589 114.676Z" fill="white"/>
</g>
</g>
<g id="Group 98">
<mask id="mask24_4652_16135" style="mask-type:luminance" maskUnits="userSpaceOnUse" x="59" y="39" width="98" height="97">
<path id="Clip 97" fill-rule="evenodd" clip-rule="evenodd" d="M59.8926 87.8471C59.8926 114.431 81.4484 135.982 108.039 135.982C134.629 135.982 156.185 114.431 156.185 87.8471C156.185 61.263 134.629 39.7122 108.039 39.7122C81.4484 39.7122 59.8926 61.263 59.8926 87.8471Z" fill="white"/>
</mask>
<g mask="url(#mask24_4652_16135)">
<path id="Fill 96" fill-rule="evenodd" clip-rule="evenodd" d="M157.898 124.146H117.901C116.818 124.146 115.931 123.259 115.931 122.176V120.854C115.931 119.771 116.818 118.885 117.901 118.885H157.898C158.982 118.885 159.868 119.771 159.868 120.854V122.176C159.868 123.259 158.982 124.146 157.898 124.146Z" fill="white"/>
</g>
</g>
<g id="Group 101">
<mask id="mask25_4652_16135" style="mask-type:luminance" maskUnits="userSpaceOnUse" x="59" y="39" width="98" height="97">
<path id="Clip 100" fill-rule="evenodd" clip-rule="evenodd" d="M59.8926 87.8471C59.8926 114.431 81.4484 135.982 108.039 135.982C134.629 135.982 156.185 114.431 156.185 87.8471C156.185 61.263 134.629 39.7122 108.039 39.7122C81.4484 39.7122 59.8926 61.263 59.8926 87.8471Z" fill="white"/>
</mask>
<g mask="url(#mask25_4652_16135)">
<path id="Fill 99" fill-rule="evenodd" clip-rule="evenodd" d="M107.647 129.669H67.6505C66.5671 129.669 65.6807 128.783 65.6807 127.7V126.378C65.6807 125.295 66.5671 124.409 67.6505 124.409H107.647C108.731 124.409 109.617 125.295 109.617 126.378V127.7C109.617 128.783 108.731 129.669 107.647 129.669Z" fill="white"/>
</g>
</g>
<g id="Group 104">
<mask id="mask26_4652_16135" style="mask-type:luminance" maskUnits="userSpaceOnUse" x="59" y="39" width="98" height="97">
<path id="Clip 103" fill-rule="evenodd" clip-rule="evenodd" d="M59.8926 87.8471C59.8926 114.431 81.4484 135.982 108.039 135.982C134.629 135.982 156.185 114.431 156.185 87.8471C156.185 61.263 134.629 39.7122 108.039 39.7122C81.4484 39.7122 59.8926 61.263 59.8926 87.8471Z" fill="white"/>
</mask>
<g mask="url(#mask26_4652_16135)">
<path id="Fill 102" fill-rule="evenodd" clip-rule="evenodd" d="M60.5538 114.676H54.2328C53.1496 114.676 52.2629 113.79 52.2629 112.707V111.385C52.2629 110.302 53.1496 109.416 54.2328 109.416H60.5538C61.6373 109.416 62.5237 110.302 62.5237 111.385V112.707C62.5237 113.79 61.6373 114.676 60.5538 114.676Z" fill="white"/>
</g>
</g>
<g id="Group 107">
<mask id="mask27_4652_16135" style="mask-type:luminance" maskUnits="userSpaceOnUse" x="59" y="39" width="98" height="97">
<path id="Clip 106" fill-rule="evenodd" clip-rule="evenodd" d="M59.8926 87.8471C59.8926 114.431 81.4484 135.982 108.039 135.982C134.629 135.982 156.185 114.431 156.185 87.8471C156.185 61.263 134.629 39.7122 108.039 39.7122C81.4484 39.7122 59.8926 61.263 59.8926 87.8471Z" fill="white"/>
</mask>
<g mask="url(#mask27_4652_16135)">
<path id="Fill 105" fill-rule="evenodd" clip-rule="evenodd" d="M135.537 42.2111H80.0142C78.2806 42.2111 76.8623 40.7932 76.8623 39.0598V36.9452C76.8623 35.212 78.2806 33.7941 80.0142 33.7941H135.537C137.271 33.7941 138.689 35.212 138.689 36.9452V39.0598C138.689 40.7932 137.271 42.2111 135.537 42.2111Z" fill="white"/>
</g>
</g>
<g id="Group 110">
<mask id="mask28_4652_16135" style="mask-type:luminance" maskUnits="userSpaceOnUse" x="59" y="39" width="98" height="97">
<path id="Clip 109" fill-rule="evenodd" clip-rule="evenodd" d="M59.8926 87.8471C59.8926 114.431 81.4484 135.982 108.039 135.982C134.629 135.982 156.185 114.431 156.185 87.8471C156.185 61.263 134.629 39.7122 108.039 39.7122C81.4484 39.7122 59.8926 61.263 59.8926 87.8471Z" fill="white"/>
</mask>
<g mask="url(#mask28_4652_16135)">
<path id="Fill 108" fill-rule="evenodd" clip-rule="evenodd" d="M135.669 141.506H80.1455C78.4122 141.506 76.9939 140.088 76.9939 138.355V136.24C76.9939 134.507 78.4122 133.089 80.1455 133.089H135.669C137.402 133.089 138.821 134.507 138.821 136.24V138.355C138.821 140.088 137.402 141.506 135.669 141.506Z" fill="white"/>
</g>
</g>
<g id="Group 113">
<mask id="mask29_4652_16135" style="mask-type:luminance" maskUnits="userSpaceOnUse" x="59" y="39" width="98" height="97">
<path id="Clip 112" fill-rule="evenodd" clip-rule="evenodd" d="M59.8926 87.8471C59.8926 114.431 81.4484 135.982 108.039 135.982C134.629 135.982 156.185 114.431 156.185 87.8471C156.185 61.263 134.629 39.7122 108.039 39.7122C81.4484 39.7122 59.8926 61.263 59.8926 87.8471Z" fill="white"/>
</mask>
<g mask="url(#mask29_4652_16135)">
<path id="Fill 111" fill-rule="evenodd" clip-rule="evenodd" d="M108.039 39.7122C106.93 39.7122 105.831 39.7532 104.741 39.827C126.581 41.5216 143.839 62.3714 143.839 87.8471C143.839 113.323 126.581 134.173 104.741 135.868C105.831 135.941 106.93 135.982 108.039 135.982C134.629 135.982 156.185 114.431 156.185 87.8471C156.185 61.2631 134.629 39.7122 108.039 39.7122Z" fill="#110000" fill-opacity="0.3"/>
</g>
</g>
</g>
<g id="Group 155">
<path id="Stroke 115 (Stroke)" fill-rule="evenodd" clip-rule="evenodd" d="M57.4236 87.8472C57.4236 59.8989 80.0851 37.2431 108.039 37.2431C135.992 37.2431 158.654 59.8989 158.654 87.8472C158.654 115.795 135.992 138.451 108.039 138.451C80.0851 138.451 57.4236 115.795 57.4236 87.8472ZM108.039 42.1814C82.8114 42.1814 62.3619 62.6273 62.3619 87.8472C62.3619 113.067 82.8114 133.513 108.039 133.513C133.266 133.513 153.715 113.067 153.715 87.8472C153.715 62.6273 133.266 42.1814 108.039 42.1814Z" fill="#545454"/>
<path id="Stroke 117 (Stroke)" fill-rule="evenodd" clip-rule="evenodd" d="M170.301 137.628C171.265 136.663 172.829 136.663 173.793 137.627L203.626 167.453C207.27 171.096 205.332 177.33 200.267 178.267L200.267 178.267L175.945 182.77C175.349 182.88 174.885 183.345 174.775 183.938L174.775 183.939L170.272 208.256L170.272 208.256C169.333 213.321 163.099 215.256 159.456 211.614L132.591 184.755C131.626 183.791 131.626 182.228 132.59 181.263C133.555 180.299 135.118 180.299 136.082 181.263L162.948 208.122C163.78 208.954 165.202 208.511 165.416 207.356L169.919 183.04C169.919 183.04 169.919 183.04 169.919 183.039C170.402 180.434 172.441 178.396 175.046 177.914L175.046 177.914L199.368 173.412C200.524 173.198 200.965 171.776 200.135 170.946L170.302 141.12C169.337 140.156 169.337 138.592 170.301 137.628Z" fill="#545454"/>
<path id="Stroke 119 (Stroke)" fill-rule="evenodd" clip-rule="evenodd" d="M45.6734 137.53C46.6375 138.494 46.6374 140.057 45.673 141.022L15.8374 170.851L15.8373 170.851C15.0074 171.68 15.4472 173.101 16.6025 173.316L16.6026 173.316L40.9141 177.837C40.9142 177.837 40.9142 177.837 40.9142 177.837C43.5151 178.32 45.5506 180.355 46.0345 182.956C46.0345 182.956 46.0345 182.956 46.0345 182.956L50.5565 207.262L50.5565 207.262C50.771 208.416 52.1927 208.858 53.024 208.027L80.8163 180.241C81.7807 179.277 83.344 179.277 84.3082 180.241C85.2723 181.206 85.2722 182.769 84.3078 183.733L56.5155 211.519L54.7697 209.773L56.5155 211.519C52.8746 215.159 46.643 213.228 45.7015 208.165L41.1795 183.859L41.1795 183.859C41.0693 183.267 40.6051 182.802 40.0115 182.692L40.0114 182.692L15.6999 178.171C10.638 177.23 8.70393 170.999 12.3459 167.358C12.346 167.358 12.346 167.358 12.346 167.358L42.1815 137.529C43.1459 136.565 44.7092 136.565 45.6734 137.53Z" fill="#545454"/>
<path id="Fill 121" fill-rule="evenodd" clip-rule="evenodd" d="M127.296 169.797C127.296 159.436 118.894 151.036 108.53 151.036C98.1664 151.036 89.7649 159.436 89.7649 169.797C89.7649 180.159 98.1664 188.558 108.53 188.558C118.894 188.558 127.296 180.159 127.296 169.797Z" fill="#F28602"/>
<path id="Stroke 123 (Stroke)" fill-rule="evenodd" clip-rule="evenodd" d="M87.7896 169.797C87.7896 158.344 97.0758 149.061 108.53 149.061C119.985 149.061 129.271 158.344 129.271 169.797C129.271 181.25 119.985 190.534 108.53 190.534C97.0758 190.534 87.7896 181.25 87.7896 169.797ZM108.53 153.011C99.2568 153.011 91.7402 160.527 91.7402 169.797C91.7402 179.067 99.2568 186.583 108.53 186.583C117.804 186.583 125.32 179.067 125.32 169.797C125.32 160.527 117.804 153.011 108.53 153.011Z" fill="#545454"/>
<g id="Group 128">
<path id="Fill 125" fill-rule="evenodd" clip-rule="evenodd" d="M105.085 164.283V178.75H111.976V173.205V164.283" fill="#FEF2E0"/>
<path id="Stroke 127 (Stroke)" fill-rule="evenodd" clip-rule="evenodd" d="M104.097 164.283H106.073V177.762H110.988V164.283H112.963V179.738H104.097V164.283Z" fill="#545454"/>
</g>
<path id="Fill 129" fill-rule="evenodd" clip-rule="evenodd" d="M108.53 159.117L105.085 164.283H111.976L108.53 159.117Z" fill="#FEF2E0"/>
<path id="Stroke 131 (Stroke)" fill-rule="evenodd" clip-rule="evenodd" d="M108.53 158.129C108.86 158.129 109.169 158.294 109.352 158.569L112.797 163.735C112.999 164.038 113.018 164.428 112.846 164.749C112.674 165.07 112.34 165.271 111.975 165.271H105.085C104.721 165.271 104.386 165.07 104.214 164.749C104.042 164.428 104.061 164.038 104.263 163.735L107.709 158.569C107.892 158.294 108.2 158.129 108.53 158.129ZM106.931 163.296H110.13L108.53 160.897L106.931 163.296Z" fill="#545454"/>
<path id="Fill 133" fill-rule="evenodd" clip-rule="evenodd" d="M115.938 178.647H112.01V171.482L115.938 178.647Z" fill="#FEF2E0"/>
<path id="Stroke 135 (Stroke)" fill-rule="evenodd" clip-rule="evenodd" d="M111.765 170.526C112.202 170.414 112.659 170.612 112.876 171.008L116.804 178.172C116.972 178.478 116.965 178.85 116.788 179.15C116.61 179.45 116.287 179.635 115.938 179.635H112.01C111.465 179.635 111.022 179.192 111.022 178.647V171.482C111.022 171.031 111.328 170.638 111.765 170.526ZM112.998 175.339V177.659H114.27L112.998 175.339Z" fill="#545454"/>
<path id="Fill 137" fill-rule="evenodd" clip-rule="evenodd" d="M115.938 178.716H112.01V171.551L115.938 178.716Z" fill="#FEF2E0"/>
<path id="Stroke 139 (Stroke)" fill-rule="evenodd" clip-rule="evenodd" d="M111.765 170.595C112.202 170.483 112.659 170.681 112.876 171.077L116.804 178.241C116.972 178.547 116.965 178.919 116.788 179.219C116.61 179.519 116.287 179.703 115.938 179.703H112.01C111.465 179.703 111.022 179.261 111.022 178.716V171.551C111.022 171.1 111.328 170.707 111.765 170.595ZM112.998 175.407V177.728H114.27L112.998 175.407Z" fill="#545454"/>
<path id="Fill 141" fill-rule="evenodd" clip-rule="evenodd" d="M115.938 178.716H112.01V171.551L115.938 178.716Z" fill="#FEF2E0"/>
<path id="Stroke 143 (Stroke)" fill-rule="evenodd" clip-rule="evenodd" d="M111.765 170.595C112.202 170.483 112.659 170.681 112.876 171.077L116.804 178.241C116.972 178.547 116.965 178.919 116.788 179.219C116.61 179.519 116.287 179.703 115.938 179.703H112.01C111.465 179.703 111.022 179.261 111.022 178.716V171.551C111.022 171.1 111.328 170.707 111.765 170.595ZM112.998 175.407V177.728H114.27L112.998 175.407Z" fill="#545454"/>
<path id="Fill 145" fill-rule="evenodd" clip-rule="evenodd" d="M101.123 178.716H105.05V171.551L101.123 178.716Z" fill="#FEF2E0"/>
<path id="Stroke 147 (Stroke)" fill-rule="evenodd" clip-rule="evenodd" d="M105.296 170.595C105.733 170.707 106.038 171.1 106.038 171.551V178.716C106.038 179.261 105.596 179.703 105.051 179.703H101.123C100.774 179.703 100.451 179.519 100.273 179.219C100.095 178.919 100.089 178.547 100.257 178.241L104.185 171.077C104.401 170.681 104.859 170.483 105.296 170.595ZM102.791 177.728H104.063V175.407L102.791 177.728Z" fill="#545454"/>
<path id="Fill 149" fill-rule="evenodd" clip-rule="evenodd" d="M85.11 82.8724C85.11 84.6039 83.7063 86.007 81.9747 86.007C80.2428 86.007 78.8391 84.6039 78.8391 82.8724C78.8391 81.1412 80.2428 79.7378 81.9747 79.7378C83.7063 79.7378 85.11 81.1412 85.11 82.8724Z" fill="#545454"/>
<path id="Fill 151" fill-rule="evenodd" clip-rule="evenodd" d="M137.472 82.8724C137.472 84.6039 136.068 86.007 134.336 86.007C132.605 86.007 131.201 84.6039 131.201 82.8724C131.201 81.1412 132.605 79.7378 134.336 79.7378C136.068 79.7378 137.472 81.1412 137.472 82.8724Z" fill="#545454"/>
<path id="Stroke 153 (Stroke)" fill-rule="evenodd" clip-rule="evenodd" d="M105.056 85.1112C104.572 84.1587 103.413 83.7615 102.444 84.2248C101.46 84.6951 101.043 85.8744 101.513 86.8587L103.296 86.0071C101.513 86.8587 101.514 86.8599 101.514 86.8611L101.516 86.8636L101.518 86.8687L101.524 86.8798L101.536 86.9052C101.545 86.9236 101.556 86.9448 101.569 86.9685C101.594 87.016 101.627 87.074 101.667 87.1409C101.747 87.2747 101.857 87.4451 102.004 87.6392C102.298 88.0274 102.737 88.5135 103.361 88.989C104.635 89.9597 106.572 90.8037 109.354 90.8037C112.135 90.8037 114.088 89.9607 115.379 89.0059C116.013 88.5374 116.464 88.059 116.768 87.6778C116.919 87.4872 117.035 87.3201 117.118 87.1892C117.16 87.1237 117.194 87.0671 117.22 87.021C117.233 86.9979 117.245 86.9774 117.254 86.9596L117.267 86.9351L117.273 86.9245L117.276 86.9195L117.277 86.9172C117.277 86.916 117.278 86.9149 115.524 86.0071L117.278 86.9149C117.779 85.946 117.4 84.7541 116.432 84.2527C115.476 83.7583 114.304 84.12 113.791 85.0595C113.789 85.0615 113.788 85.0641 113.786 85.0673C113.771 85.0908 113.735 85.1441 113.676 85.2179C113.559 85.3658 113.351 85.5927 113.03 85.8295C112.414 86.2854 111.282 86.8531 109.354 86.8531C107.426 86.8531 106.333 86.2864 105.756 85.8465C105.454 85.6166 105.262 85.3974 105.155 85.2566C105.102 85.1862 105.071 85.1362 105.059 85.1156C105.058 85.1139 105.057 85.1125 105.056 85.1112Z" fill="#545454"/>
</g>
</g>
</g>
</svg>
