<svg width="16" height="16" viewBox="0 0 16 16" fill="none" xmlns="http://www.w3.org/2000/svg">
<path d="M8 15C4.13401 15 1 11.866 1 8C1 4.13401 4.13401 0.999999 8 0.999999C11.866 1 15 4.13401 15 8C15 11.866 11.866 15 8 15ZM8 14.125C11.3827 14.125 14.125 11.3827 14.125 8C14.125 4.61726 11.3827 1.875 8 1.875C4.61726 1.875 1.875 4.61726 1.875 8C1.875 11.3827 4.61726 14.125 8 14.125ZM8 5.8125C7.63756 5.8125 7.34375 5.51869 7.34375 5.15625C7.34375 4.79381 7.63756 4.5 8 4.5C8.36244 4.5 8.65625 4.79381 8.65625 5.15625C8.65625 5.51869 8.36244 5.8125 8 5.8125ZM8 12.375C7.75838 12.375 7.5625 12.1791 7.5625 11.9375L7.5625 7.125C7.5625 6.88338 7.75838 6.6875 8 6.6875C8.24163 6.6875 8.4375 6.88338 8.4375 7.125L8.4375 11.9375C8.4375 12.1791 8.24162 12.375 8 12.375Z" fill="#252525"></path>
</svg>