<svg width="16" height="16" viewBox="0 0 16 16" fill="none" xmlns="http://www.w3.org/2000/svg">
<path fill-rule="evenodd" clip-rule="evenodd" d="M7.99968 3.57051C10.1466 3.57051 11.9119 4.64253 13.1188 5.67695C13.7255 6.19695 14.2015 6.71622 14.526 7.10566C14.6884 7.30054 14.8138 7.46375 14.8991 7.5793C14.9416 7.63686 14.9743 7.68296 14.9968 7.71504C15.008 7.73109 15.017 7.74423 15.0231 7.75312L15.03 7.76387L15.0339 7.76777C15.1274 7.90812 15.1264 8.09229 15.0329 8.23262V8.23359L15.03 8.23652L15.0231 8.24726C15.017 8.25615 15.0079 8.26839 14.9968 8.28437C14.9743 8.31645 14.9417 8.36239 14.8991 8.42012C14.8138 8.53568 14.6886 8.69972 14.526 8.89473C14.2015 9.28415 13.7254 9.80354 13.1188 10.3234C11.9119 11.3578 10.1465 12.4299 7.99968 12.4299C5.85285 12.4298 4.08739 11.3578 2.88054 10.3234C2.27391 9.80347 1.79786 9.28417 1.47332 8.89473C1.31081 8.69972 1.18556 8.53568 1.10027 8.42012C1.05772 8.36246 1.02504 8.31642 1.00261 8.28437C0.99143 8.2684 0.982299 8.25613 0.976245 8.24726L0.969409 8.23652L0.967456 8.23359L0.966479 8.23164C0.872947 8.09134 0.873033 7.90811 0.966479 7.76777L0.967456 7.7668L0.969409 7.76387L0.976245 7.75312C0.982319 7.74423 0.991376 7.73109 1.00261 7.71504C1.02508 7.68295 1.05771 7.63696 1.10027 7.5793C1.18556 7.46374 1.31085 7.30063 1.47332 7.10566C1.79787 6.7162 2.27381 6.19701 2.88054 5.67695C4.0874 4.64251 5.85275 3.57056 7.99968 3.57051ZM7.99968 4.40644C6.13515 4.4065 4.55768 5.34041 3.42449 6.31172C2.8613 6.79446 2.41814 7.27814 2.11589 7.64082C1.94199 7.84951 1.94199 8.15088 2.11589 8.35957C2.41815 8.72224 2.86138 9.20601 3.42449 9.68867C4.55767 10.6599 6.13521 11.5939 7.99968 11.5939C9.86412 11.5939 11.4417 10.6599 12.5749 9.68867C13.1381 9.20587 13.5822 8.72227 13.8844 8.35957C14.0583 8.15093 14.0582 7.8495 13.8844 7.64082C13.5822 7.2781 13.1382 6.79456 12.5749 6.31172C11.4417 5.34042 9.86423 4.40644 7.99968 4.40644ZM7.99968 5.91035C9.15362 5.91035 10.0895 6.84626 10.0895 8.00019C10.0895 9.15408 9.15358 10.0891 7.99968 10.0891C6.84597 10.0888 5.91088 9.15395 5.91082 8.00019C5.91082 6.84639 6.84593 5.91056 7.99968 5.91035ZM7.99968 6.74629C7.3075 6.7465 6.74675 7.30797 6.74675 8.00019C6.74681 8.69237 7.30754 9.25389 7.99968 9.2541C8.69201 9.2541 9.25353 8.6925 9.25359 8.00019C9.25359 7.30783 8.69204 6.74629 7.99968 6.74629Z" fill="#252525"></path>
</svg>