<svg width="64" height="64" viewBox="0 0 64 64" fill="none" xmlns="http://www.w3.org/2000/svg">
<g id="UFO">
<g id="icons8-rocket-take-off">
<path id="Oval" d="M34.624 57.5789C46.8382 54.3062 54.0077 41.4566 50.6375 28.8783C47.2673 16.3001 34.6337 8.75642 22.4195 12.0291C10.2053 15.3017 3.03577 28.1514 6.40594 40.7296C9.77611 53.3078 22.4097 60.8515 34.624 57.5789Z" fill="white"></path>
<g id="Group">
<path id="Shape" d="M50.7036 29.0246C47.3933 16.4491 34.814 8.92633 22.5657 12.2947C21.4071 12.6316 20.2485 13.0246 19.2002 13.5298C28.414 12.5754 37.2967 17.4035 41.7657 25.7123C41.7105 25.7123 41.6554 25.7123 41.6002 25.7684C39.8347 26.2737 38.7864 28.0702 39.283 29.8667C39.7795 31.6632 41.545 32.7298 43.3105 32.2246C43.5864 32.1684 43.8623 32.0562 44.083 31.8877C46.5105 42.9474 40.9381 54.007 31.1174 58.4983C32.2761 58.386 33.4899 58.1614 34.6485 57.8246C46.7864 54.5123 54.014 41.6 50.7036 29.0246Z" fill="#C7D7E2"></path>
<path id="Oval_2" d="M25.3794 44.5754C27.6647 44.5754 29.5173 42.6903 29.5173 40.3649C29.5173 38.0395 27.6647 36.1544 25.3794 36.1544C23.0941 36.1544 21.2415 38.0395 21.2415 40.3649C21.2415 42.6903 23.0941 44.5754 25.3794 44.5754Z" fill="#C7D7E2"></path>
<path id="Oval_3" d="M23.5587 24.7018C24.7775 24.7018 25.7656 23.6964 25.7656 22.4562C25.7656 21.2159 24.7775 20.2105 23.5587 20.2105C22.3399 20.2105 21.3518 21.2159 21.3518 22.4562C21.3518 23.6964 22.3399 24.7018 23.5587 24.7018Z" fill="#C7D7E2"></path>
</g>
<path id="Shape_2" d="M28.9106 60.1263C28.6899 60.1263 28.4692 60.1263 28.2485 60.1263C27.3106 60.1263 26.5933 59.3404 26.6485 58.386C26.6485 57.4877 27.4209 56.7579 28.3037 56.7579H28.3588C36.1933 56.9825 43.4761 52.8281 47.3381 45.9789C50.0968 41.1509 50.8692 35.5368 49.545 30.0912C49.3244 29.193 49.8761 28.2947 50.7588 28.0702C51.6416 27.8456 52.5244 28.407 52.745 29.3053C54.2347 35.593 53.3519 42.1053 50.2071 47.6632C45.8485 55.4105 37.7381 60.1263 28.9106 60.1263Z" fill="#454B54"></path>
<path id="Shape_3" d="M15.2278 55.579C14.8967 55.579 14.5657 55.4667 14.2347 55.2421C3.91744 47.6632 0.882955 33.5719 7.22778 22.4C10.5381 16.6176 15.8347 12.4632 22.2347 10.779C28.6347 9.09476 35.3105 9.993 41.0485 13.3614C43.0347 14.5404 44.9105 16 46.5105 17.6842C47.1726 18.3579 47.1174 19.4246 46.4554 20.0421C45.7933 20.7158 44.745 20.6597 44.1381 19.986C42.7588 18.5263 41.1588 17.2912 39.3933 16.2246C34.4278 13.3053 28.6347 12.5193 23.1174 13.979C17.6002 15.4386 12.9657 19.0316 10.1519 24.0281C4.68985 33.6842 7.33813 45.9228 16.2761 52.4912C16.9933 53.0527 17.1588 54.0632 16.6623 54.8491C16.2761 55.3544 15.7795 55.579 15.2278 55.579Z" fill="#454B54"></path>
<path id="Shape_4" d="M14.4002 60.407C12.3588 60.407 10.5933 59.8456 9.21397 58.6667C6.56569 56.4211 5.79328 52.4912 6.89673 47.2141C7.06224 46.3158 7.945 45.6983 8.88293 45.9228C9.76569 46.0913 10.3726 46.9895 10.1519 47.9439C9.32431 51.8176 9.76569 54.7369 11.3657 56.1404C15.1726 59.3965 26.3174 54.4562 36.8002 41.9369C46.345 30.4281 49.1036 16.2807 49.1588 16.1123C49.3243 15.2141 50.2071 14.5965 51.0898 14.7649C51.9726 14.9334 52.5795 15.8316 52.414 16.7298C52.3036 17.3474 49.4347 31.8877 39.2829 44.0141C30.676 54.3439 21.076 60.407 14.4002 60.407Z" fill="#454B54"></path>
<path id="Shape_5" d="M39.7794 3.53686C39.3381 3.53686 38.8967 3.36844 38.6208 3.03159C38.2898 2.69475 38.1243 2.30177 38.1243 1.85265C38.1243 1.40352 38.2898 0.9544 38.6208 0.673699C39.2277 0.0561548 40.3312 0.0561548 40.9381 0.673699C41.2691 1.01054 41.4346 1.40352 41.4346 1.85265C41.4346 2.30177 41.2691 2.75089 40.9381 3.03159C40.607 3.31229 40.2208 3.53686 39.7794 3.53686Z" fill="#454B54"></path>
<path id="Shape_6" d="M62.1242 22.0632C61.6828 22.0632 61.2414 21.8947 60.9655 21.5579C60.6345 21.2211 60.469 20.8281 60.469 20.379C60.469 19.9298 60.6345 19.4807 60.9655 19.2C61.5724 18.5825 62.6759 18.5825 63.2828 19.2C63.6138 19.5368 63.7793 19.9298 63.7793 20.379C63.7793 20.8281 63.6138 21.2772 63.2828 21.5579C63.0069 21.8947 62.5655 22.0632 62.1242 22.0632Z" fill="#454B54"></path>
<path id="Shape_7" d="M56.2209 11.0035L54.676 9.993C54.2898 9.7123 54.0691 9.26318 54.1795 8.75791L54.8967 4.49125C55.0622 3.48072 54.8967 2.47019 54.4002 1.57195C54.0691 1.01055 53.3519 0.898265 52.8553 1.29125C52.0829 1.96493 51.5864 2.86318 51.3657 3.8737L50.6484 8.14037C50.5381 8.64563 50.2071 8.98248 49.7105 9.09476L48.0002 9.4316C47.5036 9.54388 47.1726 9.93686 47.0622 10.386L46.8416 11.6211L49.9312 12.1825L50.7588 12.3509L52.6347 12.6877L53.4622 12.8562L56.5519 13.4176L56.7726 12.2948C56.8278 11.7334 56.6622 11.2842 56.2209 11.0035Z" fill="#454B54"></path>
</g>
</g>
</svg>