<svg width="16" height="15" viewBox="0 0 16 15" fill="none" xmlns="http://www.w3.org/2000/svg">
<path fill-rule="evenodd" clip-rule="evenodd" d="M4 6.09375C4 5.83487 4.22386 5.625 4.5 5.625L11.5 5.625C11.7761 5.625 12 5.83487 12 6.09375C12 6.35263 11.7761 6.5625 11.5 6.5625H4.5C4.22386 6.5625 4 6.35263 4 6.09375Z" fill="#252525"/>
<path fill-rule="evenodd" clip-rule="evenodd" d="M8 2.34375C8.27614 2.34375 8.5 2.55362 8.5 2.8125L8.5 9.375C8.5 9.63388 8.27614 9.84375 8 9.84375C7.72386 9.84375 7.5 9.63388 7.5 9.375L7.5 2.8125C7.5 2.55362 7.72386 2.34375 8 2.34375Z" fill="#252525"/>
<path d="M13.7776 0.833344C14.514 0.833344 15.1116 1.39299 15.1116 2.08334V10.4164C15.1116 11.1067 14.514 11.6664 13.7776 11.6664H7.70337L4.26685 14.0833C4.13217 14.178 3.9516 14.193 3.80103 14.1224C3.65074 14.0518 3.55604 13.9079 3.55591 13.7503V11.6664H2.22192C1.48569 11.6662 0.888916 11.1066 0.888916 10.4164L0.888916 2.08334C0.888916 1.39309 1.48569 0.833508 2.22192 0.833344L13.7776 0.833344ZM2.22192 1.66635C1.97661 1.66652 1.77759 1.85333 1.77759 2.08334L1.77759 10.4164C1.77759 10.6464 1.97661 10.8332 2.22192 10.8333H4.00024C4.2456 10.8335 4.44458 11.0203 4.44458 11.2503L4.44458 12.9164L7.28931 10.9164C7.36616 10.8624 7.45992 10.8333 7.55591 10.8333H13.7776C14.023 10.8333 14.2219 10.6465 14.2219 10.4164V2.08334C14.2219 1.85322 14.023 1.66635 13.7776 1.66635L2.22192 1.66635Z" fill="#252525"/>
</svg>
