<svg width="16" height="16" viewBox="0 0 16 16" fill="none" xmlns="http://www.w3.org/2000/svg">
<path fill-rule="evenodd" clip-rule="evenodd" d="M8 1C7.70262 1 7.46154 1.24108 7.46154 1.53846V7.46154H1.53846C1.24108 7.46154 1 7.70262 1 8C1 8.29738 1.24108 8.53846 1.53846 8.53846H7.46154V14.4615C7.46154 14.7589 7.70262 15 8 15C8.29738 15 8.53846 14.7589 8.53846 14.4615V8.53846H14.4615C14.7589 8.53846 15 8.29738 15 8C15 7.70262 14.7589 7.46154 14.4615 7.46154H8.53846V1.53846C8.53846 1.24108 8.29738 1 8 1Z" fill="#252525"/>
</svg>
