<svg width="16" height="15" viewBox="0 0 16 15" fill="none" xmlns="http://www.w3.org/2000/svg">
<path fill-rule="evenodd" clip-rule="evenodd" d="M3 2.6875L3 11.0833L3 12.0208V12.3125C3 13.279 3.99492 14.0625 5.22222 14.0625H10.7778C12.0051 14.0625 13 13.279 13 12.3125V2.6875C13 1.72101 12.0051 0.9375 10.7778 0.9375L5.22222 0.9375C3.99492 0.9375 3 1.72101 3 2.6875ZM5.22222 13.125C4.37677 13.125 4 12.6147 4 12.3125V12.0208L4 2.6875C4 2.38526 4.37677 1.875 5.22222 1.875L10.7778 1.875C11.6232 1.875 12 2.38526 12 2.6875V12.3125C12 12.6147 11.6232 13.125 10.7778 13.125H5.22222ZM5.5 10.3125C5.22386 10.3125 5 10.5224 5 10.7812C5 11.0401 5.22386 11.25 5.5 11.25H10.5C10.7761 11.25 11 11.0401 11 10.7812C11 10.5224 10.7761 10.3125 10.5 10.3125H5.5Z" fill="#252525"/>
</svg>
