<svg width="16" height="16" viewBox="0 0 16 16" fill="none" xmlns="http://www.w3.org/2000/svg">
<path d="M13.6875 6.25C13.9291 6.25 14.125 6.44588 14.125 6.6875V11.9375C14.125 13.1456 13.1456 14.125 11.9375 14.125H4.0625C2.85438 14.125 1.875 13.1456 1.875 11.9375L1.875 6.6875C1.875 6.44588 2.07088 6.25 2.3125 6.25C2.55412 6.25 2.75 6.44588 2.75 6.6875L2.75 11.9375C2.75 12.6624 3.33763 13.25 4.0625 13.25H11.9375C12.6624 13.25 13.25 12.6624 13.25 11.9375V6.6875C13.25 6.44588 13.4459 6.25 13.6875 6.25ZM8.875 8C9.59987 8 10.1875 8.58763 10.1875 9.3125C10.1875 10.0374 9.59987 10.625 8.875 10.625H7.125C6.40013 10.625 5.8125 10.0374 5.8125 9.3125C5.8125 8.58763 6.40013 8 7.125 8L8.875 8ZM7.125 8.875C6.88338 8.875 6.6875 9.07088 6.6875 9.3125C6.6875 9.55412 6.88338 9.75 7.125 9.75H8.875C9.11662 9.75 9.3125 9.55412 9.3125 9.3125C9.3125 9.07088 9.11662 8.875 8.875 8.875H7.125ZM13.6875 1.875C14.4124 1.875 15 2.46263 15 3.1875V4.9375C15 5.17912 14.8041 5.375 14.5625 5.375L1.4375 5.375C1.19588 5.375 1 5.17912 1 4.9375L1 3.1875C1 2.46263 1.58763 1.875 2.3125 1.875L13.6875 1.875ZM2.3125 2.75C2.07088 2.75 1.875 2.94588 1.875 3.1875V4.5L14.125 4.5V3.1875C14.125 2.94588 13.9291 2.75 13.6875 2.75L2.3125 2.75Z" fill="#252525"/>
</svg>
