<svg width="16" height="16" viewBox="0 0 16 16" fill="none" xmlns="http://www.w3.org/2000/svg">
<path fill-rule="evenodd" clip-rule="evenodd" d="M4.73047 8.00051C4.73047 6.17941 6.2031 4.70078 8.02255 4.70078C9.84201 4.70078 11.3146 6.17941 11.3146 8.00051C11.3146 9.82162 9.84201 11.3003 8.02255 11.3003C6.2031 11.3003 4.73047 9.82162 4.73047 8.00051ZM8.02255 5.70078C6.75796 5.70078 5.73047 6.72911 5.73047 8.00051C5.73047 9.27191 6.75796 10.3003 8.02255 10.3003C9.28715 10.3003 10.3146 9.27191 10.3146 8.00051C10.3146 6.72911 9.28715 5.70078 8.02255 5.70078Z" fill="#252525"/>
<path fill-rule="evenodd" clip-rule="evenodd" d="M1.06173 7.07504C1.53476 3.51557 4.6185 0.891062 8.20054 1.00348L8.21164 1.00383C12.0641 1.2166 15.0591 4.44182 14.9991 8.30683V9.22534C14.9984 10.6089 13.8797 11.7327 12.4968 11.7335C11.8265 11.7335 11.2631 11.5088 10.8747 11.0626C10.4948 10.6263 10.3334 10.037 10.3334 9.4L10.3333 8C10.3333 7.74227 10.5423 7.53334 10.8 7.53334C11.0577 7.53334 11.2667 7.74227 11.2667 8L11.2667 9.4C11.2667 9.89051 11.3913 10.2346 11.5786 10.4498C11.7573 10.6551 12.0424 10.8001 12.4963 10.8002C13.3617 10.7997 14.0653 10.096 14.0658 9.2251V8.29567C14.1197 4.92975 11.514 2.12405 8.16572 1.93618C5.06695 1.84174 2.39687 4.11328 1.98693 7.19799C1.57672 10.2846 3.56312 13.18 6.5816 13.9006C7.56748 14.1341 8.59544 14.1212 9.57521 13.8631C9.82444 13.7974 10.0797 13.9462 10.1454 14.1954C10.211 14.4447 10.0622 14.6999 9.81298 14.7656C8.68486 15.0628 7.50118 15.0776 6.36601 14.8087C2.87995 13.9767 0.588714 10.6343 1.06173 7.07504Z" fill="#252525"/>
</svg>
