<svg width="15" height="16" viewBox="0 0 15 16" fill="none" xmlns="http://www.w3.org/2000/svg">
<path fill-rule="evenodd" clip-rule="evenodd" d="M9.71138 2.40084C8.99437 2.21028 8.23188 2.42737 7.71698 2.96867L7.71202 2.97389L2.78137 7.97961C1.49997 9.2807 1.49996 11.3902 2.78137 12.6913C4.06278 13.9924 6.14036 13.9924 7.42177 12.6913L13.4248 6.59552C13.585 6.43287 13.8447 6.43286 14.0049 6.59549C14.165 6.75812 14.1651 7.0218 14.0049 7.18444L8.00184 13.2802C6.40008 14.9066 3.80309 14.9066 2.20132 13.2802C0.599559 11.6539 0.599559 9.01701 2.20132 7.39065L7.12953 2.38733C7.85035 1.6315 8.91648 1.32862 9.9191 1.59508C10.9229 1.86186 11.7069 2.65784 11.9696 3.67707C12.232 4.69506 11.9337 5.77754 11.1894 6.50943L6.25668 11.5206C5.61304 12.152 4.58973 12.1431 3.95678 11.5007C3.32384 10.8582 3.31479 9.81924 3.93644 9.16551L3.94139 9.16031L8.87205 4.15236C9.0322 3.9897 9.29189 3.98965 9.45209 4.15226C9.6123 4.31487 9.61234 4.57855 9.45219 4.74121L4.52434 9.7464C4.21576 10.0734 4.22103 10.5912 4.53674 10.9116C4.85245 11.2321 5.36239 11.2373 5.68435 10.9239L10.6167 5.91295C11.1499 5.39015 11.3637 4.616 11.176 3.88798C10.9883 3.15996 10.4284 2.5914 9.71138 2.40084Z" fill="#252525"/>
</svg>
