<svg width="16" height="16" viewBox="0 0 16 16" fill="none" xmlns="http://www.w3.org/2000/svg">
<path fill-rule="evenodd" clip-rule="evenodd" d="M3.37028 2.03697C3.02647 2.38079 2.83331 2.8471 2.83331 3.33333L2.83331 14C2.83331 14.1873 2.93799 14.3589 3.10452 14.4446C3.27106 14.5303 3.47152 14.5157 3.62393 14.4069L7.99998 11.2811L12.376 14.4069C12.5284 14.5157 12.7289 14.5303 12.8954 14.4446C13.062 14.3589 13.1666 14.1873 13.1666 14V3.33333C13.1666 2.8471 12.9735 2.38079 12.6297 2.03697C12.2859 1.69315 11.8195 1.5 11.3333 1.5L4.66665 1.5C4.18042 1.5 3.7141 1.69315 3.37028 2.03697Z" fill="#252525"/>
</svg>
