<svg width="16" height="16" viewBox="0 0 16 16" fill="none" xmlns="http://www.w3.org/2000/svg">
<path fill-rule="evenodd" clip-rule="evenodd" d="M2.69231 12.8654C2.93659 12.8654 3.13462 13.0634 3.13462 13.3077C3.13462 13.7962 3.53067 14.1923 4.01923 14.1923H13.3077C13.552 14.1923 13.75 14.3903 13.75 14.6346C13.75 14.8789 13.552 15.0769 13.3077 15.0769H4.01923C3.04211 15.0769 2.25 14.2848 2.25 13.3077C2.25 13.0634 2.44803 12.8654 2.69231 12.8654Z" fill="#252525"/>
<path fill-rule="evenodd" clip-rule="evenodd" d="M2.25 3.1346C2.25 1.9132 3.24014 0.923065 4.46154 0.923065L12.8654 0.923065C13.3539 0.923065 13.75 1.31912 13.75 1.80768V11.5384C13.75 12.027 13.3539 12.4231 12.8654 12.4231H4.01923C3.53067 12.4231 3.13462 12.8191 3.13462 13.3077C3.13462 13.552 2.93659 13.75 2.69231 13.75C2.44803 13.75 2.25 13.552 2.25 13.3077L2.25 3.1346ZM3.13462 11.7751C3.39485 11.6246 3.69698 11.5384 4.01923 11.5384H12.8654V1.80768L4.46154 1.80768C3.7287 1.80768 3.13462 2.40176 3.13462 3.1346L3.13462 11.7751Z" fill="#252525"/>
<path fill-rule="evenodd" clip-rule="evenodd" d="M12.4231 11.5384C12.6674 11.5384 12.8654 11.7365 12.8654 11.9808V14.6346C12.8654 14.8789 12.6674 15.0769 12.4231 15.0769C12.1788 15.0769 11.9808 14.8789 11.9808 14.6346V11.9808C11.9808 11.7365 12.1788 11.5384 12.4231 11.5384Z" fill="#252525"/>
</svg>
