<svg width="16" height="16" viewBox="0 0 16 16" fill="none" xmlns="http://www.w3.org/2000/svg">
<path fill-rule="evenodd" clip-rule="evenodd" d="M4.66665 2.5C4.44563 2.5 4.23367 2.5878 4.07739 2.74408C3.92111 2.90036 3.83331 3.11232 3.83331 3.33333L3.83331 13.0284L7.70936 10.2598C7.88321 10.1356 8.11675 10.1356 8.2906 10.2598L12.1666 13.0284V3.33333C12.1666 3.11232 12.0788 2.90036 11.9226 2.74408C11.7663 2.5878 11.5543 2.5 11.3333 2.5L4.66665 2.5ZM3.37028 2.03697C3.7141 1.69315 4.18042 1.5 4.66665 1.5L11.3333 1.5C11.8195 1.5 12.2859 1.69315 12.6297 2.03697C12.9735 2.38079 13.1666 2.8471 13.1666 3.33333V14C13.1666 14.1873 13.062 14.3589 12.8954 14.4446C12.7289 14.5303 12.5284 14.5157 12.376 14.4069L7.99998 11.2811L3.62393 14.4069C3.47152 14.5157 3.27106 14.5303 3.10452 14.4446C2.93799 14.3589 2.83331 14.1873 2.83331 14L2.83331 3.33333C2.83331 2.8471 3.02647 2.38079 3.37028 2.03697Z" fill="#252525"/>
</svg>
