<svg width="16" height="16" viewBox="0 0 16 16" fill="none" xmlns="http://www.w3.org/2000/svg">
<path fill-rule="evenodd" clip-rule="evenodd" d="M1.33403 12.8889C1.57949 12.8889 1.77848 13.0879 1.77848 13.3333C1.77848 13.824 2.1761 14.2219 2.66677 14.2222C2.66671 14.2222 2.66684 14.2222 2.66677 14.2222H5.77729C6.02275 14.2222 6.22174 14.4212 6.22174 14.6667C6.22174 14.9121 6.02275 15.1111 5.77729 15.1111H2.66677C1.68524 15.1107 0.889587 14.3149 0.889587 13.3333C0.889587 13.0879 1.08857 12.8889 1.33403 12.8889Z" fill="#252525"/>
<path fill-rule="evenodd" clip-rule="evenodd" d="M11.5554 0.888886C11.7912 0.888664 12.0175 0.982166 12.1844 1.14882C12.3513 1.31555 12.4451 1.54182 12.4451 1.77778V6.22222C12.4451 6.46768 12.2462 6.66666 12.0007 6.66666C11.7552 6.66666 11.5563 6.46768 11.5563 6.22222L11.5563 1.77777L3.11181 1.77777C2.37543 1.77777 1.77848 2.37473 1.77848 3.11111L1.77848 11.7934C2.03975 11.6423 2.34305 11.5557 2.66658 11.5556H6.22233C6.46779 11.5556 6.66677 11.7545 6.66677 12C6.66677 12.2455 6.46779 12.4444 6.22233 12.4444H2.66697C2.1762 12.4447 1.77848 12.8426 1.77848 13.3333C1.77848 13.5788 1.57949 13.7778 1.33403 13.7778C1.08857 13.7778 0.889587 13.5788 0.889587 13.3333L0.889587 3.11111C0.889587 1.88381 1.88451 0.888886 3.11181 0.888886L11.5554 0.888886Z" fill="#252525"/>
<path fill-rule="evenodd" clip-rule="evenodd" d="M13.4081 7.99979C13.1935 7.99979 12.9877 8.08512 12.8361 8.23698L8.40953 12.6636L8.12222 14.1001L9.55875 13.8128L13.9845 9.38649C14.3005 9.07055 14.3008 8.5582 13.9851 8.24198L13.9804 8.23724C13.8287 8.08538 13.6227 7.99979 13.4081 7.99979ZM12.2071 7.60894C12.5254 7.29008 12.9575 7.1109 13.4081 7.1109C13.8586 7.1109 14.2906 7.28998 14.6089 7.60868L14.6136 7.61342C15.2764 8.27683 15.2762 9.35199 14.6131 10.015C14.613 10.015 14.6131 10.015 14.6131 10.015L10.0922 14.5365C10.0301 14.5985 9.9511 14.6408 9.86505 14.658L7.64282 15.1025C7.49711 15.1316 7.34647 15.086 7.24139 14.9809C7.13631 14.8759 7.0907 14.7252 7.11985 14.5795L7.56429 12.3573C7.5815 12.2712 7.62379 12.1922 7.68584 12.1302L12.2071 7.60894Z" fill="#252525"/>
</svg>
