<svg width="15" height="16" viewBox="0 0 15 16" fill="none" xmlns="http://www.w3.org/2000/svg">
<path fill-rule="evenodd" clip-rule="evenodd" d="M4.62891 1C4.85543 1 5.03906 1.19588 5.03906 1.4375V2.75L9.96094 2.75V1.4375C9.96094 1.19588 10.1446 1 10.3711 1C10.5976 1 10.7813 1.19588 10.7813 1.4375V2.75H12.832C13.5116 2.75 14.0625 3.33763 14.0625 4.0625V6.6875V13.6875C14.0625 14.4124 13.5116 15 12.832 15H2.16797C1.4884 15 0.9375 14.4124 0.9375 13.6875L0.9375 6.6875L0.9375 4.0625C0.9375 3.33763 1.4884 2.75 2.16797 2.75H4.21875V1.4375C4.21875 1.19588 4.40238 1 4.62891 1ZM9.96094 3.625V4.5C9.96094 4.74162 10.1446 4.9375 10.3711 4.9375C10.5976 4.9375 10.7813 4.74162 10.7813 4.5V3.625L12.832 3.625C13.0586 3.625 13.2422 3.82088 13.2422 4.0625V6.25L1.75781 6.25L1.75781 4.0625C1.75781 3.82088 1.94145 3.625 2.16797 3.625H4.21875V4.5C4.21875 4.74162 4.40238 4.9375 4.62891 4.9375C4.85543 4.9375 5.03906 4.74162 5.03906 4.5V3.625H9.96094ZM1.75781 7.125L13.2422 7.125V13.6875C13.2422 13.9291 13.0586 14.125 12.832 14.125H2.16797C1.94145 14.125 1.75781 13.9291 1.75781 13.6875L1.75781 7.125Z" fill="#252525"/>
</svg>
