<svg width="16" height="16" viewBox="0 0 16 16" fill="none" xmlns="http://www.w3.org/2000/svg">
<path d="M11.5 2.10001C11.9832 2.10001 12.375 2.47566 12.375 2.93887V3.80997C13.8589 4.01361 15 5.23454 15 6.71329V10.9066C15 12.5279 13.6289 13.8422 11.9375 13.8422H4.0625C2.37113 13.8422 1 12.5279 1 10.9066L1 6.71329C1 5.09203 2.37113 3.77774 4.0625 3.77774L8.875 3.77774V2.93887C8.875 2.47566 9.26675 2.10001 9.75 2.10001H11.5ZM1.875 10.9066C1.875 12.0647 2.85438 13.0033 4.0625 13.0033H11.9375C13.1456 13.0033 14.125 12.0647 14.125 10.9066V10.4877H10.7637C10.2717 11.4784 9.22086 12.1645 8 12.1645C6.77914 12.1645 5.72826 11.4784 5.23633 10.4877H1.875V10.9066ZM8 7.13223C6.79197 7.13223 5.81266 8.071 5.8125 9.22891C5.8125 10.387 6.79188 11.3256 8 11.3256C9.20812 11.3256 10.1875 10.387 10.1875 9.22891C10.1873 8.071 9.20803 7.13223 8 7.13223ZM4.0625 4.61661C2.85438 4.61661 1.875 5.55525 1.875 6.71329V9.64883H4.96875C4.94828 9.51177 4.9375 9.3714 4.9375 9.22891C4.93766 7.60778 6.30872 6.29337 8 6.29337C9.69128 6.29337 11.0623 7.60778 11.0625 9.22891C11.0625 9.3714 11.0517 9.51177 11.0312 9.64883H14.125V6.71329C14.125 5.55525 13.1456 4.61661 11.9375 4.61661L4.0625 4.61661ZM11.9375 5.24551C12.2999 5.24551 12.5938 5.52701 12.5938 5.87442C12.5937 6.22177 12.2999 6.50333 11.9375 6.50333C11.5751 6.50333 11.2813 6.22177 11.2812 5.87442C11.2812 5.52701 11.5751 5.24551 11.9375 5.24551ZM4.9375 5.4545C5.17912 5.4545 5.375 5.64281 5.375 5.87442C5.37492 6.10596 5.17908 6.29337 4.9375 6.29337H3.625C3.38342 6.29337 3.18758 6.10596 3.1875 5.87442C3.1875 5.64281 3.38338 5.4545 3.625 5.4545H4.9375ZM9.75 3.77774L11.5 3.77774V2.93887L9.75 2.93887V3.77774Z" fill="#252525"/>
</svg>
