<svg width="16" height="16" viewBox="0 0 16 16" fill="none" xmlns="http://www.w3.org/2000/svg">
<path d="M13.9053 6.87109C14.4371 6.81388 14.974 6.81388 15.5059 6.87109C15.7384 6.89629 15.9228 7.07912 15.9492 7.31152C16.2892 10.3017 14.8846 12.5058 13.2002 13.7529C12.3623 14.3732 11.4406 14.769 10.6074 14.9053C9.98475 15.0071 9.34272 14.9702 8.83496 14.7041L7.68652 15.8535C7.49125 16.0486 7.1747 16.0487 6.97949 15.8535C6.78445 15.6583 6.78445 15.3417 6.97949 15.1465L8.12598 13.999C7.94181 13.6536 7.86376 13.2483 7.86426 12.8379C7.86503 12.2467 8.02051 11.5884 8.30371 10.9395C8.87008 9.64161 9.98201 8.30009 11.5859 7.5127C11.8274 7.39445 12.1189 7.48873 12.2461 7.72559L12.6592 8.49414L13.5352 7.10156C13.6166 6.9721 13.7532 6.88745 13.9053 6.87109ZM8.37012 1C8.73433 1.00008 9.08407 1.14656 9.3418 1.40723L10.5977 2.61426C10.8552 2.87536 10.9999 3.22953 11 3.59863V5.53613C10.9998 5.79225 10.7948 5.99982 10.542 6C10.289 6 10.0832 5.79236 10.083 5.53613V3.59863C10.0829 3.47568 10.035 3.35748 9.94922 3.27051L8.69434 2.06445C8.60845 1.97756 8.49151 1.92876 8.37012 1.92871L2.5 1.92871C2.24696 1.92871 2.04214 2.13629 2.04199 2.39258L2.04199 12.5361C2.04222 12.7924 2.24701 13 2.5 13H5.54199C5.79497 13.0002 6 13.2437 6 13.5C6 13.7563 5.79497 13.9998 5.54199 14H2.5C1.7407 14 1.12515 13.3765 1.125 12.6074L1.125 2.39258C1.12515 1.62345 1.7407 1 2.5 1L8.37012 1ZM14.25 7.84375L13.0488 9.75391C12.9541 9.90453 12.7862 9.99333 12.6084 9.9873C12.4305 9.98119 12.2688 9.88144 12.1846 9.72461L11.6035 8.6416C10.4599 9.32791 9.65165 10.3523 9.2207 11.3398C8.97959 11.8924 8.86482 12.4136 8.86426 12.8389C8.86407 12.9849 8.87745 13.1131 8.90039 13.2246L10.8691 11.2568C11.0644 11.0618 11.3809 11.0618 11.5762 11.2568C11.7714 11.452 11.7713 11.7686 11.5762 11.9639L9.61426 13.9248C9.83298 13.9678 10.1102 13.973 10.4463 13.918C11.1028 13.8105 11.8785 13.4874 12.6055 12.9492C13.9728 11.9367 15.1196 10.2034 14.9902 7.83398C14.7437 7.82315 14.4962 7.82641 14.25 7.84375Z" fill="#252525"/>
</svg>
