<svg width="15" height="15" viewBox="0 0 15 15" fill="none" xmlns="http://www.w3.org/2000/svg">
<path d="M12.9163 0.833344C13.6067 0.833344 14.1663 1.39299 14.1663 2.08334V10.4164C14.1663 11.1067 13.6067 11.6664 12.9163 11.6664H7.22198L4.00031 14.0833C3.87405 14.178 3.70494 14.193 3.56378 14.1224C3.42272 14.0519 3.33344 13.908 3.33331 13.7503V11.6664H2.08331C1.39296 11.6664 0.833313 11.1067 0.833313 10.4164L0.833313 2.08334C0.833313 1.39299 1.39296 0.833344 2.08331 0.833344L12.9163 0.833344ZM2.08331 1.66635C1.85319 1.66635 1.66632 1.85322 1.66632 2.08334L1.66632 10.4164C1.66632 10.6465 1.85319 10.8333 2.08331 10.8333H3.75031C3.98027 10.8335 4.16632 11.0203 4.16632 11.2503L4.16632 12.9164L6.83331 10.9164C6.90541 10.8623 6.99322 10.8333 7.08331 10.8333H12.9163C13.1464 10.8333 13.3333 10.6465 13.3333 10.4164V2.08334C13.3333 1.85322 13.1464 1.66635 12.9163 1.66635L2.08331 1.66635ZM9.58331 6.66635C9.81343 6.66635 10.0003 6.85323 10.0003 7.08334C10.0003 7.31346 9.81343 7.50034 9.58331 7.50034L3.75031 7.50034C3.52019 7.50034 3.33331 7.31346 3.33331 7.08334C3.33331 6.85322 3.52019 6.66635 3.75031 6.66635L9.58331 6.66635ZM11.2503 4.16635C11.4803 4.16653 11.6663 4.35333 11.6663 4.58334C11.6663 4.81335 11.4803 5.00016 11.2503 5.00034L3.75031 5.00034C3.52019 5.00034 3.33331 4.81346 3.33331 4.58334C3.33331 4.35322 3.52019 4.16635 3.75031 4.16635H11.2503Z" fill="#252525"/>
</svg>
