<svg width="15" height="16" viewBox="0 0 15 16" fill="none" xmlns="http://www.w3.org/2000/svg">
<path d="M7.5 1C9.6875 1 11.6562 2.16699 12.8594 3.91699C13.0781 4.26691 13.2969 4.61687 13.4062 4.9668C13.8437 5.9001 14.0625 6.95004 14.0625 8C14.0625 11.85 11.1094 15 7.5 15C4.32813 15 1.59375 12.5499 1.04688 9.2832C0.937529 8.8166 0.9375 8.46663 0.9375 8C0.9375 5.66676 2.03135 3.68373 3.5625 2.40039C3.8888 2.16836 4.75597 1.70535 4.76562 1.7002C5.64062 1.23353 6.51562 1 7.5 1ZM4.21875 3.625C4 5.60833 3.17969 6.83333 1.75781 8C1.75781 11.9375 4.65625 14.125 7.5 14.125C10.5625 14.125 13.2422 11.2667 13.2422 8C13.2422 7.18333 12.9141 6.19167 12.5859 5.375C11.8203 5.84167 10.6719 6.25 9.6875 6.25C7.71875 6.25 5.3125 5.14167 4.21875 3.625ZM6.26953 8C6.49605 8 6.67969 8.19588 6.67969 8.4375C6.67969 8.67912 6.49605 8.875 6.26953 8.875C6.04301 8.875 5.85938 8.67912 5.85938 8.4375C5.85938 8.19588 6.04301 8 6.26953 8ZM8.73047 8C8.95699 8 9.14062 8.19588 9.14062 8.4375C9.14062 8.67912 8.95699 8.875 8.73047 8.875C8.50395 8.875 8.32031 8.67912 8.32031 8.4375C8.32031 8.19588 8.50395 8 8.73047 8ZM3.39844 3.625C2.63286 4.44161 1.97661 5.78315 1.75781 7.06641C2.52338 6.24971 3.1797 4.7916 3.39844 3.625ZM7.5 1.875C6.73438 1.875 5.03906 2.3125 4.62891 2.75C5.61328 4.26667 7.69141 5.375 9.55078 5.375C10.3164 5.375 11.3555 4.85 12.0117 4.5C11.0273 2.98333 9.35938 1.875 7.5 1.875Z" fill="#252525"/>
</svg>
