<svg width="16" height="16" viewBox="0 0 16 16" fill="none" xmlns="http://www.w3.org/2000/svg">
<path fill-rule="evenodd" clip-rule="evenodd" d="M10.5763 9.72875C10.8103 9.96278 10.8103 10.3422 10.5763 10.5763C10.3422 10.8103 9.96278 10.8103 9.72875 10.5763L8 8.8475L6.27125 10.5763C6.03722 10.8103 5.65778 10.8103 5.42375 10.5763C5.18972 10.3422 5.18972 9.96278 5.42375 9.72875L7.1525 8L5.42375 6.27125C5.18972 6.03722 5.18972 5.65778 5.42375 5.42375C5.65778 5.18972 6.03722 5.18972 6.27125 5.42375L8 7.1525L9.72875 5.42375C9.96278 5.18972 10.3422 5.18972 10.5763 5.42375C10.8103 5.65778 10.8103 6.03722 10.5763 6.27125L8.8475 8L10.5763 9.72875ZM8 1C4.1325 1 1 4.1325 1 8C1 11.8675 4.1325 15 8 15C11.8675 15 15 11.8675 15 8C15 4.1325 11.8675 1 8 1Z" fill="#252525"/>
</svg>
