<svg width="16" height="16" viewBox="0 0 16 16" fill="none" xmlns="http://www.w3.org/2000/svg">
<path fill-rule="evenodd" clip-rule="evenodd" d="M12.9497 3.05025C12.7394 2.83997 12.3985 2.83997 12.1882 3.05025L7.99998 7.2385L3.81173 3.05025C3.60145 2.83997 3.26051 2.83997 3.05023 3.05025C2.83995 3.26053 2.83995 3.60147 3.05023 3.81175L7.23848 8L3.05023 12.1882C2.83995 12.3985 2.83995 12.7395 3.05023 12.9497C3.26051 13.16 3.60145 13.16 3.81173 12.9497L7.99998 8.7615L12.1882 12.9497C12.3985 13.16 12.7394 13.16 12.9497 12.9497C13.16 12.7395 13.16 12.3985 12.9497 12.1882L8.76148 8L12.9497 3.81175C13.16 3.60147 13.16 3.26053 12.9497 3.05025Z" fill="#252525"/>
</svg>
