<svg width="16" height="16" viewBox="0 0 16 16" fill="none" xmlns="http://www.w3.org/2000/svg">
<path d="M12.0625 1C12.7874 1 13.375 1.58763 13.375 2.3125V11.0625C13.375 11.6338 13.0095 12.1185 12.5 12.2988V14.125H12.9375C13.1791 14.125 13.375 14.3209 13.375 14.5625C13.375 14.8041 13.1791 15 12.9375 15H3.75C2.7835 15 2 14.2165 2 13.25L2 3.1875C2 1.97938 2.97938 1 4.1875 1L12.0625 1ZM3.75 12.375C3.26675 12.375 2.875 12.7668 2.875 13.25C2.875 13.7332 3.26675 14.125 3.75 14.125H11.625V12.375H3.75ZM4.1875 1.875C3.46263 1.875 2.875 2.46263 2.875 3.1875L2.875 11.7344C3.1324 11.5855 3.43125 11.5 3.75 11.5H12.0625C12.3041 11.5 12.5 11.3041 12.5 11.0625V2.3125C12.5 2.07088 12.3041 1.875 12.0625 1.875L4.1875 1.875ZM7.6875 3.625C8.77481 3.625 9.65625 4.50644 9.65625 5.59375C9.65625 6.31877 9.26322 6.95033 8.67969 7.29199C9.88366 7.70445 10.75 8.8437 10.75 10.1875C10.75 10.4291 10.5541 10.625 10.3125 10.625C10.0709 10.625 9.875 10.4291 9.875 10.1875C9.875 8.97938 8.89562 8 7.6875 8C6.47938 8 5.5 8.97938 5.5 10.1875C5.5 10.4291 5.30412 10.625 5.0625 10.625C4.82088 10.625 4.625 10.4291 4.625 10.1875C4.625 8.84402 5.49081 7.70471 6.69434 7.29199C6.11121 6.95023 5.71875 6.31847 5.71875 5.59375C5.71875 4.50644 6.60019 3.625 7.6875 3.625ZM7.6875 4.5C7.08344 4.5 6.59375 4.98969 6.59375 5.59375C6.59375 6.19781 7.08344 6.6875 7.6875 6.6875C8.29156 6.6875 8.78125 6.19781 8.78125 5.59375C8.78125 4.98969 8.29156 4.5 7.6875 4.5Z" fill="#252525"/>
</svg>
