<svg width="16" height="16" viewBox="0 0 16 16" fill="none" xmlns="http://www.w3.org/2000/svg">
<path fill-rule="evenodd" clip-rule="evenodd" d="M2.44443 3.84375C2.68989 3.84375 2.88887 4.03963 2.88887 4.28125L2.88887 13.6875C2.88887 13.9291 3.08785 14.125 3.3333 14.125H11.3331C11.5786 14.125 11.7775 14.3209 11.7775 14.5625C11.7775 14.8041 11.5786 15 11.3331 15H3.3333C2.59694 15 2 14.4124 2 13.6875L2 4.28125C2 4.03963 2.19898 3.84375 2.44443 3.84375Z" fill="#252525"/>
<path fill-rule="evenodd" clip-rule="evenodd" d="M5.25918 1L10.5354 1C10.9348 1.00197 11.3159 1.16513 11.5897 1.45133L11.5905 1.45224L13.575 3.50777C13.8489 3.79435 14.0009 4.17333 13.9997 4.56681L13.5553 4.56592H13.9997V4.56681V11.5881C13.9997 11.5863 13.9996 11.5844 13.9996 11.5826L13.5553 11.5927H13.9997V11.5881C14.0159 12.4044 13.3603 13.0815 12.5305 13.104L12.5183 13.1043L5.24695 13.1042C4.41715 13.0817 3.76153 12.4044 3.77773 11.5881V11.5927H4.22217L3.77785 11.5826C3.77781 11.5845 3.77777 11.5863 3.77773 11.5881L3.77773 2.51605C3.77777 2.51788 3.77781 2.51972 3.77785 2.52155L4.22217 2.51142H3.77773V2.51605C3.76153 1.69973 4.41715 1.02265 5.24695 1.00017L5.25918 1ZM5.2661 1.875C4.92617 1.88701 4.65859 2.16589 4.66648 2.50129L4.66672 2.51142L4.6666 11.6029C4.65871 11.9383 4.92617 12.2172 5.26611 12.2292H12.5113C12.8513 12.2172 13.1188 11.9383 13.111 11.6029L13.1107 11.5927L13.1108 4.56592L13.1108 4.56448C13.1114 4.39497 13.0461 4.23168 12.9283 4.10808L12.9276 4.10739L10.9429 2.05159C10.8362 1.93984 10.6876 1.87603 10.5318 1.875L5.2661 1.875Z" fill="#252525"/>
</svg>
