<svg width="16" height="16" viewBox="0 0 16 16" fill="none" xmlns="http://www.w3.org/2000/svg">
<path d="M6 10C6.55228 10 7 10.4477 7 11V14C7 14.5523 6.55228 15 6 15H2C1.44772 15 1 14.5523 1 14L1 11C1 10.4477 1.44772 10 2 10H6ZM14 7C14.5523 7 15 7.44772 15 8V14C15 14.5523 14.5523 15 14 15H9C8.44772 15 8 14.5523 8 14V8C8 7.44772 8.44772 7 9 7H14ZM2 14H6V11H2V14ZM9 14H14V8H9V14ZM6 1C6.55228 1 7 1.44772 7 2V8C7 8.55228 6.55228 9 6 9H2C1.44772 9 1 8.55228 1 8L1 2C1 1.44772 1.44772 1 2 1L6 1ZM2 8H6V2L2 2L2 8ZM14 1C14.5523 1 15 1.44772 15 2V5C15 5.55228 14.5523 6 14 6H9C8.44772 6 8 5.55228 8 5V2C8 1.44772 8.44772 1 9 1L14 1ZM9 5L14 5V2L9 2V5Z" fill="#252525"/>
</svg>
