<svg width="16" height="16" viewBox="0 0 16 16" fill="none" xmlns="http://www.w3.org/2000/svg">
<path d="M9.5 1.5C10.3284 1.5 11 2.17157 11 3V3.5H14.5C14.7761 3.5 15 3.72386 15 4C15 4.27614 14.7761 4.5 14.5 4.5H13V13C13 13.8284 12.3284 14.5 11.5 14.5H4.5C3.67157 14.5 3 13.8284 3 13L3 4.5H1.5C1.22386 4.5 1 4.27614 1 4C1 3.72386 1.22386 3.5 1.5 3.5H5V3C5 2.17157 5.67157 1.5 6.5 1.5H9.5ZM4 13C4 13.2761 4.22386 13.5 4.5 13.5H11.5C11.7761 13.5 12 13.2761 12 13V4.5L4 4.5L4 13ZM6.5 6.5C6.77614 6.5 7 6.72386 7 7L7 11C7 11.2761 6.77614 11.5 6.5 11.5C6.22386 11.5 6 11.2761 6 11L6 7C6 6.72386 6.22386 6.5 6.5 6.5ZM9.5 6.5C9.77614 6.5 10 6.72386 10 7V11C10 11.2761 9.77614 11.5 9.5 11.5C9.22386 11.5 9 11.2761 9 11V7C9 6.72386 9.22386 6.5 9.5 6.5ZM6.5 2.5C6.22386 2.5 6 2.72386 6 3V3.5L10 3.5V3C10 2.72386 9.77614 2.5 9.5 2.5H6.5Z" fill="#252525"/>
</svg>
