<svg width="16" height="16" viewBox="0 0 16 16" fill="none" xmlns="http://www.w3.org/2000/svg">
<path fill-rule="evenodd" clip-rule="evenodd" d="M7.99786 4.02661C6.58122 4.02377 5.2722 4.78192 4.56969 6.0121C3.96359 7.07345 3.88953 8.34509 4.3445 9.45675L9.48135 4.31939C9.01244 4.1271 8.50832 4.02696 7.99786 4.02661ZM7.99927 3.14926C6.26721 3.14592 4.66676 4.07293 3.80782 5.57703C2.94883 7.08123 2.9638 8.93085 3.84703 10.4209C3.91612 10.5375 4.0352 10.6156 4.16964 10.6325C4.30408 10.6494 4.43879 10.6033 4.53459 10.5074L10.5315 4.50991C10.6273 4.41418 10.6734 4.27961 10.6566 4.14528C10.6398 4.01095 10.5619 3.8919 10.4456 3.8227C9.70545 3.38253 8.8604 3.14989 7.99927 3.14926ZM11.8285 5.31683C11.963 5.33378 12.0821 5.41194 12.1511 5.52856C13.0335 7.01883 13.048 8.86808 12.189 10.372C11.3301 11.8759 9.72992 12.8029 7.998 12.8001C7.13691 12.7991 6.29196 12.5662 5.55187 12.126C5.43552 12.0568 5.35764 11.9378 5.34084 11.8034C5.32404 11.6691 5.37021 11.5345 5.46595 11.4388L11.4635 5.44185C11.5593 5.34602 11.6941 5.29987 11.8285 5.31683ZM6.51613 11.6294C6.98509 11.8218 7.48868 11.9221 7.99923 11.9227C9.41571 11.9251 10.7247 11.1669 11.4272 9.93686C12.0332 8.87575 12.1077 7.60443 11.6533 6.49274L11.3962 5.97555C11.4899 6.164 11.5561 6.29711 11.6533 6.49274L6.51613 11.6294Z" fill="#252525"/>
<path fill-rule="evenodd" clip-rule="evenodd" d="M7.98997 14.1227C11.3769 14.1227 14.1226 11.377 14.1226 7.99001C14.1226 4.60304 11.3769 1.85736 7.98997 1.85736C4.60301 1.85736 1.85733 4.60304 1.85733 7.99001C1.85733 11.377 4.60301 14.1227 7.98997 14.1227ZM7.98997 15C11.8615 15 15 11.8615 15 7.99001C15 4.11849 11.8615 0.980011 7.98997 0.980011C4.11846 0.980011 0.97998 4.11849 0.97998 7.99001C0.97998 11.8615 4.11846 15 7.98997 15Z" fill="#252525"/>
</svg>
