<svg width="16" height="15" viewBox="0 0 16 15" fill="none" xmlns="http://www.w3.org/2000/svg">
<path fill-rule="evenodd" clip-rule="evenodd" d="M6.71429 5.44922C6.71429 4.3166 7.67368 3.39844 8.85714 3.39844L13.5714 3.39844C13.8081 3.39844 14 3.58207 14 3.80859C14 4.03512 13.8081 4.21875 13.5714 4.21875L8.85714 4.21875C8.14706 4.21875 7.57143 4.76965 7.57143 5.44922V7.5C7.57143 7.72652 7.37955 7.91016 7.14286 7.91016C6.90616 7.91016 6.71429 7.72652 6.71429 7.5V5.44922Z" fill="#252525"/>
<path fill-rule="evenodd" clip-rule="evenodd" d="M10.697 1.05763C10.8643 0.897456 11.1357 0.897456 11.303 1.05763L13.8745 3.51857C14.0418 3.67875 14.0418 3.93844 13.8745 4.09862L11.303 6.55956C11.1357 6.71973 10.8643 6.71973 10.697 6.55956C10.5296 6.39938 10.5296 6.13968 10.697 5.97951L12.9653 3.80859L10.697 1.63768C10.5296 1.4775 10.5296 1.21781 10.697 1.05763Z" fill="#252525"/>
<path fill-rule="evenodd" clip-rule="evenodd" d="M3.28571 5.85938C3.04902 5.85938 2.85714 6.04301 2.85714 6.26953L2.85714 12.832C2.85714 13.0586 3.04902 13.2422 3.28571 13.2422H11C11.2367 13.2422 11.4286 13.0586 11.4286 12.832V8.73047C11.4286 8.50395 11.6205 8.32031 11.8571 8.32031C12.0938 8.32031 12.2857 8.50395 12.2857 8.73047V12.832C12.2857 13.5116 11.7101 14.0625 11 14.0625H3.28571C2.57563 14.0625 2 13.5116 2 12.832L2 6.26953C2 5.58996 2.57563 5.03906 3.28571 5.03906H4.57143C4.80812 5.03906 5 5.2227 5 5.44922C5 5.67574 4.80812 5.85938 4.57143 5.85938H3.28571Z" fill="#252525"/>
</svg>
