<svg width="16" height="16" viewBox="0 0 16 16" fill="none" xmlns="http://www.w3.org/2000/svg">
<path fill-rule="evenodd" clip-rule="evenodd" d="M4.03785 4.97161C4.03785 4.45591 4.4559 4.03785 4.9716 4.03785H5.98107C6.49676 4.03785 6.91482 4.45591 6.91482 4.97161V5.98107C6.91482 6.49677 6.49676 6.91482 5.98107 6.91482H4.9716C4.4559 6.91482 4.03785 6.49677 4.03785 5.98107V4.97161ZM4.9716 4.8959C4.92979 4.8959 4.89589 4.92979 4.89589 4.97161V5.98107C4.89589 6.02288 4.92979 6.05678 4.9716 6.05678H5.98107C6.02288 6.05678 6.05678 6.02288 6.05678 5.98107V4.97161C6.05678 4.92979 6.02288 4.8959 5.98107 4.8959H4.9716Z" fill="#252525"/>
<path d="M8.0757 4.46687C8.0757 4.22993 8.26778 4.03785 8.50472 4.03785H10.5237C10.7606 4.03785 10.9527 4.22993 10.9527 4.46687C10.9527 4.70382 10.7606 4.8959 10.5237 4.8959H8.50472C8.26778 4.8959 8.0757 4.70382 8.0757 4.46687Z" fill="#252525"/>
<path d="M8.0757 6.4858C8.0757 6.24886 8.26778 6.05678 8.50472 6.05678L11.5331 6.05678C11.7701 6.05678 11.9621 6.24886 11.9621 6.4858C11.9621 6.72274 11.7701 6.91482 11.5331 6.91482L8.50472 6.91482C8.26778 6.91482 8.0757 6.72274 8.0757 6.4858Z" fill="#252525"/>
<path fill-rule="evenodd" clip-rule="evenodd" d="M4.03785 10.0189C4.03785 9.50323 4.4559 9.08517 4.9716 9.08517H5.98107C6.49676 9.08517 6.91482 9.50323 6.91482 10.0189V11.0284C6.91482 11.5441 6.49676 11.9621 5.98107 11.9621H4.9716C4.4559 11.9621 4.03785 11.5441 4.03785 11.0284V10.0189ZM4.9716 9.94321C4.92979 9.94321 4.89589 9.97711 4.89589 10.0189V11.0284C4.89589 11.0702 4.92979 11.1041 4.9716 11.1041H5.98107C6.02288 11.1041 6.05678 11.0702 6.05678 11.0284V10.0189C6.05678 9.97711 6.02288 9.94321 5.98107 9.94321H4.9716Z" fill="#252525"/>
<path d="M8.0757 9.51419C8.0757 9.27725 8.26778 9.08517 8.50472 9.08517H10.5237C10.7606 9.08517 10.9527 9.27725 10.9527 9.51419C10.9527 9.75113 10.7606 9.94321 10.5237 9.94321H8.50472C8.26778 9.94321 8.0757 9.75113 8.0757 9.51419Z" fill="#252525"/>
<path d="M8.0757 11.5331C8.0757 11.2962 8.26778 11.1041 8.50472 11.1041H11.5331C11.7701 11.1041 11.9621 11.2962 11.9621 11.5331C11.9621 11.7701 11.7701 11.9621 11.5331 11.9621H8.50472C8.26778 11.9621 8.0757 11.7701 8.0757 11.5331Z" fill="#252525"/>
<path fill-rule="evenodd" clip-rule="evenodd" d="M2.01892 1.94321C2.01892 1.42752 2.43698 1.00946 2.95267 1.00946L13.0473 1.00946C13.563 1.00946 13.9811 1.42752 13.9811 1.94321V14.0568C13.9811 14.5725 13.563 14.9905 13.0473 14.9905H2.95267C2.43698 14.9905 2.01892 14.5725 2.01892 14.0568L2.01892 1.94321ZM2.95267 1.8675C2.91086 1.8675 2.87696 1.9014 2.87696 1.94321L2.87696 14.0568C2.87696 14.0769 2.88494 14.0961 2.89914 14.1103C2.91334 14.1245 2.9326 14.1325 2.95267 14.1325H13.0473C13.0891 14.1325 13.123 14.0986 13.123 14.0568V1.94321C13.123 1.9014 13.0891 1.8675 13.0473 1.8675L2.95267 1.8675Z" fill="#252525"/>
</svg>
