<svg width="16" height="16" viewBox="0 0 16 16" fill="none" xmlns="http://www.w3.org/2000/svg">
<path d="M3.91164 1.08642L11.0879 1.08642C11.3819 1.08642 11.649 1.20494 11.8424 1.39628C12.0359 1.58761 12.1561 1.85175 12.1561 2.14256V14.2655H12.5867C12.7677 14.2655 12.9145 14.4107 12.9145 14.5898C12.9145 14.7688 12.7677 14.9136 12.5867 14.9136H2.41331C2.23227 14.9136 2.08548 14.7684 2.08548 14.5898C2.08548 14.4107 2.23227 14.2655 2.41331 14.2655H2.84428L2.84428 2.14256C2.84428 1.85175 2.96411 1.58761 3.15755 1.39628C3.16483 1.38908 3.17167 1.38273 3.17938 1.37638C3.37154 1.1969 3.62961 1.08642 3.91164 1.08642ZM10.1665 6.75189C10.1665 6.57326 10.3133 6.42807 10.4943 6.42807C10.6753 6.42807 10.8221 6.57326 10.8221 6.75189V7.55617C10.8221 7.73522 10.6753 7.88042 10.4943 7.88042C10.3133 7.88042 10.1665 7.73522 10.1665 7.55617V6.75189ZM3.91164 1.7345C3.80422 1.7345 3.70621 1.77513 3.63346 1.84117L3.62062 1.85429C3.54572 1.92837 3.4995 2.03038 3.4995 2.14213L3.4995 14.2651H11.5005V2.14213C11.5005 2.03038 11.4538 1.92837 11.3794 1.85429C11.3045 1.78021 11.2013 1.7345 11.0883 1.7345L3.91164 1.7345Z" fill="#252525"/>
<path fill-rule="evenodd" clip-rule="evenodd" d="M10.4943 6.42807C10.3133 6.42807 10.1665 6.57326 10.1665 6.75189V7.55617C10.1665 7.73522 10.3133 7.88042 10.4943 7.88042C10.6753 7.88042 10.8221 7.73522 10.8221 7.55617V6.75189C10.8221 6.57326 10.6753 6.42807 10.4943 6.42807Z" fill="#252525"/>
</svg>
