<svg width="16" height="15" viewBox="0 0 16 15" fill="none" xmlns="http://www.w3.org/2000/svg">
<path fill-rule="evenodd" clip-rule="evenodd" d="M1 11.2969C1 11.0639 1.19588 10.875 1.4375 10.875L14.5625 10.875C14.8041 10.875 15 11.0639 15 11.2969C15 11.5299 14.8041 11.7188 14.5625 11.7188H1.4375C1.19588 11.7188 1 11.5299 1 11.2969Z" fill="#252525"/>
<path fill-rule="evenodd" clip-rule="evenodd" d="M2.87814 3.40481C3.049 3.24006 3.326 3.24006 3.49686 3.40481L8 7.74713L12.5031 3.40481C12.674 3.24006 12.951 3.24006 13.1219 3.40481C13.2927 3.56957 13.2927 3.83668 13.1219 4.00144L8.61875 8.34372C8.45475 8.50198 8.23202 8.59111 8 8.59111C7.76798 8.59111 7.54547 8.50219 7.38147 8.34394L2.87814 4.00144C2.70729 3.83668 2.70729 3.56957 2.87814 3.40481Z" fill="#252525"/>
</svg>
