<svg width="16" height="15" viewBox="0 0 16 15" fill="none" xmlns="http://www.w3.org/2000/svg">
<path fill-rule="evenodd" clip-rule="evenodd" d="M14.125 9.45312C14.125 9.23739 14.3209 9.0625 14.5625 9.0625C14.8041 9.0625 15 9.23739 15 9.45312V10.2344C15 11.3131 14.0206 12.1875 12.8125 12.1875H3.1875C1.97938 12.1875 1 11.3131 1 10.2344V9.45312C1 9.23739 1.19588 9.0625 1.4375 9.0625C1.67912 9.0625 1.875 9.23739 1.875 9.45312V10.2344C1.875 10.8816 2.46263 11.4062 3.1875 11.4062H12.8125C13.5374 11.4062 14.125 10.8816 14.125 10.2344V9.45312ZM8.30936 9.72934C8.26741 9.76679 8.21907 9.79505 8.16747 9.81411L7.69064 9.72934L5.06564 7.38559C4.89479 7.23304 4.89479 6.98571 5.06564 6.83316C5.23649 6.68061 5.5135 6.68061 5.68436 6.83316L7.5625 8.51007V3.20312C7.5625 2.98739 7.75837 2.8125 8 2.8125C8.24162 2.8125 8.4375 2.98739 8.4375 3.20312V8.51007L10.3156 6.83316C10.4865 6.68061 10.7635 6.68061 10.9344 6.83316C11.1052 6.98571 11.1052 7.23304 10.9344 7.38559L8.30936 9.72934ZM8.16747 9.81411L7.6925 9.73099C7.77152 9.80071 7.88013 9.84375 8 9.84375C8.05932 9.84375 8.11588 9.83321 8.16747 9.81411Z" fill="#252525"/>
</svg>
