<svg width="16" height="16" viewBox="0 0 16 16" fill="none" xmlns="http://www.w3.org/2000/svg">
<path d="M15 8C15 4.17333 11.8267 1 8 1C4.17333 1 1 4.17333 1 8C1 11.8267 4.17333 15 8 15C11.8267 15 15 11.8267 15 8ZM14.0664 8C14.0664 11.36 11.36 14.0664 8 14.0664C4.64 14.0664 1.93359 11.36 1.93359 8C1.93359 4.64 4.64 1.93359 8 1.93359C11.36 1.93359 14.0664 4.64 14.0664 8ZM10.707 8.74707C10.8936 8.56053 10.8933 8.28042 10.707 8.09375C10.5204 8.00043 10.1467 7.99993 9.95996 8.18652L8.4668 9.67969V5.2002C8.4668 4.9202 8.28 4.7334 8 4.7334C7.72 4.7334 7.5332 4.9202 7.5332 5.2002V9.67969L5.94629 8.18652C5.75962 8.00014 5.47954 7.99995 5.29297 8.18652C5.10649 8.3731 5.10661 8.65321 5.29297 8.83984L7.62695 11.1738C7.72 11.174 7.72024 11.2666 7.81348 11.2666C7.90681 11.3599 8.09319 11.3599 8.18652 11.2666C8.27642 11.2666 8.36656 11.1802 8.37305 11.1738L10.707 8.74707Z" fill="#252525"/>
</svg>
