<svg width="16" height="16" viewBox="0 0 16 16" fill="none" xmlns="http://www.w3.org/2000/svg">
<path fill-rule="evenodd" clip-rule="evenodd" d="M12.3595 1.00006C13.0608 0.995313 13.7355 1.27086 14.2325 1.76569L14.2335 1.76764C14.7285 2.26445 15.0048 2.93838 15.0001 3.63971C14.9954 4.3399 14.7112 5.00922 14.211 5.49908L5.89267 13.8165C5.89107 13.8181 5.8904 13.8207 5.88877 13.8223C5.88764 13.8235 5.88599 13.8241 5.88486 13.8253L5.83115 13.8721C5.77391 13.9159 5.70803 13.9479 5.63779 13.9659L1.67197 14.9835C1.48797 15.0305 1.29275 14.9769 1.1583 14.8428C1.02381 14.7084 0.969597 14.5124 1.0167 14.3282L2.0333 10.3624C2.04749 10.307 2.07023 10.2539 2.10068 10.2061C2.10406 10.2008 2.10784 10.1957 2.11142 10.1905C2.12986 10.1637 2.15077 10.1385 2.17392 10.1153L10.5001 1.78912C10.99 1.28914 11.6594 1.00492 12.3595 1.00006ZM2.28623 13.7139L4.45908 13.1553L2.84189 11.5421L2.28623 13.7139ZM3.31748 10.4942L5.50595 12.6797L12.8321 5.35455L10.6446 3.16705L3.31748 10.4942ZM12.3673 2.07721C12.0191 2.07957 11.6851 2.20016 11.4151 2.41412L13.5851 4.58404C13.7991 4.31431 13.9205 3.98094 13.9229 3.63287C13.9257 3.21935 13.7634 2.82149 13.4718 2.52838C13.1785 2.23678 12.7809 2.07442 12.3673 2.07721Z" fill="#252525"/>
</svg>
