<svg width="16" height="16" viewBox="0 0 16 16" fill="none" xmlns="http://www.w3.org/2000/svg">
<path fill-rule="evenodd" clip-rule="evenodd" d="M10.4547 8.9411C10.5629 8.89655 10.6845 8.89655 10.7926 8.9411L14.7282 10.562C14.8957 10.631 15.0035 10.7948 14.9999 10.9747C14.9963 11.1547 14.882 11.3141 14.7118 11.3764L10.7763 12.8176C10.6778 12.8536 10.5696 12.8536 10.4711 12.8176L6.53556 11.3764C6.3654 11.3141 6.25108 11.1547 6.24746 10.9747C6.24384 10.7948 6.35168 10.631 6.5192 10.562L10.4547 8.9411ZM7.89614 10.9421L10.6237 11.9409L13.3512 10.9421L10.6237 9.81873L7.89614 10.9421Z" fill="#252525"/>
<path fill-rule="evenodd" clip-rule="evenodd" d="M6.68815 10.5163C6.93159 10.5163 7.12893 10.7122 7.12893 10.9538V13.1532C7.12893 13.3948 6.93159 13.5906 6.68815 13.5906C6.44472 13.5906 6.24737 13.3948 6.24737 13.1532V10.9538C6.24737 10.7122 6.44472 10.5163 6.68815 10.5163Z" fill="#252525"/>
<path fill-rule="evenodd" clip-rule="evenodd" d="M8.43729 11.169C8.68072 11.169 8.87807 11.3648 8.87807 11.6064V13.4254L10.6254 14.1255C10.868 14.1356 11.0568 14.3385 11.0474 14.5795C11.038 14.8209 10.8332 15.009 10.5899 14.9997C10.4898 14.9958 10.3903 14.9749 10.2958 14.9369L8.54707 14.2372C8.2118 14.1029 7.99522 13.7788 7.99651 13.4223L7.99651 13.421L8.43729 13.4232L7.99651 13.4223V11.6064C7.99651 11.3648 8.19385 11.169 8.43729 11.169Z" fill="#252525"/>
<path fill-rule="evenodd" clip-rule="evenodd" d="M12.8668 11.169C12.6234 11.169 12.4261 11.3648 12.4261 11.6064V13.4254L10.6787 14.1255C10.4361 14.1356 10.2473 14.3385 10.2567 14.5795C10.2661 14.8209 10.4709 15.009 10.7142 14.9997C10.8143 14.9958 10.9138 14.9749 11.0083 14.9369L12.757 14.2372C13.0923 14.1029 13.3089 13.7788 13.3076 13.4223L13.3076 13.421L12.8668 13.4232L13.3076 13.4223V11.6064C13.3076 11.3648 13.1103 11.169 12.8668 11.169Z" fill="#252525"/>
<path fill-rule="evenodd" clip-rule="evenodd" d="M2.31185 3.18719C2.31185 1.98253 3.289 1 4.50175 1C5.71451 1 6.69166 1.98253 6.69166 3.18719C6.69166 4.39185 5.71451 5.37438 4.50175 5.37438C3.289 5.37438 2.31185 4.39185 2.31185 3.18719ZM4.50175 1.87488C3.78248 1.87488 3.19341 2.45913 3.19341 3.18719C3.19341 3.91525 3.78248 4.4995 4.50175 4.4995C5.22103 4.4995 5.8101 3.91525 5.8101 3.18719C5.8101 2.45913 5.22103 1.87488 4.50175 1.87488Z" fill="#252525"/>
<path fill-rule="evenodd" clip-rule="evenodd" d="M3.59993 5.49326C5.13525 5.08411 6.75161 5.75916 7.54053 7.13395C7.661 7.34389 7.58717 7.61099 7.37563 7.73055C7.1641 7.8501 6.89495 7.77683 6.77448 7.5669C6.18251 6.53531 4.97345 6.0331 3.82855 6.3382C2.68305 6.64346 1.88214 7.68234 1.88156 8.87388V9.74875H2.75262C2.97921 9.74875 3.16888 9.91924 3.19125 10.143L3.58912 14.1231H5.8136C6.05703 14.1231 6.25438 14.319 6.25438 14.5606C6.25438 14.8022 6.05703 14.998 5.8136 14.998H3.18991C2.96332 14.998 2.77365 14.8275 2.75128 14.6038L2.35341 10.6236H1.44078C1.19734 10.6236 1 10.4278 1 10.1862L1 8.87388C1.00067 7.2908 2.06525 5.90223 3.59993 5.49326Z" fill="#252525"/>
<path fill-rule="evenodd" clip-rule="evenodd" d="M8.65243 2.96847C8.65243 1.88461 9.53171 1 10.6237 1C11.7157 1 12.595 1.88461 12.595 2.96847C12.595 4.05233 11.7157 4.93694 10.6237 4.93694C9.53171 4.93694 8.65243 4.05233 8.65243 2.96847ZM10.6237 1.87488C10.0252 1.87488 9.53399 2.36121 9.53399 2.96847C9.53399 3.57573 10.0252 4.06206 10.6237 4.06206C11.2222 4.06206 11.7134 3.57573 11.7134 2.96847C11.7134 2.36121 11.2222 1.87488 10.6237 1.87488Z" fill="#252525"/>
<path fill-rule="evenodd" clip-rule="evenodd" d="M8.31707 5.54861C8.96728 4.80426 9.93773 4.41851 10.9234 4.51461C11.9089 4.61069 12.7861 5.17646 13.28 6.03174C13.401 6.24134 13.3279 6.50865 13.1167 6.62878C12.9055 6.74891 12.6362 6.67637 12.5151 6.46677C12.1621 5.8554 11.5368 5.4535 10.8372 5.38529C10.1376 5.31708 9.44709 5.5906 8.98317 6.12168C8.82372 6.30422 8.54534 6.32392 8.3614 6.16567C8.17746 6.00742 8.15761 5.73115 8.31707 5.54861Z" fill="#252525"/>
</svg>
