<svg width="16" height="16" viewBox="0 0 16 16" fill="none" xmlns="http://www.w3.org/2000/svg">
<path fill-rule="evenodd" clip-rule="evenodd" d="M6.99686 9.00314C7.16771 9.174 7.16771 9.45101 6.99686 9.62186L1.74686 14.8719C1.576 15.0427 1.299 15.0427 1.12814 14.8719C0.957286 14.701 0.957286 14.424 1.12814 14.2531L6.37814 9.00314C6.549 8.83229 6.826 8.83229 6.99686 9.00314Z" fill="#252525"/>
<path fill-rule="evenodd" clip-rule="evenodd" d="M10.1875 1.4375C10.1875 1.19588 10.3834 1 10.625 1L14.5625 1C14.8041 1 15 1.19588 15 1.4375V5.375C15 5.61662 14.8041 5.8125 14.5625 5.8125C14.3209 5.8125 14.125 5.61662 14.125 5.375V1.875L10.625 1.875C10.3834 1.875 10.1875 1.67912 10.1875 1.4375Z" fill="#252525"/>
<path fill-rule="evenodd" clip-rule="evenodd" d="M1.4375 10.1875C1.67912 10.1875 1.875 10.3834 1.875 10.625L1.875 14.125H5.375C5.61662 14.125 5.8125 14.3209 5.8125 14.5625C5.8125 14.8041 5.61662 15 5.375 15H1.4375C1.19588 15 1 14.8041 1 14.5625L1 10.625C1 10.3834 1.19588 10.1875 1.4375 10.1875Z" fill="#252525"/>
<path fill-rule="evenodd" clip-rule="evenodd" d="M14.8719 1.12814C15.0427 1.299 15.0427 1.576 14.8719 1.74686L9.62186 6.99686C9.45101 7.16771 9.174 7.16771 9.00314 6.99686C8.83229 6.826 8.83229 6.549 9.00314 6.37814L14.2531 1.12814C14.424 0.957286 14.701 0.957286 14.8719 1.12814Z" fill="#252525"/>
</svg>
