<svg width="16" height="16" viewBox="0 0 16 16" fill="none" xmlns="http://www.w3.org/2000/svg">
<path d="M8.4875 1.09138C8.1625 1.1792 8 1.53048 8 1.88177V3.63818H5.15625C3.125 3.63818 1.5 5.3946 1.5 7.59012V11.103C1.5 11.8055 2.06875 12.4203 2.71875 12.4203H8V14.1767C8 14.528 8.1625 14.8792 8.4875 14.9671C8.8125 15.0549 9.1375 14.9671 9.38125 14.7036L14.175 8.90743C14.4188 8.64397 14.5 8.38051 14.5 8.02922C14.5 7.67794 14.4188 7.41448 14.175 7.15101L9.38125 1.26702C9.1375 1.00356 8.8125 0.915737 8.4875 1.09138ZM4.75 4.51639V6.71191C4.75 6.97537 4.5875 7.15101 4.34375 7.15101H2.3125C2.55625 5.8337 3.53125 4.77985 4.75 4.51639ZM13.6062 7.76576C13.7687 7.9414 13.7687 8.20486 13.6062 8.38051L8.8125 14.1767V11.9812C8.8125 11.7177 8.65 11.5421 8.40625 11.5421H2.71875C2.475 11.5421 2.3125 11.3664 2.3125 11.103V8.02922H4.34375C4.99375 8.02922 5.5625 7.41448 5.5625 6.71191V4.51639H8.40625C8.65 4.51639 8.8125 4.34075 8.8125 4.07729V1.88177L13.6062 7.76576Z" fill="#252525"/>
</svg>
