<svg width="16" height="16" viewBox="0 0 16 16" fill="none" xmlns="http://www.w3.org/2000/svg">
<path d="M7.475 14.4151C7.825 14.3336 8 14.0074 8 13.6812L8 12.0503H11.0625C13.25 12.0503 15 10.4193 15 8.3806V5.11869C15 4.4663 14.3875 3.89547 13.6875 3.89547L8 3.89547V2.26451C8 1.93832 7.825 1.61213 7.475 1.53058C7.125 1.44903 6.775 1.53058 6.5125 1.77522L1.35 7.15739C1.0875 7.40203 1 7.64667 1 7.97286C1 8.29906 1.0875 8.5437 1.35 8.78834L6.5125 14.2521C6.775 14.4967 7.125 14.5782 7.475 14.4151ZM11.5 11.2348L11.5 9.19608C11.5 8.95144 11.675 8.78834 11.9375 8.78834H14.125C13.8625 10.0116 12.8125 10.9901 11.5 11.2348ZM1.9625 8.21751C1.7875 8.05441 1.7875 7.80977 1.9625 7.64667L7.125 2.26451V4.30321C7.125 4.54785 7.3 4.71095 7.5625 4.71095L13.6875 4.71095C13.95 4.71095 14.125 4.87404 14.125 5.11869V7.97286H11.9375C11.2375 7.97286 10.625 8.5437 10.625 9.19608V11.2348L7.5625 11.2348C7.3 11.2348 7.125 11.3979 7.125 11.6425L7.125 13.6812L1.9625 8.21751Z" fill="#252525"/>
</svg>
