<svg width="16" height="16" viewBox="0 0 16 16" fill="none" xmlns="http://www.w3.org/2000/svg">
<path d="M1.09138 7.475C1.1792 7.825 1.53048 8 1.88177 8H3.63818V11.0625C3.63818 13.25 5.3946 15 7.59012 15H11.103C11.8055 15 12.4203 14.3875 12.4203 13.6875V8H14.1767C14.528 8 14.8792 7.825 14.9671 7.475C15.0549 7.125 14.9671 6.775 14.7036 6.5125L8.90743 1.35C8.64397 1.0875 8.38051 1 8.02922 1C7.67794 1 7.41448 1.0875 7.15101 1.35L1.26702 6.5125C1.00356 6.775 0.915737 7.125 1.09138 7.475ZM4.51639 11.5V13.125H4.34075C4.07729 13.8625 5.8337 13.8625 4.51639 11.5ZM7.76576 1.9625C7.9414 1.7875 8.20486 1.7875 8.38051 1.9625L14.1767 7.125H11.9812C11.7177 7.125 11.5421 7.3 11.5421 7.5625V13.6875C11.5421 13.95 11.3664 14.125 11.103 14.125H8.02922V11.9375C8.02922 11.2375 7.41448 10.625 6.71191 10.625H4.51639V7.5625C4.51639 7.3 4.34075 7.125 4.07729 7.125H1.88177L7.76576 1.9625Z" fill="#252525"/>
</svg>
