<svg width="15" height="16" viewBox="0 0 15 16" fill="none" xmlns="http://www.w3.org/2000/svg">
<path fill-rule="evenodd" clip-rule="evenodd" d="M6.84697 2.57436C7.01146 2.37296 7.24962 2.25735 7.50003 2.25735C7.75045 2.25735 7.9886 2.37296 8.15309 2.57437C8.16502 2.58896 8.17613 2.6043 8.18637 2.62028L10.37 6.02728C10.3809 6.04425 10.3978 6.05571 10.4168 6.05899C10.4359 6.06227 10.4553 6.05707 10.4707 6.04462L12.6631 4.26378C12.6862 4.24503 12.7108 4.22862 12.7368 4.21477C13.0253 4.0608 13.3701 4.09041 13.6319 4.29163C13.8928 4.49223 14.028 4.83084 13.9836 5.17044L13.3225 10.4862C13.3193 10.5125 13.3293 10.5388 13.349 10.5551C13.7406 10.8814 13.9922 11.3896 13.9922 11.9605C13.9922 12.9447 13.2442 13.7426 12.3214 13.7426H2.67857C1.75584 13.7426 1.00781 12.9447 1.00781 11.9605C1.00781 11.3896 1.2594 10.8814 1.65104 10.5551C1.67069 10.5388 1.68074 10.5125 1.67746 10.4862L1.0164 5.1704C0.971978 4.83083 1.10731 4.49278 1.3682 4.2922C1.62992 4.09098 1.97473 4.06137 2.26326 4.21534C2.2892 4.22918 2.31386 4.24557 2.33694 4.26431L4.5294 6.04464C4.54474 6.05709 4.56419 6.06229 4.58321 6.05901C4.60223 6.05573 4.61916 6.04426 4.63004 6.02729L6.81369 2.62028C6.82394 2.60429 6.83505 2.58896 6.84697 2.57436ZM7.55808 3.39921C7.54497 3.37876 7.52325 3.36654 7.50003 3.36654C7.47681 3.36654 7.45509 3.37876 7.44199 3.39921L5.3187 6.71203C5.18155 6.92591 4.96651 7.06873 4.72606 7.10553C4.48907 7.14181 4.24875 7.07194 4.06188 6.91282L2.09429 5.31509C2.07169 5.29674 2.04096 5.2947 2.0164 5.30991C1.99183 5.32512 1.97826 5.3546 1.982 5.38463L2.5701 10.1137C2.57483 10.1517 2.60559 10.1797 2.64147 10.1788C2.65354 10.1785 2.66562 10.1783 2.6777 10.1783L12.3214 10.1783C12.3337 10.1783 12.3464 10.1785 12.3586 10.1788C12.3944 10.1797 12.4252 10.1516 12.4299 10.1137L13.0181 5.38415C13.0218 5.35411 13.0082 5.32463 12.9837 5.30942C12.9591 5.29421 12.9284 5.29626 12.9058 5.31462L10.9395 6.91175L10.9382 6.91282C10.7513 7.07195 10.511 7.14181 10.274 7.10553C10.0335 7.06873 9.81859 6.92601 9.68143 6.71215L7.55808 3.39921ZM2.67857 11.1712L2.6672 11.1713C2.56732 11.1733 2.46856 11.1972 2.37757 11.2414C2.36935 11.2454 2.36094 11.2488 2.35255 11.2521L2.34929 11.2534L2.34235 11.2572C2.10284 11.3877 1.93862 11.6536 1.93862 11.9605C1.93862 12.3964 2.26991 12.7498 2.67857 12.7498H12.3214C12.7301 12.7498 13.0614 12.3964 13.0614 11.9605C13.0614 11.6514 12.895 11.3837 12.6527 11.2542L12.6466 11.2517C12.6387 11.2484 12.6308 11.2448 12.623 11.241C12.5347 11.1983 12.4392 11.1747 12.3425 11.1715C12.3355 11.1713 12.3285 11.1712 12.3214 11.1712H2.67857Z" fill="#252525"/>
</svg>
