<svg width="16" height="16" viewBox="0 0 16 16" fill="none" xmlns="http://www.w3.org/2000/svg">
<path fill-rule="evenodd" clip-rule="evenodd" d="M2.67409 10.2055C2.67409 9.98392 2.85367 9.80431 3.0752 9.80431H7.08634C7.30787 9.80431 7.48746 9.98392 7.48746 10.2055C7.48746 10.427 7.30787 10.6066 7.08634 10.6066H3.0752C2.85367 10.6066 2.67409 10.427 2.67409 10.2055Z" fill="#252525"/>
<path fill-rule="evenodd" clip-rule="evenodd" d="M2.67409 4.41093C2.67409 4.18938 2.85367 4.00977 3.0752 4.00977H11.5432C11.7647 4.00977 11.9443 4.18938 11.9443 4.41093C11.9443 4.63249 11.7647 4.81209 11.5432 4.81209H3.0752C2.85367 4.81209 2.67409 4.63249 2.67409 4.41093Z" fill="#252525"/>
<path fill-rule="evenodd" clip-rule="evenodd" d="M2.67409 7.08534C2.67409 6.86378 2.85367 6.68418 3.0752 6.68418L8.86907 6.68418C9.0906 6.68418 9.27019 6.86378 9.27019 7.08534C9.27019 7.30689 9.0906 7.4865 8.86907 7.4865L3.0752 7.4865C2.85367 7.4865 2.67409 7.30689 2.67409 7.08534Z" fill="#252525"/>
<path fill-rule="evenodd" clip-rule="evenodd" d="M8.05 2.32931C7.6869 1.48197 6.48579 1.48197 6.12268 2.32931C6.05662 2.48347 5.90505 2.58342 5.73735 2.58342H1.69359L1.69359 13.3702H9.31475C9.53628 13.3702 9.71587 13.5498 9.71587 13.7713C9.71587 13.9929 9.53628 14.1725 9.31475 14.1725H1.47074C1.15076 14.1725 0.891357 13.9131 0.891357 13.593L0.891357 2.36056C0.891357 2.04053 1.15076 1.7811 1.47074 1.7811L5.50337 1.7811C6.21046 0.594938 7.96223 0.594938 8.66931 1.7811L13.1476 1.7811C13.4676 1.7811 13.727 2.04053 13.727 2.36056V8.86827C13.727 9.08983 13.5474 9.26943 13.3259 9.26943C13.1044 9.26943 12.9248 9.08983 12.9248 8.86827V2.58342L8.43534 2.58342C8.26764 2.58342 8.11607 2.48347 8.05 2.32931Z" fill="#252525"/>
<path fill-rule="evenodd" clip-rule="evenodd" d="M12.9209 10.4303C13.0981 10.5632 13.134 10.8147 13.0011 10.9919L11.7874 12.6104C11.5758 12.8925 11.1635 12.9218 10.9142 12.6724L10.1682 11.9263C10.0115 11.7697 10.0115 11.5157 10.1682 11.359C10.3248 11.2023 10.5788 11.2023 10.7354 11.359L11.2998 11.9234L12.3593 10.5105C12.4922 10.3333 12.7437 10.2973 12.9209 10.4303Z" fill="#252525"/>
<path fill-rule="evenodd" clip-rule="evenodd" d="M11.5432 14.2171C13.02 14.2171 14.2173 13.0197 14.2173 11.5427C14.2173 10.0656 13.02 8.86827 11.5432 8.86827C10.0663 8.86827 8.86907 10.0656 8.86907 11.5427C8.86907 13.0197 10.0663 14.2171 11.5432 14.2171ZM11.5432 15.1085C13.5123 15.1085 15.1086 13.512 15.1086 11.5427C15.1086 9.5733 13.5123 7.9768 11.5432 7.9768C9.57402 7.9768 7.97771 9.5733 7.97771 11.5427C7.97771 13.512 9.57402 15.1085 11.5432 15.1085Z" fill="#252525"/>
</svg>
