<svg width="16" height="16" viewBox="0 0 16 16" fill="none" xmlns="http://www.w3.org/2000/svg">
<path fill-rule="evenodd" clip-rule="evenodd" d="M7.11114 11.1111C7.11114 8.90197 8.902 7.11111 11.1111 7.11111C13.3203 7.11111 15.1111 8.90197 15.1111 11.1111C15.1111 13.3202 13.3203 15.1111 11.1111 15.1111C8.902 15.1111 7.11114 13.3202 7.11114 11.1111ZM11.1111 8C9.39292 8 8.00003 9.39289 8.00003 11.1111C8.00003 12.8293 9.39292 14.2222 11.1111 14.2222C12.8294 14.2222 14.2222 12.8293 14.2222 11.1111C14.2222 9.39289 12.8294 8 11.1111 8Z" fill="#252525"/>
<path fill-rule="evenodd" clip-rule="evenodd" d="M11.1111 8.88889C11.3566 8.88889 11.5556 9.08787 11.5556 9.33333V12.8889C11.5556 13.1343 11.3566 13.3333 11.1111 13.3333C10.8657 13.3333 10.6667 13.1343 10.6667 12.8889V9.33333C10.6667 9.08787 10.8657 8.88889 11.1111 8.88889Z" fill="#252525"/>
<path fill-rule="evenodd" clip-rule="evenodd" d="M8.88892 11.1111C8.88892 10.8656 9.0879 10.6667 9.33336 10.6667H12.8889C13.1344 10.6667 13.3334 10.8656 13.3334 11.1111C13.3334 11.3566 13.1344 11.5556 12.8889 11.5556H9.33336C9.0879 11.5556 8.88892 11.3566 8.88892 11.1111Z" fill="#252525"/>
<path fill-rule="evenodd" clip-rule="evenodd" d="M2.66669 4.88889C2.66669 4.64343 2.86568 4.44444 3.11114 4.44444H9.33336C9.57882 4.44444 9.77781 4.64343 9.77781 4.88889C9.77781 5.13435 9.57882 5.33333 9.33336 5.33333L3.11114 5.33333C2.86568 5.33333 2.66669 5.13435 2.66669 4.88889Z" fill="#252525"/>
<path fill-rule="evenodd" clip-rule="evenodd" d="M2.66669 7.55555C2.66669 7.31009 2.86568 7.11111 3.11114 7.11111H6.66669C6.91215 7.11111 7.11114 7.31009 7.11114 7.55555C7.11114 7.80101 6.91215 8 6.66669 8H3.11114C2.86568 8 2.66669 7.80101 2.66669 7.55555Z" fill="#252525"/>
<path fill-rule="evenodd" clip-rule="evenodd" d="M2.66669 10.2222C2.66669 9.97676 2.86568 9.77777 3.11114 9.77777H5.33336C5.57882 9.77777 5.7778 9.97676 5.7778 10.2222C5.7778 10.4677 5.57882 10.6667 5.33336 10.6667H3.11114C2.86568 10.6667 2.66669 10.4677 2.66669 10.2222Z" fill="#252525"/>
<path fill-rule="evenodd" clip-rule="evenodd" d="M2.22225 1.77777C1.97679 1.77777 1.7778 1.97676 1.7778 2.22222L1.7778 12C1.7778 12.2455 1.97679 12.4444 2.22225 12.4444H5.33336C5.57882 12.4444 5.7778 12.6434 5.7778 12.8889C5.7778 13.1343 5.57882 13.3333 5.33336 13.3333H2.22225C1.48587 13.3333 0.888916 12.7364 0.888916 12L0.888916 2.22222C0.888916 1.48584 1.48587 0.888885 2.22225 0.888885L8.52092 0.888885C8.87429 0.888961 9.21328 1.02931 9.46323 1.27911L11.1653 2.98113C11.4151 3.23109 11.5555 3.57008 11.5556 3.92346V5.33333C11.5556 5.57879 11.3566 5.77777 11.1111 5.77777C10.8657 5.77777 10.6667 5.57879 10.6667 5.33333V3.92365C10.6666 3.80589 10.6199 3.69287 10.5366 3.60957L8.8349 1.90785C8.75161 1.82467 8.63863 1.77782 8.52092 1.77777L2.22225 1.77777Z" fill="#252525"/>
</svg>
