<svg width="15" height="16" viewBox="0 0 15 16" fill="none" xmlns="http://www.w3.org/2000/svg">
<path fill-rule="evenodd" clip-rule="evenodd" d="M6.63332 10.9236C6.63332 8.88709 8.31225 7.23614 10.3833 7.23614C12.4544 7.23614 14.1333 8.88709 14.1333 10.9236C14.1333 12.9602 12.4544 14.6111 10.3833 14.6111C8.31225 14.6111 6.63332 12.9602 6.63332 10.9236ZM10.3833 8.05559C8.77249 8.05559 7.46665 9.33966 7.46665 10.9236C7.46665 12.5076 8.77249 13.7917 10.3833 13.7917C11.9942 13.7917 13.3 12.5076 13.3 10.9236C13.3 9.33966 11.9942 8.05559 10.3833 8.05559Z" fill="#252525"/>
<path fill-rule="evenodd" clip-rule="evenodd" d="M10.3833 9.06514C10.6134 9.06514 10.8 9.24858 10.8 9.47487V10.5139H11.8567C12.0868 10.5139 12.2733 10.6974 12.2733 10.9236C12.2733 11.1499 12.0868 11.3334 11.8567 11.3334H10.3833C10.1532 11.3334 9.96665 11.1499 9.96665 10.9236V9.47487C9.96665 9.24858 10.1532 9.06514 10.3833 9.06514Z" fill="#252525"/>
<path fill-rule="evenodd" clip-rule="evenodd" d="M2.46665 5.18753C2.46665 4.96125 2.6532 4.77781 2.88332 4.77781H8.71665C8.94677 4.77781 9.13332 4.96125 9.13332 5.18753C9.13332 5.41381 8.94677 5.59725 8.71665 5.59725L2.88332 5.59725C2.6532 5.59725 2.46665 5.41381 2.46665 5.18753Z" fill="#252525"/>
<path fill-rule="evenodd" clip-rule="evenodd" d="M2.46665 7.64587C2.46665 7.41958 2.6532 7.23614 2.88332 7.23614H6.21665C6.44677 7.23614 6.63332 7.41958 6.63332 7.64587C6.63332 7.87215 6.44677 8.05559 6.21665 8.05559H2.88332C2.6532 8.05559 2.46665 7.87215 2.46665 7.64587Z" fill="#252525"/>
<path fill-rule="evenodd" clip-rule="evenodd" d="M2.46665 10.1042C2.46665 9.87792 2.6532 9.69448 2.88332 9.69448H4.96665C5.19677 9.69448 5.38332 9.87792 5.38332 10.1042C5.38332 10.3305 5.19677 10.5139 4.96665 10.5139H2.88332C2.6532 10.5139 2.46665 10.3305 2.46665 10.1042Z" fill="#252525"/>
<path fill-rule="evenodd" clip-rule="evenodd" d="M2.04999 2.31948C1.81987 2.31948 1.63332 2.50291 1.63332 2.7292L1.63332 11.7431C1.63332 11.9694 1.81987 12.1528 2.04999 12.1528H4.96665C5.19677 12.1528 5.38332 12.3363 5.38332 12.5625C5.38332 12.7888 5.19677 12.9723 4.96665 12.9723H2.04999C1.35963 12.9723 0.799988 12.4219 0.799988 11.7431L0.799988 2.7292C0.799988 2.05035 1.35963 1.50003 2.04999 1.50003L7.95499 1.50003C8.28628 1.5001 8.60408 1.62949 8.83841 1.85977L10.4341 3.42882C10.6682 3.65925 10.7999 3.97176 10.8 4.29753V5.59725C10.8 5.82354 10.6134 6.00698 10.3833 6.00698C10.1532 6.00698 9.96665 5.82354 9.96665 5.59725V4.2977C9.96661 4.18914 9.92275 4.08495 9.84471 4.00817L8.24934 2.43939C8.17126 2.36271 8.06534 2.31952 7.95499 2.31948L2.04999 2.31948Z" fill="#252525"/>
</svg>
