<svg width="15" height="16" viewBox="0 0 15 16" fill="none" xmlns="http://www.w3.org/2000/svg">
<path d="M7.5 1C7.99728 1 8.47454 1.21086 8.82617 1.58594C8.94295 1.71055 9.04284 1.85 9.12402 2L13.125 2C13.6428 2 14.0625 2.44772 14.0625 3V14C14.0625 14.5523 13.6428 15 13.125 15H1.875C1.35723 15 0.9375 14.5523 0.9375 14L0.9375 3C0.9375 2.44772 1.35723 2 1.875 2L5.87598 2C5.95716 1.85001 6.05705 1.71055 6.17383 1.58594C6.52546 1.21086 7.00272 1 7.5 1ZM7.5 2C7.25136 2 7.01273 2.10543 6.83691 2.29297C6.66117 2.48049 6.5625 2.73484 6.5625 3L1.875 3L1.875 14H13.125V3L8.4375 3C8.4375 2.73484 8.33883 2.48049 8.16309 2.29297C7.98727 2.10543 7.74864 2 7.5 2ZM8.875 11C9.15114 11 9.375 11.2239 9.375 11.5C9.375 11.7761 9.15114 12 8.875 12H4.25C3.97386 12 3.75 11.7761 3.75 11.5C3.75 11.2239 3.97386 11 4.25 11H8.875ZM10.75 8C11.0261 8 11.25 8.22386 11.25 8.5C11.25 8.77614 11.0261 9 10.75 9H4.25C3.97386 9 3.75 8.77614 3.75 8.5C3.75 8.22386 3.97386 8 4.25 8L10.75 8ZM10.75 5C11.0261 5 11.25 5.22386 11.25 5.5C11.25 5.77614 11.0261 6 10.75 6L4.25 6C3.97386 6 3.75 5.77614 3.75 5.5C3.75 5.22386 3.97386 5 4.25 5H10.75Z" fill="#252525"/>
</svg>
