<svg width="16" height="16" viewBox="0 0 16 16" fill="none" xmlns="http://www.w3.org/2000/svg">
<path fill-rule="evenodd" clip-rule="evenodd" d="M3.56062 0.891632L12.3963 0.891632C13.0274 0.891918 13.5966 1.27222 13.8381 1.85535C14.0796 2.43848 13.9462 3.10966 13.5 3.55609L9.99997 8V11.5987C9.99997 11.7314 9.94729 11.8585 9.85351 11.9523L6.85354 14.8916C6.71054 15.0346 6.49548 15.0774 6.30865 15C6.12182 14.9226 6 14.7403 6 14.5381L6 8L2.45702 3.5562C2.01084 3.10977 1.8773 2.43848 2.11881 1.85535C2.36032 1.27222 2.92946 0.891918 3.56062 0.891632ZM12.3962 1.89163L3.56062 1.89163L12.3962 1.89163ZM3.56062 1.89163C3.33383 1.89183 3.12947 2.02851 3.04271 2.23799C2.95594 2.44749 3.00384 2.68862 3.1641 2.84907L6.85354 7.43932C6.94732 7.53309 7 7.66027 7 7.79288L7 13.331L8.99997 11.3916V7.79288C8.99997 7.66027 9.05265 7.53309 9.14643 7.43932L12.7927 2.84918C12.953 2.68874 13.001 2.44749 12.9142 2.23799C12.8274 2.02851 12.623 1.89183 12.3962 1.89163" fill="#252525"/>
</svg>
