<svg width="16" height="16" viewBox="0 0 16 16" fill="none" xmlns="http://www.w3.org/2000/svg">
<path d="M5.5 10C6.70949 10 7.71858 10.8589 7.9502 12H14.5C14.7761 12 15 12.2239 15 12.5C15 12.7761 14.7761 13 14.5 13H7.9502C7.71858 14.1411 6.70949 15 5.5 15C4.29051 15 3.28142 14.1411 3.0498 13H1.5C1.22386 13 1 12.7761 1 12.5C1 12.2239 1.22386 12 1.5 12H3.0498C3.28142 10.8589 4.29051 10 5.5 10ZM5.5 11.0049C4.67447 11.0049 4.00488 11.6745 4.00488 12.5C4.00488 13.3255 4.67447 13.9951 5.5 13.9951C6.32553 13.9951 6.99512 13.3255 6.99512 12.5C6.99512 11.6745 6.32553 11.0049 5.5 11.0049ZM10.5 6C11.7095 6 12.7186 6.85886 12.9502 8H14.5C14.7761 8 15 8.22386 15 8.5C15 8.77614 14.7761 9 14.5 9H12.9502C12.7186 10.1411 11.7095 11 10.5 11C9.29051 11 8.28142 10.1411 8.0498 9H1.5C1.22386 9 1 8.77614 1 8.5C1 8.22386 1.22386 8 1.5 8H8.0498C8.28142 6.85886 9.29051 6 10.5 6ZM10.5 7.00488C9.67447 7.00488 9.00488 7.67447 9.00488 8.5C9.00488 9.32553 9.67447 9.99512 10.5 9.99512C11.3255 9.99512 11.9951 9.32553 11.9951 8.5C11.9951 7.67447 11.3255 7.00488 10.5 7.00488ZM7.5 1C8.70949 1 9.71858 1.85886 9.9502 3H14.5C14.7761 3 15 3.22386 15 3.5C15 3.77614 14.7761 4 14.5 4L9.9502 4C9.71858 5.14114 8.70949 6 7.5 6C6.29051 6 5.28142 5.14114 5.0498 4L1.5 4C1.22386 4 1 3.77614 1 3.5C1 3.22386 1.22386 3 1.5 3H5.0498C5.28142 1.85886 6.29051 1 7.5 1ZM7.5 2.00488C6.67447 2.00488 6.00488 2.67447 6.00488 3.5C6.00488 4.32553 6.67447 4.99512 7.5 4.99512C8.32553 4.99512 8.99512 4.32553 8.99512 3.5C8.99512 2.67447 8.32553 2.00488 7.5 2.00488Z" fill="#252525"/>
</svg>
