<svg width="16" height="16" viewBox="0 0 16 16" fill="none" xmlns="http://www.w3.org/2000/svg">
<path d="M8 1C11.866 1 15 4.13401 15 8C15 11.866 11.866 15 8 15C4.13401 15 1 11.866 1 8C1 4.13401 4.13401 1 8 1ZM8 1.875C4.61726 1.875 1.875 4.61726 1.875 8C1.875 11.3827 4.61726 14.125 8 14.125C11.3827 14.125 14.125 11.3827 14.125 8C14.125 4.61726 11.3827 1.875 8 1.875ZM8.4375 3.625C8.67912 3.625 8.875 3.82088 8.875 4.0625V4.54199C9.1943 4.56399 9.44935 4.59323 9.54492 4.63281C9.86457 4.76523 10.1378 4.98971 10.3301 5.27734C10.3513 5.30916 10.3716 5.342 10.3906 5.375C10.5437 5.64016 10.6248 5.94152 10.625 6.24902L9.75 6.25C9.75 6.07694 9.69868 5.90756 9.60254 5.76367C9.5064 5.61985 9.36978 5.50761 9.20996 5.44141C9.05008 5.37518 7.12383 5.35784 6.9541 5.3916C6.78443 5.42538 6.62819 5.50852 6.50586 5.63086C6.38352 5.75319 6.30038 5.90943 6.2666 6.0791C6.23284 6.24884 6.25018 6.42508 6.31641 6.58496C6.38261 6.74478 6.49485 6.8814 6.63867 6.97754C6.78256 7.07369 6.95194 7.125 7.125 7.125L8.875 7.125C9.18284 7.125 9.48456 7.20613 9.75 7.35937C9.783 7.37843 9.81584 7.39866 9.84766 7.41992C10.1353 7.61219 10.3598 7.88543 10.4922 8.20508C10.6246 8.52485 10.6593 8.87733 10.5918 9.2168C10.5242 9.55615 10.357 9.86763 10.1123 10.1123C9.86763 10.357 9.55615 10.5242 9.2168 10.5918C9.15472 10.6041 9.03326 10.6107 8.875 10.6162V11.0625C8.87498 11.3041 8.67911 11.5 8.4375 11.5C8.19589 11.5 8.00002 11.3041 8 11.0625V10.6191C7.33866 10.6059 6.63003 10.5647 6.45508 10.4922C6.13543 10.3598 5.86219 10.1353 5.66992 9.84766C5.64866 9.81584 5.62843 9.783 5.60938 9.75C5.45629 9.48484 5.37517 9.18348 5.375 8.87598L6.25 8.875C6.25 9.04806 6.30131 9.21743 6.39746 9.36133C6.4936 9.50515 6.63022 9.61739 6.79004 9.68359C6.94992 9.74982 8.87616 9.76716 9.0459 9.7334C9.21558 9.69962 9.37181 9.61648 9.49414 9.49414C9.61648 9.37181 9.69962 9.21558 9.7334 9.0459C9.76716 8.87616 9.74982 8.69992 9.68359 8.54004C9.61739 8.38022 9.50515 8.2436 9.36133 8.14746C9.25347 8.07539 9.13117 8.02873 9.00391 8.00977L8.875 8L7.125 8C6.81716 8 6.51544 7.91887 6.25 7.76562C6.217 7.74657 6.18416 7.72634 6.15234 7.70508C5.86471 7.51281 5.64023 7.23957 5.50781 6.91992C5.37536 6.60015 5.34068 6.24767 5.4082 5.9082C5.47576 5.56885 5.64302 5.25737 5.8877 5.0127C6.13237 4.76802 6.44385 4.60076 6.7832 4.5332C6.93694 4.50262 7.45255 4.49395 8 4.50488V4.0625C8 3.82088 8.19588 3.625 8.4375 3.625Z" fill="#252525"/>
</svg>
