<svg width="16" height="15" viewBox="0 0 16 15" fill="none" xmlns="http://www.w3.org/2000/svg">
<path d="M1.4375 0.941063C1.69973 0.941159 1.875 1.10526 1.875 1.35122V1.76138L14.1182 1.76138C14.468 1.76139 14.8178 1.92554 14.9053 2.25356C15.0799 2.58138 14.9925 2.90901 14.7305 3.15493L12.3691 5.61587C12.1943 5.77989 12.1943 6.0261 12.3691 6.19009L14.7305 8.65005C14.9927 8.89606 14.9927 9.22442 14.9053 9.55239C14.7304 9.79828 14.4678 9.96156 14.1182 9.96157H1.875L1.875 13.652C1.875 13.898 1.69973 14.0621 1.4375 14.0622C1.17514 14.0622 1 13.898 1 13.652L1 1.35122C1 1.10519 1.17514 0.941063 1.4375 0.941063Z" fill="#252525"/>
</svg>
