<svg width="16" height="16" viewBox="0 0 16 16" fill="none" xmlns="http://www.w3.org/2000/svg">
<path d="M1.43573 1C1.69823 1 1.87323 1.175 1.87323 1.4375V1.875L14.1232 1.875C14.4732 1.875 14.8228 2.05039 14.9103 2.40039C15.0852 2.75034 14.998 3.09984 14.7355 3.3623L12.3732 5.9873C12.1983 6.16224 12.1984 6.42461 12.3732 6.59961L14.7355 9.22461C14.998 9.48711 14.9978 9.8375 14.9103 10.1875C14.7353 10.4499 14.4732 10.625 14.1232 10.625H1.87323L1.87323 14.5625C1.87323 14.825 1.69823 15 1.43573 15C1.17323 15 0.99823 14.825 0.99823 14.5625L0.99823 1.4375C0.99823 1.175 1.17323 1 1.43573 1ZM1.87323 9.75H14.1232L11.7609 7.125C11.3234 6.6 11.3234 5.9 11.7609 5.375L14.1232 2.75L1.87323 2.75L1.87323 9.75Z" fill="#252525"/>
</svg>
