<svg width="16" height="16" viewBox="0 0 16 16" fill="none" xmlns="http://www.w3.org/2000/svg">
<path fill-rule="evenodd" clip-rule="evenodd" d="M1 3.5C1 2.67157 1.67157 2 2.5 2L5 2C5.47214 2 5.91672 2.22229 6.2 2.6L7.25 4L13.5 4C14.3284 4 15 4.67157 15 5.5V12.5C15 13.3284 14.3284 14 13.5 14H2.5C1.67157 14 1 13.3284 1 12.5L1 3.5ZM2.5 3C2.22386 3 2 3.22386 2 3.5L2 12.5C2 12.7761 2.22386 13 2.5 13H13.5C13.7761 13 14 12.7761 14 12.5V5.5C14 5.22386 13.7761 5 13.5 5L7 5C6.84262 5 6.69443 4.9259 6.6 4.8L5.4 3.2C5.30557 3.0741 5.15738 3 5 3H2.5Z" fill="#252525"/>
</svg>
