<svg width="16" height="16" viewBox="0 0 16 16" fill="none" xmlns="http://www.w3.org/2000/svg">
<path fill-rule="evenodd" clip-rule="evenodd" d="M1.83899 12C1.83899 11.7239 2.06285 11.5 2.33899 11.5H5.77781C6.05395 11.5 6.27781 11.7239 6.27781 12C6.27781 12.2762 6.05395 12.5 5.77781 12.5H2.33899C2.06285 12.5 1.83899 12.2762 1.83899 12Z" fill="#252525"/>
<path fill-rule="evenodd" clip-rule="evenodd" d="M0.833361 2.22223C0.833361 1.45517 1.45519 0.833344 2.22225 0.833344L4.88892 0.833344C5.65598 0.833344 6.27781 1.45517 6.27781 2.22223V2.61112L12 2.61112C12.7671 2.61112 13.3889 3.23295 13.3889 4.00001V5.27779H13.7776C13.7776 5.27779 13.7777 5.27779 13.7776 5.27779C14.2091 5.27769 14.6162 5.4781 14.8792 5.82014C15.1422 6.16222 15.2313 6.60712 15.1202 7.02408C15.0492 7.29093 14.7752 7.44964 14.5084 7.37858C14.2416 7.30752 14.0828 7.03359 14.1539 6.76675C14.185 6.65 14.1601 6.52543 14.0864 6.42965C14.0128 6.33386 13.8988 6.27775 13.778 6.27779L5.55795 6.27779C5.38463 6.27769 5.23189 6.3923 5.18382 6.55883L3.79147 11.3879C3.79133 11.3884 3.79118 11.3889 3.79104 11.3894C3.58721 12.1092 2.88628 12.5707 2.14444 12.4733C1.40206 12.3758 0.843754 11.7482 0.833408 10.9995L0.833313 10.9926L0.833361 2.22223ZM12.3889 5.27779V4.00001C12.3889 3.78523 12.2148 3.61112 12 3.61112L5.77781 3.61112C5.50166 3.61112 5.27781 3.38726 5.27781 3.11112V2.22223C5.27781 2.00745 5.10369 1.83334 4.88892 1.83334L2.22225 1.83334C2.00747 1.83334 1.83336 2.00746 1.83336 2.22223L1.83336 10.9886C1.83823 11.2393 2.02568 11.4491 2.27462 11.4818C2.52451 11.5146 2.76061 11.359 2.82903 11.1164L2.82981 11.1136L4.22301 6.28164C4.39467 5.68692 4.93923 5.27744 5.55823 5.27779L12.3889 5.27779Z" fill="#252525"/>
<path fill-rule="evenodd" clip-rule="evenodd" d="M7.05558 11.1111C7.05558 8.8713 8.87132 7.05557 11.1111 7.05557C13.351 7.05557 15.1667 8.8713 15.1667 11.1111C15.1667 13.3509 13.351 15.1667 11.1111 15.1667C8.87132 15.1667 7.05558 13.3509 7.05558 11.1111ZM11.1111 8.05557C9.4236 8.05557 8.05558 9.42358 8.05558 11.1111C8.05558 12.7987 9.4236 14.1667 11.1111 14.1667C12.7987 14.1667 14.1667 12.7987 14.1667 11.1111C14.1667 9.42358 12.7987 8.05557 11.1111 8.05557Z" fill="#252525"/>
<path fill-rule="evenodd" clip-rule="evenodd" d="M13.3889 11.1111C13.3889 11.3873 13.1651 11.6111 12.8889 11.6111H9.33336C9.05722 11.6111 8.83336 11.3873 8.83336 11.1111C8.83336 10.835 9.05722 10.6111 9.33336 10.6111H12.8889C13.1651 10.6111 13.3889 10.835 13.3889 11.1111Z" fill="#252525"/>
<path fill-rule="evenodd" clip-rule="evenodd" d="M13.2425 11.4647C13.0472 11.6599 12.7306 11.6599 12.5354 11.4647L11.202 10.1313C11.0068 9.93608 11.0068 9.6195 11.202 9.42423C11.3973 9.22897 11.7139 9.22897 11.9091 9.42423L13.2425 10.7576C13.4377 10.9528 13.4377 11.2694 13.2425 11.4647Z" fill="#252525"/>
<path fill-rule="evenodd" clip-rule="evenodd" d="M13.2425 10.7576C13.4377 10.9528 13.4377 11.2694 13.2425 11.4647L11.9091 12.798C11.7139 12.9933 11.3973 12.9933 11.202 12.798C11.0068 12.6027 11.0068 12.2862 11.202 12.0909L12.5354 10.7576C12.7306 10.5623 13.0472 10.5623 13.2425 10.7576Z" fill="#252525"/>
</svg>
