<svg width="16" height="16" viewBox="0 0 16 16" fill="none" xmlns="http://www.w3.org/2000/svg">
<path fill-rule="evenodd" clip-rule="evenodd" d="M0.888958 3.28571C0.888958 2.57563 1.4859 2 2.22226 2L4.88887 2C5.62523 2 6.22217 2.57563 6.22217 3.28571V3.71429L11.9998 3.71429C12.7362 3.71429 13.3331 4.28992 13.3331 5V6.28571H13.7774C14.1916 6.28562 14.5824 6.47114 14.8349 6.78778C15.0863 7.10317 15.1722 7.51298 15.0675 7.89763L13.7627 13.0452C13.6072 13.6083 13.0782 14.0001 12.4739 14H2.339C2.2928 14 2.24824 13.9932 2.20635 13.9806C2.18816 13.9789 2.16993 13.977 2.15169 13.9747C1.43669 13.8841 0.898965 13.3013 0.889001 12.6059L0.888916 12.6L0.888958 3.28571ZM3.67309 13.1429H12.4739C12.6741 13.1429 12.8496 13.0139 12.9027 12.8281L14.2072 7.68169C14.2428 7.55303 14.2144 7.41577 14.1302 7.31021C14.046 7.20465 13.9158 7.14281 13.7777 7.14286L5.55789 7.14286C5.36279 7.14264 5.1902 7.26509 5.13249 7.44417L3.74206 12.9517C3.74079 12.9567 3.73943 12.9617 3.73798 12.9666C3.7202 13.0274 3.69846 13.0862 3.67309 13.1429ZM12.4443 6.28571V5C12.4443 4.76331 12.2453 4.57143 11.9998 4.57143L5.77774 4.57143C5.53228 4.57143 5.3333 4.37955 5.3333 4.14286V3.28571C5.3333 3.04902 5.13432 2.85714 4.88887 2.85714H2.22226C1.97681 2.85714 1.77783 3.04902 1.77783 3.28571L1.77783 12.5966C1.78296 12.8651 1.99102 13.0898 2.2674 13.1248C2.54237 13.1596 2.80228 12.9962 2.88059 12.7403L4.27157 7.23063C4.27312 7.22448 4.27481 7.21836 4.27665 7.21229C4.44238 6.66292 4.96461 6.28528 5.55789 6.28571L12.4443 6.28571Z" fill="#252525"/>
</svg>
