<svg width="16" height="16" viewBox="0 0 16 16" fill="none" xmlns="http://www.w3.org/2000/svg">
<path d="M1.4375 4C1.7 4 1.875 4.17279 1.875 4.43197C1.875 6.59185 3.625 8.31974 5.8125 8.31974C6.95 8.31974 8 7.80137 8.7 7.02382L7.125 5.46871C6.8625 5.20953 6.775 4.86395 6.95 4.51837C7.125 4.17279 7.3875 4 7.7375 4L13.6875 4C14.0375 4 14.3875 4.17279 14.65 4.34558C14.9125 4.51837 15 4.95034 15 5.29592V11.1708C15 11.5164 14.825 11.8619 14.475 11.9483C14.125 12.0347 13.775 12.0347 13.5125 11.7755L12.375 10.6524C10.1 12.0347 7.3875 12.1211 5.025 10.9116C2.575 9.61567 1 7.11022 1 4.43197C1 4.17279 1.175 4 1.4375 4ZM14.125 11.1708V5.29592C14.125 5.20953 14.0375 5.03674 14.0375 4.95034C13.95 4.86395 13.8625 4.86395 13.6875 4.86395L7.7375 4.86395L9.575 6.67824C9.75 6.85103 9.75 7.02382 9.6625 7.19661C8.7875 8.40614 7.3 9.0973 5.8125 9.0973C4.85 9.0973 4.0625 8.83811 3.275 8.40614C3.8 9.0973 4.5 9.70206 5.375 10.134C7.5625 11.2572 10.1875 11.0844 12.2 9.70206C12.375 9.61567 12.55 9.61567 12.725 9.78846L14.125 11.1708Z" fill="#252525"/>
</svg>
