<svg width="16" height="16" viewBox="0 0 16 16" fill="none" xmlns="http://www.w3.org/2000/svg">
<path fill-rule="evenodd" clip-rule="evenodd" d="M1.22599 6.0853L1.26452 6.001L1.18339 5.95619C0.781588 5.73427 0.585992 5.21823 0.813027 4.76416L2.47969 1.43083C2.63215 1.12592 2.94378 0.933319 3.28468 0.933319L12.7153 0.933319C13.0562 0.933319 13.3678 1.12592 13.5203 1.43083L15.1869 4.76416C15.414 5.21823 15.2184 5.73428 14.8166 5.95619L14.7354 6.001L14.774 6.0853C14.8548 6.26224 14.9 6.45904 14.9 6.66666C14.9 7.27607 14.5105 7.79478 13.9667 7.98702L13.9 8.01058V12.3227L13.9667 12.3463C14.5105 12.5385 14.9 13.0572 14.9 13.6667C14.9 13.883 14.851 14.0876 14.7636 14.2702L14.7331 14.334L14.783 14.384C14.8554 14.4565 14.9 14.5563 14.9 14.6667C14.9 14.8876 14.7209 15.0667 14.5 15.0667H1.49998C1.27906 15.0667 1.09998 14.8876 1.09998 14.6667C1.09998 14.5563 1.14455 14.4565 1.21693 14.384L1.26689 14.334L1.23637 14.2702C1.14897 14.0876 1.09998 13.883 1.09998 13.6667C1.09998 13.0572 1.48941 12.5385 2.0333 12.3463L2.09998 12.3227L2.09998 8.01058L2.0333 7.98702C1.48941 7.79478 1.09998 7.27607 1.09998 6.66666C1.09998 6.45904 1.1451 6.26224 1.22599 6.0853ZM12.7771 1.73332L3.22288 1.73332L1.45621 5.26665L14.5437 5.26665L12.7771 1.73332ZM5.77322 14.2667H10.2267L10.1796 14.1333C10.1281 13.9875 10.1 13.8305 10.1 13.6667C10.1 13.0572 10.4894 12.5385 11.0333 12.3463L11.1 12.3227V8.01058L11.0333 7.98702C10.4894 7.79478 10.1 7.27607 10.1 6.66666C10.1 6.50285 10.1281 6.34581 10.1796 6.19998L10.2267 6.06665L5.77322 6.06665L5.82034 6.19998C5.87189 6.34581 5.89998 6.50285 5.89998 6.66666C5.89998 7.27607 5.51054 7.79478 4.96665 7.98702L4.89998 8.01058L4.89998 12.3227L4.96665 12.3463C5.51054 12.5385 5.89998 13.0572 5.89998 13.6667C5.89998 13.8305 5.87189 13.9875 5.82034 14.1333L5.77322 14.2667ZM2.89998 12.2667H4.09998L4.09998 8.06666H2.89998L2.89998 12.2667ZM11.9 12.2667H13.1V8.06666H11.9V12.2667ZM13.5 14.2667C13.8313 14.2667 14.1 13.998 14.1 13.6667C14.1 13.3353 13.8313 13.0667 13.5 13.0667H11.5C11.1686 13.0667 10.9 13.3353 10.9 13.6667C10.9 13.998 11.1686 14.2667 11.5 14.2667H13.5ZM4.49998 14.2667C4.83135 14.2667 5.09998 13.998 5.09998 13.6667C5.09998 13.3353 4.83135 13.0667 4.49998 13.0667H2.49998C2.16861 13.0667 1.89998 13.3353 1.89998 13.6667C1.89998 13.998 2.16861 14.2667 2.49998 14.2667H4.49998ZM4.49998 7.26665C4.83135 7.26665 5.09998 6.99803 5.09998 6.66666C5.09998 6.33528 4.83135 6.06666 4.49998 6.06666H2.49998C2.16861 6.06666 1.89998 6.33528 1.89998 6.66666C1.89998 6.99803 2.16861 7.26665 2.49998 7.26665H4.49998ZM11.5 7.26665H13.5C13.8313 7.26665 14.1 6.99803 14.1 6.66666C14.1 6.33528 13.8313 6.06666 13.5 6.06666H11.5C11.1686 6.06666 10.9 6.33528 10.9 6.66666C10.9 6.99803 11.1686 7.26665 11.5 7.26665Z" fill="#252525"/>
</svg>
