<svg width="16" height="16" viewBox="0 0 16 16" fill="none" xmlns="http://www.w3.org/2000/svg">
<path d="M6.58691 8.53809C7.06986 8.53829 7.46171 8.93014 7.46191 9.41309V14.125C7.46191 14.6081 7.06999 14.9998 6.58691 15H1.875C1.39175 15 1 14.6082 1 14.125L1 9.41309C1.00021 8.93001 1.39188 8.53809 1.875 8.53809H6.58691ZM14.125 8.53809C14.6081 8.53809 14.9998 8.93001 15 9.41309V14.125C15 14.6082 14.6082 15 14.125 15H9.41309C8.93001 14.9998 8.53809 14.6081 8.53809 14.125V9.41309C8.53829 8.93014 8.93014 8.53829 9.41309 8.53809H14.125ZM1.875 14.125H6.58691V9.41309H1.875L1.875 14.125ZM9.41309 14.125H14.125V9.41309H9.41309V14.125ZM6.58691 1C7.06999 1.0002 7.46191 1.39188 7.46191 1.875V6.58691C7.46171 7.06987 7.06987 7.46171 6.58691 7.46191H1.875C1.39188 7.46191 1.0002 7.06999 1 6.58691L1 1.875C1 1.39175 1.39175 1 1.875 1L6.58691 1ZM14.125 1C14.6082 1 15 1.39175 15 1.875V6.58691C14.9998 7.06999 14.6081 7.46191 14.125 7.46191H9.41309C8.93014 7.46171 8.53829 7.06986 8.53809 6.58691V1.875C8.53809 1.39188 8.93001 1.00021 9.41309 1L14.125 1ZM1.875 6.58691H6.58691V1.875L1.875 1.875L1.875 6.58691ZM9.41309 6.58691H14.125V1.875L9.41309 1.875V6.58691Z" fill="#252525"/>
</svg>
