<svg width="15" height="16" viewBox="0 0 15 16" fill="none" xmlns="http://www.w3.org/2000/svg">
<path d="M11.0417 11.3333C10.9266 11.3333 10.8334 11.4328 10.8334 11.5555C10.8334 11.6783 10.9266 11.7778 11.0417 11.7778C11.1568 11.7778 11.25 11.6783 11.25 11.5555C11.25 11.4328 11.1568 11.3333 11.0417 11.3333" stroke="#252525" stroke-linecap="round" stroke-linejoin="round"/>
<path d="M9.16671 11.3333C9.05165 11.3333 8.95837 11.4328 8.95837 11.5555C8.95837 11.6783 9.05165 11.7778 9.16671 11.7778C9.28177 11.7778 9.37504 11.6783 9.37504 11.5555C9.37504 11.4328 9.28177 11.3333 9.16671 11.3333" stroke="#252525" stroke-linecap="round" stroke-linejoin="round"/>
<path fill-rule="evenodd" clip-rule="evenodd" d="M3.75006 9.38888C2.62823 9.38888 1.71881 10.3589 1.71881 11.5555C1.71881 12.7522 2.62823 13.7222 3.75006 13.7222H11.2501C12.3719 13.7222 13.2813 12.7522 13.2813 11.5555C13.2813 10.3589 12.3719 9.38888 11.2501 9.38888H3.75006ZM0.781311 11.5555C0.781311 9.80665 2.11047 8.38888 3.75006 8.38888H11.2501C12.8897 8.38888 14.2188 9.80665 14.2188 11.5555C14.2188 13.3045 12.8897 14.7222 11.2501 14.7222H3.75006C2.11047 14.7222 0.781311 13.3045 0.781311 11.5555Z" fill="#252525"/>
<path fill-rule="evenodd" clip-rule="evenodd" d="M4.65454 1.27777L10.3462 1.27777C11.3375 1.27804 12.1984 2.00598 12.4248 3.03546L14.1403 10.8327C14.1994 11.1016 14.0431 11.3706 13.791 11.4337C13.539 11.4968 13.2867 11.33 13.2276 11.0612L11.512 3.26386C11.3851 2.68638 10.9022 2.27797 10.3462 2.27777L4.65451 2.27777C4.09825 2.27772 3.61511 2.68612 3.48809 3.26379L1.77252 11.0612C1.71337 11.33 1.46111 11.4968 1.20907 11.4337C0.957037 11.3706 0.800672 11.1016 0.859821 10.8327L2.57536 3.03546C2.8018 2.00575 3.663 1.2777 4.65454 1.27777Z" fill="#252525"/>
<path d="M3.75006 11.5555H5.83339" stroke="#252525" stroke-linecap="round" stroke-linejoin="round"/>
</svg>
