<svg width="16" height="16" viewBox="0 0 16 16" fill="none" xmlns="http://www.w3.org/2000/svg">
<path d="M13.5 1C14.3284 1 15 1.67157 15 2.5V13.5C15 14.3284 14.3284 15 13.5 15H2.5C1.67157 15 1 14.3284 1 13.5L1 2.5C1 1.67157 1.67157 1 2.5 1L13.5 1ZM2.5 2C2.22386 2 2 2.22386 2 2.5L2 13.5C2 13.7761 2.22386 14 2.5 14H13.5C13.7761 14 14 13.7761 14 13.5V2.5C14 2.22386 13.7761 2 13.5 2L2.5 2ZM6.62793 4C7.01129 4.00762 7.36643 4.2424 7.50488 4.61426L7.50586 4.61621L9.46875 9.9541L10.7529 8.2998C10.8432 8.14892 11.0058 8.0567 11.1816 8.05664H12.5C12.7761 8.05664 13 8.2805 13 8.55664C12.9998 8.83263 12.776 9.05664 12.5 9.05664H11.4658L10.2842 10.541C10.0938 10.8597 9.73604 11.0312 9.37598 11C9.01525 10.9687 8.69181 10.7367 8.5625 10.3857L6.60645 5.06836L5.2793 8.74902C5.20157 8.93502 5.01995 9.05657 4.81836 9.05664H3.5C3.22397 9.05664 3.00018 8.83263 3 8.55664C3 8.2805 3.22386 8.05664 3.5 8.05664H4.48535L5.72656 4.58008L5.72754 4.57812C5.88136 4.21298 6.24468 3.99246 6.62793 4Z" fill="#252525"/>
</svg>
