<svg width="16" height="15" viewBox="0 0 16 15" fill="none" xmlns="http://www.w3.org/2000/svg">
<path fill-rule="evenodd" clip-rule="evenodd" d="M7.92372 12.2552L7.95869 12.2783C7.97079 12.2863 7.98542 12.2908 8.00055 12.2912C8.01569 12.2908 8.03034 12.2863 8.04245 12.2783L8.04731 12.2751L8.06188 12.2651C9.04526 11.5885 10.5389 10.5249 11.7826 9.25613C13.052 7.96121 13.9062 6.60716 13.9062 5.34688C13.9062 4.02784 12.6868 2.95885 11.1821 2.95885C10.5046 2.95885 9.94423 3.21547 9.52104 3.51404C9.31207 3.66147 9.15074 3.80968 9.04361 3.91904C8.99056 3.97321 8.95228 4.01633 8.92951 4.04299C8.91816 4.05627 8.91079 4.06531 8.90749 4.06942L8.90835 4.06822L8.90664 4.07048C8.90589 4.07141 8.90552 4.07189 8.90552 4.07189L8.90749 4.06942C8.90717 4.06982 8.90688 4.07017 8.90664 4.07048L8 5.2626L7.09336 4.07048C7.09411 4.07141 7.09448 4.07189 7.09448 4.07189L7.09336 4.07048L7.09251 4.06942L7.09165 4.06822L7.09336 4.07048L7.09251 4.06942C7.08921 4.06531 7.08184 4.05627 7.07049 4.04299C7.04772 4.01633 7.00944 3.97321 6.95639 3.91904C6.84926 3.80968 6.68793 3.66147 6.47896 3.51404C6.05577 3.21547 5.49539 2.95885 4.81787 2.95885C3.31318 2.95885 2.09375 4.02784 2.09375 5.34688C2.09375 6.6041 2.94344 7.95446 4.20771 9.24657C5.44663 10.5128 6.93632 11.5755 7.92238 12.2542L7.92372 12.2552ZM9.79557 12.2704C9.40415 12.5571 9.04328 12.8087 8.73714 13.0193L8.72575 13.0283L8.71549 13.0353L8.70237 13.0439C8.70218 13.0441 8.70145 13.0435 8.70126 13.0437C8.70094 13.0439 8.70063 13.0441 8.70031 13.0443C8.49847 13.1775 8.25271 13.2498 8 13.25C7.86551 13.2498 7.73301 13.2291 7.60807 13.1898C7.49802 13.1551 7.39383 13.1059 7.29932 13.0433L7.29818 13.0443C7.29141 13.0397 7.28335 13.034 7.27527 13.0282C7.26732 13.0226 7.25936 13.017 7.2526 13.0123L7.24691 13.0083C5.25774 11.6391 1 8.56458 1 5.34688C1 3.4983 2.70912 2.00005 4.81787 2.00005C5.87383 2.00005 6.69681 2.42118 7.24107 2.82215C7.73558 3.18647 8 3.53414 8 3.53414C8 3.53414 8.26442 3.18647 8.75893 2.82215C9.30319 2.42118 10.1262 2.00005 11.1821 2.00005C13.2909 2.00005 15 3.4983 15 5.34688C15 8.07433 11.9396 10.6998 9.79557 12.2704Z" fill="#252525"/>
</svg>
