<svg width="15" height="15" viewBox="0 0 15 15" fill="none" xmlns="http://www.w3.org/2000/svg">
<path d="M4.51675 1.875C2.5398 1.875 0.9375 3.37326 0.9375 5.22183C0.9375 8.43954 4.92913 11.5141 6.79398 12.8833C6.79575 12.8846 6.79753 12.886 6.79932 12.8873C6.81209 12.8967 6.82947 12.91 6.84204 12.9193L6.84311 12.9183C7.03231 13.0519 7.26286 13.1245 7.5 13.125C7.73751 13.1247 7.96846 13.0521 8.15796 12.9183V12.9193C8.16164 12.9166 8.16708 12.913 8.17078 12.9103C8.17359 12.9082 8.17757 12.9053 8.18039 12.9033C8.18397 12.9003 8.18753 12.8973 8.19107 12.8943C10.0501 11.53 14.0625 8.44722 14.0625 5.22183C14.0625 3.37326 12.4602 1.875 10.4832 1.875C8.59379 1.875 7.5 3.40909 7.5 3.40909C7.5 3.40909 6.40621 1.875 4.51675 1.875Z" fill="#252525"/>
</svg>
