<svg width="16" height="15" viewBox="0 0 16 15" fill="none" xmlns="http://www.w3.org/2000/svg">
<path fill-rule="evenodd" clip-rule="evenodd" d="M12.4861 1.95791C12.6204 1.85957 12.7963 1.84773 12.9412 1.92763C13.0858 2.00754 13.1764 2.16563 13.1765 2.33779V12.5282C13.1764 12.7003 13.0858 12.8585 12.9412 12.9384C12.7963 13.0183 12.6204 13.0064 12.4861 12.9081L11.8484 12.4413C10.0026 11.0904 7.85874 10.3255 5.6521 10.2235C5.67308 11.0383 5.79233 11.5587 6.448 12.1981C6.63262 12.3782 6.63385 12.6717 6.45093 12.8534C6.26801 13.0349 5.97045 13.0363 5.78589 12.8563C4.94337 12.0348 4.74713 11.2948 4.71265 10.2118H3.7605C2.18488 10.2116 0.941162 8.94922 0.941162 7.43251C0.94139 5.91599 2.18503 4.65436 3.7605 4.65419H5.14526C7.52933 4.65395 9.86154 3.87883 11.8484 2.4247L12.4861 1.95791ZM12.2976 3.22353C10.3166 4.65834 8.01606 5.46752 5.64722 5.56826L5.64722 9.29677C8.0161 9.3975 10.3166 10.2076 12.2976 11.6425V3.22353ZM3.7605 5.57998C2.75901 5.58014 1.91404 6.39161 1.91382 7.43251C1.91382 8.47362 2.75888 9.28587 3.7605 9.28603H4.67456V5.57998H3.7605ZM14.5886 5.57998C14.8483 5.5802 15.0583 5.78818 15.0583 6.04384V7.89638C15.0582 8.15192 14.8482 8.35905 14.5886 8.35927C14.3288 8.35927 14.1181 8.15206 14.1179 7.89638V6.04384C14.1179 5.78804 14.3287 5.57998 14.5886 5.57998Z" fill="#252525"/>
</svg>
