<svg width="15" height="16" viewBox="0 0 15 16" fill="none" xmlns="http://www.w3.org/2000/svg">
<path d="M9.55078 2.53125C12.0425 2.53125 14.0625 4.68588 14.0625 7.34375C14.0625 10.0016 12.0425 12.1562 9.55078 12.1562H5.44922C5.43614 12.1562 5.42399 12.156 5.41309 12.1553L1.46875 13.4492C1.31928 13.4983 1.15601 13.4525 1.04883 13.3311C0.941786 13.2097 0.909079 13.034 0.963867 12.8779L1.88477 10.2578C1.27706 9.42776 0.942458 8.40384 0.9375 7.3457V7.34277C0.944766 4.68883 2.96017 2.539 5.44824 2.53125H9.55078ZM5.4502 3.40625C3.41411 3.41293 1.76463 5.17206 1.75781 7.34375C1.76269 8.27955 2.08345 9.18234 2.66113 9.88672C2.76042 10.0079 2.78925 10.1774 2.73633 10.3281L2.02441 12.3516L5.25195 11.292C5.29085 11.2793 5.33139 11.2734 5.37207 11.2734C5.39834 11.2734 5.42112 11.2754 5.4375 11.2773C5.44919 11.2787 5.46007 11.2802 5.4668 11.2812H9.55078C11.5895 11.2812 13.2422 9.51837 13.2422 7.34375C13.2422 5.16913 11.5895 3.40625 9.55078 3.40625H5.4502ZM5.7793 4.28125C6.68539 4.28125 7.41992 5.06475 7.41992 6.03125C7.41992 6.64582 7.1221 7.18488 6.67285 7.49707C7.33485 7.72847 7.90682 8.21252 8.26562 8.875C8.37877 9.08419 8.31131 9.35183 8.11523 9.47266C7.91911 9.59342 7.66798 9.52168 7.55469 9.3125C7.18826 8.6361 6.51169 8.21974 5.7793 8.21973C5.04691 8.21973 4.37034 8.63611 4.00391 9.3125C3.89062 9.52166 3.63948 9.59338 3.44336 9.47266C3.24728 9.35183 3.17981 9.08419 3.29297 8.875C3.65163 8.21279 4.22311 7.72858 4.88477 7.49707C4.43606 7.18477 4.13867 6.64537 4.13867 6.03125C4.13867 5.06484 4.87331 4.28139 5.7793 4.28125ZM12.0117 7.34375C12.2382 7.34375 12.4219 7.53963 12.4219 7.78125C12.4219 8.02287 12.2382 8.21875 12.0117 8.21875H9.14062C8.9141 8.21875 8.73047 8.02287 8.73047 7.78125C8.73047 7.53963 8.9141 7.34375 9.14062 7.34375H12.0117ZM5.7793 5.15625C5.32636 5.15639 4.95898 5.54808 4.95898 6.03125C4.95898 6.51441 5.32636 6.90611 5.7793 6.90625C6.23234 6.90625 6.59961 6.5145 6.59961 6.03125C6.59961 5.548 6.23234 5.15625 5.7793 5.15625ZM10.7812 5.59375C11.0078 5.59375 11.1914 5.78963 11.1914 6.03125C11.1914 6.27287 11.0078 6.46875 10.7812 6.46875H9.1582C8.9319 6.46848 8.74805 6.27271 8.74805 6.03125C8.74805 5.78979 8.9319 5.59402 9.1582 5.59375H10.7812Z" fill="#252525"/>
</svg>
