<svg width="16" height="15" viewBox="0 0 16 15" fill="none" xmlns="http://www.w3.org/2000/svg">
<path d="M13.6871 6.67941C14.4118 6.67961 14.9996 7.23037 14.9996 7.90988V12.8318C14.9996 13.5113 14.4118 14.062 13.6871 14.0622H8.43713C7.71226 14.0622 7.12463 13.5114 7.12463 12.8318V9.55051C7.12463 9.32396 7.32051 9.14035 7.56213 9.14035C7.80358 9.14055 7.99963 9.32408 7.99963 9.55051V12.8318C7.99963 13.0583 8.19551 13.2419 8.43713 13.2419H13.6871C13.9286 13.2417 14.1246 13.0582 14.1246 12.8318V7.90988C14.1246 7.68346 13.9286 7.49992 13.6871 7.49973H10.1871C9.94565 7.49973 9.74986 7.31594 9.74963 7.08957C9.74963 6.86302 9.94551 6.67941 10.1871 6.67941H13.6871ZM11.0621 8.32004C11.7869 8.32011 12.3746 8.87092 12.3746 9.55051V12.0114C12.3746 12.2379 12.1787 12.4215 11.9371 12.4216C11.6955 12.4216 11.4996 12.238 11.4996 12.0114V11.6013H10.6246V12.0114C10.6246 12.2379 10.4287 12.4215 10.1871 12.4216C9.94551 12.4216 9.74963 12.238 9.74963 12.0114V9.55051C9.74963 8.87087 10.3373 8.32004 11.0621 8.32004ZM11.0621 9.14035C10.8205 9.14035 10.6246 9.32396 10.6246 9.55051V10.781H11.4996V9.55051C11.4996 9.32401 11.3037 9.14042 11.0621 9.14035ZM7.12366 0.936249C8.0901 0.936249 8.87357 1.67077 8.87366 2.57687V6.67941C8.87341 7.5854 8.09 8.32004 7.12366 8.32004H2.74866C1.78231 8.32004 0.998903 7.5854 0.998657 6.67941L0.998657 2.57687C0.998748 1.67077 1.78221 0.936249 2.74866 0.936249L7.12366 0.936249ZM2.74866 1.75656C2.26546 1.75656 1.87375 2.12386 1.87366 2.57687L1.87366 6.67941C1.8739 7.13231 2.26556 7.49973 2.74866 7.49973H7.12366C7.60675 7.49973 7.99841 7.13231 7.99866 6.67941V2.57687C7.99857 2.12386 7.60685 1.75656 7.12366 1.75656L2.74866 1.75656ZM4.93616 2.57687C5.17771 2.57687 5.37354 2.76058 5.37366 2.98703V3.39719H6.68616C6.92768 3.39719 7.1235 3.58092 7.12366 3.80734C7.12366 4.03389 6.92778 4.2175 6.68616 4.2175H6.10999C6.09088 4.26055 6.07139 4.30867 6.04749 4.3591C5.93145 4.60387 5.75546 4.93298 5.51917 5.26535C5.50883 5.27988 5.49662 5.29366 5.48596 5.30832C5.80476 5.6287 6.24194 5.82886 6.71545 5.8591C6.95651 5.87447 7.13905 6.0706 7.12268 6.2966C7.10628 6.52262 6.89695 6.69381 6.65588 6.67844C5.99764 6.63639 5.38568 6.37156 4.92444 5.94504C4.48326 6.35008 3.90664 6.67941 3.18616 6.67941C2.94478 6.67933 2.74893 6.49553 2.74866 6.26926C2.74866 6.04276 2.94461 5.85821 3.18616 5.85812C3.8289 5.85812 4.37077 5.40079 4.79065 4.81027C4.93655 4.60507 5.05668 4.39826 5.151 4.2175H3.18616C2.94461 4.21741 2.74866 4.03383 2.74866 3.80734C2.74882 3.58098 2.94471 3.39727 3.18616 3.39719H4.49866V2.98703C4.49877 2.76068 4.69476 2.57704 4.93616 2.57687Z" fill="#252525"/>
</svg>
