<svg width="15" height="16" viewBox="0 0 15 16" fill="none" xmlns="http://www.w3.org/2000/svg">
<path fill-rule="evenodd" clip-rule="evenodd" d="M0.9375 3.33333C0.9375 2.3024 1.721 1.46667 2.6875 1.46667L12.3125 1.46667C13.279 1.46667 14.0625 2.3024 14.0625 3.33333V12.6667C14.0625 13.6976 13.279 14.5333 12.3125 14.5333H2.6875C1.721 14.5333 0.9375 13.6976 0.9375 12.6667L0.9375 3.33333ZM2.6875 2.4C2.20425 2.4 1.8125 2.81787 1.8125 3.33333L1.8125 12.6667C1.8125 13.1821 2.20425 13.6 2.6875 13.6H12.3125C12.7957 13.6 13.1875 13.1821 13.1875 12.6667V3.33333C13.1875 2.81787 12.7957 2.4 12.3125 2.4L2.6875 2.4Z" fill="#252525"/>
<path fill-rule="evenodd" clip-rule="evenodd" d="M0.9375 4.73333C0.9375 4.4756 1.13338 4.26667 1.375 4.26667L13.625 4.26667C13.8666 4.26667 14.0625 4.4756 14.0625 4.73333C14.0625 4.99107 13.8666 5.2 13.625 5.2L1.375 5.2C1.13338 5.2 0.9375 4.99107 0.9375 4.73333Z" fill="#252525"/>
<path fill-rule="evenodd" clip-rule="evenodd" d="M5.75 4.26667C5.99162 4.26667 6.1875 4.4756 6.1875 4.73333L6.1875 14.0667C6.1875 14.3244 5.99162 14.5333 5.75 14.5333C5.50838 14.5333 5.3125 14.3244 5.3125 14.0667L5.3125 4.73333C5.3125 4.4756 5.50838 4.26667 5.75 4.26667Z" fill="#252525"/>
<path fill-rule="evenodd" clip-rule="evenodd" d="M5.3125 9.4C5.3125 9.14227 5.50838 8.93333 5.75 8.93333H13.625C13.8666 8.93333 14.0625 9.14227 14.0625 9.4C14.0625 9.65773 13.8666 9.86667 13.625 9.86667H5.75C5.50838 9.86667 5.3125 9.65773 5.3125 9.4Z" fill="#252525"/>
</svg>
