<svg width="16" height="16" viewBox="0 0 16 16" fill="none" xmlns="http://www.w3.org/2000/svg">
<path fill-rule="evenodd" clip-rule="evenodd" d="M1 2.86667C1 1.83574 1.83574 1 2.86667 1L13.1333 1C14.1643 1 15 1.83574 15 2.86667V13.1333C15 14.1643 14.1643 15 13.1333 15H2.86667C1.83574 15 1 14.1643 1 13.1333L1 2.86667ZM2.86667 1.93333C2.3512 1.93333 1.93333 2.3512 1.93333 2.86667L1.93333 13.1333C1.93333 13.6488 2.3512 14.0667 2.86667 14.0667H13.1333C13.6488 14.0667 14.0667 13.6488 14.0667 13.1333V2.86667C14.0667 2.3512 13.6488 1.93333 13.1333 1.93333L2.86667 1.93333Z" fill="#252525"/>
<path fill-rule="evenodd" clip-rule="evenodd" d="M5.2 1C5.45773 1 5.66667 1.20893 5.66667 1.46667L5.66667 14.5333C5.66667 14.7911 5.45773 15 5.2 15C4.94227 15 4.73333 14.7911 4.73333 14.5333L4.73333 1.46667C4.73333 1.20893 4.94227 1 5.2 1Z" fill="#252525"/>
<path fill-rule="evenodd" clip-rule="evenodd" d="M4.73333 8C4.73333 7.74227 4.94227 7.53333 5.2 7.53333L14.5333 7.53333C14.7911 7.53333 15 7.74227 15 8C15 8.25773 14.7911 8.46667 14.5333 8.46667H5.2C4.94227 8.46667 4.73333 8.25773 4.73333 8Z" fill="#252525"/>
</svg>
