<svg width="16" height="16" viewBox="0 0 16 16" fill="none" xmlns="http://www.w3.org/2000/svg">
<path d="M8 1C11.8267 1 15 4.17333 15 8C15 11.8267 11.8267 15 8 15C4.17333 15 1 11.8267 1 8C1 4.17333 4.17333 1 8 1ZM8 1.93359C4.64 1.93359 1.93359 4.64 1.93359 8C1.93359 11.36 4.64 14.0664 8 14.0664C11.36 14.0664 14.0664 11.36 14.0664 8C14.0664 4.64 11.36 1.93359 8 1.93359ZM7.25293 5.29297C7.43946 5.10644 7.71958 5.1067 7.90625 5.29297C7.99957 5.47961 8.00007 5.85335 7.81348 6.04004L6.32031 7.5332L10.7998 7.5332C11.0798 7.5332 11.2666 7.72002 11.2666 8C11.2666 8.28 11.0798 8.4668 10.7998 8.4668H6.32031L7.81348 10.0537C7.99989 10.2404 8.00006 10.5204 7.81348 10.707C7.62689 10.8935 7.34679 10.8934 7.16016 10.707L4.82617 8.37305C4.82596 8.28003 4.7334 8.27975 4.7334 8.18652C4.64012 8.09318 4.6401 7.9068 4.7334 7.81348C4.7334 7.72357 4.81981 7.63344 4.82617 7.62695L7.25293 5.29297Z" fill="#252525"/>
</svg>
