<svg width="16" height="15" viewBox="0 0 16 15" fill="none" xmlns="http://www.w3.org/2000/svg">
<path d="M10.5872 1.84243L10.5871 1.95493C10.5871 1.84243 10.5872 1.84243 10.5872 1.84243Z" fill="#252525"/>
<path fill-rule="evenodd" clip-rule="evenodd" d="M10.5871 1.04999C10.9811 1.04999 11.2832 1.22637 11.6038 1.51861C11.7885 1.78049 11.7973 2.13864 11.695 2.52333L10.382 4.71278H12.473C12.4996 4.71278 12.5339 4.72223 12.5752 4.74499C12.616 4.76742 12.6567 4.79897 12.6942 4.83331C12.7313 4.86731 12.7626 4.90173 12.7847 4.92783C12.7957 4.94079 12.8042 4.95147 12.8099 4.95874L12.8136 4.96364C12.8595 5.05009 12.88 5.13176 12.88 5.19803C12.88 5.26661 12.8587 5.31011 12.8329 5.33381L12.8267 5.33942L5.84164 13.8812L5.83973 13.8824C5.831 13.8877 5.81404 13.8969 5.78702 13.9069C5.73316 13.9266 5.63662 13.95 5.48343 13.95H5.29158C5.13318 13.8672 5.05149 13.716 5.04944 13.5598L5.72941 7.94708H4.26378C3.86761 7.94708 3.5661 7.76839 3.35787 7.58001C3.15318 7.29331 3.0636 6.92865 3.15708 6.67145L3.1578 6.66939L4.8225 1.78587L4.82509 1.77397C4.92101 1.33414 5.40999 1.04999 5.92782 1.04999L10.5871 1.04999ZM5.80122 1.85903C5.74216 1.87398 5.63631 1.91268 5.5939 2.01641L4.03285 6.8219V6.83865C4.03285 6.88429 4.04567 6.92595 4.07102 6.96082C4.09577 6.99487 4.1277 7.01594 4.15559 7.02874C4.18307 7.04134 4.20906 7.04708 4.22714 7.04984C4.23647 7.05127 4.2445 7.05202 4.25065 7.05242L4.25863 7.05281L4.26157 7.05288L4.26277 7.05289L4.26378 7.0529H6.14969C6.17665 7.0529 6.23934 7.06859 6.31884 7.10504C6.3947 7.13983 6.46601 7.1844 6.50952 7.2243C6.5475 7.25914 6.56377 7.28971 6.57293 7.33175C6.58364 7.38083 6.58435 7.44279 6.58437 7.5454L6.10012 12.2087L11.6053 5.40348L9.69963 5.40348C9.5108 5.40348 9.31861 5.31437 9.22887 5.23207C9.18864 5.19518 9.17676 5.12142 9.19751 5.01926C9.20686 4.97324 9.2211 4.93061 9.23328 4.89911C9.2393 4.88353 9.24467 4.87105 9.24842 4.86271L9.2527 4.85342L10.8181 2.08464V2.05667C10.8181 2.01104 10.8052 1.96937 10.7799 1.9345C10.7551 1.90045 10.7232 1.87938 10.6953 1.86659C10.6678 1.85399 10.6418 1.84825 10.6238 1.84549C10.6144 1.84406 10.6064 1.84331 10.6003 1.8429L10.5923 1.84251L10.5893 1.84245L10.5872 1.84243L5.9275 1.84243L5.92614 1.84244L5.9234 1.84248L5.91492 1.84273C5.90804 1.843 5.89866 1.84353 5.88746 1.84454C5.86542 1.84654 5.83463 1.85058 5.80122 1.85903Z" fill="#252525"/>
</svg>
