<svg width="16" height="15" viewBox="0 0 16 15" fill="none" xmlns="http://www.w3.org/2000/svg">
<path d="M3 5.625L3 13.125H1L1 5.625H3ZM9.6582 1.57715C9.84383 1.74168 9.96094 1.97379 9.96094 2.22363L9.94043 2.41797L9.28711 5.20312H13.625C14.3813 5.20312 15 5.75156 15 6.42187L14.9932 6.4707L15 6.47656V7.64062C15 7.79906 14.9652 7.94578 14.9033 8.08594L12.8271 12.3818C12.6208 12.8204 12.133 13.125 11.5625 13.125H5.375C4.61875 13.125 4 12.5766 4 11.9062L4 5.8125C4 5.4774 4.15097 5.17249 4.40527 4.95312L8.92969 0.9375L9.6582 1.57715Z" fill="#252525"/>
</svg>
