<svg width="16" height="15" viewBox="0 0 16 15" fill="none" xmlns="http://www.w3.org/2000/svg">
<path fill-rule="evenodd" clip-rule="evenodd" d="M8.24512 1.5447C8.62923 1.20372 9.23109 1.2018 9.61719 1.54079L9.6582 1.5779C9.84367 1.74242 9.96094 1.97368 9.96094 2.22341L9.94043 2.41872L9.28711 5.2029L13.625 5.2029C14.3811 5.2029 14.9998 5.75149 15 6.42165V7.6404C15 7.79884 14.9652 7.94556 14.9033 8.08571L12.8271 12.3816C12.6209 12.8203 12.1331 13.1248 11.5625 13.1248H5.375C5.23646 13.1248 5.11203 13.1179 5 13.1072V13.1248H2C1.44772 13.1248 1 12.705 1 12.1873L1 6.56228C1.00019 6.04466 1.44783 5.62478 2 5.62478H4.01758C4.06282 5.36475 4.19966 5.13136 4.40527 4.95388L8.24512 1.5447ZM2 12.1873H4L4 6.56228H2L2 12.1873ZM5.08789 5.63845L5.08301 5.64333C5.02582 5.69265 5.00009 5.75042 5 5.81228L5 11.906C5 12.0231 5.0007 12.1033 5.00391 12.1638C5.08169 12.1763 5.20082 12.1873 5.375 12.1873H11.5625C11.753 12.1873 11.8721 12.0886 11.9121 12.0037L11.917 11.9949L13.9844 7.71657C13.9967 7.68595 14 7.66319 14 7.6404V6.42165C13.9997 6.31791 13.8823 6.1404 13.625 6.1404L8.04297 6.1404L8.95117 2.27126L8.95312 2.24294L8.93359 2.22536L5.08789 5.63845Z" fill="#252525"/>
</svg>
