<svg width="16" height="16" viewBox="0 0 16 16" fill="none" xmlns="http://www.w3.org/2000/svg">
<path fill-rule="evenodd" clip-rule="evenodd" d="M4.00789 6.36845C4.19506 6.18128 4.5092 6.18128 4.69637 6.36845C4.88326 6.55554 4.88318 6.86881 4.69637 7.05595L2.92488 8.82744C1.92222 9.8301 1.65634 11.4469 2.47469 12.6507C3.55841 14.2489 5.76437 14.4059 7.0616 13.1087L8.90535 11.2649C9.09246 11.0782 9.40575 11.0782 9.59285 11.2649C9.78002 11.4521 9.78002 11.7662 9.59285 11.9534L7.7491 13.7972C6.16917 15.3771 3.57836 15.3369 2.05184 13.6722L1.90731 13.5061C0.604699 11.9264 0.824969 9.55158 2.29695 8.07939L4.00789 6.36845ZM9.41902 5.79423C9.62431 5.58894 9.96176 5.58898 10.1671 5.79423C10.3724 5.99954 10.3724 6.33697 10.1671 6.54228L6.54012 10.1702C6.3348 10.3754 5.99635 10.3755 5.7911 10.1702C5.58589 9.96495 5.58597 9.62649 5.7911 9.42119L9.41902 5.79423ZM8.07723 2.29912C9.54997 0.826809 11.9307 0.601629 13.5098 1.90361C15.3308 3.41254 15.4252 6.12073 13.795 7.75126L11.9513 9.59501C11.7641 9.78219 11.4499 9.78219 11.2628 9.59501C11.0759 9.40783 11.0758 9.0946 11.2628 8.90751L13.1065 7.06376C14.4037 5.76656 14.2466 3.5606 12.6485 2.47685C11.4448 1.65838 9.82798 1.92438 8.82527 2.92705L7.05379 4.69853C6.86667 4.88557 6.55346 4.8855 6.36629 4.69853C6.17912 4.51136 6.17912 4.19722 6.36629 4.01005L8.07723 2.29912Z" fill="#252525"/>
</svg>
