<svg width="16" height="16" viewBox="0 0 16 16" fill="none" xmlns="http://www.w3.org/2000/svg">
<path fill-rule="evenodd" clip-rule="evenodd" d="M1 2.27272C1 2.54887 1.22386 2.77272 1.5 2.77272L3.5 2.77272C3.77614 2.77272 4 2.54887 4 2.27272C4 1.99658 3.77614 1.77272 3.5 1.77272L1.5 1.77272C1.22386 1.77272 1 1.99658 1 2.27272ZM5 2.27272C5 2.54887 5.22386 2.77272 5.5 2.77272L14.5 2.77272C14.7761 2.77272 15 2.54887 15 2.27272C15 1.99658 14.7761 1.77272 14.5 1.77272L5.5 1.77272C5.22386 1.77272 5 1.99658 5 2.27272Z" fill="#252525"/>
<path fill-rule="evenodd" clip-rule="evenodd" d="M1 8.00001C1 8.27615 1.22386 8.50001 1.5 8.50001L3.5 8.50001C3.77614 8.50001 4 8.27615 4 8.00001C4 7.72387 3.77614 7.50001 3.5 7.50001H1.5C1.22386 7.50001 1 7.72387 1 8.00001ZM5 8.00001C5 8.27615 5.22386 8.50001 5.5 8.50001H14.5C14.7761 8.50001 15 8.27615 15 8.00001C15 7.72387 14.7761 7.50001 14.5 7.50001L5.5 7.50001C5.22386 7.50001 5 7.72387 5 8.00001Z" fill="#252525"/>
<path fill-rule="evenodd" clip-rule="evenodd" d="M1 13.7273C1 14.0034 1.22386 14.2273 1.5 14.2273L3.5 14.2273C3.77614 14.2273 4 14.0034 4 13.7273C4 13.4511 3.77614 13.2273 3.5 13.2273H1.5C1.22386 13.2273 1 13.4511 1 13.7273ZM5 13.7273C5 14.0034 5.22386 14.2273 5.5 14.2273H14.5C14.7761 14.2273 15 14.0034 15 13.7273C15 13.4511 14.7761 13.2273 14.5 13.2273H5.5C5.22386 13.2273 5 13.4511 5 13.7273Z" fill="#252525"/>
</svg>
