<svg width="15" height="15" viewBox="0 0 15 15" fill="none" xmlns="http://www.w3.org/2000/svg">
<path d="M3.69043 8.0127C3.9072 7.9475 4.13576 8.07044 4.20117 8.28711C4.26645 8.50402 4.14367 8.73355 3.92676 8.79883C3.20936 9.01474 2.64623 9.28571 2.27148 9.57812C1.89275 9.87377 1.75781 10.147 1.75781 10.3711C1.75781 10.6432 1.96126 10.9886 2.53223 11.3447C2.96039 11.6118 3.5438 11.8479 4.24512 12.0312L3.82324 10.4785C3.76388 10.2599 3.89276 10.035 4.11133 9.97559C4.32991 9.91621 4.55485 10.0451 4.61426 10.2637L5.2168 12.4785C5.2178 12.4822 5.21785 12.4865 5.21875 12.4902C5.22042 12.4973 5.22136 12.5045 5.22266 12.5117C5.2265 12.5323 5.22882 12.5527 5.22949 12.5732C5.22957 12.5765 5.22949 12.5797 5.22949 12.583C5.23074 12.7277 5.15688 12.866 5.02734 12.9414L3.19434 14.0068C2.99854 14.1206 2.74766 14.0542 2.63379 13.8584C2.51998 13.6626 2.58645 13.4117 2.78223 13.2979L3.73828 12.7412C3.10278 12.5537 2.54369 12.3192 2.09766 12.041C1.44513 11.634 0.9375 11.0729 0.9375 10.3711C0.937502 9.79077 1.28784 9.30537 1.7666 8.93164C2.24931 8.55491 2.9164 8.24564 3.69043 8.0127ZM11.3096 8.0127C12.0836 8.24564 12.7507 8.55491 13.2334 8.93164C13.7122 9.30537 14.0625 9.79077 14.0625 10.3711C14.0625 10.86 13.8126 11.2842 13.4502 11.627C13.0887 11.9687 12.588 12.2581 12.0029 12.4922C10.8301 12.9613 9.2377 13.2422 7.5 13.2422C7.27348 13.2422 7.08984 13.0586 7.08984 12.832C7.08985 12.6055 7.27348 12.4219 7.5 12.4219C9.16004 12.4219 10.6443 12.152 11.6982 11.7305C12.226 11.5193 12.6256 11.278 12.8867 11.0312C13.147 10.7851 13.2422 10.5617 13.2422 10.3711C13.2422 10.147 13.1073 9.87377 12.7285 9.57812C12.3538 9.28571 11.7906 9.01474 11.0732 8.79883C10.8563 8.73355 10.7335 8.50402 10.7988 8.28711C10.8642 8.07044 11.0928 7.94751 11.3096 8.0127ZM7.68262 0.9375C9.59533 0.937675 11.1455 2.48861 11.1455 4.40137C11.1454 5.05368 10.9649 5.66365 10.6514 6.18457L8.43262 10.8955C8.09938 11.4726 7.26601 11.4724 6.93262 10.8955L4.71289 6.18457C4.39935 5.66367 4.21881 5.05363 4.21875 4.40137C4.21875 2.48851 5.76976 0.9375 7.68262 0.9375ZM7.68262 1.75781C6.12842 1.75781 5.03906 2.84717 5.03906 4.40137C5.03912 4.93238 5.18602 5.42697 5.44043 5.84961L5.45703 5.87793L7.50488 10.2344C7.59033 10.358 7.77498 10.358 7.86035 10.2344L9.94434 5.87793L9.96094 5.84961C10.2153 5.42701 10.3622 4.93231 10.3623 4.40137C10.3623 2.84728 9.23665 1.75796 7.68262 1.75781ZM7.68262 3.53516C8.1607 3.53532 8.54785 3.92325 8.54785 4.40137C8.54769 4.87935 8.1606 5.26644 7.68262 5.2666C7.2045 5.2666 6.81657 4.87945 6.81641 4.40137C6.81641 3.92315 7.2044 3.53516 7.68262 3.53516ZM7.68262 4.18457C7.56306 4.18457 7.46582 4.28181 7.46582 4.40137C7.46598 4.52078 7.56316 4.61719 7.68262 4.61719C7.80193 4.61703 7.89828 4.52068 7.89844 4.40137C7.89844 4.28191 7.80203 4.18473 7.68262 4.18457Z" fill="#252525"/>
</svg>
