<svg width="16" height="15" viewBox="0 0 16 15" fill="none" xmlns="http://www.w3.org/2000/svg">
<path d="M8.00037 0.9375C10.5775 0.937665 12.6664 2.89636 12.6664 5.3125C12.6664 6.13651 12.4238 6.90738 12.0013 7.56543L9.01013 13.5156C8.56103 14.2447 7.43865 14.2448 6.98962 13.5156L3.99939 7.56543C3.5768 6.90731 3.33337 6.13663 3.33337 5.3125C3.33337 2.89625 5.42304 0.9375 8.00037 0.9375ZM8.00037 1.75781C5.90629 1.75781 4.20837 3.3493 4.20837 5.3125C4.20837 5.98337 4.40559 6.60863 4.74841 7.14258L4.77185 7.17871L7.76013 13.125C7.8752 13.2813 8.12455 13.2813 8.23962 13.125L11.2289 7.17871L11.2513 7.14258C11.5942 6.60861 11.7914 5.98342 11.7914 5.3125C11.7914 3.3494 10.0943 1.75798 8.00037 1.75781ZM8.00037 4.21875C8.64455 4.21891 9.16638 4.70854 9.16638 5.3125C9.16638 5.91646 8.64455 6.40609 8.00037 6.40625C7.35603 6.40625 6.83337 5.91656 6.83337 5.3125C6.83337 4.70844 7.35603 4.21875 8.00037 4.21875ZM8.00037 5.03906C7.83928 5.03906 7.70837 5.16148 7.70837 5.3125C7.70837 5.46352 7.83928 5.58594 8.00037 5.58594C8.1613 5.58577 8.29138 5.46341 8.29138 5.3125C8.29138 5.16159 8.1613 5.03923 8.00037 5.03906Z" fill="#252525"/>
</svg>
