<svg width="16" height="16" viewBox="0 0 16 16" fill="none" xmlns="http://www.w3.org/2000/svg">
<path d="M8 1C9.933 1 11.5 2.567 11.5 4.5V6.25H11.9375C12.6624 6.25 13.25 6.83763 13.25 7.5625V13.6875C13.25 14.4124 12.6624 15 11.9375 15H4.0625C3.33763 15 2.75 14.4124 2.75 13.6875L2.75 7.5625C2.75 6.83763 3.33763 6.25 4.0625 6.25H4.5V4.5C4.5 2.567 6.067 1 8 1ZM4.0625 7.125C3.82088 7.125 3.625 7.32088 3.625 7.5625L3.625 13.6875C3.625 13.9291 3.82088 14.125 4.0625 14.125H11.9375C12.1791 14.125 12.375 13.9291 12.375 13.6875V7.5625C12.375 7.32088 12.1791 7.125 11.9375 7.125L4.0625 7.125ZM8 9.3125C8.24162 9.3125 8.4375 9.50838 8.4375 9.75V11.5C8.4375 11.7416 8.24162 11.9375 8 11.9375C7.75838 11.9375 7.5625 11.7416 7.5625 11.5V9.75C7.5625 9.50838 7.75838 9.3125 8 9.3125ZM8 1.875C6.55025 1.875 5.375 3.05025 5.375 4.5V6.25L10.625 6.25V4.5C10.625 3.05025 9.44975 1.875 8 1.875Z" fill="#252525"/>
</svg>
