<svg width="16" height="15" viewBox="0 0 16 15" fill="none" xmlns="http://www.w3.org/2000/svg">
<path d="M12.4004 4.6875C13.8343 4.69248 14.9956 5.94881 15 7.5C14.9959 9.05132 13.8344 10.3078 12.4004 10.3125L3.59961 10.3125C2.16543 10.3082 1.00381 9.05145 1 7.5C1.0041 5.94868 2.16555 4.69216 3.59961 4.6875L12.4004 4.6875ZM3.60156 5.625C2.84673 5.62842 2.00419 6.33715 2 7.5C2.00393 8.66309 2.84677 9.3719 3.60156 9.375L12.3984 9.375C13.1532 9.37158 13.9957 8.66277 14 7.5C13.9955 6.33742 13.1533 5.62873 12.3984 5.625L3.60156 5.625ZM11 6.5625C11.5523 6.5625 12 6.98223 12 7.5C12 8.01777 11.5523 8.4375 11 8.4375C10.4477 8.4375 10 8.01777 10 7.5C10 6.98223 10.4477 6.5625 11 6.5625Z" fill="#252525"/>
</svg>
