<svg width="16" height="16" viewBox="0 0 16 16" fill="none" xmlns="http://www.w3.org/2000/svg">
<path fill-rule="evenodd" clip-rule="evenodd" d="M8 15C7.75838 15 7.5625 14.8041 7.5625 14.5625L7.5625 1.4375C7.5625 1.19587 7.75838 1 8 1C8.24163 1 8.4375 1.19587 8.4375 1.4375L8.4375 14.5625C8.4375 14.8041 8.24162 15 8 15Z" fill="#252525"/>
<path fill-rule="evenodd" clip-rule="evenodd" d="M10.4969 3.93436C10.326 4.10521 10.049 4.10521 9.87814 3.93436L8 2.05622L6.12186 3.93436C5.951 4.10521 5.674 4.10521 5.50314 3.93436C5.33229 3.7635 5.33229 3.4865 5.50314 3.31564L7.69064 1.12814C7.8615 0.957286 8.13851 0.957286 8.30936 1.12814L10.4969 3.31564C10.6677 3.4865 10.6677 3.7635 10.4969 3.93436Z" fill="#252525"/>
</svg>
