<svg width="16" height="16" viewBox="0 0 16 16" fill="none" xmlns="http://www.w3.org/2000/svg">
<path fill-rule="evenodd" clip-rule="evenodd" d="M8 1C8.23012 1 8.41667 1.19588 8.41667 1.4375V14.5625C8.41667 14.8041 8.23012 15 8 15C7.76988 15 7.58333 14.8041 7.58333 14.5625L7.58333 1.4375C7.58333 1.19588 7.76988 1 8 1Z" fill="#252525"/>
<path fill-rule="evenodd" clip-rule="evenodd" d="M5.62204 12.0656C5.78476 11.8948 6.04858 11.8948 6.21129 12.0656L8 13.9438L9.78871 12.0656C9.95142 11.8948 10.2152 11.8948 10.378 12.0656C10.5407 12.2365 10.5407 12.5135 10.378 12.6844L8.29463 14.8719C8.13191 15.0427 7.86809 15.0427 7.70537 14.8719L5.62204 12.6844C5.45932 12.5135 5.45932 12.2365 5.62204 12.0656Z" fill="#252525"/>
</svg>
