<svg width="16" height="15" viewBox="0 0 16 15" fill="none" xmlns="http://www.w3.org/2000/svg">
<path fill-rule="evenodd" clip-rule="evenodd" d="M2.39998 2.90625L13.6 2.90625C14.3204 2.90625 14.9 3.43895 14.9 4.09091V10.9091C14.9 11.5611 14.3204 12.0937 13.6 12.0937H2.39998C1.67951 12.0937 1.09998 11.5611 1.09998 10.9091L1.09998 4.09091C1.09998 3.43895 1.67951 2.90625 2.39998 2.90625ZM6.47743 8.7434L1.89998 5.09026L1.89998 10.7812C1.89998 10.9005 1.90997 11.0353 1.96237 11.1428C1.98946 11.1984 2.02947 11.2501 2.08825 11.2874C2.14752 11.3251 2.21878 11.3438 2.29998 11.3438H13.5C13.6608 11.3438 13.8102 11.2716 13.9177 11.1699C14.025 11.0683 14.1 10.9285 14.1 10.7812V5.09026L9.52254 8.74338C8.62408 9.46054 7.37587 9.46053 6.47743 8.7434ZM9.06546 8.0947L14.1 4.07679V3.96307C14.1 3.89511 14.0838 3.83415 14.0459 3.78405C14.008 3.73381 13.9555 3.70398 13.9015 3.68618C13.8044 3.65417 13.6799 3.65509 13.5723 3.65588L13.561 3.65597C13.5405 3.65611 13.5203 3.65625 13.5 3.65625L2.29998 3.65625C2.17639 3.65625 2.0806 3.6996 2.01488 3.77632C1.95328 3.84821 1.92545 3.94087 1.91215 4.02933L1.90447 4.08038L6.93452 8.09472C7.56179 8.59541 8.43816 8.5954 9.06546 8.0947Z" fill="#252525"/>
</svg>
