<svg width="16" height="16" viewBox="0 0 16 16" fill="none" xmlns="http://www.w3.org/2000/svg">
<path d="M3.8 8.00001C3.8 8.7732 3.1732 9.40001 2.4 9.40001C1.6268 9.40001 1 8.7732 1 8.00001C1 7.22681 1.6268 6.60001 2.4 6.60001C3.1732 6.60001 3.8 7.22681 3.8 8.00001Z" fill="#252525"/>
<path d="M9.4 8.00001C9.4 8.7732 8.7732 9.40001 8 9.40001C7.2268 9.40001 6.6 8.7732 6.6 8.00001C6.6 7.22681 7.2268 6.60001 8 6.60001C8.7732 6.60001 9.4 7.22681 9.4 8.00001Z" fill="#252525"/>
<path d="M15 8.00001C15 8.7732 14.3732 9.40001 13.6 9.40001C12.8268 9.40001 12.2 8.7732 12.2 8.00001C12.2 7.22681 12.8268 6.60001 13.6 6.60001C14.3732 6.60001 15 7.22681 15 8.00001Z" fill="#252525"/>
</svg>
