<svg width="16" height="16" viewBox="0 0 16 16" fill="none" xmlns="http://www.w3.org/2000/svg">
<path d="M14 11.833C14.276 11.833 14.4998 12.057 14.5 12.333C14.5 12.6091 14.2761 12.833 14 12.833H2C1.72386 12.833 1.5 12.6091 1.5 12.333C1.50018 12.057 1.72397 11.833 2 11.833H14ZM14 7.16699C14.2761 7.16699 14.5 7.39085 14.5 7.66699C14.4998 7.94299 14.276 8.16699 14 8.16699H2C1.72397 8.16699 1.50018 7.94299 1.5 7.66699C1.5 7.39085 1.72386 7.16699 2 7.16699L14 7.16699ZM14 2.5C14.2761 2.5 14.5 2.72386 14.5 3C14.5 3.27614 14.2761 3.5 14 3.5L2 3.5C1.72386 3.5 1.5 3.27614 1.5 3C1.5 2.72386 1.72386 2.5 2 2.5L14 2.5Z" fill="#252525"/>
</svg>
