<svg width="16" height="15" viewBox="0 0 16 15" fill="none" xmlns="http://www.w3.org/2000/svg">
<path fill-rule="evenodd" clip-rule="evenodd" d="M6.99686 8.44042C7.16772 8.60059 7.16772 8.86029 6.99686 9.02047L1.74686 13.9423C1.576 14.1025 1.299 14.1025 1.12814 13.9423C0.957286 13.7822 0.957286 13.5225 1.12814 13.3623L6.37814 8.44042C6.549 8.28024 6.82601 8.28024 6.99686 8.44042Z" fill="#252525"/>
<path fill-rule="evenodd" clip-rule="evenodd" d="M13.075 6.84372C13.075 7.07025 12.8791 7.25388 12.6375 7.25388L8.7 7.25388C8.45838 7.25388 8.2625 7.07025 8.2625 6.84372L8.2625 3.15232C8.2625 2.92579 8.45838 2.74216 8.7 2.74216C8.94163 2.74216 9.1375 2.92579 9.1375 3.15232L9.1375 6.43357L12.6375 6.43357C12.8791 6.43357 13.075 6.6172 13.075 6.84372Z" fill="#252525"/>
<path fill-rule="evenodd" clip-rule="evenodd" d="M7.0375 12.5039C6.79588 12.5039 6.6 12.3202 6.6 12.0937L6.6 8.81247L3.1 8.81248C2.85838 8.81248 2.6625 8.62884 2.6625 8.40232C2.6625 8.1758 2.85838 7.99216 3.1 7.99216L7.0375 7.99216C7.27913 7.99216 7.475 8.17579 7.475 8.40232L7.475 12.0937C7.475 12.3202 7.27913 12.5039 7.0375 12.5039Z" fill="#252525"/>
<path fill-rule="evenodd" clip-rule="evenodd" d="M14.8719 1.05761C15.0427 1.21778 15.0427 1.47748 14.8719 1.63765L9.62186 6.55953C9.451 6.7197 9.174 6.7197 9.00314 6.55953C8.83229 6.39935 8.83229 6.13966 9.00314 5.97948L14.2531 1.05761C14.424 0.89743 14.701 0.89743 14.8719 1.05761Z" fill="#252525"/>
</svg>
