<svg width="16" height="16" viewBox="0 0 16 16" fill="none" xmlns="http://www.w3.org/2000/svg">
<path d="M8.04395 1C11.4778 1 14.3836 3.4431 15 6.75879V7.02051C15 7.19488 14.9122 7.36957 14.8242 7.54395L14.208 8.24219L12.0947 10.5986L10.2451 12.6055L9.0127 14.001L8.39648 14.6992C8.30845 14.8737 8.13213 14.9609 7.95605 14.9609C7.868 15.0482 7.69157 14.9609 7.60352 14.9609C3.90553 14.699 1 11.6452 1 7.98047C1.00008 4.14122 4.16981 1.00004 8.04395 1ZM13.5029 6.93359C13.0627 6.75914 12.4462 6.75943 11.918 6.84668C11.654 6.84674 11.39 6.93331 11.126 7.02051C10.8618 7.10777 10.5093 7.28252 10.2451 7.45703C9.71685 7.80604 9.18827 8.1552 8.74805 8.67871C8.30792 9.11494 7.95551 9.63836 7.69141 10.249C7.51534 10.8597 7.33991 11.3835 7.33984 11.9941V12.3438C7.42776 12.6054 7.42769 12.9542 7.51563 13.2158C7.51563 13.303 7.60331 13.3904 7.60352 13.4775C7.69153 13.652 7.78015 13.8265 7.86816 14.001L8.57227 13.2158L9.7168 11.9072L11.3896 10.0752L12.4463 8.85352L14.0312 7.1084C13.8552 7.02115 13.679 7.02085 13.5029 6.93359ZM8.04395 1.87305C4.61007 1.87309 1.88093 4.57751 1.88086 7.98047C1.88086 10.9472 3.99375 13.3905 6.89941 13.9141C6.81137 13.8268 6.81152 13.8265 6.81152 13.7393C6.63552 13.4775 6.63491 13.2158 6.54688 12.9541C4.87418 12.3432 3.64174 10.7729 3.6416 8.85352C3.6416 8.59174 3.81788 8.41699 4.08203 8.41699C4.34603 8.41711 4.52246 8.59183 4.52246 8.85352C4.52259 10.2494 5.31455 11.3834 6.45898 11.9941V11.8203C6.45898 11.2096 6.63534 10.5114 6.89941 9.81348C7.16357 9.20267 7.51564 8.50401 8.04395 7.98047C8.39605 7.63154 8.74838 7.3701 9.18848 7.1084C9.01282 7.10844 8.93351 7.15596 8.83691 7.1084C8.66095 7.02121 8.48469 6.75948 8.57227 6.58496C8.8364 5.88695 9.54077 5.36336 10.2451 5.36328C10.7733 5.36328 11.2134 5.62473 11.4775 5.97363C11.6536 5.88641 11.7421 5.88672 11.8301 5.88672C12.4464 5.79946 13.1512 5.79912 13.7676 5.97363C13.8553 5.97363 13.8556 5.9736 13.9434 6.06055C13.0628 3.61752 10.7734 1.87305 8.04395 1.87305ZM5.77637 5.56738C6.16446 5.56738 6.47946 5.88242 6.47949 6.27051C6.47949 6.65862 6.16448 6.97363 5.77637 6.97363C5.3883 6.97357 5.07422 6.65859 5.07422 6.27051C5.07426 5.88246 5.38833 5.56744 5.77637 5.56738ZM10.2451 6.23535C9.89297 6.23543 9.54116 6.4977 9.45312 6.84668C9.45305 6.87113 9.44553 6.89546 9.43555 6.91797C9.53104 6.80861 9.66746 6.73987 9.80469 6.67187C10.0688 6.58462 10.2456 6.40952 10.5098 6.32227C10.4217 6.23506 10.3331 6.23535 10.2451 6.23535Z" fill="#252525"/>
</svg>
