<svg width="16" height="16" viewBox="0 0 16 16" fill="none" xmlns="http://www.w3.org/2000/svg">
<path fill-rule="evenodd" clip-rule="evenodd" d="M7.12302 11.5002C7.12302 10.5338 7.90646 9.75038 8.87288 9.75038C9.83931 9.75038 10.6228 10.5338 10.6228 11.5002C10.6228 12.4667 9.83931 13.2501 8.87288 13.2501C7.90646 13.2501 7.12302 12.4667 7.12302 11.5002ZM8.87288 10.6253C8.38967 10.6253 7.99795 11.017 7.99795 11.5002C7.99795 11.9835 8.38967 12.3752 8.87288 12.3752C9.3561 12.3752 9.74782 11.9835 9.74782 11.5002C9.74782 11.017 9.3561 10.6253 8.87288 10.6253Z" fill="#252525"/>
<path fill-rule="evenodd" clip-rule="evenodd" d="M11.4977 13.2501C11.4977 12.2837 12.2811 11.5002 13.2476 11.5002C14.214 11.5002 14.9974 12.2837 14.9974 13.2501C14.9974 14.2165 14.214 15 13.2476 15C12.2811 15 11.4977 14.2165 11.4977 13.2501ZM13.2476 12.3752C12.7643 12.3752 12.3726 12.7669 12.3726 13.2501C12.3726 13.7333 12.7643 14.1251 13.2476 14.1251C13.7308 14.1251 14.1225 13.7333 14.1225 13.2501C14.1225 12.7669 13.7308 12.3752 13.2476 12.3752Z" fill="#252525"/>
<path fill-rule="evenodd" clip-rule="evenodd" d="M11.4977 8.87545C11.4977 7.90902 12.2811 7.12558 13.2476 7.12558C14.214 7.12558 14.9974 7.90902 14.9974 8.87545C14.9974 9.84187 14.214 10.6253 13.2476 10.6253C12.2811 10.6253 11.4977 9.84187 11.4977 8.87545ZM13.2476 8.00051C12.7643 8.00051 12.3726 8.39223 12.3726 8.87545C12.3726 9.35866 12.7643 9.75038 13.2476 9.75038C13.7308 9.75038 14.1225 9.35866 14.1225 8.87545C14.1225 8.39223 13.7308 8.00051 13.2476 8.00051Z" fill="#252525"/>
<path fill-rule="evenodd" clip-rule="evenodd" d="M12.4998 9.32407C12.6242 9.53125 12.557 9.79996 12.3498 9.92427L10.2208 11.2017C10.0136 11.326 9.7449 11.2588 9.62059 11.0516C9.49629 10.8444 9.56347 10.5757 9.77064 10.4514L11.8996 9.17402C12.1068 9.04972 12.3755 9.11689 12.4998 9.32407Z" fill="#252525"/>
<path fill-rule="evenodd" clip-rule="evenodd" d="M9.68463 11.8248C9.77438 11.6005 10.029 11.4914 10.2533 11.5811L12.1922 12.3569C12.4165 12.4467 12.5256 12.7013 12.4358 12.9256C12.3461 13.1499 12.0914 13.259 11.8671 13.1692L9.92828 12.3935C9.70396 12.3037 9.59488 12.0491 9.68463 11.8248Z" fill="#252525"/>
<path fill-rule="evenodd" clip-rule="evenodd" d="M13.7742 5.959C12.7361 3.02273 9.65968 1.33308 6.62481 2.03235C3.58994 2.73161 1.56309 5.59709 1.91451 8.69159C2.26592 11.7861 4.8837 14.1241 7.99808 14.125C8.23969 14.1251 8.43549 14.321 8.43542 14.5626C8.43534 14.8043 8.23942 15.0001 7.99782 15C4.43852 14.9989 1.44678 12.3269 1.04516 8.79031C0.643541 5.25374 2.95994 1.97891 6.42836 1.17975C9.89678 0.380594 13.4127 2.31162 14.5991 5.66735C14.6796 5.89514 14.5603 6.14509 14.3325 6.22562C14.1047 6.30616 13.8547 6.18679 13.7742 5.959Z" fill="#252525"/>
<path fill-rule="evenodd" clip-rule="evenodd" d="M6.66293 1.26885C6.86261 1.40486 6.91423 1.677 6.77821 1.87668C5.96066 3.07694 5.37315 5.34157 5.37315 8.00051C5.37315 10.6595 5.96068 12.9247 6.77816 14.1243C6.91422 14.3239 6.86266 14.5961 6.663 14.7321C6.46335 14.8682 6.1912 14.8166 6.05514 14.617C5.09825 13.2128 4.49821 10.7463 4.49821 8.00051C4.49821 5.25469 5.09827 2.78885 6.05509 1.38413C6.19111 1.18445 6.46324 1.13283 6.66293 1.26885Z" fill="#252525"/>
<path fill-rule="evenodd" clip-rule="evenodd" d="M2.31029 4.06331C2.31029 3.8217 2.50615 3.62584 2.74776 3.62584L13.2476 3.62584C13.4892 3.62584 13.685 3.8217 13.685 4.06331C13.685 4.30492 13.4892 4.50078 13.2476 4.50078L2.74776 4.50078C2.50615 4.50078 2.31029 4.30492 2.31029 4.06331Z" fill="#252525"/>
<path fill-rule="evenodd" clip-rule="evenodd" d="M1.75559 11.0628C1.75559 10.8212 1.95145 10.6253 2.19305 10.6253H5.81061C6.05222 10.6253 6.24808 10.8212 6.24808 11.0628C6.24808 11.3044 6.05222 11.5002 5.81061 11.5002H2.19305C1.95145 11.5002 1.75559 11.3044 1.75559 11.0628Z" fill="#252525"/>
<path fill-rule="evenodd" clip-rule="evenodd" d="M9.33284 1.26894C9.53247 1.13285 9.80463 1.18437 9.94071 1.384C10.8457 2.71162 11.4295 4.98629 11.4923 7.54238L11.4926 7.55313L11.4924 7.56305C11.4924 7.80465 11.2966 8.00051 11.055 8.00051H1.45053C1.20892 8.00051 1.01306 7.80465 1.01306 7.56305C1.01306 7.32144 1.20892 7.12558 1.45053 7.12558L10.6014 7.12558C10.4884 4.84576 9.94312 2.94085 9.21778 1.87682C9.08169 1.67718 9.1332 1.40503 9.33284 1.26894Z" fill="#252525"/>
</svg>
