<svg width="16" height="16" viewBox="0 0 16 16" fill="none" xmlns="http://www.w3.org/2000/svg">
<path d="M11.8164 1C12.0977 1 12.2852 1.09996 12.4727 1.2998L14.3486 3.09961C14.5362 3.19961 14.6299 3.5002 14.6299 3.7002V7H13.6924V3.7998L11.9102 2L2.4375 2L2.4375 14.0996L6.18945 14.0654V15H2.4375C1.87498 14.9998 1.5 14.5995 1.5 14.0996L1.5 1.90039C1.5 1.50048 1.87498 1.00021 2.4375 1L11.8164 1ZM13.1592 9.24707C13.139 9.28471 13.1161 9.32137 13.0859 9.35352L9.33398 13.3535C9.30412 13.3853 9.27028 13.4102 9.23535 13.4316C9.698 13.7878 10.2647 14 10.8789 14C12.4326 13.9998 13.6924 12.6567 13.6924 11C13.6924 10.345 13.4933 9.74041 13.1592 9.24707ZM10.8789 8C9.32501 8 8.06543 9.34315 8.06543 11C8.06543 11.6546 8.26391 12.2588 8.59766 12.752C8.61778 12.7146 8.64099 12.6784 8.6709 12.6465L12.4229 8.64648C12.4526 8.61476 12.4857 8.5888 12.5205 8.56738C12.0582 8.21193 11.4924 8.00008 10.8789 8ZM10.8789 7C12.9506 7.00019 14.6299 8.79098 14.6299 11C14.6299 13.209 12.9506 14.9998 10.8789 15C8.80705 15 7.12695 13.2091 7.12695 11C7.12695 8.79086 8.80705 7 10.8789 7ZM5.84473 3.5C6.94469 3.50005 7.84473 4.40003 7.84473 5.5C7.84473 6.59997 6.94469 7.49995 5.84473 7.5C4.74473 7.5 3.84473 6.6 3.84473 5.5C3.84473 4.4 4.74473 3.5 5.84473 3.5ZM5.84473 4.5C5.24473 4.5 4.84473 4.9 4.84473 5.5C4.84473 6.1 5.24473 6.5 5.84473 6.5C6.44468 6.49996 6.84473 6.09997 6.84473 5.5C6.84473 4.90003 6.44468 4.50004 5.84473 4.5Z" fill="#252525"/>
</svg>
