<svg width="16" height="16" viewBox="0 0 16 16" fill="none" xmlns="http://www.w3.org/2000/svg">
<path fill-rule="evenodd" clip-rule="evenodd" d="M1.01675 10.0832C1.01675 9.82385 1.21192 9.61361 1.45268 9.61361H5.52539C5.76615 9.61361 5.96132 9.82385 5.96132 10.0832C5.96132 10.3426 5.76615 10.5528 5.52539 10.5528H1.45268C1.21192 10.5528 1.01675 10.3426 1.01675 10.0832Z" fill="#252525"/>
<path fill-rule="evenodd" clip-rule="evenodd" d="M11.6476 5.38721C11.238 5.38721 10.9059 5.70258 10.9059 6.09161C10.9059 6.48064 11.238 6.79601 11.6476 6.79601C12.0572 6.79601 12.3893 6.48064 12.3893 6.09161C12.3893 5.70258 12.0572 5.38721 11.6476 5.38721Z" fill="#252525"/>
<path fill-rule="evenodd" clip-rule="evenodd" d="M8.43361 2.88267C8.43361 2.45042 8.82102 2.10001 9.29891 2.10001H11.0295C11.5074 2.10001 11.8948 2.45042 11.8948 2.88267V4.05667C11.8948 4.2728 11.7011 4.44801 11.4622 4.44801H8.86626C8.62731 4.44801 8.43361 4.2728 8.43361 4.05667V2.88267ZM11.0295 2.88267L9.29891 2.88267V3.66534L11.0295 3.66534V2.88267Z" fill="#252525"/>
<path fill-rule="evenodd" clip-rule="evenodd" d="M10.512 10.5528H13.9746C14.1914 10.5528 14.3671 10.3426 14.3671 10.0832C14.3671 9.82385 14.1914 9.61361 13.9746 9.61361H10.3085C10.1011 9.61361 9.93122 9.80613 9.91698 10.05L10.512 10.5528Z" fill="#252525"/>
<path fill-rule="evenodd" clip-rule="evenodd" d="M4.60823 6.32641H5.03368C5.27292 6.32641 5.46686 6.11616 5.46686 5.85681C5.46686 5.59745 5.27292 5.38721 5.03368 5.38721H3.73413C3.64316 5.38721 3.55874 5.41761 3.48904 5.46955L4.60823 6.32641Z" fill="#252525"/>
<path fill-rule="evenodd" clip-rule="evenodd" d="M1.07696 3.99501C1.21078 3.81506 1.47285 3.77221 1.66232 3.89929L14.8223 12.9407C15.0117 13.0677 15.0568 13.3166 14.923 13.4966C14.7892 13.6765 14.5271 13.7194 14.3377 13.5923L1.17775 4.55094C0.988275 4.42386 0.943153 4.17496 1.07696 3.99501Z" fill="#252525"/>
<path fill-rule="evenodd" clip-rule="evenodd" d="M1.36232 5.69255L1.01675 6.03291L1.01675 11.7855C1.01675 12.9202 1.95068 13.84 3.10274 13.84H12.2811C12.2896 13.84 12.2979 13.84 12.306 13.84C12.5248 13.84 12.704 13.6679 12.7111 13.4526C12.7188 13.2182 12.5192 13.0182 12.2811 13.0182H3.10274C2.4115 13.0182 1.85115 12.4663 1.85115 11.7855L1.85115 6.03291C1.85115 5.84493 1.69643 5.69255 1.50557 5.69255H1.36232ZM13.2174 12.6035C13.4136 12.3859 13.5327 12.0994 13.5327 11.7855V6.03291C13.5327 5.3521 12.9723 4.80021 12.2811 4.80021L3.10274 4.80021C2.82128 4.80021 2.56151 4.89171 2.35244 5.04617L1.65059 4.55798C2.02613 4.19924 2.53825 3.97841 3.10274 3.97841L12.2811 3.97841C13.4332 3.97841 14.3671 4.89824 14.3671 6.03291V11.7855C14.3671 12.2759 14.1926 12.7262 13.9015 13.0794L13.2174 12.6035Z" fill="#252525"/>
<path fill-rule="evenodd" clip-rule="evenodd" d="M5.72121 8.0934C5.50725 7.94989 5.20645 8.01727 5.1237 8.25329C5.02555 8.53325 4.97241 8.83273 4.97241 9.14401C4.97241 10.7001 6.30066 11.9616 7.93915 11.9616C8.62718 11.9616 9.2605 11.7392 9.76374 11.3659C9.97024 11.2127 9.93669 10.9208 9.72267 10.7773C9.55084 10.662 9.31921 10.6843 9.14642 10.7982C8.80387 11.0242 8.38779 11.1566 7.93915 11.1566C6.7688 11.1566 5.82005 10.2555 5.82005 9.14401C5.82005 8.96158 5.8456 8.78483 5.8935 8.6168C5.94852 8.42376 5.89321 8.20876 5.72121 8.0934ZM10.1847 10.1016C10.0177 9.98965 9.95946 9.78357 10.005 9.59432C10.0398 9.44954 10.0583 9.29882 10.0583 9.14401C10.0583 8.03249 9.1095 7.13143 7.93915 7.13143C7.52047 7.13143 7.13015 7.24675 6.80147 7.44577C6.62924 7.55005 6.40542 7.56676 6.23857 7.45486C6.01841 7.30719 5.98928 7.00507 6.20804 6.85554C6.69523 6.52254 7.29307 6.32641 7.93915 6.32641C9.57764 6.32641 10.9059 7.58789 10.9059 9.14401C10.9059 9.41627 10.8652 9.67952 10.7894 9.92857C10.7144 10.1745 10.4049 10.2493 10.1847 10.1016Z" fill="#252525"/>
</svg>
