<svg width="16" height="16" viewBox="0 0 16 16" fill="none" xmlns="http://www.w3.org/2000/svg">
<path fill-rule="evenodd" clip-rule="evenodd" d="M9.29303 13.2686C9.52486 13.3366 9.65796 13.5797 9.5899 13.8115C9.38297 14.516 8.73628 14.9999 8.00201 15C7.26768 15 6.62114 14.516 6.41412 13.8115C6.3461 13.5798 6.47841 13.3368 6.71002 13.2686C6.94176 13.2005 7.18479 13.3328 7.25299 13.5645C7.35049 13.8966 7.65587 14.125 8.00201 14.125C8.34803 14.1249 8.65259 13.8965 8.75006 13.5645C8.81821 13.3327 9.06125 13.2005 9.29303 13.2686ZM8.00006 1C8.24169 1 8.43755 1.19587 8.43756 1.4375V2.33203C10.8905 2.55296 12.8124 4.61454 12.8126 7.125C12.8126 9.15225 13.0288 10.3076 13.2296 10.9404C13.3295 11.2553 13.4244 11.4366 13.4835 11.5303C13.5129 11.577 13.5333 11.6024 13.5411 11.6113L13.543 11.6123C13.6738 11.7299 13.722 11.9156 13.6631 12.083C13.6015 12.2582 13.4357 12.375 13.2501 12.375H2.75006C2.5828 12.375 2.42983 12.2802 2.3565 12.1299C2.28415 11.9814 2.3017 11.8041 2.40143 11.6729L2.4024 11.6719C2.40474 11.6686 2.41017 11.6609 2.41803 11.6484C2.43422 11.6229 2.46153 11.5774 2.49615 11.5088C2.56562 11.3712 2.66526 11.1399 2.76764 10.793C2.97246 10.0988 3.18756 8.93826 3.18756 7.125C3.18767 4.61468 5.10978 2.55315 7.56256 2.33203V1.4375C7.56257 1.19594 7.75853 1.00011 8.00006 1ZM8.00006 3.1875C5.82553 3.18761 4.06268 4.95047 4.06256 7.125C4.06256 9.00646 3.84015 10.2526 3.60748 11.041C3.55587 11.2159 3.50344 11.3682 3.45318 11.5H12.5001C12.4654 11.4114 12.4299 11.3134 12.3956 11.2051C12.1589 10.459 11.9376 9.20756 11.9376 7.125C11.9374 4.9504 10.1747 3.1875 8.00006 3.1875Z" fill="#252525"/>
</svg>
