<svg width="16" height="16" viewBox="0 0 16 16" fill="none" xmlns="http://www.w3.org/2000/svg">
<path fill-rule="evenodd" clip-rule="evenodd" d="M9.07425 13.2677C9.30595 13.3357 9.43888 13.579 9.37113 13.8107C9.16429 14.5153 8.51753 15 7.78323 15.0001C7.04877 15.0001 6.40222 14.5154 6.19534 13.8107C6.12745 13.5789 6.25953 13.3358 6.49124 13.2677C6.72306 13.1997 6.96612 13.3328 7.03421 13.5646C7.13171 13.8967 7.4371 14.1251 7.78323 14.1251C8.1292 14.125 8.43383 13.8966 8.53128 13.5646C8.59935 13.3328 8.84243 13.1997 9.07425 13.2677ZM7.78128 1.00014C8.02291 1.00014 8.21878 1.19601 8.21878 1.43764V2.33412C8.91661 2.39719 9.57147 2.60783 10.1514 2.93666C9.80129 3.05604 9.47585 3.22909 9.18558 3.44643C8.74935 3.27983 8.27604 3.18764 7.78128 3.18764C5.60676 3.18775 3.84383 4.9506 3.84378 7.12514C3.84378 9.0066 3.62137 10.2527 3.3887 11.0412C3.33708 11.2161 3.28466 11.3684 3.23441 11.5001H12.2813C12.2466 11.4115 12.2112 11.3136 12.1768 11.2052C12.0605 10.8386 11.9487 10.3497 11.8643 9.70033C12.1624 9.65034 12.4474 9.5628 12.7149 9.44252C12.7955 10.1231 12.9044 10.6053 13.0108 10.9406C13.1107 11.2556 13.2057 11.4368 13.2647 11.5304C13.2937 11.5765 13.3143 11.6013 13.3223 11.6105L13.3243 11.6124C13.455 11.73 13.5032 11.9158 13.4444 12.0831C13.3827 12.2582 13.2169 12.3751 13.0313 12.3751H2.53128C2.36399 12.3751 2.21099 12.2795 2.13773 12.129C2.06563 11.9806 2.08307 11.8041 2.18265 11.673L2.18362 11.672C2.18589 11.6688 2.19131 11.6611 2.19925 11.6486C2.21546 11.623 2.24264 11.5768 2.27737 11.5079C2.34683 11.3703 2.44654 11.1398 2.54886 10.7931C2.7537 10.099 2.96878 8.93853 2.96878 7.12514C2.96883 4.61481 4.89102 2.5533 7.34378 2.33217V1.43764C7.34378 1.19604 7.53969 1.00018 7.78128 1.00014Z" fill="#252525"/>
<circle cx="11.2813" cy="6.25022" r="2.62504" fill="#EC7702"/>
</svg>
