<svg width="16" height="15" viewBox="0 0 16 15" fill="none" xmlns="http://www.w3.org/2000/svg">
<path d="M11.5611 14.1667C10.8511 14.1667 10.1411 14.0003 9.51987 13.5843C6.32487 11.5874 3.66236 9.00807 1.4436 6.01275C0.556103 4.6815 0.733603 2.85102 1.97611 1.68618L2.41986 1.27016C3.04111 0.687738 4.01736 0.687738 4.54986 1.27016L6.50237 3.10063C6.85737 3.35024 7.03487 3.76626 7.03487 4.09907C7.03487 4.51509 6.85737 4.8479 6.59112 5.09751C6.32487 5.34712 6.32487 5.67994 6.59112 5.92955L9.69737 8.84166C9.96362 9.09127 10.4074 9.09127 10.5849 8.84166C11.2061 8.25924 12.1824 8.25924 12.7149 8.84166L14.6674 10.6721C14.9336 10.9217 15.1111 11.3378 15.1111 11.6706C15.1111 12.0866 14.9336 12.4194 14.6674 12.669L14.2236 13.1682C13.5136 13.8339 12.5374 14.1667 11.5611 14.1667ZM10.0524 12.9186C11.2061 13.5843 12.6261 13.4178 13.6024 12.5858L14.0461 12.1698C14.3124 11.9202 14.3124 11.5874 14.0461 11.3378L12.0936 9.50729C11.8274 9.25768 11.4724 9.25768 11.2061 9.50729C10.5849 10.0897 9.60862 10.0897 9.07612 9.50729L5.96987 6.59517C5.34861 6.01275 5.34861 5.09751 5.96987 4.51509C6.05862 4.43189 6.14737 4.26548 6.14737 4.09907C6.14737 3.93267 6.05862 3.76626 5.96987 3.68306L4.01736 1.85258C3.75111 1.60297 3.39611 1.60297 3.12986 1.85258L2.59736 2.2686C1.62111 3.18384 1.53236 4.51509 2.24236 5.59673C4.37236 8.50885 6.94612 11.0049 10.0524 12.9186Z" fill="#252525"/>
</svg>
