<svg width="16" height="16" viewBox="0 0 16 16" fill="none" xmlns="http://www.w3.org/2000/svg">
<path fill-rule="evenodd" clip-rule="evenodd" d="M10.1378 1.00781C10.5335 0.964442 10.9277 1.10328 11.2091 1.38476L14.6173 4.79297C14.8987 5.07449 15.0377 5.46864 14.9943 5.86425C14.9507 6.25989 14.7295 6.61446 14.3937 6.82812L10.839 9.09082C11.0307 10.2038 10.8269 11.3528 10.256 12.335L10.255 12.3359C10.0492 12.6868 9.69176 12.9232 9.28823 12.9746C8.88492 13.0258 8.4806 12.8865 8.1935 12.5986L6.10659 10.5117L1.74722 14.8721C1.57635 15.0429 1.29894 15.0429 1.12807 14.8721C0.957356 14.7012 0.957261 14.4237 1.12807 14.2529L5.48745 9.89258L3.40347 7.80859C3.11554 7.52139 2.97612 7.11631 3.02749 6.71289C3.07898 6.30953 3.31542 5.95285 3.66616 5.74707L3.66714 5.74609C4.64933 5.17518 5.79829 4.97132 6.91128 5.16308L9.17397 1.60742C9.3878 1.27185 9.74229 1.05117 10.1378 1.00781ZM10.2335 1.87793C10.1018 1.89236 9.98355 1.96551 9.91225 2.07715L7.48843 5.88672C7.38812 6.04435 7.19841 6.12078 7.01675 6.07715C6.02862 5.83935 4.98636 5.99145 4.10757 6.50195C3.99103 6.57064 3.91274 6.69 3.89565 6.82422C3.87865 6.95861 3.92471 7.0938 4.02065 7.18945L8.81264 11.9805C8.90832 12.0764 9.04346 12.1235 9.17788 12.1064C9.31209 12.0894 9.43145 12.011 9.50014 11.8945C10.0107 11.0157 10.1627 9.97348 9.92495 8.98535C9.88126 8.80366 9.95772 8.614 10.1154 8.51367L13.924 6.08984C14.0358 6.01861 14.1097 5.90038 14.1242 5.76855C14.1386 5.63695 14.0926 5.50588 13.9992 5.41211L10.59 2.00293C10.4963 1.90935 10.3652 1.8636 10.2335 1.87793Z" fill="#252525"/>
</svg>
