<svg width="16" height="16" viewBox="0 0 16 16" fill="none" xmlns="http://www.w3.org/2000/svg">
<path fill-rule="evenodd" clip-rule="evenodd" d="M4.625 8.70085L4.45003 8.50261L4.45003 14.4302C4.45003 14.6972 4.23363 14.9136 3.96669 14.9136C3.69976 14.9136 3.48336 14.6972 3.48336 14.4302L3.48336 5.68023C3.48336 3.15813 5.52793 1.11357 8.05002 1.11357C10.5721 1.11357 12.6167 3.15813 12.6167 5.68023C12.6167 8.20233 10.5721 10.2469 8.05002 10.2469C6.6861 10.2469 5.46193 9.64908 4.625 8.70085ZM8.05002 9.28023C10.0382 9.28023 11.65 7.66846 11.65 5.68023C11.65 3.69201 10.0382 2.08023 8.05002 2.08023C6.0618 2.08023 4.45003 3.69202 4.45003 5.68024C4.45003 7.66846 6.0618 9.28023 8.05002 9.28023Z" fill="#252525"/>
</svg>
