<svg width="16" height="16" viewBox="0 0 16 16" fill="none" xmlns="http://www.w3.org/2000/svg">
<path d="M13.7776 0.888885C14.4886 0.888885 15.1114 1.51092 15.1116 2.22189V8.97775C15.1116 9.15545 15.1114 9.33335 14.9338 9.59982C14.8449 9.68871 14.7551 9.8664 14.6663 9.95529L9.86646 14.7551C9.77757 14.844 9.68876 14.9338 9.51099 15.0227C9.33331 15.1114 9.15546 15.1115 8.97778 15.1115H2.22192C1.51095 15.1114 0.888916 14.4886 0.888916 13.7776L0.888916 2.22189C0.889106 1.51103 1.51106 0.889075 2.22192 0.888885L13.7776 0.888885ZM2.22192 1.77756C1.95555 1.7777 1.77773 1.95552 1.77759 2.22189L1.77759 13.7776C1.77759 14.0441 1.95544 14.2217 2.22192 14.2219H8.88892V10.2219C8.88911 9.51103 9.51106 8.88908 10.2219 8.88889H14.2219V2.22189C14.2218 1.95541 14.0441 1.77756 13.7776 1.77756L2.22192 1.77756ZM10.2219 9.77756C9.95555 9.7777 9.77773 9.95552 9.77759 10.2219V13.5998L13.5999 9.77756H10.2219ZM8.00024 7.11154C8.26679 7.11164 8.44458 7.28928 8.44458 7.55588C8.44444 7.82229 8.26668 8.00012 8.00024 8.00021H4.88892C4.62236 8.00021 4.44472 7.82236 4.44458 7.55588C4.44458 7.28921 4.62225 7.11154 4.88892 7.11154L8.00024 7.11154ZM12.0002 4.44455C12.2668 4.44465 12.4446 4.62229 12.4446 4.88889C12.4446 5.15548 12.2668 5.33313 12.0002 5.33322L4.88892 5.33322C4.62225 5.33322 4.44458 5.15555 4.44458 4.88889C4.44458 4.62222 4.62225 4.44455 4.88892 4.44455L12.0002 4.44455Z" fill="#252525"/>
</svg>
