<svg width="18" height="16" viewBox="0 0 18 16" fill="none" xmlns="http://www.w3.org/2000/svg">
<path fill-rule="evenodd" clip-rule="evenodd" d="M2.13234 1.9171C2.01625 1.9171 1.92213 2.01042 1.92213 2.12553L1.92213 11.3599C1.92213 11.5226 2.10161 11.6225 2.24169 11.5379L5.68259 9.45988C5.86049 9.35244 6.06478 9.2956 6.27308 9.2956H11.4658C11.5819 9.2956 11.676 9.20229 11.676 9.08717V2.12553C11.676 2.01042 11.5819 1.9171 11.4658 1.9171L2.13234 1.9171ZM0.997192 2.12553C0.997192 1.50392 1.50542 1 2.13234 1L11.4658 1C12.0927 1 12.601 1.50392 12.601 2.12553V9.08717C12.601 9.70879 12.0927 10.2127 11.4658 10.2127H6.27308C6.23451 10.2127 6.19668 10.2232 6.16373 10.2431L2.72284 12.3212C1.96639 12.778 0.997192 12.2381 0.997192 11.3599L0.997192 2.12553Z" fill="#252525"/>
<path fill-rule="evenodd" clip-rule="evenodd" d="M6.27308 10.2127L6.27323 11.6C6.27323 11.7151 6.36734 11.8084 6.48344 11.8084H11.6762C11.8845 11.8084 12.0888 11.8652 12.2667 11.9727L15.7075 14.0507C15.8476 14.1353 16.0271 14.0354 16.0271 13.8727V4.63834C16.0271 4.52322 15.933 4.42991 15.8169 4.42991H12.6013V3.5128H15.8169C16.4438 3.5128 16.9521 4.01672 16.9521 4.63834V13.8727C16.9521 14.751 15.9829 15.2908 15.2264 14.834L11.7855 12.7559C11.7526 12.736 11.7147 12.7255 11.6762 12.7255H6.48344C5.85652 12.7255 5.34829 12.2216 5.34829 11.6V10.7358L6.16373 10.2431C6.19668 10.2232 6.23451 10.2127 6.27308 10.2127Z" fill="#252525"/>
<path fill-rule="evenodd" clip-rule="evenodd" d="M7.16151 6.38464C7.16151 6.18638 7.35092 6.02566 7.58457 6.02566L9.27678 6.02566C9.51043 6.02566 9.69983 6.18638 9.69983 6.38464C9.69983 6.5829 9.51043 6.74361 9.27678 6.74361L7.58457 6.74361C7.35092 6.74361 7.16151 6.5829 7.16151 6.38464Z" fill="#252525"/>
<path fill-rule="evenodd" clip-rule="evenodd" d="M7.16151 4.41027C7.16151 4.11288 7.35752 3.8718 7.59931 3.8718H9.98728C10.2291 3.8718 10.4251 4.11288 10.4251 4.41027C10.4251 4.70765 10.2291 4.94873 9.98728 4.94873L7.59931 4.94873C7.35752 4.94873 7.16151 4.70765 7.16151 4.41027Z" fill="#252525"/>
<path fill-rule="evenodd" clip-rule="evenodd" d="M3.73095 4.78305V6.19134H5.15352V4.78305H3.73095ZM3.4799 3.8718C3.11018 3.8718 2.81046 4.16851 2.81046 4.53453L2.81046 6.43986C2.81046 6.80587 3.11018 7.10258 3.4799 7.10258H5.40457C5.77429 7.10258 6.07401 6.80587 6.07401 6.43986V4.53453C6.07401 4.16852 5.77429 3.8718 5.40457 3.8718L3.4799 3.8718Z" fill="#252525"/>
</svg>
