<svg width="16" height="16" viewBox="0 0 16 16" fill="none" xmlns="http://www.w3.org/2000/svg">
<path fill-rule="evenodd" clip-rule="evenodd" d="M12.3913 5.39118C12.3913 5.4874 12.4693 5.56541 12.5655 5.56541H13.2176C13.6903 5.56541 14.1437 5.75319 14.478 6.08745C14.8122 6.42171 15 6.87506 15 7.34778V10.6088C15 11.0815 14.8122 11.5349 14.478 11.8691C14.1437 12.2034 13.6903 12.3912 13.2176 12.3912H12.5655C12.4693 12.3912 12.3913 12.4692 12.3913 12.5654V14.522C12.3913 14.786 12.1773 15 11.9133 15H4.08686C3.82289 15 3.60889 14.786 3.60889 14.522V12.5654C3.60889 12.4692 3.53088 12.3912 3.43466 12.3912H2.78238C2.30966 12.3912 1.85631 12.2034 1.52205 11.8691C1.18779 11.5349 1 11.0815 1 10.6088L1 7.34778C1 6.87507 1.18779 6.42171 1.52205 6.08745C1.85631 5.75319 2.30966 5.56541 2.78238 5.56541H3.43466C3.53088 5.56541 3.60889 5.4874 3.60889 5.39118L3.60889 1.47797C3.60889 1.21399 3.82289 1 4.08686 1L11.9133 1C12.1773 1 12.3913 1.21399 12.3913 1.47797V5.39118ZM3.43466 11.4352C3.53088 11.4352 3.60889 11.3572 3.60889 11.261V9.30441C3.60889 9.04044 3.82289 8.82644 4.08686 8.82644L11.9133 8.82644C12.1773 8.82644 12.3913 9.04044 12.3913 9.30441V11.261C12.3913 11.3572 12.4693 11.4352 12.5655 11.4352H13.2176C13.4368 11.4352 13.647 11.3482 13.802 11.1932C13.957 11.0382 14.0441 10.828 14.0441 10.6088V7.34778C14.0441 7.1286 13.957 6.91839 13.802 6.7634C13.647 6.60842 13.4368 6.52135 13.2176 6.52135L11.9159 6.52135L11.9129 6.52135L11.9103 6.52135L4.08949 6.52135L4.08647 6.52135L4.08384 6.52135H2.78238C2.56319 6.52135 2.35299 6.60842 2.198 6.7634C2.04301 6.91839 1.95594 7.1286 1.95594 7.34778V10.6088C1.95594 10.828 2.04301 11.0382 2.198 11.1932C2.35299 11.3482 2.56319 11.4352 2.78238 11.4352H3.43466ZM11.4352 11.9132L11.4353 11.9056L11.4353 9.95661C11.4353 9.86039 11.3573 9.78238 11.2611 9.78238H4.73906C4.64284 9.78238 4.56483 9.86039 4.56483 9.95661L4.56483 13.8698C4.56483 13.9661 4.64284 14.0441 4.73906 14.0441H11.2611C11.3573 14.0441 11.4353 13.9661 11.4353 13.8698L11.4353 11.9235L11.4353 11.9208L11.4352 11.9132ZM11.2611 5.56541C11.3573 5.56541 11.4353 5.4874 11.4353 5.39118V2.13017C11.4353 2.03395 11.3573 1.95594 11.2611 1.95594L4.73906 1.95594C4.64284 1.95594 4.56483 2.03395 4.56483 2.13017V5.39118C4.56483 5.4874 4.64284 5.56541 4.73906 5.56541L11.2611 5.56541Z" fill="#252525"/>
</svg>
