<svg width="16" height="16" viewBox="0 0 16 16" fill="none" xmlns="http://www.w3.org/2000/svg">
<path d="M8 1C11.866 1 15 4.13401 15 8C15 11.866 11.866 15 8 15C4.13401 15 1 11.866 1 8C1 4.13401 4.13401 1 8 1ZM8 1.875C4.61726 1.875 1.875 4.61726 1.875 8C1.875 11.3827 4.61726 14.125 8 14.125C11.3827 14.125 14.125 11.3827 14.125 8C14.125 4.61726 11.3827 1.875 8 1.875ZM8 11.5C8.24162 11.5 8.4375 11.6959 8.4375 11.9375C8.4375 12.1791 8.24162 12.375 8 12.375C7.75838 12.375 7.5625 12.1791 7.5625 11.9375C7.5625 11.6959 7.75838 11.5 8 11.5ZM7.75293 4.51367C8.85819 4.38807 9.882 5.11234 10.1318 6.19629C10.3816 7.28017 9.77808 8.3791 8.72949 8.75C8.55461 8.81183 8.4374 8.9776 8.4375 9.16309V10.1875C8.4375 10.4291 8.24162 10.625 8 10.625C7.75838 10.625 7.5625 10.4291 7.5625 10.1875V9.16309C7.56236 8.60676 7.91297 8.11025 8.4375 7.9248C9.06671 7.7023 9.42917 7.04294 9.2793 6.39258C9.12932 5.74232 8.51465 5.30844 7.85156 5.38379C7.18853 5.45927 6.68763 6.02015 6.6875 6.6875C6.6874 6.92905 6.49155 7.125 6.25 7.125C6.00847 7.12495 5.8126 6.929 5.8125 6.6875C5.81271 5.57511 6.64766 4.63928 7.75293 4.51367Z" fill="#252525"/>
</svg>
