<svg width="16" height="16" viewBox="0 0 16 16" fill="none" xmlns="http://www.w3.org/2000/svg">
<path fill-rule="evenodd" clip-rule="evenodd" d="M4.0625 8.855C4.30412 8.855 4.5 9.04689 4.5 9.2836V11.8552C4.5 12.0919 4.30412 12.2838 4.0625 12.2838H1.4375C1.19588 12.2838 1 12.0919 1 11.8552C1 11.6185 1.19588 11.4266 1.4375 11.4266H3.625V9.2836C3.625 9.04689 3.82088 8.855 4.0625 8.855Z" fill="#252525"/>
<path fill-rule="evenodd" clip-rule="evenodd" d="M11.5 4.14036C11.5 3.90365 11.6959 3.71175 11.9375 3.71175H14.5625C14.8041 3.71175 15 3.90365 15 4.14036C15 4.37707 14.8041 4.56896 14.5625 4.56896H12.375V6.71198C12.375 6.94869 12.1791 7.14058 11.9375 7.14058C11.6959 7.14058 11.5 6.94869 11.5 6.71198V4.14036Z" fill="#252525"/>
<path fill-rule="evenodd" clip-rule="evenodd" d="M11.799 3.82943C11.9734 3.66551 12.2503 3.67107 12.4176 3.84184C14.4268 5.89249 14.6921 9.04271 13.053 11.3882C11.414 13.7336 8.3202 14.631 5.64191 13.5378C5.41887 13.4468 5.31339 13.1958 5.40632 12.9773C5.49924 12.7588 5.75538 12.6555 5.97843 12.7465C8.27417 13.6836 10.9261 12.9144 12.331 10.9039C13.7359 8.89347 13.5086 6.1932 11.7864 4.43544C11.6191 4.26467 11.6247 3.99335 11.799 3.82943Z" fill="#252525"/>
<path fill-rule="evenodd" clip-rule="evenodd" d="M10.022 3.25149C7.72715 2.3175 5.07822 3.08705 3.6741 5.09563C2.26997 7.10422 2.49504 9.80198 4.21345 11.5605C4.38054 11.7315 4.37449 12.0029 4.19995 12.1665C4.02541 12.3302 3.74847 12.3243 3.58138 12.1533C1.57667 10.1018 1.3141 6.95451 2.95217 4.61127C4.59023 2.26804 7.6805 1.37028 10.3577 2.45988C10.5808 2.5507 10.6866 2.80153 10.5939 3.02013C10.5012 3.23872 10.2451 3.34231 10.022 3.25149Z" fill="#252525"/>
</svg>
