<svg width="15" height="16" viewBox="0 0 15 16" fill="none" xmlns="http://www.w3.org/2000/svg">
<path d="M13.6523 12C13.4062 12 13.2422 11.8272 13.2422 11.568C13.2422 9.40815 11.6016 7.68026 9.55078 7.68026C8.48438 7.68026 7.5 8.19863 6.84375 8.97618L8.32031 10.5313C8.56641 10.7905 8.64844 11.1361 8.48438 11.4816C8.32031 11.8272 8.07422 12 7.74609 12H2.16797C1.83984 12 1.51172 11.8272 1.26563 11.6544C1.01953 11.4816 0.9375 11.0497 0.9375 10.7041L0.9375 4.82922C0.9375 4.48365 1.10156 4.13807 1.42969 4.05167C1.75781 3.96528 2.08594 3.96528 2.33203 4.22446L3.39844 5.34759C5.53125 3.96528 8.07422 3.87888 10.2891 5.08841C12.5859 6.38433 14.0625 8.88978 14.0625 11.568C14.0625 11.8272 13.8984 12 13.6523 12ZM1.75781 4.82922L1.75781 10.7041C1.75781 10.7905 1.83984 10.9633 1.83984 11.0497C1.92188 11.1361 2.00391 11.1361 2.16797 11.1361H7.74609L6.02344 9.32176C5.85938 9.14897 5.85938 8.97618 5.94141 8.80339C6.76172 7.59386 8.15625 6.9027 9.55078 6.9027C10.4531 6.9027 11.1914 7.16189 11.9297 7.59386C11.4375 6.9027 10.7812 6.29794 9.96094 5.86596C7.91016 4.74283 5.44922 4.91562 3.5625 6.29794C3.39844 6.38433 3.23438 6.38433 3.07031 6.21154L1.75781 4.82922Z" fill="#252525"/>
</svg>
