<svg width="16" height="16" viewBox="0 0 16 16" fill="none" xmlns="http://www.w3.org/2000/svg">
<path fill-rule="evenodd" clip-rule="evenodd" d="M2.6875 8C2.6875 4.58274 5.45774 1.8125 8.875 1.8125C12.2923 1.8125 15.0625 4.58274 15.0625 8C15.0625 11.4173 12.2923 14.1875 8.875 14.1875C8.59886 14.1875 8.375 13.9636 8.375 13.6875C8.375 13.4114 8.59886 13.1875 8.875 13.1875C11.74 13.1875 14.0625 10.865 14.0625 8C14.0625 5.13502 11.74 2.8125 8.875 2.8125C6.01002 2.8125 3.6875 5.13502 3.6875 8V8.875C3.6875 9.15114 3.46364 9.375 3.1875 9.375C2.91136 9.375 2.6875 9.15114 2.6875 8.875V8Z" fill="#252525"/>
<path fill-rule="evenodd" clip-rule="evenodd" d="M1.08395 6.77145C1.27921 6.57618 1.59579 6.57618 1.79105 6.77145L3.1875 8.16789L4.58395 6.77145C4.77921 6.57618 5.09579 6.57618 5.29105 6.77145C5.48632 6.96671 5.48632 7.28329 5.29105 7.47855L3.54105 9.22855C3.34579 9.42382 3.02921 9.42382 2.83395 9.22855L1.08395 7.47855C0.888684 7.28329 0.888684 6.96671 1.08395 6.77145Z" fill="#252525"/>
<path fill-rule="evenodd" clip-rule="evenodd" d="M8.72917 4.79167C8.97079 4.79167 9.16667 5.01552 9.16667 5.29167V7.79167C9.16667 8.06781 8.97079 8.29167 8.72917 8.29167C8.48754 8.29167 8.29167 8.06781 8.29167 7.79167V5.29167C8.29167 5.01552 8.48754 4.79167 8.72917 4.79167Z" fill="#252525"/>
<path fill-rule="evenodd" clip-rule="evenodd" d="M8.59197 7.73482C8.75782 7.55911 9.05507 7.57032 9.25588 7.75987L11.7102 10.0765C11.9111 10.266 11.9394 10.5621 11.7735 10.7378C11.6077 10.9136 11.3105 10.9023 11.1096 10.7128L8.65528 8.39618C8.45446 8.20664 8.42612 7.91053 8.59197 7.73482Z" fill="#252525"/>
</svg>
