<svg width="16" height="16" viewBox="0 0 16 16" fill="none" xmlns="http://www.w3.org/2000/svg">
<path d="M1 13.3091C1 12.3752 1.75729 11.6181 2.69145 11.6181H3.12823C3.3358 11.6181 3.50407 11.7863 3.50407 11.9938C3.50407 12.2013 3.3358 12.3696 3.12823 12.3696H2.69145C2.17243 12.3696 1.75168 12.7902 1.75168 13.3091C1.75168 13.8279 2.17243 14.2485 2.69145 14.2485H11.9007C12.1083 14.2485 12.2766 14.4168 12.2766 14.6243C12.2766 14.8318 12.1083 15 11.9007 15H2.69145C1.75729 15 1 14.2429 1 13.3091Z" fill="#252525"/>
<path fill-rule="evenodd" clip-rule="evenodd" d="M14.1432 2.91319C14.2689 2.28487 13.7148 1.7309 13.0862 1.85656C12.9124 1.89133 12.7526 1.97678 12.6273 2.10213L5.99252 8.73488L5.35737 10.6397L7.26281 10.0048L13.8975 3.37204C14.0229 3.24669 14.1084 3.08703 14.1432 2.91319ZM12.9218 1.03468C14.137 0.791719 15.2084 1.86277 14.9653 3.07757C14.8981 3.41367 14.7328 3.72235 14.4904 3.96471L7.80123 10.6519C7.74499 10.7081 7.67642 10.7505 7.60096 10.7756L5.18062 11.5821C4.70725 11.7399 4.2569 11.2897 4.41469 10.8164L5.22147 8.39683C5.24662 8.3214 5.289 8.25285 5.34524 8.19662L12.0344 1.50946C12.2768 1.2671 12.5856 1.1019 12.9218 1.03468Z" fill="#252525"/>
<path fill-rule="evenodd" clip-rule="evenodd" d="M5.6116 8.89476L6.20445 8.30209L7.6018 9.69903L7.00895 10.2917L5.6116 8.89476Z" fill="#252525"/>
<path fill-rule="evenodd" clip-rule="evenodd" d="M13.0601 4.61403L11.197 2.75145L11.7898 2.15878L13.653 4.02136L13.0601 4.61403Z" fill="#252525"/>
</svg>
