<svg width="16" height="16" viewBox="0 0 16 16" fill="none" xmlns="http://www.w3.org/2000/svg">
<path d="M8 1C4.17333 1 1 4.17333 1 8C1 11.8267 4.17333 15 8 15C11.8267 15 15 11.8267 15 8C15 4.17333 11.8267 1 8 1ZM8 1.93359C11.36 1.93359 14.0664 4.64 14.0664 8C14.0664 11.36 11.36 14.0664 8 14.0664C4.64 14.0664 1.93359 11.36 1.93359 8C1.93359 4.64 4.64 1.93359 8 1.93359ZM8.74707 5.29297C8.56054 5.10644 8.28042 5.1067 8.09375 5.29297C8.00043 5.47961 7.99993 5.85335 8.18652 6.04004L9.67969 7.5332L5.2002 7.5332C4.92021 7.5332 4.73341 7.72002 4.7334 8C4.7334 8.28 4.9202 8.4668 5.2002 8.4668H9.67969L8.18652 10.0537C8.00011 10.2404 7.99994 10.5204 8.18652 10.707C8.37311 10.8935 8.65321 10.8934 8.83984 10.707L11.1738 8.37305C11.174 8.28003 11.2666 8.27975 11.2666 8.18652C11.3599 8.09318 11.3599 7.9068 11.2666 7.81348C11.2666 7.72357 11.1802 7.63344 11.1738 7.62695L8.74707 5.29297Z" fill="#252525"/>
</svg>
