<svg width="16" height="16" viewBox="0 0 16 16" fill="none" xmlns="http://www.w3.org/2000/svg">
<path fill-rule="evenodd" clip-rule="evenodd" d="M7.69043 1.12814C7.86128 0.957286 8.13872 0.957286 8.30957 1.12814L14.8721 7.69064C14.9541 7.77269 15 7.88418 15 8.00021V14.5627C15 14.8043 14.8041 15.0002 14.5625 15.0002C14.3209 15.0002 14.125 14.8043 14.125 14.5627V8.18185L8 2.05685L1.875 8.18185L1.875 14.5627C1.875 14.8043 1.67912 15.0002 1.4375 15.0002C1.19588 15.0002 1 14.8043 1 14.5627L1 8.00021C1 7.88418 1.04588 7.77269 1.12793 7.69064L7.69043 1.12814ZM5.375 11.5002C6.82475 11.5002 8 12.6755 8 14.1252V14.5627C8 14.8043 7.80412 15.0002 7.5625 15.0002C7.32088 15.0002 7.125 14.8043 7.125 14.5627V14.1252C7.125 13.1587 6.3415 12.3752 5.375 12.3752C4.4085 12.3752 3.625 13.1587 3.625 14.1252V14.5627C3.625 14.8043 3.42912 15.0002 3.1875 15.0002C2.94588 15.0002 2.75 14.8043 2.75 14.5627V14.1252C2.75 12.6755 3.92525 11.5002 5.375 11.5002ZM8.76953 12.2688C9.52042 11.5188 10.6495 11.2951 11.6299 11.7014C12.6102 12.1077 13.2496 13.064 13.25 14.1252V14.5627C13.25 14.8043 13.0541 15.0002 12.8125 15.0002C12.5709 15.0002 12.375 14.8043 12.375 14.5627V14.1252C12.3746 13.4178 11.9484 12.7798 11.2949 12.509C10.6414 12.2382 9.88924 12.388 9.38867 12.8879C9.21771 13.0587 8.94028 13.0579 8.76953 12.8869C8.59915 12.716 8.59895 12.4394 8.76953 12.2688ZM5.375 7.12521C6.58312 7.12521 7.5625 8.10459 7.5625 9.31271C7.5625 10.5208 6.58312 11.5002 5.375 11.5002C4.16688 11.5002 3.1875 10.5208 3.1875 9.31271C3.1875 8.10459 4.16688 7.12521 5.375 7.12521ZM10.625 7.12521C11.8331 7.12521 12.8125 8.10459 12.8125 9.31271C12.8125 10.5208 11.8331 11.5002 10.625 11.5002C9.41688 11.5002 8.4375 10.5208 8.4375 9.31271C8.4375 8.10459 9.41688 7.12521 10.625 7.12521ZM5.375 8.00021C4.65013 8.00021 4.0625 8.58784 4.0625 9.31271C4.0625 10.0376 4.65013 10.6252 5.375 10.6252C6.09987 10.6252 6.6875 10.0376 6.6875 9.31271C6.6875 8.58784 6.09987 8.00021 5.375 8.00021ZM10.625 8.00021C9.90013 8.00021 9.3125 8.58784 9.3125 9.31271C9.3125 10.0376 9.90013 10.6252 10.625 10.6252C11.3499 10.6252 11.9375 10.0376 11.9375 9.31271C11.9375 8.58784 11.3499 8.00021 10.625 8.00021Z" fill="#252525"/>
</svg>
