<svg width="16" height="16" viewBox="0 0 16 16" fill="none" xmlns="http://www.w3.org/2000/svg">
<path d="M14 2C14.5523 2 15 2.44772 15 3V12C15 12.5523 14.5523 13 14 13H2C1.44772 13 1 12.5523 1 12L1 3C1 2.44772 1.44772 2 2 2L14 2ZM8 12H14V3L8 3V12ZM2 12H7L7 3L2 3L2 12ZM12.5 9C12.7761 9 13 9.22386 13 9.5C13 9.77614 12.7761 10 12.5 10H9.5C9.22386 10 9 9.77614 9 9.5C9 9.22386 9.22386 9 9.5 9H12.5ZM12.5 7C12.7761 7 13 7.22386 13 7.5C13 7.77614 12.7761 8 12.5 8H9.5C9.22386 8 9 7.77614 9 7.5C9 7.22386 9.22386 7 9.5 7H12.5ZM12.5 5C12.7761 5 13 5.22386 13 5.5C13 5.77614 12.7761 6 12.5 6L9.5 6C9.22386 6 9 5.77614 9 5.5C9 5.22386 9.22386 5 9.5 5L12.5 5Z" fill="#252525"/>
</svg>
