<svg width="16" height="16" viewBox="0 0 16 16" fill="none" xmlns="http://www.w3.org/2000/svg">
<path fill-rule="evenodd" clip-rule="evenodd" d="M2.89583 1.875C2.62509 1.875 2.36544 1.98255 2.174 2.174C1.98255 2.36544 1.875 2.62509 1.875 2.89583L1.875 13.1042C1.875 13.3749 1.98255 13.6346 2.174 13.826C2.36544 14.0174 2.62509 14.125 2.89583 14.125H3.91667L3.91667 8.72917C3.91667 8.48754 4.11254 8.29167 4.35417 8.29167H11.6458C11.8875 8.29167 12.0833 8.48754 12.0833 8.72917V14.125H13.1042C13.3749 14.125 13.6346 14.0174 13.826 13.826C14.0174 13.6346 14.125 13.3749 14.125 13.1042V5.26455L10.7354 1.875L4.79167 1.875V4.64583H10.1875C10.4291 4.64583 10.625 4.84171 10.625 5.08333C10.625 5.32496 10.4291 5.52083 10.1875 5.52083L4.35417 5.52083C4.11254 5.52083 3.91667 5.32496 3.91667 5.08333L3.91667 1.875L2.89583 1.875ZM2.89583 1C2.39303 1 1.91081 1.19974 1.55528 1.55528C1.19974 1.91081 1 2.39303 1 2.89583L1 13.1042C1 13.607 1.19974 14.0892 1.55528 14.4447C1.91081 14.8003 2.39303 15 2.89583 15H13.1042C13.607 15 14.0892 14.8003 14.4447 14.4447C14.8003 14.0892 15 13.607 15 13.1042V5.08333C15 4.9673 14.9539 4.85602 14.8719 4.77397L11.226 1.12814C11.144 1.04609 11.0327 1 10.9167 1L2.89583 1ZM11.2083 14.125V9.16667H4.79167L4.79167 14.125H11.2083Z" fill="#252525"/>
</svg>
