<svg width="16" height="16" viewBox="0 0 16 16" fill="none" xmlns="http://www.w3.org/2000/svg">
<path d="M1.07501 2.13378C1.07501 1.54903 1.54905 1.075 2.1338 1.075L3.62208 1.075C3.69059 1.075 3.76533 1.12428 3.82763 1.21438C3.88878 1.30281 3.92501 1.4132 3.92501 1.5C3.92501 1.58679 3.88878 1.69718 3.82763 1.78561C3.76533 1.87571 3.69059 1.925 3.62208 1.925H2.37794C2.1278 1.925 1.92501 2.12778 1.92501 2.37793V3.62207C1.92501 3.69057 1.87572 3.76532 1.78563 3.82762C1.6972 3.88876 1.58681 3.925 1.50001 3.925C1.41321 3.925 1.30283 3.88876 1.2144 3.82762C1.1243 3.76532 1.07501 3.69057 1.07501 3.62207L1.07501 2.13378Z" fill="#252525"/>
<path d="M12.075 1.5C12.075 1.4132 12.1112 1.30281 12.1724 1.21438C12.2347 1.12428 12.3094 1.075 12.3779 1.075L13.8662 1.075C14.451 1.075 14.925 1.54903 14.925 2.13378V3.62207C14.925 3.69057 14.8757 3.76532 14.7856 3.82762C14.6972 3.88876 14.5868 3.925 14.5 3.925C14.4132 3.925 14.3028 3.88876 14.2144 3.82762C14.1243 3.76532 14.075 3.69057 14.075 3.62207V2.37793C14.075 2.12778 13.8722 1.925 13.6221 1.925L12.3779 1.925C12.3094 1.925 12.2347 1.87571 12.1724 1.78561C12.1112 1.69718 12.075 1.58679 12.075 1.5Z" fill="#252525"/>
<path fill-rule="evenodd" clip-rule="evenodd" d="M4.07501 4.375C4.07501 4.20931 4.20933 4.075 4.37501 4.075H6.62501C6.7907 4.075 6.92501 4.20931 6.92501 4.375V6.625C6.92501 6.79068 6.7907 6.925 6.62501 6.925H4.37501C4.20933 6.925 4.07501 6.79068 4.07501 6.625V4.375ZM6.07501 4.925H4.92501V6.075H6.07501V4.925Z" fill="#252525"/>
<path d="M8.07501 4.57143C8.07501 4.28754 8.27438 4.075 8.50001 4.075H11.5C11.7256 4.075 11.925 4.28754 11.925 4.57143C11.925 4.85532 11.7256 5.06785 11.5 5.06785H8.92501V7.42857C8.92501 7.71246 8.72564 7.925 8.50001 7.925C8.27438 7.925 8.07501 7.71246 8.07501 7.42857V4.57143Z" fill="#252525"/>
<path d="M10.075 6.25C10.075 6.15335 10.1534 6.075 10.25 6.075H11.75C11.8467 6.075 11.925 6.15335 11.925 6.25V7.75C11.925 7.84665 11.8467 7.925 11.75 7.925H10.25C10.1534 7.925 10.075 7.84665 10.075 7.75V6.25Z" fill="#252525"/>
<path d="M4.07501 8.5C4.07501 8.26528 4.26529 8.075 4.50001 8.075C4.73473 8.075 4.92501 8.26528 4.92501 8.5V11.075H7.07501V9.925H6.50001C6.26529 9.925 6.07501 9.73472 6.07501 9.5C6.07501 9.26528 6.26529 9.075 6.50001 9.075H7.50001C7.73473 9.075 7.92501 9.26528 7.92501 9.5V11.5C7.92501 11.7347 7.73473 11.925 7.50001 11.925H4.50001C4.26529 11.925 4.07501 11.7347 4.07501 11.5V8.5Z" fill="#252525"/>
<path fill-rule="evenodd" clip-rule="evenodd" d="M9.07501 9.375C9.07501 9.20931 9.20933 9.075 9.37501 9.075H11.625C11.7907 9.075 11.925 9.20931 11.925 9.375V11.625C11.925 11.7907 11.7907 11.925 11.625 11.925H9.37501C9.20933 11.925 9.07501 11.7907 9.07501 11.625V9.375ZM11.075 9.925H9.92501V11.075H11.075V9.925Z" fill="#252525"/>
<path d="M1.07501 12.3779C1.07501 12.3094 1.1243 12.2347 1.2144 12.1724C1.30283 12.1112 1.41321 12.075 1.50001 12.075C1.58681 12.075 1.6972 12.1112 1.78563 12.1724C1.87572 12.2347 1.92501 12.3094 1.92501 12.3779L1.92501 13.6221C1.92501 13.8722 2.1278 14.075 2.37794 14.075H3.62208C3.69059 14.075 3.76533 14.1243 3.82763 14.2144C3.88878 14.3028 3.92501 14.4132 3.92501 14.5C3.92501 14.5868 3.88878 14.6972 3.82763 14.7856C3.76533 14.8757 3.69059 14.925 3.62208 14.925H2.1338C1.54905 14.925 1.07501 14.451 1.07501 13.8662L1.07501 12.3779Z" fill="#252525"/>
<path d="M14.075 12.3779C14.075 12.3094 14.1243 12.2347 14.2144 12.1724C14.3028 12.1112 14.4132 12.075 14.5 12.075C14.5868 12.075 14.6972 12.1112 14.7856 12.1724C14.8757 12.2347 14.925 12.3094 14.925 12.3779V13.8662C14.925 14.451 14.451 14.925 13.8662 14.925H12.3779C12.3094 14.925 12.2347 14.8757 12.1724 14.7856C12.1112 14.6972 12.075 14.5868 12.075 14.5C12.075 14.4132 12.1112 14.3028 12.1724 14.2144C12.2347 14.1243 12.3094 14.075 12.3779 14.075H13.6221C13.8722 14.075 14.075 13.8722 14.075 13.6221V12.3779Z" fill="#252525"/>
</svg>
