<svg width="16" height="16" viewBox="0 0 16 16" fill="none" xmlns="http://www.w3.org/2000/svg">
<path fill-rule="evenodd" clip-rule="evenodd" d="M4.4924 1.45819C7.40664 0.219715 10.7733 1.57829 12.0119 4.49237C12.8858 6.54853 12.4655 8.82875 11.1194 10.4289L14.8576 14.1672C15.0479 14.3579 15.0481 14.667 14.8576 14.8576C14.6669 15.0483 14.3569 15.0483 14.1662 14.8576L10.4299 11.1203C10.0035 11.4793 9.51751 11.7825 8.97776 12.0119C6.06354 13.2503 2.69678 11.8918 1.45823 8.97772C0.219705 6.06359 1.57822 2.69674 4.4924 1.45819ZM11.1135 4.87421C10.0859 2.45651 7.29207 1.33009 4.87424 2.35761C2.45672 3.38532 1.33014 6.17827 2.35764 8.59589C3.38536 11.0134 6.17819 12.14 8.59592 11.1125C11.0137 10.0849 12.141 7.29193 11.1135 4.87421Z" fill="#252525"/>
</svg>
