<svg width="16" height="15" viewBox="0 0 16 15" fill="none" xmlns="http://www.w3.org/2000/svg">
<path fill-rule="evenodd" clip-rule="evenodd" d="M12.3935 1.11617C12.8117 0.877997 13.3968 0.877886 13.8984 1.11617C14.3165 1.43401 14.5679 1.9109 14.4844 2.38766L12.4766 12.5605C12.3928 13.0372 11.9744 13.4348 11.4727 13.5937C11.3058 13.6729 11.2222 13.6728 11.1387 13.6728C10.7206 13.6728 10.3027 13.5139 10.0518 13.1963L9.17285 12.083L7.79296 12.958C7.37485 13.1963 6.87278 13.2754 6.37109 13.0371C5.9531 12.7987 5.61925 12.4014 5.61913 11.9248V9.69918H2.77539C2.19009 9.69918 1.60437 9.30214 1.5205 8.74606C1.43687 8.18975 1.60463 7.5532 2.10644 7.23532L12.3935 1.11617ZM7.98339 9.22262L10.7207 12.6396C10.8043 12.7985 11.0554 12.8783 11.2227 12.7988C11.3898 12.7194 11.557 12.6396 11.6406 12.4013L13.6475 2.22848C13.6474 2.21186 13.6425 2.1948 13.6406 2.17672L7.98339 9.22262ZM6.45507 11.9248C6.45516 12.0836 6.53887 12.2428 6.70605 12.3222C6.87324 12.4016 7.04081 12.4017 7.208 12.3222L8.62988 11.4472L7.26953 9.69918H6.45507V11.9248ZM2.52441 7.95114C2.35723 8.03056 2.27352 8.26851 2.27343 8.5068C2.35707 8.74522 2.52448 8.82516 2.77539 8.82516H7.25195L12.8408 1.86324L2.52441 7.95114Z" fill="#252525"/>
</svg>
