<svg width="15" height="16" viewBox="0 0 15 16" fill="none" xmlns="http://www.w3.org/2000/svg">
<path fill-rule="evenodd" clip-rule="evenodd" d="M4.71589 8.01541C4.71589 9.55551 6.02607 10.8524 7.58191 10.8524C9.13775 10.8524 10.4479 9.55551 10.4479 8.01541C10.4479 6.4753 9.13775 5.17836 7.58191 5.17836C6.02607 5.17836 4.71589 6.4753 4.71589 8.01541ZM5.53475 8.01541C5.53475 6.88059 6.4355 5.98895 7.58191 5.98895C8.72832 5.98895 9.62907 6.88059 9.62907 8.01541C9.62907 9.15022 8.72832 10.0419 7.58191 10.0419C6.4355 10.0419 5.53475 9.15022 5.53475 8.01541Z" fill="#252525"/>
<path fill-rule="evenodd" clip-rule="evenodd" d="M4.87964 14.419C5.04341 14.5 5.28907 14.5 5.45284 14.5C5.86227 14.5 6.2717 14.3379 6.51736 13.9326L7.00868 13.3652C7.25434 13.122 7.74566 13.122 7.99132 13.3652L8.48264 13.9326C8.89207 14.3379 9.54716 14.5 10.1204 14.2569C10.6936 14.0137 11.0211 13.4463 11.0211 12.7978V12.0683C11.0211 11.9062 11.103 11.663 11.1849 11.5819C11.2668 11.5009 11.5124 11.4198 11.6762 11.4198H12.4132C13.0683 11.5009 13.6415 11.0956 13.8871 10.5282C14.1328 9.96077 13.969 9.3123 13.4777 8.90701L12.9045 8.42066C12.7407 8.25855 12.6588 8.09643 12.6588 7.93431C12.6588 7.7722 12.7407 7.61008 12.9045 7.44796L13.4777 6.96161C13.969 6.55632 14.1328 5.90785 13.8871 5.34044C13.6415 4.77304 13.0683 4.4488 12.4132 4.4488H11.6762C11.5124 4.4488 11.3487 4.4488 11.1849 4.28669C11.103 4.12457 11.0211 3.96245 11.0211 3.80034V3.07081C11.103 2.42234 10.6936 1.85494 10.1204 1.61176C9.54716 1.44964 8.89207 1.5307 8.48264 2.01705L7.99132 2.58446C7.74566 2.82764 7.25434 2.82764 7.00868 2.58446L6.51736 2.01705C6.10793 1.5307 5.45284 1.36859 4.87964 1.61176C4.30643 1.85494 3.97889 2.42234 3.97889 3.07081V3.80034C3.97889 3.96245 3.97889 4.12457 3.81511 4.28669C3.73323 4.36774 3.48757 4.4488 3.3238 4.4488H2.58682C1.93173 4.36774 1.35852 4.77304 1.11286 5.34044C0.949091 5.90785 1.03098 6.63738 1.5223 7.04267L2.0955 7.52902C2.25927 7.69114 2.34116 7.85325 2.34116 8.01537C2.34116 8.17749 2.25927 8.3396 2.0955 8.58278L1.5223 9.06913C1.03098 9.47442 0.867204 10.1229 1.11286 10.6903C1.35852 11.2577 1.93173 11.5819 2.58682 11.5819H3.3238C3.48757 11.5819 3.65134 11.5819 3.81511 11.7441C3.897 11.8251 3.97889 12.0683 3.97889 12.2304V12.9599C3.97889 13.6084 4.30643 14.1758 4.87964 14.419ZM4.4702 11.0956C4.14266 10.8524 3.81511 10.6903 3.40568 10.6903L2.58682 10.7714C2.25927 10.7714 2.01361 10.6092 1.93173 10.3661C1.84984 10.1229 1.84984 9.79865 2.0955 9.63654L2.6687 9.06913C2.99625 8.82595 3.16002 8.42066 3.16002 8.01537C3.16002 7.61008 2.91436 7.20479 2.6687 6.96161L2.0955 6.3942C1.84984 6.23209 1.76795 5.90785 1.93173 5.74574C2.01361 5.50256 2.34116 5.34044 2.58682 5.34044H3.3238C3.73323 5.34044 4.14266 5.17833 4.38832 4.85409C4.63398 4.52986 4.79775 4.12457 4.79775 3.71928V2.98975C4.79775 2.74658 4.96152 2.5034 5.20718 2.42234C5.45284 2.26023 5.78039 2.34129 5.94416 2.58446L6.43548 3.15187C7.00868 3.80034 8.0732 3.80034 8.64641 3.15187L9.13773 2.5034C9.3015 2.34129 9.62905 2.26023 9.87471 2.34129C10.1204 2.42234 10.2841 2.74658 10.2841 2.98975V3.71928C10.2023 4.12457 10.366 4.52986 10.6936 4.85409C11.0211 5.09727 11.4305 5.25939 11.84 5.25939H12.577C12.9045 5.25939 13.1502 5.4215 13.232 5.66468C13.3139 5.90785 13.3139 6.23209 13.0683 6.3942L12.4951 6.96161C12.1675 7.20479 12.0038 7.61008 12.0038 8.01537C12.0038 8.42066 12.2494 8.82595 12.4951 9.06913L13.1502 9.55548C13.3139 9.7176 13.3958 10.0418 13.3139 10.285C13.232 10.5282 12.9045 10.6903 12.6588 10.6903H11.9219C11.5124 10.6092 11.0211 10.7714 10.7755 11.0956C10.5298 11.4198 10.366 11.8251 10.366 12.2304V12.9599C10.366 13.2842 10.2023 13.5273 9.95659 13.6084C9.71093 13.6895 9.38339 13.6084 9.21961 13.4463L8.7283 12.8789C8.15509 12.2304 7.09057 12.2304 6.51736 12.8789L6.02605 13.4463C5.86227 13.6084 5.53473 13.6895 5.28907 13.6084C5.04341 13.5273 4.87964 13.2031 4.87964 12.9599V12.2304C4.96152 11.8251 4.79775 11.4198 4.4702 11.0956Z" fill="#252525"/>
</svg>
