<svg width="16" height="16" viewBox="0 0 16 16" fill="none" xmlns="http://www.w3.org/2000/svg">
<path fill-rule="evenodd" clip-rule="evenodd" d="M12 1.83333C11.1716 1.83333 10.5 2.50491 10.5 3.33333C10.5 3.59648 10.5678 3.84379 10.6868 4.05879C10.6932 4.06824 10.6993 4.07797 10.7052 4.08799C10.711 4.09792 10.7164 4.10796 10.7214 4.11811C10.9854 4.54721 11.4593 4.83333 12 4.83333C12.8284 4.83333 13.5 4.16176 13.5 3.33333C13.5 2.50491 12.8284 1.83333 12 1.83333ZM10.1358 4.99916C10.5936 5.51111 11.2592 5.83333 12 5.83333C13.3807 5.83333 14.5 4.71405 14.5 3.33333C14.5 1.95262 13.3807 0.833334 12 0.833334C10.6193 0.833334 9.5 1.95262 9.5 3.33333C9.5 3.61397 9.54624 3.8838 9.63152 4.13564L5.86417 6.33417C5.40638 5.82223 4.74082 5.5 4 5.5C2.61929 5.5 1.5 6.61929 1.5 8C1.5 9.38071 2.61929 10.5 4 10.5C4.74093 10.5 5.40657 10.1777 5.86437 9.66561L9.63252 11.8614C9.5466 12.1141 9.5 12.3849 9.5 12.6667C9.5 14.0474 10.6193 15.1667 12 15.1667C13.3807 15.1667 14.5 14.0474 14.5 12.6667C14.5 11.286 13.3807 10.1667 12 10.1667C11.2603 10.1667 10.5956 10.4879 10.1379 10.9985L6.36858 8.80203C6.45379 8.55027 6.5 8.28053 6.5 8C6.5 7.71937 6.45376 7.44953 6.36848 7.1977L10.1358 4.99916ZM5.27857 7.21522C5.28361 7.22537 5.28903 7.23542 5.29482 7.24535C5.30067 7.25536 5.30681 7.2651 5.31322 7.27455C5.43224 7.48955 5.5 7.73686 5.5 8C5.5 8.26314 5.43224 8.51045 5.31323 8.72544C5.30675 8.73498 5.30056 8.74481 5.29466 8.75493C5.28893 8.76477 5.28356 8.77473 5.27857 8.78479C5.01463 9.21388 4.54073 9.5 4 9.5C3.17157 9.5 2.5 8.82843 2.5 8C2.5 7.17157 3.17157 6.5 4 6.5C4.54073 6.5 5.01463 6.78612 5.27857 7.21522ZM10.6691 11.9741C10.6847 11.9547 10.6991 11.9339 10.712 11.9117C10.7245 11.8903 10.7352 11.8684 10.7442 11.8461C11.012 11.4369 11.4745 11.1667 12 11.1667C12.8284 11.1667 13.5 11.8382 13.5 12.6667C13.5 13.4951 12.8284 14.1667 12 14.1667C11.1716 14.1667 10.5 13.4951 10.5 12.6667C10.5 12.4168 10.5611 12.1813 10.6691 11.9741Z" fill="#252525"/>
</svg>
