<svg width="16" height="16" viewBox="0 0 16 16" fill="none" xmlns="http://www.w3.org/2000/svg">
<path d="M13.5 12.5027V13.5027C13.5 14.055 13.0523 14.5027 12.5 14.5027H9.5" stroke="black" stroke-linecap="round" stroke-linejoin="round"/>
<path d="M9.5 2.50267H12.5C13.0523 2.50267 13.5 2.95039 13.5 3.50267V4.50267" stroke="black" stroke-linecap="round" stroke-linejoin="round"/>
<path fill-rule="evenodd" clip-rule="evenodd" d="M6.92933 15.4973L0.929334 14.64C0.683107 14.6049 0.500157 14.3941 0.5 14.1453V2.48334C0.499806 2.24738 0.664601 2.0434 0.895334 1.99401L6.89533 0.513341C7.04304 0.481721 7.19712 0.518568 7.31454 0.61359C7.43196 0.708613 7.50012 0.851623 7.5 1.00267V15.0027C7.49991 15.1476 7.43698 15.2853 7.3275 15.3802C7.21802 15.4751 7.07276 15.5178 6.92933 15.4973Z" stroke="black" stroke-linecap="round" stroke-linejoin="round"/>
<path d="M13.5 6.502L15.5 8.502H10" stroke="black" stroke-linecap="round" stroke-linejoin="round"/>
<path d="M13.5007 10.502L15.5007 8.502" stroke="black" stroke-linecap="round" stroke-linejoin="round"/>
<path d="M5.24999 7.75267C5.14864 7.75267 5.05731 7.81388 5.01878 7.90762C4.98025 8.00137 5.00213 8.1091 5.07418 8.18039C5.14623 8.25167 5.2542 8.2724 5.34753 8.23286C5.44085 8.19333 5.50107 8.10135 5.49999 8C5.50017 7.93364 5.47389 7.86995 5.42697 7.82303C5.38004 7.77611 5.31635 7.74982 5.24999 7.75V7.75" stroke="black" stroke-linecap="round" stroke-linejoin="round"/>
</svg>
