<svg width="16" height="16" viewBox="0 0 16 16" fill="none" xmlns="http://www.w3.org/2000/svg">
<path fill-rule="evenodd" clip-rule="evenodd" d="M2.87995 10.0359C3.12324 9.75208 3.55056 9.71921 3.83439 9.96249L8.13209 13.6462L12.4298 9.96249C12.7136 9.71921 13.141 9.75208 13.3842 10.0359C13.6275 10.3198 13.5947 10.7471 13.3108 10.9904L9.01312 14.6741C8.50615 15.1087 7.75804 15.1087 7.25107 14.6741L2.95337 10.9904C2.66953 10.7471 2.63666 10.3198 2.87995 10.0359Z" fill="#252525"/>
<path fill-rule="evenodd" clip-rule="evenodd" d="M13.3843 5.96412C13.141 6.24795 12.7137 6.28082 12.4298 6.03754L8.13213 2.35379L3.83442 6.03753C3.55059 6.28082 3.12327 6.24795 2.87998 5.96412C2.63669 5.68028 2.66956 5.25296 2.9534 5.00967L7.2511 1.32593C7.75808 0.891378 8.50618 0.891377 9.01315 1.32593L13.3109 5.00967C13.5947 5.25296 13.6276 5.68028 13.3843 5.96412Z" fill="#252525"/>
</svg>
