<svg width="16" height="16" viewBox="0 0 16 16" fill="none" xmlns="http://www.w3.org/2000/svg">
<path fill-rule="evenodd" clip-rule="evenodd" d="M3.31563 6.84952C3.48648 6.68391 3.76393 6.68391 3.93477 6.84952L6.12227 8.97062C6.29312 9.13629 6.29311 9.40552 6.12227 9.5712C5.95142 9.73688 5.67399 9.73688 5.50313 9.5712L4.0627 8.17374V10.9696C4.0627 11.6725 4.65033 12.2421 5.3752 12.2421H10.1877C10.4293 12.2421 10.6252 12.4326 10.6252 12.6669C10.6251 12.9011 10.4292 13.0907 10.1877 13.0907H5.3752C4.16708 13.0907 3.1877 12.1412 3.1877 10.9696V8.17374L1.74727 9.5712C1.57642 9.73688 1.29899 9.73688 1.12813 9.5712C0.957294 9.40552 0.957284 9.13629 1.12813 8.97062L3.31563 6.84952ZM10.6252 2.90909C11.8333 2.90909 12.8126 3.85873 12.8127 5.03019V7.82218L14.2531 6.42569C14.424 6.26002 14.7014 6.26002 14.8723 6.42569C15.0429 6.59131 15.0428 6.85966 14.8723 7.0253L12.6936 9.13761C12.6137 9.22021 12.5012 9.27237 12.3752 9.27237C12.249 9.27237 12.1357 9.2205 12.0559 9.13761L9.87813 7.0253C9.70757 6.85966 9.70752 6.59131 9.87813 6.42569C10.049 6.26002 10.3264 6.26002 10.4973 6.42569L11.9377 7.82218V5.03019C11.9376 4.32733 11.35 3.75772 10.6252 3.75772H5.8127C5.57108 3.75772 5.3752 3.56722 5.3752 3.33292C5.37543 3.09881 5.57122 2.90909 5.8127 2.90909H10.6252Z" fill="#252525"/>
</svg>
