<svg width="16" height="16" viewBox="0 0 16 16" fill="none" xmlns="http://www.w3.org/2000/svg">
<path d="M13.9229 1C14.5176 1 15 1.48238 15 2.07715V13.9229C15 14.5176 14.5176 15 13.9229 15H2.07715C1.48238 15 1 14.5176 1 13.9229L1 2.07715C1 1.48238 1.48238 1 2.07715 1L13.9229 1ZM2.07715 8.53809L2.07715 13.9229H7.46191V8.53809H2.07715ZM8.53809 8.53809V13.9229H13.9229V8.53809H8.53809ZM2.07715 7.46191H7.46191V2.07715L2.07715 2.07715L2.07715 7.46191ZM8.53809 7.46191H13.9229V2.07715L8.53809 2.07715V7.46191Z" fill="#252525"/>
</svg>
