<svg width="16" height="16" viewBox="0 0 16 16" fill="none" xmlns="http://www.w3.org/2000/svg">
<path fill-rule="evenodd" clip-rule="evenodd" d="M1.04853 3.67289C1.07855 3.26369 1.15299 2.91588 1.31942 2.60024C1.58992 2.07879 1.93505 1.65287 2.38207 1.42637L2.4519 1.39091C2.83127 1.19812 3.10129 1.06092 3.47357 1.03408L3.47594 1.03386C3.87523 0.996512 4.36747 0.996352 4.99658 1.00396H5.9097C6.58821 1.00396 7.01726 1.00471 7.42241 1.10695L7.42549 1.10763C7.7885 1.18842 8.1292 1.32792 8.44805 1.5264L8.44969 1.52739C8.80339 1.73924 9.10731 2.03957 9.59306 2.52113L13.2248 6.1216C13.6704 6.56329 14.0192 6.90922 14.2838 7.21657L14.2849 7.21774C14.5544 7.52199 14.7514 7.82045 14.8677 8.16608C15.044 8.71273 15.0442 9.30342 14.8677 9.85822C14.7514 10.1965 14.5542 10.4954 14.2911 10.8084C14.0574 11.0798 13.7585 11.3807 13.3904 11.7514L13.232 11.9111L13.2169 11.9336L11.922 13.2249L11.9068 13.2476C11.4651 13.6854 11.1179 14.0293 10.8166 14.2907C10.5097 14.5578 10.2084 14.7534 9.86682 14.8688C9.31476 15.0437 8.71852 15.0437 8.16647 14.8688C7.82471 14.7533 7.52308 14.5576 7.21548 14.2972C6.90545 14.0349 6.55649 13.689 6.11864 13.2549L6.10331 13.2398L2.50984 9.67727C2.02414 9.19576 1.72882 8.90202 1.51519 8.55146C1.32184 8.23445 1.18107 7.89611 1.09963 7.54383L1.09883 7.54074C0.996358 7.14891 0.995151 6.72551 1.00278 6.05671L1.01052 5.99399V5.1763C1.01052 4.55908 1.01066 4.07141 1.04835 3.6753L1.04853 3.67289ZM14.031 9.61473C14.1446 9.24461 14.145 8.85736 14.0312 8.49389C13.9785 8.31199 13.859 8.11528 13.6333 7.85293C13.4006 7.58383 13.0763 7.26234 12.6201 6.81005L9.06851 3.28911C8.52044 2.74576 8.30318 2.53696 8.05181 2.38422L8.04992 2.38312C7.82141 2.25032 7.57269 2.13828 7.30472 2.08185C7.01712 2.01857 6.71396 2.01857 5.96382 2.01858L5.14491 2.01858C4.49906 2.01858 4.04304 2.01858 3.68579 2.04938C3.333 2.07979 3.11301 2.12627 2.9451 2.22183C2.77784 2.30679 2.67934 2.36862 2.58276 2.45449C2.51507 2.51466 2.44788 2.58742 2.35746 2.68533C2.325 2.72048 2.28954 2.75887 2.24999 2.80108C2.03195 3.03383 1.86735 3.32378 1.86735 3.66471L1.86735 5.94723C1.86734 6.69531 1.86733 6.99767 1.9396 7.28452C2.00379 7.54683 2.10795 7.79267 2.25126 8.02946L2.25182 8.03036C2.40598 8.27971 2.62439 8.50282 3.17231 9.04603L6.73225 12.5753C7.18821 13.0273 7.51216 13.3484 7.79094 13.5864L7.79258 13.5878C8.06434 13.811 8.2538 13.9282 8.44285 13.9878L8.44419 13.9882C8.81739 14.1008 9.20729 14.1009 9.58052 13.9885C9.76339 13.9365 9.96136 13.8186 10.2331 13.5954L10.2345 13.5942C10.4728 13.3917 10.7524 13.1186 11.1312 12.7487L11.2979 12.586L12.6007 11.302L12.6076 11.2952C13.0626 10.8441 13.3853 10.5241 13.6244 10.2565L13.6268 10.2537C13.8519 9.98434 13.9698 9.79688 14.0301 9.61756L14.031 9.61473Z" fill="#252525"/>
<path fill-rule="evenodd" clip-rule="evenodd" d="M5.97176 3.94349C4.84661 3.94349 3.93612 4.85067 3.93612 5.97174C3.93612 7.08543 4.84661 7.99998 5.96436 7.99998C7.08211 7.99998 7.99999 7.08543 7.99999 5.96436C7.99999 4.84329 7.08211 3.93612 5.96436 3.93612L5.97176 3.94349ZM5.96806 6.98401C6.52916 6.98401 6.98403 6.52915 6.98403 5.96805C6.98403 5.40695 6.52916 4.95208 5.96806 4.95208C5.40695 4.95208 4.95209 5.40695 4.95209 5.96805C4.95209 6.52915 5.40695 6.98401 5.96806 6.98401Z" fill="#252525"/>
</svg>
