<svg width="16" height="16" viewBox="0 0 16 16" fill="none" xmlns="http://www.w3.org/2000/svg">
<path d="M8 1C11.864 1 15 4.136 15 8C15 11.864 11.864 15 8 15C4.136 15 1 11.864 1 8C1 4.136 4.136 1 8 1ZM11.8047 5.57422C11.5935 5.36643 11.2548 5.3662 11.043 5.57324L7.25 9.2793L5.6543 7.72461C5.44361 7.51934 5.10801 7.5193 4.89746 7.72461C4.67971 7.93738 4.67971 8.28821 4.89746 8.50098L6.55078 10.1172C6.93935 10.4969 7.56065 10.4969 7.94922 10.1172L11.8037 6.35059C12.0212 6.13773 12.0216 5.78774 11.8047 5.57422Z" fill="#252525"/>
</svg>
