<svg width="16" height="16" viewBox="0 0 16 16" fill="none" xmlns="http://www.w3.org/2000/svg">
<path d="M8 1C11.866 1 15 4.13401 15 8C15 11.866 11.866 15 8 15C4.13401 15 1 11.866 1 8C1 4.13401 4.13401 1 8 1ZM8 1.875C4.61726 1.875 1.875 4.61726 1.875 8C1.875 11.3827 4.61726 14.125 8 14.125C11.3827 14.125 14.125 11.3827 14.125 8C14.125 4.61726 11.3827 1.875 8 1.875ZM7.5625 4.5C7.80412 4.5 8 4.72386 8 5V7.39941C8.03103 7.41881 8.06095 7.44147 8.08887 7.46777L10.5439 9.78516C10.7444 9.97472 10.7722 10.2707 10.6064 10.4463C10.4406 10.6217 10.1441 10.6103 9.94336 10.4209L7.48828 8.10449C7.43887 8.05781 7.40025 8.00444 7.37207 7.94824C7.22631 7.86712 7.125 7.69775 7.125 7.5V5C7.125 4.72386 7.32088 4.5 7.5625 4.5Z" fill="#252525"/>
</svg>
