<svg width="16" height="16" viewBox="0 0 16 16" fill="none" xmlns="http://www.w3.org/2000/svg">
<path d="M5.18359 4C5.00945 4.00003 4.94833 4.12819 5.04785 4.28418L7.2207 7.71484C7.32036 7.88939 7.32036 8.11061 7.2207 8.28516L5.04785 11.7158C4.94832 11.8729 5.00945 12 5.18359 12H6.25293C6.44836 11.9882 6.63008 11.8848 6.75098 11.7158L8.92578 8.28711C9.02518 8.11252 9.02502 7.89048 8.92578 7.71582L6.75195 4.28516C6.63102 4.11623 6.44934 4.01271 6.25391 4.00098L5.18359 4ZM10.5 5C10.2239 5 10 5.22386 10 5.5V10.5C10 10.7761 10.2239 11 10.5 11C10.7761 11 11 10.7761 11 10.5V5.5C11 5.22386 10.7761 5 10.5 5Z" fill="#252525"/>
</svg>
