<svg width="16" height="16" viewBox="0 0 16 16" fill="none" xmlns="http://www.w3.org/2000/svg">
<path d="M10.8164 4C10.9906 4.00003 11.0517 4.12819 10.9521 4.28418L8.7793 7.71484C8.67964 7.88939 8.67964 8.11061 8.7793 8.28516L10.9521 11.7158C11.0517 11.8729 10.9906 12 10.8164 12H9.74707C9.55164 11.9882 9.36992 11.8848 9.24902 11.7158L7.07422 8.28711C6.97482 8.11252 6.97498 7.89048 7.07422 7.71582L9.24805 4.28516C9.36898 4.11623 9.55066 4.01271 9.74609 4.00098L10.8164 4ZM5.5 5C5.77614 5 6 5.22386 6 5.5V10.5C6 10.7761 5.77614 11 5.5 11C5.22386 11 5 10.7761 5 10.5V5.5C5 5.22386 5.22386 5 5.5 5Z" fill="#252525"/>
</svg>
