<svg width="16" height="16" viewBox="0 0 16 16" fill="none" xmlns="http://www.w3.org/2000/svg">
<path d="M14.5 6.59961C14.776 6.59961 14.9998 6.8088 15 7.06641V12.667C14.9998 13.9555 13.8806 15 12.5 15H3.5C2.1194 15 1.00018 13.9555 1 12.667L1 7.06641C1.00016 6.8088 1.22396 6.59961 1.5 6.59961C1.77604 6.59961 1.99984 6.8088 2 7.06641L2 12.667C2.00018 13.44 2.67169 14.0664 3.5 14.0664H12.5C13.3283 14.0664 13.9998 13.44 14 12.667V7.06641C14.0002 6.8088 14.224 6.59961 14.5 6.59961ZM9 8.4668C9.82827 8.4668 10.4997 9.09322 10.5 9.86621C10.5 10.6394 9.82842 11.2666 9 11.2666H7C6.17157 11.2666 5.5 10.6394 5.5 9.86621C5.50025 9.09321 6.17173 8.4668 7 8.4668H9ZM7 9.40039C6.72401 9.40039 6.50025 9.60868 6.5 9.86621C6.5 10.1239 6.72386 10.333 7 10.333H9C9.27614 10.333 9.5 10.1239 9.5 9.86621C9.49975 9.60868 9.27598 9.4004 9 9.40039H7ZM8.00879 1C8.13235 0.999995 8.25588 1.04559 8.35352 1.13672L11.3535 3.93652C11.5488 4.11877 11.5488 4.41443 11.3535 4.59668C11.1583 4.77888 10.8417 4.77887 10.6465 4.59668L8.5 2.59277V7.06641C8.5 7.32414 8.27614 7.5332 8 7.5332C7.72386 7.5332 7.5 7.32414 7.5 7.06641V2.59277L5.35352 4.59668C5.15826 4.77888 4.84174 4.77887 4.64648 4.59668C4.45122 4.41443 4.45122 4.11877 4.64648 3.93652L7.5791 1.21387C7.6681 1.08504 7.82356 1 8 1H8.00879Z" fill="#252525"/>
</svg>
