<svg width="16" height="16" viewBox="0 0 16 16" fill="none" xmlns="http://www.w3.org/2000/svg">
<path fill-rule="evenodd" clip-rule="evenodd" d="M4.51761 6.29884C4.37845 6.3594 4.24191 6.42792 4.10941 6.50489C3.99284 6.57362 3.9146 6.69288 3.8975 6.82716C3.8804 6.96163 3.92656 7.09663 4.0225 7.19239L8.81644 11.9863C8.91218 12.0824 9.04814 12.1294 9.18265 12.1123C9.31692 12.0952 9.43621 12.017 9.50492 11.9004C9.5951 11.7452 9.67264 11.5842 9.74027 11.4199L10.4043 12.0713C10.359 12.1621 10.3121 12.2526 10.2608 12.3408L10.2598 12.3428C10.0538 12.6936 9.69662 12.9291 9.293 12.9805C8.88945 13.0318 8.48458 12.8935 8.1973 12.6055L6.10941 10.5176L1.74711 14.8799C1.57614 15.0507 1.29889 15.0508 1.12797 14.8799C0.957447 14.7089 0.957243 14.4316 1.12797 14.2608L5.49027 9.89845L3.40433 7.81251C3.11641 7.52523 2.97804 7.1203 3.02933 6.71681C3.08073 6.3132 3.31619 5.95601 3.66703 5.75001L3.66898 5.74903C3.72991 5.71362 3.79139 5.67908 3.85355 5.64649L4.51761 6.29884ZM1.14261 1.16212C1.31357 0.991164 1.5908 0.991164 1.76176 1.16212L5.78812 5.10548C5.79236 5.10521 5.79658 5.10476 5.80082 5.1045L6.73832 6.02345C6.73346 6.02264 6.72853 6.02228 6.72367 6.02149L9.97367 9.20411C9.97314 9.20123 9.97323 9.1982 9.97269 9.19532L10.9092 10.1143C10.9091 10.1159 10.9083 10.1175 10.9082 10.1191L15.0078 14.1338C15.1788 14.3048 15.1788 14.582 15.0078 14.7529C14.8369 14.9235 14.5595 14.9238 14.3887 14.7529L1.14261 1.78126C0.971691 1.61034 0.971752 1.33308 1.14261 1.16212ZM10.1426 1.00782C10.5385 0.964423 10.9333 1.10321 11.2149 1.38477L14.625 4.79493C14.9066 5.07667 15.0456 5.47128 15.002 5.8672C14.9584 6.26306 14.7374 6.61826 14.4014 6.83204L11.0118 8.98829L10.3702 8.35841L13.9307 6.09278C14.0427 6.02155 14.1163 5.90342 14.1309 5.77149C14.1454 5.63956 14.0997 5.50798 14.0059 5.41407L10.5957 2.00392C10.5019 1.91015 10.3702 1.86352 10.2383 1.87794C10.1065 1.89245 9.98831 1.96632 9.91703 2.07813L7.62894 5.67091L6.99027 5.04493L9.17777 1.60841C9.39162 1.27254 9.74685 1.05133 10.1426 1.00782Z" fill="#252525"/>
</svg>
