<svg width="16" height="16" viewBox="0 0 16 16" fill="none" xmlns="http://www.w3.org/2000/svg">
<path d="M1 8C1 11.8267 4.17333 15 8 15C11.8267 15 15 11.8267 15 8C15 4.17333 11.8267 1 8 1C4.17333 1 1 4.17333 1 8ZM1.93359 8C1.93359 4.64 4.64 1.93359 8 1.93359C11.36 1.93359 14.0664 4.64 14.0664 8C14.0664 11.36 11.36 14.0664 8 14.0664C4.64 14.0664 1.93359 11.36 1.93359 8ZM5.29297 7.25293C5.10643 7.43947 5.10667 7.71958 5.29297 7.90625C5.47961 7.99957 5.85335 8.00007 6.04004 7.81348L7.5332 6.32031V10.7998C7.5332 11.0798 7.72 11.2666 8 11.2666C8.28 11.2666 8.4668 11.0798 8.4668 10.7998V6.32031L10.0537 7.81348C10.2404 7.99986 10.5205 8.00005 10.707 7.81348C10.8935 7.6269 10.8934 7.34679 10.707 7.16016L8.37305 4.82617C8.28 4.82598 8.27976 4.7334 8.18652 4.7334C8.09319 4.64009 7.90681 4.64009 7.81348 4.7334C7.72358 4.7334 7.63344 4.8198 7.62695 4.82617L5.29297 7.25293Z" fill="#252525"/>
</svg>
