<svg width="16" height="15" viewBox="0 0 16 15" fill="none" xmlns="http://www.w3.org/2000/svg">
<path fill-rule="evenodd" clip-rule="evenodd" d="M15 3.70313C15 3.93612 14.8041 4.125 14.5625 4.125L1.4375 4.125C1.19588 4.125 1 3.93612 1 3.70312C1 3.47013 1.19588 3.28125 1.4375 3.28125L14.5625 3.28125C14.8041 3.28125 15 3.47013 15 3.70313Z" fill="#252525"/>
<path fill-rule="evenodd" clip-rule="evenodd" d="M13.1219 11.5952C12.951 11.7599 12.674 11.7599 12.5031 11.5952L8 7.25287L3.49686 11.5952C3.326 11.7599 3.049 11.7599 2.87814 11.5952C2.70729 11.4304 2.70729 11.1633 2.87814 10.9986L7.38125 6.65628C7.54525 6.49802 7.76798 6.40889 8 6.40889C8.23202 6.40889 8.45453 6.49781 8.61853 6.65606L13.1219 10.9986C13.2927 11.1633 13.2927 11.4304 13.1219 11.5952Z" fill="#252525"/>
</svg>
