<svg width="15" height="15" viewBox="0 0 15 15" fill="none" xmlns="http://www.w3.org/2000/svg">
<path fill-rule="evenodd" clip-rule="evenodd" d="M7.20998 2.92691C7.2493 2.88946 7.29462 2.8612 7.343 2.84214L7.79003 2.92691L10.251 5.27066C10.4111 5.42321 10.4111 5.67054 10.251 5.82309C10.0908 5.97564 9.83109 5.97564 9.67091 5.82309L7.91016 4.14618V9.45312C7.91016 9.66886 7.72652 9.84375 7.5 9.84375C7.27348 9.84375 7.08984 9.66886 7.08984 9.45312V4.14618L5.32909 5.82309C5.16891 5.97564 4.90921 5.97564 4.74904 5.82309C4.58886 5.67054 4.58886 5.42321 4.74904 5.27066L7.20998 2.92691ZM7.343 2.84214L7.78828 2.92526C7.7142 2.85554 7.61238 2.8125 7.5 2.8125C7.44439 2.8125 7.39136 2.82304 7.343 2.84214ZM1.75781 9.45312C1.75781 9.23739 1.57418 9.0625 1.34766 9.0625C1.12113 9.0625 0.9375 9.23739 0.9375 9.45312V10.2344C0.9375 11.3131 1.85567 12.1875 2.98828 12.1875H12.0117C13.1443 12.1875 14.0625 11.3131 14.0625 10.2344V9.45312C14.0625 9.23739 13.8789 9.0625 13.6523 9.0625C13.4258 9.0625 13.2422 9.23739 13.2422 9.45312V10.2344C13.2422 10.8816 12.6913 11.4062 12.0117 11.4062H2.98828C2.30871 11.4062 1.75781 10.8816 1.75781 10.2344V9.45312Z" fill="#252525"/>
</svg>
