<svg width="16" height="15" viewBox="0 0 16 15" fill="none" xmlns="http://www.w3.org/2000/svg">
<path fill-rule="evenodd" clip-rule="evenodd" d="M2.86664 5.4375C2.86664 3.98775 4.12024 2.8125 5.66664 2.8125C7.21304 2.8125 8.46664 3.98775 8.46664 5.4375C8.46664 6.88725 7.21304 8.0625 5.66664 8.0625C4.12024 8.0625 2.86664 6.88725 2.86664 5.4375ZM5.66664 3.62019C4.59606 3.62019 3.72818 4.43383 3.72818 5.4375C3.72818 6.44117 4.59606 7.25481 5.66664 7.25481C6.73722 7.25481 7.6051 6.44117 7.6051 5.4375C7.6051 4.43383 6.73722 3.62019 5.66664 3.62019Z" fill="#252525"/>
<path fill-rule="evenodd" clip-rule="evenodd" d="M5.2 8.85795C3.34432 8.85795 1.84 10.2825 1.84 12.0398C1.84 12.2594 1.65196 12.4375 1.42 12.4375C1.18804 12.4375 1 12.2594 1 12.0398C1 9.84319 2.8804 8.0625 5.2 8.0625C7.5196 8.0625 9.4 9.84319 9.4 12.0398C9.4 12.2594 9.21196 12.4375 8.98 12.4375C8.74804 12.4375 8.56 12.2594 8.56 12.0398C8.56 10.2825 7.05568 8.85795 5.2 8.85795Z" fill="#252525"/>
<path fill-rule="evenodd" clip-rule="evenodd" d="M9.40002 6.75C9.40002 5.54188 10.4447 4.5625 11.7334 4.5625C13.022 4.5625 14.0667 5.54188 14.0667 6.75C14.0667 7.95812 13.022 8.9375 11.7334 8.9375C10.4447 8.9375 9.40002 7.95812 9.40002 6.75ZM11.7334 5.35795C10.9133 5.35795 10.2485 5.98119 10.2485 6.75C10.2485 7.51881 10.9133 8.14205 11.7334 8.14205C12.5534 8.14205 13.2182 7.51881 13.2182 6.75C13.2182 5.98119 12.5534 5.35795 11.7334 5.35795Z" fill="#252525"/>
<path fill-rule="evenodd" clip-rule="evenodd" d="M12.7784 10.1124C11.9758 9.66758 10.9505 9.56286 10.0326 9.83192C9.78908 9.90331 9.5189 9.80416 9.42915 9.61047C9.33939 9.41677 9.46405 9.20188 9.70758 9.1305C10.9137 8.77693 12.261 8.91455 13.3157 9.49904C14.3704 10.0835 14.9993 11.0411 15 12.0635C15.0002 12.27 14.7899 12.4374 14.5303 12.4375C14.2708 12.4376 14.0603 12.2704 14.0601 12.0639C14.0596 11.2859 13.581 10.5572 12.7784 10.1124Z" fill="#252525"/>
</svg>
