<svg width="16" height="15" viewBox="0 0 16 15" fill="none" xmlns="http://www.w3.org/2000/svg">
<path fill-rule="evenodd" clip-rule="evenodd" d="M7.125 10.3711C7.125 8.33239 8.88788 6.67969 11.0625 6.67969C13.2371 6.67969 15 8.33239 15 10.3711C15 12.4098 13.2371 14.0625 11.0625 14.0625C8.88788 14.0625 7.125 12.4098 7.125 10.3711ZM11.0625 7.5C9.37113 7.5 8 8.78543 8 10.3711C8 11.9568 9.37113 13.2422 11.0625 13.2422C12.7539 13.2422 14.125 11.9568 14.125 10.3711C14.125 8.78543 12.7539 7.5 11.0625 7.5Z" fill="#252525"/>
<path fill-rule="evenodd" clip-rule="evenodd" d="M11.0625 8.32031C11.3041 8.32031 11.5 8.50395 11.5 8.73047V12.0117C11.5 12.2382 11.3041 12.4219 11.0625 12.4219C10.8209 12.4219 10.625 12.2382 10.625 12.0117V8.73047C10.625 8.50395 10.8209 8.32031 11.0625 8.32031Z" fill="#252525"/>
<path fill-rule="evenodd" clip-rule="evenodd" d="M8.875 10.3711C8.875 10.1446 9.07088 9.96094 9.3125 9.96094H12.8125C13.0541 9.96094 13.25 10.1446 13.25 10.3711C13.25 10.5976 13.0541 10.7812 12.8125 10.7812H9.3125C9.07088 10.7812 8.875 10.5976 8.875 10.3711Z" fill="#252525"/>
<path fill-rule="evenodd" clip-rule="evenodd" d="M6.74935 7.35342C5.66805 6.92151 4.42774 7.02697 3.44697 7.63421C2.4662 8.24145 1.8758 9.26947 1.875 10.3714C1.87484 10.5979 1.67883 10.7814 1.4372 10.7812C1.19558 10.7811 0.999836 10.5973 1 10.3708C1.001 8.99358 1.73893 7.70868 2.96477 6.9497C4.19061 6.19072 5.74084 6.05892 7.09232 6.59875C7.31461 6.68755 7.41803 6.92846 7.32332 7.13686C7.22861 7.34525 6.97163 7.44221 6.74935 7.35342Z" fill="#252525"/>
<path fill-rule="evenodd" clip-rule="evenodd" d="M2.53125 3.60352C2.53125 2.13112 3.80444 0.9375 5.375 0.9375C6.94556 0.9375 8.21875 2.13112 8.21875 3.60352C8.21875 5.07592 6.94556 6.26953 5.375 6.26953C3.80444 6.26953 2.53125 5.07592 2.53125 3.60352ZM5.375 1.75781C4.28769 1.75781 3.40625 2.58416 3.40625 3.60352C3.40625 4.62287 4.28769 5.44922 5.375 5.44922C6.46231 5.44922 7.34375 4.62287 7.34375 3.60352C7.34375 2.58416 6.46231 1.75781 5.375 1.75781Z" fill="#252525"/>
</svg>
