<svg width="15" height="15" viewBox="0 0 15 15" fill="none" xmlns="http://www.w3.org/2000/svg">
<path fill-rule="evenodd" clip-rule="evenodd" d="M6.32753 7.35346C5.31381 6.92154 4.15102 7.027 3.23154 7.63424C2.31207 8.24149 1.75857 9.26951 1.75782 10.3714C1.75766 10.5979 1.5739 10.7814 1.34738 10.7813C1.12085 10.7811 0.937346 10.5974 0.9375 10.3709C0.938438 8.99362 1.63025 7.70871 2.77948 6.94973C3.9287 6.19076 5.38205 6.05895 6.64907 6.59879C6.85747 6.68758 6.95443 6.9285 6.86564 7.13689C6.77684 7.34529 6.53593 7.44225 6.32753 7.35346Z" fill="#252525"/>
<path fill-rule="evenodd" clip-rule="evenodd" d="M2.37305 3.60352C2.37305 2.13112 3.56667 0.9375 5.03907 0.9375C6.51148 0.9375 7.7051 2.13112 7.7051 3.60352C7.7051 5.07593 6.51148 6.26955 5.03907 6.26955C3.56667 6.26955 2.37305 5.07593 2.37305 3.60352ZM5.03907 1.75782C4.01971 1.75782 3.19336 2.58417 3.19336 3.60352C3.19336 4.62288 4.01971 5.44923 5.03907 5.44923C6.05843 5.44923 6.88478 4.62288 6.88478 3.60352C6.88478 2.58417 6.05843 1.75782 5.03907 1.75782Z" fill="#252525"/>
<path fill-rule="evenodd" clip-rule="evenodd" d="M6.67969 11.1914C6.67969 10.9649 6.86332 10.7813 7.08985 10.7813H9.14063C9.36716 10.7813 9.55079 10.9649 9.55079 11.1914C9.55079 11.418 9.36716 11.6016 9.14063 11.6016H7.5V13.2422C7.5 13.4688 7.31637 13.6524 7.08985 13.6524C6.86332 13.6524 6.67969 13.4688 6.67969 13.2422V11.1914Z" fill="#252525"/>
<path fill-rule="evenodd" clip-rule="evenodd" d="M7.38127 10.7889C7.60357 10.7454 7.81907 10.8903 7.86261 11.1126C8.09206 12.2841 9.07991 13.1554 10.2709 13.2367C11.4619 13.3179 12.559 12.589 12.9455 11.4595C13.0188 11.2452 13.252 11.1309 13.4663 11.2042C13.6807 11.2776 13.795 11.5108 13.7216 11.7251C13.2149 13.2059 11.7766 14.1616 10.2151 14.0551C8.65356 13.9485 7.35842 12.8062 7.05759 11.2703C7.01405 11.048 7.15897 10.8325 7.38127 10.7889Z" fill="#252525"/>
<path fill-rule="evenodd" clip-rule="evenodd" d="M13.6524 7.08987C13.8789 7.08987 14.0626 7.27351 14.0626 7.50003V9.55082C14.0626 9.77734 13.8789 9.96098 13.6524 9.96098H11.6016C11.3751 9.96098 11.1915 9.77734 11.1915 9.55082C11.1915 9.3243 11.3751 9.14066 11.6016 9.14066H13.2423V7.50003C13.2423 7.27351 13.4259 7.08987 13.6524 7.08987Z" fill="#252525"/>
<path fill-rule="evenodd" clip-rule="evenodd" d="M10.4708 7.50558C9.27976 7.42429 8.18269 8.15325 7.7962 9.28274C7.72286 9.49706 7.48966 9.61135 7.27534 9.53801C7.06102 9.46467 6.94673 9.23148 7.02007 9.01715C7.52679 7.53632 8.96512 6.58059 10.5266 6.68716C12.0881 6.79374 13.3833 7.93602 13.6841 9.47197C13.7276 9.69427 13.5827 9.90978 13.3604 9.95331C13.1381 9.99685 12.9226 9.85194 12.8791 9.62964C12.6496 8.45812 11.6618 7.58686 10.4708 7.50558Z" fill="#252525"/>
</svg>
