<svg width="15" height="16" viewBox="0 0 15 16" fill="none" xmlns="http://www.w3.org/2000/svg">
<path fill-rule="evenodd" clip-rule="evenodd" d="M10.3709 7.2879C12.4095 7.28807 14.0623 8.92498 14.0623 10.9441C14.0621 12.9631 12.4094 14.6002 10.3709 14.6004C8.33223 14.6004 6.67967 12.9633 6.67948 10.9441C6.67948 8.92487 8.33211 7.2879 10.3709 7.2879ZM10.3709 8.1004C8.78517 8.1004 7.49979 9.3736 7.49979 10.9441C7.49999 12.5145 8.78529 13.7879 10.3709 13.7879C11.9563 13.7877 13.2418 12.5144 13.242 10.9441C13.242 9.37371 11.9564 8.10057 10.3709 8.1004ZM11.5047 9.75469C11.6406 9.57526 11.8977 9.53908 12.0789 9.67364C12.2601 9.80821 12.2967 10.0625 12.1609 10.242L10.5721 12.3406C10.4292 12.5288 10.2105 12.6473 9.97342 12.6639C9.73645 12.6803 9.50381 12.5938 9.33573 12.4275L8.51542 11.615C8.35526 11.4564 8.3553 11.1995 8.51542 11.0408C8.6756 10.8822 8.93531 10.8822 9.09549 11.0408L9.91581 11.8533H9.91678L11.5047 9.75469ZM7.49979 1.6004C9.87538 1.56467 12.2565 3.18938 13.7215 4.78301L13.7234 4.78399C14.1759 5.28102 14.1757 6.03684 13.7234 6.53399L13.7224 6.53497C13.5335 6.74127 13.3293 6.94686 13.1131 7.14922C12.9484 7.30333 12.6886 7.29667 12.533 7.1336C12.3776 6.97064 12.3853 6.7135 12.5496 6.55938C12.751 6.3709 12.94 6.18 13.114 5.99005C13.2847 5.80227 13.2845 5.51678 13.114 5.32891C11.7116 3.80365 9.53704 2.37969 7.50663 2.4129H7.49295C5.46232 2.37947 3.28683 3.80349 1.88553 5.33087C1.71498 5.51896 1.71568 5.80406 1.88651 5.992L1.88749 5.99395C2.90883 7.12662 4.18184 8.00898 5.60624 8.5711C5.81659 8.65411 5.9194 8.89008 5.83573 9.09844C5.75188 9.30687 5.51297 9.40903 5.30252 9.32598C3.76002 8.71725 2.3812 7.76062 1.27518 6.53399L1.27713 6.53594L1.58182 6.26446L1.27518 6.53399C0.824807 6.03677 0.825563 5.28345 1.27713 4.78692L1.27811 4.78497C2.74229 3.18889 5.12417 1.56447 7.49979 1.6004ZM5.24491 4.68829C5.78859 3.45519 7.23898 2.89146 8.48417 3.4295C9.72938 3.96762 10.2986 5.40404 9.75565 6.63751C9.6651 6.84314 9.42325 6.93712 9.21561 6.84747C9.00799 6.75779 8.91317 6.51796 9.0037 6.31231C9.36534 5.49017 8.98597 4.53327 8.15604 4.17462C7.32599 3.81592 6.35929 4.19149 5.99686 5.01348C5.63453 5.83546 6.01375 6.79296 6.84354 7.15215C7.05094 7.24209 7.14516 7.48181 7.05448 7.68731C6.96361 7.89259 6.72186 7.98608 6.51444 7.8963C5.26986 7.35732 4.70137 5.92128 5.24491 4.68829Z" fill="#252525"/>
</svg>
