<svg width="16" height="16" viewBox="0 0 16 16" fill="none" xmlns="http://www.w3.org/2000/svg">
<path d="M8 1C11.866 1 15 4.13401 15 8C15 11.866 11.866 15 8 15C4.13401 15 1 11.866 1 8C1 4.13401 4.13401 1 8 1ZM8 1.875C4.61726 1.875 1.875 4.61726 1.875 8C1.875 11.3827 4.61726 14.125 8 14.125C11.3827 14.125 14.125 11.3827 14.125 8C14.125 4.61726 11.3827 1.875 8 1.875ZM8 10.1875C8.36244 10.1875 8.65625 10.4813 8.65625 10.8438C8.65625 11.2062 8.36244 11.5 8 11.5C7.63756 11.5 7.34375 11.2062 7.34375 10.8438C7.34375 10.4813 7.63756 10.1875 8 10.1875ZM8 3.625C8.24162 3.625 8.4375 3.82088 8.4375 4.0625V8.875C8.4375 9.11662 8.24162 9.3125 8 9.3125C7.75838 9.3125 7.5625 9.11662 7.5625 8.875L7.5625 4.0625C7.5625 3.82088 7.75838 3.625 8 3.625Z" fill="#252525"/>
</svg>
