<svg width="16" height="15" viewBox="0 0 16 15" fill="none" xmlns="http://www.w3.org/2000/svg">
<path fill-rule="evenodd" clip-rule="evenodd" d="M5.75287 7.88772C5.7149 7.85926 5.67756 7.8301 5.64087 7.80025C5.58323 7.75337 5.52721 7.70481 5.47287 7.65463C5.5618 7.73675 5.65526 7.81457 5.75287 7.88772ZM7.99999 7.64062L8.00222 7.64062C9.40997 7.63942 10.5509 6.56917 10.5509 5.24912C10.5509 3.92834 9.40883 2.85763 7.99999 2.85763C6.59115 2.85763 5.44906 3.92834 5.44906 5.24912C5.44906 6.56991 6.59115 7.64062 7.99999 7.64062ZM10.1351 7.79156L9.93121 7.94224L10.1723 8.03257C10.9017 8.30593 11.572 8.71675 12.1382 9.24759C12.9556 10.0139 13.5063 10.9836 13.7341 12.0299C13.7732 12.2093 13.8027 12.3909 13.8225 12.5742C13.8463 12.794 13.6527 12.9865 13.3964 12.9865C13.1486 12.9865 12.9351 12.795 12.901 12.5428C12.7636 11.53 12.2718 10.5818 11.4934 9.8521C10.5669 8.9835 9.31027 8.49552 7.99999 8.49552C6.68971 8.49552 5.43309 8.9835 4.50659 9.8521C3.72822 10.5818 3.2364 11.53 3.09902 12.5428C3.06483 12.795 2.85137 12.9865 2.60362 12.9865C2.34723 12.9865 2.15371 12.794 2.17745 12.5742C2.19724 12.3909 2.22682 12.2093 2.26589 12.0299C2.4937 10.9836 3.04435 10.0139 3.86177 9.24759C4.428 8.71675 5.0983 8.30593 5.82772 8.03257L6.06877 7.94224L5.86491 7.79156C5.06298 7.19882 4.5486 6.28033 4.5486 5.24912C4.5486 3.46211 6.09384 2.01344 7.99999 2.01344C9.90614 2.01344 11.4514 3.46211 11.4514 5.24912C11.4514 6.28033 10.937 7.19882 10.1351 7.79156Z" fill="#252525"></path>
</svg>