<svg width="4096" height="603" viewBox="0 0 4096 603" fill="none" xmlns="http://www.w3.org/2000/svg">
<rect width="4096" height="602.16" fill="#F5F5F5"/>
<g id="Product logo">
<rect x="0.5" y="0.5" width="4095" height="601.16" rx="4.5" stroke="#9747FF" stroke-dasharray="10 5"/>
<g id="Property 1=Office Logo">
<g id="Vector">
<path d="M545.872 301.08C545.872 449.65 425.432 570.089 276.863 570.089C128.294 570.089 7.85427 449.65 7.85427 301.08C7.85427 152.511 128.294 32.0716 276.863 32.0716C425.432 32.0716 545.872 152.511 545.872 301.08Z" fill="#FFF6E6"/>
<path d="M277.072 506.082C390.501 506.082 482.454 414.13 482.454 300.7C482.454 187.271 390.501 95.318 277.072 95.318C163.642 95.318 71.6897 187.271 71.6897 300.7C71.6897 414.13 163.642 506.082 277.072 506.082Z" fill="#FAAB1E"/>
<path fill-rule="evenodd" clip-rule="evenodd" d="M277.204 413.792C339.59 413.792 390.164 363.219 390.164 300.832C390.164 238.445 339.59 187.871 277.204 187.871C214.817 187.871 164.243 238.445 164.243 300.832C164.243 363.219 214.817 413.792 277.204 413.792ZM277.204 365.519C312.924 365.519 341.891 336.552 341.891 300.832C341.891 265.112 312.924 236.144 277.204 236.144C241.483 236.144 212.516 265.112 212.516 300.832C212.516 336.552 241.483 365.519 277.204 365.519Z" fill="white"/>
<path fill-rule="evenodd" clip-rule="evenodd" d="M333.297 333.085C322.125 352.473 301.192 365.519 277.204 365.519C253.166 365.519 232.2 352.407 221.044 332.953L179.228 357.09C198.731 390.97 235.306 413.792 277.204 413.792C319.052 413.792 355.577 391.036 375.097 357.221L333.297 333.085Z" fill="#E6E6E6"/>
<path fill-rule="evenodd" clip-rule="evenodd" d="M164.243 300.832C164.243 321.321 169.698 340.528 179.228 357.09L221.044 332.953C215.622 323.489 212.516 312.514 212.516 300.832C212.516 265.161 241.401 236.227 277.056 236.144V187.871C214.734 187.954 164.243 238.494 164.243 300.832Z" fill="#F2F2F2"/>
</g>
</g>
<g id="Property 1=Playground Logo">
<g id="Vector_2">
<path d="M1136.25 301.08C1136.25 449.65 1015.81 570.089 867.242 570.089C718.673 570.089 598.233 449.65 598.233 301.08C598.233 152.511 718.673 32.0716 867.242 32.0716C1015.81 32.0716 1136.25 152.511 1136.25 301.08Z" fill="#E2FDFF"/>
<path d="M867.451 506.737C980.881 506.737 1072.83 414.784 1072.83 301.355C1072.83 187.926 980.881 95.9728 867.451 95.9728C754.022 95.9728 662.069 187.926 662.069 301.355C662.069 414.784 754.022 506.737 867.451 506.737Z" fill="#17AFBD"/>
<path d="M832.669 269.979C832.669 269.985 832.67 269.992 832.67 269.997C832.67 288.907 848.097 304.291 867.061 304.291C886.017 304.291 901.441 288.917 901.451 270.016C901.46 283.115 912.113 293.732 925.252 293.732C938.397 293.732 949.054 283.106 949.054 269.997C949.054 269.972 949.053 269.949 949.053 269.924C949.053 269.949 949.055 269.973 949.055 269.997C949.055 315.083 912.273 351.761 867.061 351.761C854.787 351.761 843.134 349.053 832.669 344.211V269.997V269.979Z" fill="#E2FDFF"/>
<path d="M832.669 344.211V391.123C832.669 404.231 822.013 414.857 808.869 414.857C795.722 414.857 785.066 404.231 785.066 391.123V269.997C785.066 270.021 785.067 270.047 785.067 270.071C785.096 302.883 804.611 331.229 832.669 344.211Z" fill="#E2FDFF"/>
<path d="M814.373 246.907C824.857 249.385 832.661 258.768 832.669 269.979V269.997C832.669 258.779 824.864 249.386 814.373 246.907Z" fill="#FF6FC0"/>
<path d="M814.373 246.907C824.857 249.385 832.661 258.768 832.669 269.979V269.997C832.669 258.779 824.864 249.386 814.373 246.907Z" fill="#B692FB"/>
<path d="M808.868 246.263C795.724 246.263 785.067 256.89 785.067 269.997C785.067 256.89 795.723 246.263 808.868 246.263Z" fill="#4EBFE6"/>
<path d="M808.868 246.263C795.724 246.263 785.067 256.89 785.067 269.997C785.067 256.89 795.723 246.263 808.868 246.263Z" fill="#B692FB"/>
<path d="M785.068 270.071C785.068 270.047 785.067 270.021 785.067 269.997C785.067 256.888 795.724 246.263 808.868 246.263C810.763 246.263 812.605 246.49 814.373 246.907C824.863 249.385 832.669 258.779 832.669 269.997V344.211C804.611 331.229 785.097 302.883 785.068 270.071Z" fill="white"/>
<path d="M925.252 293.732C912.113 293.732 901.459 283.115 901.451 270.016L901.452 269.998C901.452 251.087 886.024 235.704 867.06 235.704C848.102 235.704 832.678 251.078 832.669 269.979C832.661 258.768 824.856 249.383 814.373 246.907C812.604 246.49 810.763 246.263 808.868 246.263C795.723 246.263 785.067 256.888 785.067 269.997C785.067 224.912 821.848 188.234 867.06 188.234C912.247 188.234 949.012 224.873 949.052 269.924C949.052 269.95 949.054 269.972 949.054 269.998C949.054 283.107 938.396 293.732 925.252 293.732Z" fill="#E2FDFF"/>
</g>
</g>
<g id="Property 1=Home Logo">
<g id="Vector_3">
<path d="M1726.63 301.08C1726.63 449.65 1606.19 570.089 1457.62 570.089C1309.05 570.089 1188.61 449.65 1188.61 301.08C1188.61 152.511 1309.05 32.0716 1457.62 32.0716C1606.19 32.0716 1726.63 152.511 1726.63 301.08Z" fill="#FFE2E7"/>
<path d="M1457.83 506.737C1571.26 506.737 1663.21 414.784 1663.21 301.355C1663.21 187.926 1571.26 95.9728 1457.83 95.9728C1344.4 95.9728 1252.45 187.926 1252.45 301.355C1252.45 414.784 1344.4 506.737 1457.83 506.737Z" fill="#DD445D"/>
</g>
<g id="Vector_4">
<path d="M1369.91 275.545V377.143C1369.91 388.711 1379.29 398.088 1390.86 398.088H1524.38C1535.95 398.088 1545.33 388.711 1545.33 377.143V275.592C1545.33 269.056 1542.28 262.895 1537.08 258.933L1470.04 207.842C1462.52 202.111 1452.09 202.13 1444.59 207.888L1378.1 258.932C1372.94 262.896 1369.91 269.036 1369.91 275.545Z" fill="#EEEEEF"/>
<path d="M1544.42 380.551C1544.42 390.097 1536.68 397.836 1527.14 397.836H1387.53C1377.98 397.836 1370.24 390.097 1370.24 380.551V273.342C1370.24 263.795 1377.98 256.057 1387.53 256.057C1391.14 256.057 1394.51 257.174 1397.29 259.096C1397.78 259.458 1398.29 259.819 1398.77 260.214L1537.47 366.7L1537.87 367.012C1541.88 370.151 1544.42 375.08 1544.42 380.551Z" fill="white"/>
</g>
</g>
<g id="Property 1=Space Logo">
<g id="Vector_5">
<path d="M2317.01 301.08C2317.01 449.65 2196.57 570.089 2048 570.089C1899.43 570.089 1778.99 449.65 1778.99 301.08C1778.99 152.511 1899.43 32.0716 2048 32.0716C2196.57 32.0716 2317.01 152.511 2317.01 301.08Z" fill="#E8DCFC"/>
<path d="M2048.21 506.737C2161.64 506.737 2253.59 414.784 2253.59 301.355C2253.59 187.926 2161.64 95.9728 2048.21 95.9728C1934.78 95.9728 1842.83 187.926 1842.83 301.355C1842.83 414.784 1934.78 506.737 2048.21 506.737Z" fill="#B692FB"/>
</g>
<g id="Group 16">
<g id="Space Logo 02 Center 1" clip-path="url(#clip0_4652_16207)">
<path id="Vector_6" d="M2068.26 329.696C2058.3 326.669 2047.95 326.169 2037.71 324.907C2021.44 322.911 2005.97 318.588 1992.82 308.172C1981.64 299.314 1974.41 287.819 1971.91 273.853C1967.1 246.974 1975.4 224.347 1995.89 206.481C2008.49 195.5 2023.62 190 2040.22 188.818C2059.4 187.405 2077.71 190.57 2094.25 200.854C2109.57 210.376 2119.8 224.065 2124.83 241.351C2127.9 251.852 2122.5 267.072 2105.21 268.037C2097.67 268.461 2091.08 266.719 2086.16 260.583C2085.23 259.434 2084.44 258.167 2083.84 256.816C2079.99 247.868 2073.01 242.689 2063.86 240.146C2053.8 237.349 2043.61 236.623 2033.55 239.849C2025.23 242.51 2018.2 246.936 2014.96 255.69C2012.7 261.812 2014.2 266.012 2019.83 269.393C2026.43 273.339 2033.74 274.912 2041.18 276.014C2051.31 277.516 2061.49 278.661 2071.59 280.346C2075.46 280.996 2079.15 282.701 2082.93 283.953C2083.4 284.335 2083.9 284.735 2084.4 285.093C2097.98 294.836 2098.15 315.461 2084.71 325.265C2079.81 328.797 2074.2 329.894 2068.26 329.696Z" fill="white"/>
<path id="Vector_7" d="M2068.26 329.696C2074.2 329.894 2079.81 328.797 2084.71 325.232C2098.15 315.428 2097.97 294.803 2084.4 285.06C2083.9 284.702 2083.41 284.302 2082.93 283.92C2090.42 286.35 2097.01 290.348 2103.13 295.18C2115.85 305.229 2122.88 318.574 2124.64 334.5C2126.71 353.232 2121.79 370.288 2110.32 385.229C2097.41 402.04 2079.86 410.846 2059.08 413.483C2042.84 415.555 2027.02 413.568 2011.89 407.286C1993.18 399.535 1980.44 385.809 1972.69 367.246C1970.42 361.826 1969.36 356.387 1970.77 350.543C1972.91 341.676 1979.72 335.729 1988.8 334.848C1995.34 334.212 2001.58 334.876 2006.7 339.411C2008.77 341.197 2010.46 343.391 2011.65 345.858C2015.71 354.951 2022.79 360.234 2032.12 362.758C2041.95 365.419 2051.89 366.134 2061.78 363.05C2069.46 360.649 2076.15 356.749 2079.85 349.13C2080.57 347.577 2081.11 345.947 2081.47 344.271C2082.6 339.246 2079.9 336.006 2076 333.6C2073.54 332.079 2070.84 330.977 2068.26 329.696Z" fill="white" fill-opacity="0.73"/>
</g>
</g>
</g>
<g id="Property 1=Qikkids Logo">
<g id="Vector_8">
<path d="M2907.39 301.08C2907.39 449.65 2786.95 570.089 2638.38 570.089C2489.81 570.089 2369.37 449.65 2369.37 301.08C2369.37 152.511 2489.81 32.0716 2638.38 32.0716C2786.95 32.0716 2907.39 152.511 2907.39 301.08Z" fill="#CADEB8"/>
<path d="M2638.59 506.737C2752.02 506.737 2843.97 414.784 2843.97 301.355C2843.97 187.926 2752.02 95.9728 2638.59 95.9728C2525.16 95.9728 2433.21 187.926 2433.21 301.355C2433.21 414.784 2525.16 506.737 2638.59 506.737Z" fill="#7EC042"/>
</g>
<g id="Group 21">
<path id="Subtract" d="M2639.65 179.994C2694.91 179.994 2739.7 224.788 2739.7 280.045V305.733C2739.7 360.99 2694.91 405.784 2639.65 405.784H2631.09C2575.83 405.784 2531.04 360.99 2531.04 305.733V280.045C2531.04 224.788 2575.83 179.994 2631.09 179.994H2639.65ZM2635.37 220.555C2603.88 220.555 2578.36 246.079 2578.36 277.565V308.212C2578.36 339.698 2603.88 365.223 2635.37 365.223C2666.86 365.223 2692.38 339.698 2692.38 308.212V277.565C2692.38 246.079 2666.86 220.555 2635.37 220.555Z" fill="white"/>
<rect id="Rectangle 52" x="2616.67" y="348.686" width="33.801" height="132.301" rx="25.8211" transform="rotate(-56.1744 2616.67 348.686)" fill="white"/>
</g>
</g>
<g id="Property 1=Discover Logo">
<g id="Vector_9">
<path d="M3497.77 301.08C3497.77 449.65 3377.33 570.089 3228.76 570.089C3080.19 570.089 2959.75 449.65 2959.75 301.08C2959.75 152.511 3080.19 32.0716 3228.76 32.0716C3377.33 32.0716 3497.77 152.511 3497.77 301.08Z" fill="#ADC8DD"/>
<path d="M3228.97 506.737C3342.4 506.737 3434.35 414.784 3434.35 301.355C3434.35 187.926 3342.4 95.9728 3228.97 95.9728C3115.54 95.9728 3023.58 187.926 3023.58 301.355C3023.58 414.784 3115.54 506.737 3228.97 506.737Z" fill="#1B75BB"/>
</g>
<g id="Group 21_2">
<g id="Frame" clip-path="url(#clip1_4652_16207)">
<path id="Vector_10" d="M3228.6 187.848C3166.15 187.848 3115.53 238.474 3115.53 300.932C3115.53 363.38 3166.15 414.006 3228.6 414.006C3291.06 414.006 3341.68 363.38 3341.68 300.932C3341.68 238.474 3291.06 187.848 3228.6 187.848ZM3300.98 364.28L3281.92 345.202L3272.87 354.26L3291.94 373.327C3275.03 388.153 3252.86 397.127 3228.6 397.127C3204.34 397.127 3182.16 388.143 3165.25 373.316L3184.31 354.26L3175.26 345.202L3156.2 364.27C3141.38 347.359 3132.4 325.193 3132.4 300.932C3132.4 276.671 3141.38 254.505 3156.2 237.594L3175.26 256.651L3184.31 247.604L3165.25 228.548C3182.16 213.721 3204.34 204.737 3228.6 204.737C3252.86 204.737 3275.03 213.711 3291.94 228.537L3272.87 247.604L3281.92 256.651L3300.98 237.584C3315.81 254.494 3324.79 276.671 3324.79 300.932C3324.79 325.193 3315.81 347.37 3300.98 364.28Z" fill="white"/>
<path id="Vector_11" d="M3228.5 226.098L3205.96 300.932L3228.5 375.767L3251.05 300.932L3228.5 226.098ZM3212.91 299.121L3228.5 247.259L3244.11 299.121L3228.5 292.608L3212.91 299.121Z" fill="white"/>
<path id="Vector_12" d="M3180.92 300.922C3180.92 307.351 3183.56 312.869 3187.3 315.172V315.193L3153.01 300.922L3187.29 286.66V286.681C3183.56 288.985 3180.92 294.493 3180.92 300.922Z" fill="white"/>
<path id="Vector_13" d="M3276.28 300.922C3276.28 307.351 3273.64 312.869 3269.9 315.172V315.193L3304.18 300.922L3269.9 286.66V286.681C3273.64 288.985 3276.28 294.493 3276.28 300.922Z" fill="white"/>
</g>
</g>
</g>
<g id="Property 1=Waitlist Logo">
<g id="Vector_14">
<path d="M4088.15 301.08C4088.15 449.65 3967.71 570.089 3819.14 570.089C3670.57 570.089 3550.13 449.65 3550.13 301.08C3550.13 152.511 3670.57 32.0716 3819.14 32.0716C3967.71 32.0716 4088.15 152.511 4088.15 301.08Z" fill="#A5D4E5"/>
<path d="M3819.35 506.737C3932.78 506.737 4024.73 414.784 4024.73 301.355C4024.73 187.926 3932.78 95.9728 3819.35 95.9728C3705.92 95.9728 3613.96 187.926 3613.96 301.355C3613.96 414.784 3705.92 506.737 3819.35 506.737Z" fill="#019DD6"/>
</g>
<g id="Layer 4">
<path id="Vector_15" opacity="0.8" fill-rule="evenodd" clip-rule="evenodd" d="M3877.8 413.499C3865.28 417.114 3852.07 409.835 3848.46 397.315L3796.44 217.482C3792.82 204.962 3800.1 191.752 3812.62 188.137C3825.14 184.522 3838.35 191.801 3841.97 204.321L3893.99 384.17C3897.6 396.674 3890.32 409.884 3877.8 413.499Z" fill="white"/>
<path id="Vector_16" fill-rule="evenodd" clip-rule="evenodd" d="M3773.81 413.515C3761.29 417.13 3748.08 409.851 3744.47 397.331L3692.43 217.482C3688.82 204.962 3696.1 191.752 3708.62 188.137C3721.14 184.522 3734.35 191.801 3737.96 204.321L3789.98 384.17C3793.61 396.69 3786.33 409.884 3773.81 413.515Z" fill="#FFF7F3" fill-opacity="0.8"/>
<path id="Vector_17" opacity="0.8" fill-rule="evenodd" clip-rule="evenodd" d="M3760.59 413.499C3773.11 417.114 3786.32 409.835 3789.93 397.315L3841.95 217.466C3845.57 204.946 3838.29 191.735 3825.77 188.121C3813.25 184.506 3800.04 191.785 3796.42 204.305L3744.42 384.154C3740.8 396.674 3748.08 409.884 3760.59 413.499Z" fill="white"/>
<path id="Vector_18" opacity="0.8" fill-rule="evenodd" clip-rule="evenodd" d="M3864.54 413.499C3877.06 417.114 3890.27 409.835 3893.89 397.315L3945.91 217.466C3949.52 204.946 3942.24 191.735 3929.72 188.121C3917.2 184.506 3903.99 191.785 3900.38 204.305L3848.36 384.154C3844.74 396.674 3852.02 409.884 3864.54 413.499Z" fill="white"/>
</g>
</g>
</g>
<defs>
<clipPath id="clip0_4652_16207">
<rect width="237.628" height="344.956" fill="white" transform="translate(1970.11 188.502) scale(0.654522)"/>
</clipPath>
<clipPath id="clip1_4652_16207">
<rect width="345.531" height="345.531" fill="white" transform="translate(3115.53 187.848) scale(0.654522)"/>
</clipPath>
</defs>
</svg>
