<svg width="2206" height="971" viewBox="0 0 2206 971" fill="none" xmlns="http://www.w3.org/2000/svg">
<rect width="2206" height="971" fill="#F5F5F5"/>
<g id="Xplor_Vertical_Education_Logo_Colo" clip-path="url(#clip0_4652_16207)">
<g id="Group">
<path id="Vector" d="M1283.3 0H1149.4C1146.64 0 1144.4 2.23858 1144.4 5V662.7C1144.4 665.461 1146.64 667.7 1149.4 667.7H1283.3C1286.06 667.7 1288.3 665.461 1288.3 662.7V5C1288.3 2.23858 1286.06 0 1283.3 0Z" fill="#282F35"/>
<path id="Vector_2" d="M105.7 361.8C164.076 361.8 211.4 314.477 211.4 256.1C211.4 197.724 164.076 150.4 105.7 150.4C47.3235 150.4 0 197.724 0 256.1C0 314.477 47.3235 361.8 105.7 361.8Z" fill="#6923F4"/>
<path id="Vector_3" d="M1618.6 673C1459.4 687.2 1326.5 554.4 1340.7 395.1C1351.6 273 1449.9 174.7 1571.9 163.8C1731.1 149.6 1864 282.5 1849.8 441.7C1838.9 563.8 1740.6 662.1 1618.6 672.9V673ZM1606.6 307.4C1536.1 300.4 1477.1 359.4 1484.1 429.9C1489.3 482.1 1531.5 524.3 1583.7 529.6C1654.2 536.7 1713.3 477.6 1706.2 407.1C1701 354.9 1658.7 312.7 1606.5 307.5L1606.6 307.4Z" fill="#282F35"/>
<path id="Vector_4" d="M2155.9 162.9C2148.8 163 2141.6 163.3 2134.4 163.9C2012.3 174.8 1914 273.1 1903.2 395.2C1902.6 402.3 1902.3 409.4 1902.3 416.4H1902.2V663.1C1902.2 665.9 1904.4 668.1 1907.2 668.1H2041.1C2043.9 668.1 2046.1 665.9 2046.1 663.1V416.4C2047.3 356.4 2095.9 307.9 2155.9 306.9H2200.7C2203.5 306.9 2205.7 304.7 2205.7 301.9V168C2205.7 165.2 2203.5 163 2200.7 163H2155.9V162.9Z" fill="#282F35"/>
<path id="Vector_5" d="M512.9 168.1H418.2C416.9 168.1 415.6 168.6 414.7 169.6L19.3999 564.8C18.4999 565.7 17.8999 567 17.8999 568.3V663C17.8999 665.8 20.0999 668 22.8999 668H117.6C118.9 668 120.2 667.5 121.1 666.5L264.3 523.3C266.3 521.3 269.4 521.3 271.4 523.3L414.6 666.5C415.5 667.4 416.8 668 418.1 668H512.8C515.6 668 517.8 665.8 517.8 663V568.3C517.8 567 517.3 565.7 516.3 564.8L373.1 421.6C371.1 419.6 371.1 416.5 373.1 414.5L516.3 271.3C517.2 270.4 517.8 269.1 517.8 267.8V173.1C517.8 170.3 515.6 168.1 512.8 168.1H512.9Z" fill="#282F35"/>
<path id="Vector_6" d="M949.2 188.6C908.9 169 862.8 159.5 814.2 163.9C692.1 174.8 593.8 273.1 583 395.2C582.3 403 582.1 410.6 582.1 418.2H582V831.3C582 834.1 584.2 836.3 587 836.3H720.9C723.7 836.3 725.9 834.1 725.9 831.3V418.2C726.1 353 782.4 300.7 848.9 307.4C901.1 312.6 943.3 354.8 948.6 407C949 410.8 949.1 414.6 949.1 418.4C949.1 420.4 948.9 422.2 948.8 424.2C948.7 426.6 948.6 429 948.3 431.4C948.3 432.2 948 433.1 947.9 433.9C942.4 473 916.7 505.8 881.6 521C878.4 522.4 875.1 523.6 871.8 524.7C871.7 524.7 871.6 524.7 871.5 524.8C868.2 525.8 864.9 526.7 861.5 527.5C861.3 527.5 861.1 527.5 860.9 527.6C857.6 528.3 854.2 528.9 850.7 529.3C850.5 529.3 850.2 529.3 850 529.3C846.6 529.7 843.1 529.9 839.6 530C837.1 530 834.6 530.2 832.1 530H794.5C791.7 530 789.5 532.2 789.5 535V668.9C789.5 671.7 791.7 673.9 794.5 673.9H829.8C840 674.2 850.4 673.9 860.9 673C983 662.1 1081.3 563.8 1092.1 441.8C1092.7 434.6 1093 427.5 1093 420.5C1093.8 318.7 1034.8 230.4 949.1 188.6H949.2Z" fill="#282F35"/>
</g>
<g id="Group_2">
<path id="Vector_7" d="M891.3 842.2V874.1H942.8V903.8H891.3V938.4H949.5V969.2H852.8V811.3H949.5V842.1H891.3V842.2Z" fill="#6923F4"/>
<path id="Vector_8" d="M1077.3 821.3C1089.7 827.9 1099.4 837.2 1106.2 849.1C1113 861 1116.4 874.8 1116.4 890.4C1116.4 906 1113 919.6 1106.2 931.6C1099.4 943.6 1089.7 952.9 1077.2 959.5C1064.7 966.1 1050.2 969.4 1033.7 969.4H974.6V811.5H1033.7C1050.3 811.5 1064.9 814.8 1077.3 821.4V821.3ZM1065.1 924.1C1073.2 916.2 1077.2 904.9 1077.2 890.4C1077.2 875.9 1073.1 864.5 1065.1 856.4C1057 848.3 1045.7 844.3 1031.1 844.3H1012.9V936.1H1031.1C1045.6 936.1 1057 932.1 1065.1 924.2V924.1Z" fill="#6923F4"/>
<path id="Vector_9" d="M1175.8 811.4V905.9C1175.8 915.3 1178.1 922.6 1182.8 927.7C1187.4 932.8 1194.3 935.3 1203.3 935.3C1212.3 935.3 1219.2 932.8 1224 927.7C1228.8 922.6 1231.2 915.3 1231.2 905.9V811.4H1269.7V905.6C1269.7 919.7 1266.7 931.6 1260.7 941.4C1254.7 951.1 1246.6 958.5 1236.5 963.4C1226.4 968.3 1215.1 970.8 1202.7 970.8C1190.3 970.8 1179.1 968.4 1169.3 963.5C1159.5 958.6 1151.7 951.3 1146 941.5C1140.3 931.7 1137.5 919.7 1137.5 905.6V811.4H1176H1175.8Z" fill="#6923F4"/>
<path id="Vector_10" d="M1300.1 848.4C1306.8 836.2 1316.3 826.7 1328.3 819.8C1340.4 813 1354 809.6 1369.3 809.6C1384.6 809.6 1404.1 814.5 1417.4 824.4C1430.7 834.3 1439.7 847.8 1444.2 864.9H1401.9C1398.8 858.3 1394.3 853.3 1388.5 849.8C1382.7 846.4 1376.2 844.6 1368.8 844.6C1357 844.6 1347.4 848.7 1340 857C1332.6 865.2 1329 876.3 1329 890.1C1329 903.9 1332.7 914.9 1340 923.2C1347.3 931.5 1356.9 935.6 1368.8 935.6C1380.7 935.6 1382.7 933.9 1388.5 930.4C1394.3 927 1398.7 921.9 1401.9 915.3H1444.2C1439.7 932.4 1430.8 945.8 1417.4 955.7C1404.1 965.5 1388 970.4 1369.3 970.4C1350.6 970.4 1340.3 967 1328.3 960.2C1316.2 953.4 1306.8 943.9 1300.1 931.8C1293.4 919.7 1290 905.8 1290 890.2C1290 874.6 1293.4 860.7 1300.1 848.5V848.4Z" fill="#6923F4"/>
<path id="Vector_11" d="M1566.2 941.4H1507.3L1497.9 969.3H1457.6L1514.7 811.4H1559.2L1616.3 969.3H1575.6L1566.2 941.4ZM1556.3 911.7L1536.7 853.9L1517.4 911.7H1556.3Z" fill="#6923F4"/>
<path id="Vector_12" d="M1747.2 811.4V842.2H1705.4V969.3H1666.9V842.2H1625.1V811.4H1747.2Z" fill="#6923F4"/>
<path id="Vector_13" d="M1805 811.4V969.3H1766.5V811.4H1805Z" fill="#6923F4"/>
<path id="Vector_14" d="M1866.8 960.5C1854.4 953.6 1844.6 944 1837.3 931.6C1830 919.2 1826.4 905.3 1826.4 889.9C1826.4 874.5 1830 860.6 1837.3 848.3C1844.6 836 1854.4 826.4 1866.8 819.5C1879.2 812.6 1892.8 809.2 1907.6 809.2C1922.4 809.2 1936 812.7 1948.4 819.5C1960.8 826.4 1970.5 836 1977.6 848.3C1984.7 860.6 1988.3 874.5 1988.3 889.9C1988.3 905.3 1984.7 919.2 1977.5 931.6C1970.3 944 1960.6 953.6 1948.3 960.5C1936 967.4 1922.4 970.8 1907.6 970.8C1892.8 970.8 1879.2 967.4 1866.8 960.5ZM1937.8 923.2C1945.4 914.8 1949.2 903.7 1949.2 889.9C1949.2 876.1 1945.4 864.8 1937.8 856.5C1930.2 848.2 1920.1 844 1907.6 844C1895.1 844 1884.7 848.1 1877.1 856.4C1869.5 864.6 1865.7 875.8 1865.7 889.9C1865.7 904 1869.5 915 1877.1 923.3C1884.7 931.6 1894.8 935.8 1907.6 935.8C1920.4 935.8 1930.3 931.6 1937.8 923.2Z" fill="#6923F4"/>
<path id="Vector_15" d="M2150.9 969.3H2112.4L2048.1 871.9V969.3H2009.6V811.4H2048.1L2112.4 909.2V811.4H2150.9V969.3Z" fill="#6923F4"/>
</g>
</g>
<defs>
<clipPath id="clip0_4652_16207">
<rect width="2205.7" height="970.8" fill="white"/>
</clipPath>
</defs>
</svg>
