<svg width="1040" height="514" viewBox="0 0 1040 514" fill="none" xmlns="http://www.w3.org/2000/svg">
<rect width="1040" height="514" fill="#F5F5F5"/>
<g id="Legacy Xplor Education Logo" clip-path="url(#clip0_4652_16207)">
<path id="Vector" d="M397.258 495.962V512.383H317.188V396.575H394.637V412.828H335.539V446.004H381.445V462.118H335.539V495.962H397.258Z" fill="#F44E27"/>
<path id="Vector_2" d="M489.656 391.529V512.383H473.369L471.918 499.698C466.87 508.062 455.966 514 443.109 514C420.156 514 403.561 498.081 403.561 470.9C403.561 443.021 420.992 427.325 443.109 427.325C456.133 427.325 466.703 432.901 471.751 441.264V391.529H489.656ZM471.416 470.9C471.416 453.838 460.679 443.021 446.678 443.244C432.036 443.244 421.968 454.005 421.968 470.9C421.968 487.794 432.204 498.249 446.678 498.249C460.679 498.249 471.416 488.156 471.416 470.9Z" fill="#F44E27"/>
<path id="Vector_3" d="M580.66 428.942V512.383H564.707L563.396 501.65C560.896 505.599 557.398 508.82 553.256 510.988C549.114 513.157 544.473 514.195 539.801 514C518.968 514 506.78 500.061 506.78 478.706V428.942H523.849V476.336C523.849 491.474 531.658 498.639 543.539 498.444C556.563 498.304 563.563 489.021 563.563 474.719V428.998L580.66 428.942Z" fill="#F44E27"/>
<path id="Vector_4" d="M636.299 442.77C622.355 442.77 613.04 452.862 613.04 470.649C613.04 489.355 622.801 498.527 635.825 498.527C646.228 498.527 653.898 492.673 657.3 481.633H676.181C671.942 501.789 656.659 514.139 636.16 514.139C611.422 514.139 594.8 496.91 594.8 470.732C594.8 444.554 611.534 427.464 636.299 427.464C656.659 427.464 671.775 439.006 676.181 459.163H656.993C655.95 454.471 653.324 450.281 649.556 447.296C645.788 444.311 641.107 442.713 636.299 442.77Z" fill="#F44E27"/>
<path id="Vector_5" d="M767.157 499.057V512.383H757.061C750.228 512.383 744.064 509.79 742.754 501.817C738.04 509.121 727.777 514 714.864 514C696.485 514 684.771 504.41 684.771 488.463C684.771 474.329 693.724 463.902 716.51 463.902H740.746V459.692C740.746 447.481 733.438 441.794 722.534 441.794C711.629 441.794 704.294 447.37 703.82 455.929H687.365C687.755 437.891 702.565 427.409 723.203 427.409C742.726 427.409 758.678 437.194 758.678 459.804V493.453C758.678 498.026 760.463 499.029 764.256 499.029L767.157 499.057ZM740.634 476.113H718.824C706.776 476.113 703.039 481.493 703.039 487.655C703.039 496.018 709.732 499.866 718.824 499.866C731.207 499.866 740.634 493.202 740.634 479.514V476.113Z" fill="#F44E27"/>
<path id="Vector_6" d="M781.269 489.773V444.889H767.324V429.109H774.464C779.679 429.109 781.325 426.489 781.325 421.303V406.806H799.035V429.109H818.418V444.889H799.035V486.372C799.035 493.035 801.015 496.604 808.824 496.604H818.25V512.383H803.776C789.245 512.383 781.269 504.27 781.269 489.773Z" fill="#F44E27"/>
<path id="Vector_7" d="M828.876 394.93H848.706V413.469H829.016L828.876 394.93ZM829.853 429.109H847.59V512.383H829.853V429.109Z" fill="#F44E27"/>
<path id="Vector_8" d="M904.094 427.409C929.474 427.409 947.044 445.14 947.044 470.844C947.044 496.548 929.474 514.084 904.094 514.084C878.715 514.084 861.284 496.52 861.284 470.844C861.284 445.167 878.854 427.409 904.094 427.409ZM904.094 498.806C919.071 498.806 928.832 487.655 928.832 470.676C928.832 453.698 919.071 442.519 904.094 442.519C889.118 442.519 879.524 453.42 879.524 470.676C879.524 487.933 889.285 498.722 904.094 498.722V498.806Z" fill="#F44E27"/>
<path id="Vector_9" d="M1038.16 462.62V512.383H1020.25V466.439C1020.25 450.827 1012.28 443.188 1000.06 443.188C986.117 443.188 978.755 452.946 978.755 467.749V512.355H961.017V429.109H977.137L978.42 440.261C983.133 432.287 992.086 427.409 1004.78 427.409C1025.78 427.409 1038.16 441.348 1038.16 462.62Z" fill="#F44E27"/>
<path id="Vector_10" d="M726.968 316.117H684.409V119.795H726.968V316.117Z" fill="#F44E27"/>
<path id="Vector_11" d="M1040 158.072V194.956H1003.74C978.504 194.956 970.583 209.871 970.583 233.986V316.228H928.107V158.072H970.667V186.955C975.799 173.824 991.751 158.072 1012.5 158.072H1040Z" fill="#F44E27"/>
<path id="Vector_12" d="M827.538 154.448C811.18 154.443 795.189 159.287 781.586 168.367C767.983 177.448 757.38 190.358 751.117 205.463C744.855 220.568 743.215 237.191 746.405 253.228C749.595 269.265 757.471 283.996 769.037 295.558C780.604 307.12 795.341 314.993 811.384 318.182C827.427 321.371 844.057 319.731 859.168 313.471C874.279 307.212 887.193 296.613 896.278 283.015C905.362 269.417 910.208 253.432 910.202 237.081C910.202 215.165 901.493 194.147 885.99 178.651C870.488 163.154 849.462 154.448 827.538 154.448ZM827.538 281.687C818.712 281.687 810.085 279.071 802.746 274.169C795.408 269.268 789.689 262.301 786.311 254.151C782.934 246 782.05 237.031 783.772 228.378C785.494 219.726 789.744 211.778 795.984 205.539C802.225 199.301 810.176 195.053 818.832 193.332C827.488 191.611 836.46 192.494 844.614 195.87C852.768 199.246 859.737 204.964 864.641 212.299C869.544 219.634 872.161 228.258 872.161 237.081C872.161 248.911 867.46 260.257 859.091 268.622C850.723 276.987 839.373 281.687 827.538 281.687Z" fill="#F44E27"/>
<path id="Vector_13" d="M474.345 158.044H444.754L395.278 207.501L345.802 158.044H316.239V187.624L365.687 237.081L316.239 286.538V316.117H345.802L395.278 266.66L444.754 316.117H474.345V286.538L424.869 237.081L474.345 187.624V158.044Z" fill="#F44E27"/>
<path id="Vector_14" d="M586.544 154.448C567.886 154.448 545.742 165.349 537.849 177.476V157.961H495.401V354.283H537.961V296.574C545.993 308.813 567.691 319.63 586.628 319.63C632.283 319.63 666.532 282.607 666.532 236.969C666.532 191.332 632.283 154.448 586.544 154.448ZM583.755 281.687C574.93 281.687 566.302 279.071 558.964 274.169C551.626 269.268 545.906 262.301 542.529 254.151C539.152 246 538.268 237.031 539.99 228.378C541.711 219.726 545.961 211.778 552.202 205.539C558.443 199.301 566.394 195.053 575.05 193.332C583.706 191.611 592.678 192.494 600.832 195.87C608.986 199.246 615.955 204.964 620.858 212.299C625.762 219.634 628.379 228.258 628.379 237.081C628.379 248.911 623.677 260.257 615.309 268.622C606.94 276.987 595.59 281.687 583.755 281.687Z" fill="#F44E27"/>
<g id="Group 4">
<path id="Vector_15" d="M191.35 221.608C228.06 197.012 258.484 164.148 280.174 125.659C301.865 87.17 314.218 44.13 316.239 0C272.089 2.01921 229.029 14.3696 190.524 36.0574C152.019 57.7452 119.145 88.1648 94.5454 124.869C78.0381 121.903 61.0915 122.437 44.8041 126.438C28.5168 130.439 13.2522 137.816 0 148.092V168.137C19.4394 168.115 38.6923 171.926 56.6562 179.352C74.6201 186.778 90.9422 197.673 104.688 211.414C118.434 225.154 129.333 241.47 136.762 259.427C144.191 277.384 148.004 296.629 147.982 316.061H168.202C178.447 302.807 185.8 287.555 189.787 271.286C193.774 255.018 194.307 238.095 191.35 221.608ZM210.482 70.5611C217.479 70.5556 224.32 72.6268 230.139 76.5122C235.957 80.3975 240.49 85.9221 243.164 92.3857C245.838 98.8493 246.532 105.961 245.158 112.819C243.784 119.677 240.404 125.973 235.447 130.909C230.489 135.845 224.177 139.199 217.311 140.545C210.445 141.892 203.333 141.17 196.878 138.471C190.422 135.773 184.913 131.22 181.05 125.388C177.186 119.557 175.141 112.71 175.174 105.716C175.211 96.3796 178.947 87.4381 185.565 80.8492C192.182 74.2603 201.142 70.561 210.482 70.5611Z" fill="#F44E27"/>
<path id="Vector_16" d="M77.9512 277.17C77.3567 267.24 72.9915 257.912 65.7475 251.091C58.5034 244.27 48.9273 240.471 38.9756 240.471C29.0239 240.471 19.4478 244.27 12.2037 251.091C4.95966 257.912 0.594463 267.24 0 277.17V316.2H39.0453C49.4008 316.2 59.3321 312.088 66.6545 304.769C73.9769 297.449 78.0907 287.522 78.0907 277.17H77.9512Z" fill="#F44E27"/>
</g>
</g>
<defs>
<clipPath id="clip0_4652_16207">
<rect width="1040" height="514" fill="white"/>
</clipPath>
</defs>
</svg>
