<svg width="16" height="16" viewBox="0 0 16 16" fill="none" xmlns="http://www.w3.org/2000/svg">
<path d="M8.87998 4.16C9.03838 4.16 9.19678 4.16 9.35998 4.16C9.43702 4.32149 9.51357 4.48321 9.58998 4.645C9.61468 4.69715 9.63939 4.74929 9.66484 4.80301C9.82274 5.14013 9.97106 5.47982 10.1128 5.82407C10.1463 5.90434 10.1797 5.98462 10.2142 6.06733C10.2799 6.22545 10.3444 6.38404 10.4076 6.54315C10.7241 7.30036 11.161 7.88174 11.915 8.23C11.9671 8.25478 12.0192 8.27956 12.073 8.30508C12.4331 8.47372 12.7992 8.62847 13.165 8.78438C13.2557 8.82337 13.3465 8.86237 13.44 8.90254C13.6217 8.98015 13.8039 9.05651 13.9867 9.13153C14.0702 9.16691 14.1536 9.2023 14.2397 9.23875C14.3149 9.26987 14.3901 9.30099 14.4676 9.33305C14.64 9.44 14.64 9.44 14.715 9.59758C14.72 9.76 14.72 9.76 14.56 10C14.3589 10.0985 14.1616 10.1857 13.9544 10.2691C13.8302 10.3208 13.706 10.3725 13.5819 10.4242C13.3866 10.5045 13.1912 10.5845 12.9958 10.6643C11.9845 11.0501 11.9845 11.0501 11.12 11.68C11.0796 11.7202 11.0392 11.7603 10.9976 11.8017C10.4833 12.3995 10.2421 13.2252 9.95044 13.9468C9.87346 14.1364 9.79521 14.3254 9.71685 14.5144C9.69376 14.5728 9.67067 14.6312 9.64688 14.6914C9.55129 14.9212 9.47888 15.0906 9.27767 15.2429C9.11998 15.28 9.11998 15.28 8.87998 15.2C8.77637 14.9917 8.68734 14.7885 8.60185 14.5728C8.54762 14.4418 8.49335 14.3108 8.43904 14.1798C8.35472 13.9737 8.27091 13.7673 8.18798 13.5606C7.61163 12.1116 7.61163 12.1116 6.40998 11.17C6.27014 11.1058 6.27014 11.1058 6.12748 11.0403C6.07241 11.0163 6.01734 10.9923 5.9606 10.9675C5.70871 10.8576 5.45816 10.7448 5.20748 10.6322C4.67269 10.3924 4.13663 10.1556 3.59998 9.92C3.59998 9.7616 3.59998 9.6032 3.59998 9.44C3.68471 9.4029 3.76944 9.36581 3.85673 9.32758C4.17272 9.18908 4.48844 9.04998 4.80408 8.91071C4.94041 8.85065 5.07682 8.79075 5.2133 8.73102C5.41009 8.64486 5.60661 8.55811 5.8031 8.47125C5.86362 8.44491 5.92414 8.41856 5.98649 8.39141C7.02455 7.9302 7.52089 7.29663 7.96498 6.27C8.00255 6.1856 8.04012 6.10119 8.07882 6.01422C8.18714 5.77001 8.29384 5.52517 8.39998 5.28C8.42846 5.21465 8.45695 5.14929 8.4863 5.08196C8.61975 4.77555 8.75128 4.46844 8.87998 4.16Z" fill="white"></path>
<path d="M3.75999 2.64C3.86559 2.64 3.97119 2.64 4.07999 2.64C4.09686 2.68153 4.11373 2.72305 4.13112 2.76584C4.20937 2.95616 4.28965 3.14555 4.36999 3.335C4.39649 3.40033 4.42299 3.46566 4.4503 3.53297C4.75392 4.24047 5.22925 4.52097 5.90999 4.825C5.97269 4.85372 6.03539 4.88244 6.09999 4.91203C6.25302 4.98202 6.40646 5.0511 6.55999 5.12C6.53946 5.27018 6.53946 5.27018 6.47999 5.44C6.34379 5.52873 6.34379 5.52873 6.16842 5.59719C6.10516 5.62323 6.04189 5.64927 5.9767 5.67609C5.91014 5.70213 5.84357 5.72817 5.77499 5.755C4.9889 6.06314 4.72322 6.4267 4.37999 7.185C4.3509 7.24806 4.32182 7.31112 4.29186 7.37609C4.22074 7.5305 4.15029 7.68522 4.07999 7.84C3.97439 7.84 3.86879 7.84 3.75999 7.84C3.6548 7.60508 3.54987 7.37005 3.44499 7.135C3.41513 7.06833 3.38528 7.00166 3.35452 6.93297C3.3259 6.86877 3.29728 6.80458 3.2678 6.73844C3.2414 6.67937 3.21501 6.62029 3.18782 6.55943C3.11999 6.4 3.11999 6.4 3.03999 6.16C2.86713 6.07532 2.86713 6.07532 2.63999 6C2.53329 5.95475 2.42696 5.90863 2.32092 5.86187C2.26446 5.83712 2.208 5.81237 2.14983 5.78687C2.06328 5.74882 2.06328 5.74882 1.97499 5.71C1.91574 5.68401 1.85649 5.65802 1.79545 5.63125C1.65027 5.56756 1.50513 5.50379 1.35999 5.44C1.35999 5.3344 1.35999 5.2288 1.35999 5.12C2.31999 4.64 2.31999 4.64 2.48299 4.57467C2.94794 4.37708 3.1127 4.14159 3.30999 3.685C3.33628 3.62874 3.36258 3.57249 3.38967 3.51453C3.52285 3.22689 3.64545 2.93559 3.75999 2.64Z" fill="white"></path>
<path d="M7.60001 0.800003C7.67921 0.800003 7.75841 0.800003 7.84001 0.800003C7.85867 0.852184 7.87734 0.904366 7.89657 0.958128C8.15874 1.58623 8.50456 1.81485 9.12001 2.08C9.08041 2.1988 9.08041 2.1988 9.04001 2.32C8.87126 2.4 8.87126 2.4 8.66001 2.48C8.2024 2.69176 8.07515 2.96276 7.89938 3.42157C7.87979 3.48045 7.86019 3.53933 7.84001 3.6C7.76081 3.6 7.68161 3.6 7.60001 3.6C7.57464 3.53534 7.54927 3.47068 7.52313 3.40407C7.27048 2.82547 7.06919 2.53436 6.47813 2.29375C6.39986 2.26715 6.39986 2.26715 6.32001 2.24C6.32001 2.1872 6.32001 2.1344 6.32001 2.08C6.37889 2.05463 6.43778 2.02927 6.49844 2.00313C7.10675 1.71224 7.37282 1.43511 7.60001 0.800003Z" fill="white"></path>
</svg>